<svg width="97" height="28" viewBox="0 0 97 28" fill="none" xmlns="http://www.w3.org/2000/svg">
<g clip-path="url(#clip0_12434_345259)">
<path d="M19.6286 6.64289L18.036 9.78728C16.4434 8.27634 14.5785 6.84707 11.9106 6.84707C7.81332 6.84707 4.39669 9.25641 4.39669 15.4771C4.39669 21.0853 7.41857 25.0056 12.8498 25.0056C14.7963 25.0056 16.7292 24.4883 18.3354 23.4538L18.9344 24.7061C17.2465 26.3395 14.9188 27.7688 11.3388 27.7688C5.17258 27.7824 0 23.2496 0 16.3483C0 9.44698 5.13175 4.49219 11.9106 4.49219C15.1911 4.49219 17.2601 5.26807 19.6286 6.64289Z" fill="#575756"/>
<path d="M23.687 6.42309C25.0618 5.34773 27.3486 4.47656 30.9286 4.47656C36.1965 4.47656 39.6403 7.32148 39.6403 13.1883V23.5879L40.634 27.1679H36.1012L35.407 24.7994C33.7735 26.8276 32.3034 27.9982 29.4993 27.9982C26.0419 27.9982 22.6797 26.0108 22.6797 22.2131C22.6797 18.4153 25.7832 16.6457 30.5747 15.3118L35.3661 13.9778V13.2836C35.3661 9.10466 33.7735 6.85867 30.4522 6.85867C27.4711 6.85867 25.756 8.66908 23.4692 10.7789L23.687 6.42309ZM26.9267 21.655C26.9267 23.2476 28.0428 25.3166 30.9014 25.3166C32.5893 25.3166 33.7871 24.8402 35.3933 23.5062V15.9107L31.4186 17.0813C28.0973 18.0342 26.9267 19.2865 26.9267 21.655Z" fill="#575756"/>
<path d="M46.3341 24.7993V11.0783L45.4766 5.59265H50.4313L50.5675 10.1255C52.337 7.44389 54.8825 4.89844 58.2855 4.89844L57.9452 9.29513C54.4061 8.26062 52.4187 9.94851 50.6083 12.6165V24.7856L51.2617 27.1542H45.8305L46.3477 24.7856L46.3341 24.7993Z" fill="#575756"/>
<path d="M70.2756 27.7414C65.7836 27.7414 63.4968 25.5362 63.4968 21.0579V7.63636H60.9922V6.7788L67.0768 0H67.771V5.17258H75.2304V7.63636H67.771V20.8809C67.771 23.9028 69.0641 24.9373 71.4326 24.9373C72.9436 24.9373 74.3184 24.597 75.0943 24.1206L75.5707 25.1142C74.4545 26.4482 72.7258 27.7414 70.262 27.7414H70.2756Z" fill="#575756"/>
<path d="M79.5112 6.42309C80.886 5.34773 83.1728 4.47656 86.7528 4.47656C92.0207 4.47656 95.4645 7.32148 95.4645 13.1883V23.5879L96.4582 27.1679H91.9254L91.2312 24.7994C89.5977 26.8276 88.1276 27.9982 85.3235 27.9982C81.8661 27.9982 78.5039 26.0108 78.5039 22.2131C78.5039 18.4153 81.6075 16.6457 86.3989 15.3118L91.1903 13.9778V13.2836C91.1903 9.10466 89.5977 6.85867 86.2764 6.85867C83.2954 6.85867 81.5802 8.66908 79.2934 10.7789L79.5112 6.42309ZM82.7509 21.655C82.7509 23.2476 83.8671 25.3166 86.7256 25.3166C88.4135 25.3166 89.6113 24.8402 91.2176 23.5062V15.9107L87.2428 17.0813C83.9215 18.0342 82.7509 19.2865 82.7509 21.655Z" fill="#575756"/>
</g>
<defs>
<clipPath id="clip0_12434_345259">
<rect width="96.4687" height="28" fill="white"/>
</clipPath>
</defs>
</svg>
