<svg width="149" height="78" viewBox="0 0 149 78" fill="none" xmlns="http://www.w3.org/2000/svg">
<path d="M131.639 27.9376C131.639 27.7035 131.62 27.4676 131.609 27.2334C131.621 27.1198 131.611 27.0272 131.457 27.0552C131.271 26.9923 131.087 26.987 130.903 27.0604C130.282 27.043 129.662 27.0098 129.041 27.0098C103.191 27.008 77.3389 27.0098 51.4888 27.0063C49.4305 27.0063 47.3722 26.9923 45.3139 26.9853C45.1263 26.9049 44.9493 26.9171 44.7617 26.987C44.8555 27.2352 44.9989 27.2579 45.1723 27.2072C45.5033 27.4728 45.9298 27.375 46.2979 27.4973C47.2696 27.8817 48.2607 28.2259 49.2111 28.6558C52.6109 30.1987 55.6214 32.238 57.5204 35.5266C59.5876 39.1035 59.9451 42.7608 57.7009 46.4268C56.6921 48.0763 55.2019 49.2506 53.6268 50.3322C53.6126 50.4248 53.5878 50.4965 53.5489 50.5437C53.5878 50.4965 53.6144 50.4248 53.6268 50.3322C53.4923 50.4074 53.3578 50.4825 53.2233 50.5576C53.1737 50.6066 53.1224 50.6555 53.0728 50.7044C52.8304 50.7481 52.5295 50.6817 52.4215 51.0469H53.3365C53.4339 51.0469 53.5294 51.0469 53.6268 51.0469C53.6427 50.9106 53.6976 50.8407 53.7719 50.8075C53.6976 50.8425 53.6427 50.9106 53.6268 51.0469C53.8887 51.0556 54.1507 51.0714 54.4126 51.0714C60.738 51.0714 67.0633 51.0749 73.3887 51.0714C75.0346 51.0714 76.6806 51.0556 78.3283 51.0469C78.5654 51.0574 78.8043 51.0766 79.0415 51.0766C96.3026 51.0801 113.564 51.0819 130.827 51.0836C131.041 51.0836 131.255 51.0644 131.469 51.0539C131.582 51.0731 131.628 51.0259 131.609 50.9158C131.62 50.6817 131.639 50.4458 131.639 50.2117C131.639 42.787 131.639 35.3623 131.639 27.9376ZM118.248 35.544C118.248 35.544 118.243 35.5405 118.24 35.5388C118.243 35.5388 118.245 35.5423 118.248 35.544ZM118.141 35.4968C118.141 35.4968 118.141 35.4968 118.139 35.4968C118.139 35.4968 118.139 35.4968 118.141 35.4968ZM64.5661 41.2563C64.5484 42.0618 64.7271 42.8796 64.4564 43.6729C64.4351 43.6642 64.4121 43.6484 64.3909 43.6467C63.4658 43.5698 63.0033 43.07 63.0033 42.1474C63.0033 40.241 63.0228 38.3329 62.9892 36.4282C62.9803 35.9582 63.152 35.8044 63.5785 35.7712C64.1732 35.724 64.7679 35.6891 65.3625 35.752C66.3395 35.8568 67.1376 36.2709 67.3837 37.26C67.6438 38.3049 67.5359 39.3236 66.6545 40.1152C66.5324 40.2235 66.3943 40.3162 66.2651 40.4158C65.8793 40.5136 65.4935 40.6866 65.1059 40.6918C64.6563 40.6988 64.5785 40.8421 64.5696 41.2563H64.5661ZM73.3568 43.6117C72.5303 43.8319 71.9569 43.6117 71.8489 43.0858C71.7445 42.5773 71.6755 42.0618 71.5711 41.5516C71.5109 41.2563 71.472 40.947 71.2507 40.7041C71.0861 40.5241 70.8879 40.4874 70.6667 40.5276C70.3694 40.5818 70.4915 40.8212 70.4897 40.9837C70.4791 41.7158 70.4685 42.448 70.4932 43.1801C70.5039 43.5209 70.3924 43.617 70.049 43.631C68.9128 43.6781 68.9128 43.6939 68.9128 42.5948C68.9128 40.5398 68.9323 38.4849 68.8986 36.4317C68.8898 35.9512 69.0791 35.8201 69.4933 35.7747C70.2331 35.696 70.9729 35.724 71.7127 35.7642C71.8419 35.8708 71.9958 35.8865 72.1533 35.8848L72.1781 35.911L72.21 35.8952C72.3038 35.897 72.4047 35.8883 72.4914 35.9005C72.4047 35.8865 72.3038 35.897 72.21 35.8952C72.3675 36.0158 72.4878 36.1958 72.7144 36.2063C72.9108 36.4771 73.1073 36.748 73.3055 37.0171C73.3391 37.1184 73.371 37.2198 73.4046 37.3194C73.4064 37.6863 73.4099 38.0515 73.4117 38.4185C73.3798 38.5181 73.3462 38.6159 73.3143 38.7155C73.0878 39.1961 72.7551 39.584 72.2401 39.8863C73.3267 40.6394 73.1108 41.8626 73.4188 42.8866C73.4719 43.0613 73.8948 43.4667 73.3568 43.6082V43.6117ZM46.7121 27.1967C46.7315 27.1967 46.7528 27.1967 46.7722 27.2002C46.7528 27.2002 46.7315 27.1985 46.7121 27.1967ZM79.7406 39.6539C79.6822 40.5957 79.6291 41.5393 79.1937 42.4078C78.776 43.2413 78.1159 43.7078 77.1531 43.7131C76.2116 43.7183 75.5337 43.2588 75.1727 42.4445C74.4099 40.725 74.3745 38.9584 75.0913 37.2145C75.5373 36.1329 76.4505 35.5598 77.4097 35.6471C78.3938 35.738 79.176 36.4457 79.4645 37.5518C79.6432 38.2385 79.7618 38.9375 79.7406 39.6539ZM83.0679 37.1534C82.9829 37.1691 82.8236 37.1848 82.8219 37.2023C82.8112 37.8086 82.6838 38.4587 82.8732 39.0021C82.9723 39.2869 83.6554 39.0668 84.0731 39.1035C84.2147 39.1157 84.3581 39.1017 84.4997 39.0982C84.6106 39.9568 84.2513 40.389 83.4218 40.3948C83.2555 40.3948 83.0891 40.4158 82.9227 40.428C82.8148 40.4123 82.7847 40.4629 82.8059 40.559C82.8077 40.608 82.8095 40.6586 82.813 40.7076C82.7192 41.6914 82.8873 42.6839 82.7245 43.6677C82.2325 43.6677 81.7423 43.6677 81.2503 43.6677C81.1193 41.0273 81.1795 38.387 81.2184 35.7467C82.3582 35.7467 83.4979 35.745 84.6377 35.7432C84.6961 36.2133 84.7563 36.6816 84.6005 37.1464C84.0891 37.1481 83.5793 37.1516 83.0679 37.1534ZM89.3755 37.1272C88.9525 37.0922 88.5225 37.1411 88.0959 37.1516C87.9756 37.1324 87.9243 37.1831 87.9437 37.3019C87.9437 37.8209 87.9437 38.3399 87.9437 38.8588C87.9013 39.1157 88.0712 39.107 88.2481 39.1052C88.726 39.1052 89.2039 39.1087 89.6817 39.1122C89.7289 39.9591 89.3395 40.3866 88.5136 40.3948C88.3738 40.3948 88.234 40.414 88.0924 40.4245C88.0676 40.4472 88.0428 40.4699 88.0181 40.4944C88.0428 40.4717 88.0676 40.449 88.0924 40.4245C87.9827 40.4088 87.9225 40.4437 87.942 40.5625C87.9296 41.3873 87.88 42.2138 87.9207 43.0369C87.9473 43.5611 87.7561 43.6974 87.273 43.6467C86.9916 43.617 86.7013 43.6572 86.4146 43.6677C86.273 41.0273 86.3385 38.3853 86.381 35.745C87.3792 35.7467 88.3791 35.7817 89.3773 35.7415C90.0074 35.7153 89.8392 36.1207 89.841 36.4334C89.8428 36.7532 89.9967 37.1761 89.372 37.1272H89.3755ZM97.2265 36.2849C97.076 36.5732 97.453 37.3124 96.5557 37.0747C95.8372 36.8843 95.2053 37.3491 94.9133 38.1249C94.7204 38.6387 94.639 39.1734 94.6602 39.6836C94.6514 40.1956 94.6992 40.6604 94.8443 41.1165C95.1328 42.0251 95.6407 42.3763 96.6053 42.289C96.8867 42.2628 97.1645 42.1964 97.1132 42.6087C97.069 42.96 97.538 43.4475 96.8141 43.6362C95.4938 43.9787 94.078 43.4143 93.501 42.1771C92.7294 40.5206 92.7648 38.8309 93.6054 37.2075C94.1895 36.0805 95.5221 35.5056 96.7539 35.731C97.0743 35.7904 97.4477 35.869 97.23 36.2867L97.2265 36.2849ZM103.032 41.9814C102.554 43.2588 101.895 43.762 100.752 43.7271C99.5662 43.6904 98.9892 43.1557 98.5645 41.6966C98.4972 39.7203 98.4848 37.7422 98.5539 35.7659C100.097 35.7292 100.081 35.7292 100.101 37.2739C100.12 38.6544 100.01 40.0366 100.163 41.4153C100.148 41.5743 100.15 41.7298 100.285 41.8486C100.283 41.9639 100.272 42.0845 100.417 42.1334C100.587 42.3152 100.763 42.4777 101.03 42.2872C101.614 42.0461 101.586 41.5184 101.591 41.0396C101.61 39.5316 101.632 38.0218 101.582 36.5138C101.563 35.9005 101.701 35.6401 102.35 35.7485C102.605 35.7904 102.874 35.7572 103.138 35.7572C103.152 37.5483 103.166 39.3394 103.18 41.1304C103.166 41.2685 103.152 41.4048 103.136 41.5428C103.408 41.7595 103.366 41.9045 103.032 41.9814ZM106.231 43.6414C105.807 43.6048 105.371 43.7271 104.955 43.5646C104.95 40.9994 104.946 38.4325 104.941 35.8673C104.824 35.9337 104.777 36.0246 104.761 36.1242C104.778 36.0246 104.824 35.9337 104.941 35.8673C105.392 35.6296 105.876 35.7956 106.343 35.7607C106.578 35.7432 106.582 35.9319 106.582 36.1067C106.582 38.4901 106.576 40.8736 106.585 43.257C106.585 43.5209 106.522 43.6677 106.231 43.6414ZM112.079 42.1072C111.741 43.1172 110.808 43.7061 109.417 43.7009C109.336 43.6921 109.12 43.6851 108.909 43.6467C108.049 43.4929 107.851 43.0718 108.221 42.282C108.339 42.0304 108.479 42.1509 108.624 42.1894C109.04 42.2977 109.454 42.42 109.893 42.3222C110.674 42.1474 110.92 41.4258 110.405 40.8142C110.157 40.5189 109.822 40.3336 109.506 40.1222C108.743 39.6137 108.159 38.9794 108.139 38.0079C108.104 36.2744 110.146 35.0478 111.69 35.897C112.185 36.1696 111.716 36.5977 111.714 36.9507C111.711 37.3491 111.426 37.2023 111.21 37.1289C110.909 37.0258 110.605 36.9926 110.297 37.0922C109.638 37.3071 109.467 37.9048 109.916 38.4272C110.215 38.775 110.636 38.9637 111.006 39.2205C112.065 39.9562 112.451 40.9959 112.077 42.1107L112.079 42.1072ZM114.509 43.6502C114.227 43.6117 113.937 43.6467 113.65 43.6467C113.658 41.0134 113.665 38.38 113.673 35.7467C114.689 35.763 115.197 36.2832 115.197 37.3071C115.197 39.1908 115.173 41.0745 115.213 42.9582C115.226 43.5209 115.075 43.7271 114.509 43.6502ZM119.355 41.7613C119.36 41.7805 119.367 41.7997 119.372 41.8189C119.367 41.7997 119.362 41.7805 119.355 41.7613ZM121.558 43.6222C121.128 43.5908 120.585 43.9245 120.273 43.3619C120.103 43.0561 119.979 42.7258 119.836 42.406C119.599 42.3728 119.503 42.2383 119.447 42.0793C119.44 42.0601 119.434 42.0408 119.427 42.0216C119.433 42.0408 119.44 42.0601 119.447 42.0793C119.503 42.2383 119.599 42.3711 119.836 42.406C119.378 41.2126 118.917 40.0191 118.459 38.8256C118.399 40.4717 118.532 42.0688 118.349 43.6659C117.912 43.5104 117.362 43.9018 116.995 43.3951C117.011 42.2243 117.02 41.0536 117.045 39.8846C117.075 38.5041 116.965 37.1219 117.105 35.7432C117.574 35.7537 118.043 35.7642 118.512 35.7764C118.804 36.4754 119.098 37.1761 119.39 37.875C119.372 38.0428 119.434 38.1791 119.551 38.2962C119.721 39.1804 120.238 39.9335 120.581 40.7775C120.53 40.2795 120.478 39.7815 120.429 39.2817C120.422 39.0947 120.415 38.9078 120.408 38.7208C120.42 37.7335 120.434 36.7462 120.447 35.7572C121.36 35.7514 121.816 36.1999 121.816 37.1027C121.816 39.079 121.822 41.0571 121.808 43.0334C121.808 43.2465 121.992 43.6554 121.556 43.6222H121.558ZM125.958 43.6432C125.225 43.6449 124.492 43.6607 123.758 43.6694C123.666 43.6694 123.599 43.6502 123.551 43.617C123.6 43.6502 123.668 43.6694 123.758 43.6694C123.618 41.0291 123.68 38.387 123.726 35.7467C124.703 35.7485 125.684 35.7939 126.659 35.7397C127.273 35.7048 127.167 36.0613 127.16 36.4037C127.151 36.7497 127.315 37.1988 126.648 37.1289C126.25 37.087 125.841 37.1429 125.438 37.1534C125.39 37.2023 125.344 37.2512 125.296 37.3019C125.296 37.7283 125.296 38.1529 125.296 38.5792C125.216 38.8728 125.37 38.9025 125.602 38.8448C125.968 38.8448 126.335 38.8431 126.703 38.8414C126.791 38.8431 126.88 38.8466 126.968 38.8483C127.149 39.2852 127.013 39.7413 127.053 40.1851C126.652 40.1903 126.246 40.1729 125.846 40.2078C125.655 40.2235 125.342 40.0191 125.292 40.421C125.292 40.9417 125.292 41.4607 125.292 41.9814C125.218 42.268 125.402 42.2732 125.607 42.2732C126.168 42.2732 126.73 42.282 127.291 42.2872C127.312 43.19 126.866 43.642 125.953 43.6432H125.958Z" fill="#575756"/>
<path d="M103.136 41.5469C103.1 41.6937 103.067 41.8404 103.031 41.9855C103.364 41.9086 103.408 41.7636 103.136 41.5469Z" fill="#575756"/>
<path d="M125.293 37.3005C125.34 37.2516 125.386 37.2027 125.434 37.152C125.314 37.1328 125.277 37.1922 125.293 37.3005Z" fill="#575756"/>
<path d="M77.7745 37.5748C77.7745 37.4577 77.7604 37.3459 77.6329 37.2917C77.3338 36.8846 77.0383 36.8776 76.7427 37.2969C76.6223 37.3494 76.587 37.4542 76.5728 37.5695C76.4082 37.8858 76.325 38.2196 76.325 38.5743C76.3179 38.6669 76.3109 38.7595 76.302 38.8521C76.1887 39.4235 76.1817 39.9949 76.3056 40.5663L76.3268 40.8442C76.3268 41.2461 76.4135 41.6357 76.6294 41.9712C76.8383 42.298 77.1108 42.5898 77.532 42.1984L77.5497 42.1809C78.3568 40.6816 78.24 39.1369 77.7763 37.5748H77.7745ZM77.6701 37.6988C77.663 37.7128 77.6595 37.7251 77.6612 37.7355C77.6595 37.7233 77.663 37.7111 77.6701 37.6988ZM76.4914 39.6018C76.4878 39.5301 76.479 39.4585 76.4684 39.3868C76.4808 39.4585 76.4878 39.5301 76.4914 39.6018ZM76.4454 40.8721C76.4666 40.8808 76.4861 40.8931 76.502 40.9071C76.4861 40.8931 76.4684 40.8826 76.4454 40.8721ZM76.5693 41.0067C76.5799 41.0364 76.5887 41.0678 76.594 41.101C76.5887 41.0678 76.5799 41.0346 76.5693 41.0067ZM76.5993 41.136C76.6047 41.1709 76.6082 41.2076 76.6117 41.2443C76.6082 41.2076 76.6029 41.1709 76.5993 41.136ZM77.8453 39.8883C77.8418 40.0089 77.8365 40.1312 77.8276 40.2518C77.8365 40.1295 77.8418 40.0089 77.8453 39.8883C77.8453 39.8272 77.8471 39.7678 77.8471 39.7066C77.8471 39.766 77.8471 39.8272 77.8453 39.8883Z" fill="#575756"/>
<path d="M71.2724 37.0173C70.7609 36.7482 70.4866 36.9107 70.4813 37.4769C70.4795 37.6639 70.4813 37.8526 70.4813 38.0395C70.4813 38.2737 70.4795 38.5078 70.4813 38.742C70.4883 39.3082 70.6936 39.4444 71.2033 39.1893C71.6546 38.9639 71.8069 38.562 71.8139 38.0832C71.8192 37.6341 71.7042 37.2427 71.2741 37.0156L71.2724 37.0173Z" fill="#575756"/>
<path d="M65.5151 37.1399C65.2851 36.9722 65.0249 36.9215 64.7683 36.9914C64.4302 37.0823 64.5895 37.3846 64.5807 37.5943C64.5594 38.0888 64.593 38.5868 64.5665 39.0813C64.5488 39.4273 64.7152 39.4762 64.9983 39.4448C65.5735 39.3818 65.9594 38.8611 65.947 38.087C65.8992 37.769 65.862 37.3951 65.5134 37.1399H65.5151Z" fill="#575756"/>
<path d="M29.2648 34.6932C28.7817 34.6565 28.5711 34.791 28.61 35.3082C28.6525 35.8709 28.6206 36.4371 28.6206 37.0032C28.6206 38.704 29.387 39.456 30.9196 39.2591C32.1391 39.1036 32.7673 38.3365 32.7762 36.9945C32.785 35.6962 32.1125 34.8644 30.9072 34.7386C30.3639 34.6827 29.81 34.7351 29.2648 34.6932Z" fill="#575756"/>
<path d="M50.6217 31.5589C47.4891 29.0165 43.8008 27.7234 39.8363 27.1153C39.7921 27.0909 39.7461 27.0891 39.7001 27.1118C39.601 27.0909 39.5036 27.0681 39.4045 27.0472C39.3992 27.0577 39.3921 27.0681 39.3868 27.0786C39.3921 27.0681 39.3992 27.0594 39.4045 27.0472C39.3107 27.0315 39.2169 27 39.1231 27C33.1446 27.0035 27.1662 27.0087 21.1877 27.014C21.0089 27.014 21.016 27.1188 21.0532 27.2411C21.0461 34.9908 21.0461 42.7423 21.0195 50.492C21.0178 51.0319 21.2178 51.0843 21.6761 51.0826C29.0245 51.0703 36.371 51.0756 43.7193 51.0721C45.3458 51.0721 46.9723 51.0564 48.6005 51.0476C48.7439 51.0476 48.889 51.0494 49.0324 51.0511C49.1651 51.0756 49.2536 51.0144 49.3138 50.9043C50.4235 50.1984 51.3845 49.3142 52.2605 48.3532C54.0445 46.3943 55.2498 44.1716 55.3542 41.4614C55.5117 37.3463 53.7649 34.1084 50.6217 31.5572V31.5589ZM39.8204 27.138C39.785 27.1782 39.7514 27.1782 39.7178 27.1346C39.7496 27.1782 39.785 27.1782 39.8204 27.138ZM40.1319 32.9167C40.1655 32.9184 40.1974 32.9202 40.2292 32.9237C40.3372 32.9324 40.431 32.9464 40.5107 32.9674C40.5213 32.9708 40.5337 32.9726 40.5443 32.9761C40.631 33.0023 40.7 33.0372 40.7567 33.0844C40.8965 33.2032 40.9531 33.399 40.9743 33.724C40.9761 33.7572 40.9779 33.7904 40.9797 33.8253C40.9797 33.8428 40.9797 33.8603 40.9814 33.8795C40.9832 33.9337 40.985 33.9931 40.985 34.0542C40.985 34.0752 40.985 34.0962 40.985 34.1171C40.985 34.2447 40.985 34.3845 40.985 34.54C40.985 35.2966 40.985 36.0532 40.985 36.8081C40.985 37.563 40.985 38.3214 40.985 39.0762C40.985 40.5895 40.9814 42.101 40.9708 43.6142C40.9708 43.7593 40.9779 43.8781 41.0027 43.9724C41.008 43.9934 41.0151 44.0144 41.0221 44.0319C41.0363 44.0703 41.054 44.1035 41.077 44.1314C41.1159 44.1821 41.1673 44.2206 41.2363 44.2468C41.2664 44.2573 41.2982 44.2677 41.3336 44.2747C41.3566 44.28 41.3832 44.2835 41.4097 44.287C41.477 44.294 41.5531 44.2957 41.6398 44.294C41.9566 44.2835 42.2734 44.2782 42.5902 44.2765C42.907 44.2747 43.2238 44.2765 43.5424 44.2765C43.7017 44.2765 43.8592 44.2765 44.0184 44.2782C44.3352 44.2782 44.652 44.28 44.9706 44.2782C45.1299 44.2782 45.2874 44.2747 45.4467 44.2712C45.4998 44.2712 45.5476 44.2712 45.5918 44.273C45.8077 44.287 45.8998 44.3551 45.9069 44.5264C45.9086 44.577 45.9033 44.6382 45.8909 44.7098C45.8874 44.7343 45.8821 44.7588 45.8768 44.785C45.6042 46.1043 45.6219 46.1077 44.2414 46.1077C43.038 46.1077 41.8363 46.0955 40.6328 46.1043C40.2328 46.1078 39.831 46.1112 39.4311 46.12C39.3443 46.1217 39.2682 46.12 39.1992 46.1147C39.0205 46.099 38.8966 46.0501 38.8187 45.9522C38.8063 45.9365 38.7957 45.9208 38.7851 45.9033C38.755 45.8491 38.7337 45.7845 38.7214 45.7059C38.7107 45.6395 38.7054 45.5643 38.7054 45.4787C38.7054 45.4612 38.7054 45.4437 38.7054 45.4263C38.7444 43.4412 38.7196 41.4562 38.7196 39.4712C38.7196 38.2305 38.7249 36.9898 38.7231 35.7492C38.7231 35.5011 38.7231 35.2529 38.7231 35.0048C38.7231 34.5086 38.7178 34.0123 38.7125 33.516C38.7125 33.5021 38.7125 33.4881 38.7125 33.4758C38.7125 33.4496 38.7125 33.4234 38.7125 33.399C38.716 33.3011 38.7284 33.219 38.7532 33.1526C38.7621 33.1281 38.7727 33.1054 38.7868 33.0844C38.7904 33.0774 38.7957 33.0704 38.801 33.0635C38.8824 32.9516 39.0328 32.9044 39.3001 32.9062C39.6434 32.9062 39.916 32.9062 40.1337 32.9202L40.1319 32.9167ZM32.0615 33.0477C32.5429 33.1229 33.019 33.2399 33.3906 33.5964C33.3906 33.5964 33.3906 33.5964 33.3906 33.5947C33.5358 33.6156 33.6526 33.682 33.7481 33.7781C33.7481 33.7781 33.7499 33.7799 33.7517 33.7816C33.7835 33.8148 33.8136 33.8498 33.8419 33.89C33.934 33.9354 34.0172 33.9913 34.0915 34.0542C34.1163 34.0752 34.141 34.0979 34.1641 34.1206C34.2561 34.2115 34.334 34.3181 34.3977 34.4387C34.4791 34.4928 34.5428 34.5575 34.5924 34.6326C34.6419 34.7078 34.6755 34.7916 34.6968 34.886C34.7251 34.9 34.7481 34.9174 34.7676 34.9367C34.8242 34.9961 34.8419 35.0765 34.849 35.1603C35.1552 35.8139 35.2897 36.4604 35.2578 37.0999C35.256 37.1454 35.2525 37.1908 35.249 37.2362C35.2436 37.3061 35.2348 37.3778 35.2242 37.4477C35.1481 37.9701 34.9622 38.4874 34.6667 39.0011C34.4879 39.3366 34.2826 39.6197 34.0526 39.8608C33.8543 40.067 33.6402 40.2417 33.4083 40.3903C33.3322 40.4392 33.2526 40.4846 33.1729 40.5283C33.0933 40.572 33.0101 40.6122 32.9269 40.6489C32.5924 40.7974 32.2349 40.904 31.858 40.9739C31.5288 41.0351 31.1837 41.0718 30.8297 41.0857C30.6456 41.0945 30.4633 41.0997 30.2793 41.1032C30.0952 41.1067 29.9112 41.1102 29.7271 41.112C29.543 41.1137 29.359 41.1154 29.1749 41.1172C28.9908 41.1172 28.8068 41.1207 28.6227 41.1224C28.6227 41.4929 28.6227 41.8651 28.6227 42.2355C28.6227 42.4207 28.6227 42.606 28.6227 42.7929C28.6227 42.9782 28.6227 43.1651 28.6227 43.3504C28.6227 44.093 28.6245 44.8356 28.6351 45.5783C28.6386 45.795 28.6086 45.9348 28.5077 46.0169C28.451 46.0623 28.3732 46.0903 28.267 46.1043C28.2245 46.1095 28.1767 46.113 28.1236 46.1147C27.8829 46.1217 27.6776 46.127 27.5006 46.127C27.3237 46.127 27.175 46.1235 27.0511 46.1077C27.0228 46.1043 26.998 46.1008 26.9715 46.0973C26.6564 46.0448 26.5202 45.9068 26.4618 45.587C26.4565 45.5608 26.4529 45.5346 26.4494 45.5066C26.4423 45.4507 26.437 45.3896 26.4317 45.3232C26.4299 45.29 26.4281 45.255 26.4264 45.2201C26.4264 45.1851 26.4228 45.1467 26.4228 45.1082C26.4228 45.0698 26.4211 45.0296 26.4211 44.9877C26.4211 44.9667 26.4211 44.9457 26.4211 44.9248C26.4211 44.7955 26.4211 44.6539 26.4211 44.4967C26.4211 43.1354 26.4228 41.7742 26.4246 40.413C26.4246 39.9587 26.4246 39.5061 26.4246 39.0518C26.4246 37.2362 26.4211 35.4207 26.4087 33.6069C26.4087 33.572 26.4087 33.5387 26.4087 33.5073C26.414 33.3011 26.4476 33.1561 26.5255 33.06C26.5609 33.0163 26.6069 32.9813 26.6653 32.9569C26.7042 32.9411 26.7467 32.9289 26.798 32.9202C26.8847 32.9062 26.9892 32.9027 27.1148 32.9097C28.7342 32.9953 30.3625 32.7979 31.9765 33.0355C32.0084 33.0407 32.0403 33.0442 32.0721 33.0495L32.0615 33.0477ZM34.5587 46.2213C34.5127 46.1969 34.4685 46.1707 34.426 46.1427C34.3835 46.1147 34.341 46.0833 34.3003 46.0501C34.2596 46.0169 34.2207 45.9837 34.1835 45.947C34.1464 45.9103 34.111 45.8736 34.0773 45.8334C33.9428 45.6761 33.8366 45.4927 33.7712 45.2987C33.7552 45.2498 33.7411 45.2009 33.7287 45.1502C33.7181 45.0995 33.7092 45.0488 33.7021 44.9964C33.695 44.944 33.6933 44.8933 33.6933 44.8409C33.6933 44.8147 33.6933 44.7885 33.695 44.7623C33.7021 44.612 33.734 44.467 33.7871 44.3307C33.8136 44.2625 33.8437 44.1944 33.8791 44.1314C33.9021 44.0878 33.9287 44.0476 33.9552 44.0056C33.9694 43.9847 33.9835 43.9654 33.9977 43.9462C34.026 43.906 34.0579 43.8693 34.0897 43.8326C34.1216 43.7959 34.157 43.761 34.1924 43.7278C34.2455 43.6771 34.3021 43.6317 34.3605 43.588C34.38 43.574 34.3994 43.56 34.4207 43.5461C34.5428 43.4657 34.6755 43.4045 34.8136 43.3626C34.9516 43.3207 35.0968 43.2997 35.2419 43.3032C35.2684 43.3032 35.295 43.3049 35.3215 43.3067C35.3746 43.3102 35.4259 43.3172 35.4773 43.3259C35.5534 43.3399 35.6277 43.3591 35.7003 43.3836C35.7976 43.4168 35.8896 43.4587 35.9781 43.5076C35.9994 43.5199 36.0224 43.5338 36.0436 43.5461C36.3197 43.7208 36.5409 43.9759 36.6648 44.273C36.6737 44.2957 36.6825 44.3184 36.6914 44.3429C36.7161 44.4128 36.7374 44.4844 36.7515 44.5578C36.771 44.6557 36.7799 44.7553 36.7763 44.8584C36.7728 44.9912 36.7533 45.1187 36.7179 45.241C36.6967 45.3144 36.6701 45.3861 36.64 45.456C36.6188 45.5014 36.5976 45.5468 36.5728 45.5905C36.548 45.6342 36.5215 45.6761 36.4931 45.7181C36.479 45.7391 36.4648 45.7583 36.4489 45.7792C36.4188 45.8194 36.387 45.8579 36.3533 45.8946C36.3356 45.9138 36.3197 45.9313 36.302 45.9487C36.2135 46.0361 36.1162 46.113 36.01 46.1777C35.7781 46.3192 35.5109 46.4013 35.2295 46.3978C35.0454 46.3961 34.8667 46.3576 34.7003 46.2877C34.6525 46.2685 34.6065 46.2458 34.5605 46.2213H34.5587ZM30.4156 27.2376C29.0457 27.2376 27.6759 27.2376 26.3078 27.2342C27.6776 27.2359 29.0475 27.2376 30.4156 27.2376ZM21.3151 27.7723C21.3027 27.8562 21.2974 27.9506 21.2992 28.0589C21.2992 27.9506 21.3045 27.8545 21.3151 27.7723ZM21.3186 39.0081C21.3186 40.8306 21.3186 42.6549 21.3133 44.4774C21.3169 42.6549 21.3186 40.8306 21.3186 39.0081ZM21.639 50.7261C21.6744 50.7401 21.7151 50.7506 21.7593 50.7611C21.7151 50.7523 21.6761 50.7401 21.639 50.7261ZM21.954 50.7855C21.9168 50.7838 21.8832 50.7803 21.8514 50.775C21.8832 50.7785 21.9186 50.782 21.954 50.7855C21.9894 50.7873 22.0283 50.789 22.0691 50.7908C22.0283 50.7908 21.9912 50.789 21.954 50.7855ZM47.8218 50.7838C45.6803 50.7803 43.5406 50.7785 41.3991 50.7768C43.5406 50.7768 45.6803 50.7803 47.8218 50.7838C47.8714 50.7838 47.9262 50.7768 47.9829 50.7698C47.9262 50.7785 47.8731 50.7855 47.8218 50.7838ZM48.0678 50.7558C48.0873 50.7523 48.105 50.7506 48.1244 50.7488C48.105 50.7506 48.0873 50.7541 48.0678 50.7558ZM49.0395 51.0179C49.0395 51.0074 49.043 50.9952 49.0448 50.9847C49.043 50.9952 49.0412 51.0057 49.0395 51.0179ZM49.0536 50.9393C49.0518 50.9498 49.0501 50.9585 49.0465 50.969C49.0483 50.9585 49.0501 50.948 49.0536 50.9393C49.0554 50.9288 49.0589 50.9201 49.0607 50.9113C49.0571 50.9201 49.0554 50.9306 49.0536 50.9393ZM49.0642 50.8974C49.0678 50.8851 49.0731 50.8729 49.0802 50.8624C49.0748 50.8729 49.0695 50.8851 49.0642 50.8974ZM49.1793 50.8187C49.1793 50.8187 49.1616 50.8152 49.1545 50.8152C49.1386 50.8152 49.1262 50.8187 49.1138 50.824C49.1244 50.817 49.1386 50.8135 49.1545 50.8152C49.1616 50.8152 49.1704 50.8152 49.1793 50.8187ZM49.62 44.8881C49.6076 45.248 49.4607 45.587 49.2288 45.8526C49.1952 45.8911 49.1616 45.926 49.1244 45.961C49.089 45.9959 49.0501 46.0291 49.0111 46.0606C48.9138 46.1392 48.8076 46.2056 48.6961 46.258C48.4943 46.3541 48.2749 46.4048 48.0483 46.3978C47.9705 46.3961 47.8961 46.3873 47.8218 46.3734C47.5015 46.3122 47.2165 46.1445 46.9988 45.9103C46.9316 45.8387 46.8714 45.76 46.8201 45.6744C46.8077 45.6534 46.7935 45.6325 46.7829 45.6097C46.7581 45.5661 46.7369 45.5224 46.7157 45.4752C46.6236 45.269 46.5741 45.0401 46.5776 44.8007C46.5812 44.5403 46.6484 44.2957 46.7635 44.0825C46.7988 44.0179 46.836 43.9585 46.8803 43.9008C46.9086 43.8624 46.9387 43.8257 46.9705 43.789C47.0024 43.754 47.036 43.7191 47.0714 43.6876C47.1581 43.6072 47.2555 43.5373 47.3599 43.4797C47.4024 43.457 47.4448 43.436 47.4891 43.4168C47.5103 43.408 47.5333 43.3993 47.5563 43.3906C47.7139 43.3329 47.8838 43.3014 48.0607 43.3014C48.305 43.3014 48.5386 43.3608 48.7457 43.4622C48.7917 43.4849 48.8359 43.5094 48.8802 43.5373C48.9244 43.5635 48.9651 43.5933 49.0058 43.6247C49.1279 43.7173 49.2341 43.8274 49.3244 43.9497C49.3846 44.0319 49.4359 44.1192 49.4801 44.2118C49.512 44.2817 49.5403 44.3534 49.5615 44.4268C49.5757 44.4757 49.5881 44.5264 49.5969 44.577C49.6058 44.6277 49.6129 44.6801 49.6164 44.7326C49.6182 44.7588 49.62 44.785 49.62 44.8112C49.62 44.8374 49.62 44.8636 49.62 44.8916V44.8881Z" fill="#575756"/>
</svg>
