<svg width="101" height="33" viewBox="0 0 101 33" fill="none" xmlns="http://www.w3.org/2000/svg">
<path d="M36.7747 22.9993V20.2599C37.8324 21.0184 39.9915 21.5519 42.1735 21.5519C45.3903 21.5519 46.5789 20.2158 46.6683 17.6991L46.7349 16.2076C46.0741 18.5017 43.8714 19.7705 41.3154 19.7705C37.6787 19.7705 35.125 17.4764 35.125 13.8672C35.125 10.258 37.7017 8.03125 40.8542 8.03125C43.564 8.03125 46.0534 9.36731 46.5834 11.9953H46.9138L46.627 8.38614H49.6006V18.1862C49.6006 22.2176 46.6706 23.9781 42.4167 23.9781C39.8837 23.9781 38.4955 23.6 36.777 22.9969M46.0488 13.9136C46.0488 11.775 44.1972 10.4598 42.1047 10.4598C39.8355 10.4598 38.1835 11.775 38.1835 13.9136C38.1835 16.0522 39.8355 17.4324 42.1047 17.4324C44.1766 17.4324 46.0488 16.0963 46.0488 13.9136Z" fill="#575756"/>
<path d="M51.625 4.66422C51.625 3.4627 52.3753 2.88281 53.5432 2.88281C54.711 2.88281 55.5026 3.4627 55.5026 4.66422C55.5026 5.86574 54.7546 6.46883 53.5432 6.46883C52.3317 6.46883 51.625 5.88894 51.625 4.66422ZM52.0219 8.38245H55.1516V19.5186H52.0219V8.38245Z" fill="#575756"/>
<path d="M60.6372 15.8994H60.3733L60.8574 19.5295H57.6406V3.9375H60.7702V12.0002H60.8597C61.3874 9.37219 63.8792 8.03613 66.5889 8.03613C69.7392 8.03613 72.3159 10.3742 72.3159 13.8721C72.3159 17.37 69.7599 19.8867 66.1255 19.8867C63.3721 19.8867 61.1672 18.2375 60.6395 15.8994M69.2528 13.9185C69.2528 11.7799 67.6008 10.4647 65.3316 10.4647C63.2391 10.4647 61.3874 11.7799 61.3874 13.9185C61.3874 16.0571 63.2391 17.4372 65.3316 17.4372C67.6008 17.4372 69.2528 16.1012 69.2528 13.9185Z" fill="#575756"/>
<path d="M73.6406 13.9632C73.6406 10.3772 76.5041 8.03906 80.8452 8.03906C82.8276 8.03906 84.1285 8.37308 85.8906 9.17564V11.8478C84.3052 10.957 82.8505 10.4676 80.758 10.4676C78.2685 10.4676 76.7037 11.8941 76.7037 13.9655C76.7037 16.0368 78.3786 17.4402 80.9782 17.4402C83.1603 17.4402 84.5255 17.0157 85.8906 16.1482V18.7554C84.1079 19.5579 83.0042 19.8919 80.8245 19.8919C76.6601 19.8919 73.6429 17.5306 73.6429 13.9678" fill="#575756"/>
<path d="M87.168 13.9632C87.168 10.4004 89.9213 8.03906 94.0651 8.03906C98.2088 8.03906 100.983 10.4004 100.983 13.9632C100.983 17.526 98.2295 19.8873 94.0651 19.8873C89.9006 19.8873 87.168 17.526 87.168 13.9632ZM98.0735 13.9632C98.0735 11.8686 96.465 10.4653 94.0628 10.4653C91.6605 10.4653 90.075 11.8686 90.075 13.9632C90.075 16.0577 91.6834 17.4379 94.0628 17.4379C96.4421 17.4379 98.0735 16.0345 98.0735 13.9632Z" fill="#575756"/>
<path d="M23.8051 17.1428C19.8196 12.6174 13.994 10.8221 8.81776 9.66693L8.56538 9.61126V13.4524L8.73058 13.4872C10.1807 13.8004 11.4678 14.139 12.6655 14.5217C16.6487 15.7998 19.3676 17.3585 21.2238 19.4299C23.0662 21.4525 23.7592 24.2337 23.0341 26.6761C22.3504 28.6709 20.1959 29.5408 18.4957 29.4967H18.3374C14.8613 29.4967 12.0116 27.815 10.222 26.3932C5.30727 22.494 1.49161 14.6771 3.89848 8.85277C4.46062 7.53991 5.47935 6.31055 6.83766 5.30155C10.7451 2.42532 15.8525 3.33458 18.5462 4.1325C19.386 4.37605 20.1707 4.66136 20.8819 4.98145L21.1733 5.11367V1.12173L21.0242 1.07766C20.5011 0.919933 19.9665 0.776122 19.4387 0.650867C16.1141 -0.130819 9.81814 -0.896268 4.98605 2.74773C0.094296 6.34766 -1.30072 12.6359 1.25758 19.5598C3.32946 25.1267 8.51719 31.9253 16.3114 32.758C16.8277 32.8183 17.3324 32.8461 17.8212 32.8461C21.6116 32.8461 24.5232 31.0717 25.9274 27.8382C27.3179 24.5143 26.4643 20.2162 23.8028 17.1405L23.8051 17.1428Z" fill="#575756"/>
</svg>
