<svg width="61" height="67" viewBox="0 0 61 67" fill="none" xmlns="http://www.w3.org/2000/svg">
<path d="M26.6597 30.9957C23.9394 30.1171 21.5862 28.3652 19.9701 26.008C18.5175 23.8972 17.8072 21.524 17.7188 18.9766H14.5938C14.6876 23.2865 16.3814 27.3045 19.5064 30.2938C21.6104 32.3028 24.2235 33.6984 27.0644 34.3279C27.5335 34.4324 28.1445 34.6038 28.6243 34.585C28.6457 34.585 28.6725 34.5797 28.6913 34.577L28.7154 31.4858C28.0186 31.3546 27.3351 31.2153 26.6597 30.9983V30.9957ZM26.9974 32.8921L26.9063 32.9082C26.3998 32.7716 25.9013 32.6082 25.4108 32.4234C21.7524 31.0117 18.7989 28.2125 17.1988 24.6339C16.7432 23.6079 16.435 22.5579 16.2072 21.4623C16.1643 21.2614 16.0517 20.948 16.1268 20.7579C16.2072 20.6936 16.2662 20.7016 16.368 20.6882H16.4457C16.4993 20.7579 16.7513 22.1481 16.8183 22.3999C17.0086 23.1097 17.2551 23.8035 17.5553 24.4758C18.9704 27.642 21.479 30.1947 24.6202 31.668C25.1562 31.9171 25.7056 32.1341 26.2684 32.3189C26.4802 32.3886 26.7348 32.418 26.9358 32.5091C27.0189 32.5466 27.043 32.5787 27.0725 32.6618C27.0537 32.7448 27.0376 32.8198 26.9948 32.8921H26.9974Z" fill="#575756"/>
<path d="M40.3637 8.49743C37.7291 6.03575 34.3441 4.73125 30.75 4.65625V7.75812C33.8107 7.85723 36.6329 9.03316 38.7449 11.2779C40.6585 13.311 41.6072 15.8262 41.7413 18.5906C42.7785 18.6093 43.8264 18.6227 44.8636 18.5906C44.735 14.6958 43.2261 11.1734 40.361 8.49743H40.3637ZM43.3091 16.8682C43.218 16.887 43.1054 16.9191 43.017 16.9003C42.9366 16.8843 42.6847 15.5691 42.6311 15.3949C42.2344 14.061 41.618 12.7993 40.8086 11.6663C38.8011 8.85905 35.8289 7.0965 32.4412 6.5313C32.4626 6.40005 32.476 6.2688 32.4894 6.13754C32.8995 6.22862 33.3149 6.2929 33.7223 6.39469C35.0061 6.71345 36.2309 7.22775 37.3539 7.9242C40.2913 9.72425 42.3872 12.6225 43.1778 15.9735C43.2207 16.1557 43.3922 16.7343 43.3091 16.8682Z" fill="#575756"/>
<path d="M47.9595 18.2856C47.6701 8.70671 39.6618 1.17971 30.075 1.469C20.4908 1.76098 12.9569 9.75674 13.2464 19.3302C13.5358 28.9037 21.5387 36.4334 31.1229 36.1468C40.7098 35.8602 48.249 27.8617 47.9595 18.2856ZM42.2776 30.2484C39.0829 33.4547 34.9233 35.0887 30.418 35.0994C30.3939 33.3556 30.418 31.6065 30.418 29.8627C27.7459 29.7609 25.2748 28.8743 23.254 27.0956C21.0456 25.1724 19.6974 22.4509 19.5098 19.5311C19.3142 16.5873 20.3112 13.689 22.2784 11.4898C24.4252 9.07101 27.1777 7.93794 30.3644 7.75043V4.6566C27.3412 4.70749 24.4145 5.72002 22.005 7.54418C18.9845 9.80764 16.9959 13.1854 16.4866 16.9248C16.3553 16.9007 16.224 16.8819 16.0927 16.8605C16.2427 15.931 16.4411 15.023 16.7466 14.131C18.0197 10.4559 20.7025 7.43971 24.2054 5.74145C27.703 4.03783 31.7366 3.79407 35.4138 5.06375C39.0936 6.33611 42.1168 9.01743 43.8187 12.5157C45.4858 15.9658 45.7163 19.9383 44.4593 23.5571C43.1808 27.2162 40.498 30.2189 37.0031 31.9011C35.7863 32.4851 34.5186 32.8788 33.192 33.1279C32.9909 33.1654 32.6184 33.2779 32.4228 33.1922C32.345 33.1574 32.329 33.1199 32.3048 33.0422C32.345 32.9458 32.3799 32.8949 32.479 32.852C32.6586 32.7717 32.9266 32.7824 33.125 32.7503C33.393 32.7047 33.661 32.6511 33.9263 32.5869C36.4028 32.0002 38.6782 30.76 40.5168 29.0001C43.2559 26.3777 44.8238 22.7669 44.8693 18.9793H41.747C41.6585 21.1544 41.0716 23.1875 39.8333 24.9982C38.0591 27.5965 35.462 29.1475 32.396 29.7287L32.345 29.335C33.0526 29.2278 33.7467 29.043 34.4141 28.7885C37.0889 27.7787 39.2518 25.7483 40.4257 23.1446C41.5754 20.5838 41.6612 17.6721 40.6642 15.0471C39.6431 12.3845 37.6062 10.2335 34.9984 9.07101C32.3638 7.90044 29.3674 7.83347 26.6819 8.8835C25.3901 9.36834 24.1652 10.1719 23.1709 11.1229C21.1152 13.0783 19.9306 15.773 19.8743 18.607C19.8207 21.4356 20.9008 24.1705 22.8761 26.201C25.0443 28.443 27.7298 29.4287 30.812 29.4823V31.2207C33.4412 31.1806 35.99 30.3127 38.0966 28.7376C40.7258 26.7903 42.4786 23.8839 42.9718 20.6535L43.3658 20.7124C42.9664 23.2973 41.7845 25.6947 39.9781 27.5885C37.5606 30.1359 34.3042 31.5074 30.812 31.6065V34.7137C34.7679 34.6708 38.563 33.1654 41.4709 30.4948C44.6308 27.6126 46.4881 23.5732 46.6221 19.3008C46.7508 15.1167 45.2151 11.0505 42.3446 7.99687C39.4528 4.89767 35.446 3.07084 31.2087 2.91815C26.9097 2.75476 22.7233 4.32712 19.5956 7.27899C16.3928 10.2764 14.7419 14.2381 14.5971 18.5882C15.6344 18.6231 16.6823 18.5963 17.7222 18.5909C17.8696 15.931 18.5048 13.6783 20.0539 11.4791C22.0989 8.58082 25.1542 6.76469 28.6304 6.15932L28.6706 6.5504C26.7382 6.85041 24.9023 7.60043 23.313 8.73885C20.6141 10.6675 18.7996 13.5899 18.2663 16.8605C17.749 20.0936 18.5423 23.3991 20.472 26.0456C22.0989 28.2957 24.4279 29.9404 27.092 30.7252C27.754 30.9181 28.4213 31.0359 29.1021 31.1457C29.0699 32.4395 29.0806 33.7387 29.0779 35.0351C28.4267 34.9387 27.7861 34.8771 27.1402 34.7405C24.3797 34.1565 21.8148 32.8708 19.7001 31.0038C16.484 28.1724 14.5221 24.1813 14.2434 19.9088C13.9485 15.5908 15.3985 11.3345 18.2689 8.09062C21.3163 4.65927 25.3579 2.80833 29.9195 2.53511C30.0803 2.52707 30.2438 2.52171 30.4046 2.52171C34.8054 2.46546 39.0454 4.17444 42.1731 7.26828C45.2553 10.2978 46.9974 14.4337 47.0108 18.7543C47.0268 23.0643 45.3223 27.2055 42.275 30.2538L42.2776 30.2484ZM33.2402 21.9928C33.1866 21.6258 32.9963 21.2374 32.865 20.8892L32.2271 19.199C31.8733 19.1829 30.9969 19.2231 30.7155 19.0356C30.678 18.9579 30.678 18.9606 30.7021 18.8802C30.9487 18.7543 31.7474 18.824 32.0663 18.8106C31.6 17.6721 31.1631 16.5203 30.7128 15.3739L30.1714 13.9997C29.6354 15.4328 29.0753 16.8605 28.5178 18.2856C28.1962 19.1106 27.8531 19.9142 27.5851 20.7606C27.4725 21.1142 27.2715 21.6365 27.3385 22.0035C27.4672 22.7214 28.6009 22.5205 28.8609 22.7589C28.9305 22.8205 28.9171 22.8527 28.9145 22.941L28.8662 22.9866C28.0756 23.0321 27.2662 22.9973 26.4755 22.9973C26.0387 22.9973 25.5187 23.0535 25.0979 22.9759C25.047 22.9169 25.0524 22.9196 25.0577 22.8419C25.2212 22.6196 25.6715 22.6089 25.9154 22.491C26.2129 22.3437 26.4916 22.0491 26.6551 21.7624C26.8749 21.3794 27.0196 20.9347 27.1831 20.5222L28.0032 18.4436L29.5282 14.5569C29.8391 13.7613 30.1661 12.9711 30.4529 12.1675H30.8763L33.2482 18.2507C33.5431 19.0061 34.4704 21.6365 34.8751 22.116C35.3682 22.7 35.7032 22.483 36.1294 22.7857C36.1321 22.8714 36.1374 22.8955 36.0972 22.9705C35.8587 23.0214 32.1226 23.0348 31.8948 22.9893C31.8733 22.9839 31.8572 22.9652 31.8385 22.9544C31.8304 22.8687 31.817 22.8446 31.8626 22.7669C32.1065 22.633 32.4656 22.6598 32.7363 22.5848C32.9132 22.5366 33.1142 22.4589 33.2027 22.2848C33.2482 22.1937 33.2563 22.0919 33.2402 21.9901V21.9928Z" fill="#575756"/>
<path d="M33.1104 45.3333C33.9761 45.2878 35.0589 45.3387 35.7879 45.869C36.1363 46.1235 36.3641 46.4396 36.5115 46.8441C36.9912 48.1512 36.6857 50.6799 36.6696 52.1505C36.6669 52.4799 36.6348 52.8469 36.6911 53.1737C36.7313 53.4041 36.8278 53.6237 36.9805 53.8032C37.4442 54.355 37.8677 53.9505 38.2482 54.2077C38.2831 54.2934 38.2804 54.3014 38.2616 54.3925C38.0499 54.6121 37.6372 54.6845 37.3477 54.7246C36.8492 54.7943 36.2488 54.7729 35.8361 54.4487C35.4528 54.1487 35.3376 53.696 35.2867 53.238C34.8954 53.6318 34.5121 54.0094 34.0243 54.288C33.2471 54.73 32.1804 54.9497 31.304 54.7032C30.6902 54.5318 30.2989 54.1407 29.9988 53.5943C29.7629 53.0157 29.7468 52.3005 29.9746 51.7138C30.1274 51.3174 30.3927 50.9745 30.7385 50.7254C31.5345 50.1495 32.7727 49.8602 33.7134 49.5334C34.2655 49.3406 34.7962 49.1236 35.3296 48.8905C35.3108 48.0816 35.3939 47.1012 34.8713 46.4235C34.5577 46.019 34.1155 45.7619 33.6089 45.703C32.9416 45.6253 32.309 45.8101 31.7864 46.2199C31.7998 46.6164 31.9365 46.9994 31.9419 47.3959C31.9445 47.6209 31.8963 47.8539 31.7275 48.0146C31.4648 48.2637 31.0547 48.2316 30.7224 48.2129C30.4946 48.0334 30.315 47.803 30.2721 47.5084C30.2239 47.1896 30.3499 46.8789 30.5375 46.6244C31.1244 45.8342 32.1858 45.4833 33.1158 45.336L33.1104 45.3333ZM31.8266 53.6853C32.1777 54.0148 32.5851 54.1514 33.0648 54.1353C33.9734 54.1059 34.6622 53.5916 35.2599 52.9541C35.276 52.5469 35.3832 49.3941 35.292 49.2897C34.1047 49.8066 32.0383 50.2352 31.5077 51.5692C31.3174 52.046 31.2986 52.7317 31.5023 53.2085C31.5747 53.3773 31.698 53.5568 31.8266 53.688V53.6853Z" fill="#575756"/>
<path d="M54.7149 45.3687C54.8515 45.3446 54.999 45.3419 55.1383 45.3446C56.0978 45.3607 57.135 45.6339 57.8158 46.3437C58.6627 47.225 58.7619 48.4813 58.7458 49.6385C58.2312 49.6224 57.7086 49.6465 57.194 49.6519L54.2941 49.6599C53.7179 49.6599 53.0853 49.7108 52.5171 49.6224C52.5654 50.9751 52.6833 52.3385 53.6937 53.3564C54.2539 53.9216 54.9373 54.152 55.7226 54.1573C56.599 54.1627 57.2396 53.9538 57.8694 53.335C58.1562 53.0859 58.3599 52.7296 58.6037 52.4403C58.7163 52.4993 58.8289 52.5662 58.9388 52.6305C58.8557 52.8019 58.7619 52.968 58.6547 53.1261C58.065 53.9832 57.1565 54.5699 56.1327 54.7547C55.0204 54.9583 53.7339 54.7815 52.7932 54.1306C51.8605 53.485 51.3057 52.3278 51.1101 51.2349C50.8501 49.7831 51.0726 48.2456 51.9302 47.0241C52.6244 46.0357 53.549 45.5696 54.7149 45.3714V45.3687ZM52.5011 49.1858C53.2756 49.1777 54.0502 49.1563 54.8274 49.159C55.6341 49.1617 56.4382 49.1724 57.2449 49.1884C57.2181 48.1786 57.2128 46.9678 56.4194 46.2205C56.071 45.891 55.5671 45.6982 55.0874 45.7276C55.066 45.7276 55.0472 45.7303 55.0258 45.733C54.3021 45.7892 53.8063 46.025 53.3292 46.5848C52.6458 47.3911 52.6404 48.2 52.4984 49.1858H52.5011Z" fill="#575756"/>
<path d="M8.26853 41.3007C8.41325 41.2926 8.64107 41.2578 8.75363 41.3676C8.8662 41.4775 9.28162 42.6668 9.3781 42.9186L11.9618 49.5429L12.7846 51.6563C13.0097 52.2349 13.2 52.918 13.5779 53.4162C13.9049 53.8448 14.2399 54.0082 14.7464 54.1475C14.8617 54.1796 15.0037 54.2091 15.1002 54.2814C15.1672 54.3323 15.1779 54.3698 15.1886 54.4501C15.1511 54.5064 15.1726 54.4903 15.1082 54.5118C14.8081 54.6135 10.1098 54.6243 9.95701 54.5359C9.91413 54.5118 9.91413 54.4689 9.90073 54.426C10.1071 54.0055 11.2998 54.2385 11.6455 53.6948C11.7232 53.5715 11.675 53.3814 11.6455 53.2474C11.5624 52.9019 11.415 52.5724 11.2864 52.2429C10.9942 51.4849 10.6458 50.692 10.4368 49.9098C10.1446 49.8964 9.85249 49.8643 9.56035 49.8536C9.26822 49.8402 8.93052 49.875 8.64911 49.8027C8.5687 49.7813 8.55798 49.7786 8.5151 49.7116C8.52314 49.6554 8.5151 49.6179 8.5553 49.575C8.75095 49.3634 9.89269 49.4545 10.2223 49.4598C10.0723 48.983 9.84981 48.5143 9.66488 48.0482L8.57138 45.2731C8.35965 44.7213 8.15596 44.1507 7.87723 43.6284C7.7057 43.9231 7.59581 44.3007 7.47252 44.6195L6.67116 46.6821L5.71703 49.1437C5.34985 50.0652 4.97195 50.9733 4.67982 51.9242C4.54581 52.3608 4.33408 52.9581 4.40376 53.4135C4.51365 54.1207 5.94216 54.0564 6.30398 54.3082C6.32542 54.3912 6.30934 54.4287 6.28254 54.5064C6.08957 54.5975 2.27573 54.6269 1.88443 54.576C1.76114 54.56 1.67538 54.5385 1.59766 54.4394C1.70486 54.1367 2.37222 54.0778 2.65363 53.9225C3.06905 53.6948 3.42283 53.3171 3.64796 52.9019C3.85433 52.5162 4.00174 52.0903 4.15987 51.6804L4.83259 49.9661L7.23131 43.8561L7.8531 42.265C7.97907 41.9462 8.09164 41.5953 8.26317 41.298L8.26853 41.3007Z" fill="#575756"/>
<path d="M45.2399 45.3626C45.6232 45.3144 46.0708 45.3305 46.4487 45.4189C48.3757 45.8769 48.2176 47.9717 48.2149 49.5172L48.2069 52.2227C48.2069 52.6379 48.1345 53.195 48.2953 53.5781C48.5982 54.3013 49.437 54.1433 49.6139 54.4272C49.5898 54.5049 49.5657 54.5076 49.4987 54.5558C49.0833 54.6093 45.5723 54.6308 45.4008 54.5772C45.3418 54.5584 45.3632 54.5718 45.3284 54.5102C45.382 54.1808 46.1324 54.2665 46.4969 53.9611C46.6497 53.8325 46.7569 53.6611 46.773 53.4575C46.7917 53.2057 46.773 52.9379 46.7703 52.6834L46.7596 50.8914V49.0538C46.7623 48.5556 46.8025 48.0386 46.6953 47.5484C46.6256 47.2163 46.4487 46.9002 46.2155 46.6538C45.8912 46.3082 45.4704 46.1153 44.9961 46.0993C43.9079 46.0645 43.3451 46.6082 42.6188 47.2993C42.525 47.3904 42.4499 47.4841 42.3722 47.5886C42.3481 48.7002 42.3722 49.8199 42.3722 50.9316C42.3722 51.6923 42.3213 52.4825 42.3776 53.2406C42.3883 53.3959 42.407 53.5593 42.4955 53.6906C42.8466 54.2022 43.656 54.1968 43.8061 54.3977C43.7927 54.4834 43.7793 54.4861 43.7123 54.5451C43.1012 54.6388 42.4044 54.5826 41.7852 54.5879C41.1286 54.5933 40.4184 54.6495 39.7671 54.5826C39.6626 54.5718 39.6009 54.5745 39.5312 54.4915C39.542 54.1888 40.3809 54.2852 40.7159 53.9102C40.8392 53.7709 40.8981 53.6022 40.9222 53.42C40.9544 53.1763 40.9303 52.9111 40.9276 52.6673L40.9222 51.1887C40.9222 49.8869 40.9732 48.5663 40.9249 47.2672C40.8928 46.4073 40.472 46.4582 39.9788 45.9653C39.9091 45.8957 39.8716 45.8394 39.8743 45.743C40.1557 45.5448 41.9085 45.5394 42.3534 45.51C42.3695 46.0484 42.3642 46.5895 42.3802 47.1279C43.3907 46.2412 43.8329 45.668 45.2373 45.3653L45.2399 45.3626Z" fill="#575756"/>
<path d="M21.4109 45.3985H21.443C21.7995 45.3663 22.1586 45.428 22.432 45.6717C22.6759 45.8887 22.7992 46.2048 22.8153 46.5235C22.8367 46.9146 22.7027 47.2977 22.44 47.5869C22.2685 47.6405 22.105 47.67 21.9254 47.6673C21.6172 47.6619 21.3841 47.5494 21.1696 47.3325C21.1 46.8985 21.1375 46.5155 21.242 46.0923C21.0678 46.0869 20.9016 46.0896 20.7301 46.1217C19.9957 46.2637 19.1863 46.9789 18.7816 47.5896C18.7039 48.4816 18.7682 49.6281 18.7656 50.5495V52.2344C18.7629 52.6335 18.7361 53.0567 18.8058 53.4532C18.8272 53.5844 18.8996 53.705 18.9907 53.8014C19.449 54.2943 20.387 54.1898 20.58 54.4443L20.5613 54.4952C20.2102 54.6639 18.6825 54.5889 18.2242 54.5889C17.9052 54.5889 16.1524 54.6559 15.9836 54.5246C15.9193 54.0961 16.8707 54.4014 17.2298 53.8362C17.3236 53.6862 17.3317 53.4291 17.337 53.255C17.3853 52.1648 17.329 51.0504 17.329 49.9575C17.329 49.3388 17.4094 47.3405 17.2915 46.8878C17.1575 46.3735 16.3454 46.0708 16.2704 45.7655C16.4714 45.5619 18.3877 45.5351 18.7629 45.5056C18.7602 46.0387 18.7709 46.5691 18.8004 47.1021C19.0068 46.9307 19.1917 46.7217 19.382 46.5289C19.9823 45.9262 20.5693 45.5592 21.4135 45.3985H21.4109Z" fill="#575756"/>
<path d="M25.2294 45.4616C25.7439 45.4375 26.2639 45.4429 26.7812 45.4375V50.7519C26.7812 51.5448 26.7168 52.5332 26.7812 53.2993C26.7892 53.3958 26.8106 53.4815 26.8508 53.5699C27.0706 54.0601 27.5852 54.1002 28.0087 54.2958C28.0944 54.336 28.1239 54.3628 28.1587 54.4485L28.1319 54.4994C27.7782 54.6494 27.0197 54.5797 26.615 54.5824C26.02 54.5878 25.4223 54.5904 24.8273 54.5878C24.6129 54.5878 24.3556 54.6306 24.1466 54.5878C24.0555 54.569 24.0287 54.5422 23.975 54.4699C23.975 54.4404 23.967 54.4083 23.9804 54.3815C24.0447 54.2369 24.6906 54.1913 24.8434 54.119C25.0444 54.0252 25.1945 53.8404 25.3178 53.6636L25.3392 53.6315C25.3902 52.6216 25.3392 51.585 25.3392 50.5725C25.3366 49.4073 25.3741 48.234 25.3392 47.0688C25.3258 46.6081 25.1221 45.8473 25.1409 45.5098L25.2347 45.4643L25.2294 45.4616Z" fill="#575756"/>
<path d="M25.7089 39.5388C26.2825 39.4183 26.8453 39.7799 26.9713 40.3504C27.0973 40.921 26.7408 41.4862 26.1726 41.6201C25.7974 41.7085 25.4061 41.588 25.1461 41.304C24.8861 41.0228 24.7977 40.621 24.9129 40.2567C25.0309 39.8924 25.3337 39.6165 25.7089 39.5361V39.5388Z" fill="#575756"/>
</svg>
