<svg width="137" height="78" viewBox="0 0 137 78" fill="none" xmlns="http://www.w3.org/2000/svg">
<path d="M36.5837 39.5237C36.932 39.5237 37.2818 39.5237 37.6301 39.5237C39.3924 39.5237 41.1532 39.5237 42.9155 39.5237C43.005 39.5237 43.0961 39.5237 43.1856 39.527C43.2507 39.5302 43.2849 39.5691 43.2865 39.634C43.2882 39.7005 43.2572 39.7427 43.1921 39.7459C43.114 39.7492 43.0343 39.7459 42.9562 39.7427C42.289 39.7232 41.6234 39.7427 40.966 39.8611C40.7772 39.8951 40.5934 39.947 40.4209 40.0362C40.2451 40.1271 40.1426 40.2601 40.1589 40.4677C40.1638 40.5342 40.1589 40.6023 40.1589 40.6704C40.1589 44.3961 40.1589 48.1217 40.1589 51.849C40.1589 51.9058 40.1638 51.9626 40.1589 52.0177C40.1312 52.2756 40.2679 52.4118 40.4941 52.4962C40.9318 52.6616 41.3924 52.7152 41.8529 52.7541C42.2581 52.7898 42.6649 52.8011 43.0701 52.8222C43.1157 52.8254 43.1612 52.8222 43.2052 52.8287C43.254 52.8336 43.2865 52.8611 43.2882 52.9147C43.2914 52.9795 43.2638 53.0233 43.1954 53.0266C43.1385 53.0298 43.0831 53.0314 43.0262 53.0314C40.1345 53.0314 37.2444 53.0314 34.3527 53.0314C34.3071 53.0314 34.2616 53.0314 34.2176 53.0298C34.1574 53.0266 34.1102 53.0087 34.1037 52.9374C34.0956 52.8417 34.1574 52.8222 34.2307 52.8238C34.6147 52.8303 34.9971 52.7898 35.3812 52.7638C35.8091 52.7346 36.2339 52.6778 36.6488 52.5594C36.7692 52.5254 36.8848 52.4832 36.9889 52.4135C37.0866 52.347 37.1516 52.261 37.1468 52.1345C37.1435 52.0453 37.1468 51.9545 37.1468 51.8636C37.1468 48.1834 37.1468 44.5015 37.1468 40.8213C37.1468 40.7094 37.1305 40.5926 37.1516 40.4839C37.2021 40.2325 37.067 40.1027 36.8669 40.0135C36.6602 39.9211 36.4405 39.8724 36.216 39.84C36.1037 39.8238 36.0207 39.8676 35.9312 39.9178C34.1704 40.9267 32.2568 41.2998 30.2471 41.2916C28.0795 41.2835 25.9103 41.29 23.7411 41.2916C23.4726 41.2916 23.471 41.2949 23.471 41.6079C23.471 44.1625 23.471 46.7187 23.471 49.2733C23.471 49.8816 23.484 50.4898 23.4661 51.0964C23.4564 51.4208 23.5963 51.6317 23.8534 51.7906C24.1659 51.982 24.5141 52.081 24.8705 52.141C25.2155 52.1994 25.5637 52.2464 25.9119 52.2691C27.2756 52.3583 28.6377 52.4621 30.003 52.5027C30.3772 52.514 30.4049 52.5546 30.3642 52.9179C30.3528 53.0233 30.304 53.0509 30.2129 53.0509C30.1331 53.0509 30.055 53.0509 29.9753 53.0509C24.3058 53.0509 18.6363 53.0509 12.9668 53.0509C12.9441 53.0509 12.9213 53.0509 12.8985 53.0509C12.5975 53.0493 12.4949 52.9017 12.5877 52.6113C12.6088 52.5465 12.6512 52.5254 12.7114 52.5238C12.8464 52.5189 12.9815 52.5124 13.1182 52.5108C14.3387 52.4848 15.5542 52.3989 16.7617 52.2237C17.1539 52.1669 17.5363 52.0696 17.8894 51.8831C18.3434 51.643 18.5843 51.3057 18.5826 50.7542C18.5712 43.6743 18.5696 36.5928 18.5826 29.5129C18.5826 28.8706 18.2913 28.4749 17.756 28.2056C17.4094 28.0305 17.0351 27.9494 16.651 27.9088C15.4273 27.7774 14.1971 27.7304 12.9668 27.6947C12.9327 27.6947 12.8985 27.6996 12.866 27.6931C12.7732 27.6752 12.6333 27.7369 12.6007 27.612C12.5682 27.4855 12.5861 27.3444 12.5926 27.2114C12.5958 27.1659 12.6495 27.1465 12.6967 27.1465C12.7862 27.1449 12.8773 27.1449 12.9685 27.1449C18.6721 27.1449 24.3758 27.1319 30.0778 27.1513C32.0664 27.1578 33.9443 27.6606 35.6513 28.6955C37.604 29.8779 38.7025 31.6182 38.9205 33.8906C39.0849 35.6099 38.6715 37.1702 37.5601 38.5213C37.2672 38.8765 36.9173 39.1766 36.5886 39.5253L36.5837 39.5237ZM23.4661 34.6237C23.4661 36.549 23.4661 38.4727 23.4661 40.3979C23.4661 40.4774 23.4743 40.5569 23.4661 40.6348C23.4482 40.7905 23.528 40.831 23.6647 40.8197C23.72 40.8148 23.7769 40.8197 23.8339 40.8197C25.5165 40.8197 27.1991 40.8197 28.8818 40.8197C29.2105 40.8197 29.5359 40.8018 29.8581 40.7402C31.0526 40.5099 32.0664 39.9681 32.8231 38.9998C33.5081 38.1207 33.8238 37.0989 33.9589 36.0105C34.0696 35.1249 34.0272 34.2345 34.024 33.3473C34.0224 32.8055 33.9361 32.2703 33.8124 31.7448C33.2136 29.221 31.2836 27.6963 28.6881 27.6963C27.8631 27.6963 27.0397 27.6963 26.2146 27.6963C25.6272 27.6963 25.0397 27.6866 24.4539 27.7028C23.8551 27.719 23.4954 28.0888 23.4678 28.6825C23.4629 28.7717 23.4678 28.8625 23.4678 28.9534C23.4678 30.8446 23.4678 32.7358 23.4678 34.627L23.4661 34.6237Z" fill="#575756"/>
<path d="M117.602 44.6063C118.316 43.6591 119.032 42.7459 119.706 41.8036C120.223 41.0818 119.887 40.1443 119.048 39.8588C118.767 39.7631 118.479 39.7275 118.183 39.7258C118.103 39.7258 118.025 39.7258 117.945 39.7226C117.875 39.7193 117.852 39.6739 117.849 39.6123C117.846 39.5328 117.872 39.4825 117.96 39.4809C118.017 39.4809 118.072 39.4793 118.129 39.4793C119.924 39.4793 121.72 39.4793 123.515 39.4825C123.62 39.4825 123.797 39.4063 123.792 39.6123C123.787 39.8004 123.621 39.7145 123.528 39.7193C122.1 39.7988 121.039 40.5109 120.23 41.6381C119.698 42.3794 119.195 43.1401 118.645 43.87C118.42 44.1668 118.201 44.4685 117.957 44.7474C117.821 44.9015 117.818 45.0118 117.931 45.1805C118.428 45.9299 118.912 46.6906 119.403 47.4464C120.354 48.9094 121.314 50.3676 122.251 51.8387C122.518 52.2571 122.879 52.5004 123.34 52.6318C123.867 52.7827 124.409 52.7924 124.951 52.7892C125.045 52.7892 125.203 52.6967 125.224 52.8751C125.25 53.086 125.069 53.0227 124.962 53.0227C122.262 53.026 119.564 53.026 116.865 53.0243C116.808 53.0243 116.752 53.0243 116.695 53.0211C116.606 53.0146 116.591 52.9497 116.593 52.8784C116.593 52.8119 116.63 52.7746 116.697 52.7746C116.765 52.7746 116.832 52.7778 116.9 52.7778C117.307 52.7778 117.712 52.7746 118.116 52.7081C118.295 52.6789 118.471 52.6416 118.638 52.5734C119.057 52.4031 119.12 52.2134 118.889 51.8257C117.984 50.3092 117.078 48.7926 116.171 47.2761C116.137 47.2177 116.101 47.1609 116.067 47.1042C115.94 47.1058 115.896 47.2096 115.835 47.2793C115.04 48.1876 114.328 49.1608 113.638 50.1486C113.436 50.4373 113.33 50.7714 113.286 51.1234C113.216 51.6927 113.442 52.1079 113.939 52.3837C114.445 52.6659 115.001 52.7405 115.569 52.7697C115.67 52.7746 115.773 52.7697 115.874 52.7713C115.955 52.7713 115.997 52.8119 115.992 52.8962C115.989 52.9773 115.948 53.0195 115.867 53.0211C115.799 53.0211 115.732 53.0211 115.664 53.0211C113.451 53.0211 111.237 53.0211 109.023 53.0211C108.943 53.0211 108.865 53.0227 108.787 53.013C108.717 53.0049 108.707 52.9465 108.707 52.8865C108.707 52.8216 108.731 52.7794 108.801 52.7729C108.936 52.7616 109.073 52.7616 109.205 52.7372C109.735 52.6432 110.219 52.4242 110.668 52.142C111.763 51.4526 112.754 50.6465 113.54 49.6036C114.198 48.731 114.874 47.873 115.542 47.0085C115.822 46.6451 115.802 46.7684 115.577 46.4132C114.474 44.6615 113.363 42.913 112.258 41.1613C112.095 40.905 111.932 40.6471 111.792 40.3779C111.674 40.1492 111.493 40.0194 111.26 39.9432C110.839 39.8053 110.399 39.7615 109.96 39.7437C109.656 39.7307 109.35 39.7388 109.046 39.7388C108.963 39.7388 108.888 39.7404 108.888 39.6237C108.888 39.502 108.974 39.5134 109.052 39.5117C109.12 39.5117 109.187 39.5117 109.255 39.5117C111.807 39.5117 114.36 39.5117 116.912 39.5117C116.98 39.5117 117.047 39.5134 117.115 39.5117C117.206 39.5085 117.27 39.5312 117.267 39.6399C117.263 39.7372 117.195 39.7404 117.127 39.7404C116.935 39.7404 116.743 39.7388 116.551 39.7421C116.199 39.7485 115.852 39.7842 115.511 39.8702C115.402 39.8978 115.294 39.9351 115.193 39.9854C114.876 40.1475 114.816 40.3454 115.006 40.6422C115.835 41.9301 116.666 43.2147 117.498 44.4993C117.516 44.5269 117.542 44.5479 117.594 44.6063H117.602Z" fill="#575756"/>
<path d="M110.817 47.0498C110.755 48.9346 109.813 50.8971 107.826 52.2904C105.032 54.2514 101.241 53.721 99.0032 51.0902C96.6452 48.3182 96.8063 44.1157 99.3726 41.5319C102.36 38.5248 107.296 39.0292 109.646 42.5813C110.432 43.7702 110.819 45.0775 110.817 47.0482V47.0498ZM100.365 46.4595C100.365 47.1569 100.368 47.8543 100.365 48.5518C100.362 49.0838 100.432 49.6061 100.58 50.117C100.865 51.0918 101.363 51.9336 102.189 52.5499C103.368 53.4274 104.85 53.4128 106.02 52.5256C106.494 52.1655 106.863 51.7162 107.149 51.1972C107.631 50.3295 107.818 49.392 107.818 48.4091C107.818 47.1261 107.818 45.8447 107.818 44.5617C107.818 44.1108 107.784 43.6632 107.688 43.222C107.465 42.1953 107.016 41.287 106.207 40.5944C105.26 39.7834 104.186 39.532 102.993 39.97C102.259 40.2392 101.703 40.7436 101.265 41.3795C100.655 42.2699 100.377 43.2642 100.365 44.3347C100.357 45.0435 100.365 45.7523 100.364 46.4611L100.365 46.4595Z" fill="#575756"/>
<path d="M56.6492 49.1158C56.6492 48.6763 56.6492 48.2838 56.6492 47.8913C56.6492 45.9773 56.6492 44.065 56.6492 42.1511C56.6492 41.9013 56.6313 41.6548 56.5711 41.4147C56.4198 40.8227 56.0488 40.4043 55.5036 40.135C54.978 39.8739 54.4133 39.7847 53.8324 39.7636C53.7543 39.7603 53.6746 39.7652 53.5964 39.7539C53.5281 39.7425 53.5216 39.6809 53.5232 39.6241C53.5248 39.5738 53.5493 39.5365 53.6013 39.5333C53.668 39.5284 53.7364 39.53 53.8047 39.53C55.7136 39.53 57.6207 39.53 59.5295 39.5333C59.6239 39.5333 59.7883 39.4538 59.8013 39.6322C59.816 39.835 59.6304 39.7733 59.5279 39.7766C59.0967 39.7944 58.6752 39.8593 58.27 40.0118C57.4141 40.3345 56.9324 41.0303 56.9324 41.9257C56.934 45.6724 56.9356 49.4208 56.9324 53.1675C56.9324 53.2762 57.0056 53.4368 56.8429 53.4822C56.6883 53.5243 56.5483 53.4887 56.4296 53.3394C55.7689 52.5122 55.0968 51.6948 54.428 50.8724C52.0603 47.9626 49.6926 45.0528 47.3232 42.143C47.2549 42.0587 47.2044 41.9532 47.097 41.903C47.0075 41.9613 47.0515 42.0473 47.0515 42.1171C47.0482 44.8744 47.0466 47.6317 47.0515 50.3891C47.0515 51.3379 47.499 52.0159 48.3533 52.4279C48.9098 52.6971 49.5087 52.7993 50.1222 52.8318C50.2068 52.8366 50.3565 52.7734 50.3581 52.9323C50.3581 53.0929 50.2117 53.0345 50.1271 53.0345C48.1401 53.0378 46.1532 53.0378 44.1663 53.0378C44.1435 53.0378 44.1207 53.0378 44.0979 53.0378C44.0215 53.0329 43.9271 53.0507 43.932 52.9275C43.9368 52.8058 44.0345 52.8318 44.1077 52.8301C44.4934 52.822 44.8709 52.7653 45.237 52.6404C46.2118 52.3095 46.7862 51.5261 46.7879 50.501C46.7911 47.7096 46.7895 44.9198 46.7879 42.1284C46.7879 41.1439 46.3143 40.4659 45.4226 40.0685C45.0694 39.9112 44.6984 39.8204 44.3127 39.7895C44.246 39.7847 44.1777 39.7814 44.111 39.7733C44.0231 39.7636 43.9206 39.7701 43.9303 39.6338C43.9401 39.4862 44.0556 39.53 44.1337 39.53C45.5332 39.5268 46.9343 39.5333 48.3338 39.5219C48.5323 39.5219 48.6121 39.6419 48.7097 39.7587C49.9513 41.2315 51.1929 42.7058 52.4346 44.1786C53.7413 45.7292 55.0464 47.2814 56.3547 48.832C56.4312 48.9228 56.4914 49.0364 56.6525 49.1158H56.6492Z" fill="#575756"/>
<path d="M95.7688 49.0685C95.8436 48.976 95.8111 48.8836 95.8111 48.7992C95.8127 46.5593 95.8111 44.3194 95.8127 42.0794C95.8127 41.8426 95.7916 41.6058 95.7314 41.3771C95.5865 40.8224 95.2415 40.4218 94.7403 40.1542C94.2115 39.8719 93.637 39.7714 93.0447 39.7454C92.9552 39.7422 92.8641 39.7454 92.7746 39.7406C92.7062 39.7373 92.6818 39.6886 92.6818 39.6254C92.6818 39.5573 92.7209 39.5216 92.7827 39.5183C92.8608 39.5135 92.9406 39.5151 93.0203 39.5151C94.8949 39.5151 96.7696 39.5119 98.6442 39.5216C98.7484 39.5216 98.9599 39.4048 98.9583 39.6367C98.9583 39.8281 98.7695 39.7357 98.6637 39.747C98.2602 39.7925 97.8566 39.8362 97.4726 39.979C96.5727 40.3147 96.104 40.9797 96.104 41.9351C96.104 45.6494 96.104 49.3637 96.104 53.078C96.104 53.1996 96.1219 53.3245 96.0861 53.4348C95.816 53.5273 95.663 53.4024 95.5052 53.2094C92.5012 49.508 89.4923 45.8132 86.4835 42.1167C86.4151 42.0324 86.3696 41.9253 86.2166 41.8653V42.1346C86.2166 44.8692 86.2166 47.6055 86.2166 50.3401C86.2166 51.3214 86.6706 52.0107 87.551 52.4259C88.0896 52.6806 88.6673 52.7714 89.2564 52.8136C89.3491 52.8201 89.5249 52.7503 89.52 52.9223C89.5151 53.0942 89.3459 53.0212 89.2499 53.0212C87.2955 53.0261 85.3427 53.0261 83.3884 53.0212C83.2891 53.0212 83.1166 53.0893 83.1068 52.9352C83.0938 52.7455 83.2858 52.8168 83.39 52.8087C83.831 52.773 84.2655 52.713 84.6674 52.5168C85.4973 52.1145 85.9416 51.4495 85.9465 50.5331C85.9595 47.7076 85.9546 44.8822 85.9481 42.0583C85.9465 41.1322 85.4876 40.4834 84.6625 40.0828C84.2508 39.8833 83.8082 39.8006 83.3574 39.7519C83.3021 39.7454 83.2452 39.7454 83.1882 39.7406C83.1182 39.7357 83.0954 39.6919 83.0938 39.6286C83.0922 39.5621 83.1182 39.52 83.1882 39.5167C83.2663 39.5135 83.3461 39.5119 83.4258 39.5119C84.7358 39.5119 86.0457 39.5183 87.3557 39.5054C87.5949 39.5037 87.7479 39.5784 87.8976 39.7584C90.4329 42.7785 92.9747 45.7953 95.5182 48.8106C95.593 48.8998 95.65 49.0133 95.7688 49.0652V49.0685Z" fill="#575756"/>
<path d="M67.5814 46.0073C67.5814 47.9763 67.5879 49.9454 67.5749 51.9145C67.5733 52.2129 67.6953 52.3783 67.9427 52.4886C68.3397 52.6654 68.7661 52.7222 69.1924 52.7579C69.7424 52.8049 70.2957 52.8438 70.849 52.8179C70.9043 52.8146 70.9629 52.8163 71.0166 52.8244C71.0459 52.8292 71.0785 52.8455 71.0817 52.8893C71.0833 52.9363 71.0784 52.9866 71.0296 52.9979C70.9645 53.0125 70.8962 53.0158 70.8295 53.0158C67.9508 53.0158 65.0721 53.0158 62.1934 53.0142C62.1056 53.0142 61.9607 53.0709 61.9526 52.9152C61.9445 52.7514 62.0991 52.8049 62.1837 52.8017C62.872 52.7757 63.5587 52.7481 64.2389 52.633C64.54 52.5811 64.8378 52.5194 65.1177 52.3929C65.3406 52.2924 65.4545 52.1464 65.4545 51.8723C65.4448 47.9682 65.448 44.0625 65.448 40.1584C65.448 40.0676 65.4448 39.9784 65.448 39.8892C65.4529 39.7708 65.3911 39.7367 65.282 39.7351C64.7288 39.7303 64.1771 39.7497 63.6287 39.8373C63.2642 39.8941 62.9762 40.0725 62.7288 40.332C62.3903 40.6872 62.1462 41.1024 61.9363 41.5404C61.4563 42.5395 61.1682 43.6019 60.9274 44.6789C60.8851 44.8654 60.8412 45.0519 60.8086 45.2401C60.7858 45.3779 60.781 45.5174 60.5792 45.4834C60.3774 45.4509 60.4636 45.2936 60.4636 45.1914C60.4571 44.1907 60.4604 43.1883 60.4604 42.1875C60.4604 41.3993 60.4604 40.6126 60.4604 39.8243C60.4604 39.5129 60.4083 39.5064 60.7631 39.508C61.2935 39.508 61.824 39.508 62.3545 39.508C65.6059 39.508 68.8572 39.508 72.1085 39.508C72.1541 39.508 72.1997 39.508 72.2436 39.508C72.6227 39.5064 72.5723 39.5048 72.5723 39.8341C72.5723 41.6117 72.5723 43.3894 72.5723 45.1671C72.5723 45.2125 72.5723 45.2579 72.5723 45.3017C72.5723 45.3942 72.5804 45.485 72.4421 45.485C72.3282 45.485 72.2631 45.4671 72.2355 45.3309C72.1362 44.8362 72.0288 44.3415 71.9035 43.8517C71.6887 43.0001 71.4186 42.1681 71.0166 41.3814C70.8262 41.01 70.6049 40.658 70.3185 40.3498C70.0386 40.0482 69.7034 39.8633 69.2933 39.8146C68.7888 39.7562 68.2811 39.7286 67.7734 39.7335C67.6286 39.7351 67.5749 39.7805 67.5781 39.9281C67.5847 40.3661 67.5814 40.8056 67.5814 41.2452C67.5814 42.8315 67.5814 44.4177 67.5814 46.0056V46.0073Z" fill="#575756"/>
<path d="M76.2778 46.1736C76.2778 44.3845 76.2778 42.5955 76.2778 40.8065C76.2778 40.6946 76.2778 40.581 76.2843 40.4691C76.3022 40.195 76.2632 40.1188 76.0126 40.0004C75.7538 39.8787 75.4756 39.8349 75.1957 39.7976C74.6684 39.7263 74.1379 39.7311 73.6074 39.7344C73.5505 39.7344 73.4951 39.7392 73.4382 39.7376C73.3536 39.7344 73.2429 39.7701 73.2462 39.6225C73.2494 39.4765 73.3601 39.5122 73.4431 39.5105C73.7132 39.5073 73.985 39.5105 74.2567 39.5105C76.8311 39.5105 79.4055 39.5105 81.9798 39.5105C82.0596 39.5105 82.1377 39.5057 82.2174 39.5105C82.2988 39.517 82.4127 39.4732 82.4176 39.6176C82.4241 39.7652 82.3151 39.7327 82.2288 39.7327C82.1605 39.7327 82.0937 39.7295 82.0254 39.7279C81.3598 39.7246 80.6926 39.7133 80.0369 39.8609C79.9604 39.8787 79.8839 39.8982 79.809 39.9225C79.3615 40.0685 79.3013 40.1528 79.3013 40.6216C79.3013 44.3797 79.3013 48.1394 79.3013 51.8975C79.3013 52.3192 79.3485 52.3889 79.7602 52.5219C80.2468 52.6793 80.7545 52.7215 81.2606 52.7604C81.5535 52.7831 81.8464 52.7863 82.1393 52.8009C82.206 52.8042 82.2744 52.8107 82.3411 52.8188C82.3932 52.8253 82.4176 52.8577 82.4159 52.9096C82.4159 52.9583 82.3981 53.0037 82.3476 53.0085C82.2581 53.0183 82.1686 53.0183 82.0775 53.0183C79.2444 53.0183 76.4096 53.0183 73.5765 53.015C73.4691 53.015 73.2722 53.0961 73.2624 52.9307C73.2494 52.7198 73.4626 52.8123 73.5749 52.8058C74.1949 52.7701 74.8149 52.7523 75.4267 52.6322C75.6367 52.5917 75.8433 52.5398 76.0402 52.4473C76.1981 52.3727 76.2892 52.2608 76.2859 52.0808C76.2859 51.9575 76.2941 51.8342 76.2941 51.7093C76.2941 49.8635 76.2941 48.0177 76.2941 46.1736H76.2794H76.2778Z" fill="#575756"/>
<path d="M60.4867 29.9297H77.3014C77.3503 30.0416 77.3307 30.1438 77.3307 30.2427C77.3307 32.5832 77.3307 34.9237 77.3307 37.2642C77.3307 37.2983 77.334 37.3323 77.3307 37.3648C77.321 37.4378 77.3714 37.5448 77.277 37.574C77.1615 37.6097 77.0329 37.6146 76.9142 37.5643C76.8621 37.5416 76.8784 37.488 76.8767 37.4459C76.8735 37.368 76.8767 37.2885 76.8767 37.2091C76.8767 35.2968 76.8767 33.3829 76.8767 31.4706C76.8767 31.3813 76.8735 31.2905 76.8767 31.2013C76.88 31.0975 76.8263 31.0651 76.7319 31.0683C76.6424 31.0716 76.5513 31.0683 76.4618 31.0683C72.2731 31.0683 68.0845 31.0764 63.8975 31.0634C62.869 31.0602 61.891 30.7942 60.9765 30.3141C60.7991 30.2216 60.638 30.0984 60.4688 29.9913C60.4769 29.9719 60.4834 29.9508 60.4915 29.9313L60.4867 29.9297Z" fill="#575756"/>
<path d="M95.1037 29.9556C94.967 30.1145 94.788 30.2102 94.6123 30.3043C93.6994 30.786 92.7214 31.0536 91.6929 31.0569C87.4929 31.0715 83.2928 31.0617 79.0912 31.0634C78.6241 31.0634 78.6941 31.0179 78.6941 31.4543C78.6909 33.3455 78.6941 35.2351 78.6941 37.1263C78.6941 37.183 78.6941 37.2382 78.6941 37.295C78.6925 37.5918 78.6502 37.6275 78.3703 37.5869C78.2938 37.5756 78.2434 37.5528 78.2466 37.4636C78.2499 37.3858 78.2466 37.3063 78.2466 37.2268C78.2466 34.909 78.2466 32.5896 78.2466 30.2718C78.2466 30.2491 78.2466 30.2264 78.2466 30.2037C78.2466 29.902 78.2206 29.9118 78.5395 29.9118C83.9698 29.9118 89.4017 29.9118 94.832 29.9118C94.9198 29.9118 95.0126 29.8842 95.1037 29.9523V29.9556Z" fill="#575756"/>
<path d="M92.0408 31.5156C91.9074 31.6908 91.7674 31.7605 91.634 31.8335C90.6706 32.3704 89.6292 32.6575 88.5308 32.664C85.709 32.6818 82.8873 32.6688 80.0656 32.6705C79.5855 32.6705 79.6539 32.6283 79.6539 33.0841C79.6506 34.5017 79.6539 35.9193 79.6539 37.3369C79.6539 37.5866 79.6506 37.5866 79.4228 37.585C79.208 37.585 79.2048 37.585 79.2031 37.3579C79.2031 35.5024 79.2031 33.6453 79.2031 31.7897C79.2031 31.5189 79.2064 31.5156 79.4798 31.5156C80.8792 31.5156 82.2787 31.5156 83.6782 31.5156C86.3307 31.5156 88.9831 31.5156 91.6356 31.5156H92.0408Z" fill="#575756"/>
<path d="M75.911 37.56C75.911 37.1188 75.911 36.6922 75.911 36.2657C75.911 35.1741 75.911 34.0825 75.911 32.9909C75.911 32.6422 75.9501 32.6714 75.5807 32.6714C72.7346 32.6714 69.8884 32.6828 67.0439 32.6649C65.9325 32.6584 64.8813 32.3681 63.9098 31.8182C63.8024 31.7582 63.7031 31.682 63.6006 31.6106C63.5876 31.6009 63.5859 31.5733 63.5664 31.5166C63.6738 31.5166 63.7698 31.5166 63.8675 31.5166C67.921 31.5166 71.9762 31.5166 76.0298 31.5166C76.0868 31.5166 76.1437 31.5198 76.1991 31.5166C76.3244 31.5084 76.3911 31.5522 76.3813 31.6885C76.3748 31.7663 76.3813 31.8458 76.3813 31.9253C76.3813 33.6819 76.3813 35.4368 76.3813 37.1934C76.3813 37.4692 76.2262 37.5919 75.9159 37.5616L75.911 37.56Z" fill="#575756"/>
<path d="M89.5275 33.125C89.368 33.318 89.2069 33.3959 89.0556 33.4802C88.3656 33.8597 87.6138 34.0528 86.8457 34.1874C86.5658 34.236 86.2859 34.2474 86.0028 34.2458C84.3543 34.2425 82.7059 34.2458 81.0575 34.2458C80.9891 34.2458 80.9208 34.2506 80.854 34.2458C80.7092 34.2328 80.6588 34.2912 80.6604 34.4372C80.6669 35.0454 80.6637 35.652 80.6637 36.2603C80.6637 36.643 80.6539 37.0258 80.6669 37.4086C80.6734 37.6081 80.5579 37.587 80.4309 37.5903C80.2877 37.5951 80.2031 37.5789 80.2031 37.3956C80.2096 36.0462 80.2064 34.6951 80.208 33.3456C80.208 33.1315 80.2161 33.1282 80.4781 33.1282C81.889 33.1282 83.2999 33.1282 84.7107 33.1282C86.2908 33.1282 87.8709 33.1282 89.5259 33.1282L89.5275 33.125Z" fill="#575756"/>
<path d="M66.0469 33.1281H66.4098C69.2657 33.1281 72.1215 33.1281 74.9791 33.1281C75.036 33.1281 75.093 33.133 75.1483 33.1281C75.3062 33.1103 75.3843 33.1671 75.3647 33.3341C75.3582 33.3893 75.3647 33.446 75.3647 33.5028C75.3647 34.7517 75.3647 36.0006 75.3647 37.2496C75.3647 37.3501 75.3647 37.4507 75.3647 37.5431C75.3306 37.561 75.311 37.5804 75.2915 37.5821C75.0301 37.5983 74.8993 37.481 74.8993 37.2301C74.8993 36.3753 74.8993 35.5189 74.8993 34.6641C74.8993 34.3873 74.7659 34.2489 74.499 34.2489C72.7822 34.2489 71.0671 34.2732 69.3519 34.2392C68.2909 34.2181 67.2836 33.9278 66.3593 33.3877C66.291 33.3487 66.2275 33.3017 66.164 33.2547C66.138 33.2352 66.1201 33.206 66.0501 33.1281H66.0469Z" fill="#575756"/>
<path d="M85.6381 34.7244C85.0621 35.1023 84.4323 35.3602 83.77 35.5386C83.1598 35.7024 82.5382 35.8078 81.9035 35.8078C81.7294 35.8078 81.6692 35.8549 81.6741 36.0349C81.6871 36.4842 81.6806 36.9335 81.6773 37.3828C81.6773 37.5969 81.6708 37.5969 81.443 37.5936C81.2152 37.592 81.2103 37.592 81.2103 37.3779C81.2087 36.5475 81.2103 35.7154 81.207 34.8849C81.207 34.7422 81.2217 34.6562 81.4023 34.6562C82.8083 34.6627 84.2143 34.6595 85.6219 34.6595C85.6284 34.6822 85.6333 34.7033 85.6398 34.726L85.6381 34.7244Z" fill="#575756"/>
<path d="M69.918 34.7108C70.0075 34.6313 70.0872 34.6621 70.1604 34.6621C71.4704 34.6605 72.7787 34.6605 74.0887 34.6621C74.3475 34.6621 74.3507 34.6654 74.3523 34.9119C74.354 35.7326 74.354 36.555 74.3523 37.3757C74.3523 37.5914 74.3458 37.5914 74.1229 37.5914C73.8918 37.5914 73.8853 37.5914 73.8837 37.3789C73.8804 36.9296 73.8739 36.4787 73.8869 36.0294C73.8918 35.8494 73.83 35.8105 73.6575 35.8056C72.4321 35.7732 71.2719 35.4877 70.1979 34.886C70.1051 34.8341 70.0172 34.7724 69.918 34.7108Z" fill="#575756"/>
</svg>
