<svg width="109" height="41" viewBox="0 0 109 41" fill="none" xmlns="http://www.w3.org/2000/svg">
<path d="M56.1975 12.4713C56.4464 12.2484 56.5804 11.8282 56.7336 11.529C57.0208 10.9814 57.3718 10.523 57.8568 10.1283C59.1778 9.04593 60.92 8.82945 62.5729 8.99499C63.1664 9.05229 64.3215 9.27513 64.7235 9.75901C64.7427 9.79084 64.7618 9.82268 64.7746 9.86088C64.8767 10.1538 64.832 13.9038 64.7172 14.1267H66.8423C66.8806 14.184 66.9189 14.2476 66.9316 14.324C67.072 15.0498 66.9571 16.2659 66.9444 17.0554C66.9252 18.6153 66.9763 20.468 66.8423 21.996C66.8295 22.1043 66.804 22.187 66.7402 22.2762C67.4103 22.2571 68.0803 22.2762 68.7504 22.2698C68.7568 22.2825 68.7632 22.2953 68.7696 22.308C68.7696 22.3144 68.7696 22.3208 68.7823 22.3271C68.8015 22.3653 68.8142 22.4035 68.827 22.4417C68.9227 22.7792 68.9163 24.4282 68.7696 24.6892H61.6731C61.6986 24.6446 61.7241 24.6001 61.7369 24.5555C61.8262 24.2244 61.8199 22.5436 61.6603 22.2698C62.2538 22.2634 62.8473 22.2698 63.4408 22.2762C63.6769 21.7032 63.6706 15.7438 63.5876 14.827C63.5429 14.3813 63.4472 13.9293 63.2685 13.5154C62.9686 12.8024 62.4772 12.2102 61.7433 11.9174C60.9009 11.5799 59.8798 11.6372 59.0629 12.0001C56.791 12.9934 56.7528 15.6292 56.7272 17.7366L56.7017 20.6144C56.7017 21.1047 56.7847 21.8114 56.606 22.2635V22.2762C57.2569 22.2698 57.9078 22.2762 58.5652 22.2762C58.5652 22.2825 58.5715 22.2953 58.5779 22.3017C58.6035 22.3462 58.6226 22.3972 58.6354 22.4481C58.7119 22.7473 58.7247 24.4218 58.5652 24.6956C57.9206 24.7083 57.2761 24.6956 56.6315 24.6956H51.5644C51.5644 24.6956 51.5708 24.6828 51.5772 24.6765C51.5772 24.6637 51.5899 24.651 51.5899 24.6383C51.7303 24.3327 51.7112 22.5882 51.5899 22.2635C52.1579 22.2762 52.7195 22.2762 53.2875 22.2762C53.4406 21.9706 53.4215 15.8393 53.3704 15.0626C53.3449 14.6487 53.2747 14.2349 53.1598 13.8338C52.9365 13.0825 52.5089 12.4076 51.8005 12.032C51.0666 11.6436 50.1732 11.5927 49.3819 11.841C47.8183 12.3312 46.8419 13.7956 46.5867 15.3554C46.4526 16.1513 46.4782 16.9917 46.4654 17.8003C46.4526 18.8063 46.4463 19.8122 46.4399 20.8245C46.4399 21.1875 46.5165 21.9387 46.3378 22.2571C46.3378 22.2698 46.325 22.2762 46.3186 22.2889C47.027 22.2889 47.7354 22.2825 48.4374 22.2698C48.4565 22.3017 48.4693 22.3335 48.4756 22.3653C48.565 22.6964 48.5714 24.4154 48.4118 24.7083C46.0378 24.6446 43.6447 24.6956 41.2643 24.7083C41.277 24.6828 41.2898 24.6637 41.3026 24.6383C41.3983 24.4027 41.3792 22.5372 41.277 22.2762C41.8578 22.2953 42.4385 22.2889 43.0193 22.2889C43.0193 22.2826 43.0256 22.2698 43.032 22.2635C43.0448 22.238 43.0576 22.2061 43.0703 22.1743C43.1724 21.8942 43.1597 12.9488 43.1278 11.8855C43.1278 11.8219 43.1022 11.7646 43.0767 11.7073C42.3428 11.6945 41.6089 11.7073 40.875 11.7073C40.875 11.7009 40.8814 11.6945 40.8878 11.6882C40.8878 11.6754 40.9005 11.6627 40.9069 11.65C40.9069 11.6372 40.9197 11.6309 40.9197 11.6181C41.0728 11.2998 41.0218 9.58711 40.9069 9.25603C42.7257 9.34517 44.5892 9.29423 46.4143 9.26877C46.4399 9.32607 46.459 9.38337 46.4718 9.44704C46.5739 10.0137 46.3186 12.3248 45.9995 12.796C46.4909 12.3949 46.6568 11.5736 47.0398 11.0387C47.8821 9.87361 49.1968 9.23056 50.5944 9.00773C51.5644 8.91222 52.6812 8.93132 53.6066 9.23056C54.5383 9.53617 55.3934 10.1601 55.8338 11.0515C56.0252 11.4399 56.3443 12.0447 56.1975 12.484V12.4713Z" fill="#575756"/>
<path d="M39.9049 15.8544C39.6752 13.7852 38.8583 11.7351 37.1863 10.4108C35.5973 9.15013 33.4403 8.77449 31.4492 8.98459C31.4364 8.98459 31.4236 8.98459 31.4045 8.98459C29.6814 9.15013 28.3157 9.75498 26.9628 10.831L26.9756 14.2945H24.742C24.0783 16.6948 24.0974 19.4071 25.361 21.6227C26.2544 23.189 27.7095 24.2586 29.4453 24.7234C30.6004 25.0226 31.8001 25.1181 32.9808 24.9972C35.0485 24.7679 36.9119 24.0421 38.2521 22.3677C39.7071 20.5595 40.1475 18.1083 39.8986 15.848L39.9049 15.8544ZM35.125 20.9797C34.372 21.8265 33.3956 22.1894 32.2788 22.2594C31.3598 22.3613 30.2749 22.0111 29.5538 21.4445C28.4944 20.604 27.9966 19.2734 27.8499 17.9618C27.6712 16.3765 28.003 14.4537 29.0241 13.1931C29.7899 12.2444 30.7855 11.8369 31.9725 11.7096C32.0044 11.7096 32.0363 11.7096 32.0682 11.7032C33.0829 11.6268 34.1805 11.9388 34.9527 12.6137C35.9802 13.5114 36.3695 14.893 36.4524 16.2109C36.5545 17.8281 36.2291 19.7445 35.125 20.9861V20.9797Z" fill="#575756"/>
<path d="M85.0508 22.3424C85.0444 22.3106 85.0316 22.2851 85.0253 22.2596C84.3233 22.2724 83.6277 22.2787 82.9257 22.2787C83.1363 21.8203 83.1682 14.8168 83.0916 13.9C83.0405 13.2442 82.9193 12.5757 82.6959 11.9518C82.2875 10.8503 81.5408 10.0162 80.4687 9.52599C79.0201 8.85748 77.2268 8.88931 75.6696 8.99755C74.5784 9.11852 73.5318 9.28405 72.4979 9.67243C72.0001 9.86344 71.4513 10.169 70.9408 10.29C71.0237 10.5956 71.0237 13.9318 70.9089 14.1165C70.9089 14.1228 70.9025 14.1292 70.8961 14.1356C71.8853 14.1356 72.8744 14.1228 73.8636 14.1356C74.0359 13.8427 74.004 12.3974 73.9274 12.0409C73.9147 11.9772 73.8891 11.9263 73.8572 11.869C75.4144 11.4615 77.4246 10.9331 78.9179 11.8053C79.5178 12.1555 79.8624 12.7094 80.0347 13.3716C80.1432 13.7918 80.3155 15.3707 80.1049 15.7273C80.1049 15.7336 80.0986 15.74 80.0922 15.7464C77.5203 15.8546 73.2254 15.7464 71.3428 17.7774C70.5834 18.6051 70.2707 19.7256 70.3218 20.8335C70.3728 21.9349 70.794 23.0428 71.6172 23.794C71.7704 23.9341 71.9299 24.0678 72.0767 24.2206C73.7105 25.0547 75.4973 25.3348 77.2778 24.7554C78.5159 24.3543 79.4604 23.463 80.0411 22.3106C80.1815 22.0368 80.3475 21.7121 80.3219 21.4065C80.3219 21.3938 80.3219 21.381 80.3219 21.3683C80.3666 21.4702 80.4113 21.5848 80.4113 21.693C80.4113 21.9859 80.2134 24.3925 80.1624 24.5772C80.1496 24.6154 80.1241 24.6599 80.0986 24.6918C81.7259 24.6854 83.3724 24.6345 84.9997 24.6918C85.1848 24.3734 85.1465 22.7053 85.0572 22.3424H85.0508ZM79.939 19.6365C79.6646 20.6106 79.0583 21.4383 78.1649 21.9349C77.0928 22.5334 75.9823 22.5334 74.8273 22.2087C74.6613 22.0432 74.3997 21.9286 74.2146 21.763C73.87 21.4574 73.653 20.8844 73.6339 20.426C73.6147 19.923 73.7998 19.4391 74.138 19.0699C75.2102 17.9111 77.6225 17.9557 79.0966 17.9047H80.0347C80.2453 18.2995 80.0539 19.2036 79.939 19.6301V19.6365Z" fill="#575756"/>
<path d="M91.7326 8.99086C93.6408 8.83169 95.5617 9.02907 97.3932 9.57661C97.7059 9.67211 98.0697 9.76125 98.3505 9.92042C98.376 9.96499 98.4015 10.0159 98.4143 10.0669C98.5037 10.4425 98.5356 13.4413 98.3952 13.6832H95.434C95.4532 13.645 95.4723 13.6068 95.4851 13.5686C95.5872 13.2375 95.5361 12.0979 95.3766 11.7986C94.8405 11.3275 93.1047 11.3148 92.3708 11.3593C91.5859 11.4103 90.6924 11.5949 90.1436 12.2125C89.8883 12.499 89.7479 12.8555 89.7798 13.2503C89.8245 13.7723 90.1181 14.2435 90.5648 14.5109C91.1008 14.8356 91.7901 14.9438 92.4027 15.0584C94.0939 15.3832 96.7934 15.6315 98.0761 16.7457C98.8355 17.4078 99.1737 18.3374 99.2376 19.3242C99.3269 20.6931 99.1354 22.0429 98.1909 23.1061C96.8444 24.6278 94.7257 24.9143 92.8112 25.0353C91.388 25.1308 89.799 24.9207 88.4141 24.5959C87.8334 24.4559 87.2399 24.233 86.6464 24.1566C86.6719 24.1121 86.6974 24.0675 86.7038 24.0166C86.7804 23.5709 86.7421 20.6676 86.6783 20.1583C86.6655 20.0755 86.6336 20.0055 86.589 19.9354H89.5565C89.582 19.98 89.6075 20.0182 89.6203 20.0628C89.7415 20.3811 89.7479 21.6927 89.6203 21.9983C90.0032 22.0683 90.3925 22.2084 90.7754 22.3103C91.6943 22.5586 92.6963 22.6795 93.6408 22.5777C94.3747 22.4949 95.2107 22.2657 95.6893 21.6608C96.0339 21.2215 96.1679 20.7886 96.1041 20.2347C96.0403 19.7062 95.8361 19.3179 95.3894 19.0186C94.7831 18.6111 93.9854 18.5029 93.277 18.3756C91.4646 18.0509 89.2884 17.828 87.7887 16.6565C87.0229 16.058 86.5953 15.2431 86.4868 14.2817C86.3592 13.1548 86.64 11.8559 87.3548 10.9582C88.4014 9.64665 90.1117 9.16914 91.7071 8.9845L91.7326 8.99086Z" fill="#575756"/>
<path d="M17.059 9.21304C18.7246 8.97747 20.92 9.34038 22.4835 9.95796V14.3129C21.5517 14.3001 20.6136 14.3129 19.6755 14.3129C19.6755 13.5425 19.6755 12.7721 19.6691 12.0017C18.6289 11.8234 17.5759 11.6706 16.5293 11.9126C15.4253 12.1609 14.5127 12.8039 13.9128 13.7717C13.0513 15.1533 12.8917 17.0888 13.2619 18.6614C13.5554 19.9157 14.251 21.0553 15.3678 21.7429C17.0399 22.7744 19.1075 22.6216 20.9391 22.1886C21.4624 22.0677 21.9666 21.8512 22.4643 21.6602C22.3176 22.577 22.3112 23.5702 22.2856 24.4998C21.2709 24.9136 20.1478 25.1556 19.0565 25.2574C16.7335 25.4803 14.1808 25.041 12.3493 23.5193C10.8113 22.2459 9.99442 20.3295 9.80935 18.3813C9.59237 16.0701 10.0391 13.6635 11.5579 11.8425C12.9555 10.1744 14.9466 9.41678 17.0526 9.22577L17.059 9.21304Z" fill="#575756"/>
</svg>
