<svg width="123" height="78" viewBox="0 0 123 78" fill="none" xmlns="http://www.w3.org/2000/svg">
<path d="M66.0159 61.5599C66.0218 61.4684 66.0598 61.4286 66.1562 61.4005C73.2011 59.3904 78.3701 55.0748 81.6063 48.4466C83.0526 45.4845 83.6736 42.3128 83.4997 39.0112C83.2017 33.3659 81.127 28.4733 77.2247 24.4175C73.9448 21.0082 69.9606 18.9139 65.2986 18.1553C61.1903 17.4867 57.266 18.1863 53.4587 19.7522C50.788 20.8503 48.3422 22.3262 46.1785 24.2626C46.1113 24.3231 46.0543 24.4087 45.9141 24.4057C46.0119 24.0692 46.2764 23.867 46.4839 23.6412C50.0414 19.7507 54.401 17.3465 59.5744 16.4654C60.2056 16.3577 60.8425 16.2839 61.4766 16.1953C62.6381 16.1953 63.8011 16.1953 64.9626 16.1953C65.0195 16.3045 65.1262 16.2706 65.2139 16.2794C66.8721 16.4344 68.4953 16.7635 70.0761 17.2889C74.0514 18.6114 77.4234 20.8621 80.1569 24.0663C83.0205 27.4239 84.7722 31.2982 85.4092 35.6875C85.4808 36.1775 85.4574 36.6852 85.6357 37.1589V40.8442C85.5144 40.9136 85.5568 41.0361 85.5466 41.138C85.4297 42.2095 85.2675 43.2721 85.0104 44.3185C83.8825 48.9085 81.5902 52.7946 78.0969 55.9486C75.1136 58.6436 71.6569 60.3954 67.7428 61.2367C67.2227 61.3489 66.6851 61.3769 66.181 61.5614H66.0189L66.0159 61.5599Z" fill="#575756"/>
<path d="M37.2383 37.7288C37.6021 37.7303 38.0316 37.6122 38.3121 37.7687C38.5795 37.9178 38.54 38.4004 38.6438 38.7339C39.12 40.263 39.5905 41.7949 40.0492 43.3299C40.1179 43.5601 40.0478 43.8302 40.264 44.0649C40.4802 43.0672 40.8075 42.1418 41.0982 41.2046C41.4328 40.1272 41.8097 39.0616 42.0771 37.965C42.1209 37.7864 42.175 37.7259 42.3635 37.717C43.1305 37.6831 43.1115 37.6801 43.3379 38.4343C43.8727 40.2187 44.4279 41.9971 44.9728 43.7771C45.0283 43.9571 45.0678 44.1416 45.1379 44.4102C45.5324 42.375 46.2789 40.536 46.7523 38.6173C46.7815 38.4978 46.837 38.3782 46.8356 38.2602C46.8239 37.7598 47.0869 37.6757 47.5222 37.7082C48.0818 37.7495 48.0935 37.7215 47.9313 38.2602C47.3338 40.2541 46.5361 42.1772 45.8786 44.149C45.7369 44.574 45.5952 45.0021 45.4929 45.4374C45.4126 45.7784 45.1686 45.6426 44.9801 45.6574C44.834 45.6692 44.6704 45.7193 44.6163 45.4625C44.3241 44.0575 43.7426 42.7469 43.2795 41.3979C43.0121 40.6186 42.7316 39.8438 42.5037 39.038C42.2466 40.0475 41.9369 41.0319 41.6271 42.0178C41.2692 43.1587 40.8499 44.2818 40.6088 45.4566C40.546 45.7607 40.3327 45.6588 40.1705 45.6559C40.0229 45.6529 39.8184 45.768 39.7556 45.4788C39.329 43.5453 38.5561 41.727 37.922 39.8615C37.7511 39.3597 37.5802 38.8579 37.4063 38.3576C37.3683 38.2484 37.3785 38.1096 37.2412 38.055V37.7274L37.2383 37.7288Z" fill="#575756"/>
<path d="M73.6629 42.6016C73.3079 46.0655 70.4151 50.8356 65.1249 52.5506C59.5409 54.3615 53.7364 52.0414 50.7852 47.6536C51.4105 47.6536 51.9963 47.6831 52.5763 47.6447C53.1344 47.6078 53.5377 47.7805 53.9687 48.1701C59.8623 53.4863 69.3574 51.609 72.8755 44.4582C73.172 43.8546 73.4043 43.2229 73.6615 42.6016H73.6629Z" fill="#575756"/>
<path d="M54.8841 28.7251C54.8272 28.9052 54.8944 29.0897 54.8988 29.2712C54.9397 31.153 54.9806 33.0333 55.0302 34.915C55.0346 35.0907 54.9996 35.1763 54.8184 35.163C54.8053 35.163 54.7906 35.163 54.7775 35.163C54.0163 35.2014 54.009 35.2014 54.0397 34.4398C54.1332 32.1492 54.1536 29.8586 54.0222 27.5695C54.0061 27.2935 54.0572 27.1563 54.3582 27.1976C54.4911 27.2153 54.6299 27.2168 54.7629 27.1976C55.058 27.1533 55.2085 27.2935 55.3677 27.5385C56.2969 28.9583 57.2539 30.3604 58.1948 31.7714C58.5527 32.3086 58.8756 32.8695 59.1766 33.448C59.0582 31.491 59.1634 29.5413 59.0392 27.5961C59.0188 27.267 59.1079 27.1474 59.4279 27.1991C59.5199 27.2138 59.6178 27.2109 59.7113 27.1991C59.9801 27.1681 60.0736 27.2345 60.0575 27.5518C59.9319 29.9221 59.9582 32.2953 60.0371 34.6671C60.0429 34.828 60.2183 35.1128 59.9363 35.1379C59.666 35.1615 59.3417 35.315 59.102 34.9505C58.43 33.9306 57.7214 32.9344 57.0304 31.9278C56.3393 30.9198 55.6336 29.9221 55.0434 28.8491C55.0156 28.8004 55.0025 28.7148 54.8871 28.7266L54.8841 28.7251ZM54.9031 28.6085C54.8958 28.5982 54.8885 28.5879 54.8798 28.5775C54.8695 28.5864 54.8535 28.5938 54.8535 28.6041C54.8535 28.613 54.8666 28.6248 54.8739 28.6351L54.9031 28.6085Z" fill="#575756"/>
<path d="M59.2959 41.7241C60.0117 42.003 60.3449 42.5477 60.6093 43.1631C60.957 43.9719 61.277 44.791 61.5925 45.6692C61.2258 45.6692 60.9059 45.6633 60.5874 45.6707C60.4033 45.6751 60.3799 45.5496 60.3332 45.4153C60.1228 44.8117 59.9182 44.2066 59.6859 43.6118C59.2725 42.5506 58.8649 42.2805 57.7282 42.2717C56.7026 42.2643 56.6982 42.2643 56.7099 43.3033C56.7172 43.9852 56.7333 44.667 56.7698 45.3474C56.7829 45.5983 56.7216 45.6721 56.4659 45.6736C55.6244 45.678 55.639 45.6898 55.6711 44.8441C55.7559 42.6082 55.7719 40.3722 55.6507 38.1377C55.6317 37.779 55.731 37.6993 56.0612 37.717C56.9641 37.7643 57.8685 37.6285 58.7714 37.72C58.8649 37.7289 58.9598 37.7318 59.0533 37.748C60.0234 37.9178 60.6035 38.3827 60.7437 39.1014C60.9278 40.0445 60.5684 40.9168 59.778 41.4393C59.6436 41.5278 59.5004 41.6031 59.2973 41.7212L59.2959 41.7241ZM57.6201 38.5052C57.3221 38.5258 57.0941 38.548 56.8648 38.5568C56.7114 38.5627 56.6573 38.6262 56.6617 38.7841C56.6777 39.6003 56.6851 40.4179 56.6938 41.2341C56.6938 41.3522 56.704 41.454 56.8589 41.454C57.5719 41.457 58.2922 41.5057 58.9627 41.1824C59.5165 40.9168 59.7853 40.4386 59.7371 39.8291C59.6903 39.2269 59.3748 38.824 58.7933 38.6395C58.39 38.5126 57.9722 38.5007 57.6216 38.5037L57.6201 38.5052Z" fill="#575756"/>
<path d="M43.8231 27.1989C42.7917 28.4638 41.7193 29.5205 40.5826 30.5064C42.1006 31.7152 43.1248 33.3357 44.2249 34.8913C44.3666 35.092 44.3272 35.1835 44.0788 35.1658C44.0657 35.1658 44.051 35.1628 44.0379 35.1658C43.3235 35.2883 42.8633 35.0271 42.4849 34.3659C41.9384 33.4139 41.2474 32.5476 40.4701 31.7639C40.27 31.5617 40.0596 31.3668 39.801 31.2429C39.5293 31.113 39.3802 31.1499 39.389 31.5115C39.4153 32.6154 39.4109 33.7209 39.4401 34.8234C39.4474 35.0964 39.3773 35.1687 39.1085 35.1687C38.2816 35.1658 38.3006 35.1791 38.3283 34.3304C38.4028 32.0945 38.4277 29.8585 38.3035 27.624C38.2845 27.2845 38.3605 27.1812 38.7053 27.1945C39.4343 27.221 39.4343 27.2019 39.4241 27.9413C39.4138 28.663 39.3978 29.3862 39.3948 30.1079C39.3948 30.2319 39.3086 30.406 39.4737 30.4724C39.6081 30.5256 39.7279 30.4119 39.8302 30.3278C40.5344 29.7448 41.0881 29.0187 41.6798 28.328C41.8128 28.173 41.9677 28.0284 42.0568 27.8498C42.3344 27.2904 42.7683 27.0941 43.3629 27.1989C43.4666 27.2166 43.5762 27.2019 43.8231 27.2019V27.1989Z" fill="#575756"/>
<path d="M46.8093 29.8205C46.7874 30.8817 46.6881 31.9487 46.954 32.9952C47.2228 34.0519 47.7999 34.4947 48.9161 34.4961C50.0148 34.4976 50.6094 34.0386 50.8607 32.9745C51.1587 31.7097 51.0302 30.4227 51.0258 29.1431C51.0243 28.5985 51.0082 28.0524 50.9732 27.5078C50.9571 27.251 51.0331 27.1875 51.2829 27.1875C52.0894 27.1875 52.1055 27.1772 52.0835 27.983C52.0456 29.36 52.1201 30.7385 52.0061 32.114C51.9842 32.3709 51.9477 32.6291 51.8922 32.8815C51.3998 35.1013 48.8314 36.1122 46.9642 34.8194C46.3754 34.412 46.0774 33.8098 45.9094 33.1309C45.7735 32.5849 45.7297 32.0284 45.7224 31.4691C45.7063 30.16 45.6975 28.8508 45.6683 27.5417C45.6625 27.2746 45.7326 27.1919 46.0029 27.1934C46.8254 27.1978 46.821 27.186 46.8108 28.0199C46.8035 28.6191 46.8108 29.2198 46.8108 29.819L46.8093 29.8205Z" fill="#575756"/>
<path d="M68.4235 37.7184C67.395 38.9729 66.3284 40.0223 65.1962 41.0141C66.7609 42.2878 67.8099 43.9747 69.0181 45.6617C68.5287 45.6617 68.1561 45.6543 67.7836 45.6646C67.5864 45.6705 67.5425 45.5185 67.4636 45.399C66.8047 44.3998 66.1268 43.4168 65.3218 42.5298C65.0486 42.2287 64.7739 41.9203 64.3955 41.7506C64.1501 41.6399 63.9733 41.6266 63.9865 42.0192C64.0244 43.1099 64.0113 44.2005 64.0449 45.2912C64.0537 45.5716 64.0098 45.6705 63.7089 45.6676C62.9097 45.6587 62.9068 45.6735 62.936 44.8617C63.0149 42.5992 63.0193 40.3352 62.9155 38.0726C62.9024 37.7774 62.974 37.7081 63.2574 37.711C64.0595 37.7184 64.0493 37.7066 64.023 38.5272C63.9996 39.2637 64.0098 40.0001 63.9865 40.7366C63.9762 41.0584 64.096 41.0525 64.3123 40.9182C64.5694 40.7602 64.7798 40.5492 64.9814 40.3278C65.6944 39.5456 66.4 38.756 67.0049 37.8822C67.0794 37.7745 67.1451 37.7066 67.2898 37.7125C67.6258 37.7243 67.9633 37.7169 68.4235 37.7169V37.7184Z" fill="#575756"/>
<path d="M49.2372 41.6843C49.2372 40.4858 49.2518 39.2859 49.227 38.0875C49.2197 37.7687 49.3088 37.7067 49.601 37.7112C50.8837 37.7259 52.165 37.7244 53.4478 37.7112C53.702 37.7082 53.8028 37.7599 53.7809 38.0432C53.7283 38.7531 53.8204 38.6277 53.1863 38.6174C52.3097 38.6011 51.4331 38.5864 50.5565 38.5554C50.292 38.5465 50.2131 38.6144 50.2307 38.8978C50.2701 39.5221 50.273 40.1508 50.2672 40.7781C50.2643 41.0231 50.3213 41.1116 50.5799 41.1013C51.3206 41.0688 52.0642 41.0747 52.805 41.0393C53.0562 41.0275 53.1293 41.0895 53.1264 41.3463C53.1205 41.947 53.1337 41.944 52.5318 41.9293C51.8977 41.9145 51.2636 41.9204 50.6295 41.8938C50.3578 41.882 50.2526 41.9396 50.2657 42.2436C50.2979 42.9786 50.3096 43.7151 50.295 44.4516C50.2891 44.76 50.3782 44.8486 50.6821 44.8368C51.7063 44.794 52.7319 44.7881 53.7561 44.7453C54.0293 44.7335 54.1315 44.7777 54.114 45.0833C54.0804 45.6618 54.0994 45.6618 53.5208 45.6618C52.1986 45.6618 50.875 45.6544 49.5528 45.6677C49.2825 45.6707 49.2226 45.5939 49.227 45.3238C49.2445 44.1106 49.2343 42.8989 49.2343 41.6857L49.2372 41.6843Z" fill="#575756"/>
<path d="M64.5998 27.092C65.1141 27.0964 65.5846 27.1348 66.0521 27.2056C66.2873 27.2411 66.3954 27.3355 66.3004 27.5835C66.2814 27.6337 66.28 27.6897 66.2727 27.7444C66.2011 28.2506 66.2026 28.2417 65.7 28.134C64.9972 27.9834 64.2872 27.8964 63.5728 28.0484C63.057 28.1576 62.7751 28.4233 62.7166 28.8483C62.6479 29.3413 62.8729 29.7088 63.2791 29.9346C63.7495 30.1958 64.2507 30.4039 64.7372 30.6386C65.2851 30.9042 65.83 31.1729 66.2522 31.6363C67.31 32.7978 66.8542 34.6279 65.3742 35.112C64.2361 35.484 63.0848 35.391 61.9335 35.1622C61.764 35.1283 61.691 35.0589 61.7217 34.8567C61.8356 34.1217 61.8254 34.1202 62.5384 34.3032C63.2952 34.4966 64.0593 34.5335 64.8234 34.3711C65.307 34.2678 65.7394 34.0612 65.8373 33.5092C65.9367 32.9498 65.6751 32.5322 65.2222 32.2311C64.838 31.9757 64.4245 31.778 64.0052 31.5891C63.5362 31.3795 63.0746 31.1566 62.6538 30.8555C61.9554 30.3567 61.6837 29.6689 61.8196 28.8262C61.9511 28.0174 62.4653 27.5318 63.2046 27.2691C63.6677 27.1038 64.1528 27.0699 64.5998 27.092Z" fill="#575756"/>
<path d="M71.0995 31.6167C71.0995 32.6794 71.0878 33.7435 71.1068 34.8061C71.1112 35.0718 71.0615 35.1633 70.7868 35.1663C69.9935 35.1751 69.9833 35.1854 70.0081 34.3885C70.0695 32.4255 70.0651 30.4626 70.0447 28.4996C70.0403 28.0967 69.9336 27.9624 69.5172 28.0082C68.9562 28.0701 68.385 28.0451 67.8196 28.0775C67.5887 28.0908 67.5157 28.0259 67.5288 27.7897C67.5712 27.068 67.4675 27.2008 68.1103 27.1979C69.8109 27.1905 71.5115 27.2038 73.2136 27.1876C73.516 27.1846 73.5949 27.2923 73.5423 27.561C73.5014 27.775 73.6811 28.1115 73.2077 28.0687C72.6715 28.0185 72.131 28.0155 71.5904 28.0111C70.9899 28.0067 71.0586 27.9078 71.0513 28.5483C71.0411 29.5711 71.0484 30.5939 71.0484 31.6167C71.0644 31.6167 71.082 31.6167 71.098 31.6167H71.0995Z" fill="#575756"/>
<path d="M45.7344 24.5288C45.7738 24.4742 45.8103 24.3665 45.8892 24.4565C45.9345 24.5082 45.841 24.5524 45.7957 24.5908C45.7753 24.5701 45.7548 24.5495 45.7344 24.5303V24.5288Z" fill="#575756"/>
<path d="M45.7965 24.5932C45.7541 24.6316 45.7117 24.67 45.6694 24.7084C45.6606 24.6965 45.6518 24.6847 45.6445 24.6729C45.6752 24.6257 45.7059 24.5785 45.7351 24.5312C45.7556 24.5519 45.776 24.5726 45.7965 24.5918V24.5932Z" fill="#575756"/>
<path d="M45.6725 24.7088C45.6579 24.7678 45.6199 24.7929 45.5615 24.7796C45.5512 24.7767 45.5439 24.7619 45.5352 24.7516C45.5731 24.725 45.6111 24.6999 45.6491 24.6719C45.6564 24.6837 45.6637 24.6955 45.6725 24.7073V24.7088Z" fill="#575756"/>
</svg>
