<svg width="92" height="44" viewBox="0 0 92 44" fill="none" xmlns="http://www.w3.org/2000/svg">
<path d="M56.4093 10.0888C57.1983 10.0498 57.991 10.1172 58.7588 10.2979C60.7899 10.7799 62.5733 12.0098 63.6666 13.7997C63.9285 14.2285 64.5937 15.4974 64.4805 15.9688C64.6963 15.7349 64.7883 15.2316 64.9263 14.9338C65.0643 14.629 65.2342 14.3313 65.4076 14.0478C66.5611 12.1799 68.5179 10.8402 70.648 10.3404C72.9834 9.78754 75.4426 10.188 77.4843 11.4498C79.2359 12.5415 80.6053 14.3597 81.0653 16.3835C81.1643 16.823 81.2245 17.2731 81.2422 17.7268C81.3059 19.1728 81.2493 20.6437 81.2493 22.0933V24.5034C81.2528 24.9288 81.2705 25.3647 81.2493 25.79C81.2457 25.868 81.228 25.9247 81.1856 25.992H76.9748C77.0491 25.8432 77.0314 25.6837 77.0314 25.5242V20.7146C77.0314 19.7328 77.1376 18.0564 76.9217 17.1703C76.7625 16.504 76.3874 15.8731 75.9097 15.3875C75.0746 14.5511 73.9423 14.0797 72.764 14.0726C71.5786 14.0655 70.4393 14.5298 69.6006 15.3627C68.8823 16.068 68.4719 17.0356 68.4648 18.0422C68.4648 19.0665 68.8965 20.0305 69.6183 20.7465C71.1717 22.2953 73.0648 22.0189 75.0746 22.0153H76.9288C76.9288 22.0224 76.9288 22.0295 76.9253 22.0366C76.8934 22.1288 73.0294 25.7865 72.6826 25.9849C69.8519 25.8574 67.2476 24.7303 65.5951 22.3414C65.3474 21.9834 64.8166 20.8103 64.6326 20.6508C64.6256 20.6437 64.6185 20.6366 64.6114 20.6331C64.6362 20.6862 64.668 20.7429 64.6822 20.8032C64.76 21.1541 64.6999 22.0791 64.6999 22.4867C64.6999 23.5819 64.7459 24.7019 64.6893 25.79C64.6857 25.868 64.6716 25.9247 64.6291 25.992H60.4714C60.4962 25.9424 60.5139 25.8963 60.5174 25.8432C60.5422 25.3682 60.521 24.8827 60.521 24.4042V21.629C60.521 20.1546 60.5846 18.6483 60.5068 17.1774C60.4926 16.9435 60.4502 16.7166 60.3794 16.4933C60.0999 15.5931 59.4665 14.8984 58.6385 14.466C57.722 13.9875 56.6534 13.8954 55.6697 14.2108C54.6506 14.5369 53.766 15.2635 53.3697 16.2736C53.253 16.5713 53.1963 16.8797 53.168 17.1951C53.1008 18.0032 53.1503 18.8538 53.1503 19.6655V24.5212C53.1503 24.8543 53.2388 25.7262 53.1008 25.9743C53.1008 25.9814 53.0937 25.9885 53.0902 25.992H48.9219C49.0528 25.7794 48.982 24.8791 48.9785 24.5991V20.0766C48.9785 18.7085 48.8476 17.11 49.1766 15.7845C49.4491 14.6822 50.0153 13.6544 50.7548 12.7966C52.1914 11.1379 54.2508 10.2448 56.4093 10.0923V10.0888Z" fill="#575756"/>
<path d="M75.6539 7.42703C81.1314 7.09032 84.2524 10.9182 88.3499 13.6579C89.0576 14.1293 89.8007 14.5971 90.5756 14.9445C91.0108 15.1394 91.531 15.2705 91.9379 15.5009C91.7893 15.6852 90.5296 16.0361 90.2713 16.0893C89.9988 16.2594 88.9444 16.2948 88.6011 16.2913C86.3719 16.2523 84.4682 15.0969 82.9396 13.5409C82.2319 12.8179 81.595 12.024 80.8944 11.2974C79.4931 9.84069 77.823 8.20677 75.7813 7.77082C75.2611 7.66095 74.7304 7.65386 74.2031 7.64323C74.6773 7.52981 75.1727 7.48019 75.6574 7.42703H75.6539Z" fill="#575756"/>
<path d="M0.0390625 8.5H4.24629V15.1845V17.0914C4.24629 17.7222 4.21091 18.3638 4.36306 18.984C4.52229 19.6468 4.90091 20.267 5.3786 20.7455C6.21014 21.582 7.34245 22.0498 8.52075 22.0427C9.7026 22.0498 10.8349 21.5855 11.6771 20.7562C12.3883 20.0402 12.8235 19.0726 12.82 18.0554C12.8094 17.0311 12.3918 16.0529 11.6629 15.3369C10.2829 13.9795 8.88522 14.0574 7.09476 14.0574H4.27814L7.14076 11.424C7.60783 10.9916 8.06783 10.5309 8.55614 10.1268C10.8774 10.1516 13.1384 11.0129 14.7768 12.6894C15.6295 13.5612 16.2417 14.5891 16.6592 15.7339C17.466 13.5293 18.9804 11.8813 21.1106 10.8924C23.2443 9.91772 25.6752 9.82556 27.8797 10.6301C29.9921 11.4134 31.726 12.9304 32.6708 14.9931C32.7911 15.2625 32.9008 15.5354 32.9963 15.8154C33.4952 13.8802 34.7478 12.2286 36.4746 11.2291C38.3889 10.0914 40.6783 9.77595 42.8261 10.3537C44.8324 10.8676 46.5486 12.1648 47.5889 13.9582C48.0135 14.6954 48.3108 15.4893 48.4452 16.3329C48.5868 17.2544 48.5337 18.2149 48.5301 19.147V23.0954C48.5301 23.5491 48.5868 25.5658 48.5125 25.8812C48.5054 25.9202 48.4841 25.9521 48.47 25.9875H44.2875C44.33 25.9202 44.3406 25.8635 44.3477 25.7855C44.376 25.3531 44.3548 24.9065 44.3548 24.4741V21.9754C44.3477 20.462 44.4078 18.9273 44.3512 17.4139C44.3406 17.1516 44.3123 16.8858 44.2486 16.6306C44.0328 15.7516 43.4489 15.0392 42.6811 14.5749C41.7929 14.0397 40.7243 13.8838 39.7194 14.139C38.8064 14.3658 37.936 14.9506 37.4477 15.7658C37.2495 16.099 37.0903 16.4888 37.0337 16.8716C36.9098 17.7081 36.9877 19.0584 36.9877 19.9374V25.9875H32.8158V20.7916C31.8144 22.9855 30.2504 24.5698 27.9681 25.4204C25.7248 26.2604 23.2408 26.1718 21.0646 25.1723C19.0477 24.2579 17.4801 22.5708 16.7158 20.4903C16.7052 20.4584 16.6911 20.423 16.6804 20.3911C15.8383 22.5637 14.3911 24.2367 12.2397 25.1865C10.0211 26.1718 7.50168 26.2356 5.23706 25.3602C3.14937 24.545 1.51814 23.0174 0.615832 20.9582C0.279678 20.1926 0.0284471 19.2357 0.0532163 18.3957C0.106293 17.3147 0.0532163 16.2053 0.0532163 15.1243V8.50709L0.0390625 8.5ZM25.3214 22.1597C27.5789 21.8655 29.1748 19.7957 28.8846 17.5309C28.5944 15.2661 26.5315 13.664 24.274 13.9476C22.0058 14.2311 20.3994 16.3081 20.6895 18.58C20.9797 20.8519 23.0568 22.4574 25.3249 22.1597H25.3214Z" fill="#575756"/>
<path d="M79.6534 0H79.6782C79.756 0.754934 79.6003 1.62683 79.3703 2.34632C78.6202 4.70327 76.4759 6.00403 74.236 6.71643C73.2099 7.04251 72.1483 7.25871 71.108 7.54225C69.8023 7.89668 68.4506 8.31845 67.2511 8.94934C66.6071 9.28959 65.9631 9.74326 65.4677 10.2784C65.2731 10.4911 65.0679 10.7357 64.9228 10.9838C64.8166 11.1645 64.7388 11.3665 64.6185 11.5402C64.5831 11.5898 64.5371 11.6253 64.4805 11.6536C64.6999 11.3311 64.7742 10.8455 64.9122 10.4769C65.2448 9.58376 65.8286 8.69415 66.4549 7.98529C69.6077 4.41619 74.6146 3.74632 78.3831 1.07392C78.8077 0.772655 79.3349 0.414682 79.6534 0Z" fill="#575756"/>
<path d="M0 8.49219L0.0353846 8.49928V15.1165C0.0353846 16.1975 0.0884615 17.3104 0.0353846 18.3878H0V8.49219Z" fill="#575756"/>
</svg>
