<svg width="143" height="32" viewBox="0 0 143 32" fill="none" xmlns="http://www.w3.org/2000/svg">
<path d="M61.7886 31.1036C61.3028 31.1784 58.2662 31.169 57.855 31.1036C57.8364 31.0195 57.8177 30.9354 57.8083 30.842C57.8083 30.7018 57.8083 30.5523 57.8083 30.4122C57.8083 25.7778 57.8083 21.1341 57.8083 16.4997C57.8083 15.6588 57.771 14.8179 57.5747 13.9957C57.3879 13.1735 57.0982 12.3792 56.631 11.6691C55.9303 10.5852 54.9772 9.82849 53.7159 9.52015C51.6697 9.00626 49.4832 9.63227 48.1845 11.6224C47.5678 12.5568 47.2501 13.5939 47.082 14.6871C46.9885 15.2851 46.9792 15.8924 46.9792 16.4904C46.9792 21.1621 46.9792 25.8245 46.9792 30.4963C46.9792 30.6831 46.9792 30.8793 46.9792 31.0755C46.8858 31.1036 46.811 31.141 46.7456 31.141C45.5683 31.141 44.391 31.141 43.2231 31.141C43.1577 31.141 43.1017 31.1223 43.0363 31.1036C42.9615 30.9074 42.9895 30.7205 42.9895 30.5337C42.9895 26.9271 42.9895 23.3204 42.9895 19.7232C42.9895 19.1999 42.9895 18.6768 42.9989 18.1535C43.0362 17.2005 43.1671 16.2568 43.4193 15.3318C43.9519 13.379 45.0545 11.8 46.6522 10.576C48.1098 9.45475 49.7636 8.8287 51.6042 8.66986C55.4164 8.32415 59.3219 10.4171 60.9664 14.1451C61.3495 15.0047 61.5457 15.9204 61.6765 16.8548C61.7793 17.5836 61.8073 18.3123 61.8073 19.0411C61.8073 22.872 61.8073 26.6935 61.8073 30.5243C61.8073 30.7112 61.8073 30.8981 61.798 31.113L61.7886 31.1036Z" fill="#575756"/>
<path d="M142.648 31.121C142.536 31.1303 142.414 31.149 142.293 31.149C141.125 31.149 139.947 31.1677 138.751 31.1303C138.733 31.0089 138.723 30.9247 138.714 30.8313C138.714 30.6911 138.714 30.5417 138.714 30.4015C138.714 25.7017 138.714 21.002 138.714 16.3022C138.714 15.2931 138.611 14.3027 138.312 13.3403C138.088 12.6022 137.761 11.9201 137.294 11.3035C136.322 10.0421 135.042 9.37863 133.444 9.3506C131.417 9.31322 129.913 10.2102 128.894 11.9388C128.427 12.733 128.175 13.5925 128.025 14.4895C127.922 15.1062 127.904 15.7228 127.904 16.3395C127.904 21.058 127.904 25.7765 127.904 30.4856C127.904 30.6725 127.904 30.8593 127.904 31.0649C127.81 31.0929 127.736 31.1303 127.661 31.1303C126.502 31.1303 125.344 31.1303 124.185 31.1303C124.11 31.1303 124.035 31.1023 123.933 31.0836C123.933 30.9341 123.914 30.794 123.914 30.6538C123.914 26.7015 123.914 22.7491 123.914 18.7875C123.914 17.7223 124.017 16.6666 124.269 15.6202C124.82 13.3217 126.11 11.537 128.053 10.2102C129.389 9.30392 130.875 8.79933 132.491 8.64984C135.92 8.32281 139.443 9.99537 141.321 13.0413C141.956 14.0691 142.33 15.1903 142.526 16.3769C142.666 17.2272 142.732 18.0774 142.732 18.937C142.732 22.8239 142.732 26.7202 142.732 30.6071C142.732 30.7659 142.769 30.9248 142.676 31.1023L142.648 31.121Z" fill="#575756"/>
<path d="M36.8021 31.1057C36.6993 31.1244 36.6246 31.1525 36.5499 31.1525C35.3446 31.1525 34.1393 31.1712 32.9713 31.1525C32.8218 31.0217 32.8592 30.8908 32.8592 30.7694C32.8592 30.1527 32.8592 29.5267 32.8592 28.91C32.8592 28.8072 32.8312 28.7044 32.8125 28.5363C32.6723 28.7138 32.5695 28.8352 32.4761 28.9567C31.4016 30.3489 29.972 31.1244 28.2622 31.4047C26.8606 31.6289 25.5058 31.4514 24.1884 30.9562C22.5626 30.3489 21.1985 29.3678 20.0773 28.041C19.1803 26.9759 18.601 25.752 18.3207 24.3878C18.1432 23.5469 18.0217 22.6965 18.0217 21.8369C18.0217 20.5662 18.003 19.2955 18.0311 18.0248C18.0591 16.9784 18.2273 15.9413 18.5356 14.9322C19.3952 12.1665 21.6657 9.91469 24.5061 9.05509C28.7854 7.76569 33.0274 9.46624 35.3165 12.942C36.1388 14.1847 36.5873 15.5581 36.7181 17.0437C36.7928 17.9033 36.8115 18.7536 36.8115 19.6132C36.8115 23.2665 36.8115 26.9199 36.8115 30.5732C36.8115 30.7507 36.8115 30.9189 36.8115 31.1057H36.8021ZM32.8125 21.2203C32.8125 21.2203 32.8125 21.2203 32.8031 21.2203C32.8031 19.6133 32.8031 18.0155 32.8031 16.4084C32.8031 15.6609 32.7284 14.9228 32.5976 14.1847C32.4761 13.4652 32.2799 12.7551 31.9342 12.1104C31.2895 10.9238 30.3738 10.0268 29.0657 9.61568C28.2715 9.36341 27.4493 9.32598 26.6178 9.44745C25.291 9.64366 24.2351 10.2603 23.4222 11.3255C22.8616 12.0543 22.5253 12.8952 22.3104 13.7828C22.0674 14.7919 21.9927 15.8198 21.9927 16.8569C21.9927 18.763 21.9927 20.669 21.9927 22.5751C21.9927 23.4627 22.0114 24.3503 22.1142 25.238C22.1889 25.8827 22.301 26.5274 22.5066 27.1441C22.8336 28.1252 23.3662 28.9942 24.1698 29.6482C25.5339 30.7788 27.1036 31.0404 28.7761 30.5732C30.5327 30.0967 31.766 28.9661 32.6069 27.3777C32.7564 27.1067 32.8125 26.8264 32.8125 26.5087C32.8125 24.7428 32.8125 22.9863 32.8125 21.2203Z" fill="#575756"/>
<path d="M97.9007 20.5291C97.6577 20.5291 97.4709 20.5477 97.284 20.5477C92.7618 20.5477 88.2302 20.5477 83.7079 20.5477C83.521 20.5477 83.3248 20.5104 83.1193 20.6038C83.1099 20.7253 83.0913 20.8468 83.0913 20.9682C83.1006 22.0801 83.1006 23.1919 83.138 24.3038C83.166 25.1634 83.2594 26.0138 83.5024 26.8453C83.6051 27.191 83.7172 27.5461 83.8761 27.8731C84.5675 29.3587 85.7261 30.3117 87.3238 30.6013C90.0895 31.1059 92.5562 30.4799 94.6024 28.4711C95.462 27.6302 96.1161 26.6397 96.6767 25.5839C96.7608 25.4344 96.8448 25.2849 96.9383 25.1167C97.1719 25.1821 97.3587 25.2849 97.5363 25.397C97.5176 25.4718 97.5176 25.5278 97.4989 25.5652C96.7981 27.0601 95.8732 28.4056 94.5931 29.4708C93.2476 30.5827 91.7059 31.2273 89.9681 31.4235C87.8471 31.6571 85.8102 31.3582 83.9228 30.3304C81.3907 28.9476 79.8303 26.8266 79.3071 23.9675C79.1576 23.1639 79.1016 22.3604 79.1016 21.5475C79.1016 20.5104 79.1016 19.4825 79.1016 18.4454C79.1016 16.8383 79.4099 15.278 80.1107 13.8298C81.4842 11.0081 83.7266 9.3075 86.8379 8.77492C89.2766 8.36381 91.5658 8.79367 93.64 10.1204C95.9105 11.5687 97.3027 13.6336 97.7231 16.3245C97.8633 17.2215 97.9194 18.1184 97.91 19.0341C97.91 19.5106 97.91 19.9872 97.91 20.5291H97.9007ZM83.1193 19.7629C83.3248 19.8283 83.521 19.8096 83.7079 19.8096C86.894 19.8096 90.0895 19.8096 93.2756 19.8096C93.3878 19.8096 93.4999 19.8096 93.612 19.8096C93.7054 19.8096 93.7896 19.7816 93.8923 19.7629C93.8923 19.5947 93.911 19.4546 93.911 19.3144C93.911 18.6043 93.911 17.8848 93.911 17.1747C93.911 16.2404 93.8269 15.306 93.7242 14.3717C93.584 13.101 93.0514 11.9985 92.2572 11.0174C91.6312 10.2512 90.8463 9.75606 89.8746 9.55051C89.5943 9.49445 89.314 9.43836 89.0337 9.41033C87.5014 9.26084 86.1559 9.68125 85.0253 10.7651C84.3432 11.4191 83.8854 12.204 83.6145 13.101C83.3248 14.0447 83.1847 15.0257 83.1473 16.0068C83.1006 17.1467 83.1099 18.2866 83.1005 19.4359C83.1005 19.5387 83.1193 19.6508 83.1286 19.7629H83.1193Z" fill="#575756"/>
<path d="M119.477 20.527C119.224 20.527 119.037 20.5456 118.851 20.5456C114.328 20.5456 109.797 20.5456 105.275 20.5456C105.088 20.5456 104.901 20.5176 104.695 20.5924C104.686 20.7045 104.667 20.8166 104.667 20.9194C104.667 22.2835 104.639 23.6477 104.77 25.0118C104.845 25.8247 104.966 26.619 105.246 27.3851C105.994 29.4033 107.48 30.4871 109.591 30.7207C110.647 30.8422 111.684 30.7487 112.712 30.4871C114.198 30.104 115.431 29.2912 116.468 28.1699C117.169 27.4038 117.739 26.5442 118.225 25.6285C118.318 25.4604 118.411 25.3015 118.514 25.1053C118.739 25.18 118.935 25.2548 119.131 25.4043C119.084 25.5071 119.056 25.6098 119.01 25.7033C118.626 26.5068 118.169 27.2637 117.608 27.9644C116.057 29.9266 114.067 31.1038 111.572 31.4028C109.685 31.627 107.853 31.4028 106.125 30.6086C103.191 29.2538 101.416 26.9834 100.855 23.7879C100.734 23.0871 100.668 22.3677 100.668 21.6576C100.668 20.5457 100.659 19.4337 100.668 18.3219C100.687 16.6681 101.033 15.0704 101.799 13.5941C103.191 10.9032 105.387 9.29607 108.377 8.77284C110.46 8.40844 112.469 8.67945 114.347 9.63248C117.047 11.006 118.739 13.1737 119.271 16.1823C119.421 17.0419 119.477 17.9201 119.486 18.789C119.486 19.3403 119.486 19.901 119.486 20.5177L119.477 20.527ZM115.45 19.7608C115.459 19.602 115.478 19.4618 115.478 19.3217C115.478 18.7798 115.478 18.2379 115.478 17.7053C115.459 16.528 115.422 15.36 115.263 14.1921C115.085 12.9027 114.515 11.8094 113.674 10.8471C113.095 10.1837 112.366 9.75399 111.507 9.55777C111.198 9.48303 110.881 9.43628 110.572 9.40825C109.049 9.26809 107.723 9.67915 106.601 10.7537C105.882 11.4451 105.415 12.2673 105.144 13.2204C104.835 14.2949 104.723 15.3974 104.686 16.5093C104.658 17.4903 104.667 18.4808 104.667 19.4619C104.667 19.5646 104.695 19.6768 104.714 19.8076C108.227 19.8076 111.722 19.8076 115.207 19.8076C115.281 19.8076 115.356 19.7888 115.459 19.7795L115.45 19.7608Z" fill="#575756"/>
<path d="M66.2468 9.54914C66.2187 9.33424 66.1907 9.16596 66.2748 8.97909C66.6299 8.89499 66.9942 8.95112 67.3586 8.93244C67.7044 8.91375 68.0501 8.96977 68.4238 8.88567C68.4799 8.39047 68.4425 7.8953 68.4518 7.40944C68.4518 6.91424 68.4518 6.42842 68.4518 5.93321V1.55105C68.4518 1.06519 68.4518 0.570008 68.4518 0.0561157C68.5453 0.0374287 68.62 0 68.6948 0C69.8814 0 71.0774 0 72.264 0C72.3107 0 72.3574 0.0187144 72.4322 0.0280579C72.4415 0.14018 72.4696 0.26165 72.4696 0.383115C72.4696 1.24272 72.4696 2.10232 72.4696 2.95258C72.4696 4.74653 72.4696 6.54049 72.4696 8.33444C72.4696 8.50262 72.4322 8.68019 72.5163 8.83903C72.6658 8.95115 72.8246 8.90438 72.9834 8.90438C73.9365 8.90438 74.8895 8.90438 75.8426 8.90438C76.0014 8.90438 76.1509 8.91374 76.3097 8.92309C76.4032 9.12864 76.3564 9.31553 76.3564 9.52108C76.0107 9.5678 75.6931 9.5398 75.3847 9.54914C75.0671 9.54914 74.7494 9.54914 74.4317 9.54914C74.114 9.54914 73.7963 9.54914 73.4786 9.54914C73.1609 9.54914 72.8526 9.53036 72.5163 9.56773C72.4976 9.6892 72.4789 9.77335 72.4789 9.86679C72.4789 9.96022 72.4789 10.0536 72.4789 10.1564C72.4789 15.968 72.4789 21.7797 72.4789 27.5914C72.4789 27.9371 72.4976 28.2921 72.563 28.6285C72.6938 29.3293 73.0769 29.8619 73.7683 30.0955C74.712 30.4225 75.6931 29.9834 76.0761 29.0397C76.1696 28.8061 76.2256 28.5631 76.3097 28.3015C76.5246 28.2454 76.7395 28.2734 76.9357 28.2828C77.0385 28.3949 77.0105 28.4884 76.9918 28.5818C76.7489 29.9834 75.7678 31.0298 74.3663 31.3288C73.2357 31.5717 72.1238 31.4782 71.04 31.0578C70.0215 30.6653 69.3488 29.9086 68.9283 28.9182C68.7134 28.4043 68.6107 27.8531 68.5453 27.3018C68.4705 26.6664 68.4518 26.031 68.4518 25.3957C68.4518 20.3128 68.4518 15.2299 68.4518 10.1564C68.4518 9.96951 68.4799 9.78264 68.4145 9.57708C68.1809 9.50234 67.9379 9.53978 67.7043 9.53043C67.4708 9.53043 67.2278 9.53043 66.9942 9.53043C66.7606 9.53043 66.5177 9.54909 66.2561 9.50238L66.2468 9.54914Z" fill="#575756"/>
<path d="M14.6599 26.4168C14.9029 26.3607 15.1271 26.3514 15.3794 26.4355C15.3794 26.5383 15.3794 26.6318 15.3607 26.7252C14.9776 28.4911 14.062 29.8833 12.4736 30.7896C11.614 31.2755 10.6796 31.5183 9.69855 31.5277C7.25056 31.5464 5.06423 30.8082 3.20487 29.2199C1.5791 27.8277 0.579326 26.0617 0.205587 23.9501C0.0560906 23.1185 0 22.2777 0 21.4368C0 20.3529 9.12472e-06 19.2784 0.00935262 18.1946C0.0280396 17.0734 0.196229 15.9802 0.541939 14.915C1.49498 11.9718 4.03643 9.63589 7.04503 8.9071C8.42787 8.57073 9.81071 8.53336 11.1935 8.9071C12.1653 9.16872 13.0155 9.64528 13.7256 10.3554C14.09 10.7198 14.3703 11.1402 14.5572 11.6261C14.8281 12.3455 14.9496 13.093 14.9683 13.8592C14.9683 13.9339 14.9496 14.0087 14.9403 14.0928C14.7347 14.1488 14.5479 14.1395 14.3423 14.1115C14.333 14.0087 14.3142 13.9152 14.3142 13.8218C14.2862 12.523 13.763 11.4486 12.8006 10.6077C11.8569 9.77611 10.7544 9.35558 9.49302 9.36492C9.04454 9.36492 8.60541 9.40232 8.16626 9.5051C7.36272 9.69197 6.66195 10.075 6.05462 10.645C5.05487 11.5793 4.48489 12.738 4.21393 14.0741C4.02706 15.0084 3.95234 15.9615 3.95234 16.9145C3.95234 18.886 3.95234 20.8574 3.95234 22.8196C3.95234 23.7539 3.9897 24.6976 4.11116 25.6226C4.21394 26.4168 4.41017 27.183 4.77457 27.8931C5.63417 29.5843 7.01698 30.5186 8.89503 30.7428C9.61448 30.8269 10.3246 30.7896 11.016 30.5747C12.7259 30.0515 13.8191 28.9022 14.4171 27.239C14.5105 26.9681 14.5759 26.6971 14.6599 26.4168Z" fill="#575756"/>
</svg>
