<svg width="103" height="41" viewBox="0 0 103 41" fill="none" xmlns="http://www.w3.org/2000/svg">
<path d="M20.9206 0C19.2331 0 16.8415 1.1176 15.0087 6.47069C13.7347 10.181 13.0306 15.087 13.0306 20.2837C13.0306 30.9787 9.99089 37.7957 7.90106 37.7957C5.81123 37.7957 2.77152 30.9675 2.77152 20.2837H0C0 25.4803 0.704082 30.3863 1.9781 34.0966C3.82206 39.4497 6.21354 40.5673 7.88987 40.5673C9.5662 40.5673 11.969 39.4497 13.8018 34.0966C15.0758 30.3863 15.7799 25.4803 15.7799 20.2837C15.7799 9.58865 18.8196 2.77152 20.9094 2.77152C22.9992 2.77152 26.039 9.59983 26.039 20.2837H28.8106C28.8106 15.087 28.1065 10.181 26.8325 6.47069C24.9886 1.1176 22.5969 0 20.9206 0Z" fill="#575756"/>
<path d="M40.4 0C38.7125 0 36.3209 1.1176 34.4881 6.47069C33.2141 10.181 32.51 15.087 32.51 20.2837C32.51 25.4803 33.2141 30.3863 34.4881 34.0966C36.3321 39.4497 38.7237 40.5673 40.4 40.5673C42.0764 40.5673 44.479 39.4497 46.3118 34.0966C47.5858 30.3863 48.2899 25.4803 48.2899 20.2837C48.2899 15.087 47.5858 10.181 46.3118 6.47069C44.4678 1.1176 42.0764 0 40.4 0ZM40.4 37.8069C38.3102 37.8069 35.2703 30.9787 35.2703 20.2948C35.2703 9.61102 38.3102 2.7827 40.4 2.7827C42.4898 2.7827 45.5296 9.61102 45.5296 20.2948C45.5296 30.9787 42.4898 37.8069 40.4 37.8069Z" fill="#575756"/>
<path d="M80.9548 6.82823C79.0215 1.2181 76.5293 0.0335424 74.7747 0.0335424C73.0202 0.0335424 70.5281 1.20693 68.5948 6.82823C68.3265 7.61052 68.0807 8.43748 67.8683 9.30917C67.6672 8.51571 67.4325 7.74469 67.1866 7.02945C65.2533 1.41932 62.7611 0.234626 61.0065 0.234626C59.4531 0.234626 57.3185 1.16222 55.5081 5.286V0.0111694H52.7366V21.2783C52.7366 21.3342 52.7366 21.4011 52.7366 21.457V40.5895H55.5081V21.6247C55.5081 10.2703 58.7714 3.01733 61.0065 3.01733C63.2416 3.01733 66.5049 10.2703 66.5049 21.6247V40.5895H69.2764V21.4236C69.2764 10.0692 72.5396 2.81624 74.7747 2.81624C77.0098 2.81624 80.2732 10.0692 80.2732 21.4236V40.3996H83.0447V21.2671C83.0335 15.8358 82.2959 10.7061 80.9548 6.82823Z" fill="#575756"/>
<path d="M102.893 19.9483C102.86 14.8746 102.167 10.1027 100.915 6.47069C99.0713 1.1176 96.6799 0 95.0035 0C93.3272 0 90.9244 1.1176 89.0916 6.47069C87.8176 10.181 87.1135 15.087 87.1135 20.2837C87.1135 25.4803 87.8176 30.3863 89.0916 34.0966C90.9356 39.4497 93.3272 40.5673 95.0035 40.5673C96.4564 40.5673 98.4344 39.7291 100.133 36.0747V40.5673H102.905V19.9372L102.893 19.9483ZM95.0035 37.8069C92.9137 37.8069 89.8739 30.9787 89.8739 20.2948C89.8739 9.61102 92.9137 2.7827 95.0035 2.7827C97.0934 2.7827 100.133 9.61102 100.133 20.2948C100.133 30.9787 97.0934 37.8069 95.0035 37.8069Z" fill="#575756"/>
</svg>
