<svg width="43" height="17" viewBox="0 0 43 17" fill="none" xmlns="http://www.w3.org/2000/svg">
<path d="M8.59254 0C7.89944 0 6.91716 0.459022 6.16439 2.65765C5.64112 4.18154 5.35194 6.19656 5.35194 8.33093C5.35194 12.7236 4.10347 15.5235 3.24513 15.5235C2.38679 15.5235 1.13832 12.719 1.13832 8.33093H0C0 10.4653 0.289181 12.4803 0.812446 14.0042C1.5698 16.2028 2.55203 16.6619 3.24054 16.6619C3.92904 16.6619 4.91592 16.2028 5.66868 14.0042C6.19195 12.4803 6.48113 10.4653 6.48113 8.33093C6.48113 3.93826 7.72961 1.13832 8.58794 1.13832C9.44628 1.13832 10.6948 3.94285 10.6948 8.33093H11.8331C11.8331 6.19656 11.5439 4.18154 11.0207 2.65765C10.2633 0.459022 9.28104 0 8.59254 0Z" fill="#575756"/>
<path d="M16.5922 0C15.8991 0 14.9168 0.459022 14.164 2.65765C13.6407 4.18154 13.3516 6.19656 13.3516 8.33093C13.3516 10.4653 13.6407 12.4803 14.164 14.0042C14.9214 16.2028 15.9036 16.6619 16.5922 16.6619C17.2807 16.6619 18.2675 16.2028 19.0202 14.0042C19.5435 12.4803 19.8327 10.4653 19.8327 8.33093C19.8327 6.19656 19.5435 4.18154 19.0202 2.65765C18.2629 0.459022 17.2807 0 16.5922 0ZM16.5922 15.5281C15.7338 15.5281 14.4853 12.7236 14.4853 8.33552C14.4853 3.94745 15.7338 1.14291 16.5922 1.14291C17.4505 1.14291 18.699 3.94745 18.699 8.33552C18.699 12.7236 17.4505 15.5281 16.5922 15.5281Z" fill="#575756"/>
<path d="M33.25 2.80772C32.4559 0.503525 31.4323 0.0170015 30.7117 0.0170015C29.9911 0.0170015 28.9675 0.498935 28.1734 2.80772C28.0633 3.12903 27.9623 3.46868 27.8751 3.8267C27.7925 3.50081 27.6961 3.18413 27.5951 2.89037C26.801 0.586171 25.7774 0.0995908 25.0568 0.0995908C24.4188 0.0995908 23.5421 0.480573 22.7985 2.1743V0.0078125H21.6602V8.74267C21.6602 8.76562 21.6602 8.79312 21.6602 8.81607V16.6742H22.7985V8.88493C22.7985 4.22145 24.1388 1.24251 25.0568 1.24251C25.9748 1.24251 27.3151 4.22145 27.3151 8.88493V16.6742H28.4534V8.80234C28.4534 4.13886 29.7937 1.15992 30.7117 1.15992C31.6297 1.15992 32.97 4.13886 32.97 8.80234V16.5962H34.1083V8.73807C34.1037 6.50731 33.8008 4.40047 33.25 2.80772Z" fill="#575756"/>
<path d="M42.2624 8.1932C42.2486 6.10933 41.964 4.14941 41.4499 2.65765C40.6926 0.459022 39.7103 0 39.0218 0C38.3333 0 37.3465 0.459022 36.5937 2.65765C36.0704 4.18154 35.7812 6.19656 35.7812 8.33093C35.7812 10.4653 36.0704 12.4803 36.5937 14.0042C37.3511 16.2028 38.3333 16.6619 39.0218 16.6619C39.6185 16.6619 40.431 16.3176 41.1287 14.8167V16.6619H42.267V8.18861L42.2624 8.1932ZM39.0218 15.5281C38.1635 15.5281 36.915 12.7236 36.915 8.33552C36.915 3.94745 38.1635 1.14291 39.0218 1.14291C39.8802 1.14291 41.1287 3.94745 41.1287 8.33552C41.1287 12.7236 39.8802 15.5281 39.0218 15.5281Z" fill="#575756"/>
</svg>
