<svg width="186" height="26" viewBox="0 0 186 26" fill="none" xmlns="http://www.w3.org/2000/svg">
<path d="M144.049 25.7414V24.8257H144.077C145.151 24.8257 146.03 24.6108 146.712 24.181C147.394 23.7512 147.926 23.1065 148.291 22.2469C148.664 21.378 148.926 20.2941 149.066 18.986C149.206 17.678 149.272 16.1549 149.262 14.3984V11.4178C149.262 9.66126 149.206 8.12889 149.057 6.8208C148.907 5.51271 148.646 4.41951 148.281 3.54122C147.908 2.66293 147.375 2.00891 146.693 1.57911C146.011 1.13997 145.142 0.924997 144.077 0.924997H144.039V0.0187052C145.254 0.0187052 146.45 0.196277 147.618 0.532643C148.814 0.878353 149.916 1.39228 150.963 2.0837C152.009 2.76577 152.925 3.63462 153.729 4.67175C154.523 5.69953 155.149 6.91418 155.597 8.28768C156.046 9.67052 156.279 11.2123 156.289 12.9408C156.289 14.6414 156.046 16.183 155.597 17.5471C155.149 18.9113 154.523 20.1073 153.729 21.1257C152.934 22.1535 152.019 23.0038 150.982 23.6859C149.935 24.3679 148.823 24.8817 147.646 25.2181C146.45 25.5638 145.254 25.732 144.039 25.732L144.049 25.7414ZM171.687 25.405C171.715 25.4517 171.771 25.4891 171.855 25.5078C171.939 25.5358 172.023 25.5546 172.117 25.5639C172.21 25.5733 172.275 25.5825 172.332 25.5825C172.36 25.5825 172.416 25.5826 172.509 25.5639C172.593 25.5546 172.687 25.5265 172.78 25.5078C172.864 25.4798 172.92 25.4518 172.93 25.4237L182.17 1.39217H184.842C184.945 1.39217 185.02 1.33618 185.067 1.23341C185.123 1.13997 185.141 1.0185 185.141 0.878348C185.141 0.738196 185.123 0.616726 185.067 0.523291C185.011 0.429856 184.936 0.373754 184.842 0.36441H178.554C178.451 0.36441 178.377 0.420512 178.33 0.523291C178.274 0.616726 178.255 0.738196 178.255 0.878348C178.255 1.0185 178.283 1.13997 178.33 1.23341C178.386 1.32684 178.451 1.38283 178.554 1.39217H181.068L175.275 16.3605L168.949 1.39217H171.621C171.724 1.39217 171.799 1.33618 171.846 1.23341C171.902 1.13997 171.92 1.0185 171.92 0.878348C171.92 0.738196 171.902 0.616726 171.846 0.523291C171.79 0.429856 171.715 0.373754 171.621 0.36441H158.933C158.83 0.36441 158.755 0.420512 158.709 0.523291C158.653 0.616726 158.634 0.738196 158.634 0.878348C158.634 1.0185 158.662 1.13997 158.709 1.23341C158.765 1.32684 158.83 1.38283 158.933 1.39217H161.577L171.687 25.4144V25.405ZM144.049 0.0187052V0.93435C142.993 0.93435 142.133 1.14932 141.451 1.58846C140.769 2.02761 140.227 2.68163 139.844 3.55057C139.461 4.42886 139.19 5.51272 139.041 6.83015C138.891 8.13824 138.816 9.67062 138.816 11.4272V14.4077C138.816 16.1549 138.882 17.6873 139.041 18.9954C139.19 20.3035 139.461 21.3873 139.844 22.2563C140.227 23.1159 140.76 23.7699 141.451 24.1903C142.133 24.6108 142.993 24.8257 144.049 24.8351V25.7507H144.011C142.778 25.7507 141.573 25.5825 140.386 25.2368C139.199 24.9004 138.097 24.3865 137.06 23.7044C136.023 23.0224 135.116 22.1721 134.322 21.1443C133.528 20.1259 132.921 18.93 132.463 17.5658C132.014 16.1923 131.799 14.66 131.781 12.9502C131.79 11.231 132.014 9.67052 132.463 8.28768C132.911 6.90484 133.528 5.69952 134.313 4.6624C135.107 3.63461 136.013 2.76576 137.05 2.07434C138.078 1.39227 139.181 0.869 140.367 0.523291C141.545 0.177581 142.741 0.00935262 143.965 0.00935262H144.039L144.049 0.0187052ZM41.4758 25.7414V24.8257H41.5132C42.5877 24.8257 43.4659 24.6108 44.148 24.181C44.8301 23.7512 45.3627 23.1065 45.7271 22.2469C46.1009 21.378 46.3624 20.2941 46.5026 18.986C46.6428 17.678 46.7081 16.1549 46.6988 14.3984V11.4178C46.6988 9.66126 46.6427 8.12889 46.4932 6.8208C46.3438 5.51271 46.0915 4.41951 45.7178 3.54122C45.344 2.66293 44.8114 2.00891 44.1293 1.57911C43.4472 1.13997 42.5784 0.924997 41.5132 0.924997H41.4758V0.0187052C42.6904 0.0187052 43.8864 0.196277 45.0543 0.532643C46.2409 0.878353 47.3529 1.39228 48.3994 2.0837C49.4458 2.76577 50.3615 3.63462 51.165 4.67175C51.9592 5.69953 52.5852 6.91418 53.0337 8.28768C53.4822 9.67052 53.7158 11.2123 53.7251 12.9408C53.7251 14.6414 53.4822 16.183 53.0337 17.5471C52.5852 18.9113 51.9592 20.1073 51.165 21.1257C50.3708 22.1535 49.4552 23.0038 48.4181 23.6859C47.3716 24.3679 46.2596 24.8817 45.073 25.2181C43.8864 25.5638 42.6904 25.732 41.4664 25.732L41.4758 25.7414ZM69.1232 25.405C69.1512 25.4517 69.2073 25.4891 69.2914 25.5078C69.3755 25.5358 69.4596 25.5546 69.553 25.5639C69.6465 25.5733 69.7119 25.5825 69.7679 25.5825C69.796 25.5825 69.852 25.5826 69.9454 25.5639C70.0295 25.5546 70.123 25.5265 70.207 25.5078C70.2911 25.4798 70.3472 25.4518 70.3566 25.4237L79.5973 1.39217H82.2695C82.3723 1.39217 82.4471 1.33618 82.4938 1.23341C82.5498 1.13997 82.5685 1.0185 82.5685 0.878348C82.5685 0.738196 82.5498 0.616726 82.4938 0.523291C82.4377 0.429856 82.363 0.373754 82.2695 0.36441H75.9814C75.8786 0.36441 75.8039 0.420512 75.7571 0.523291C75.7011 0.616726 75.673 0.738196 75.673 0.878348C75.673 1.0185 75.7011 1.13997 75.7571 1.23341C75.8132 1.32684 75.8786 1.38283 75.9814 1.39217H78.4947L72.7018 16.3605L66.3762 1.39217H69.0485C69.1512 1.39217 69.226 1.33618 69.2727 1.23341C69.3288 1.13997 69.3474 1.0185 69.3474 0.878348C69.3474 0.738196 69.3288 0.616726 69.2727 0.523291C69.2166 0.429856 69.1419 0.373754 69.0485 0.36441H56.36C56.2573 0.36441 56.1824 0.420512 56.145 0.523291C56.089 0.616726 56.061 0.738196 56.061 0.878348C56.061 1.0185 56.089 1.13997 56.145 1.23341C56.2011 1.32684 56.2666 1.38283 56.36 1.39217H59.0042L69.1138 25.4144L69.1232 25.405ZM94.2572 1.37358H96.7707C96.8734 1.37358 96.9482 1.31748 96.9949 1.2147C97.051 1.12127 97.0696 0.999795 97.0696 0.859643C97.0696 0.71949 97.051 0.59802 96.9949 0.504585C96.9388 0.41115 96.8641 0.355048 96.7707 0.345705H85.0539C84.9511 0.345705 84.8764 0.401807 84.8296 0.504585C84.7736 0.59802 84.7456 0.71949 84.7456 0.859643C84.7456 0.999795 84.7736 1.12127 84.8296 1.2147C84.8857 1.30814 84.9511 1.36424 85.0539 1.37358H87.5672V24.3866H85.0539C84.9511 24.3866 84.8764 24.4426 84.8296 24.5454C84.7736 24.6388 84.7456 24.7603 84.7456 24.9004C84.7456 25.0406 84.7736 25.1527 84.8296 25.2555C84.8857 25.3489 84.9511 25.405 85.0539 25.4144H96.7707C96.8734 25.4144 96.9482 25.3583 96.9949 25.2555C97.051 25.1621 97.0696 25.0406 97.0696 24.9004C97.0696 24.7603 97.051 24.6482 96.9949 24.5454C96.9388 24.452 96.8641 24.396 96.7707 24.3866H94.2572V1.37358ZM116.009 24.396C115.906 24.396 115.831 24.452 115.785 24.5547C115.729 24.6482 115.71 24.7696 115.71 24.9098C115.71 25.0499 115.738 25.1621 115.785 25.2649C115.841 25.3583 115.906 25.4144 116.009 25.4237H127.651C127.754 25.4237 127.828 25.3676 127.875 25.2649C127.931 25.1714 127.95 25.0499 127.95 24.9098C127.95 24.7696 127.931 24.6575 127.875 24.5547C127.819 24.4613 127.744 24.4053 127.651 24.396H125.978L115.009 8.6895L121.54 1.38293H125.025C125.128 1.38293 125.203 1.32683 125.25 1.22405C125.306 1.13062 125.324 1.00915 125.324 0.868995C125.324 0.728843 125.306 0.607373 125.25 0.513938C125.194 0.420503 125.119 0.364401 125.025 0.355057H117.429C117.326 0.355057 117.252 0.411159 117.205 0.513938C117.149 0.607373 117.121 0.728843 117.121 0.868995C117.121 1.00915 117.149 1.13062 117.205 1.22405C117.261 1.31749 117.326 1.37359 117.429 1.38293H120.204L110.599 12.184V1.38293H113.112C113.215 1.38293 113.29 1.32683 113.337 1.22405C113.393 1.13062 113.411 1.00915 113.411 0.868995C113.411 0.728843 113.393 0.607373 113.337 0.513938C113.281 0.420503 113.206 0.364401 113.112 0.355057H101.396C101.293 0.355057 101.218 0.411159 101.171 0.513938C101.115 0.607373 101.087 0.728843 101.087 0.868995C101.087 1.00915 101.115 1.13062 101.171 1.22405C101.227 1.31749 101.293 1.37359 101.396 1.38293H103.909V24.396H101.396C101.293 24.396 101.218 24.452 101.171 24.5547C101.115 24.6482 101.087 24.7696 101.087 24.9098C101.087 25.0499 101.115 25.1621 101.171 25.2649C101.227 25.3583 101.293 25.4144 101.396 25.4237H113.112C113.215 25.4237 113.29 25.3676 113.337 25.2649C113.393 25.1714 113.411 25.0499 113.411 24.9098C113.411 24.7696 113.393 24.6575 113.337 24.5547C113.281 24.4613 113.206 24.4053 113.112 24.396H110.599V13.9779L117.756 24.4052H116.009V24.396ZM22.0693 1.37358H24.7416C24.8443 1.37358 24.9191 1.31748 24.9658 1.2147C25.0219 1.12127 25.0406 0.999795 25.0406 0.859643C25.0406 0.71949 25.0219 0.59802 24.9658 0.504585C24.9097 0.41115 24.835 0.355048 24.7416 0.345705H18.4534C18.3506 0.345705 18.2759 0.401807 18.2292 0.504585C18.1731 0.616707 18.1451 0.728825 18.1451 0.85029C18.1451 0.990443 18.1731 1.11191 18.2292 1.20535C18.2852 1.29878 18.3506 1.35488 18.4534 1.36423H21.0603V15.2487L7.70838 0.355057H0.308408C0.20563 0.355057 0.130777 0.411159 0.0840595 0.513938C0.0279986 0.607373 0 0.728843 0 0.868995C0 1.00915 0.0279986 1.13062 0.0840595 1.22405C0.130777 1.31749 0.20563 1.36424 0.308408 1.37358H2.95258V24.3866H0.308408C0.20563 24.3866 0.130777 24.4426 0.0840595 24.5454C0.0279986 24.6388 0 24.7603 0 24.9004C0 25.0406 0.0279986 25.1527 0.0840595 25.2555C0.140121 25.3489 0.20563 25.405 0.308408 25.4144H6.59656C6.69934 25.4144 6.77408 25.3583 6.8208 25.2555C6.87686 25.1621 6.8955 25.0406 6.8955 24.9004C6.8955 24.7603 6.87686 24.6482 6.8208 24.5454C6.76474 24.452 6.69 24.396 6.59656 24.3866H3.95228V6.31621L21.0603 25.405H22.0693V1.37358ZM41.4758 0.0187052V0.93435C40.42 0.93435 39.5604 1.14932 38.8783 1.58846C38.1962 2.02761 37.6543 2.68163 37.2712 3.55057C36.8881 4.42886 36.6172 5.51272 36.4677 6.83015C36.3182 8.13824 36.2435 9.67062 36.2435 11.4272V14.4077C36.2435 16.1549 36.3089 17.6873 36.4677 18.9954C36.6172 20.3035 36.8881 21.3873 37.2712 22.2563C37.6543 23.1159 38.1869 23.7699 38.8783 24.1903C39.5604 24.6108 40.42 24.8257 41.4758 24.8351V25.7507H41.4384C40.205 25.7507 38.9997 25.5825 37.8225 25.2368C36.6358 24.9004 35.5334 24.3865 34.4962 23.7044C33.4591 23.0224 32.5527 22.1721 31.7585 21.1443C30.9643 20.1259 30.357 18.93 29.8992 17.5658C29.4507 16.1923 29.2358 14.66 29.2171 12.9502C29.2265 11.231 29.4507 9.67052 29.8992 8.28768C30.3477 6.90484 30.9643 5.69952 31.7492 4.6624C32.5434 3.63461 33.4497 2.76576 34.4869 2.07434C35.5147 1.39227 36.6171 0.869 37.8037 0.523291C38.9904 0.168238 40.1864 0 41.4104 0H41.4758V0.0187052Z" fill="#575756"/>
</svg>
