<svg width="91" height="32" viewBox="0 0 91 32" fill="none" xmlns="http://www.w3.org/2000/svg">
<path d="M11.5392 16.5772C11.5859 16.4277 11.6607 16.2875 11.7448 16.166C11.9316 15.8764 12.1746 15.6335 12.4455 15.428L12.4736 15.4092L16.4352 12.5968L16.6314 12.4567C16.7248 12.3913 17.0145 12.195 17.0145 12.195C17.6405 11.7465 18.2665 11.2513 18.7337 10.6907C19.8643 9.32658 20.2941 7.63545 19.2102 5.4771C18.416 3.9074 16.865 3.12249 15.4261 2.73941C14.0806 2.37501 12.2774 2.375 12.2774 2.375H0V30.9101H5.25104V2.96364C5.47528 2.96364 5.71821 2.96364 5.98917 2.96364H9.31545C9.31545 2.96364 9.78263 2.96372 10.2872 3.03847C12.4642 3.42155 14.6786 4.82302 15.2486 8.12127C15.6223 10.2796 15.1645 11.7746 14.5572 12.7464C14.3983 12.9986 13.9498 13.5592 12.8753 14.3441C12.0718 14.9327 10.7357 15.9045 9.24072 16.9603C6.48439 18.9037 8.55863 21.5385 8.55863 21.5385L16.594 30.9007H23.1812C23.1812 30.9007 13.7256 20.3986 12.1092 18.5112C11.4551 17.7451 11.3897 17.0817 11.5392 16.5678V16.5772Z" fill="#575756"/>
<path d="M58.181 10.1017C53.6027 9.98027 50.7155 13.8766 50.2951 14.4839V10.2887H44.9319V18.5296C44.6609 19.6228 42.5213 27.2939 35.3735 27.5928C35.3735 27.5928 31.2904 27.9011 28.5341 25.042C25.7871 22.1829 26.0113 18.9501 26.2262 17.0159H37.9803C37.9803 17.0159 38.9894 17.0627 39.8304 16.9038C40.3069 16.8104 40.6713 16.5768 40.8394 16.3526C41.3907 15.6518 41.3346 14.5212 40.9235 13.5028C40.5124 12.4657 38.6157 9.93355 33.5048 10.1017C28.2351 10.2793 25.3199 12.9609 23.4512 15.437C21.4797 18.0438 21.3956 21.7345 21.3956 21.7345C21.3956 21.7345 20.8444 30.7415 31.3184 31.489C31.3184 31.489 34.7101 31.6852 37.5132 29.966C40.1667 28.3496 42.9698 25.4438 44.9319 20.2955V31.1153H50.2951V15.521C52.5468 11.9238 55.3499 12.0453 55.3499 12.0453C60.0216 11.9425 59.6105 18.1558 59.6105 18.1558V31.1153H64.7962V24.145C64.7962 22.0988 64.7962 19.5294 64.684 16.5581C64.4504 9.9149 58.181 10.1017 58.181 10.1017ZM32.0939 10.7559C34.5232 10.7278 36.0369 12.3442 35.9435 14.4652C35.8594 16.4647 33.4861 16.3807 33.4861 16.3807L26.301 16.4554C26.955 12.4937 29.674 10.7839 32.0939 10.7559Z" fill="#575756"/>
<path d="M90.4345 18.3972C90.4345 18.3972 88.5658 27.2642 80.9695 27.6005C80.9695 27.6005 76.9331 27.9089 74.2235 25.0498C71.5046 22.1907 71.7382 18.9579 71.9437 17.0238H83.5483C83.5483 17.0238 84.5481 17.0705 85.3703 16.9116C85.8468 16.8182 86.1926 16.5847 86.3701 16.3604C86.912 15.6596 86.8559 14.529 86.4542 13.5106C86.0431 12.4735 84.1744 9.94137 79.1289 10.1096C73.9245 10.2871 71.0467 12.9687 69.1967 15.4448C67.2533 18.0516 67.1692 21.7423 67.1692 21.7423C67.1692 21.7423 66.6179 30.7493 76.9612 31.4968C76.9612 31.4968 80.2688 31.6276 83.0812 29.9738C86.015 28.2453 89.1731 25.0872 90.939 18.5561L90.4345 18.3972ZM77.7273 10.7543C80.1193 10.7263 81.6142 12.3427 81.5301 14.4637C81.446 16.4632 79.1008 16.3884 79.1008 16.3884L71.9998 16.4632C72.6445 12.5015 75.3354 10.7917 77.7273 10.7543Z" fill="#575756"/>
<path d="M76.9709 7.71909C78.0641 6.63525 81.2969 4.21522 82.3154 3.57052C83.5113 2.8137 83.8383 2.14095 83.8103 1.44953C83.7916 1.04776 83.6328 0.758176 83.502 0.580649C83.4179 0.459184 83.2777 0.337709 83.2777 0.337709C83.1096 0.188213 82.8386 0.0107007 82.4648 0.00135718C81.8201 -0.0266733 81.1474 0.375079 80.5027 1.61776C79.9234 2.72964 77.6716 6.2147 76.6719 7.39198L76.8214 7.56021L76.9709 7.71909Z" fill="#575756"/>
</svg>
