<svg width="135" height="32" viewBox="0 0 135 32" fill="none" xmlns="http://www.w3.org/2000/svg">
<path fill-rule="evenodd" clip-rule="evenodd" d="M81.9322 0.03125V17.1299C81.9322 17.3635 81.736 17.5597 81.493 17.5597C81.3062 17.5597 81.1473 17.4381 81.0819 17.2793L74.42 0.03125H69.9258V31.4628H74.42V14.1493C74.42 14.1493 74.42 14.1307 74.42 14.112C74.42 13.869 74.6162 13.6727 74.8591 13.6727C75.0554 13.6727 75.2142 13.8036 75.2703 13.9718L81.9229 31.4628H86.4171V0.03125H81.9229H81.9322Z" fill="#575756"/>
<path fill-rule="evenodd" clip-rule="evenodd" d="M100.105 23.9693C100.105 25.0438 100.404 25.8287 101.002 26.3426C101.6 26.8471 102.31 27.1087 103.123 27.1087C103.936 27.1087 104.646 26.8565 105.244 26.3426C105.842 25.838 106.141 25.0438 106.141 23.9693V7.60881C106.141 6.53431 105.842 5.74953 105.244 5.23564C104.646 4.73109 103.936 4.46941 103.123 4.46941C102.31 4.46941 101.6 4.72175 101.002 5.23564C100.404 5.74019 100.105 6.53431 100.105 7.60881V23.9693ZM95.6484 7.59946C95.6484 6.35677 95.8633 5.25432 96.3025 4.29194C96.7416 3.3389 97.3209 2.53531 98.0497 1.89995C98.7505 1.29262 99.5447 0.825456 100.432 0.507777C101.32 0.190099 102.217 0.03125 103.123 0.03125C104.03 0.03125 104.927 0.190099 105.814 0.507777C106.702 0.825456 107.515 1.29262 108.243 1.89995C108.944 2.53531 109.514 3.3389 109.953 4.29194C110.392 5.24498 110.607 6.35677 110.607 7.59946V23.9599C110.607 25.268 110.392 26.38 109.953 27.3143C109.514 28.2393 108.944 29.0148 108.243 29.6221C107.515 30.2575 106.702 30.7433 105.814 31.061C104.927 31.3786 104.03 31.5375 103.123 31.5375C102.217 31.5375 101.32 31.3786 100.432 31.061C99.5447 30.7433 98.7505 30.2668 98.0497 29.6221C97.3209 29.0148 96.7416 28.2487 96.3025 27.3143C95.8633 26.3893 95.6484 25.268 95.6484 23.9599V7.59946Z" fill="#575756"/>
<path fill-rule="evenodd" clip-rule="evenodd" d="M60.4973 9.18473H56.1432V8.18491C56.1432 7.17581 55.9096 6.29759 55.4425 5.55945C54.9753 4.82131 54.1811 4.44751 53.0786 4.44751C52.4806 4.44751 51.9947 4.55963 51.6303 4.79322C51.2566 5.02681 50.9576 5.3165 50.7334 5.66221C50.5091 6.03595 50.3503 6.46575 50.2662 6.94227C50.1821 7.41879 50.1354 7.92331 50.1354 8.4372C50.1354 9.04453 50.1541 9.54909 50.2008 9.9602C50.2475 10.362 50.3503 10.7264 50.5185 11.0441C50.6866 11.3618 50.9389 11.6421 51.2659 11.8663C51.593 12.0999 52.0414 12.3335 52.6114 12.5577L55.9377 13.9031C56.9001 14.2769 57.6849 14.7254 58.2829 15.2299C58.8809 15.7345 59.3481 16.3231 59.6938 16.9865C60.0021 17.6779 60.217 18.4722 60.3291 19.3505C60.4413 20.2381 60.4973 21.2378 60.4973 22.3684C60.4973 23.6671 60.3665 24.8818 60.1142 25.9937C59.8619 27.1055 59.4509 28.0586 58.8809 28.8341C58.2829 29.647 57.4981 30.2823 56.5357 30.7401C55.564 31.2073 54.3867 31.4315 52.9945 31.4315C51.9387 31.4315 50.9576 31.2447 50.0513 30.8709C49.145 30.4972 48.3601 29.9739 47.7061 29.3105C47.052 28.6472 46.5288 27.8717 46.1457 26.984C45.7626 26.1057 45.5664 25.134 45.5664 24.0969V22.4524H49.9205V23.8446C49.9205 24.6575 50.1541 25.3863 50.6213 26.0403C51.0884 26.6944 51.8826 27.0121 52.9852 27.0121C53.7233 27.0121 54.3026 26.9 54.7137 26.6851C55.1248 26.4702 55.4425 26.1618 55.6761 25.7507C55.9003 25.349 56.0405 24.863 56.0779 24.2931C56.1246 23.7325 56.1432 23.0972 56.1432 22.4058C56.1432 21.5929 56.1152 20.9295 56.0591 20.4063C56.0031 19.883 55.891 19.4625 55.7134 19.1448C55.5172 18.8271 55.2463 18.5655 54.9286 18.36C54.6016 18.1544 54.1624 17.9396 53.6298 17.706L50.5185 16.4072C48.6404 15.6224 47.3884 14.5945 46.7437 13.3051C46.1083 12.0157 45.7813 10.4087 45.7813 8.46526C45.7813 7.30667 45.9402 6.20411 46.2485 5.16698C46.5568 4.12051 47.0333 3.23287 47.6594 2.47605C48.2573 1.72857 49.0142 1.12131 49.9392 0.672818C50.8642 0.224331 51.9667 0 53.2468 0C54.3306 0 55.3117 0.20558 56.2086 0.60735C57.1056 1.00912 57.8811 1.55102 58.5352 2.2144C59.8433 3.60659 60.4973 5.19508 60.4973 6.98903V9.15667V9.18473Z" fill="#575756"/>
<path fill-rule="evenodd" clip-rule="evenodd" d="M0 0.03125V31.4628H13.3612V27.2022H6.8114C5.40988 27.2022 4.27932 26.0062 4.28866 24.5392V0.0406026H0.00933836L0 0.03125Z" fill="#575756"/>
<path fill-rule="evenodd" clip-rule="evenodd" d="M36.0101 0.03125H22.7891V31.4628H36.1503V27.2022H29.8901C28.4325 27.2022 27.2459 26.0062 27.2459 24.5392V17.5971H34.9917V13.5606H27.2459V4.31064H36.0194V0.0499552L36.0101 0.03125Z" fill="#575756"/>
<path fill-rule="evenodd" clip-rule="evenodd" d="M129.708 0.03125L127.195 8.40299C126.999 8.98228 126.466 9.41216 125.831 9.41216C125.195 9.41216 124.672 8.99164 124.466 8.42169L121.888 0.03125H117.066L123.513 18.0829V31.4628H127.896V18.223L134.343 0.0406026H129.689L129.708 0.03125Z" fill="#575756"/>
</svg>
