<svg width="283" height="30" viewBox="0 0 283 30" fill="none" xmlns="http://www.w3.org/2000/svg">
<path d="M274.364 3.25935C272.803 3.25935 271.056 3.57699 269.355 4.38053V20.0964C271.037 20.8905 272.803 21.2175 274.364 21.2175C275.924 21.2175 277.671 20.8999 279.372 20.0964V4.37117C277.69 3.57698 275.924 3.25 274.364 3.25V3.25935ZM277.933 19.218C276.756 19.6665 275.541 19.8628 274.364 19.8628C273.186 19.8628 271.972 19.6758 270.794 19.218V5.23082C271.972 4.78233 273.186 4.58617 274.364 4.58617C275.541 4.58617 276.756 4.77299 277.933 5.23082V19.218Z" fill="#575756"/>
<path d="M274.364 0C271.56 0 268.533 0.794193 265.852 2.68158V26.8064C268.533 28.6845 271.551 29.488 274.364 29.488C277.176 29.488 280.194 28.6938 282.875 26.8064V2.68158C280.194 0.803536 277.176 0 274.364 0ZM281.446 26.1711C279.241 27.5073 276.765 28.1426 274.373 28.1426C271.981 28.1426 269.505 27.4979 267.3 26.1711V3.31699C269.505 1.98087 271.981 1.34541 274.373 1.34541C276.765 1.34541 279.241 1.99021 281.446 3.31699V26.1618V26.1711Z" fill="#575756"/>
<path d="M275.072 12.2656H273.633V16.4047H275.072V12.2656Z" fill="#575756"/>
<path d="M122.85 0.484375H107.779L105.648 29.1689H124.989L122.859 0.484375H122.85ZM110.591 27.8795L111.18 19.9188H119.43L120.019 27.8795H110.582H110.591ZM111.283 18.6481L112.301 4.94124H118.318L119.337 18.6481H111.273H111.283ZM119.664 3.67043H110.965L109.18 27.8888H107.162L109.106 1.76443H121.495L123.438 27.8888H121.42L119.636 3.67043H119.654H119.664Z" fill="#575756"/>
<path d="M204.811 18.2651C206.185 16.004 206.941 13.3223 206.941 10.5846C206.941 6.98739 205.671 3.44626 202.989 0.484375H188.871V29.1689H207.605L204.802 18.2651H204.811ZM193.814 27.8795V18.3211H199.831L202.344 27.8795H193.823H193.814ZM193.814 17.0504V4.94124H200.251C201.429 6.66044 201.999 8.57577 201.999 10.5753C201.999 12.9672 201.158 15.2097 199.607 17.041H193.804L193.814 17.0504ZM201.074 17.5269C202.662 15.4246 203.428 13.098 203.428 10.5753C203.428 8.05254 202.755 5.92231 201.102 3.66119H192.375V27.8795H190.31V1.75508H202.223C204.073 3.88539 205.503 6.95001 205.503 10.5753C205.503 12.9018 204.858 15.6769 203.269 18.0034L205.82 27.8795H203.765L201.074 17.5269Z" fill="#575756"/>
<path d="M116.037 12.2656H114.598V16.4047H116.037V12.2656Z" fill="#575756"/>
<path d="M101.752 0.484375H93.7255L90.8664 4.31519L88.0073 0.484375H79.9439L78.3555 29.1689H87.3159L87.4934 20.8625L90.8571 23.5534L94.2207 20.8625L94.3983 29.1689H103.359L101.77 0.484375H101.752ZM95.7904 27.8795L95.5475 18.1903L90.8664 21.8529L86.1853 18.1903L85.9424 27.8795H83.4757L84.5969 4.94124H85.4846L90.8757 11.79L96.267 4.94124H97.1546L98.2758 27.8795H95.7998H95.7904ZM98.472 3.67043H95.5382L90.8757 9.65029L86.2134 3.67043H83.2515L82.0648 27.8888H79.8691L81.308 1.76443H87.3066L90.8664 6.44553L94.4263 1.76443H100.425L101.864 27.8888H99.668L98.4814 3.67043H98.472Z" fill="#575756"/>
<path d="M225.329 15.7719L226.862 0.476562H209.969V29.1611H226.507L227.077 15.7812H225.329V15.7719ZM225.133 27.881H211.398V1.75662H225.255L225.068 3.67197H213.473V25.9842H225.208L225.124 27.8997L225.133 27.881ZM225.273 24.6948H214.911V4.94278H224.946L224.208 12.2774H217.294V13.5481H224.077L223.853 15.7812H217.285V17.0519H225.572L225.255 24.6948H225.273Z" fill="#575756"/>
<path d="M186.094 0.484375H167.07V13.5466H172.265L171.817 29.1689H181.347L180.899 13.5466H185.673L186.084 0.484375H186.094ZM175.872 27.8795H173.293L173.742 12.2572H168.519V4.93189H175.881V27.8701L175.872 27.8795ZM184.29 12.2665H179.45L179.899 27.8888H177.32V4.94124H184.543L184.3 12.2759L184.29 12.2665ZM184.571 3.67043H168.509V1.75508H184.636L184.571 3.67043Z" fill="#575756"/>
<path d="M162.006 13.5466H164.65L163.819 0.484375H150.878C148.645 2.71747 147.692 5.49243 147.692 8.12729C147.692 10.7622 148.551 13.2289 150.85 15.7703H148.14L147.57 29.1502H163.342C164.267 27.6552 165.351 24.9737 165.351 22.1987C165.351 18.4332 163.978 16.0786 162.006 13.5279V13.5466ZM149.523 17.0504H153.737L151.7 14.6024C149.878 12.3693 149.121 10.5846 149.149 8.13664C149.177 6.1932 149.757 3.80131 151.663 1.76443H162.492L162.613 3.67978H152.747C151.625 5.17474 151.214 6.67906 151.214 8.13664C151.214 10.4632 152.167 11.9021 154.279 13.8082L157.755 16.9663C159.82 18.8444 160.436 20.5075 160.436 22.2174C160.436 23.4881 160.175 24.3196 160.053 24.7026H149.196L149.532 17.0597H149.514L149.523 17.0504ZM162.417 27.8795H149.037L149.121 25.9641H161.081C161.492 25.0111 161.847 23.8338 161.847 22.1987C161.847 20.0683 161.081 18.0221 158.596 15.761L155.054 12.5748C153.401 11.0798 152.634 9.8932 152.634 8.11794C152.634 6.99672 152.952 5.88492 153.588 4.93189H162.688L163.155 12.2665H158.885L159.679 13.1262C162.959 16.6673 163.921 19.1433 163.921 22.208C163.921 24.8242 162.968 26.889 162.426 27.8795H162.417Z" fill="#575756"/>
<path d="M256.873 15.7719L257.378 0.476562H248.23V29.1611H263.115L263.685 15.7812H256.864L256.873 15.7719ZM261.751 27.881H249.669V1.75662H251.734V25.975H261.816L261.732 27.8904L261.751 27.881ZM261.881 24.6948H253.183V1.75662H255.92L255.416 17.0519H262.199L261.881 24.6948Z" fill="#575756"/>
<path d="M143.496 13.5466H144.991L144.131 0.484375H127.883V29.1689H145.028L143.496 13.5466ZM129.312 27.8795V1.75508H142.786L142.907 3.67043H131.377V25.9827H143.234L143.421 27.8982H129.303L129.312 27.8795ZM135.208 12.2665V13.5372H142.02L142.244 15.7703H135.208V17.041H142.365L143.113 24.6841H132.816V4.93189H142.991L143.458 12.2665H135.199H135.208Z" fill="#575756"/>
<path d="M245.24 15.7719H238.736L239.241 0.476562H230.094V29.1611H245.81L245.24 15.7812V15.7719ZM235.046 1.75662H237.783L237.279 17.0519H243.941L244.258 24.6948H235.055V1.75662H235.046ZM231.542 27.881V1.75662H233.607V25.975H244.305L244.389 27.8904H231.542V27.881Z" fill="#575756"/>
<path d="M26.879 0.484375H15.0781L15.6014 12.2665H18.1335V17.0504H15.6014L15.0781 29.1595H26.3183L25.7951 17.0504H23.3097V12.2665H25.8325L26.879 0.484375Z" fill="#575756"/>
<path d="M30.1992 12.2665H34.4598L30.1992 17.0504L29.7227 29.1595H40.4396L39.8977 17.0504H36.1883L40.4396 12.2665L40.9161 0.484375H30.1992V12.2665Z" fill="#575756"/>
<path d="M44.3147 12.2665H48.5659L44.3147 17.0504L43.8008 29.1595H54.5458L54.0225 17.0504H50.3038L54.5551 12.2665L55.6016 0.484375H44.3147V12.2665Z" fill="#575756"/>
<path d="M0 0.485915V29.1704H6.0826L5.82098 21.4527H9.73591V21.434H10.2591C11.8756 18.7711 12.7725 15.1365 12.7725 11.9036C12.7725 8.32508 11.8756 3.97103 8.72682 0.476562H0.00932411L0 0.485915ZM7.40939 16.4165H4.99875V12.2774H7.40939V16.4165Z" fill="#575756"/>
<path d="M72.7756 29.1611L70.5705 0.476562H59.6386L57.4336 29.1611H63.8993L63.6377 21.4433H66.5809L66.3192 29.1611H72.785H72.7756ZM65.1139 16.4165H63.918V12.2774H66.3286V16.4165H65.1233H65.1139Z" fill="#575756"/>
<path d="M198.119 10.6797H196.68V14.8189H198.119V10.6797Z" fill="#575756"/>
</svg>
