<svg width="151" height="54" viewBox="0 0 151 54" fill="none" xmlns="http://www.w3.org/2000/svg">
<path d="M89.18 46.1425C88.7689 46.3948 88.4699 46.5911 88.1616 46.7873C85.9939 48.1795 83.8262 49.5716 81.6398 50.9451C81.0886 51.2908 80.4999 51.5525 79.8271 51.6739C79.36 51.758 78.9021 51.9729 78.4163 51.8888C77.4352 51.73 76.4542 51.5431 75.8655 50.6087C75.5946 50.179 75.3703 49.7398 75.3703 49.2072C75.3703 48.8428 75.2488 48.4878 75.1648 48.0112C74.8564 48.2074 74.6695 48.3383 74.464 48.4411C72.6981 49.3474 70.9134 50.2163 69.1755 51.16C68.0543 51.7673 66.8584 51.758 65.7091 51.5805C64.7654 51.4404 63.8685 50.9638 63.1584 50.263C62.822 49.9267 62.6818 49.525 62.6538 49.0204C62.6164 48.2636 62.8687 47.6094 63.1303 46.9367C63.4106 46.2173 63.7097 45.4886 64.0274 44.7037C63.8872 44.7224 63.7937 44.7036 63.7377 44.7504C61.7382 46.0398 59.6359 47.1329 57.4776 48.1233C56.7021 48.4784 55.8518 48.7401 55.0015 48.5626C54.17 48.3944 53.3384 48.1515 52.6096 47.4974C52.2452 47.8898 51.8995 48.2729 51.5351 48.656C50.5353 49.7118 49.5823 50.8237 48.5171 51.8047C47.6856 52.5709 46.6484 53.0661 45.4524 52.982C44.462 52.9166 43.5838 52.5242 42.7802 51.9449C42.4065 51.674 42.0514 51.3655 41.7244 51.0479C41.0984 50.4405 41.0049 49.8239 41.36 49.0204C42.0608 47.4507 42.855 45.9277 43.7706 44.4701C44.2658 43.6853 44.7611 42.9098 45.2563 42.1249C45.275 42.0969 45.2563 42.0408 45.2469 41.9007C45.0787 41.9848 44.9199 42.0315 44.7984 42.1155C43.9108 42.7229 43.0231 43.3302 42.1355 43.9562C41.687 44.2739 41.2572 44.6196 40.8088 44.9373C40.5284 45.1429 40.2388 45.3484 39.9211 45.4885C39.7436 45.5726 39.51 45.5258 39.2951 45.5352C39.1456 44.9933 39.4539 44.713 39.7529 44.4608C40.4817 43.8534 41.1918 43.2087 41.9767 42.6948C43.4062 41.7605 44.7237 40.714 45.9944 39.5741C46.4709 39.1443 46.9288 38.7051 47.3586 38.238C48.8722 36.5935 50.1802 34.7996 51.3388 32.8842C51.8714 32.0059 52.5442 31.2023 53.1702 30.3801C53.8896 29.4364 54.6185 28.4927 55.3659 27.5583C55.7771 27.0444 56.1975 26.5305 56.646 26.0447C57.9354 24.6525 59.2154 23.251 60.5609 21.9149C61.1962 21.2796 61.9624 20.7843 62.6631 20.2237C63.0275 19.934 63.3826 19.6445 63.747 19.3642C65.4475 18.0748 67.1294 16.748 68.8672 15.5053C69.9231 14.7485 71.007 14.0196 72.3244 13.786C72.3805 13.7767 72.4178 13.7112 72.4738 13.6645C72.3524 13.4123 72.1375 13.4964 71.9506 13.4964C70.166 13.4964 68.3721 13.5151 66.5875 13.5245C66.5034 13.5245 66.4099 13.5338 66.3258 13.5245C65.6251 13.3656 64.9243 13.2068 64.2329 13.0479C63.7844 12.9452 63.3359 12.8331 62.8967 12.7116C62.3081 12.5528 61.7194 12.3752 61.1308 12.2164C60.6263 12.0855 60.1217 11.9828 59.6172 11.8519C58.8136 11.6464 58.0101 11.4221 57.2159 11.2072C56.6647 11.0577 56.1227 10.9082 55.5715 10.7587C54.9641 10.5905 54.3661 10.4037 53.7495 10.2542C53.2262 10.1234 52.6843 10.0393 52.1517 9.92713C51.7499 9.8337 51.3482 9.73096 50.9464 9.61884C50.0588 9.37591 49.1805 9.10492 48.2929 8.89002C47.3679 8.65643 46.4242 8.47899 45.4991 8.27343C45.1161 8.18934 44.733 8.07715 44.3499 7.97437C43.4249 7.7221 42.5093 7.37636 41.5656 7.24555C40.7901 7.14277 40.0613 6.82509 39.2391 6.8905C38.1832 6.97459 37.1181 6.85317 36.0622 6.93726C35.0999 7.01201 34.1562 7.18951 33.1844 7.26426C32.2781 7.33901 31.3812 7.58197 30.4842 7.76884C30.0731 7.85293 29.6713 7.95567 29.2695 8.07714C26.8215 8.79659 24.4483 9.69362 22.346 11.1699C21.2528 11.9361 20.3185 12.8797 19.6551 14.0476C19.0104 15.1782 18.3563 16.2995 17.8237 17.4767C17.1043 19.0932 16.6745 20.803 16.88 22.597C16.9267 22.9801 17.0949 23.3537 17.2631 23.7088C17.4967 24.204 17.4313 24.6339 17.1604 25.0824C16.7493 25.7551 16.0671 26.026 15.3757 26.2129C14.8712 26.353 14.2078 25.8392 14.0863 25.3066C13.806 24.0919 13.7686 22.8585 13.9742 21.6252C14.0303 21.2982 14.0396 20.9619 14.105 20.6442C14.2452 19.9902 14.376 19.3173 14.5816 18.682C14.8432 17.8784 15.1235 17.0656 15.4972 16.2995C16.0858 15.0848 16.8614 14.0009 17.7864 13.0012C19.8046 10.8335 22.2152 9.25442 24.9061 8.07714C26.0927 7.56325 27.298 7.0774 28.522 6.69432C29.4377 6.40467 30.4001 6.27384 31.3438 6.08697C32.1754 5.91879 33.0163 5.75992 33.8478 5.59174C33.96 5.57305 34.0627 5.55443 34.1748 5.54509C35.7445 5.49837 37.3049 5.41426 38.8746 5.41426C40.3042 5.41426 41.7337 5.49838 43.1726 5.55444C43.3408 5.55444 43.5183 5.61984 43.6865 5.66656C43.8173 5.70393 43.9388 5.76934 44.0603 5.78803C44.9479 5.89081 45.8449 5.97485 46.7325 6.08697C47.4052 6.17106 48.078 6.30185 48.7507 6.41397C49.1618 6.47937 49.573 6.55412 49.9747 6.64756C50.6288 6.79705 51.2828 6.9746 51.9275 7.13344C51.9742 7.14278 52.0116 7.1615 52.049 7.17085C52.6937 7.27362 53.3384 7.35768 53.9831 7.47914C54.5437 7.58192 55.0949 7.70339 55.6462 7.8342C56.2255 7.96501 56.7862 8.14261 57.3655 8.26408C57.9821 8.38554 58.6175 8.46024 59.2342 8.56302C59.3837 8.59105 59.5238 8.64713 59.6733 8.70319C59.7761 8.74057 59.8694 8.81533 59.9722 8.83402C60.6169 8.94614 61.2617 9.03954 61.9064 9.15166C62.4483 9.2451 62.9809 9.35719 63.5134 9.46931C64.4104 9.65618 65.3354 9.7777 66.2137 9.9926C67.9516 10.4131 69.6801 10.1327 71.4086 10.2168C71.773 10.2355 72.1375 10.1047 72.5019 10.0392C72.586 10.0206 72.6701 9.97389 72.7542 9.96454C73.5764 9.86176 74.408 9.78706 75.2302 9.65625C75.903 9.54413 76.557 9.37586 77.2204 9.21702C77.7903 9.08621 78.3789 8.99283 78.9302 8.80596C79.6964 8.55368 80.4532 8.24529 81.1914 7.92761C82.677 7.29225 84.0878 6.51678 85.3585 5.51703C86.5825 4.54531 87.8532 3.62033 88.7315 2.27486C89.0305 1.81703 89.3575 1.33119 89.7873 1.01351C90.4788 0.499621 91.1889 -0.0984264 92.1606 0.0136956C92.3849 0.0417261 92.6371 0.116483 92.8146 0.256636C93.123 0.499567 93.4313 0.770542 93.6649 1.08822C94.1041 1.6862 94.0199 2.3496 93.7209 2.96627C93.1042 4.28371 92.1979 5.38624 91.1328 6.35797C89.2921 8.0398 87.2272 9.37594 84.9474 10.357C83.8075 10.8522 82.6116 11.2259 81.425 11.6277C80.584 11.908 79.7245 12.1696 78.8649 12.3938C78.3136 12.534 77.7436 12.5995 77.183 12.7116C76.4729 12.8611 75.7814 13.0293 75.0713 13.1694C74.7069 13.2348 74.3239 13.2442 73.9595 13.2815C73.7072 13.3096 73.4549 13.3282 73.0999 13.3656C73.2494 13.5431 73.3054 13.6739 73.3801 13.6926C73.9314 13.7954 74.2491 14.2065 74.5761 14.5803C74.8658 14.9167 75.1648 14.9913 75.5666 14.8325C75.8095 14.739 76.0711 14.7017 76.3233 14.655C76.8559 14.5522 77.3978 14.4681 77.9397 14.3653C78.5844 14.2345 79.2199 14.0757 79.8646 13.9262C79.9113 13.9168 79.9487 13.8981 79.9954 13.8888C80.883 13.7766 81.78 13.5618 82.6676 13.5618C83.9944 13.5618 85.3025 13.375 86.6199 13.2909C87.9373 13.2068 89.2641 13.2161 90.5722 13.459C91.1328 13.5618 91.7215 13.4963 92.2915 13.5431C92.6372 13.5711 92.9829 13.6552 93.3286 13.7113C93.4594 13.7393 93.5808 13.786 93.7116 13.7954C95.3093 13.8888 96.8043 14.3746 98.3086 14.8418C99.7008 15.2716 101.028 15.851 102.298 16.5424C104.26 17.6262 105.886 19.1118 107.176 20.9244C107.998 22.0737 108.587 23.3725 108.979 24.7273C109.184 25.4281 109.418 26.1568 109.306 26.923C109.278 27.0912 109.325 27.278 109.362 27.4462C109.493 28.0161 109.493 28.5768 109.362 29.1468C109.297 29.4177 109.306 29.7168 109.297 29.9971C109.278 30.5483 109.297 31.0809 109.091 31.6228C108.904 32.0993 108.876 32.6412 108.783 33.1644C108.586 34.2202 108.213 35.2293 107.802 36.2197C107.063 38.0044 106.101 39.6582 104.886 41.1438C103.588 42.7228 102.27 44.3019 100.644 45.5819C99.7755 46.264 99 47.0582 98.1497 47.7589C97.2341 48.5158 96.2905 49.254 95.3187 49.936C94.4031 50.5807 93.422 51.132 92.4783 51.7393C91.6654 52.2532 90.7684 52.356 89.8808 52.1505C88.9371 51.9262 88.2083 51.3095 87.8439 50.4126C87.7038 50.0669 87.7691 49.5623 87.9093 49.1979C88.255 48.3009 88.7035 47.4413 89.1053 46.5631C89.1427 46.479 89.1333 46.3668 89.1706 46.1332L89.18 46.1425ZM97.0566 45.1802C97.3369 44.9467 97.6079 44.7317 97.8508 44.4981C98.1872 44.1804 98.4955 43.8347 98.8225 43.5077C100.42 41.9287 101.953 40.2842 103.167 38.3688C104.653 36.0236 105.849 33.5942 106.017 30.7538C106.017 30.6043 106.092 30.4548 106.129 30.3054C106.372 29.4364 106.316 28.5581 106.176 27.6798C106.11 27.2687 106.054 26.8576 105.998 26.4465C105.98 26.269 105.998 26.0914 105.961 25.9232C105.802 25.3065 105.653 24.6899 105.456 24.0919C105.008 22.7184 104.373 21.457 103.419 20.3545C102.289 19.0371 100.887 18.1214 99.327 17.4019C97.8321 16.7199 96.2624 16.2247 94.6833 15.7762C94.2162 15.6454 93.749 15.5146 93.2725 15.4679C92.4035 15.3838 91.5626 15.0474 90.6749 15.1222C90.5535 15.1315 90.4228 15.0381 90.3013 15.0007C90.1331 14.9633 89.9555 14.9073 89.7873 14.9073C88.2176 14.8699 86.6572 14.8139 85.0875 14.8139C84.0971 14.8139 83.0974 14.8045 82.1164 14.926C81.4063 15.0101 80.7055 15.2062 79.9767 15.2062C79.8926 15.2062 79.8178 15.2716 79.7337 15.2903C79.4815 15.3464 79.2292 15.4118 78.977 15.4585C78.8088 15.4959 78.6312 15.4959 78.4537 15.5332C77.837 15.6827 77.2297 15.8603 76.613 16.0098C75.688 16.2247 74.8938 16.5797 74.4546 17.5328C74.2117 18.0653 73.81 18.5326 73.4269 18.981C72.642 19.906 71.8198 20.7937 71.0069 21.7C69.7269 23.1296 68.4842 24.5965 67.1387 25.97C65.1205 28.0162 63.0463 29.9877 60.9627 31.9685C60.3086 32.5852 59.5799 33.1271 58.8697 33.6877C58.0662 34.3324 57.244 34.9677 56.4311 35.6124C55.4968 36.3505 54.5624 37.0794 53.628 37.8176C53.1982 38.1539 52.759 38.4996 52.3292 38.836C51.7032 39.3218 51.0679 39.7983 50.4605 40.3122C50.1055 40.6112 49.7505 40.9289 49.4982 41.312C48.0313 43.5358 46.6017 45.7875 45.1534 48.0299C44.8638 48.4878 44.6676 48.9643 44.7517 49.5249C44.8451 50.1229 45.1535 50.5527 45.686 50.8797C46.1625 51.1787 46.555 51.0759 46.9848 50.8236C47.0969 50.7582 47.2184 50.6929 47.3211 50.6181C48.5732 49.7678 49.5262 48.5905 50.582 47.5347C50.7502 47.3665 50.8063 47.0676 50.8343 46.8153C50.9277 46.152 50.6007 45.5726 50.3952 44.9839C50.1149 44.1991 50.2456 43.5077 50.8156 42.9097C51.2828 42.4145 51.7967 41.9754 52.4134 41.639C53.0767 41.284 53.6747 41.3307 54.2634 41.7418C54.7679 42.0968 54.9455 42.6855 54.7773 43.3769C54.7306 43.5638 54.7398 43.7693 54.7025 43.9655C54.6464 44.2832 54.6091 44.6196 54.5063 44.9186C54.1606 45.8623 54.4035 46.4976 55.3005 47.0115C55.6742 47.2264 56.0574 47.3105 56.4405 47.189C57.0384 46.9928 57.627 46.7405 58.1969 46.4789C59.9255 45.7034 61.3551 44.4794 62.8501 43.3582C64.1021 42.4238 65.3634 41.4895 66.6248 40.5645C67.419 39.9759 68.2226 39.3872 69.0355 38.8266C69.7923 38.3034 70.5771 37.8175 71.362 37.3317C71.4835 37.2569 71.689 37.2195 71.8011 37.2662C72.3337 37.4998 72.9224 37.64 73.3428 38.1165C73.8847 38.7332 73.9128 39.1349 73.3428 39.7142C71.6049 41.4988 69.7082 43.134 68.2039 45.1428C67.6713 45.8436 67.0639 46.4883 66.5033 47.1611C66.3632 47.3292 66.2417 47.5161 66.1389 47.7123C65.9147 48.1421 65.9054 48.6279 66.0829 49.0577C66.438 49.908 67.4377 50.2631 68.3067 49.9173C68.7271 49.7492 69.1569 49.5622 69.5774 49.3941C70.8574 48.8988 72.0534 48.2355 73.1373 47.4132C74.5855 46.32 75.8655 45.0214 77.0335 43.6479C78.5284 41.882 80.2757 40.4057 81.9668 38.8547C82.2845 38.565 82.733 38.294 83.2282 38.4435C83.6954 38.593 84.1065 38.8546 84.4055 39.2564C84.6951 39.6395 84.8353 40.06 84.5457 40.4804C84.3027 40.8355 83.9943 41.1531 83.6767 41.4521C83.331 41.7884 82.9199 42.0594 82.5835 42.4051C81.7894 43.2274 80.9858 44.0497 80.257 44.9373C79.5095 45.853 78.8555 46.8527 78.1454 47.8057C77.8184 48.2355 77.8183 48.7214 77.8744 49.1979C77.9398 49.7491 78.3135 50.1509 78.762 50.4592C78.8648 50.534 79.0797 50.534 79.2012 50.4779C79.8833 50.1883 80.5933 49.936 81.238 49.5623C83.0226 48.5158 84.7793 47.4133 86.5452 46.3295C87.9187 45.4886 89.2735 44.6196 90.6376 43.7787C91.7215 43.106 92.8147 42.4425 93.9266 41.8071C94.8235 41.2932 95.7205 41.2465 96.5707 41.9473C96.9818 42.2837 97.2715 42.6855 97.2341 43.2461C97.1967 43.8721 97.122 44.4981 97.066 45.1988L97.0566 45.1802ZM72.9129 17.2992C72.6607 17.3459 72.4832 17.3459 72.3244 17.4113C71.4087 17.7757 70.4837 18.1214 69.5867 18.5232C67.6806 19.3828 65.9894 20.5788 64.5131 22.0364C62.8687 23.6621 61.1682 25.2319 59.7293 27.0632C58.4305 28.7263 57.0104 30.296 55.7023 31.9592C54.5157 33.4635 53.4224 35.0331 52.2825 36.5748C52.2265 36.6495 52.2078 36.7617 52.1704 36.8552C52.5628 36.7057 52.8712 36.4907 53.1795 36.2572C54.0859 35.5938 55.0015 34.9491 55.8891 34.2576C56.5805 33.7157 57.2346 33.1271 57.9073 32.5572C58.9818 31.6415 60.1031 30.7818 61.1122 29.8008C63.4668 27.5116 65.8026 25.1945 68.0824 22.8306C69.7175 21.13 71.2592 19.3454 72.8289 17.5889C72.8663 17.5515 72.8663 17.4673 72.9037 17.2992H72.9129ZM95.2626 45.1895C95.2626 45.1895 95.2813 45.1895 95.2907 45.1895C95.2907 44.769 95.3094 44.3486 95.2907 43.9375C95.272 43.6478 95.3654 43.218 95.0103 43.134C94.7674 43.0779 94.4124 43.2647 94.1974 43.4422C92.9921 44.4794 91.871 45.6006 91.2356 47.0956C91.1142 47.3759 91.0207 47.6749 90.974 47.9739C90.8619 48.7588 91.4879 49.3287 92.2353 49.0858C93.1417 48.7868 93.9733 48.329 94.618 47.6189C95.0291 47.161 95.3748 46.6565 95.272 45.9744C95.2346 45.7128 95.272 45.4512 95.272 45.1802L95.2626 45.1895Z" fill="#575756"/>
<path d="M118.884 44.6908C119.127 44.6908 119.258 44.7282 119.361 44.6908C121.015 44.0648 122.528 43.1959 123.939 42.1214C124.864 41.4113 125.855 40.7946 126.808 40.1218C128.125 39.1968 129.424 38.2532 130.751 37.3468C131.199 37.0385 131.713 36.8142 132.208 36.5806C132.825 36.291 133.544 36.6927 133.619 37.3748C133.675 37.898 133.675 38.3932 133.311 38.8791C132.741 39.6266 132.255 40.4488 131.732 41.243C131.461 41.6635 131.573 41.8971 132.068 41.9531C132.545 42.0092 132.974 41.9438 133.348 41.5887C133.993 40.9814 134.675 40.4208 135.329 39.8321C136.403 38.8511 137.459 37.8513 138.562 36.8983C139.178 36.3657 139.861 35.9079 140.533 35.4501C141.159 35.0296 141.832 35.3566 141.953 36.1041C142.075 36.8889 141.869 37.5617 141.402 38.2064C140.589 39.3556 139.552 40.2807 138.58 41.2711C137.627 42.2521 136.646 43.2145 135.675 44.1675C135.058 44.7655 134.796 45.4476 134.964 46.3072C135.039 46.6903 135.077 47.064 135.235 47.4378C135.516 48.0825 136.067 48.3161 136.628 48.559C136.758 48.6151 136.945 48.6058 137.085 48.559C139.748 47.6808 142.411 46.8024 144.85 45.3822C146.354 44.5133 147.83 43.5883 149.335 42.71C149.708 42.4951 150.064 42.1868 150.54 42.2522C150.68 42.2709 150.811 42.3362 150.951 42.3829C150.895 42.5417 150.886 42.7474 150.783 42.8408C150.4 43.1772 149.998 43.4855 149.587 43.7752C147.485 45.2795 145.326 46.6716 142.963 47.7181C141.496 48.3628 140.038 49.0261 138.562 49.6241C137.898 49.8951 137.188 50.0633 136.487 50.1942C136.142 50.2596 135.749 50.1754 135.394 50.1006C134.011 49.811 133.339 48.7646 132.778 47.606C132.423 46.8772 132.096 46.139 131.928 45.3355C131.834 44.887 131.535 44.5506 131.012 44.5226C130.788 44.5132 130.573 44.4759 130.358 44.4479C129.882 44.3731 129.499 44.5319 129.153 44.8589C128.153 45.7933 127.144 46.7183 126.163 47.6713C124.332 49.4559 122.519 51.2686 120.697 53.0626C120.202 53.5578 119.641 53.8848 118.894 53.8848C117.922 53.8848 116.857 52.3525 117.558 51.4461C117.838 51.0818 118.081 50.68 118.361 50.3156C119.398 48.9982 120.51 47.7461 121.94 46.8211C123.537 45.7839 125.014 44.6067 126.34 43.2425C127.275 42.2802 128.172 41.271 129.078 40.2806C129.144 40.2059 129.172 40.1032 129.274 39.907C129.059 39.963 128.938 39.9724 128.845 40.0378C127.714 40.8039 126.583 41.5701 125.462 42.3456C124.519 42.9996 123.612 43.691 122.65 44.3171C121.996 44.7375 121.295 45.0832 120.538 45.3355C119.856 45.5691 119.211 45.5504 118.539 45.5597C118.202 45.5597 117.969 45.6625 117.735 45.9054C116.707 46.9612 115.689 48.0451 114.586 49.0262C113.652 49.8578 112.624 50.5865 111.596 51.306C110.896 51.7918 110.129 52.1843 109.373 52.586C108.438 53.0812 107.401 53.156 106.411 52.9691C105.084 52.7169 104.103 51.8759 103.626 50.5865C103.458 50.1287 103.458 49.5868 103.477 49.0822C103.524 47.634 104.019 46.326 104.888 45.1767C105.934 43.7845 106.99 42.4016 108.345 41.2804C109.242 40.5423 110.111 39.7388 111.073 39.0847C112.176 38.3279 113.344 37.6364 114.53 37.0291C115.717 36.4218 116.96 35.9266 118.193 35.4314C118.632 35.2539 119.118 35.1698 119.594 35.095C120.426 34.9642 121.155 35.2352 121.781 35.7771C122.36 36.2723 122.837 36.8235 122.967 37.6271C123.061 38.2251 123.014 38.795 122.725 39.2903C122.127 40.3087 121.482 41.3084 120.8 42.2801C120.239 43.0837 119.604 43.8405 118.912 44.7281L118.884 44.6908ZM106.635 48.9795C106.756 49.5027 106.859 49.9979 106.99 50.4837C107.037 50.6706 107.14 50.8575 107.261 51.007C107.429 51.2219 107.653 51.39 107.952 51.2686C108.597 50.9883 109.27 50.7641 109.858 50.3903C110.83 49.783 111.746 49.101 112.671 48.4282C113.418 47.8863 114.166 47.335 114.857 46.7276C116.548 45.214 118.174 43.6162 119.566 41.813C120.211 40.9814 120.818 40.1218 121.267 39.1501C121.472 38.7203 121.388 38.3933 121.202 38.0476C120.846 37.3842 120.136 37.0478 119.501 37.2627C119.137 37.3841 118.772 37.5523 118.436 37.7392C116.689 38.739 115.053 39.8976 113.568 41.2524C111.456 43.1678 109.494 45.2234 107.635 47.3818C107.364 47.6994 107.13 48.0545 106.906 48.4002C106.784 48.5777 106.728 48.7926 106.644 48.9701L106.635 48.9795Z" fill="#575756"/>
<path d="M2.17303 49.6259C2.23843 50.0838 2.21045 50.5136 2.50944 50.906C2.74302 51.205 2.99525 51.42 3.39702 51.3546C4.06976 51.2425 4.75184 51.177 5.39655 50.9808C6.91954 50.5136 8.265 49.654 9.60112 48.8037C10.5168 48.2244 11.4138 47.6358 12.2921 47.0098C13.2731 46.2997 14.2542 45.5803 15.1699 44.8048C16.3098 43.8331 17.4403 42.8426 18.4868 41.7681C20.4396 39.7593 22.327 37.685 24.2331 35.6388C25.5692 34.1999 26.9053 32.7609 28.2133 31.294C29.1197 30.2756 29.9886 29.2198 30.8763 28.1827C31.5957 27.3511 32.3432 26.5288 33.044 25.6879C33.8195 24.7629 34.5669 23.8005 35.3424 22.8755C36.4543 21.5394 37.5943 20.2221 38.7155 18.8953C38.9304 18.643 39.1546 18.4 39.3788 18.1571C39.4816 18.045 39.5657 17.9048 39.6872 17.8114C40.5001 17.1013 40.9299 16.9891 41.8829 17.7459C42.3314 18.101 42.7145 18.5215 42.9294 19.0821C43.0695 19.4465 43.1069 19.7641 42.9107 20.0912C42.4529 20.8667 42.0418 21.6796 41.5092 22.3991C40.7337 23.4456 39.8834 24.4266 39.0518 25.4264C37.6877 27.0708 36.3422 28.734 34.9313 30.3317C33.698 31.7426 32.3899 33.088 31.1005 34.4521C29.9326 35.6855 28.7646 36.9188 27.5406 38.0961C25.1954 40.3666 22.8689 42.6557 20.4396 44.8327C17.4403 47.5237 14.0486 49.6541 10.3392 51.2518C9.27408 51.7096 8.17159 52.0647 7.05972 52.401C6.48042 52.5786 5.84506 52.5786 5.24708 52.728C4.53697 52.9056 3.89225 52.7467 3.24755 52.4851C2.6776 52.2609 2.07029 52.1487 1.50968 51.8965C0.565983 51.476 -0.190847 50.4201 0.0427407 49.2802C0.210924 48.4954 0.472521 47.7199 0.780856 46.9818C1.41621 45.4868 2.45335 44.3002 3.77079 43.3565C5.20034 42.3381 6.60186 42.8239 7.33066 44.076C7.48015 44.3282 7.5362 44.6645 7.54554 44.9542C7.55488 45.4307 7.14378 45.7298 6.74201 45.4868C6.19075 45.1598 5.62081 45.2532 5.06955 45.2999C4.74252 45.3279 4.39678 45.599 4.15385 45.8606C3.41571 46.6268 2.77104 47.4676 2.43467 48.4954C2.31321 48.8598 2.25712 49.2522 2.17303 49.6353V49.6259Z" fill="#575756"/>
</svg>
