<svg width="214" height="24" viewBox="0 0 214 24" fill="none" xmlns="http://www.w3.org/2000/svg">
<path d="M140.116 2.98999L139.986 2.86852C138.014 1.0185 135.136 0 131.885 0C128.633 0 125.728 1.02788 123.756 2.89658L123.737 2.91517C121.635 4.74649 120.477 7.43741 120.477 10.5021C120.477 13.5667 121.635 16.2671 123.653 18.0143L123.784 18.1358C125.756 19.9858 128.633 21.0042 131.885 21.0042C135.136 21.0042 138.024 19.9858 139.995 18.1264L140.07 18.0611C142.153 16.2391 143.303 13.5481 143.303 10.5021C143.303 7.4561 142.144 4.73722 140.126 2.98999H140.116ZM137.911 15.6504L137.79 15.7625C136.416 17.0612 134.324 17.7713 131.885 17.7713C129.446 17.7713 127.344 17.0612 125.98 15.7625L125.914 15.7065L125.858 15.6597C124.475 14.4544 123.709 12.6231 123.709 10.5114C123.709 8.3998 124.475 6.56847 125.858 5.36316L125.98 5.25104C127.353 3.95229 129.446 3.24228 131.885 3.24228C134.324 3.24228 136.426 3.96164 137.79 5.25104L137.911 5.36316C139.294 6.56847 140.06 8.3998 140.06 10.5114C140.06 12.6231 139.294 14.4544 137.911 15.6597V15.6504Z" fill="#575756"/>
<path d="M210.511 0.75V16.9609H210.296L199.532 0.852765H192.637V4.24446H194.468V20.4181H197.85V4.44064L208.493 20.3433H213.903V0.75H210.511Z" fill="#575756"/>
<path d="M177.331 2.98999L177.201 2.86852C175.229 1.0185 172.351 0 169.1 0C165.848 0 162.942 1.02788 160.971 2.89658L160.952 2.91517C158.85 4.74649 157.691 7.43741 157.691 10.5021C157.691 13.5667 158.85 16.2671 160.868 18.0143L161.018 18.1545C162.989 19.9951 165.858 21.0042 169.1 21.0042C172.342 21.0042 175.239 19.9858 177.21 18.1264L177.285 18.0611C179.368 16.2391 180.518 13.5481 180.518 10.5021C180.518 7.4561 179.359 4.73722 177.341 2.98999H177.331ZM175.126 15.6504L175.005 15.7625C173.631 17.0612 171.538 17.7713 169.09 17.7713C166.642 17.7713 164.55 17.0612 163.185 15.7625L163.064 15.6504C161.681 14.445 160.915 12.6137 160.915 10.5021C160.915 8.39045 161.653 6.61527 163.083 5.33521L163.185 5.24169C164.559 3.94294 166.652 3.23293 169.09 3.23293C171.529 3.23293 173.631 3.95229 175.005 5.24169L175.126 5.35381C176.509 6.55912 177.275 8.39045 177.275 10.5021C177.275 12.6137 176.509 14.445 175.126 15.6504Z" fill="#575756"/>
<path d="M14.3422 12.288L6.90486 0.851562H0V4.24326H1.83129V20.4169H5.21363V4.46749L13.0809 16.5673H14.3422H15.6129L23.4709 4.46749V20.4169H26.8626V4.24326H28.6845V0.851562H21.7797L14.3422 12.288Z" fill="#575756"/>
<path d="M68.2738 18.1277C68.2271 18.0342 68.1711 17.9501 68.1244 17.8567L59.5937 0.851562H52.0722V4.24326H53.7728L45.457 23.7712H45.5598C47.7275 23.7712 49.6896 22.4724 50.5398 20.4823L53.1561 14.3343C53.8755 14.9977 54.7445 15.4554 55.6134 15.6516C56.8094 15.9319 57.9213 15.9787 59.0051 16.0347C61.1821 16.1375 62.4715 16.2589 63.6862 17.511C64.2375 18.0809 64.6952 18.7163 65.1344 19.4918L65.6015 20.4261H69.3951L68.2458 18.137H68.2645L68.2738 18.1277ZM59.1826 12.6337C58.2108 12.587 57.2952 12.5403 56.3982 12.3348C55.7722 12.1853 54.8286 11.5686 54.8286 10.4661H54.8099L57.4634 4.24326H57.5008L61.8362 12.886C60.9299 12.7178 60.0328 12.6804 59.1826 12.6337Z" fill="#575756"/>
<path d="M94.8459 10.9799C93.8461 10.9145 92.9118 10.8491 92.0709 10.6529C91.4542 10.5127 90.5479 9.90545 90.5105 8.83095V4.2339H98.3029C99.9381 4.2339 101.312 5.56072 101.265 7.19583C101.218 8.90569 100.555 9.98946 100.144 10.5034C100.032 10.6435 100.144 10.8585 100.321 10.8398C101.022 10.7838 102.367 10.6155 103.377 9.68112C104.89 8.2796 104.862 5.55131 103.769 3.73867C102.61 1.81391 100.443 0.851562 98.06 0.851562H85.2969V4.24326H87.1188V8.78418C87.1188 8.78418 87.1188 8.8216 87.1188 8.83095V20.4261H90.5105V13.7082C90.7721 13.811 91.0337 13.9045 91.2953 13.9605C92.3979 14.2221 93.5191 14.2968 94.603 14.3716C96.6959 14.5117 98.4992 14.6426 99.6391 15.9507C100.424 16.8477 101.228 18.3239 102.087 20.4261H105.722C104.526 17.2494 103.395 15.0911 102.19 13.7176C100.125 11.3537 97.3126 11.1574 94.8272 10.9892L94.8459 10.9799Z" fill="#575756"/>
</svg>
