<svg width="194" height="183" viewBox="0 0 194 183" fill="none" xmlns="http://www.w3.org/2000/svg">
<path d="M80.4915 55.3914C80.29 55.4501 80.1081 55.5137 79.9361 55.6164C79.9262 55.6213 79.9164 55.631 79.9115 55.6457C79.9016 55.6751 79.9164 55.7044 79.9459 55.7142C80.1278 55.7728 80.3047 55.8169 80.462 55.8902C80.6144 55.9538 80.7668 56.0369 80.8061 56.1102C80.8503 56.1836 80.8356 56.3547 80.9781 56.4183C81.0519 56.4574 81.1305 56.4965 81.2387 56.5259C81.2288 56.5357 81.219 56.5454 81.2092 56.5601C81.0322 56.7459 80.7373 56.8339 80.5554 57.0637C80.3588 57.2936 80.1622 57.5429 80.0049 57.9341C80.0049 57.9341 80.0049 57.9439 80.0049 57.9488C79.995 57.983 80.0196 58.0173 80.054 58.027C80.4817 58.1248 80.8405 58.027 81.1699 57.8755C81.5041 57.7141 81.7056 57.3669 81.8924 57.01C81.9416 56.9268 81.9809 56.8144 82.0153 56.7264C82.035 56.6628 82.0497 56.5992 82.0792 56.5405C82.1284 56.4134 82.1923 56.2863 82.2808 56.164C82.443 55.9147 82.674 55.6848 82.9296 55.4844C82.9296 55.4844 82.9493 55.4501 82.9493 55.4306C82.9444 55.4012 82.9149 55.3866 82.8903 55.3914C82.5511 55.4599 82.2316 55.6066 81.9268 55.8022C81.8924 55.8266 81.858 55.856 81.8236 55.8853C81.8187 55.8658 81.8138 55.8413 81.8089 55.8217C81.7351 55.6017 81.4746 55.499 81.2043 55.4012C80.9192 55.3083 80.7078 55.3474 80.5013 55.3914" fill="#575756"/>
<path d="M76.4558 56.4036C76.8293 56.2178 77.2177 56.076 77.606 56.0222C77.7977 55.988 77.9894 55.9782 78.1762 55.988C78.3826 55.988 78.6186 55.9978 78.8742 55.9538C79.1298 55.9195 79.464 55.7582 79.6508 55.6066C79.8475 55.4599 79.9704 55.3279 80.0932 55.1763C80.2899 54.9318 80.3882 54.6971 80.865 54.6042H80.8846C80.8846 54.6042 80.8945 54.5993 80.8994 54.5944C80.9289 54.5797 80.9387 54.5455 80.924 54.5211C80.7962 54.2717 80.4963 54.1397 80.1965 54.1494C79.8966 54.1543 79.6115 54.2815 79.4051 54.4379C79.2183 54.57 79.0561 54.746 78.9578 54.8927C78.8545 55.0443 78.8201 55.1078 78.6677 55.1763C78.5154 55.2399 78.3335 55.279 78.1221 55.323C77.8862 55.3719 77.6699 55.4501 77.4634 55.543C77.0554 55.7484 76.6917 55.9978 76.4017 56.3254C76.3869 56.3401 76.3869 56.3645 76.3919 56.3841C76.4066 56.4085 76.4361 56.4183 76.4607 56.4085" fill="#575756"/>
<path d="M146.94 52.9514C146.846 52.0762 146.704 51.2107 146.527 50.355C146.35 49.4944 146.133 48.6435 145.853 47.8074C145.568 46.9712 145.254 46.1595 144.752 45.3821C144.728 45.3478 144.693 45.3185 144.649 45.2989C144.546 45.2598 144.428 45.3136 144.388 45.4212C144.025 46.4236 143.199 47.1864 142.26 47.7243C141.316 48.2719 140.269 48.6435 139.222 48.9956C137.118 49.6899 134.97 50.2865 132.827 50.8733C128.669 51.9979 124.495 53.0492 120.312 54.081C120.302 53.9049 120.288 53.724 120.263 53.548C120.204 53.1568 120.13 52.7558 119.885 52.3402C119.767 52.1348 119.58 51.9246 119.319 51.7877C119.059 51.6654 118.749 51.6214 118.508 51.6752C118.262 51.7045 117.992 51.8072 117.771 52.0077C117.555 52.2131 117.442 52.4625 117.383 52.6825C117.265 53.1275 117.269 53.5138 117.274 53.8952C117.279 54.0321 117.274 54.1641 117.274 54.2961C117.274 54.2961 117.269 54.2961 117.265 54.2961C117.127 54.2521 117.034 54.4086 116.92 54.4819C116.857 54.5211 116.793 54.57 116.724 54.6188C116.714 54.5993 116.704 54.5748 116.694 54.5553C116.493 54.1788 116.085 53.7974 115.583 53.7142C115.338 53.6751 115.126 53.68 114.89 53.7191C114.659 53.7631 114.414 53.8512 114.222 54.0174C113.966 54.2228 113.824 54.4819 113.73 54.7411C113.593 54.5748 113.416 54.4281 113.219 54.3059C113.494 54.1397 113.711 53.9049 113.883 53.6556C114.128 53.3035 114.153 52.8634 114.232 52.4673C114.31 52.0664 114.355 51.6605 114.369 51.2596C114.369 50.9809 114.369 50.7021 114.35 50.4283C118.277 48.756 122.205 47.0935 126.147 45.4652C128.998 44.2916 131.849 43.1279 134.72 42.013C136.15 41.4653 137.605 40.903 139.035 40.4385C140.436 40.0375 142.029 40.0277 143.233 40.7954L143.253 40.8052C143.317 40.8443 143.395 40.8639 143.474 40.8541C143.651 40.8297 143.769 40.6634 143.744 40.4923C143.602 39.5632 143.336 38.7417 143.042 37.9056C142.742 37.0792 142.398 36.2675 142.024 35.4754C141.65 34.6783 141.233 33.9009 140.761 33.1527C140.279 32.4046 139.787 31.6858 139.099 31.0354C139.06 30.9963 139.001 30.967 138.942 30.9621C138.795 30.9474 138.657 31.055 138.642 31.2017V31.2115C138.519 32.3312 137.811 33.3092 136.946 34.0818C136.509 34.4681 136.047 34.8348 135.54 35.1526C135.496 35.182 135.452 35.2113 135.408 35.2407C132.699 36.8592 127.641 39.7539 121.684 43.0252C119.481 44.2036 117.274 45.3674 115.067 46.5214C113.445 47.3673 111.823 48.2083 110.196 49.0494C110.727 48.6973 111.066 48.1106 111.115 47.5189C111.169 47.5384 111.228 47.5678 111.287 47.5727C111.464 47.5825 111.602 47.5678 111.749 47.5091C112.044 47.4015 112.241 47.1668 112.364 46.9321C112.61 46.4578 112.669 45.9542 112.673 45.4603C112.673 45.4358 112.659 45.4163 112.629 45.4114C112.6 45.4114 112.575 45.4261 112.57 45.4505C112.492 45.9248 112.349 46.404 112.098 46.7708C111.971 46.9517 111.803 47.0837 111.626 47.1228C111.548 47.1473 111.43 47.1375 111.366 47.1228C111.307 47.1033 111.253 47.0641 111.199 46.9957C110.978 46.7121 110.899 46.2231 110.899 45.7879C110.899 45.3429 110.983 44.8882 111.155 44.5215C111.243 44.3405 111.356 44.1792 111.479 44.0863C111.607 43.9934 111.725 43.9591 111.862 43.964C112.015 43.9689 112.074 44.0178 112.202 44.0912C112.261 44.1449 112.324 44.1841 112.383 44.2574C112.447 44.3161 112.511 44.3943 112.57 44.4823C113.067 45.1571 113.421 46.0813 113.853 46.9761C113.863 46.9908 113.878 47.0055 113.893 47.0055C113.922 47.0055 113.947 46.9908 113.951 46.9615C114.015 46.4529 113.996 45.9444 113.917 45.4407C113.838 44.9371 113.696 44.4334 113.421 43.9347C113.283 43.6902 113.091 43.4408 112.821 43.2403C112.683 43.1425 112.511 43.0545 112.334 43.0056C112.143 42.9616 111.956 42.9421 111.789 42.9665C111.435 43.0056 111.091 43.1914 110.86 43.4359C110.624 43.6755 110.496 43.9542 110.403 44.2232C110.221 44.7611 110.191 45.2989 110.245 45.827C110.25 45.871 110.26 45.9199 110.265 45.9639C110.078 45.8613 109.867 45.7928 109.641 45.7635C109.238 45.7097 108.8 45.8124 108.436 46.0373C108.392 46.0666 108.348 46.0911 108.304 46.1253C108.249 46.1742 108.195 46.2231 108.146 46.2769C108.107 46.316 108.077 46.36 108.053 46.404C107.881 46.2622 107.674 46.1644 107.473 46.096C107.266 46.0226 107.055 45.9884 106.849 45.9688C106.657 45.9444 106.357 45.9688 106.087 46.0715C105.979 46.1204 105.88 46.1938 105.792 46.272C105.777 46.2427 105.767 46.2182 105.752 46.1889C105.605 45.9542 105.344 45.7537 105.064 45.6754C104.784 45.5874 104.489 45.5874 104.229 45.6265C103.963 45.6559 103.629 45.783 103.383 46.0079C103.123 46.2378 102.995 46.5458 102.916 46.8245C102.857 47.1081 102.847 47.382 102.872 47.6314C102.926 48.1399 103.059 48.5946 103.191 49.0347L103.29 49.3574L103.383 49.6802C103.457 49.9296 103.56 50.1545 103.688 50.3745C103.816 50.5897 103.968 50.795 104.17 50.976C104.366 51.152 104.627 51.3036 104.927 51.328C105.526 51.3671 106.018 50.9368 106.155 50.4479C106.19 50.3256 106.214 50.2034 106.224 50.0811C106.308 50.1545 106.406 50.2229 106.509 50.2718C106.74 50.3745 106.986 50.3941 107.207 50.3647C107.424 50.3256 107.625 50.2621 107.822 50.1349C108.009 50.0078 108.146 49.8415 108.249 49.6704C108.382 49.4504 108.461 49.2156 108.515 48.9809C108.648 49.113 108.805 49.2352 109.006 49.3085C109.228 49.4063 109.498 49.377 109.704 49.3085C105.551 51.4601 101.383 53.592 97.2142 55.7142C93.5963 57.4696 91.2811 58.5405 91.2811 58.5405L91.2713 58.7214C90.7798 58.9708 90.2833 59.2201 89.7917 59.4695C89.7622 59.3864 89.7229 59.3081 89.6738 59.2397C89.6295 59.181 89.5755 59.1174 89.5312 59.0686L89.4083 58.9512C89.3297 58.8681 89.2461 58.7947 89.1626 58.7214C88.9954 58.5698 88.8185 58.4329 88.6366 58.3009C88.2728 58.0368 87.8944 57.807 87.506 57.5967C87.275 57.4745 87.044 57.3669 86.808 57.2642C87.0145 56.9073 87.1914 56.5356 87.3143 56.0858C87.3536 55.9195 87.3831 55.7484 87.3684 55.5381C87.3684 55.3425 87.2947 55.0785 87.1275 54.8633C87.044 54.7655 86.926 54.6677 86.8326 54.6091C86.749 54.5651 86.6704 54.5162 86.5672 54.4819C86.3755 54.4037 86.1248 54.3695 85.9331 54.389C85.5497 54.433 85.4268 54.4722 85.2154 54.4428C85.0188 54.4233 84.7927 54.345 84.5665 54.2472C84.0701 54.0076 83.5097 53.8316 83.1214 53.5969C82.7232 53.3622 82.389 52.9906 82.0744 52.5651C81.9171 52.3549 81.7745 52.13 81.6222 51.905C81.4599 51.6605 81.283 51.416 81.0864 51.196C80.3933 50.4332 79.4692 49.9149 78.5008 49.7144C78.5057 49.6851 78.5155 49.6557 78.5205 49.6264C78.5844 49.1619 78.3828 48.7267 78.0879 48.3991C78.5991 48.2279 79.0857 47.9541 79.3856 47.4749C79.5478 47.2108 79.6117 46.8881 79.5773 46.5801C79.5331 46.2769 79.4397 45.9884 79.2922 45.7292C79.012 45.2011 78.5942 44.7708 78.1567 44.3894C77.7438 44.0374 77.3014 43.7293 76.8295 43.4604C77.036 43.3137 77.2228 43.1328 77.3112 42.8785C77.4341 42.5802 77.2916 42.2428 77.0999 42.0326C76.7017 41.5974 76.1659 41.3382 75.6154 41.1866C75.0599 41.0399 74.4848 41.0106 73.9146 41.0497C73.6295 41.0644 73.3493 41.1035 73.0692 41.1524C72.9315 41.1768 72.789 41.2062 72.6513 41.2355L72.4449 41.2893L72.3662 41.3089C72.3122 40.3896 71.8649 39.5192 71.2799 38.7955C70.6311 38.0278 69.8003 37.4166 68.9008 36.9961C67.9914 36.5609 66.9788 36.3702 65.9957 36.3066C64.9979 36.2626 64.0246 36.3506 63.0513 36.6636C62.9383 36.6978 62.8498 36.7956 62.8351 36.9227C62.8105 37.0939 62.9334 37.2552 63.1054 37.2797C63.5625 37.3433 64.0688 37.5046 64.526 37.71C64.9831 37.9203 65.4255 38.1843 65.8237 38.507C66.2218 38.8249 66.5708 39.2112 66.8756 39.6268C67.0329 39.8322 67.1656 40.0571 67.2885 40.2869L67.4606 40.5901C67.0575 40.8248 66.6839 41.0986 66.3398 41.4262C66.2808 41.2062 66.2022 40.9959 66.0842 40.8003C65.9171 40.5118 65.6615 40.2478 65.342 40.0913C64.6931 39.7784 63.9115 39.9299 63.361 40.3211C62.8006 40.7074 62.3976 41.2355 62.0731 41.7832C61.8372 42.1792 61.6504 42.5949 61.4784 43.0154C61.3211 42.8247 61.1392 42.6487 60.9033 42.5069C60.7017 42.3895 60.451 42.3064 60.1856 42.3162C59.9251 42.3308 59.6842 42.4237 59.4876 42.5509C59.0993 42.8051 58.8289 43.1572 58.6225 43.5288C58.5094 43.7391 58.416 43.9493 58.3423 44.1645C58.0375 43.9151 57.6983 43.7146 57.2854 43.6071C56.671 43.4359 55.9632 43.6462 55.5109 44.0716C55.0636 44.4921 54.7884 44.9958 54.577 45.4994C54.4099 45.9053 54.287 46.3111 54.1887 46.7316C53.6332 46.7219 53.1023 46.7708 52.5616 46.8783C51.9177 47.0055 51.2787 47.2353 50.6986 47.5873C50.4234 47.778 50.1137 47.9736 49.8876 48.2964C49.6566 48.5995 49.5042 49.0054 49.4993 49.4015C49.4894 49.7975 49.5976 50.1643 49.75 50.4821C49.8139 50.619 49.8876 50.7413 49.9662 50.8635C49.4649 51.0786 49.0077 51.3476 48.5555 51.6654C47.9607 52.1104 47.4053 52.6678 47.071 53.3915C46.9137 53.7485 46.7908 54.1494 46.7613 54.5308C46.7171 54.9122 46.722 55.3279 46.8498 55.7435C46.9727 56.1542 47.2283 56.5503 47.5773 56.8241C47.6215 56.8584 47.6707 56.8877 47.7149 56.9219C47.5625 57.054 47.4249 57.2055 47.3168 57.3816C46.9874 57.8999 46.9481 58.5502 47.0759 59.0686C47.189 59.5966 47.4593 60.1199 47.8624 60.5061C48.1131 60.7457 48.3785 60.9267 48.6784 61.0734C48.5407 61.357 48.4277 61.6455 48.3245 61.9535C48.177 62.4523 48.0688 62.9804 48.1131 63.5476C48.1377 63.8312 48.1868 64.1099 48.3048 64.3984C48.4228 64.682 48.6243 64.995 48.9536 65.1906C49.2486 65.3715 49.5779 65.4204 49.8679 65.4057C49.8483 65.5768 49.8384 65.748 49.8433 65.9289C49.8581 66.1881 49.9171 66.4521 50.0203 66.7064C50.1334 66.9558 50.2907 67.1905 50.4824 67.3763C50.851 67.743 51.3475 67.9924 51.8489 68.0804C52.1094 68.1244 52.3503 68.1342 52.596 68.1146C52.5813 68.496 52.596 68.8774 52.6354 69.2686C52.7091 69.8896 52.891 70.5449 53.299 71.1268C53.5152 71.4006 53.7905 71.6793 54.1051 71.8407C54.4148 72.0167 54.7982 72.1536 55.2111 72.1292C55.5159 72.1145 55.8059 72.0167 56.0516 71.8749C56.0664 71.9531 56.0811 72.0265 56.1008 72.1096C56.1549 72.2954 56.2384 72.5106 56.4449 72.711C56.6513 72.9017 56.9266 72.9897 57.1478 72.9995C57.3739 73.0142 57.5705 72.98 57.7426 72.9311C57.8655 72.8968 57.9736 72.8479 58.0818 72.8039C58.1014 72.8577 58.1112 72.9066 58.1407 72.9653C58.2685 73.2342 58.4947 73.5276 58.8289 73.6792C59.1484 73.8357 59.5417 73.8357 59.8415 73.7379C59.9349 73.7086 60.0135 73.6743 60.0922 73.6352C60.1315 73.6988 60.161 73.7672 60.2102 73.8308C60.3773 74.0655 60.6083 74.3149 60.977 74.442C61.3457 74.5692 61.7438 74.4909 62.024 74.3344C62.2304 74.2171 62.3927 74.09 62.5352 73.9286C62.6483 73.9384 62.7712 73.9628 62.8695 73.997C63.0415 74.0508 63.1939 74.1389 63.3217 74.2513C63.5773 74.4714 63.7788 74.8576 63.7641 75.1168C63.7444 75.42 63.5527 75.7818 63.2774 76.0997C63.012 76.4175 62.663 76.7207 62.3288 76.9554L62.3042 76.9749C62.2354 77.0238 62.1813 77.0923 62.1518 77.1754C62.0731 77.3954 62.1862 77.6399 62.4074 77.7182C63.2971 78.036 64.1721 78.168 65.0864 78.1631C65.9957 78.1387 66.9248 77.9431 67.7358 77.4835C68.1438 77.2781 68.5321 76.9651 68.8516 76.6033C69.1662 76.2268 69.3776 75.7672 69.4857 75.2977C69.5939 74.8234 69.589 74.3442 69.5201 73.8895C69.5054 73.7966 69.4857 73.7037 69.4661 73.6108C69.7217 73.6841 70.0019 73.6988 70.2673 73.6401C70.6065 73.5716 70.9063 73.3907 71.1324 73.1853C71.3733 72.9849 71.5699 72.711 71.6977 72.4323C71.9533 71.8651 72.0074 71.2783 71.9927 70.7209C71.9779 70.2857 71.914 69.8652 71.8255 69.4447C72.0566 69.3811 72.2728 69.2931 72.494 69.1806C73.0053 69.9434 73.4231 70.7698 73.7327 71.6304C73.9294 72.1927 74.0768 72.7697 74.1604 73.3565C74.239 73.9433 74.244 74.5447 74.2636 75.1413C74.2882 76.3393 74.3472 77.5617 74.6372 78.7499C74.9076 79.9381 75.4237 81.0726 76.1119 82.0896C76.7951 83.1067 77.6357 84.0064 78.5647 84.7986C79.479 85.5956 80.4031 86.3437 81.2486 87.1946C82.9493 88.8571 84.4731 90.7445 85.353 92.9303C85.7954 94.0158 86.0707 95.16 86.1493 96.3238C86.1592 96.6172 86.1739 96.9057 86.1788 97.1991L86.1346 98.0743C86.0658 98.6562 85.992 99.2283 85.8741 99.8249C85.6529 101.003 85.4268 102.177 85.122 103.321C84.9696 103.893 84.7927 104.451 84.5764 104.988C84.3552 105.526 84.0897 106.05 83.8194 106.592C83.5392 107.125 83.3033 107.712 83.0231 108.167C82.7281 108.646 82.3595 109.101 81.9613 109.521C81.165 110.357 80.2261 111.106 79.2234 111.614C78.7171 111.859 78.1911 111.996 77.5963 112.123C77.0016 112.25 76.3773 112.421 75.7924 112.661C75.1976 112.885 74.5979 113.247 74.1309 113.717C73.7229 114.132 73.3936 114.587 73.1527 115.145C72.7988 115.223 72.3859 115.267 71.9976 115.286C71.5306 115.306 71.0538 115.296 70.5819 115.257C69.643 115.169 68.7189 114.998 67.9275 114.577C67.1361 114.167 66.5315 113.511 66.2022 112.695C66.035 112.289 65.9318 111.854 65.8679 111.399C65.8089 111.008 65.8778 110.568 65.9957 110.142C66.2317 109.287 66.6986 108.48 67.3278 107.869C67.957 107.252 68.773 106.881 69.648 106.768C69.8692 106.759 70.0903 106.744 70.3115 106.744C70.5377 106.763 70.7736 106.759 70.9997 106.798C71.452 106.851 71.8894 106.959 72.2974 107.116C72.7005 107.282 73.0692 107.512 73.369 107.795C73.5214 107.942 73.6541 108.098 73.7622 108.27C73.8704 108.431 73.9736 108.646 74.008 108.773L74.0178 108.812C74.0719 108.993 74.2243 109.135 74.4209 109.164C74.6962 109.208 74.9518 109.018 74.996 108.749C75.0698 108.284 75.0796 107.864 75.0452 107.414C75.0059 106.969 74.9076 106.514 74.6962 106.074C74.4701 105.624 74.1358 105.272 73.7819 104.988C73.487 104.759 73.1871 104.573 72.8529 104.411C72.7791 104.191 72.6808 104.015 72.553 103.825C72.3761 103.575 72.1549 103.365 71.9091 103.199C71.4225 102.861 70.8326 102.725 70.3263 102.671C69.3235 102.529 68.2864 102.578 67.2836 102.773C66.2808 102.974 65.3125 103.36 64.4424 103.898C64.0049 104.162 63.597 104.47 63.2135 104.803C62.9186 105.062 62.6483 105.326 62.3877 105.634C62.2255 105.59 62.0584 105.561 61.8765 105.551C61.5619 105.536 61.2129 105.605 60.9131 105.771C60.2986 106.113 60.0332 106.715 59.8759 107.223C59.7039 107.751 59.6744 108.343 59.7973 108.895C59.8563 109.174 59.9546 109.438 60.0774 109.688C60.161 109.849 60.2446 109.996 60.3478 110.142C59.6891 111.673 59.3844 113.291 59.4876 114.959C59.6301 116.724 60.4363 118.47 61.7389 119.682L62.7711 120.514L63.9017 121.183C64.29 121.379 64.7029 121.535 65.1011 121.712C65.5091 121.873 65.9417 121.966 66.3595 122.093C68.0799 122.513 69.9183 122.333 71.5503 121.746C73.197 121.169 74.6667 120.249 76.0234 119.228C77.3801 118.206 78.6237 117.066 79.8427 115.927C80.4572 115.355 81.047 114.783 81.6861 114.294C82.3201 113.785 83.0034 113.335 83.7112 112.939C84.2569 112.631 84.832 112.352 85.4169 112.108C85.4169 112.328 85.4317 112.553 85.4759 112.773C85.5496 113.247 85.7168 113.712 85.9527 114.132C86.1838 114.558 86.4836 114.949 86.8228 115.296C87.1275 115.594 87.452 115.858 87.8255 116.088C87.4716 117.086 87.4372 118.157 87.6781 119.179C87.9288 120.215 88.2974 121.218 88.1647 122.152C88.0467 123.081 87.2947 123.731 86.3656 124.098C85.4415 124.523 84.483 124.66 83.4065 124.748C83.1312 124.782 82.8412 124.821 82.5364 124.919C82.2268 125.027 81.922 125.222 81.6959 125.472C81.4845 125.726 81.3223 126 81.2142 126.269C81.0913 126.533 81.0077 126.836 80.9586 127.149C80.8799 127.799 81.0569 128.391 81.1994 128.89C81.3518 129.398 81.4894 129.887 81.6074 130.386C82.0596 132.371 82.2218 134.454 82.0006 136.479C81.9023 137.496 81.6959 138.503 81.5189 139.564C81.4354 140.092 81.3616 140.655 81.3764 141.222C81.3911 141.765 81.4108 142.317 81.5582 142.899C81.6861 143.476 82.04 144.092 82.5217 144.478C82.7626 144.679 82.9936 144.83 83.2541 144.977C83.5195 145.129 83.8243 145.236 84.1094 145.305C84.3945 145.373 84.655 145.412 84.8418 145.476C85.0286 145.535 85.1564 145.623 85.2891 145.774C85.5546 146.072 85.7266 146.556 85.9527 147.05C86.3951 148.028 86.9112 148.992 87.5945 149.862C87.9435 150.292 88.3171 150.713 88.7841 151.055C89.2461 151.392 89.7721 151.696 90.3767 151.793C91.4581 151.979 92.5198 152.067 93.6062 152.072C94.1469 152.072 94.6925 152.048 95.2332 151.979C95.7838 151.906 96.2999 151.823 96.8799 151.608C96.9241 151.588 96.9684 151.564 97.0028 151.529C97.1404 151.392 97.1404 151.168 97.0028 151.031L96.993 151.021C95.9116 149.94 94.8301 148.845 93.7635 147.745C92.7116 146.64 91.6105 145.544 90.6716 144.381C89.7377 143.192 88.9266 141.906 88.3712 140.513C87.8304 139.124 87.5503 137.618 87.742 136.146C87.9435 134.674 88.6464 133.305 89.6099 132.156C90.5782 130.992 91.7334 129.99 93.036 129.208C94.3337 128.415 95.7493 127.76 97.0028 126.841C97.632 126.386 98.2317 125.883 98.7281 125.271C98.9739 124.968 99.1902 124.636 99.3475 124.269C99.49 123.931 99.5933 123.575 99.5589 123.178C100.026 123.002 100.473 122.802 100.911 122.572C101.368 122.328 101.81 122.049 102.198 121.687C102.572 121.315 102.872 120.89 103.147 120.455C103.359 120.117 103.545 119.775 103.727 119.418L104.612 120.069C104.907 120.279 105.207 120.489 105.58 120.665C105.684 120.704 105.757 120.753 105.9 120.778L106.092 120.812C106.146 120.812 106.195 120.812 106.244 120.812C106.441 120.812 106.627 120.797 106.799 120.782C107.148 120.758 107.414 120.773 107.601 120.91C107.802 121.042 107.974 121.301 108.097 121.599C108.353 122.196 108.495 122.885 108.638 123.565C108.78 124.249 108.893 124.953 109.09 125.662C109.198 126.019 109.311 126.381 109.528 126.733C109.734 127.08 110.132 127.433 110.609 127.486C111.096 127.525 111.395 127.442 111.759 127.413C112.108 127.374 112.452 127.34 112.796 127.325C113.485 127.291 114.178 127.335 114.871 127.423C116.257 127.589 117.638 127.907 119.01 128.244C120.376 128.587 121.703 129.036 122.976 129.618C123.615 129.907 124.24 130.234 124.893 130.542C125.542 130.851 126.289 131.115 127.071 131.105C128.58 131.031 129.937 130.523 131.293 130.396C131.967 130.342 132.571 130.479 132.989 130.968C133.427 131.447 133.786 132.083 134.208 132.66C134.626 133.247 135.103 133.814 135.668 134.293C136.229 134.772 136.873 135.163 137.556 135.442C137.9 135.574 138.249 135.696 138.608 135.775C138.962 135.882 139.33 135.921 139.694 135.97C140.431 136.029 141.183 136.009 141.901 135.823C143.346 135.457 144.639 134.645 145.583 133.476L145.598 133.452C145.671 133.335 145.637 133.183 145.519 133.105H145.509L138.283 128.533C137.182 127.198 135.796 126.122 134.169 125.501C133.348 125.183 132.458 125.085 131.623 124.997L129.091 124.733C127.41 124.538 125.734 124.279 124.132 123.78C123.33 123.531 122.554 123.208 121.856 122.773C121.153 122.342 120.543 121.76 120.165 121.051C119.998 120.69 119.845 120.308 119.806 119.902C119.742 119.506 119.762 119.095 119.776 118.67C119.806 117.829 119.865 116.988 119.939 116.147C120.007 115.306 120.096 114.465 120.145 113.614C120.189 112.768 120.204 111.898 120.017 111.047C119.929 110.622 119.762 110.206 119.526 109.829C119.295 109.453 118.965 109.135 118.646 108.861C117.997 108.304 117.319 107.785 116.63 107.287C115.289 106.314 113.912 105.389 112.516 104.499C113.804 102.695 114.767 100.676 115.293 98.5291C115.564 97.4338 115.682 96.3042 115.642 95.1747C115.598 94.05 115.362 92.9303 114.949 91.879C114.536 90.8277 113.932 89.8546 113.209 88.994C112.487 88.1334 111.715 87.3168 110.909 86.5344C109.414 85.092 107.802 83.7717 106.072 82.608C106.377 82.5444 106.681 82.4759 106.981 82.4075C107.689 82.2559 108.461 82.0114 109.134 81.6496C109.818 81.2926 110.452 80.8379 111.002 80.3098C112.103 79.2438 112.929 77.9578 113.583 76.6229C114.251 75.2928 114.733 73.8846 115.205 72.5203C115.677 71.1414 116.139 69.7625 116.576 68.3689L116.896 67.3176L117.048 66.7797C117.083 66.6624 117.078 66.6673 117.112 66.5841C117.137 66.5206 117.176 66.4472 117.21 66.3788C117.53 65.7773 117.923 65.1123 118.233 64.4375C118.882 63.0831 119.29 61.621 119.604 60.1932C119.786 59.3668 119.944 58.5356 120.066 57.6945C124.515 56.9659 128.968 56.252 133.432 55.5919C135.703 55.2594 137.979 54.9367 140.254 54.6629L141.96 54.477C142.516 54.4184 143.066 54.4184 143.612 54.477C144.693 54.6042 145.765 55.0051 146.502 55.7777L146.517 55.7924C146.561 55.8413 146.625 55.8706 146.699 55.8804C146.856 55.8951 146.994 55.7777 147.008 55.6261C147.092 54.6971 147.028 53.8365 146.935 52.9563L146.94 52.9514ZM105.846 50.3354C105.762 50.5163 105.63 50.6581 105.472 50.7413C105.315 50.8244 105.123 50.8635 104.976 50.8244C104.671 50.7608 104.415 50.4283 104.253 50.0714C104.175 49.8904 104.111 49.6948 104.076 49.509L103.958 48.844C103.885 48.4137 103.826 47.9883 103.855 47.5971C103.87 47.2059 103.948 46.8783 104.081 46.717C104.15 46.6241 104.243 46.5507 104.415 46.4871C104.592 46.4089 104.759 46.3845 104.917 46.3649C105.074 46.36 105.231 46.3845 105.389 46.4871C105.433 46.5116 105.472 46.5556 105.512 46.5898C105.492 46.6289 105.467 46.6681 105.448 46.7072C105.335 46.9663 105.325 47.2108 105.32 47.4358C105.344 47.8807 105.438 48.267 105.536 48.6338L105.684 49.1765C105.738 49.3819 105.821 49.5922 105.949 49.7877C105.959 49.8024 105.969 49.8122 105.979 49.822C105.954 50.0029 105.915 50.174 105.841 50.3305L105.846 50.3354ZM107.979 49.4895C107.753 49.7584 107.478 49.866 107.153 49.8611C106.844 49.8611 106.642 49.7144 106.524 49.465C106.465 49.3379 106.431 49.1912 106.411 49.0347L106.342 48.4871C106.303 48.1301 106.283 47.778 106.332 47.4798C106.357 47.338 106.387 47.2059 106.426 47.1228C106.465 47.0446 106.49 47.0104 106.539 46.9615C106.632 46.8734 107.045 46.8099 107.355 46.7903C107.527 46.7805 107.699 46.7854 107.871 46.8148C107.832 46.9761 107.807 47.1326 107.812 47.2793C107.832 47.6998 107.945 48.0763 108.117 48.4284C108.191 48.5653 108.274 48.6973 108.372 48.8293C108.269 49.0738 108.141 49.3037 107.984 49.4944L107.979 49.4895ZM117.107 55.2545C117.156 55.2545 117.206 55.2741 117.255 55.2887C117.24 55.5235 117.225 55.7582 117.196 55.9929C117.191 56.0369 117.181 56.0809 117.176 56.1249C117.132 55.8364 117.073 55.5381 116.979 55.235C117.019 55.2399 117.063 55.2496 117.107 55.2545ZM109.523 48.7511C109.414 48.756 109.326 48.7609 109.247 48.7022C109.08 48.6191 108.938 48.3697 108.859 48.1154C108.78 47.8563 108.761 47.5678 108.81 47.3282C108.825 47.2059 108.864 47.1081 108.893 47.025C108.913 47.0006 108.923 46.9566 108.943 46.9419C108.948 46.9321 108.952 46.9223 108.957 46.9126C108.972 46.8979 109.002 46.8734 109.021 46.8539C109.316 46.5605 109.763 46.3991 110.334 46.36C110.412 46.7023 110.55 47.0397 110.83 47.3429C110.869 47.3771 110.919 47.4064 110.963 47.4407C110.81 47.9785 110.427 48.4186 109.945 48.6093C109.813 48.6729 109.66 48.7169 109.528 48.7511H109.523ZM104.061 54.2179C104.366 53.8316 104.882 53.4844 105.359 53.1764C105.851 52.8683 106.367 52.5847 106.893 52.3207C107.168 52.1788 107.404 52.0615 107.65 51.9784C107.891 51.9001 108.141 51.8561 108.299 51.8806C108.377 51.8904 108.422 51.9148 108.456 51.9344C108.471 51.9441 108.485 51.9588 108.505 51.9784L108.579 52.0908C108.667 52.2522 108.707 52.4184 108.687 52.6189C108.638 53.0199 108.328 53.4746 107.915 53.7876C107.458 54.1201 106.952 54.433 106.421 54.7069C106.421 54.7069 106.391 54.7362 106.391 54.7558C106.391 54.7851 106.416 54.8047 106.446 54.8047C107.07 54.7753 107.669 54.614 108.254 54.3646C108.864 54.0859 109.429 53.5822 109.641 52.8096C109.675 52.6825 109.685 52.5505 109.69 52.4136C111.15 51.7877 112.614 51.1667 114.074 50.5457C113.893 51.1227 113.686 51.6899 113.465 52.2277C113.312 52.5749 113.057 52.8634 112.973 53.2204C112.9 53.4942 112.836 53.768 112.806 54.1005C112.59 54.0419 112.359 54.0321 112.138 54.0516C111.823 54.0712 111.499 54.2277 111.263 54.4428C111.022 54.6629 110.874 54.9367 110.776 55.2007C110.747 55.2887 110.722 55.3719 110.697 55.4599C110.555 55.2985 110.383 55.1567 110.171 55.0589C109.818 54.8976 109.424 54.9073 109.1 54.9905C108.933 55.0149 108.766 55.1029 108.598 55.1763C108.446 55.2839 108.289 55.3914 108.181 55.5479C107.955 55.8413 107.837 56.1934 107.812 56.5161C107.797 56.6481 107.797 56.7801 107.797 56.9073C106.563 56.9757 105.349 57.1371 104.145 57.3229C104.253 57.2447 104.356 57.1518 104.386 57.0148C104.42 56.8681 104.435 56.697 104.371 56.5014C104.646 56.5894 104.932 56.6041 105.207 56.6188H105.212H105.222L106.745 56.4281C106.77 56.4281 106.79 56.4036 106.79 56.3792C106.79 56.3498 106.765 56.3303 106.736 56.3303L105.217 56.3547C104.651 56.3009 104.071 56.0907 103.86 55.6408C103.644 55.2056 103.776 54.6335 104.071 54.2277L104.061 54.2179ZM108.49 59.9634C108.535 60.2176 108.554 60.4866 108.505 60.6822C108.485 60.7604 108.456 60.8044 108.426 60.8386C108.392 60.8289 108.353 60.8142 108.308 60.7946C108.077 60.6871 107.832 60.5306 107.581 60.3839C107.08 60.0905 106.554 59.7922 105.974 59.5918C105.87 59.5526 105.762 59.5282 105.649 59.4988L108.22 59.049C108.235 59.093 108.249 59.137 108.264 59.181C108.363 59.4646 108.446 59.6993 108.49 59.9634ZM100.05 56.5112C100.483 56.4085 100.827 56.1151 101.215 55.9049C101.599 55.6946 101.982 55.4746 102.361 55.2496C102.661 55.0589 102.965 54.878 103.27 54.6873C103.201 55.0785 103.246 55.4892 103.472 55.8462C103.585 56.032 103.747 56.1738 103.919 56.2863C103.742 56.3401 103.624 56.4036 103.516 56.4867C103.363 56.5894 103.378 56.8095 103.304 56.9806L103.093 57.4892C101.869 57.7092 100.665 58.0221 99.4556 58.3106C99.4409 58.2177 99.4261 58.1297 99.4163 58.0368C99.3721 57.7728 99.318 57.5087 99.259 57.2496C99.2148 57.054 99.2148 56.8339 99.146 56.6481C99.4655 56.6481 99.7604 56.5943 100.05 56.5161V56.5112ZM102.675 61.3863C102.69 61.4841 102.72 61.5868 102.788 61.6944C102.828 61.7481 102.862 61.8019 102.931 61.8459C102.96 61.8655 103 61.8948 103.024 61.9046L103.078 61.9291C103.354 62.0562 103.639 62.154 103.929 62.2371C104.219 62.3203 104.514 62.374 104.769 62.4474C105.03 62.5207 105.236 62.6234 105.423 62.7897C105.605 62.951 105.777 63.1809 105.959 63.4058L106.504 64.0855C106.755 64.3837 107.016 64.6869 107.311 64.9607C106.824 65.88 106.278 66.77 105.649 67.5768C105.325 68.0071 104.981 68.4129 104.592 68.7356C104.194 69.0682 103.752 69.3615 103.295 69.6354C102.38 70.1879 101.368 70.5742 100.434 71.1072C99.667 71.5375 98.8953 71.9727 98.1432 72.4714C98.0842 72.4079 98.0252 72.3443 97.9613 72.2905C97.8286 72.1536 97.6811 72.046 97.5288 71.9433C96.934 71.5326 96.3048 71.249 95.6707 71.0192C94.3927 70.5644 93.095 70.2613 91.7825 70.0461C91.1337 69.9141 90.4701 69.8505 89.8163 69.7527C89.1724 69.6745 88.5629 69.5082 87.9927 69.2002C87.4225 68.9019 86.8965 68.5107 86.4197 68.0609C86.3755 68.0217 86.3312 67.9777 86.2919 67.9337C87.7764 67.6403 89.2609 67.3127 90.7355 66.9607C92.2249 66.589 93.7045 66.1832 95.1742 65.7284C95.9116 65.4986 96.644 65.2688 97.3764 65.0047C97.7401 64.8727 98.099 64.7211 98.4627 64.5647L98.5954 64.506C98.6446 64.4815 98.7183 64.4375 98.7773 64.3984C98.9149 64.3153 98.969 64.2517 99.0624 64.1735C99.2197 64.0268 99.3622 63.8801 99.495 63.7334C100.021 63.1368 100.478 62.5207 100.906 61.8802C101.284 61.313 101.628 60.736 101.943 60.115L103.314 59.89C103.024 60.1345 102.798 60.4621 102.71 60.8386C102.665 61.0049 102.646 61.1858 102.675 61.3814V61.3863ZM89.6983 63.1222C89.9146 62.6185 90.0916 62.11 90.185 61.5477C90.1899 61.5134 90.1948 61.4743 90.1997 61.4352C91.6842 61.4841 93.149 61.3961 94.6089 61.269C96.1721 61.1418 97.7106 60.8093 99.2541 60.5599L101.623 60.1736C100.64 61.1174 99.7014 62.1247 98.7576 63.0391C98.6298 63.1662 98.4971 63.2884 98.3693 63.3911C98.3152 63.4302 98.2317 63.5085 98.2022 63.5182C98.1776 63.528 98.1727 63.5427 98.1383 63.5574L98.0105 63.6112C97.6713 63.7676 97.3371 63.9339 96.988 64.0806C96.3097 64.4033 95.6068 64.6869 94.899 64.9656C93.4833 65.5084 92.0381 66.0071 90.588 66.4766C89.138 66.9607 87.683 67.4203 86.2132 67.8457C86.2132 67.8457 86.2083 67.8506 86.2034 67.8555C85.82 67.4741 85.4759 67.0487 85.1122 66.6477C86.0166 66.4912 86.9211 66.2321 87.7223 65.6942C88.6366 65.0536 89.2658 64.105 89.6983 63.1173V63.1222ZM67.436 40.1989C67.3327 39.9544 67.2148 39.7148 67.0722 39.485C66.797 39.0253 66.4627 38.5902 66.0695 38.2136C65.6762 37.8371 65.2338 37.5046 64.7472 37.2406C64.6489 37.1868 64.5506 37.1379 64.4473 37.0939C64.934 37.0645 65.4255 37.0792 65.9023 37.1379C66.792 37.2552 67.6424 37.5437 68.4289 37.9447C69.2351 38.331 69.997 38.7809 70.6655 39.3627C70.8965 39.5681 71.1128 39.7979 71.3192 40.0375C71.2799 40.0229 71.2406 40.0033 71.2013 39.9935C70.9014 39.8957 70.5868 39.8468 70.2771 39.8468C69.9675 39.8322 69.6529 39.8517 69.3481 39.9055C68.7337 40.0033 68.134 40.2136 67.5834 40.5069C67.5785 40.5069 67.5736 40.5118 67.5687 40.5167L67.4311 40.2087L67.436 40.1989ZM68.2667 44.2672C72.6317 43.6071 74.2096 45.8759 74.2096 45.8759C74.2096 45.8759 74.8731 46.7903 73.718 48.1839C73.2019 48.8098 72.6415 49.1178 72.1745 49.2694C72.204 49.201 72.2335 49.1325 72.2581 49.0641C72.3957 48.6289 72.4203 48.1301 72.1696 47.7096C71.4814 46.8441 70.4738 46.2769 69.4022 45.9346C68.3208 45.607 67.1558 45.5092 66.035 45.6608C65.3665 45.7439 64.698 45.915 64.059 46.1644C64.8848 45.4065 66.2218 44.5752 68.2667 44.2623V44.2672ZM66.1924 46.6289C67.2099 46.4334 68.2519 46.3062 69.294 46.4285C70.3214 46.5507 71.393 46.9517 72.091 47.7683C72.3171 48.135 72.3269 48.624 72.1745 49.0347C72.145 49.1276 72.1008 49.2156 72.0615 49.3037C71.5503 49.4455 71.1865 49.4015 71.1865 49.4015C71.1865 49.4015 70.636 47.9932 68.6452 47.3135C67.1214 46.7952 65.047 47.1228 63.8575 47.3918C64.5948 47.0446 65.3813 46.7903 66.1973 46.6241L66.1924 46.6289ZM103.049 120.367C102.769 120.792 102.464 121.208 102.1 121.555C101.727 121.892 101.289 122.161 100.837 122.396C100.385 122.631 99.9079 122.831 99.4311 122.998C99.3868 123.012 99.3573 123.056 99.3622 123.105V123.115C99.4065 123.447 99.3033 123.834 99.1509 124.161C98.9936 124.499 98.7871 124.812 98.5463 125.1C98.0645 125.677 97.4698 126.161 96.8504 126.596C95.6068 127.477 94.201 128.102 92.8639 128.89C91.522 129.667 90.303 130.684 89.2953 131.863C88.2728 133.041 87.4962 134.484 87.2553 136.058C87.0243 137.633 87.3094 139.232 87.8599 140.694C88.4252 142.156 89.2461 143.505 90.1948 144.733C90.1997 144.742 90.2096 144.747 90.2145 144.757C89.6738 144.83 88.6169 144.899 87.8649 144.508C86.8179 143.96 85.6332 141.349 85.6332 141.349C85.6332 141.349 86.2968 141.3 86.7441 140.669C87.1914 140.034 86.1297 138.254 85.8692 135.281C85.6135 132.308 86.3558 130.782 88.3466 129.08C90.3374 127.374 92.3871 124.523 92.3871 124.523L93.6258 124.504C94.8645 124.484 96.6489 122.029 96.8455 119.902C96.9881 118.367 97.8286 117.208 98.2857 116.685C98.62 116.763 98.9493 116.841 99.2836 116.915C100.576 117.203 101.771 117.986 102.906 118.787L103.649 119.335C103.467 119.687 103.27 120.034 103.049 120.367ZM110.815 86.6273C112.374 88.2116 114.006 89.8399 114.787 91.9377C115.185 92.9694 115.411 94.0696 115.451 95.1747C115.48 96.2798 115.357 97.3946 115.087 98.4704C114.546 100.622 113.553 102.666 112.241 104.451V104.46C112.202 104.519 112.221 104.597 112.28 104.636C113.706 105.556 115.107 106.504 116.473 107.507C117.151 108.01 117.825 108.524 118.459 109.076C118.779 109.355 119.064 109.634 119.28 109.981C119.491 110.323 119.644 110.705 119.722 111.106C119.894 111.908 119.88 112.753 119.83 113.585C119.776 114.421 119.688 115.262 119.609 116.108C119.531 116.949 119.467 117.8 119.432 118.646C119.413 119.066 119.388 119.501 119.457 119.941C119.501 120.382 119.658 120.807 119.845 121.208C120.258 121.995 120.922 122.626 121.659 123.086C122.396 123.55 123.202 123.887 124.018 124.147C125.66 124.67 127.356 124.939 129.047 125.144L131.583 125.423C132.429 125.516 133.255 125.614 134.022 125.917C135.545 126.499 136.892 127.565 137.915 128.821L136.17 129.677C136.17 129.677 136.627 128.797 135.526 127.75C134.425 126.704 131.706 126.562 128.231 126.631C124.756 126.694 120.912 124.357 120.912 124.357C120.912 124.357 121.143 123.257 119.226 122.856C116.232 122.225 116.267 118.401 116.586 117.061C117.117 114.871 115.254 114.113 115.254 114.113C115.254 114.113 117.407 111.379 115.062 109.912C112.344 108.211 110.683 106.724 110.683 106.724C110.683 106.724 112.344 104.524 109.675 102.275C107.964 100.837 112.669 97.2284 102.439 92.1528C92.2102 87.0821 89.2559 83.5712 89.2559 83.5712L90.6913 83.3121C91.7481 83.3756 92.8 83.4294 93.8569 83.4686C95.3217 83.5077 96.7767 83.537 98.2464 83.5028C99.7162 83.4637 101.181 83.3512 102.641 83.1703C103.747 83.0334 104.848 82.8524 105.939 82.6226C107.684 83.8011 109.311 85.1506 110.815 86.6176V86.6273ZM119.324 55.7435C119.201 57.1518 118.936 58.5698 118.621 59.9683C118.302 61.3716 117.908 62.7212 117.294 63.9877C116.994 64.6331 116.635 65.215 116.272 65.8996C116.227 65.9925 116.183 66.0805 116.139 66.1881C116.1 66.2712 116.05 66.4521 116.036 66.5108L115.893 67.0242L115.583 68.0609C115.161 69.4398 114.708 70.8187 114.242 72.1878C113.77 73.5667 113.322 74.9212 112.713 76.2023C112.108 77.4835 111.356 78.6863 110.378 79.6692C109.39 80.6471 108.176 81.3073 106.785 81.6104C105.389 81.9674 103.963 82.2363 102.538 82.4613C101.107 82.6813 99.667 82.8329 98.2169 82.916C96.7718 82.9942 95.3119 83.004 93.8569 83.0089C93.4046 83.0089 92.9524 83.0089 92.4953 83.0089L106.598 80.4809C106.598 80.4809 101.805 79.6447 95.2086 78.3538C91.0157 77.5324 87.5699 80.3831 82.7773 78.0751C76.3576 74.9848 76.0086 70.8627 72.8824 68.9166C72.9856 68.8334 73.0839 68.7356 73.1724 68.6232C73.3248 68.4178 73.4132 68.1538 73.4329 67.8946C73.4329 67.6306 73.3887 67.4105 73.2953 67.1856C73.2019 66.9655 73.0642 66.7553 72.8824 66.5939C72.5088 66.2663 72.086 66.1147 71.6092 66.0805C71.5158 66.0756 71.4126 66.1098 71.3438 66.1832L71.3242 66.2027C70.7245 66.8629 69.8741 67.3812 68.9942 67.6306C68.1045 67.875 67.146 67.8115 66.271 67.4936C65.3862 67.1758 64.5997 66.6428 63.8329 66.0169C63.4495 65.7138 63.0759 65.4008 62.7269 65.0683C62.5549 64.9021 62.3828 64.7309 62.2255 64.5598C62.1469 64.4718 62.0731 64.3837 62.0043 64.2957C61.9699 64.2517 61.9404 64.2077 61.9109 64.1637C61.8864 64.1295 61.8519 64.0561 61.8569 64.0757L61.4243 63.885C61.2424 63.9583 60.9229 64.0023 60.6526 64.0023C60.3675 64.0023 60.0824 63.9779 59.7923 63.9339C59.2221 63.841 58.6323 63.6796 58.1063 63.4547C57.5755 63.2249 57.0741 62.9168 56.6268 62.5452C56.3564 62.3154 56.0959 62.0562 55.8599 61.7873C57.1134 61.9437 58.3668 61.9926 59.6301 61.9193C60.3773 61.8753 61.1195 61.7775 61.8569 61.6112C62.2206 61.5428 62.5942 61.4059 62.9383 61.313C63.2774 61.2103 63.6264 61.1223 63.9754 61.0734C65.3764 60.8338 66.8166 61.1956 68.0062 61.9829C68.3159 62.1736 68.5764 62.3887 68.891 62.6185C69.2056 62.8483 69.5496 63.039 69.9183 63.1662C70.6163 63.4107 71.3536 63.4742 72.0959 63.3373C72.44 63.6405 72.9315 63.7725 73.3788 63.6356C73.4968 63.5965 73.6049 63.5476 73.7131 63.4889C73.7721 63.4449 73.8311 63.396 73.8851 63.3422C73.9343 63.2884 73.9589 63.2249 73.9982 63.1662C74.1063 62.9217 74.126 62.6821 74.1162 62.4621C74.1014 62.0122 74.008 61.5966 73.895 61.1809C73.7967 60.824 73.6787 60.4768 73.546 60.1296C74.008 59.8851 74.3914 59.5477 74.6765 59.1223C75.0009 58.648 75.1582 58.0808 75.1779 57.5185C75.1877 56.9562 75.0599 56.3743 74.7503 55.8951C74.4947 55.4843 74.1407 55.1518 73.7229 54.9025C74.185 54.5602 74.6126 54.1788 74.9616 53.7093C75.1582 53.4453 75.3352 53.1275 75.3696 52.7705C75.3991 52.4771 75.3401 52.1935 75.1976 51.9295C75.6006 51.8121 75.9939 51.6752 76.3822 51.5138C76.8246 51.328 77.2572 51.108 77.6553 50.8244C77.9699 50.5946 78.2943 50.2914 78.4467 49.9002C79.3168 50.2718 80.0639 50.8733 80.5801 51.6019C80.7275 51.817 80.8504 52.0322 80.9733 52.2669C81.1011 52.5211 81.2387 52.7705 81.3862 53.0199C81.6861 53.5089 82.0596 54.0223 82.6003 54.3841C82.8658 54.5651 83.141 54.702 83.3917 54.8242L84.1438 55.1763C84.424 55.3034 84.7238 55.4208 85.0778 55.4697C85.4218 55.5283 85.8495 55.455 86.0166 55.4306C86.1002 55.4208 86.1297 55.4306 86.1985 55.4501C86.228 55.455 86.2673 55.4795 86.3066 55.499C86.3263 55.5186 86.3165 55.5088 86.3263 55.5088C86.3312 55.4941 86.3804 55.6604 86.3263 55.8755C86.2427 56.3058 86.0019 56.8046 85.7512 57.23L85.7364 57.2544C85.7217 57.2838 85.7069 57.3131 85.6971 57.3473C85.6234 57.5869 85.7561 57.8363 85.997 57.9097C86.3607 58.0221 86.7539 58.1786 87.1177 58.3498C87.4864 58.5258 87.8403 58.7214 88.1745 58.9463C88.3417 59.0588 88.5039 59.1761 88.6563 59.3033C88.7349 59.3668 88.8086 59.4304 88.8824 59.4988L88.9905 59.5966L89.0544 59.67C89.1134 59.758 89.1281 59.802 89.0888 59.9194C89.0495 60.0269 88.9266 60.1785 88.8185 60.2665C88.7349 60.335 88.6808 60.4475 88.6907 60.5648C88.7054 60.7604 88.8774 60.9022 89.0692 60.8875H89.0888C89.4821 60.8533 89.6246 60.9413 89.5607 61.4645C89.5066 61.9388 89.3543 62.4376 89.1724 62.9021C88.8037 63.8361 88.2581 64.7309 87.4716 65.3519C86.6753 65.9534 85.6529 66.2663 84.6304 66.457C84.1192 66.5597 83.5933 66.633 83.0722 66.7797C82.8166 66.8482 82.5463 66.9851 82.3496 67.1514L81.7205 67.6257C81.7205 67.6257 81.6959 67.6697 81.7106 67.6941C81.7254 67.7186 81.7598 67.7235 81.7794 67.7088L82.4332 67.2687C82.6495 67.1073 82.8658 67.0193 83.1214 66.9558C83.6228 66.8433 84.1487 66.7993 84.6747 66.7211C84.8221 66.7015 84.9647 66.677 85.1122 66.6526C85.879 67.6892 86.7146 68.7356 87.8649 69.4251C88.4301 69.7821 89.0987 70.0119 89.7573 70.1341C90.3963 70.2759 91.0452 70.3786 91.6793 70.5498C92.9524 70.8431 94.2059 71.2245 95.3807 71.7282C95.9656 71.9776 96.526 72.2856 96.993 72.6524C97.1109 72.7453 97.224 72.8382 97.3125 72.9409C97.4157 73.0387 97.4894 73.1462 97.5583 73.2538C97.6172 73.3565 97.6713 73.4641 97.6861 73.557C97.7057 73.6059 97.691 73.645 97.7008 73.689C97.7008 73.6988 97.7008 73.7134 97.6959 73.7281L93.3162 74.2611C92.7509 74.3149 92.1905 74.2366 91.6645 74.0215C91.1386 73.8015 90.6028 73.5619 90.0572 73.3614C88.9708 72.9555 87.8452 72.6328 86.6851 72.4959C85.53 72.3687 84.3404 72.3981 83.2246 72.7795C83.2 72.7893 83.1853 72.8186 83.1951 72.8431C83.2049 72.8675 83.2344 72.8822 83.259 72.8773H83.2639C84.3503 72.5203 85.5349 72.5008 86.6704 72.6426C87.8108 72.7942 88.9217 73.1218 89.9933 73.5374C90.534 73.7428 91.0501 73.9824 91.5859 74.2122C92.1266 74.4469 92.746 74.5398 93.3309 74.4909C94.4959 74.3833 95.6265 74.2073 96.7816 74.1486C97.0864 74.1291 97.3911 74.1193 97.691 74.0997C97.7401 74.2269 97.8335 74.3344 97.9662 74.3882C98.2268 74.4958 98.5217 74.3736 98.6298 74.1144C98.6397 74.09 98.6446 74.0704 98.6495 74.0459C100.336 73.9579 102.022 73.8846 103.712 73.7917L104.583 73.733C104.73 73.7232 104.873 73.7085 105.025 73.689C105.089 73.689 105.212 73.6597 105.295 73.6254C105.379 73.5863 105.467 73.5178 105.526 73.4445C105.728 73.1511 105.816 72.9262 105.979 72.6817C106.126 72.4372 106.293 72.2269 106.465 71.9776C107.119 71.0094 107.704 70.0217 108.299 69.029L109.164 67.5279L109.582 66.7602C109.646 66.6281 109.714 66.501 109.778 66.3543C109.798 66.3152 109.872 66.1392 109.847 66.0218C109.842 65.8849 109.704 65.7284 109.616 65.6844C109.439 65.5817 109.311 65.5475 109.179 65.4937C109.046 65.4399 108.918 65.391 108.79 65.3324C108.53 65.215 108.289 65.0976 108.077 64.9412C107.645 64.6282 107.271 64.2028 106.912 63.7627L106.382 63.088C106.2 62.863 106.033 62.6283 105.787 62.3985C105.546 62.1736 105.226 62.0171 104.927 61.934C104.627 61.8459 104.351 61.7922 104.086 61.7139C103.821 61.6357 103.565 61.5428 103.314 61.4254C103.25 61.4499 103.201 61.2152 103.27 60.9902C103.383 60.5355 103.781 60.1736 104.258 60.0465C104.74 59.8998 105.266 59.978 105.777 60.159C106.288 60.3399 106.775 60.6186 107.266 60.912C107.517 61.0587 107.753 61.2152 108.048 61.357C108.127 61.3912 108.2 61.4254 108.308 61.4548C108.363 61.4645 108.422 61.4841 108.515 61.4743C108.554 61.4743 108.608 61.4645 108.667 61.4401C108.736 61.4108 108.741 61.401 108.771 61.3814C108.977 61.2396 109.075 61.0245 109.124 60.8484C109.282 60.1345 109.07 59.5282 108.889 58.9756C108.712 58.4378 108.559 57.8999 108.495 57.362C108.431 56.8388 108.456 56.2765 108.716 55.9587C108.771 55.8706 108.864 55.8217 108.943 55.7582C109.046 55.7239 109.129 55.6653 109.257 55.6506C109.488 55.5968 109.709 55.5968 109.886 55.6848C110.24 55.8413 110.491 56.3547 110.57 56.8192C110.599 56.9953 110.756 57.1273 110.938 57.1175C111.135 57.1077 111.292 56.9415 111.282 56.7459C111.263 56.3156 111.312 55.8266 111.464 55.4452C111.612 55.0443 111.867 54.8095 112.221 54.7753C112.6 54.7313 112.924 54.8976 113.17 55.2154C113.411 55.5332 113.573 55.988 113.642 56.3938C113.642 56.3938 113.642 56.4036 113.642 56.4134V56.4232V56.4281C113.681 56.6383 113.883 56.7752 114.089 56.7361C114.3 56.697 114.438 56.4965 114.399 56.2912C114.399 56.2863 114.399 56.2814 114.399 56.2716C114.305 55.6653 114.359 54.8731 114.728 54.614C114.812 54.5406 114.92 54.5064 115.048 54.4819C115.166 54.4624 115.333 54.4624 115.446 54.4819C115.677 54.5308 115.859 54.6824 116.001 54.9367C116.291 55.4648 116.36 56.1738 116.463 56.9024C116.478 56.9953 116.493 57.0931 116.517 57.2007C116.552 57.3131 116.547 57.406 116.68 57.6065C116.734 57.6652 116.763 57.719 116.886 57.7825C116.984 57.8412 117.132 57.8461 117.24 57.8217C117.422 57.7679 117.481 57.6945 117.555 57.6261C117.677 57.494 117.732 57.3767 117.781 57.274C117.953 56.8535 118.007 56.4867 118.066 56.1053C118.169 55.3621 118.203 54.5944 118.174 53.8658C118.174 53.5235 118.184 53.1764 118.262 52.9172C118.356 52.6532 118.415 52.5994 118.656 52.5603C118.882 52.5358 118.96 52.5798 119.103 52.7999C119.231 53.015 119.304 53.3377 119.349 53.6653C119.427 54.3255 119.403 55.0345 119.349 55.7386L119.324 55.7435Z" fill="#575756"/>
<path d="M60.5297 63.2591C61.0458 63.2737 61.6209 63.2053 62.1026 63.0928C62.5942 62.9901 63.0661 62.8679 63.5281 62.7603C64.4473 62.5305 65.3665 62.4767 65.9122 63.1124C65.981 63.1906 66.04 63.2737 66.1088 63.3666C66.1923 63.4742 66.2661 63.5916 66.3595 63.6943C66.5364 63.9045 66.7527 64.0952 66.9936 64.2517C67.4507 64.5353 68.0062 64.6331 68.542 64.4717C68.7484 64.6331 68.9499 64.8336 69.0483 65.0487C69.1072 65.1759 69.1269 65.2981 69.0876 65.4106C69.0532 65.5181 68.9499 65.6599 68.8467 65.7675C68.6403 65.9876 68.3306 66.0707 68.0062 66.0365C67.6768 66.012 67.3475 65.9044 67.0231 65.792C66.9985 65.7822 66.969 65.792 66.9592 65.8164C66.9493 65.8409 66.9592 65.8702 66.9837 65.8849C67.2983 66.0365 67.6178 66.1832 67.9767 66.2516C68.3257 66.3299 68.7632 66.2663 69.063 66.0022C69.2105 65.8751 69.3383 65.7529 69.4366 65.5377C69.53 65.3323 69.5103 65.0878 69.4366 64.8971C69.2891 64.506 69.0384 64.2321 68.7435 63.9779C68.6894 63.9339 68.6108 63.9094 68.537 63.9339L68.4879 63.9485C68.1241 64.0561 67.6572 63.9779 67.3377 63.7285C67.1705 63.6014 67.0231 63.4498 66.8953 63.2688C66.8264 63.1857 66.7773 63.083 66.7134 62.9901C66.6397 62.8777 66.5659 62.7505 66.4774 62.6381C66.1284 62.1784 65.5484 61.8361 64.9733 61.7579C64.3982 61.6601 63.8526 61.6992 63.3364 61.7726C62.8203 61.841 62.3287 61.9633 61.8519 62.0855C61.3702 62.2175 60.9573 62.3251 60.4805 62.3789C59.5466 62.4914 58.5684 62.4816 57.5705 62.3985C57.5705 62.3985 57.5312 62.4082 57.5214 62.4229C57.5066 62.4474 57.5214 62.4767 57.541 62.4914C58.4455 62.9804 59.4728 63.2297 60.5248 63.2591" fill="#575756"/>
</svg>
