<svg width="87" height="34" viewBox="0 0 87 34" fill="none" xmlns="http://www.w3.org/2000/svg">
<path d="M17.491 0C16.0801 0 14.0806 0.934386 12.5483 5.40992C11.4831 8.51196 10.8944 12.6137 10.8944 16.9585C10.8944 25.9002 8.35304 31.5997 6.6058 31.5997C4.85857 31.5997 2.31717 25.8909 2.31717 16.9585H0C0 21.3032 0.588659 25.405 1.65382 28.507C3.19549 32.9826 5.19493 33.9169 6.59645 33.9169C7.99797 33.9169 10.0069 32.9826 11.5392 28.507C12.6044 25.405 13.193 21.3032 13.193 16.9585C13.193 8.01674 15.7344 2.31717 17.4816 2.31717C19.2289 2.31717 21.7703 8.02609 21.7703 16.9585H24.0876C24.0876 12.6137 23.4989 8.51196 22.4337 5.40992C20.8921 0.934386 18.8925 0 17.491 0Z" fill="#575756"/>
<path d="M33.7763 0C32.3654 0 30.3658 0.934386 28.8335 5.40992C27.7683 8.51196 27.1797 12.6137 27.1797 16.9585C27.1797 21.3032 27.7683 25.405 28.8335 28.507C30.3752 32.9826 32.3747 33.9169 33.7763 33.9169C35.1778 33.9169 37.1865 32.9826 38.7189 28.507C39.784 25.405 40.3727 21.3032 40.3727 16.9585C40.3727 12.6137 39.784 8.51196 38.7189 5.40992C37.1772 0.934386 35.1778 0 33.7763 0ZM33.7763 31.609C32.029 31.609 29.4875 25.9002 29.4875 16.9678C29.4875 8.03544 32.029 2.32652 33.7763 2.32652C35.5235 2.32652 38.0649 8.03544 38.0649 16.9678C38.0649 25.9002 35.5235 31.609 33.7763 31.609Z" fill="#575756"/>
<path d="M67.6822 5.70732C66.0657 1.01689 63.9821 0.0265177 62.5152 0.0265177C61.0483 0.0265177 58.9647 1.00754 57.3483 5.70732C57.1241 6.36137 56.9185 7.05276 56.741 7.78155C56.5728 7.11816 56.3766 6.47354 56.171 5.87556C54.5546 1.18512 52.471 0.194637 51.0041 0.194637C49.7053 0.194637 47.9207 0.970165 46.407 4.41792V0.0078125H44.0898V17.7885C44.0898 17.8352 44.0898 17.8912 44.0898 17.9379V33.934H46.407V18.0781C46.407 8.58511 49.1354 2.52116 51.0041 2.52116C52.8728 2.52116 55.6011 8.58511 55.6011 18.0781V33.934H57.9183V17.91C57.9183 8.41699 60.6465 2.35304 62.5152 2.35304C64.3839 2.35304 67.1122 8.41699 67.1122 17.91V33.7752H69.4294V17.7792C69.4201 13.2382 68.8034 8.94952 67.6822 5.70732Z" fill="#575756"/>
<path d="M86.025 16.6781C85.997 12.4362 85.4177 8.44656 84.3712 5.40992C82.8295 0.934386 80.8301 0 79.4286 0C78.0271 0 76.0182 0.934386 74.4858 5.40992C73.4207 8.51196 72.832 12.6137 72.832 16.9585C72.832 21.3032 73.4207 25.405 74.4858 28.507C76.0275 32.9826 78.0271 33.9169 79.4286 33.9169C80.6432 33.9169 82.297 33.2162 83.7172 30.1608V33.9169H86.0344V16.6688L86.025 16.6781ZM79.4286 31.609C77.6814 31.609 75.1398 25.9002 75.1398 16.9678C75.1398 8.03544 77.6814 2.32652 79.4286 2.32652C81.1758 2.32652 83.7172 8.03544 83.7172 16.9678C83.7172 25.9002 81.1758 31.609 79.4286 31.609Z" fill="#575756"/>
</svg>
