<svg width="94" height="84" viewBox="0 0 94 84" fill="none" xmlns="http://www.w3.org/2000/svg">
<path d="M41.4662 55.4875C41.0924 55.0391 40.6626 54.8428 40.1581 54.8895C39.6535 54.9363 39.2611 55.2166 38.9901 55.7305C38.7192 56.2444 38.6164 56.8798 38.7005 57.6366C38.7752 58.3934 38.9901 58.9821 39.3545 59.4025C39.7096 59.823 40.1487 60.0098 40.6719 59.9631C41.1952 59.907 41.5876 59.6454 41.8492 59.1596C42.1202 58.6737 42.2136 58.0477 42.1389 57.2909C42.0641 56.5341 41.8399 55.936 41.4755 55.4782L41.4662 55.4875Z" fill="#575756"/>
<path d="M67.9648 18.2259L68.1611 18.7492L69.684 19.8329L68.0303 18.0391L67.9648 18.2259Z" fill="#575756"/>
<path d="M55.4336 47.016L59.9465 44.8296H59.9559V44.8203L55.4429 46.9973V47.016H55.4336Z" fill="#575756"/>
<path d="M47.0738 36.5625C47.0738 36.5625 47.0448 36.5915 47.0352 36.5915C47.0641 36.5915 47.0738 36.5722 47.0738 36.5625Z" fill="#575756"/>
<path d="M44.2901 23.7804C44.2434 24.014 44.2247 24.285 44.2621 24.612C44.2901 24.9203 44.4022 25.2754 44.4209 25.6304C44.4209 25.6585 44.4209 25.6771 44.4209 25.6958C44.4209 25.7145 44.4303 25.7332 44.4396 25.7519C44.4396 25.4062 44.4115 25.0978 44.3461 24.668C44.2714 24.1635 44.4022 23.4534 44.7199 23.089C44.7012 23.089 44.6919 23.0797 44.6732 23.0703C44.4957 23.2759 44.3742 23.5001 44.2807 23.7711L44.2901 23.7804Z" fill="#575756"/>
<path d="M49.4188 20.7016C49.5496 21.2062 49.7085 21.664 49.8487 22.1685C49.8954 22.3273 49.9514 22.4956 49.9795 22.6637C50.0075 22.7011 50.0262 22.7385 50.0449 22.7852C49.9515 21.8228 49.4188 20.9446 49.2507 20.0383C49.2413 19.9635 49.232 19.8794 49.2227 19.8047C49.2227 19.8514 49.2227 19.8981 49.2227 19.9449C49.2227 20.1785 49.3534 20.4494 49.4188 20.7016Z" fill="#575756"/>
<path d="M49.457 15.5294C49.4851 15.3706 49.5037 15.2025 49.5131 15.0156C49.4944 15.1745 49.4851 15.3426 49.457 15.5294Z" fill="#575756"/>
<path d="M47.9217 34.0471C47.8936 34.0004 47.8563 33.9537 47.8189 33.9163C47.6974 33.7949 47.2116 33.5519 46.707 33.1875C46.9686 33.3931 47.2957 33.6173 47.7161 33.8602C47.7909 33.8976 47.8563 33.963 47.9123 34.0378L47.9217 34.0471Z" fill="#575756"/>
<path d="M54.8177 14.0234C54.743 14.4813 54.7056 14.9858 54.6215 15.4437C54.4346 15.3596 54.3506 15.1633 54.2852 14.9578C54.3973 14.584 54.416 14.1169 54.8084 14.0234H54.8177Z" fill="#575756"/>
<path d="M50.7082 14.5934C50.7082 14.5934 51.054 14.5655 51.3062 14.5561L51.8108 13.1172L52.278 13.3975C52.4742 13.4629 52.4461 14.0889 52.1098 14.3785V14.3972L51.8108 14.6962L51.2222 14.8084C50.9512 14.8738 50.6055 14.827 50.6055 14.827L50.6989 14.6121L50.7082 14.5934Z" fill="#575756"/>
<path d="M47.7726 15.2703L48.3799 15.1301L48.4173 15.1114C48.5107 15.0367 48.6135 14.9525 48.6883 14.8404C48.7256 14.7843 48.8845 14.4107 48.9218 14.3359C48.9966 14.364 49.0527 14.4106 49.0994 14.476C49.1461 14.9712 48.9592 15.3077 48.6696 15.5132C48.5574 15.588 48.4266 15.5786 48.2211 15.5692L47.7539 15.4665L47.7726 15.2796V15.2703Z" fill="#575756"/>
<path d="M47.9327 31.3769C47.8019 31.2835 47.559 30.9471 47.5216 30.7135C47.4188 30.1061 47.5589 29.4521 47.615 28.8822C47.6711 28.3216 47.7832 27.7329 47.7925 27.1443C47.7925 26.8266 47.7552 26.4902 47.7739 26.1538C47.7926 25.8455 47.8579 25.4905 47.8112 25.2009C47.7739 24.9393 47.6617 24.6308 47.5589 24.3973C47.4094 24.0609 46.4097 21.4728 46.2695 20.9215C46.8115 20.7253 47.3721 20.5478 47.9046 20.3516C48.5026 21.3139 49.0259 22.3511 49.6239 23.3135V23.7433C49.5585 23.8554 49.4277 23.8647 49.3342 23.9394C49.0165 24.1917 48.6522 24.5562 48.4746 24.9299C47.9888 25.967 48.6895 27.2844 48.6148 28.2655C48.5774 28.7887 47.9607 29.3867 48.0075 29.8072C48.0262 29.966 48.1756 30.1249 48.2597 30.2931C48.5026 30.7696 48.7923 31.2461 48.9979 31.6946C48.6428 31.6479 48.185 31.5638 47.9233 31.3582L47.9327 31.3769Z" fill="#575756"/>
<path d="M30.6172 36.1562C30.6558 36.1659 30.6944 36.1756 30.6172 36.1562V36.1562Z" fill="#575756"/>
<path d="M35.457 32.4493C35.5505 32.3932 35.8214 32.225 35.457 32.4493V32.4493Z" fill="#575756"/>
<path d="M35.1146 30.7344C35.0024 30.7531 35.0492 30.7344 35.1146 30.7344V30.7344Z" fill="#575756"/>
<path d="M36.5985 31.3346C36.1781 31.5027 36.9442 31.1944 36.5985 31.3346V31.3346Z" fill="#575756"/>
<path d="M35.4584 32.4531C35.4208 32.4813 35.4302 32.4719 35.4584 32.4531V32.4531Z" fill="#575756"/>
<path d="M35.1133 30.7336C35.2072 30.7242 35.3482 30.7054 35.1133 30.7336V30.7336Z" fill="#575756"/>
<path d="M54.6239 15.4515C54.708 14.9936 54.736 14.4891 54.8201 14.0312C54.4277 14.1247 54.3997 14.5919 54.2969 14.9656C54.3529 15.1712 54.437 15.3674 54.6332 15.4515H54.6239Z" fill="#575756"/>
<path d="M51.2284 14.7913L51.817 14.6791L52.116 14.3801V14.3614C52.4524 14.0811 52.4711 13.4458 52.2842 13.3991L51.817 13.1094L51.3125 14.5483C51.0509 14.5577 50.7145 14.5856 50.7145 14.5856L50.6211 14.8006C50.6211 14.8006 50.9668 14.8566 51.2377 14.7819L51.2284 14.7913Z" fill="#575756"/>
<path d="M58.9577 16.5859C58.7989 16.8102 58.6307 17.184 58.6868 17.5577C58.7148 17.7539 58.883 17.866 58.9204 18.0249C58.9858 18.0529 59.0979 18.2305 59.1353 18.165C59.0605 17.6792 59.0792 17.1185 59.0605 16.5859H58.9671H58.9577Z" fill="#575756"/>
<path d="M48.2675 30.3009C48.1834 30.1327 48.0339 29.9738 48.0152 29.815C47.9685 29.3945 48.5852 28.7965 48.6226 28.2733C48.6973 27.2922 47.9965 25.9748 48.4824 24.9377C48.6599 24.564 49.0244 24.1902 49.342 23.9472C49.4355 23.8725 49.5756 23.8632 49.6317 23.7511V23.3213C49.0337 22.3589 48.5104 21.3124 47.9125 20.3594C47.3705 20.5556 46.8099 20.7331 46.2773 20.9293C46.4082 21.4712 47.4173 24.0594 47.5668 24.4051C47.6695 24.6387 47.7817 24.947 47.819 25.2086C47.8564 25.4982 47.791 25.8533 47.7816 26.1616C47.7629 26.498 47.8097 26.8438 47.8003 27.1521C47.8003 27.7408 47.6789 28.3294 47.6228 28.89C47.5667 29.4693 47.4266 30.114 47.5294 30.7213C47.5668 30.9549 47.8097 31.2913 47.9405 31.3847C48.2021 31.5903 48.6506 31.6744 49.015 31.7211C48.8094 31.2726 48.5198 30.7961 48.2769 30.3196L48.2675 30.3009Z" fill="#575756"/>
<path d="M25.6841 27.9367C25.6841 27.9367 25.0768 27.6097 24.9646 26.7034C24.8712 25.8812 25.3197 25.143 26.0018 24.7506C27.5528 23.8723 28.4031 24.2648 28.4872 24.2648C29.1973 24.5264 29.2627 25.087 29.3842 25.2832C29.6177 25.0963 29.2346 24.3862 29.0944 24.218C28.8328 23.9003 28.4685 23.6761 28.0667 23.5826C27.2445 23.3864 24.4507 23.9658 24.4414 26.1241C24.4414 27.4135 25.2823 28.0862 25.6748 27.9367H25.6841Z" fill="#575756"/>
<path d="M26.4986 30.8413C26.0688 31.5141 25.9006 31.8131 25.7885 32.1588C25.5456 32.8689 25.368 33.3267 25.4241 34.1022C25.8446 33.2052 26.265 32.2896 26.8256 31.4674C27.2087 30.9815 27.6386 30.6265 28.0964 30.2808C28.4701 29.9911 28.8719 29.7389 29.2643 29.4866C29.5259 29.3277 30.4603 28.6083 31.8805 28.1131C31.6189 28.0477 31.3853 28.1131 31.1891 28.0851C31.1704 28.0851 31.1517 28.0757 31.1237 28.0664C30.9929 28.029 30.8807 27.9449 30.8153 27.7113C30.6658 27.2067 30.4322 25.581 30.2921 25.0765C29.9744 23.9272 29.4885 23.6843 29.4231 23.6562C29.4231 23.6562 29.5446 23.8058 29.6754 24.0207C29.6848 24.0393 29.6941 24.058 29.7128 24.086C29.7315 24.114 29.7408 24.1327 29.7595 24.1607C29.7688 24.1794 29.7782 24.1981 29.7876 24.2168C29.8903 24.4131 29.9744 24.628 30.0211 24.8522C30.3482 26.6369 28.5168 27.6926 27.7039 28.1038C26.8817 28.5242 25.9754 28.7017 25.1905 28.2532C23.9198 27.5244 24.1347 26.2538 24.0693 26.0108C24.0693 26.0389 24.0693 26.0575 24.06 26.0855C23.5928 28.1411 25.9847 29.3184 26.7229 29.6828C27.0219 29.8229 27.1153 29.9537 27.0125 30.1686C26.9938 30.2154 26.9658 30.2528 26.9377 30.3088C26.8163 30.4957 26.6388 30.6451 26.5173 30.832L26.4986 30.8413Z" fill="#575756"/>
<path d="M36.385 27.7431C33.9183 27.4441 32.9559 28.0141 33.1241 28.0047C37.2913 27.8085 38.7956 28.7335 40.1597 29.3875C39.8887 29.1072 39.5337 28.8269 39.1226 28.6307C38.1696 28.1635 37.3006 27.8645 36.3756 27.7524L36.385 27.7431Z" fill="#575756"/>
<path d="M30.6272 36.1623C30.458 36.1247 30.5614 36.1435 30.6272 36.1623V36.1623Z" fill="#575756"/>
<path d="M32.5352 37.6985C32.5352 37.7919 32.5912 37.8665 32.6099 37.9506C32.6846 38.1842 32.7314 38.4365 32.8248 38.6514C33.049 38.7168 33.2359 38.8103 33.4695 38.8664C33.7592 38.7356 33.7685 38.2871 34.0114 38.0255C34.1889 37.8386 34.7495 37.5489 35.0672 37.717C35.1793 37.7731 35.17 37.932 35.3382 37.932C35.497 37.3341 34.7776 37.4555 34.7963 36.9322C34.9925 36.708 35.3101 36.7361 35.7119 36.7361C35.7773 36.8295 35.768 37.007 35.8707 37.0724C36.0015 37.0911 36.1791 37.0724 36.2632 36.9977C36.3099 36.5025 36.0109 36.1941 35.8334 36.0819C35.6559 35.9698 34.6374 35.5961 34.2917 35.7736C34.2076 35.9138 34.1236 36.0446 34.0582 36.2034C33.8152 36.2968 33.5909 36.5211 33.32 36.4931C33.0397 36.4744 33.0397 36.2127 32.8341 36.0819C32.6379 36.3529 32.7781 36.7267 32.7407 37.0818C32.7127 37.306 32.5445 37.5021 32.5445 37.7077L32.5352 37.6985Z" fill="#575756"/>
<path d="M35.7934 37.9905C35.7187 38.0372 35.6812 38.1773 35.6345 38.2427C35.5691 38.3268 35.4944 38.4296 35.4196 38.4576C35.2047 38.5417 34.859 38.4763 34.6628 38.4763C34.3078 38.8501 34.0742 39.093 33.7845 39.719C33.4949 40.345 33.6725 40.5132 33.5884 40.5973C33.4389 40.7375 33.2053 40.7561 33.28 41.0271C33.3174 41.1766 33.5416 41.2326 33.7098 41.1392C33.9714 40.9991 34.2517 40.4011 34.6068 40.0274C35.1487 39.4948 35.5318 39.4668 35.8775 39.3079C36.1952 39.1584 36.4194 38.8407 36.7184 38.6819C37.9237 38.0465 38.6432 38.579 38.9235 38.4109C39.2038 38.2427 38.9421 37.8129 38.6151 37.953C38.1479 37.8222 37.7462 37.6635 37.1669 37.7009C36.7745 37.7289 36.5409 37.7755 36.2512 37.8596C36.0831 37.9063 35.8775 37.925 35.8028 37.9811L35.7934 37.9905Z" fill="#575756"/>
<path d="M36.943 39.0685C36.6534 39.2461 36.4665 39.5263 36.1675 39.6945C35.9433 39.8159 35.7284 39.9001 35.5228 40.0309C34.9435 40.3953 34.5324 40.8999 34.0372 41.3203C33.9905 41.4885 34.7473 41.638 35.1117 41.5259C35.2332 41.4885 35.3079 41.4418 35.4387 41.3016C35.5789 41.1615 35.7471 40.9092 35.8499 40.7971C36.0928 40.5541 36.3544 40.3206 36.6254 40.1431C36.859 39.9936 37.2887 39.844 37.569 39.7412C37.84 39.6478 38.1017 39.7039 38.3072 39.5638C38.4287 39.489 38.5408 39.3021 38.6436 39.1713C38.7557 39.0311 38.8491 38.8909 38.9145 38.7601C38.1577 38.6387 37.4102 38.7976 36.943 39.0685Z" fill="#575756"/>
<path d="M65.7594 3.89244L61.125 1.64062L65.7594 3.90179V3.89244Z" fill="#575756"/>
<path d="M48.6696 15.4898C48.9592 15.2936 49.1461 14.9572 49.0994 14.4527C49.0527 14.3873 48.9966 14.3405 48.9218 14.3125C48.8845 14.3872 48.7256 14.7609 48.6883 14.817C48.6135 14.9384 48.5107 15.0226 48.4173 15.088L48.3799 15.1067L47.7726 15.2468L47.7539 15.4337L48.2211 15.5364C48.4266 15.5364 48.5574 15.5552 48.6696 15.4804V15.4898Z" fill="#575756"/>
<path d="M80.363 75.8424C80.363 75.8424 80.3256 75.8143 80.3069 75.7956C79.9519 75.5247 79.5874 75.2444 79.223 74.9734C79.1483 74.9173 79.0736 74.8613 78.9988 74.8053C78.6157 74.525 78.2327 74.254 77.8496 73.983C77.4104 73.6747 76.9619 73.3757 76.5041 73.0861C76.3453 72.9833 76.1864 72.8898 76.0369 72.787C75.7379 72.6002 75.4389 72.404 75.1306 72.2171C74.9437 72.105 74.7569 71.9929 74.57 71.8901C74.2897 71.7219 74.0094 71.5631 73.7197 71.3949C73.5235 71.2828 73.318 71.1707 73.1218 71.0679C72.9536 70.9744 72.7854 70.881 72.6172 70.7969V78.8884L76.2985 77.4401L80.3723 75.8424H80.363Z" fill="#575756"/>
<path d="M13.5384 75.1657C13.3703 75.2965 13.1927 75.4272 13.0246 75.5581C12.9498 75.6141 12.8751 75.6702 12.791 75.7356C12.7443 75.773 12.7069 75.801 12.6602 75.8384L20.9291 78.9125V70.5312C20.7423 70.634 20.5461 70.7275 20.3592 70.8303C20.1536 70.9424 19.9387 71.0545 19.7332 71.1667C19.4249 71.3348 19.1258 71.5123 18.8175 71.6898C18.6213 71.802 18.4251 71.9142 18.2382 72.0263C17.9018 72.2225 17.5748 72.428 17.2478 72.6335C17.0889 72.7363 16.9301 72.8298 16.762 72.9326C16.2761 73.2409 15.7995 73.5586 15.323 73.8856C15.0614 74.0632 14.8091 74.2407 14.5569 74.4275C14.4728 74.4836 14.3981 74.5397 14.314 74.5958C14.1364 74.7266 13.9589 74.848 13.7907 74.9788C13.7066 75.0442 13.6225 75.1096 13.5291 75.1751L13.5384 75.1657Z" fill="#575756"/>
<path d="M28.4992 72.6422C28.5833 72.6422 28.6861 72.6422 28.7982 72.6422C28.9103 72.6422 29.0224 72.6609 29.1439 72.6889C29.2654 72.717 29.3775 72.745 29.4989 72.801C29.6111 72.8478 29.7138 72.9131 29.8072 72.9972C29.8913 73.072 29.9754 73.1841 30.0595 73.3336C30.1436 73.4831 30.1904 73.698 30.1904 73.9783C30.1904 74.0998 30.1717 74.2586 30.1343 74.4362C30.0969 74.6137 30.0035 74.7819 29.854 74.9407C29.7325 75.0622 29.583 75.1556 29.4055 75.221C29.2279 75.2864 29.0598 75.3331 28.8822 75.3612V75.4359C29.0317 75.4545 29.1906 75.5013 29.3775 75.5854C29.5643 75.6601 29.7045 75.7722 29.8166 75.903C29.9007 76.0058 29.9661 76.146 30.0035 76.3049C30.0502 76.4637 30.0782 76.6505 30.0876 76.8467L30.1343 77.5288C30.1343 77.6035 30.1436 77.669 30.1529 77.7438C30.1529 77.8185 30.1717 77.8839 30.1904 77.9493C30.209 78.0147 30.237 78.0615 30.2744 78.0988C30.3118 78.1362 30.3679 78.1549 30.4333 78.1549C30.4894 78.1549 30.5454 78.1269 30.6015 78.0801L30.6762 78.2576C30.6201 78.295 30.5454 78.3417 30.4426 78.3978C30.3398 78.4539 30.1904 78.4725 30.0128 78.4725C29.8446 78.4725 29.7138 78.4539 29.6297 78.4071C29.5456 78.3698 29.4803 78.323 29.4335 78.2763C29.4242 78.267 29.4055 78.239 29.3775 78.211C29.3494 78.1829 29.3307 78.1268 29.3027 78.0614C29.2747 77.996 29.2466 77.9119 29.2279 77.8091C29.1999 77.7064 29.1812 77.5755 29.1719 77.4167L29.0971 76.5197C29.0971 76.4637 29.0878 76.389 29.0785 76.3142C29.0785 76.2395 29.0598 76.1554 29.0504 76.0806C29.0411 76.0059 29.0224 75.9311 28.9944 75.8564C28.9663 75.7816 28.929 75.7255 28.8822 75.6694C28.8355 75.6134 28.7701 75.5761 28.6954 75.5387C28.6206 75.5014 28.5178 75.4826 28.3964 75.4826H27.8638V78.2016H28.3871V78.3978H26.4062V78.2016H26.9201V72.8291H26.4062V72.6328H28.5178L28.4992 72.6422ZM28.2749 75.2958C28.3684 75.2958 28.4711 75.2864 28.5926 75.2584C28.7141 75.2304 28.8169 75.1743 28.9009 75.0716C28.985 74.9781 29.0411 74.8567 29.0598 74.7072C29.0878 74.5577 29.0971 74.4174 29.0971 74.296V73.7822C29.0971 73.6607 29.0878 73.5298 29.0598 73.3803C29.0317 73.2308 28.9663 73.1 28.8355 72.9972C28.7608 72.9412 28.6767 72.8944 28.5832 72.8664C28.4805 72.8384 28.3777 72.8198 28.2749 72.8198H27.8264V75.2864H28.2562L28.2749 75.2958Z" fill="#575756"/>
<path d="M30.9953 74.0824C31.1635 73.6993 31.3504 73.391 31.5746 73.1668C31.7895 72.9332 32.0044 72.7837 32.2006 72.6996C32.4062 72.6155 32.5931 72.5781 32.7612 72.5781C33.0229 72.5781 33.2564 72.6341 33.4527 72.7556C33.6489 72.8771 33.817 73.0079 33.9665 73.1668C34.1441 73.363 34.2842 73.5592 34.3964 73.7648C34.5085 73.9703 34.5925 74.1852 34.6486 74.3907C34.7046 74.5963 34.7514 74.8018 34.7701 74.9981C34.7887 75.1943 34.7981 75.3719 34.7981 75.5307C34.7981 75.6148 34.7981 75.7549 34.7794 75.9324C34.7701 76.1099 34.7327 76.3155 34.686 76.5398C34.6299 76.764 34.5552 76.9976 34.4431 77.2312C34.3309 77.4741 34.1721 77.6983 33.9759 77.9132C33.8544 78.0347 33.7423 78.1375 33.6302 78.2123C33.5181 78.287 33.4059 78.343 33.3031 78.3804C33.2003 78.4178 33.0976 78.4459 33.0135 78.4552C32.9294 78.4739 32.8453 78.4738 32.7799 78.4738C32.6117 78.4738 32.4248 78.4364 32.2099 78.3523C32.0044 78.2683 31.7989 78.1188 31.5933 77.9039C31.5092 77.8198 31.4251 77.7077 31.3223 77.5675C31.2195 77.4274 31.1355 77.2685 31.0514 77.0723C30.9673 76.8761 30.9019 76.6519 30.8458 76.3996C30.7898 76.1473 30.7617 75.8577 30.7617 75.5213C30.7617 74.9421 30.8458 74.4561 31.014 74.0731L30.9953 74.0824ZM31.8175 76.4744C31.8175 76.5772 31.8175 76.6985 31.8269 76.8293C31.8269 76.9602 31.8549 77.091 31.8736 77.2218C31.8923 77.3526 31.9203 77.4835 31.967 77.6049C32.0044 77.7357 32.0605 77.8385 32.1259 77.9226C32.238 78.0721 32.3501 78.1749 32.4716 78.2123C32.5931 78.2497 32.6865 78.2776 32.7612 78.2776C32.892 78.2776 33.0228 78.2496 33.1349 78.1842C33.2471 78.1188 33.3405 78.0347 33.4246 77.9319C33.4807 77.8572 33.5181 77.7544 33.5648 77.6143C33.6115 77.4741 33.6301 77.3433 33.6582 77.2031C33.6769 77.063 33.6956 76.9229 33.7142 76.7921C33.7236 76.6612 33.7329 76.5492 33.7329 76.4744V74.587C33.7329 74.4842 33.7329 74.3627 33.7142 74.2226C33.6956 74.0824 33.6862 73.9516 33.6582 73.8208C33.6301 73.69 33.6021 73.5592 33.5648 73.4378C33.5274 73.3163 33.49 73.2135 33.4339 73.1387C33.2751 72.8864 33.0509 72.7556 32.7706 72.7556C32.6211 72.7556 32.4903 72.793 32.3875 72.8584C32.2847 72.9331 32.2006 73.0266 32.1259 73.1387C32.0698 73.2415 32.0137 73.3536 31.9764 73.4844C31.939 73.6152 31.911 73.7554 31.8829 73.8862C31.8643 74.0264 31.8456 74.1571 31.8362 74.2786C31.8362 74.4001 31.8269 74.5029 31.8269 74.5776V76.4651L31.8175 76.4744Z" fill="#575756"/>
<path d="M37.095 72.6406V72.8369H36.5717V76.9013C36.5717 77.0975 36.5811 77.2844 36.5997 77.4432C36.6184 77.602 36.6745 77.7423 36.7492 77.8637C36.824 77.9665 36.9268 78.0412 37.0482 78.0973C37.1697 78.1534 37.3005 78.1814 37.4313 78.1814C37.5341 78.1814 37.6555 78.1534 37.805 78.1067C37.9545 78.0506 38.0947 77.9385 38.2255 77.7423C38.3563 77.546 38.4404 77.3498 38.4497 77.1536C38.4684 76.9574 38.4778 76.7518 38.4778 76.5369V73.9955C38.4778 73.8647 38.4778 73.7339 38.4778 73.6124C38.4778 73.4816 38.4498 73.3601 38.4124 73.2573C38.375 73.1452 38.319 73.0611 38.2536 72.9863C38.1788 72.9116 38.076 72.8649 37.9546 72.8369V72.6406H39.1692V72.8369C39.1038 72.8369 39.0384 72.8555 38.9823 72.8836C38.9263 72.9116 38.8702 72.9677 38.8329 73.0424C38.7861 73.1172 38.7581 73.2293 38.7301 73.3788C38.7021 73.5283 38.6927 73.7152 38.6927 73.9581V76.6303C38.6927 76.8078 38.6834 76.9761 38.6647 77.1536C38.646 77.3218 38.5899 77.4993 38.5152 77.6768C38.4124 77.901 38.2535 78.0879 38.0386 78.2467C37.8237 78.4056 37.5435 78.4803 37.1977 78.4803C36.9828 78.4803 36.8053 78.4523 36.6558 78.4056C36.5063 78.3589 36.3755 78.2842 36.2634 78.2094C36.1513 78.1347 36.0672 78.0506 36.0018 77.9758C35.9363 77.8917 35.8897 77.8262 35.8523 77.7608C35.7308 77.5459 35.6747 77.3404 35.6654 77.1162C35.6654 76.9013 35.656 76.6957 35.656 76.5088V72.8369H35.1328V72.6406H37.123H37.095Z" fill="#575756"/>
<path d="M43.5053 76.0057V76.2019H43.0755C43.0755 76.5382 43.0568 76.8465 43.0007 77.1175C42.9447 77.3978 42.8326 77.6408 42.6737 77.8557C42.5896 77.9771 42.4869 78.0705 42.3747 78.1546C42.2626 78.2294 42.1505 78.2948 42.0477 78.3416C41.9356 78.3883 41.8328 78.4256 41.73 78.4443C41.6273 78.463 41.5338 78.4723 41.4591 78.4723C41.1788 78.4723 40.9452 78.4069 40.7583 78.2854C40.5715 78.1546 40.422 78.0238 40.3005 77.8836C40.179 77.7341 40.0576 77.5567 39.9548 77.3605C39.8427 77.1642 39.7586 76.968 39.6932 76.7718C39.6371 76.5943 39.5904 76.3981 39.5623 76.1832C39.5343 75.9776 39.5156 75.772 39.5156 75.5665C39.5156 75.2768 39.5437 74.9965 39.5904 74.7255C39.6464 74.4546 39.7399 74.165 39.8707 73.8753C39.9921 73.6044 40.1229 73.3894 40.2724 73.2119C40.4126 73.0437 40.5621 72.913 40.7116 72.8195C40.8611 72.7261 41.0012 72.6606 41.132 72.6326C41.2628 72.6046 41.3843 72.5859 41.4871 72.5859C41.6086 72.5859 41.7114 72.5952 41.8141 72.6232C41.9169 72.6513 42.001 72.6794 42.0664 72.7074C42.1318 72.7354 42.1972 72.7634 42.2533 72.7821C42.3187 72.8101 42.3747 72.8195 42.4214 72.8195C42.5055 72.8195 42.5616 72.8008 42.5896 72.7634C42.6176 72.726 42.6363 72.6887 42.655 72.6513H42.8793V74.5106H42.7111C42.6924 74.3798 42.6644 74.221 42.6177 74.0435C42.571 73.8659 42.5055 73.6885 42.4214 73.5109C42.3467 73.3614 42.272 73.24 42.1972 73.1465C42.1225 73.0531 42.0384 72.9784 41.9636 72.9223C41.8889 72.8662 41.8048 72.8289 41.73 72.8102C41.6553 72.7915 41.5805 72.7821 41.5058 72.7821C41.3843 72.7821 41.2629 72.8288 41.1227 72.9129C40.9826 72.997 40.8704 73.1465 40.777 73.3614C40.7209 73.4829 40.6836 73.6511 40.6462 73.8753C40.6088 74.0996 40.5901 74.4266 40.5901 74.8657V76.071C40.5901 76.3233 40.5901 76.5475 40.6088 76.7344C40.6181 76.9213 40.6368 77.0895 40.6649 77.239C40.6835 77.3791 40.7116 77.51 40.749 77.6221C40.7863 77.7342 40.8144 77.8276 40.8611 77.9117C40.9078 78.0145 40.9732 78.1079 41.0573 78.192C41.1414 78.2761 41.2628 78.3229 41.4217 78.3229C41.5525 78.3229 41.6646 78.2855 41.7487 78.2201C41.8328 78.1547 41.9076 78.0612 41.9636 77.9491C42.029 77.8183 42.0664 77.6968 42.0757 77.5753C42.0757 77.4539 42.0851 77.3418 42.0851 77.2296V76.2299H41.5619V76.0336H43.496L43.5053 76.0057Z" fill="#575756"/>
<path d="M45.5139 72.6406V72.8369H45.0841V75.2662H46.523V72.8369H46.0932V72.6406H47.9806V72.8369H47.4667V78.2094H47.9806V78.4056H46.0932V78.2094H46.523V75.453H45.0841V78.2094H45.5139V78.4056H43.6172V78.2094H44.1311V72.8369H43.6172V72.6406H45.5139Z" fill="#575756"/>
<path d="M54.1108 72.6406L54.1575 74.4906H53.9426C53.9426 74.4346 53.924 74.3598 53.9146 74.2851C53.896 74.2103 53.8866 74.1262 53.8585 74.0328C53.8398 73.9487 53.8119 73.8554 53.7838 73.7713C53.7558 73.6872 53.7184 73.6031 53.6904 73.5283C53.5876 73.3041 53.4475 73.1359 53.2699 73.0144C53.0924 72.8929 52.8868 72.8369 52.6439 72.8369H52.0552V75.1447H52.4664C52.5504 75.1447 52.6252 75.126 52.6906 75.0886C52.756 75.0512 52.8028 75.0046 52.8495 74.9486C52.8962 74.8925 52.9336 74.8364 52.9616 74.7803C52.9896 74.7243 53.0083 74.6682 53.027 74.6308C53.055 74.5467 53.0737 74.4627 53.0924 74.3693C53.1018 74.2758 53.1111 74.1917 53.1111 74.1076H53.326V76.4154H53.1111C53.1111 76.3313 53.1111 76.2193 53.0924 76.1071C53.0831 75.9857 53.0644 75.8922 53.027 75.8081C52.999 75.724 52.9429 75.6213 52.8588 75.5185C52.7747 75.4064 52.6439 75.3596 52.4757 75.3596H52.0646V78.2374H52.6345V78.4337H50.5977V78.2374H51.1116V72.8649H50.5977V72.6687H54.1202L54.1108 72.6406Z" fill="#575756"/>
<path d="M54.6711 74.0824C54.8393 73.6993 55.0261 73.391 55.2504 73.1668C55.4653 72.9332 55.6802 72.7837 55.8764 72.6996C56.0726 72.6155 56.2688 72.5781 56.437 72.5781C56.6986 72.5781 56.9322 72.6341 57.1284 72.7556C57.3246 72.8771 57.4928 73.0079 57.6423 73.1668C57.8198 73.363 57.96 73.5592 58.0721 73.7648C58.1842 73.9703 58.2683 74.1852 58.3244 74.3907C58.3804 74.5963 58.4178 74.8018 58.4458 74.9981C58.4645 75.1943 58.4738 75.3719 58.4738 75.5307C58.4738 75.6148 58.4739 75.7549 58.4552 75.9324C58.4458 76.1099 58.4084 76.3155 58.3617 76.5398C58.3057 76.764 58.231 76.9976 58.1188 77.2312C58.0067 77.4741 57.8479 77.6983 57.6517 77.9132C57.5302 78.0347 57.418 78.1375 57.3059 78.2123C57.1938 78.287 57.0817 78.343 56.9789 78.3804C56.8761 78.4178 56.7733 78.4459 56.6893 78.4552C56.6052 78.4739 56.5211 78.4738 56.4557 78.4738C56.2875 78.4738 56.1006 78.4364 55.8857 78.3523C55.6802 78.2683 55.4746 78.1188 55.269 77.9039C55.1849 77.8198 55.1009 77.7077 54.9981 77.5675C54.9047 77.4367 54.8112 77.2685 54.7271 77.0723C54.6431 76.8761 54.5776 76.6519 54.5216 76.3996C54.4655 76.1473 54.4375 75.8577 54.4375 75.5213C54.4375 74.9421 54.5216 74.4561 54.6897 74.0731L54.6711 74.0824ZM55.4933 76.4744C55.4933 76.5772 55.4933 76.6985 55.5026 76.8293C55.5026 76.9602 55.5213 77.091 55.5494 77.2218C55.5681 77.3526 55.5961 77.4835 55.6428 77.6049C55.6895 77.7264 55.7362 77.8385 55.8016 77.9226C55.9137 78.0721 56.0259 78.1749 56.1473 78.2123C56.2688 78.2497 56.3622 78.2776 56.437 78.2776C56.5678 78.2776 56.6986 78.2496 56.8107 78.1842C56.9228 78.1188 57.0163 78.0347 57.1004 77.9319C57.1564 77.8572 57.1938 77.7544 57.2405 77.6143C57.2779 77.4835 57.3059 77.3433 57.334 77.2031C57.362 77.063 57.3713 76.9229 57.39 76.7921C57.3994 76.6612 57.4087 76.5492 57.4087 76.4744V74.587C57.4087 74.4842 57.4087 74.3627 57.39 74.2226C57.3807 74.0918 57.362 73.9516 57.334 73.8208C57.3059 73.69 57.2779 73.5592 57.2405 73.4378C57.2032 73.3163 57.1658 73.2135 57.1097 73.1387C56.9509 72.8864 56.736 72.7556 56.4463 72.7556C56.2968 72.7556 56.166 72.793 56.0633 72.8584C55.9605 72.9331 55.8764 73.0266 55.8016 73.1387C55.7456 73.2415 55.6989 73.3536 55.6521 73.4844C55.6148 73.6152 55.5867 73.7554 55.5587 73.8862C55.5306 74.0264 55.5213 74.1571 55.512 74.2786C55.512 74.4001 55.5026 74.5029 55.5026 74.5776V76.4651L55.4933 76.4744Z" fill="#575756"/>
<path d="M59.1437 74.0824C59.3119 73.6993 59.4988 73.391 59.723 73.1668C59.9379 72.9332 60.1528 72.7837 60.349 72.6996C60.5546 72.6155 60.7415 72.5781 60.9097 72.5781C61.1713 72.5781 61.4049 72.6341 61.6011 72.7556C61.7973 72.8771 61.9655 73.0079 62.115 73.1668C62.2925 73.363 62.4327 73.5592 62.5448 73.7648C62.6569 73.9703 62.741 74.1852 62.797 74.3907C62.8531 74.5963 62.8998 74.8018 62.9185 74.9981C62.9372 75.1943 62.9466 75.3719 62.9466 75.5307C62.9466 75.6148 62.9465 75.7549 62.9278 75.9324C62.9185 76.1099 62.8812 76.3155 62.8344 76.5398C62.7784 76.764 62.7036 76.9976 62.5915 77.2312C62.4794 77.4741 62.3205 77.6983 62.1243 77.9132C62.0029 78.0347 61.8907 78.1375 61.7786 78.2123C61.6665 78.287 61.5543 78.343 61.4516 78.3804C61.3488 78.4178 61.246 78.4459 61.1619 78.4552C61.0778 78.4739 60.9937 78.4738 60.9283 78.4738C60.7601 78.4738 60.5733 78.4364 60.3584 78.3523C60.1528 78.2683 59.9473 78.1188 59.7417 77.9039C59.6576 77.8198 59.5735 77.7077 59.4707 77.5675C59.3773 77.4367 59.2839 77.2685 59.1998 77.0723C59.1157 76.8761 59.0503 76.6519 58.9942 76.3996C58.9382 76.1473 58.9102 75.8577 58.9102 75.5213C58.9102 74.9421 58.9943 74.4561 59.1624 74.0731L59.1437 74.0824ZM59.966 76.4744C59.966 76.5772 59.966 76.6985 59.9753 76.8293C59.9753 76.9602 60.0033 77.091 60.022 77.2218C60.0407 77.3526 60.0687 77.4835 60.1154 77.6049C60.1528 77.7357 60.2089 77.8385 60.2743 77.9226C60.3864 78.0721 60.4986 78.1749 60.62 78.2123C60.7415 78.2497 60.8349 78.2776 60.9097 78.2776C61.0405 78.2776 61.1713 78.2496 61.2834 78.1842C61.3955 78.1188 61.4889 78.0347 61.573 77.9319C61.6291 77.8572 61.6665 77.7544 61.7132 77.6143C61.7599 77.4741 61.7786 77.3433 61.8066 77.2031C61.8253 77.063 61.844 76.9229 61.8627 76.7921C61.872 76.6612 61.8814 76.5492 61.8814 76.4744V74.587C61.8814 74.4842 61.8814 74.3627 61.8627 74.2226C61.8533 74.0918 61.8346 73.9516 61.8066 73.8208C61.7786 73.69 61.7506 73.5592 61.7132 73.4378C61.6758 73.3163 61.6384 73.2135 61.5824 73.1387C61.4235 72.8864 61.1993 72.7556 60.919 72.7556C60.7695 72.7556 60.6387 72.793 60.5359 72.8584C60.4331 72.9331 60.3491 73.0266 60.2743 73.1387C60.2183 73.2415 60.1715 73.3536 60.1248 73.4844C60.0874 73.6152 60.0594 73.7554 60.0314 73.8862C60.0127 74.0264 59.994 74.1571 59.9847 74.2786C59.9847 74.4001 59.9753 74.5029 59.9753 74.5776V76.4651L59.966 76.4744Z" fill="#575756"/>
<path d="M65.5067 72.6406C65.8151 72.6406 66.086 72.7341 66.3196 72.9116C66.5438 73.0891 66.74 73.2947 66.8802 73.519C67.0951 73.8553 67.2259 74.1917 67.2726 74.528C67.3194 74.8644 67.3474 75.1821 67.3474 75.4717C67.3474 75.696 67.338 75.9202 67.31 76.1538C67.282 76.3874 67.2446 76.6024 67.1792 76.8173C67.1138 77.0322 67.0297 77.2376 66.9176 77.4245C66.8055 77.6207 66.6653 77.7983 66.4971 77.9571C66.3103 78.1253 66.1234 78.2468 65.9552 78.3122C65.7777 78.3776 65.6001 78.4056 65.4226 78.4056H63.3203V78.2094H63.8343V72.8369H63.3203V72.6406H65.5161H65.5067ZM64.7686 78.2094H65.0862C65.2544 78.2094 65.4039 78.1907 65.5347 78.1627C65.6655 78.1346 65.8057 78.0319 65.9272 77.8637C66.0019 77.7609 66.0673 77.6395 66.1141 77.4993C66.1608 77.3592 66.1981 77.2097 66.2168 77.0508C66.2355 76.892 66.2542 76.7331 66.2542 76.565C66.2542 76.3968 66.2542 76.2379 66.2542 76.0791V74.6589C66.2542 74.3785 66.2449 74.1263 66.2168 73.9021C66.1888 73.6778 66.1327 73.4723 66.0206 73.2947C65.9552 73.1826 65.8898 73.0985 65.8151 73.0331C65.7403 72.9677 65.6749 72.9209 65.5908 72.8929C65.5161 72.8649 65.4413 72.8369 65.3572 72.8276C65.2825 72.8276 65.2077 72.8182 65.133 72.8182H64.7405V78.1907L64.7686 78.2094Z" fill="#575756"/>
<path d="M30.8147 80.0859L30.8427 81.0856H30.7306C30.7306 81.0856 30.7306 81.0202 30.7119 80.9735C30.7119 80.9268 30.6932 80.8894 30.6838 80.8333C30.6745 80.7866 30.6558 80.7399 30.6465 80.6932C30.6278 80.6465 30.6091 80.5998 30.5904 80.5625C30.5344 80.441 30.4596 80.3475 30.3662 80.2821C30.2728 80.2167 30.1606 80.1887 30.0298 80.1887H29.7121V81.4313H29.9364C29.9831 81.4313 30.0205 81.422 30.0578 81.4033C30.0952 81.3846 30.1233 81.3566 30.142 81.3286C30.17 81.3006 30.1887 81.2632 30.198 81.2352C30.2167 81.2071 30.226 81.1791 30.2354 81.1511C30.2541 81.1044 30.2634 81.0577 30.2727 81.0109C30.2727 80.9642 30.2821 80.9081 30.2821 80.8708H30.3942V82.1228H30.2821C30.2821 82.076 30.2821 82.02 30.2727 81.9546C30.2727 81.8892 30.2541 81.8331 30.2354 81.7958C30.2167 81.749 30.1887 81.6929 30.142 81.6369C30.0952 81.5808 30.0298 81.5528 29.9364 81.5528H29.7121V83.1132H30.0205V83.216H28.918V83.1132H29.1983V80.2074H28.918V80.1045H30.824L30.8147 80.0859Z" fill="#575756"/>
<path d="M31.1612 80.8598C31.2546 80.6542 31.3574 80.486 31.4695 80.3645C31.591 80.2431 31.7031 80.1589 31.8059 80.1122C31.918 80.0655 32.0115 80.0469 32.1049 80.0469C32.245 80.0469 32.3759 80.0749 32.4787 80.1403C32.5814 80.2057 32.6749 80.2804 32.7589 80.3645C32.8524 80.4673 32.9271 80.5794 32.9925 80.6915C33.0486 80.8036 33.0953 80.9159 33.1327 81.028C33.1607 81.1401 33.1887 81.2522 33.1981 81.355C33.2074 81.4578 33.2168 81.5605 33.2168 81.6446C33.2168 81.6913 33.2168 81.766 33.2074 81.8595C33.2074 81.9529 33.1794 82.0651 33.1514 82.1866C33.1233 82.308 33.0766 82.4294 33.0205 82.5602C32.9645 82.691 32.8804 82.8125 32.7683 82.9246C32.7029 82.99 32.6375 83.0461 32.5814 83.0835C32.516 83.1209 32.46 83.1582 32.4039 83.1769C32.3478 83.1956 32.2918 83.2143 32.2451 83.2237C32.1983 83.2237 32.1516 83.233 32.1142 83.233C32.0208 83.233 31.918 83.2143 31.8059 83.1676C31.6938 83.1209 31.5817 83.0461 31.4695 82.9246C31.4228 82.8779 31.3761 82.8219 31.32 82.7472C31.264 82.6724 31.2173 82.5883 31.1705 82.4762C31.1238 82.3734 31.0865 82.2519 31.0584 82.1118C31.0304 81.9716 31.0117 81.8128 31.0117 81.6352C31.0117 81.3175 31.0584 81.056 31.1518 80.8504L31.1612 80.8598ZM31.6004 82.1585C31.6004 82.2146 31.6004 82.2799 31.6004 82.3453C31.6004 82.4107 31.6097 82.4855 31.6284 82.5602C31.6377 82.635 31.6564 82.7005 31.6751 82.7659C31.6938 82.8313 31.7218 82.8966 31.7592 82.9433C31.8152 83.0274 31.8807 83.0835 31.9461 83.1022C32.0115 83.1209 32.0582 83.1395 32.1049 83.1395C32.1796 83.1395 32.245 83.1209 32.3104 83.0929C32.3758 83.0555 32.4226 83.0181 32.4693 82.962C32.4973 82.9247 32.5253 82.8592 32.544 82.7938C32.5627 82.7191 32.5814 82.6443 32.5908 82.5696C32.6001 82.4948 32.6094 82.4201 32.6188 82.3453C32.6188 82.2706 32.6281 82.2146 32.6281 82.1679V81.1495C32.6281 81.0934 32.6281 81.0279 32.6188 80.9532C32.6188 80.8784 32.6001 80.8037 32.5908 80.7383C32.5721 80.6635 32.5627 80.5982 32.544 80.5328C32.5253 80.4674 32.4973 80.4112 32.4693 80.3645C32.3852 80.2244 32.2637 80.159 32.1142 80.159C32.0302 80.159 31.9647 80.1777 31.9087 80.2151C31.8526 80.2525 31.8059 80.2991 31.7685 80.3645C31.7405 80.4206 31.7125 80.4767 31.6938 80.5515C31.6751 80.6262 31.6564 80.6916 31.6471 80.7663C31.6377 80.8411 31.6284 80.9158 31.619 80.9812C31.619 81.0466 31.619 81.1027 31.619 81.1401V82.1585H31.6004Z" fill="#575756"/>
<path d="M34.6008 80.0812C34.6475 80.0812 34.7036 80.0812 34.7597 80.0812C34.8158 80.0812 34.8811 80.0905 34.9465 80.1091C35.0119 80.1185 35.0773 80.1372 35.1334 80.1653C35.1988 80.1933 35.2549 80.2307 35.3016 80.2774C35.3483 80.3148 35.395 80.3708 35.4418 80.4549C35.4885 80.5389 35.5072 80.6511 35.5072 80.8006C35.5072 80.866 35.4978 80.9501 35.4791 81.0529C35.4604 81.1463 35.4137 81.2398 35.3296 81.3238C35.2642 81.3893 35.1801 81.4453 35.0867 81.4734C34.9933 81.5108 34.8998 81.5294 34.8064 81.5481V81.5948C34.8905 81.6042 34.9746 81.6322 35.0773 81.6696C35.1801 81.7163 35.2549 81.7724 35.3109 81.8471C35.3576 81.9032 35.3857 81.9779 35.4137 82.062C35.4417 82.1461 35.4511 82.2488 35.4605 82.3516L35.4885 82.716C35.4885 82.716 35.4885 82.7908 35.4978 82.8375C35.4978 82.8749 35.5072 82.9122 35.5165 82.9496C35.5259 82.987 35.5445 83.0056 35.5632 83.0337C35.5819 83.0524 35.6099 83.0617 35.6473 83.0617C35.6753 83.0617 35.7034 83.0523 35.7408 83.0243L35.7781 83.1178C35.7781 83.1178 35.7033 83.1645 35.6473 83.1925C35.5912 83.2206 35.5165 83.2393 35.4137 83.2393C35.3203 83.2393 35.2549 83.2299 35.2082 83.2019C35.1614 83.1832 35.1241 83.1552 35.1054 83.1272C35.1054 83.1272 35.0867 83.1085 35.0773 83.0898C35.068 83.0711 35.0493 83.0431 35.04 83.0151C35.0213 82.9777 35.012 82.931 34.9933 82.8749C34.9746 82.8188 34.9652 82.7441 34.9652 82.66L34.9185 82.1741C34.9185 82.1741 34.9185 82.1087 34.9092 82.062C34.9092 82.0153 34.9091 81.9779 34.8905 81.9312C34.8905 81.8938 34.8718 81.8471 34.8625 81.8097C34.8438 81.7724 34.8251 81.735 34.8064 81.707C34.7784 81.6789 34.7503 81.6508 34.7036 81.6321C34.6569 81.6135 34.6102 81.6042 34.5448 81.6042H34.2551V83.0711H34.5354V83.1738H33.4609V83.0711H33.7412V80.1653H33.4609V80.0625H34.6008V80.0812ZM34.4887 81.5107C34.5354 81.5107 34.6008 81.5108 34.6662 81.4921C34.7316 81.4827 34.7877 81.4453 34.8344 81.3892C34.8811 81.3425 34.9092 81.2678 34.9185 81.193C34.9372 81.1089 34.9372 81.0342 34.9372 80.9688V80.6884C34.9372 80.623 34.9372 80.5483 34.9185 80.4736C34.9092 80.3895 34.8625 80.3241 34.7971 80.268C34.7597 80.24 34.7129 80.212 34.6569 80.1933C34.6008 80.1746 34.5448 80.1653 34.4887 80.1653H34.2458V81.5013H34.4793L34.4887 81.5107Z" fill="#575756"/>
<path d="M39.195 81.9062V82.009H38.9615C38.9615 82.1865 38.9521 82.3547 38.9147 82.5042C38.8867 82.6537 38.8213 82.7845 38.7372 82.9059C38.6904 82.9713 38.6344 83.0274 38.5783 83.0648C38.5223 83.1115 38.4569 83.1395 38.4008 83.1676C38.3447 83.1956 38.2887 83.2143 38.2326 83.2237C38.1766 83.233 38.1299 83.2424 38.0832 83.2424C37.9337 83.2424 37.8028 83.2049 37.7 83.1395C37.5973 83.0741 37.5225 82.9994 37.4571 82.9246C37.3917 82.8405 37.3263 82.7472 37.2702 82.635C37.2142 82.5323 37.1675 82.4202 37.1301 82.3174C37.1021 82.2146 37.074 82.1118 37.0553 81.9996C37.0367 81.8875 37.0273 81.7754 37.0273 81.6633C37.0273 81.5044 37.046 81.355 37.074 81.2055C37.1021 81.056 37.1488 80.9065 37.2235 80.7476C37.2889 80.5981 37.3637 80.486 37.4385 80.3926C37.5132 80.2991 37.5973 80.2244 37.672 80.1777C37.7561 80.131 37.8309 80.0936 37.8963 80.0749C37.971 80.0562 38.0364 80.0469 38.0925 80.0469C38.1579 80.0469 38.2139 80.0469 38.27 80.0656C38.326 80.0843 38.3728 80.0935 38.4102 80.1122C38.4475 80.1309 38.4756 80.1403 38.5129 80.159C38.5503 80.1683 38.5784 80.1777 38.6064 80.1777C38.6531 80.1777 38.6811 80.1683 38.6998 80.1496C38.7185 80.131 38.7278 80.1123 38.7372 80.0936H38.8586V81.0933H38.7652C38.7559 81.0186 38.7372 80.9345 38.7092 80.841C38.6811 80.7476 38.6531 80.6449 38.6064 80.5515C38.569 80.4674 38.5316 80.4019 38.4849 80.3552C38.4382 80.2991 38.4008 80.2617 38.3541 80.2337C38.3074 80.2057 38.27 80.187 38.2233 80.1777C38.1859 80.1684 38.1392 80.159 38.1018 80.159C38.0364 80.159 37.971 80.187 37.8963 80.2243C37.8215 80.2711 37.7561 80.3458 37.7094 80.4673C37.6814 80.5327 37.6533 80.6262 37.6346 80.7476C37.6159 80.8691 37.6066 81.0466 37.6066 81.2802V81.9343C37.6066 82.0744 37.6066 82.1866 37.616 82.2987C37.616 82.4015 37.6346 82.4948 37.644 82.5696C37.6533 82.6443 37.672 82.7192 37.6907 82.7752C37.7094 82.8313 37.7281 82.8873 37.7468 82.934C37.7748 82.99 37.8122 83.0368 37.8496 83.0835C37.8963 83.1302 37.9617 83.1582 38.0458 83.1582C38.1205 83.1582 38.1766 83.1396 38.2233 83.1022C38.27 83.0648 38.3074 83.0181 38.3448 82.9527C38.3821 82.8873 38.4008 82.8126 38.4008 82.7565C38.4008 82.6911 38.4008 82.635 38.4008 82.5696V82.0277H38.1205V81.9249H39.167L39.195 81.9062Z" fill="#575756"/>
<path d="M41.2146 80.0859L41.2426 81.0856H41.1212C41.1212 81.0202 41.1025 80.9361 41.0838 80.8333C41.0651 80.7399 41.0371 80.6466 40.9904 80.5625C40.9717 80.5251 40.953 80.4877 40.925 80.441C40.897 80.3943 40.8596 80.3569 40.8129 80.3195C40.7662 80.2822 40.7195 80.254 40.6541 80.226C40.5887 80.198 40.5139 80.1887 40.4298 80.1887H40.1121V81.4313H40.327C40.327 81.4313 40.4111 81.4313 40.4485 81.4033C40.4858 81.3846 40.5232 81.3472 40.5606 81.3005C40.598 81.2445 40.6354 81.1697 40.6447 81.095C40.6634 81.0202 40.6727 80.9455 40.6727 80.8708H40.7848V82.1228H40.6727C40.6727 82.076 40.6727 82.02 40.6634 81.9546C40.6634 81.8986 40.6447 81.8425 40.626 81.7958C40.6073 81.7397 40.5793 81.6836 40.5512 81.6556C40.5232 81.6182 40.4952 81.5996 40.4672 81.5809C40.4391 81.5622 40.4111 81.5528 40.3831 81.5528C40.355 81.5528 40.3363 81.5528 40.3177 81.5528H40.1028V83.1132H40.4205C40.5513 83.1132 40.6727 83.0758 40.7662 82.9918C40.8596 82.917 40.9437 82.8235 40.9998 82.7208C41.0465 82.6367 41.0839 82.5432 41.1212 82.4498C41.1586 82.3563 41.1772 82.263 41.1866 82.1789H41.2988L41.2614 83.216H39.3086V83.1132H39.5889V80.2074H39.3086V80.1045H41.2146V80.0859Z" fill="#575756"/>
<path d="M42.2804 80.0812L43.3923 82.1274V80.8193C43.3923 80.8193 43.3923 80.7539 43.3923 80.7071C43.3923 80.6604 43.3923 80.6137 43.383 80.567C43.383 80.5203 43.3642 80.4736 43.3549 80.4269C43.3456 80.3802 43.3362 80.3522 43.3175 80.3241C43.2989 80.2961 43.2802 80.2586 43.2428 80.2306C43.2054 80.2026 43.1587 80.184 43.1027 80.1746V80.0719H43.7567V80.1746C43.7567 80.1746 43.6819 80.1746 43.6445 80.2027C43.6165 80.2214 43.5885 80.2587 43.5605 80.3054C43.5418 80.3335 43.5324 80.3708 43.5231 80.4176C43.5231 80.4643 43.5044 80.5017 43.5044 80.5484C43.5044 80.5951 43.4951 80.6325 43.4951 80.6792C43.4951 80.7259 43.4951 80.7633 43.4951 80.7913V83.23H43.411L41.9627 80.567V82.4824C41.9627 82.6226 41.9627 82.7253 41.9814 82.8001C41.9908 82.8655 42.0095 82.9216 42.0375 82.9683C42.0562 83.015 42.0842 83.043 42.1123 83.0617C42.1403 83.0804 42.1777 83.0898 42.2244 83.0991V83.2019H41.5703V83.0991C41.6357 83.0898 41.6824 83.0711 41.7104 83.043C41.7385 83.015 41.7665 82.987 41.7852 82.959C41.8039 82.9309 41.8133 82.9029 41.8226 82.8562C41.8319 82.8095 41.8413 82.7721 41.8506 82.716C41.8506 82.6693 41.86 82.6226 41.86 82.5758C41.86 82.5291 41.86 82.4918 41.86 82.4637V80.6511C41.86 80.539 41.8599 80.4549 41.8506 80.3895C41.8506 80.3334 41.8226 80.2867 41.8039 80.2587C41.7759 80.2306 41.7478 80.2027 41.7104 80.1933C41.6731 80.184 41.6357 80.1746 41.589 80.1653V80.0625H42.2804V80.0812Z" fill="#575756"/>
<path d="M44.6704 80.1887C44.605 80.1887 44.5396 80.2073 44.4929 80.2354C44.4461 80.2634 44.3994 80.3008 44.362 80.3475C44.3247 80.3942 44.2966 80.4409 44.2779 80.4783C44.2592 80.525 44.2406 80.553 44.2312 80.5811C44.1938 80.6558 44.1752 80.7399 44.1565 80.824C44.1378 80.8987 44.1284 80.9922 44.1098 81.095H43.9883L44.0163 80.0859H46.0532L46.0813 81.095H45.9598C45.9505 81.0109 45.9318 80.9174 45.9037 80.8333C45.8851 80.7399 45.857 80.6558 45.829 80.5904C45.7916 80.497 45.7542 80.4222 45.7075 80.3662C45.6608 80.3101 45.6234 80.2727 45.5767 80.2447C45.5393 80.2167 45.5019 80.2074 45.4646 80.1981C45.4272 80.1981 45.3992 80.1887 45.3805 80.1887H45.287V83.0945H45.5673V83.1973H44.4929V83.0945H44.7732V80.1887H44.6797H44.6704Z" fill="#575756"/>
<path d="M47.3831 80.0859V80.1887H47.1028V83.0945H47.3551C47.4765 83.0945 47.5886 83.0572 47.6821 82.9918C47.7755 82.9263 47.8596 82.8329 47.9344 82.7114C47.9904 82.618 48.0278 82.5246 48.0558 82.4312C48.0839 82.3377 48.1025 82.2536 48.1119 82.1695H48.2334L48.1959 83.2066H46.3086V83.1039H46.5889V80.1981H46.3086V80.0953H47.3831V80.0859Z" fill="#575756"/>
<path d="M50.324 80.0859L50.352 81.0856H50.2306C50.2306 81.0202 50.2119 80.9361 50.1932 80.8333C50.1745 80.7399 50.1465 80.6466 50.0998 80.5625C50.0811 80.5251 50.0624 80.4877 50.0344 80.441C50.0063 80.3943 49.969 80.3569 49.9223 80.3195C49.8755 80.2822 49.8195 80.254 49.7634 80.226C49.698 80.198 49.6232 80.1887 49.5391 80.1887H49.2215V81.4313H49.4364C49.4364 81.4313 49.5205 81.4313 49.5578 81.4033C49.5952 81.3846 49.6326 81.3472 49.67 81.3005C49.7073 81.2445 49.7447 81.1697 49.7541 81.095C49.7728 81.0202 49.7821 80.9455 49.7821 80.8708H49.8942V82.1228H49.7821C49.7821 82.076 49.7821 82.02 49.7727 81.9546C49.7727 81.8986 49.7541 81.8425 49.7354 81.7958C49.7167 81.7397 49.6886 81.6836 49.6606 81.6556C49.6326 81.6182 49.6046 81.5996 49.5766 81.5809C49.5485 81.5622 49.5205 81.5528 49.4924 81.5528C49.4644 81.5528 49.4457 81.5528 49.427 81.5528H49.2121V83.1132H49.5298C49.6607 83.1132 49.7821 83.0758 49.8756 82.9918C49.9783 82.917 50.0531 82.8235 50.1091 82.7208C50.1559 82.6367 50.1932 82.5432 50.2306 82.4498C50.2586 82.3563 50.2866 82.263 50.296 82.1789H50.4081L50.3707 83.216H48.418V83.1132H48.6983V80.2074H48.418V80.1045H50.324V80.0859Z" fill="#575756"/>
<path d="M52.7418 80.0875C52.8259 80.0875 52.91 80.0874 52.9941 80.1061C53.0875 80.1154 53.1716 80.1342 53.2557 80.1715C53.3024 80.1902 53.3585 80.2182 53.4239 80.2556C53.48 80.293 53.536 80.3491 53.5827 80.4145C53.6294 80.4799 53.6762 80.564 53.7042 80.6574C53.7322 80.7509 53.7509 80.8723 53.7509 81.0031C53.7509 81.0592 53.7509 81.1245 53.7415 81.1899C53.7415 81.2647 53.7135 81.3301 53.6855 81.3955C53.6575 81.4609 53.6107 81.5357 53.564 81.5918C53.508 81.6572 53.4426 81.7132 53.3491 81.7505C53.2931 81.7786 53.237 81.7973 53.181 81.8066C53.1249 81.816 53.0595 81.8347 53.0034 81.8441C52.9474 81.8441 52.8913 81.8533 52.8446 81.8627C52.7979 81.8627 52.7605 81.8627 52.7231 81.8627H52.4895V83.0867H52.8072V83.1895H51.6953V83.0867H51.9757V80.1809H51.6953V80.0781H52.7511L52.7418 80.0875ZM52.6484 81.7599C52.6484 81.7599 52.7511 81.7599 52.8072 81.7505C52.8726 81.7505 52.9287 81.7226 52.9847 81.6852C53.0314 81.6478 53.0688 81.6104 53.0968 81.5544C53.1249 81.5076 53.1436 81.4515 53.1529 81.3955C53.1622 81.3394 53.1716 81.2834 53.1716 81.2274V80.7321C53.1716 80.6854 53.1716 80.6387 53.1716 80.5826C53.1716 80.5265 53.1623 80.4799 53.1436 80.4332C53.1249 80.3865 53.1062 80.3491 53.0875 80.3117C53.0595 80.2743 53.0314 80.2462 52.9847 80.2275C52.9567 80.2182 52.91 80.2089 52.854 80.1996C52.7885 80.1996 52.7418 80.1902 52.6951 80.1902H52.4989V81.7692H52.6671L52.6484 81.7599Z" fill="#575756"/>
<path d="M55.7616 80.0859L55.7896 81.0856H55.6681C55.6681 81.0202 55.6494 80.9361 55.6308 80.8333C55.6121 80.7399 55.5841 80.6466 55.5373 80.5625C55.5187 80.5251 55.5 80.4877 55.4719 80.441C55.4439 80.3943 55.4065 80.3569 55.3598 80.3195C55.3131 80.2822 55.257 80.254 55.2009 80.226C55.1355 80.198 55.0608 80.1887 54.9767 80.1887H54.6591V81.4313H54.8739C54.8739 81.4313 54.958 81.4313 54.9954 81.4033C55.0328 81.3846 55.0701 81.3472 55.1075 81.3005C55.1449 81.2445 55.1823 81.1697 55.1916 81.095C55.2103 81.0202 55.2196 80.9455 55.2196 80.8708H55.3318V82.1228H55.2196C55.2196 82.076 55.2196 82.02 55.2103 81.9546C55.2103 81.8986 55.1916 81.8425 55.1729 81.7958C55.1542 81.7397 55.1262 81.6836 55.0982 81.6556C55.0701 81.6182 55.0421 81.5996 55.0141 81.5809C54.9861 81.5622 54.958 81.5528 54.93 81.5528C54.902 81.5528 54.8833 81.5528 54.8646 81.5528H54.6497V83.1132H54.9673C55.0982 83.1132 55.2197 83.0758 55.3131 82.9918C55.4159 82.917 55.4906 82.8235 55.5467 82.7208C55.5934 82.6367 55.6307 82.5432 55.6681 82.4498C55.6961 82.3563 55.7242 82.263 55.7335 82.1789H55.8456L55.8083 83.216H53.8555V83.1132H54.1358V80.2074H53.8555V80.1045H55.7616V80.0859Z" fill="#575756"/>
<path d="M56.2277 80.8598C56.3211 80.6542 56.4239 80.486 56.536 80.3645C56.6575 80.2431 56.7696 80.1589 56.8724 80.1122C56.9845 80.0655 57.0779 80.0469 57.1714 80.0469C57.3115 80.0469 57.4423 80.0749 57.5451 80.1403C57.6478 80.2057 57.7413 80.2804 57.8254 80.3645C57.9188 80.4673 57.9935 80.5794 58.0589 80.6915C58.115 80.8036 58.1617 80.9159 58.1991 81.028C58.2271 81.1401 58.2552 81.2522 58.2645 81.355C58.2739 81.4578 58.2832 81.5605 58.2832 81.6446C58.2832 81.6913 58.2832 81.766 58.2739 81.8595C58.2739 81.9529 58.2459 82.0651 58.2178 82.1866C58.1898 82.308 58.1431 82.4294 58.087 82.5602C58.0309 82.691 57.9468 82.8125 57.8347 82.9246C57.7693 82.99 57.7133 83.0461 57.6479 83.0835C57.5825 83.1209 57.5264 83.1582 57.4704 83.1769C57.4143 83.1956 57.3582 83.2143 57.3115 83.2237C57.2648 83.2237 57.2181 83.233 57.1807 83.233C57.0873 83.233 56.9845 83.2143 56.8724 83.1676C56.7602 83.1209 56.6481 83.0461 56.536 82.9246C56.4893 82.8779 56.4425 82.8219 56.3865 82.7472C56.3304 82.6724 56.2837 82.5883 56.237 82.4762C56.1903 82.3734 56.1529 82.2519 56.1249 82.1118C56.0969 81.9716 56.0781 81.8128 56.0781 81.6352C56.0781 81.3175 56.1249 81.056 56.2183 80.8504L56.2277 80.8598ZM56.6668 82.1585C56.6668 82.2146 56.6668 82.2799 56.6668 82.3453C56.6668 82.4107 56.6761 82.4855 56.6948 82.5602C56.7042 82.635 56.7228 82.7005 56.7415 82.7659C56.7602 82.8313 56.7883 82.8966 56.8257 82.9433C56.8817 83.0274 56.9471 83.0835 57.0125 83.1022C57.0779 83.1209 57.134 83.1395 57.1714 83.1395C57.2461 83.1395 57.3115 83.1209 57.3769 83.0929C57.4423 83.0555 57.489 83.0181 57.5357 82.962C57.5637 82.9247 57.5918 82.8592 57.6105 82.7938C57.6292 82.7191 57.6478 82.6443 57.6572 82.5696C57.6665 82.4948 57.6759 82.4201 57.6852 82.3453C57.6852 82.2706 57.6946 82.2146 57.6946 82.1679V81.1495C57.6946 81.0934 57.6946 81.0279 57.6852 80.9532C57.6852 80.8784 57.6665 80.8037 57.6572 80.7383C57.6385 80.6635 57.6292 80.5982 57.6105 80.5328C57.5918 80.4674 57.5637 80.4112 57.5357 80.3645C57.4516 80.2244 57.3302 80.159 57.1807 80.159C57.0966 80.159 57.0312 80.1777 56.9751 80.2151C56.9191 80.2525 56.8723 80.2991 56.8349 80.3645C56.8069 80.4206 56.7789 80.4767 56.7602 80.5515C56.7416 80.6262 56.7229 80.6916 56.7135 80.7663C56.7042 80.8411 56.6948 80.9158 56.6855 80.9812C56.6855 81.0466 56.6855 81.1027 56.6855 81.1401V82.1585H56.6668Z" fill="#575756"/>
<path d="M59.5465 80.0875C59.6212 80.0875 59.7147 80.0874 59.7988 80.1061C59.8829 80.1248 59.9763 80.1342 60.0603 80.1715C60.1071 80.1902 60.1631 80.2182 60.2285 80.2556C60.2846 80.293 60.3407 80.3491 60.3874 80.4145C60.4341 80.4799 60.4808 80.564 60.5089 80.6574C60.5369 80.7509 60.5556 80.8723 60.5556 81.0031C60.5556 81.0592 60.5556 81.1245 60.5462 81.1899C60.5462 81.2647 60.5182 81.3301 60.4902 81.3955C60.4621 81.4609 60.4248 81.5357 60.3687 81.5918C60.3126 81.6572 60.2473 81.7132 60.1538 81.7505C60.0978 81.7786 60.0417 81.7973 59.9856 81.8066C59.9296 81.816 59.8642 81.8347 59.8081 81.8441C59.7521 81.8441 59.6959 81.8533 59.6492 81.8627C59.6025 81.8627 59.5651 81.8627 59.5371 81.8627H59.2942V83.0867H59.6119V83.1895H58.5V83.0867H58.7803V80.1809H58.5V80.0781H59.5558L59.5465 80.0875ZM59.4531 81.7599C59.4531 81.7599 59.5558 81.7599 59.6119 81.7505C59.6773 81.7505 59.7333 81.7226 59.7894 81.6852C59.8361 81.6478 59.8735 81.6104 59.9015 81.5544C59.9296 81.5076 59.9482 81.4515 59.9576 81.3955C59.9669 81.3394 59.9763 81.2834 59.9763 81.2274V80.7321C59.9763 80.6854 59.9763 80.6387 59.9763 80.5826C59.9763 80.5265 59.9669 80.4799 59.9482 80.4332C59.9295 80.3865 59.9109 80.3491 59.8922 80.3117C59.8641 80.2743 59.8361 80.2462 59.7894 80.2275C59.7614 80.2182 59.7146 80.2089 59.6586 80.1996C59.6025 80.1996 59.5465 80.1902 59.4998 80.1902H59.3035V81.7692H59.4717L59.4531 81.7599Z" fill="#575756"/>
<path d="M61.7698 80.0859V80.1887H61.4895V83.0945H61.7418C61.8632 83.0945 61.9754 83.0572 62.0688 82.9918C62.1623 82.9263 62.2464 82.8329 62.3211 82.7114C62.3772 82.618 62.4145 82.5246 62.4425 82.4312C62.4706 82.3377 62.4893 82.2536 62.4986 82.1695H62.6201L62.5827 83.2066H60.6953V83.1039H60.9757V80.1981H60.6953V80.0953H61.7698V80.0859Z" fill="#575756"/>
<path d="M64.703 80.0859L64.731 81.0856H64.6095C64.6095 81.0202 64.5908 80.9361 64.5722 80.8333C64.5535 80.7399 64.5255 80.6466 64.4787 80.5625C64.4601 80.5251 64.4414 80.4877 64.4133 80.441C64.3853 80.3943 64.3479 80.3569 64.3012 80.3195C64.2545 80.2822 64.2077 80.254 64.1423 80.226C64.0769 80.198 64.0022 80.1887 63.9181 80.1887H63.6005V81.4313H63.8153C63.8153 81.4313 63.8994 81.4313 63.9368 81.4033C63.9742 81.3846 64.0116 81.3472 64.0489 81.3005C64.0863 81.2445 64.1236 81.1697 64.133 81.095C64.1517 81.0202 64.161 80.9455 64.161 80.8708H64.2732V82.1228H64.161C64.161 82.076 64.161 82.02 64.1517 81.9546C64.1517 81.8986 64.133 81.8425 64.1143 81.7958C64.0957 81.7397 64.0676 81.6836 64.0396 81.6556C64.0115 81.6182 63.9835 81.5996 63.9555 81.5809C63.9275 81.5622 63.8994 81.5528 63.8714 81.5528C63.8434 81.5528 63.8247 81.5528 63.806 81.5528H63.5911V83.1132H63.9088C64.0396 83.1132 64.161 83.0758 64.2545 82.9918C64.3479 82.917 64.432 82.8235 64.488 82.7208C64.5348 82.6367 64.5721 82.5432 64.6095 82.4498C64.6469 82.3563 64.6656 82.263 64.6749 82.1789H64.787L64.7497 83.216H62.7969V83.1132H63.0772V80.2074H62.7969V80.1045H64.703V80.0859Z" fill="#575756"/>
<path d="M46.5015 49.5328C32.29 49.5328 18.3869 54.3073 7.32422 62.9874L12.024 75.3022C12.0894 75.2555 12.1548 75.2088 12.2109 75.1527C12.3137 75.0686 12.4258 74.9845 12.5286 74.9004C12.678 74.7883 12.8275 74.6762 12.977 74.5641C13.0798 74.48 13.1919 74.4052 13.2947 74.3211C13.4629 74.1996 13.6311 74.0782 13.7993 73.9567C13.8927 73.8913 13.9862 73.8259 14.0796 73.7605C14.3412 73.5737 14.6028 73.3868 14.8738 73.2093C16.8826 71.8265 19.0036 70.5743 21.1713 69.4811C28.9264 65.5569 37.6906 63.492 46.5202 63.492C55.3498 63.492 64.4971 65.6597 72.4017 69.7615C74.4386 70.8173 76.438 72.0227 78.3254 73.3214C78.5777 73.4989 78.83 73.6764 79.073 73.8539C79.1571 73.91 79.2411 73.9753 79.3252 74.0314C79.4934 74.1529 79.6522 74.265 79.8111 74.3865C79.9045 74.4612 79.9979 74.5267 80.1007 74.6015C80.2502 74.7136 80.3997 74.8257 80.5399 74.9378C80.6333 75.0126 80.7361 75.0873 80.8295 75.1621C80.8856 75.2088 80.951 75.2555 81.0071 75.2929L85.7068 62.9781C74.6348 54.298 60.7317 49.5234 46.5202 49.5234L46.5015 49.5328ZM65.3754 53.5692L66.2163 54.9427L64.8334 55.7836L63.9925 54.4101L65.3754 53.5692ZM62.0491 52.7283L62.89 54.1018L61.5165 54.9427L60.6756 53.5692L62.0491 52.7283ZM23.1521 65.2859C22.8438 65.9493 22.1523 66.538 21.0965 67.0706C20.0501 67.5938 19.0877 67.7807 18.2001 67.6498C17.3124 67.519 16.6864 67.0799 16.322 66.3417L14.9672 63.6042L12.622 62.9127L17.9478 60.2685L17.2284 62.4829L18.443 64.9215C18.7046 65.4447 19.013 65.7624 19.3867 65.8746C19.7511 65.9867 20.2089 65.9119 20.7508 65.641C21.3114 65.3607 21.6665 65.0431 21.7973 64.6693C21.9374 64.3049 21.8721 63.8564 21.6105 63.3425L20.4051 60.9039L18.2094 60.1376L22.5168 57.9981L21.6478 60.2872L23.0026 63.0155C23.4231 63.8658 23.4791 64.6132 23.1708 65.2766L23.1521 65.2859ZM33.9812 62.352L32.7292 61.941C31.8976 62.7071 30.9633 63.2397 29.9261 63.548C28.6741 63.9218 27.5249 63.8938 26.4784 63.464C25.4319 63.0342 24.7592 62.3147 24.4602 61.3056C24.1519 60.2498 24.3387 59.2127 25.0395 58.1755C25.7403 57.1477 26.7307 56.4376 28.0107 56.0545C29.1039 55.7275 30.1317 55.7463 31.0941 56.12L31.7481 55.195L32.6451 58.2129C31.1128 57.2319 29.6926 56.9329 28.3658 57.3253C27.7771 57.5029 27.3847 57.8578 27.1791 58.3998C26.9829 58.9417 27.0016 59.6144 27.2352 60.4086C27.7024 61.969 28.5807 62.5577 29.8794 62.1746C30.4774 61.997 30.9072 61.67 31.1688 61.2028L31.0567 60.8292L28.6648 59.7826L34.5512 58.0353L33.3178 60.1657L33.9625 62.352H33.9812ZM43.9601 59.9415C43.1192 60.7637 42.0727 61.2309 40.8113 61.3523C39.578 61.4738 38.4567 61.2122 37.4476 60.5769C36.4385 59.9322 35.8873 59.1285 35.7939 58.1568C35.6818 57.0543 36.0555 56.0639 36.9058 55.1857C37.756 54.298 38.8212 53.7935 40.1106 53.6627C41.3439 53.5412 42.4464 53.8308 43.4369 54.5409C44.4273 55.251 44.9692 56.1386 45.0813 57.2131C45.1841 58.2129 44.8104 59.1286 43.9694 59.9415H43.9601ZM55.1629 61.2122L45.6513 60.5301L47.5573 59.0071L47.8283 55.2044L46.1651 53.4104L52.2571 53.8495L50.351 55.3912L50.0614 59.4276L53.07 59.6425L55.4339 57.4001L55.1629 61.2122ZM63.3105 58.7175L64.8241 58.2597L63.9832 61.371L62.9367 60.0816L61.1054 59.5864L60.6943 61.1094L64.0205 62.0063L66.4592 60.5395L65.5529 63.875L56.144 61.3336L58.3117 60.2031L59.3114 56.5124L58.0127 54.4475L67.2815 56.9516L66.4779 59.9321L65.2072 57.6149L61.8809 56.718L61.4791 58.2223L63.3105 58.7175ZM75.6999 63.548L75.9709 66.9024L76.7371 69.1261L71.7103 66.6781L73.7097 65.9307L73.5416 63.9779L71.2711 64.2862L71.1496 64.5479L71.6355 66.6408L66.5339 64.1554L68.8792 63.4453L70.5423 60.0255L69.6547 57.7458L74.7095 60.2031L72.8689 61.0253L72.0093 62.7913L75.4477 62.1465L74.9431 60.3152L79.783 62.6698L75.6999 63.5387V63.548Z" fill="#575756"/>
<path d="M11.5205 76.2819L8.25027 67.6953H0L2.34523 79.085H19.0794L11.5298 76.2819H11.5205ZM4.33534 76.4689L5.79298 75.3569L2.77499 74.5628L5.18563 73.7031L2.41993 72.7128L4.3634 71.8438L1.90605 70.6198L6.60586 69.3864L4.27928 70.9001L8.24097 72.0401L5.70886 72.7128L9.14726 73.6844L6.40962 74.7402L9.23138 75.3103L6.65256 76.1792L11.3991 77.5433L4.33534 76.4689Z" fill="#575756"/>
<path d="M84.7641 67.6953L81.4566 76.3753L74.3555 79.085H91.2112L93.5564 67.6953H84.7735H84.7641ZM90.5291 72.7128L87.7634 73.7031L90.1741 74.5628L87.1561 75.3569L88.6137 76.4689L81.55 77.5433L86.2965 76.1792L83.7177 75.3103L86.5394 74.7402L83.8018 73.6844L87.2402 72.7128L84.7081 72.0401L88.6697 70.9001L86.3432 69.3864L91.043 70.6198L88.5857 71.8438L90.5291 72.7128Z" fill="#575756"/>
<path d="M14.5117 58.1351C15.5021 57.5652 16.5113 57.0139 17.5297 56.5C16.5113 57.0232 15.5021 57.5652 14.5117 58.1351Z" fill="#575756"/>
<path d="M15.399 51.4547C13.8013 53.3141 14.0256 55.9116 14.3059 57.3131C15.2963 56.7431 16.296 56.2012 17.3051 55.6873C16.9967 54.3138 16.7445 51.8378 18.2768 50.0345C19.2392 48.9039 21.8928 48.5582 21.8928 48.5582C21.8928 48.5582 25.6862 47.6892 27.041 47.9228C28.4052 48.1471 29.7787 48.8759 29.7787 48.8759C29.7787 48.8759 32.5911 48.5675 33.5161 48.8011C34.03 48.9319 35.0484 49.2964 35.9267 49.5954C36.6555 49.4739 37.3936 49.3617 38.1318 49.2682C38.8232 48.5394 39.8043 47.5211 39.9911 47.3622C40.6171 46.839 41.1777 46.2597 41.7384 45.671C42.3363 45.0357 44.2891 42.7558 44.6722 42.2887C45.1768 41.672 46.2793 39.7192 46.4101 39.4763C46.5222 39.2614 47.9144 35.8044 48.148 35.3465C48.2694 35.0942 48.4657 35.0382 48.3069 34.7485C48.1947 34.543 48.0826 34.2533 47.9237 34.0571C47.8677 33.9824 47.8023 33.9262 47.7275 33.8795C47.2977 33.6366 46.9801 33.4124 46.7185 33.2068C46.1298 32.7396 45.8775 32.3659 45.6252 32.0763C45.5038 31.9361 45.3823 31.824 45.2141 31.7119C45.6439 32.4874 46.5596 34.029 46.9987 34.7952C47.223 35.1876 47.2977 35.8416 47.2977 35.8416C47.2977 35.8416 47.2416 36.421 47.0828 36.5611C47.1015 36.5144 46.952 36.4677 46.9987 36.5424C46.6998 36.2341 46.4568 35.7763 46.2046 35.4399C45.9149 35.0475 45.6533 34.627 45.3449 34.2346C45.0646 33.8795 44.6068 33.2909 43.9808 32.6275C42.654 31.2167 40.5891 29.46 38.0383 28.8527C37.1694 28.6472 34.0393 27.5447 30.358 29.5722C27.0597 31.3848 26.415 33.1508 26.0413 33.8422C25.3312 35.1597 25.1069 37.5141 25.0882 38.3083C25.0509 39.6631 25.7423 41.644 26.1908 42.6531C26.2655 42.8119 26.3309 42.9521 26.387 43.0549C27.1064 44.4004 28.8724 46.8016 28.9471 47.11C28.1716 47.1473 27.4241 46.923 26.6579 46.8202C25.9759 46.7268 25.3031 46.7829 24.6211 46.8202C23.5746 46.8763 22.5842 47.0819 21.6125 47.3995L17.8937 47.7079L20.9584 45.2693L17.0528 45.3814L20.5006 43.0175L16.3334 42.6998L20.0054 40.7097L15.8943 39.9528L19.7624 38.3645L15.7541 37.1872L19.7624 36.0099L15.8943 34.4215L20.0054 33.6646L16.3707 31.7025C16.3707 31.7025 16.3707 31.6838 16.3707 31.6745L20.4912 31.3568L17.1276 29.049C17.1276 29.049 17.1369 29.0116 17.1463 28.9929L21.22 29.105L18.1367 26.4796C18.1367 26.4796 18.1554 26.4328 18.1647 26.4141L22.1824 26.9467L19.3887 24.0129C19.3887 24.0129 19.4167 23.9661 19.4261 23.9474L23.3597 24.9004L20.8743 21.677C20.8743 21.677 20.893 21.6489 20.9117 21.6302L24.7519 22.9943L22.5935 19.4813C22.5935 19.4813 22.6029 19.4626 22.6122 19.4532L26.3309 21.2377L24.5276 17.4724L28.0875 19.6588L26.686 15.7252L29.9936 18.2759L29.0125 14.2115L32.0398 17.0893L31.4886 12.9501L34.1981 16.1362L34.086 11.9597L36.4406 15.4074L36.7583 11.2403L38.7484 14.9123L39.5052 10.8011L40.8881 13.7817L41.1217 14.2956L42.4298 17.0799L42.0374 17.8368L41.3646 19.1355L41.0282 19.7802L40.9161 20.0045L44.2705 27.554C44.2891 27.6381 44.3078 27.7315 44.3359 27.8437L44.6162 29.2732C44.6162 29.2732 44.6162 29.2733 44.6162 29.2826L44.7096 29.7777V29.7498C44.7096 29.7498 44.7096 29.7684 44.7096 29.7777C44.7096 29.8151 44.7096 29.6937 44.7096 29.4881C44.7096 29.4414 44.7096 29.3947 44.7096 29.3386C44.7096 28.5351 44.7189 26.9467 44.7376 26.8719C44.7563 26.7972 44.5694 26.1619 44.4573 25.7788C44.4573 25.7601 44.448 25.7414 44.4386 25.7227C44.4386 25.6946 44.4386 25.676 44.4386 25.6573C44.4106 25.2929 44.3078 24.9471 44.2798 24.6388C44.2517 24.3118 44.2704 24.0408 44.3078 23.8072C44.3919 23.5362 44.5134 23.312 44.7002 23.1064C44.7189 23.1064 44.7282 23.1158 44.7469 23.1252C44.8684 22.985 45.0272 22.8916 45.2141 22.8916C46.7091 22.8168 47.1202 24.536 46.98 26.0403C46.8679 26.059 46.0083 26.4702 46.0083 26.4702L46.298 26.8532L46.8866 26.7131C46.8586 26.8439 46.8305 26.9747 46.7932 27.0961C46.9894 27.3764 47.1483 27.6942 47.3632 27.9558C47.4566 27.498 47.4846 27.0681 47.4846 26.6196V26.5449L47.3912 24.7323L45.999 20.9669V20.9856C45.999 20.9856 45.999 20.9762 45.9896 20.9669C45.9523 20.7426 45.8775 20.509 45.8682 20.3034C45.8682 19.8456 45.999 19.3317 46.0644 18.8365C46.1298 18.36 46.1672 17.8087 46.298 17.3882C46.4288 16.9771 46.5783 16.5661 46.7278 16.1549C46.8773 15.7345 47.0081 15.314 47.195 14.9402C47.2697 14.6973 47.7649 14.1741 47.7649 14.1741C47.7649 14.1741 48.2227 13.7069 48.9796 13.8191C49.1384 13.8471 49.5121 14.1741 49.5495 14.3049C49.5869 14.4638 49.5775 14.744 49.5682 14.9496C49.5682 14.9776 49.5682 14.9964 49.5682 15.0151C49.5682 15.2019 49.5402 15.37 49.5121 15.5289C49.4374 15.9867 49.2973 16.3418 49.1758 16.8183C49.0263 17.3976 48.8675 17.8461 48.8207 18.5002C48.8207 18.6029 48.8487 18.7805 48.7273 18.8552C48.6245 18.0704 48.8114 17.4723 48.9609 16.9398C49.0356 16.6595 49.0824 16.3792 49.1197 16.0802C48.8394 16.3232 48.6899 16.6595 48.5311 17.0986C48.475 17.2575 48.3162 18.4254 48.3162 18.8739C48.3162 19.257 48.2601 19.7148 48.3162 19.9858C48.3348 20.0885 48.4563 20.21 48.5311 20.3408C48.9702 21.1257 49.3813 21.8545 49.8018 22.5833C49.8579 22.6954 49.9233 22.8355 50.0354 22.8916C50.0447 22.8168 50.0354 22.7421 50.0354 22.6673C50.0074 22.4991 49.9513 22.3309 49.9046 22.1721C49.7644 21.6676 49.6056 21.2098 49.4748 20.7052C49.4094 20.4529 49.2879 20.182 49.2786 19.9391C49.2786 19.8924 49.2786 19.8456 49.2786 19.7989C49.2972 19.6121 49.3439 19.4252 49.372 19.2383C49.4654 18.4722 49.5308 17.7807 49.6243 17.0332C49.7644 16.6221 49.8298 16.155 49.9326 15.7439C49.97 15.5944 49.9887 15.4355 50.026 15.2953C50.0447 15.2392 50.1101 15.0057 50.1194 14.9589C50.1288 14.9216 50.4558 14.1461 50.568 13.9499C50.596 13.9032 50.7361 13.5949 50.7829 13.5201C50.8576 13.4173 50.9137 13.2584 50.9604 13.2117C51.4462 12.6418 52.5207 12.9314 52.773 13.5668C52.5768 14.1461 52.5301 14.8655 52.0536 15.1645C51.9788 15.1832 52.0816 15.4168 52.2498 15.4729C52.1377 15.7906 52.147 16.0988 51.9788 16.3324C51.8854 16.4632 51.6612 16.5568 51.5117 16.6689C51.3435 16.781 51.1846 16.8838 51.0445 17.0052C51.2501 17.1921 51.7639 17.1827 51.848 17.435C51.8854 17.5378 51.8574 17.734 51.8667 17.8835C51.8854 18.388 51.8854 18.8458 51.8854 19.2663C51.8387 19.0981 51.6144 19.1168 51.6144 18.9019C51.3341 19.1542 51.2594 19.2663 50.9697 19.5092C50.8483 19.6027 50.6708 19.7522 50.5213 19.7989C50.241 19.8924 49.9046 19.7989 49.5028 19.8362C49.5308 20.266 49.699 20.6398 49.8111 21.0042C49.9326 21.3872 50.0167 21.7704 50.1849 22.1348C50.4838 23.3214 50.7175 24.5173 50.9884 25.704C51.2594 26.8906 51.5864 28.0679 51.8293 29.2545C52.0723 29.3199 52.3059 29.4881 52.5675 29.4694C52.6609 28.1613 52.5768 26.6851 52.6048 25.3116C52.7543 24.723 52.6702 23.6858 52.6983 22.929C52.7076 22.6767 52.7543 22.4057 52.717 22.1908C52.6796 22.0133 52.5488 21.8264 52.4834 21.6209C52.3806 21.3219 52.2498 21.0509 52.3058 20.6865C52.5955 21.3592 52.8197 22.0974 53.1841 22.6954C53.2402 21.8825 53.0907 21.0697 53.1654 20.2942C53.1935 20.0139 53.1655 19.7615 53.1841 19.4905C53.2028 19.0981 53.3336 18.6496 53.4177 18.2198C53.5018 17.7994 53.5953 17.3602 53.67 16.9491C53.8943 15.8186 54.025 14.5291 54.567 13.791C54.8473 13.6228 55.2117 13.5295 55.6415 13.5201C55.6882 13.5762 55.7629 13.5948 55.8003 13.6602C55.791 13.9405 55.7723 14.2208 55.763 14.5011C55.6041 14.716 55.3332 14.8095 55.137 14.987C55.1183 15.2206 55.0435 15.5009 55.0622 15.7065C55.6602 15.7625 56.2021 15.6971 56.3516 15.2206C56.417 15.5756 56.0993 15.7158 55.9218 15.8839C55.8937 16.3044 55.8564 16.7155 55.7442 17.0519C55.6041 17.1453 55.2864 17.052 55.1556 17.1454C55.193 17.3883 55.5761 17.4257 55.6228 17.7153C55.6695 18.005 55.464 19.2476 55.3518 19.5092C55.2771 19.6774 55.1182 19.7615 54.9781 19.883C54.8286 20.0138 54.6978 20.1913 54.5296 20.1913C54.3801 20.1913 54.1932 20.1073 54.0437 20.0512C53.8849 19.9952 53.7261 19.9391 53.5579 19.8923C53.5018 20.7239 53.5018 21.5928 53.5018 22.4057C53.5018 22.6953 53.4458 23.0224 53.5018 23.284C53.5299 23.4335 53.67 23.6017 53.7541 23.7699C54.0064 24.2745 54.2493 24.8444 54.4922 25.2929C54.5109 27.498 54.5203 29.7123 54.5483 31.9081C54.8099 32.0202 55.0529 32.1697 55.3051 32.2818C55.5667 32.3939 56.3236 32.8612 56.3609 33.02C56.4077 33.2256 56.3796 33.5151 56.3796 33.7581C56.3796 34.0197 56.3703 34.2907 56.3796 34.5149C56.3983 34.9167 56.3329 35.0661 56.2208 35.3745C56.1647 35.524 51.0818 47.5771 50.5493 48.8291C57.8746 49.287 65.041 50.9876 71.731 53.8186L72.8148 52.389L74.0015 50.8286L78.1219 45.4187V45.4001L80.0093 42.625L82.0088 35.8416C82.1116 35.6828 82.1957 35.5334 82.2144 35.4586C82.2518 35.3278 82.2518 35.1316 82.2704 34.9541C82.3359 34.3934 82.5695 32.3566 82.5227 32.0482C82.4667 31.6932 81.6351 30.5252 81.4482 30.1795C81.3361 29.9646 80.8222 29.3666 80.1495 28.6472C77.9631 25.0219 74.1977 22.3871 70.6938 19.9204L68.2739 17.2761L68.4981 16.5754V16.0802L69.6287 12.1372L66.7322 9.29685L67.106 4.52233L65.7512 3.85887L61.1168 1.59782L62.7799 4.01775L60.3599 2.88722L57.7438 0L57.6971 5.36316L51.0351 7.44685L57.7438 0H51.2407L50.7735 2.06499L46.2139 2.88722L45.3356 5.44733C45.3075 5.54077 45.2702 5.63413 45.2328 5.72757L45.0459 5.98921L43.0558 7.45609C43.0558 7.45609 42.9717 7.45609 42.925 7.45609C40.0472 7.45609 37.2067 7.87664 34.4691 8.71756C21.846 12.5858 13.0352 24.7416 13.0352 38.2617C13.0352 42.6718 13.9788 47.0165 15.7728 51.0248C15.6046 51.165 15.4645 51.2958 15.3617 51.4173L15.399 51.4547ZM45.728 39.252C45.6066 39.4202 45.0273 39.1586 44.8965 39.0465C44.6909 38.8783 44.5694 38.5419 44.9525 38.5513C45.3636 38.5606 44.9525 38.2336 45.13 38.2056C45.2515 38.1775 45.4197 38.271 45.4757 38.1589C45.7934 37.5423 44.803 37.2245 44.831 36.5985C44.9245 36.3743 45.1207 36.4957 45.2515 36.5985C45.3917 36.7106 45.4664 36.8694 45.5318 37.0376C45.672 37.4114 45.7561 37.6917 45.7935 38.0935C45.8308 38.4859 45.9523 38.9344 45.728 39.2707V39.252ZM43.9528 35.2438C44.0368 35.2251 44.9618 34.9167 45.7 35.8324C46.0924 36.3183 46.4008 37.0844 46.2606 37.7011C46.1485 37.6824 46.0083 36.9068 45.9896 36.7853C45.6346 35.9538 45.074 35.5707 44.7376 35.6361C44.3452 35.7389 44.3639 36.3369 44.4666 36.6359C44.3078 36.692 44.2891 36.664 44.2424 36.5238C44.177 36.3183 44.0182 36.5985 43.9808 36.4864C43.8033 35.8791 43.7939 35.6454 43.9621 35.253L43.9528 35.2438ZM42.0561 34.5709C42.2056 34.8886 42.4111 34.2906 42.8315 34.8232C42.9343 34.9634 43.1492 34.9354 43.1959 35.1129C43.2613 35.3278 43.3361 35.6829 43.2707 35.9071C43.0651 35.4026 42.8128 35.44 42.6633 35.3559C42.5793 35.3092 42.5793 35.4586 42.4858 35.4586C42.327 35.3185 42.2522 35.0942 42.1308 35.4025C41.7944 35.0942 41.6356 33.7861 40.7479 33.1041C41.1684 33.0106 41.9439 34.356 42.0467 34.5803L42.0561 34.5709ZM35.4595 32.4499C35.5623 32.3939 35.8333 32.2257 35.4595 32.4499C35.9548 32.151 37.104 31.9455 37.6552 32.4314C37.0479 32.5715 36.478 32.4407 35.908 32.7584C35.3568 33.0573 34.983 33.5431 34.6934 34.0851C34.5906 33.4404 34.8989 32.7957 35.4502 32.4499C35.4128 32.4686 35.4222 32.4686 35.4502 32.4499H35.4595ZM36.5994 31.3381C36.8517 31.2353 37.1974 31.254 37.4217 31.4222C37.6739 31.6091 37.5244 31.8801 37.2535 31.8334C36.6462 31.7399 35.9734 31.8801 35.4315 32.1604C35.7305 31.796 36.1696 31.5156 36.5994 31.3381C36.9451 31.198 36.179 31.5063 36.5994 31.3381ZM27.8259 37.4488C27.0317 37.4301 28.0688 36.4583 28.5547 36.3182C28.835 36.2341 28.3304 36.6172 28.2276 36.8602C28.0781 37.2152 28.0221 37.3647 27.8165 37.4488H27.8259ZM30.7224 36.4303C30.4047 36.4303 30.0496 36.5144 29.76 36.6545C28.6014 37.1964 28.7509 38.2242 28.4612 38.299C28.3678 37.5702 28.7602 36.3088 29.6479 35.9818C29.9655 35.8603 30.3112 36.0753 30.6196 36.1594C31.0307 36.2622 31.2456 36.4116 30.713 36.4303H30.7224ZM28.5547 40.719C28.1623 40.0743 28.0782 40.0463 28.1249 39.5417C28.1436 39.3268 28.2183 39.1213 28.3398 38.9437C28.5266 38.9437 28.7042 38.9157 28.8817 38.8597C29.6572 38.6354 30.1617 38.1122 30.685 37.5422C30.2178 37.7291 29.9655 38.1121 29.4516 38.2056C29.2554 37.8692 29.9282 37.645 30.1244 37.5142C30.386 37.3273 30.6476 37.1311 30.8812 36.9162C31.0868 36.72 31.2456 36.8694 31.5072 36.7853C31.7408 36.7199 32.1145 36.3929 32.2547 35.9631C32.236 35.6921 32.0865 34.4121 31.3857 34.3467C30.7691 34.4121 30.1711 34.6831 29.5637 34.8513C29.2741 34.9354 28.9565 34.9728 28.6855 35.1036C28.48 35.2064 28.3117 35.4306 28.1342 35.5708C27.7792 35.8604 27.5176 36.3649 27.0878 36.5424C27.2933 35.6174 28.0782 35.0288 28.6668 34.3373C28.9938 33.9543 29.3115 33.6086 29.7413 33.3376C30.0776 33.1227 30.4234 32.721 30.8158 32.6369C31.0868 32.5808 31.8343 33.0107 31.7128 32.4407C31.582 31.8988 31.9931 31.824 32.3855 31.6091C33.1984 31.1606 34.1794 30.8429 35.1138 30.7308C35.1418 30.7308 35.1605 30.7308 35.1792 30.7308C35.1605 30.7308 35.1325 30.7308 35.1138 30.7308C35.5062 30.6841 35.9361 30.7308 36.3191 30.7308C36.151 30.9644 35.7492 31.0392 35.4969 31.1326C35.2166 31.2354 34.9737 31.4035 34.7494 31.5904C34.1421 32.1043 33.7123 32.4781 33.2638 33.2629C33.161 33.5059 33.1704 33.8234 33.3292 33.9729C33.5534 34.2532 33.9739 34.6551 34.3477 34.7392C34.9457 34.7952 35.5156 34.0945 35.9174 33.9076C36.151 33.8048 36.207 33.7861 36.4313 33.674C36.7116 33.5338 36.9077 33.3096 36.805 33.0106C36.9825 33.0387 37.0759 33.2816 37.2908 33.1975C37.4123 33.1508 37.6179 33.0854 37.7487 33.1321C37.9542 33.3844 37.3469 33.4591 37.0947 33.7487C37.8702 33.5712 38.3934 33.4965 38.7951 32.7677C38.9727 32.45 39.1222 32.2725 39.4772 32.5248C39.6828 32.6649 39.851 32.8798 40.0378 33.0479C40.4957 33.4684 40.8507 34.0477 40.8974 34.6737C40.9348 35.0848 40.9442 35.5053 40.9815 35.9165C41.0189 36.3276 41.0656 36.3742 41.4674 36.4303C42.2429 36.5237 42.5419 37.0189 43.0184 37.5889C43.2987 37.9252 43.8406 39.6632 43.7565 39.9155C43.6631 40.2238 42.3831 40.8218 41.9906 40.7003C41.5608 40.5602 40.5331 40.1584 40.1313 40.5042C39.6922 40.8779 39.2997 41.2889 38.8045 41.616C38.1785 42.0364 37.5151 42.3915 36.8517 42.7558C36.2351 43.0922 34.2729 43.4193 33.9366 43.2604C33.6562 43.1203 32.1706 42.4756 32.1519 42.2233C32.1332 42.0271 32.264 41.7467 32.1052 41.5879C31.7221 41.2048 28.9284 41.3637 28.536 40.719H28.5547ZM44.8404 19.3224L41.3926 19.7615L42.9063 18.7525L45.6626 16.7062L44.8404 19.3224ZM56.2114 29.1331C56.2114 28.4323 56.2582 27.6755 56.2488 27.0401C56.2488 26.6103 56.3609 26.1805 56.389 25.732C56.4357 24.8818 56.2955 23.9381 56.5104 23.256C56.6693 22.7327 57.0337 22.2188 57.2859 21.7143C57.5569 21.163 57.7905 20.6492 57.9493 20.1166C57.94 19.2476 58.0334 18.2945 58.2016 17.5004C58.2577 17.2387 58.2763 16.9117 58.3604 16.7155C58.4538 16.5193 58.9211 16.2017 59.2761 16.1643C59.491 16.1456 59.6405 16.211 59.818 16.239C59.8741 16.3324 60.0422 16.4353 60.0516 16.51C59.8273 16.51 59.6872 16.482 59.5004 16.5287C59.4443 17.0519 59.4536 17.6312 59.4443 18.2105C59.8461 18.3693 60.0516 18.0236 60.3973 17.9956C60.3039 18.3226 60.3599 18.7898 60.3039 19.1822C60.2198 19.6774 60.0049 20.1353 59.9301 20.6492C59.8647 21.079 59.9488 21.5368 59.8741 21.9946C59.818 22.2843 59.6405 22.5926 59.5191 22.8916C59.4069 23.1906 59.2387 23.4615 59.1266 23.7325C59.0518 23.9287 59.0799 24.1343 58.893 24.2558C58.7622 23.5737 59.0145 23.0972 59.2014 22.5926C59.3789 22.1348 59.6125 21.7985 59.5751 21.107C59.3602 21.2379 59.0238 21.5368 58.7529 21.7517C58.6501 21.8358 58.538 21.9385 58.4445 21.9479C58.2016 21.9666 58.0708 21.7517 57.8372 21.677C57.7624 21.8452 57.5849 22.6861 57.5475 22.9477C57.5102 23.1626 57.4167 23.3681 57.3887 23.5736C57.3607 23.8072 57.3887 24.0595 57.37 24.2931C57.3326 24.807 57.1645 25.2929 57.1178 25.7601C56.9496 26.2646 56.8187 27.012 56.6692 27.554C56.5197 28.0959 56.3142 28.5818 56.2021 29.1144L56.2114 29.1331ZM60.1637 44.7087L59.9582 44.8115H59.9488C59.9488 44.8115 54.025 47.6706 53.9783 47.6892L54.5763 44.8768C54.9968 42.597 55.3892 40.2331 55.8938 38.3177C56.0993 37.5515 56.417 36.7947 56.6973 36.0939C56.7907 35.851 56.9215 35.5895 56.9682 35.3559C57.0243 35.0849 57.0056 34.8046 57.0243 34.5336C57.043 34.2627 57.0056 33.9543 57.0617 33.674C57.0897 33.5245 57.2112 33.3563 57.2766 33.2068C57.3513 33.0386 57.37 32.8518 57.4915 32.7209C57.6129 32.4126 57.8092 32.0669 57.9026 31.7866C58.0427 30.8429 58.837 27.0588 58.8183 27.2363C58.6875 28.6005 58.566 29.9926 58.4258 31.3101C58.3978 31.553 58.4258 31.8053 58.3698 32.0108C58.3324 32.1416 58.239 32.3098 58.1736 32.4593C58.1082 32.5994 58.0241 32.749 57.9586 32.8892C57.8185 33.1975 57.6316 33.4871 57.5475 33.7861C57.4074 34.3 57.4915 34.7765 57.37 35.3091C57.3046 35.6361 57.1551 35.9819 57.043 36.2996C56.2488 38.57 56.1834 40.7938 55.5387 43.1764L55.6321 43.2043L65.7044 30.8616L64.5552 29.3947L65.6857 27.3204C65.9193 27.7782 66.1529 28.2268 66.3865 28.6753C66.8163 29.5068 69.7595 35.2904 69.7595 35.4493C69.7595 35.5521 69.4044 35.795 69.2363 35.9352C69.1428 36.0099 68.984 36.15 68.7784 36.3182L68.7597 36.3369C68.2178 36.804 67.3582 37.5422 66.5453 38.2523L60.2385 44.6245L60.1451 44.6713H60.1731L60.1637 44.7087ZM69.6847 19.8362L71.0395 21.3032L73.5529 23.2653C74.207 23.882 74.7863 24.4239 74.9078 24.5173C75.2068 24.7696 75.5338 24.9939 75.8048 25.2555C76.1692 25.6199 76.4868 26.0497 76.8419 26.4421C77.552 27.227 80.3924 30.7214 80.6447 31.0484C80.8129 31.2633 81.2987 32.1323 81.3267 32.3752C81.3641 32.6369 81.4202 32.9079 81.4015 33.1321C81.3828 33.319 81.2333 34.87 80.8783 35.3278C79.8972 35.767 79.0282 34.9634 79.0282 34.9634C79.0282 34.9634 77.9538 36.0566 77.1876 36.8415C77.0194 37.0003 76.8699 37.1591 76.7391 37.318C76.5709 37.4955 76.4588 37.617 76.4495 37.645V37.6917H76.4681C76.1598 38.1496 76.0383 38.5794 76.1224 38.8316C76.2158 39.1119 77.4679 37.7851 79.3553 37.3086C79.2151 37.5048 79.0843 37.5796 78.9815 37.7571C78.6638 38.3271 78.4583 38.9625 78.1967 39.5511C78.1406 39.6819 77.9631 40.3359 77.7108 41.1394C77.2436 41.7935 76.8139 42.4195 76.4401 42.9801C74.5994 45.7458 71.1424 49.0627 70.6098 49.5673L69.255 50.838L66.863 50.8661V49.9036C67.9282 48.3433 68.984 46.7362 70.0305 45.2973C70.8527 44.176 71.4787 41.2702 70.2454 42.5316C69.283 43.5127 66.6668 46.4372 65.013 48.3713L62.0324 48.7357L62.8546 46.5587L65.0504 42.3074L68.7691 37.2619C69.7501 36.3555 70.5163 35.6735 70.5537 35.6081C70.6752 35.4025 70.778 35.0942 70.8901 34.8045C70.9929 34.5429 71.1704 34.1973 71.1797 33.9637C71.1984 33.6087 70.9275 33.375 70.7873 33.0854C70.6752 32.8518 70.5724 32.5901 70.479 32.3659C69.1896 29.4694 67.9375 26.6384 66.6574 23.7793C66.5827 23.6204 66.508 23.4616 66.4332 23.3027L66.6481 22.2563L67.9656 18.2292L68.031 18.0423L69.6847 19.8362ZM63.4807 8.86697L69.0307 12.0251L66.7135 12.1092L62.92 9.0165L63.4807 8.87632V8.86697ZM65.9754 20.0792L64.5084 23.6391L63.3218 23.0785L61.2663 19.3037L65.966 20.0792H65.9754ZM62.6024 11.9784L62.5743 12.1465L47.6061 11.1094L48.3162 9.04455L62.6024 11.9784ZM46.1485 6.04533L48.12 7.29733L43.3454 8.15685L46.1485 6.04533ZM43.2613 11.6047L45.8682 14.1367L41.6356 13.8097L43.2613 11.6047Z" fill="#575756"/>
</svg>
