<svg width="139" height="15" viewBox="0 0 139 15" fill="none" xmlns="http://www.w3.org/2000/svg">
<path d="M134.784 1.59834C134.018 1.59834 133.16 1.75438 132.324 2.14913V9.8696C133.15 10.2598 134.018 10.4204 134.784 10.4204C135.551 10.4204 136.409 10.2643 137.245 9.8696V2.14453C136.419 1.75438 135.551 1.59375 134.784 1.59375V1.59834ZM136.538 9.43811C135.96 9.65843 135.363 9.75485 134.784 9.75485C134.206 9.75485 133.609 9.66302 133.031 9.43811V2.56684C133.609 2.34651 134.206 2.25015 134.784 2.25015C135.363 2.25015 135.96 2.34192 136.538 2.56684V9.43811Z" fill="#575756"/>
<path d="M134.783 0C133.406 0 131.919 0.390151 130.602 1.31734V13.1688C131.919 14.0914 133.402 14.4861 134.783 14.4861C136.165 14.4861 137.647 14.096 138.965 13.1688V1.31734C137.647 0.394741 136.165 0 134.783 0ZM138.262 12.8567C137.179 13.5131 135.963 13.8252 134.788 13.8252C133.613 13.8252 132.396 13.5085 131.313 12.8567V1.62949C132.396 0.97311 133.613 0.660938 134.788 0.660938C135.963 0.660938 137.179 0.9777 138.262 1.62949V12.8521V12.8567Z" fill="#575756"/>
<path d="M135.129 6.03125H134.422V8.0646H135.129V6.03125Z" fill="#575756"/>
<path d="M60.3526 0.234375H52.9489L51.9023 14.3258H61.4037L60.3572 0.234375H60.3526ZM54.3305 13.6923L54.6196 9.78162H58.6726L58.9618 13.6923H54.3259H54.3305ZM54.6701 9.15738L55.1704 2.42383H58.1264L58.6267 9.15738H54.6655H54.6701ZM58.7874 1.79954H54.5141L53.6374 13.6969H52.6459L53.6007 0.863208H59.687L60.6418 13.6969H59.6503L58.7736 1.79954H58.7828H58.7874Z" fill="#575756"/>
<path d="M100.616 8.96923C101.29 7.85844 101.662 6.54106 101.662 5.19618C101.662 3.42901 101.038 1.68942 99.7207 0.234375H92.7852V14.3258H101.988L100.611 8.96923H100.616ZM95.2133 13.6923V8.99674H98.1693L99.404 13.6923H95.2179H95.2133ZM95.2133 8.3725V2.42383H98.3758C98.9542 3.2684 99.2342 4.20931 99.2342 5.19158C99.2342 6.36663 98.8211 7.46826 98.0591 8.36791H95.2087L95.2133 8.3725ZM98.7797 8.6066C99.56 7.57384 99.9364 6.43089 99.9364 5.19158C99.9364 3.95227 99.6059 2.90579 98.7935 1.795H94.5064V13.6923H93.492V0.858613H99.3443C100.253 1.90514 100.955 3.41065 100.955 5.19158C100.955 6.3345 100.639 7.69777 99.8584 8.84069L101.111 13.6923H100.102L98.7797 8.6066Z" fill="#575756"/>
<path d="M57.0077 6.03125H56.3008V8.0646H57.0077V6.03125Z" fill="#575756"/>
<path d="M49.9856 0.234375H46.0428L44.6383 2.11628L43.2337 0.234375H39.2725L38.4922 14.3258H42.894L42.9812 10.2452L44.6337 11.5671L46.2861 10.2452L46.3733 14.3258H50.7751L49.9948 0.234375H49.9856ZM47.0572 13.6923L46.9379 8.93247L44.6383 10.7318L42.3386 8.93247L42.2193 13.6923H41.0075L41.5583 2.42383H41.9944L44.6428 5.78831L47.2913 2.42383H47.7273L48.2781 13.6923H47.0618H47.0572ZM48.3745 1.79954H46.9333L44.6428 4.73717L42.3524 1.79954H40.8974L40.3144 13.6969H39.2358L39.9426 0.863208H42.8895L44.6383 3.16282L46.3871 0.863208H49.3339L50.0407 13.6969H48.9621L48.3791 1.79954H48.3745Z" fill="#575756"/>
<path d="M110.694 7.74826L111.447 0.234375H103.148V14.3258H111.273L111.553 7.75286H110.694V7.74826ZM110.598 13.6969H103.851V0.863208H110.658L110.566 1.80413H104.87V12.7651H110.635L110.593 13.7061L110.598 13.6969ZM110.667 12.1317H105.577V2.42843H110.506L110.144 6.03159H106.747V6.65583H110.079L109.969 7.75286H106.742V8.3771H110.814L110.658 12.1317H110.667Z" fill="#575756"/>
<path d="M91.4195 0.234375H82.0742V6.65124H84.6263L84.406 14.3258H89.0878L88.8675 6.65124H91.213L91.4149 0.234375H91.4195ZM86.398 13.6923H85.1312L85.3515 6.01781H82.7857V2.41924H86.4026V13.6877L86.398 13.6923ZM90.5337 6.0224H88.156L88.3763 13.6969H87.1095V2.42383H90.6576L90.5382 6.027L90.5337 6.0224ZM90.6713 1.79954H82.7811V0.858613H90.7035L90.6713 1.79954Z" fill="#575756"/>
<path d="M79.5877 6.65124H80.8867L80.4782 0.234375H74.121C73.0239 1.33139 72.5558 2.6946 72.5558 3.98899C72.5558 5.28338 72.9781 6.49518 74.1072 7.74367H72.7761L72.4961 14.3166H80.2441C80.6985 13.5822 81.2309 12.2649 81.2309 10.9016C81.2309 9.05183 80.5562 7.89513 79.5877 6.64205V6.65124ZM73.4554 8.3725H75.5255L74.5249 7.16991C73.6298 6.0729 73.258 5.19618 73.2718 3.99359C73.2856 3.03886 73.5702 1.86384 74.5065 0.863208H79.8264L79.886 1.80413H75.039C74.4882 2.53854 74.2862 3.27754 74.2862 3.99359C74.2862 5.13651 74.7544 5.8434 75.7917 6.77977L77.4992 8.33121C78.5136 9.2538 78.8166 10.0708 78.8166 10.9108C78.8166 11.5351 78.688 11.9435 78.6284 12.1317H73.2948L73.46 8.3771H73.4508L73.4554 8.3725ZM79.7897 13.6923H73.2167L73.258 12.7514H79.1333C79.3352 12.2832 79.5097 11.7049 79.5097 10.9016C79.5097 9.85509 79.1333 8.84986 77.9123 7.73907L76.1727 6.17386C75.3603 5.43945 74.9839 4.85651 74.9839 3.9844C74.9839 3.43359 75.14 2.88742 75.4521 2.41924H79.9228L80.1523 6.0224H78.0546L78.4448 6.44471C80.0559 8.18433 80.5287 9.40068 80.5287 10.9062C80.5287 12.1914 80.0605 13.2058 79.7942 13.6923H79.7897Z" fill="#575756"/>
<path d="M126.191 7.74826L126.439 0.234375H121.945V14.3258H129.257L129.537 7.75286H126.187L126.191 7.74826ZM128.587 13.6969H122.652V0.863208H123.667V12.7606H128.619L128.578 13.7015L128.587 13.6969ZM128.651 12.1317H124.378V0.863208H125.723L125.475 8.3771H128.807L128.651 12.1317Z" fill="#575756"/>
<path d="M70.4942 6.65124H71.2286L70.8063 0.234375H62.8242V14.3258H71.2469L70.4942 6.65124ZM63.5265 13.6923V0.858613H70.1453L70.205 1.79954H64.5409V12.7605H70.3656L70.4575 13.7015H63.5219L63.5265 13.6923ZM66.4228 6.0224V6.64664H69.7689L69.8791 7.74367H66.4228V8.36791H69.9388L70.306 12.1226H65.2477V2.41924H70.2463L70.4758 6.0224H66.4182H66.4228Z" fill="#575756"/>
<path d="M120.476 7.74826H117.281L117.529 0.234375H113.035V14.3258H120.756L120.476 7.75286V7.74826ZM115.468 0.863208H116.813L116.565 8.3771H119.838L119.994 12.1317H115.472V0.863208H115.468ZM113.747 13.6969V0.863208H114.761V12.7606H120.017L120.058 13.7015H113.747V13.6969Z" fill="#575756"/>
<path d="M13.2074 0.234375H7.41016L7.6672 6.02241H8.91111V8.3725H7.6672L7.41016 14.3212H12.932L12.6749 8.3725H11.454V6.02241H12.6933L13.2074 0.234375Z" fill="#575756"/>
<path d="M14.8356 6.02241H16.9287L14.8356 8.3725L14.6016 14.3212H19.8663L19.6001 8.3725H17.7779L19.8663 6.02241L20.1004 0.234375H14.8356V6.02241Z" fill="#575756"/>
<path d="M21.772 6.02241H23.8604L21.772 8.3725L21.5195 14.3212H26.7981L26.541 8.3725H24.7142L26.8027 6.02241L27.3167 0.234375H21.772V6.02241Z" fill="#575756"/>
<path d="M0 0.23897V14.3304H2.9881L2.85958 10.539H4.78281V10.5298H5.03985C5.83393 9.22164 6.27457 7.43613 6.27457 5.84798C6.27457 4.09 5.83394 1.95105 4.28709 0.234375H0.00458051L0 0.23897ZM3.6399 8.06495H2.45566V6.03159H3.6399V8.06495Z" fill="#575756"/>
<path d="M35.7517 14.3258L34.6684 0.234375H29.2981L28.2148 14.3258H31.3911L31.2626 10.5344H32.7085L32.58 14.3258H35.7563H35.7517ZM31.9879 8.06495H31.4003V6.03159H32.5846V8.06495H31.9924H31.9879Z" fill="#575756"/>
<path d="M97.324 5.24219H96.6172V7.2756H97.324V5.24219Z" fill="#575756"/>
</svg>
