<svg width="112" height="21" viewBox="0 0 112 21" fill="none" xmlns="http://www.w3.org/2000/svg">
<path d="M1.40891 8.62794C1.11973 8.68302 0.825994 8.65092 0.541411 8.65551C0.39912 8.65551 0.256838 8.63712 0.0915967 8.62794C0.0640565 8.5086 0.0181405 8.40764 0.0181405 8.30666C0.0181405 6.62212 0.0181449 4.93298 0.022735 3.24843C0.022735 3.0327 0.0502673 2.81237 0.100758 2.60122C0.261409 1.92649 0.706661 1.54092 1.3814 1.44453C1.66598 1.40321 1.95975 1.38485 2.24892 1.38485C3.66265 1.38026 5.07638 1.38485 6.49011 1.38485C9.08348 1.38485 11.6768 1.38485 14.2656 1.38485C14.5364 1.38485 14.8118 1.39407 15.078 1.42161C16.1383 1.52718 16.5056 2.12847 16.5882 2.8491C16.6203 3.13828 16.6341 3.42745 16.6341 3.71663C16.6341 6.1264 16.6341 8.54076 16.6341 10.9505C16.6341 12.5662 16.6433 14.1773 16.6341 15.793C16.6341 16.1326 16.602 16.4815 16.5285 16.8166C16.4046 17.3765 16.0511 17.7576 15.4912 17.8907C15.179 17.9687 14.8486 18.0008 14.5227 18.0008C12.6912 18.01 10.8598 18.0054 9.02841 18.0054C6.74258 18.0054 4.4613 18.0054 2.17546 18.0054C1.88629 18.0054 1.59253 17.987 1.31253 17.9411C0.628619 17.8264 0.22469 17.4041 0.0732187 16.734C-0.0185821 16.3255 -0.0139764 15.9078 0.031924 15.4717C0.142085 15.4442 0.243062 15.4028 0.344043 15.3982C0.688296 15.3891 1.02797 15.3982 1.33551 15.3982C1.53747 15.5405 1.49157 15.715 1.50534 15.871C1.53747 16.33 1.68894 16.4861 2.13876 16.5045C2.31777 16.5136 2.50134 16.5045 2.68036 16.5045C6.46714 16.5045 10.2585 16.5045 14.0453 16.5045C14.2243 16.5045 14.4079 16.509 14.5869 16.4953C14.922 16.4677 15.1056 16.275 15.1331 15.9353C15.1423 15.8251 15.1331 15.7195 15.1331 15.6094C15.1331 11.7262 15.1331 7.84762 15.1331 3.96445C15.1331 3.78085 15.1377 3.60187 15.1285 3.41826C15.1102 3.11532 14.9266 2.91792 14.6236 2.87661C14.4997 2.85825 14.3712 2.86289 14.2427 2.86289C10.2723 2.86289 6.30189 2.87206 2.33151 2.8537C1.62464 2.8537 1.48237 3.15662 1.48696 3.68906C1.50073 5.13951 1.49155 6.58995 1.48696 8.04041C1.48696 8.21942 1.53288 8.40302 1.39059 8.61875L1.40891 8.62794Z" fill="#575756"/>
<path d="M80.8155 14.6474C80.6824 14.3858 80.7192 14.1839 80.7192 13.9865C80.7192 13.0639 80.7192 12.1367 80.7192 11.2141C80.7192 11.0672 80.7192 10.9249 80.7146 10.778C80.7054 10.622 80.6273 10.5439 80.4759 10.5394C80.2969 10.5302 80.1133 10.5394 79.9343 10.5394C78.975 10.5394 78.0156 10.5394 77.0517 10.5394C76.8727 10.5394 76.6937 10.5531 76.5606 10.5623C76.3862 10.7092 76.4229 10.8653 76.4229 11.003C76.4229 12.0357 76.4229 13.0685 76.4229 14.1012C76.4229 14.4654 76.2454 14.649 75.8904 14.652C75.5645 14.652 75.2386 14.652 74.9127 14.652C74.7888 14.652 74.6649 14.6291 74.5593 14.6153C74.4078 14.4363 74.4583 14.2481 74.4537 14.0737C74.4537 12.2239 74.4537 10.3741 74.4537 8.52892C74.4537 7.44108 74.4537 6.35325 74.4537 5.26541C74.4537 5.10476 74.4721 4.94869 74.4813 4.80181C74.8852 4.69165 75.8078 4.67784 76.3311 4.76505C76.4596 4.87521 76.4183 5.03128 76.4183 5.16898C76.4183 6.16502 76.4183 7.16106 76.4183 8.16169C76.4183 8.30398 76.4183 8.44627 76.4183 8.61151C76.5698 8.63905 76.6937 8.68037 76.813 8.68037C77.9743 8.68496 79.131 8.68496 80.2923 8.68037C80.4117 8.68037 80.5356 8.64824 80.6916 8.62529C80.7008 8.42333 80.7146 8.24893 80.7146 8.06991C80.7146 7.1106 80.7146 6.14667 80.7146 5.18736C80.7146 5.04966 80.7375 4.90736 80.7513 4.77884C81.169 4.68704 82.1329 4.67789 82.6148 4.75592C82.7525 4.92575 82.6975 5.1323 82.6975 5.32508C82.7021 6.43128 82.6975 7.53747 82.6975 8.64367C82.6975 10.42 82.6975 12.1964 82.6975 13.9727C82.6975 14.1701 82.725 14.3674 82.6424 14.5786C82.3486 14.7163 82.0365 14.6336 81.7381 14.6428C81.4352 14.6566 81.1277 14.6428 80.8155 14.6428V14.6474Z" fill="#575756"/>
<path d="M97.578 9.03983C98.0095 8.55328 98.441 8.07131 98.8724 7.58477C99.6298 6.73102 100.387 5.87728 101.135 5.01436C101.314 4.80781 101.503 4.70222 101.787 4.7114C102.457 4.72976 103.123 4.71599 103.775 4.71599C103.894 4.86287 103.788 4.93173 103.715 5.00517C102.604 6.22153 101.493 7.43793 100.383 8.65888C100.272 8.77822 100.176 8.90213 100.061 9.04442C100.135 9.16835 100.194 9.27851 100.263 9.37949C101.429 11.0181 102.595 12.6568 103.756 14.2954C103.816 14.378 103.853 14.4744 103.908 14.58C103.83 14.6167 103.784 14.658 103.738 14.658C103.141 14.658 102.54 14.6443 101.943 14.6626C101.654 14.6718 101.48 14.5662 101.319 14.3322C100.525 13.1846 99.7124 12.0509 98.9045 10.9125C98.8357 10.8116 98.7485 10.7244 98.6567 10.6096C98.2481 10.9814 97.9131 11.3853 97.5734 11.7847C97.5 11.8673 97.4862 12.0188 97.4816 12.1381C97.4679 12.5742 97.4954 13.0102 97.4679 13.4417C97.4449 13.8272 97.5918 14.2357 97.3623 14.603C96.9905 14.7085 96.6095 14.6397 96.2332 14.6534C96.0174 14.6626 95.8063 14.6442 95.6272 14.6397C95.4482 14.4469 95.4988 14.2587 95.4988 14.0843C95.4942 12.7807 95.4942 11.4725 95.4942 10.169C95.4942 8.48442 95.4942 6.79986 95.4942 5.11073C95.4942 5.00516 95.5125 4.8996 95.5217 4.78026C95.8292 4.64715 96.1413 4.72976 96.4397 4.71599C96.7472 4.70222 97.0502 4.71599 97.3118 4.71599C97.5092 4.87664 97.4679 5.0511 97.4679 5.20716C97.4679 6.3868 97.4679 7.56183 97.4679 8.74146C97.4679 8.82868 97.4679 8.91132 97.4679 8.99853C97.5 9.0123 97.5367 9.02606 97.5688 9.03983H97.578Z" fill="#575756"/>
<path d="M38.8278 14.6057C38.4193 14.6791 37.3866 14.6837 36.8495 14.6057C36.5099 13.9126 36.34 13.1231 35.9958 12.43C35.5689 12.3658 32.6404 12.352 32.0667 12.4117C31.9014 12.5218 31.8785 12.7146 31.8143 12.8798C31.6628 13.2884 31.5205 13.6969 31.3736 14.11C31.3323 14.2293 31.2864 14.3486 31.2359 14.4634C31.1808 14.5919 31.0707 14.6608 30.933 14.6608C30.373 14.6516 29.813 14.6379 29.253 14.6241C29.2392 14.6241 29.2209 14.6057 29.2071 14.5965C29.1337 14.445 29.2255 14.3165 29.276 14.1834C29.7533 12.9487 30.2307 11.714 30.7035 10.4793C31.3598 8.77178 32.007 7.05967 32.6634 5.35218C32.7414 5.15022 32.824 4.95287 32.9066 4.75091C33.0214 4.73714 33.1086 4.71875 33.2004 4.71875C33.8338 4.71875 34.4673 4.71875 35.1283 4.71875C35.1971 4.85645 35.2705 4.97584 35.321 5.10895C36.0233 6.93578 36.7256 8.76259 37.4233 10.5894C37.8685 11.7553 38.3092 12.9304 38.7452 14.1008C38.8049 14.2615 38.9288 14.4221 38.8278 14.6103V14.6057ZM32.7368 10.5252C33.1224 10.6215 34.706 10.6353 35.2797 10.5435C35.2705 10.4563 35.2797 10.3645 35.2476 10.2865C34.8712 9.24912 34.4948 8.21181 34.1138 7.17446C34.0909 7.11479 34.0542 7.03672 33.9578 7.07344C33.4437 8.32652 32.8011 10.1442 32.7368 10.5206V10.5252Z" fill="#575756"/>
<path d="M85.298 4.71875C85.8763 4.71875 86.4042 4.71875 86.9275 4.71875C86.9963 4.71875 87.0652 4.74173 87.1248 4.75091C87.2717 4.94369 87.2167 5.15021 87.2167 5.34299C87.2167 7.10097 87.2167 8.86355 87.2167 10.6215C87.2167 10.9291 87.2258 11.2412 87.2809 11.5395C87.3268 11.7828 87.4232 12.0307 87.5517 12.2418C87.7583 12.5723 88.075 12.7881 88.4605 12.889C88.8736 12.9992 89.2868 13.0038 89.6953 12.889C90.3058 12.7238 90.7051 12.3244 90.8565 11.714C90.9208 11.4523 90.9484 11.1769 90.9484 10.9061C90.9575 9.05633 90.953 7.20656 90.953 5.35677C90.953 5.17776 90.953 4.99876 90.953 4.85188C91.0126 4.79221 91.0402 4.75091 91.0677 4.74632C91.21 4.73255 91.3569 4.71875 91.4991 4.71875C91.9306 4.71875 92.3667 4.71875 92.8303 4.71875C92.8624 4.86563 92.9037 4.98042 92.9083 5.09976C92.9175 5.55417 92.9083 6.00857 92.9083 6.45839C92.9083 8.00064 92.9083 9.54288 92.9083 11.0851C92.9083 11.7461 92.789 12.3841 92.4906 12.9808C92.105 13.7428 91.5175 14.289 90.7235 14.5873C89.6861 14.9729 88.6304 15.005 87.5793 14.6424C86.4318 14.2431 85.6974 13.4444 85.3944 12.2694C85.3118 11.9389 85.2521 11.59 85.2521 11.2504C85.2383 9.18485 85.2429 7.11479 85.2429 5.04928C85.2429 4.96206 85.2659 4.87482 85.2888 4.72334L85.298 4.71875Z" fill="#575756"/>
<path d="M46.4654 6.808C46.346 6.77128 46.2313 6.74375 46.1211 6.69784C45.3775 6.38113 44.6018 6.20672 43.794 6.24344C43.5278 6.25721 43.257 6.31226 42.9953 6.39029C42.8255 6.44078 42.6648 6.5418 42.5271 6.65655C42.1232 6.99621 42.114 7.5424 42.5134 7.88665C42.6878 8.03812 42.8943 8.16667 43.1101 8.25847C43.5048 8.43748 43.9179 8.57973 44.3219 8.73579C44.914 8.9653 45.4831 9.23157 46.0156 9.58959C47.4568 10.5581 47.5761 12.7934 46.0523 13.9822C45.4969 14.4137 44.8726 14.6891 44.1658 14.7579C43.0687 14.8681 41.9947 14.758 40.9481 14.3953C40.7462 14.3265 40.5534 14.2209 40.3928 14.1475C40.2734 13.9088 40.3331 13.7068 40.3239 13.514C40.3147 13.2983 40.3147 13.078 40.3239 12.8622C40.3331 12.6695 40.2642 12.4675 40.3974 12.261C40.5075 12.3023 40.6085 12.3344 40.7003 12.3803C41.5954 12.821 42.5409 13.0275 43.5323 13.0596C43.8077 13.0688 44.0739 13.0321 44.331 12.9357C44.7946 12.7567 45.0884 12.4354 45.1526 11.9442C45.2123 11.4806 44.9828 11.1318 44.611 10.8886C44.3723 10.7325 44.1061 10.604 43.8399 10.4892C43.2569 10.2414 42.6648 10.0164 42.0773 9.77315C41.6872 9.6125 41.3429 9.38301 41.0308 9.10302C40.0485 8.23091 40.0255 6.62899 40.8839 5.66509C41.2924 5.20149 41.8111 4.91688 42.3848 4.71951C42.9953 4.50837 43.6287 4.48545 44.2667 4.52217C44.9369 4.56348 45.5978 4.66447 46.2267 4.93069C46.4332 5.0179 46.548 5.14182 46.5434 5.37591C46.5342 5.79361 46.5434 6.21129 46.5434 6.62898C46.5434 6.67947 46.5021 6.72538 46.4654 6.808Z" fill="#575756"/>
<path d="M25.6527 14.6427C24.9688 14.6702 24.3399 14.6702 23.7432 14.6427C23.5321 14.4591 23.5 14.2342 23.4265 14.0322C22.6967 12.0585 21.9761 10.0848 21.2462 8.11108C20.8928 7.16094 20.5348 6.21081 20.1813 5.25609C20.1262 5.1092 20.0896 4.95314 20.0391 4.79249C20.2732 4.66397 20.4934 4.72821 20.7 4.71903C20.9341 4.70985 21.1728 4.71903 21.4069 4.71903C21.6226 4.71903 21.8383 4.71903 22.0724 4.71903C22.1367 4.84296 22.2055 4.94853 22.2468 5.06328C22.9262 6.99569 23.6055 8.9281 24.2848 10.8605C24.4042 11.2002 24.5281 11.5398 24.6704 11.9392C24.7484 11.829 24.8081 11.7648 24.8356 11.6959C25.5012 9.79565 26.1576 7.89535 26.8186 5.99507C26.9608 5.58656 27.1215 5.18263 27.2684 4.7833C27.6631 4.70068 28.7647 4.69148 29.2512 4.76951C29.2467 4.85214 29.2604 4.94395 29.2329 5.01739C28.3975 7.28028 27.5621 9.54318 26.7221 11.8015C26.4467 12.5497 26.1668 13.2978 25.8868 14.046C25.8179 14.2296 25.7399 14.4132 25.6481 14.6427H25.6527Z" fill="#575756"/>
<path d="M72.1069 12.2925C72.1344 12.4348 72.1619 12.4991 72.1619 12.568C72.1619 12.9857 72.1528 13.4034 72.1619 13.8211C72.1665 14.0506 72.0747 14.1974 71.8774 14.2984C71.4367 14.5187 70.9915 14.7069 70.4957 14.7712C69.6282 14.8905 68.7653 14.918 67.8978 14.7712C65.3641 14.3351 63.3123 11.9942 63.73 8.94184C64.0376 6.67895 65.589 5.16423 67.5536 4.68687C68.9122 4.35639 70.2525 4.46195 71.5423 5.02193C71.6433 5.06324 71.7397 5.11835 71.8361 5.15966C72.0564 5.25605 72.1665 5.4121 72.1573 5.66914C72.1436 6.15569 72.1573 6.64684 72.1573 7.17928C72.038 7.14715 71.9508 7.14254 71.8819 7.10123C71.1751 6.67895 70.4177 6.38517 69.5961 6.28419C69.1233 6.22452 68.6552 6.22452 68.1916 6.34387C66.8467 6.6973 66.0618 7.58316 65.7359 8.90968C65.6119 9.40999 65.6212 9.90574 65.7222 10.4198C66.0297 11.9621 67.3149 13.0224 68.8663 13.105C69.8486 13.1601 70.7757 12.9352 71.6524 12.5037C71.781 12.4395 71.9095 12.3797 72.1023 12.2879L72.1069 12.2925Z" fill="#575756"/>
<path d="M50.7058 6.41572C50.0678 6.31015 49.4849 6.4157 48.9111 6.34226C48.7596 6.08063 48.8376 5.80523 48.8285 5.5436C48.8193 5.29574 48.8055 5.03867 48.8376 4.82294C48.8881 4.78163 48.9019 4.7679 48.9156 4.75872C48.9294 4.74954 48.9478 4.73575 48.9616 4.73575C50.7379 4.73116 52.5097 4.72656 54.286 4.72656C54.3365 4.72656 54.387 4.7495 54.4604 4.76786C54.4834 4.82753 54.5247 4.8964 54.5247 4.96066C54.5109 5.40589 54.5752 5.86029 54.4788 6.32389C53.8958 6.43864 53.3129 6.30556 52.7208 6.41113C52.6978 6.51211 52.6657 6.5993 52.6657 6.68192C52.6657 8.674 52.6657 10.6707 52.6657 12.6628C52.6657 12.75 52.6887 12.8372 52.7024 12.9335C53.0008 13.0345 53.29 12.9749 53.5745 12.9886C53.8591 13.0024 54.1529 12.9565 54.4467 13.0299C54.5889 13.287 54.5155 13.567 54.5201 13.8286C54.5247 14.0765 54.566 14.3335 54.4696 14.6043C54.3641 14.6227 54.2631 14.6594 54.1621 14.6594C52.5326 14.6594 50.8985 14.6594 49.2691 14.6594C49.1452 14.6594 49.0213 14.6319 48.9111 14.6181C48.7918 14.2234 48.7872 13.4706 48.9019 13.0391C49.1773 12.9473 49.4665 13.0024 49.7511 12.9932C50.0402 12.984 50.3294 12.9932 50.5727 12.9932C50.7609 12.8326 50.7196 12.6582 50.7196 12.5021C50.7196 11.5061 50.7196 10.51 50.7196 9.5094C50.7196 8.67401 50.7196 7.84318 50.7196 7.0078C50.7196 6.82879 50.7149 6.64981 50.7058 6.41572Z" fill="#575756"/>
<path d="M109.424 12.9823H111.15C111.352 13.2577 111.256 13.5377 111.27 13.7993C111.283 14.0518 111.265 14.3042 111.256 14.5659C111.141 14.6026 111.058 14.6531 110.976 14.6531C109.291 14.6531 107.602 14.6531 105.918 14.6531C105.83 14.6531 105.743 14.6255 105.647 14.6118C105.486 14.3547 105.569 14.0747 105.564 13.8131C105.559 13.5652 105.509 13.3082 105.61 13.042C106.179 12.918 106.762 13.0419 107.304 12.9685C107.474 12.8446 107.441 12.6931 107.441 12.5508C107.441 11.7338 107.441 10.9168 107.441 10.1043C107.441 9.08992 107.441 8.07099 107.441 7.05659C107.441 6.85922 107.432 6.6618 107.428 6.44148C107.304 6.41394 107.203 6.37267 107.102 6.36808C106.776 6.3589 106.45 6.36808 106.124 6.36808C105.963 6.36808 105.803 6.3497 105.656 6.34511C105.537 5.9825 105.518 5.56023 105.587 4.81665C105.752 4.66059 105.963 4.72481 106.152 4.72022C107.584 4.71563 109.016 4.72022 110.448 4.72022C110.682 4.72022 110.916 4.72022 111.127 4.72022C111.329 4.88087 111.251 5.07825 111.265 5.24808C111.279 5.4271 111.274 5.61072 111.27 5.78973C111.265 5.96874 111.306 6.1569 111.173 6.33133C110.618 6.42772 110.035 6.30839 109.456 6.40478C109.337 6.60215 109.378 6.80413 109.378 6.99691C109.378 8.8467 109.378 10.6965 109.378 12.5463C109.378 12.6702 109.397 12.7895 109.415 12.9869L109.424 12.9823Z" fill="#575756"/>
<path d="M6.49216 6.16971C5.88168 6.2661 5.28498 6.16054 4.71122 6.24316C4.55975 6.44512 4.61945 6.65165 4.61945 6.84443C4.61945 9.03847 4.61945 11.2371 4.61945 13.4311C4.61945 13.7019 4.61945 13.9773 4.61945 14.2482C4.61945 14.3537 4.60105 14.4593 4.58728 14.5924C4.47712 14.62 4.37617 14.6567 4.27519 14.6613C4.02274 14.6705 3.76568 14.6521 3.51323 14.6659C3.2057 14.6888 3.0083 14.5786 2.85683 14.3032C2.50799 13.6698 2.12701 13.0502 1.75981 12.4259C1.7139 12.3479 1.66804 12.2699 1.62673 12.201C1.47526 12.2148 1.48901 12.3066 1.48901 12.3984C1.48901 13.0134 1.49819 13.6331 1.4936 14.2482C1.4936 14.3721 1.46148 14.4915 1.44312 14.6246C1.02543 14.7026 0.626086 14.6613 0.231343 14.6521C0.112002 14.6521 0.0385561 14.5603 0.024786 14.4364C0.0156059 14.3446 0.020215 14.2574 0.015625 14.1656C0.015625 12.7886 0.015625 11.407 0.015625 10.0299C0.015625 9.90601 0.033984 9.78209 0.0431641 9.63521C0.153325 9.60767 0.254307 9.56175 0.359878 9.55716C0.66741 9.54798 0.974947 9.55715 1.28248 9.54797C1.48903 9.54338 1.62212 9.63061 1.72311 9.80504C2.10867 10.4614 2.49424 11.1177 2.8844 11.7741C2.9303 11.8476 2.98534 11.9164 3.07714 12.0404C3.11386 11.921 3.1506 11.866 3.1506 11.8063C3.1506 9.59389 3.1506 7.3815 3.1506 5.16451C3.1506 5.04517 3.16899 4.92123 3.17817 4.81107C3.58668 4.73763 5.35381 4.70091 6.24428 4.74681C6.33149 4.74681 6.4141 4.77893 6.51967 4.80188C6.56098 5.26548 6.58397 5.71071 6.50135 6.1743L6.49216 6.16971Z" fill="#575756"/>
<path d="M57.0039 4.76213C57.6236 4.69328 58.4636 4.70703 58.8262 4.79883C58.9089 5.30832 58.8538 5.83159 58.8675 6.35026C58.8813 6.87353 58.8675 7.40135 58.8675 7.92921C58.8675 8.47083 58.8675 9.01707 58.8675 9.55869C58.8675 10.0865 58.8629 10.6098 58.8721 11.1376C58.8813 11.6609 58.8262 12.1842 58.8996 12.7396C59.0511 12.7534 59.1888 12.7809 59.3265 12.7809C60.2675 12.7809 61.213 12.7809 62.154 12.7809C62.333 12.7809 62.5166 12.7442 62.6819 12.8406C62.8104 13.2491 62.8104 14.1855 62.6819 14.6077C62.6222 14.6215 62.5533 14.6582 62.4845 14.6582C60.7081 14.6582 58.9318 14.6582 57.1555 14.6582C57.105 14.6582 57.0545 14.6261 56.9764 14.5985C56.9581 14.4884 56.9259 14.369 56.9259 14.2451C56.9214 13.575 56.9259 12.9048 56.9259 12.2347C56.9259 9.93047 56.9259 7.63089 56.9259 5.32669C56.9259 5.15227 56.88 4.96409 57.0085 4.76672L57.0039 4.76213Z" fill="#575756"/>
<path d="M11.8872 14.6097C11.7495 14.4078 11.8046 14.2012 11.8046 14.0038C11.8046 11.6308 11.8046 9.25777 11.8046 6.88472C11.8046 6.68735 11.7954 6.49453 11.7862 6.27421C11.6531 6.24667 11.5521 6.21453 11.4511 6.20994C11.1436 6.20076 10.8361 6.20994 10.5285 6.20994C10.4 6.20994 10.2761 6.21453 10.1476 6.20994C9.92266 6.19617 9.84461 6.12732 9.84002 5.91617C9.83084 5.55815 9.84002 5.19554 9.84002 4.82374C9.95477 4.79161 10.0374 4.75033 10.1201 4.74115C10.7214 4.69066 12.8741 4.73198 13.2183 4.80083C13.3331 4.9523 13.2825 5.14049 13.2825 5.31491C13.2825 6.78372 13.2825 8.24793 13.2825 9.71674C13.2825 11.1488 13.2825 12.5809 13.2825 14.0084C13.2825 14.1874 13.2734 14.3665 13.2642 14.5547C13.177 14.5914 13.1127 14.6418 13.053 14.6418C12.6583 14.6464 12.2636 14.7061 11.8872 14.6097Z" fill="#575756"/>
<path d="M9.90706 7.13763C9.97591 7.70221 9.97132 10.1258 9.90706 10.5939C9.53527 10.7271 9.14971 10.6903 8.75955 10.6306C8.58513 10.3139 8.75957 9.96513 8.6081 9.63924C8.51171 9.62547 8.41072 9.61166 8.30515 9.59789C8.05269 9.56575 7.80023 9.552 7.55237 9.49692C7.02452 9.37758 6.68949 9.03791 6.56556 8.51924C6.45999 8.07859 6.46453 7.62879 6.51502 7.1652C6.72157 7.06422 6.92356 7.10552 7.11634 7.10093C7.31371 7.09634 7.51107 7.11013 7.67631 7.11472C7.84614 7.30291 7.79107 7.49108 7.79566 7.6655C7.80943 8.23007 7.90582 8.31726 8.48416 8.27595C8.51629 8.27595 8.55301 8.24842 8.59891 8.23006C8.77793 7.90417 8.58974 7.5232 8.72285 7.14682C9.09924 7.05502 9.48478 7.08254 9.90247 7.12844L9.90706 7.13763Z" fill="#575756"/>
<path d="M91.1055 18.4596C91.1055 17.3763 91.9868 16.4904 93.0746 16.4766C94.2084 16.4675 95.0621 17.3167 95.0621 18.4779C95.0621 19.4556 94.3322 20.4654 93.0379 20.4562C91.7205 20.447 91.1146 19.3959 91.1055 18.4596ZM91.9271 18.455C91.9317 18.712 91.9821 18.9553 92.1198 19.1756C92.4779 19.7539 93.2353 19.9146 93.7631 19.4877C94.4608 18.9186 94.3506 17.8858 93.7814 17.4497C93.5473 17.2707 93.2812 17.179 92.9736 17.2157C92.354 17.2937 91.9317 17.7848 91.9271 18.455Z" fill="#575756"/>
<path d="M107.133 20.2732C106.964 20.3008 106.863 20.3237 106.757 20.3329C106.56 20.3513 106.413 20.2732 106.303 20.0988C105.908 19.47 105.504 18.8503 105.1 18.2261C105.045 18.1389 104.981 18.0562 104.88 17.9185C104.792 18.1756 104.884 18.3638 104.87 18.5474C104.857 18.7264 104.87 18.91 104.87 19.089C104.87 19.2864 104.87 19.4883 104.87 19.6857C104.87 19.8647 104.87 20.0437 104.87 20.2182C104.627 20.3926 104.416 20.3742 104.168 20.2228C104.159 19.0385 104.168 17.8497 104.168 16.6425C104.347 16.6196 104.467 16.6012 104.586 16.5874C104.765 16.5737 104.898 16.6563 104.99 16.8078C105.155 17.0694 105.325 17.3218 105.49 17.5835C105.775 18.0241 106.055 18.4648 106.335 18.9054C106.436 18.8916 106.449 18.8274 106.449 18.7494C106.449 18.1894 106.44 17.6248 106.445 17.0648C106.445 16.9271 106.468 16.7848 106.482 16.6471C106.706 16.5737 106.895 16.5645 107.101 16.6563C107.115 16.7619 107.147 16.8675 107.147 16.9684C107.147 18.0517 107.165 19.1349 107.133 20.2732Z" fill="#575756"/>
<path d="M98.4969 20.2674C98.4005 20.2858 98.2995 20.3133 98.194 20.3225C97.9736 20.3454 97.8221 20.2583 97.7028 20.0655C97.2897 19.4045 96.8674 18.7527 96.4451 18.1009C96.4084 18.0458 96.3579 17.9999 96.2753 17.9081C96.1973 18.156 96.2937 18.3442 96.2799 18.5278C96.2661 18.7252 96.2799 18.9271 96.2799 19.1245C96.2799 19.3035 96.2799 19.4871 96.2799 19.6661C96.2799 19.8635 96.3212 20.0655 96.211 20.2537C96.0228 20.3501 95.8346 20.3409 95.6281 20.2445C95.5363 19.8589 95.6006 19.4642 95.5868 19.0694C95.573 18.6517 95.573 18.2386 95.5868 17.8209C95.596 17.4262 95.5317 17.0314 95.6281 16.6413C95.8392 16.5495 96.032 16.5816 96.2569 16.6046C96.7894 17.3436 97.2805 18.1193 97.7671 18.9042C97.9093 18.895 97.868 18.7848 97.868 18.7068C97.868 18.1468 97.868 17.5868 97.868 17.0223C97.868 16.8983 97.8818 16.7744 97.891 16.6459C98.1021 16.5541 98.2903 16.5633 98.506 16.6275C98.5244 16.7285 98.5565 16.8341 98.5611 16.935C98.6162 18.1835 98.5841 19.8222 98.4969 20.2582V20.2674Z" fill="#575756"/>
<path d="M80.9471 18.7736C80.4743 18.7415 80.0475 18.7186 79.593 18.7874C79.4967 19.2786 79.6068 19.7697 79.5196 20.2517C79.2855 20.3894 79.056 20.3389 78.8036 20.3022C78.6888 19.9028 78.7622 19.5081 78.753 19.1179C78.7438 18.7002 78.7439 18.2871 78.7439 17.8694C78.7439 17.4747 78.7484 17.0799 78.753 16.676C79.0009 16.5429 79.2258 16.5842 79.4691 16.6301C79.6389 17.0662 79.4691 17.5298 79.5793 17.9934C80.0153 18.1219 80.4606 18.0484 80.9242 18.0392C81.0802 17.5802 80.9241 17.1213 81.0251 16.6714C81.25 16.5475 81.4796 16.5934 81.732 16.6163C81.7596 16.7036 81.81 16.7862 81.81 16.8642C81.8146 17.9337 81.8192 18.9986 81.8146 20.0681C81.8146 20.1369 81.7779 20.2011 81.7595 20.2654C81.5163 20.371 81.2913 20.3526 81.048 20.27C80.9195 19.7972 81.0664 19.3015 80.9425 18.7736H80.9471Z" fill="#575756"/>
<path d="M90.5354 20.2826C90.4115 20.301 90.3242 20.3285 90.237 20.3285C90.1131 20.3285 89.9892 20.3102 89.8423 20.2964C89.6954 19.8145 89.8423 19.3187 89.7367 18.8184C89.2915 18.6945 88.8509 18.7725 88.3827 18.7679C88.2588 19.2728 88.4056 19.7685 88.2954 20.2321C87.9879 20.3607 87.9879 20.3607 87.5748 20.2872C87.5565 20.2184 87.5152 20.1357 87.5152 20.0531C87.5106 19.002 87.5106 17.9509 87.5152 16.8998C87.5152 16.8126 87.5473 16.7299 87.5611 16.6473C87.7951 16.5555 88.0109 16.6106 88.2358 16.606C88.4469 17.0696 88.2404 17.5562 88.3689 17.9968C88.8187 18.0932 89.319 18.0886 89.7367 17.9876C89.8239 17.7719 89.7643 17.5332 89.7826 17.3037C89.7964 17.0926 89.7505 16.8722 89.8331 16.6473C90.0488 16.5601 90.2646 16.6152 90.4895 16.5968C90.5216 16.7024 90.5721 16.785 90.5721 16.8677C90.5767 17.9188 90.5721 18.9699 90.5721 20.021C90.5721 20.0899 90.5538 20.1633 90.54 20.2872L90.5354 20.2826Z" fill="#575756"/>
<path d="M78.0571 17.7286C77.7909 17.8434 77.5568 17.7791 77.3135 17.7791C77.2447 17.6965 77.1712 17.6184 77.107 17.5358C76.5791 16.884 75.6244 17.1365 75.3352 17.8388C75.1608 18.261 75.17 18.6925 75.3673 19.101C75.5647 19.5049 75.8906 19.7436 76.3542 19.7436C76.6571 19.7436 76.9188 19.6335 77.107 19.381C77.1712 19.2938 77.2309 19.202 77.2998 19.1056C77.5614 19.0138 77.823 19.023 78.1076 19.0964C78.0939 19.1836 78.0984 19.2571 78.0709 19.3167C77.7404 20.0328 77.084 20.5101 76.1431 20.4367C75.3215 20.3678 74.688 19.8308 74.4677 19.0322C74.2382 18.1922 74.5044 17.3384 75.1654 16.8427C75.9778 16.2322 77.3456 16.3149 77.9515 17.3752C78.0112 17.4761 78.0204 17.6001 78.0571 17.724V17.7286Z" fill="#575756"/>
<path d="M84.554 19.506C84.0904 19.4693 83.6635 19.4418 83.2137 19.529C83.1448 19.7217 83.076 19.9053 83.0117 20.0935C82.9566 20.245 82.8511 20.3368 82.6904 20.3368C82.5298 20.3368 82.3737 20.3139 82.2406 20.3047C82.2085 20.2542 82.1947 20.245 82.1901 20.2267C82.1855 20.2083 82.1763 20.1899 82.1809 20.1716C82.6354 18.9919 83.0898 17.8123 83.5442 16.6418C83.8012 16.55 84.0307 16.573 84.3015 16.6143C84.7973 17.7848 85.2058 18.9965 85.6602 20.2175C85.4031 20.3827 85.1599 20.3552 84.9258 20.2588C84.8569 20.2312 84.811 20.1257 84.7743 20.0476C84.6916 19.8686 84.6274 19.6851 84.554 19.5015V19.506ZM84.3428 18.8313C84.1914 18.4182 84.1088 18.0051 83.8471 17.5598C83.7461 18.0418 83.5442 18.4044 83.4753 18.8267C83.7691 18.9185 84.0399 18.9093 84.3474 18.8267L84.3428 18.8313Z" fill="#575756"/>
<path d="M102.396 20.2308C102.171 20.3822 101.951 20.3501 101.745 20.318C101.676 20.3088 101.598 20.217 101.561 20.1436C101.497 20.0151 101.46 19.8728 101.414 19.7351C101.364 19.5836 101.263 19.4872 101.097 19.4872C100.739 19.4872 100.377 19.4964 99.9866 19.501C99.904 19.7121 99.8214 19.9095 99.7433 20.1068C99.6837 20.2583 99.5827 20.3501 99.4174 20.3409C99.2568 20.3318 99.0915 20.3822 98.9492 20.2721C99.0089 19.9003 100.097 17.0866 100.358 16.6322C100.574 16.5817 100.799 16.5771 101.061 16.6414C101.547 17.821 101.942 19.0374 102.396 20.24V20.2308ZM100.703 17.6558C100.648 17.6879 100.583 17.7017 100.574 17.7338C100.464 18.023 100.358 18.3121 100.262 18.6013C100.234 18.6793 100.244 18.762 100.234 18.8721C100.533 18.8813 100.799 18.941 101.088 18.8171C100.96 18.4269 100.836 18.0505 100.707 17.6512L100.703 17.6558Z" fill="#575756"/>
<path d="M109.498 0C109.828 0.275402 110.209 0.816997 110.489 1.40452C110.434 1.45501 110.379 1.52845 110.31 1.57435C109.296 2.16647 108.277 2.75398 107.258 3.3415C107.23 3.35986 107.189 3.3599 107.134 3.37367C106.858 3.12121 106.684 2.78614 106.473 2.45106C106.753 2.09304 107.143 1.88645 107.469 1.61105C107.799 1.33106 108.148 1.06947 108.488 0.798662C108.827 0.53244 109.167 0.266171 109.498 0.00453849V0Z" fill="#575756"/>
<path d="M6.55086 12.777C6.49578 12.3685 6.50952 12.0013 6.52788 11.6203C6.62427 11.5882 6.69312 11.5469 6.75739 11.5469C7.73047 11.5469 8.70356 11.5469 9.68124 11.5469C9.75009 11.5469 9.81893 11.5744 9.90614 11.5974C10.0071 11.9737 9.93831 12.3502 9.94749 12.7357C9.8511 12.7679 9.77305 12.8229 9.69043 12.8229C8.7357 12.8229 7.77638 12.8229 6.82165 12.8183C6.7528 12.8183 6.67937 12.7954 6.54626 12.777H6.55086Z" fill="#575756"/>
<path d="M111.204 20.2517C110.962 20.3221 110.722 20.3159 110.484 20.2333C110.484 19.7605 110.474 19.274 110.474 18.7874C110.474 18.3193 110.474 17.8465 110.474 17.3691C110.291 17.314 110.139 17.2681 109.979 17.2176C109.905 17.0294 109.91 16.8413 109.983 16.621C110.383 16.5751 110.773 16.5705 111.195 16.6301C111.296 17.0387 111.232 17.4334 111.241 17.8235C111.25 18.2412 111.25 18.6589 111.241 19.0766C111.232 19.4714 111.287 19.8707 111.209 20.2563L111.204 20.2517Z" fill="#575756"/>
<path d="M86.0213 16.6615C86.2646 16.5605 86.4757 16.5973 86.719 16.6156C86.7465 16.7028 86.7924 16.7855 86.7924 16.8681C86.7924 17.9376 86.7924 19.0071 86.7924 20.0765C86.7924 20.1454 86.7603 20.2142 86.7465 20.2877C86.5078 20.384 86.2829 20.3382 86.0259 20.3152C85.9708 19.8838 86.0121 19.489 85.9983 19.0943C85.9845 18.6766 85.9983 18.2589 85.9983 17.8458C85.9983 17.451 85.9754 17.0563 86.0259 16.6661L86.0213 16.6615Z" fill="#575756"/>
<path d="M109.605 18.4693C109.609 19.0705 109.146 19.5341 108.54 19.5295C107.92 19.5295 107.447 19.0797 107.461 18.4784C107.475 17.9046 107.888 17.4594 108.503 17.4456C109.127 17.4319 109.596 17.8725 109.605 18.4693ZM108.54 18.9879C108.779 19.0017 109.017 18.763 109.031 18.506C109.045 18.2535 108.829 18.0056 108.577 17.9873C108.315 17.9689 108.086 18.1709 108.063 18.4371C108.04 18.7217 108.255 18.9742 108.54 18.9879Z" fill="#575756"/>
<path d="M109.466 19.8439C109.475 20.0045 109.48 20.1101 109.485 20.234C109.397 20.2661 109.319 20.3166 109.237 20.3166C108.768 20.3258 108.3 20.3258 107.832 20.3166C107.621 20.3166 107.548 20.2431 107.543 20.0825C107.543 19.9081 107.621 19.8071 107.805 19.8117C108.342 19.8163 108.879 19.7796 109.466 19.8393V19.8439Z" fill="#575756"/>
</svg>
