<svg width="87" height="32" viewBox="0 0 87 32" fill="none" xmlns="http://www.w3.org/2000/svg">
<path d="M48.3996 31.4199C45.462 31.4199 42.6667 30.993 40.0687 30.1576C39.0957 29.8409 37.8104 29.5655 36.4518 29.2763C34.3909 28.8357 32.2611 28.3812 30.8336 27.7065C28.8185 26.7564 26.6291 25.6869 24.1367 24.4476L24.3433 24.0299C26.8357 25.2692 29.0205 26.3341 31.031 27.2842C32.408 27.936 34.5102 28.3813 36.5436 28.8173C37.916 29.1111 39.2058 29.3865 40.2064 29.7078C42.7539 30.5294 45.5033 30.9471 48.3905 30.9471H48.4639C51.2638 30.9379 54.2565 30.5386 57.3686 29.7491C58.6446 29.4278 60.0951 29.0606 61.3986 28.4868C62.1698 28.1472 62.9042 27.7157 63.6156 27.3026C64.1297 26.9996 64.6575 26.6921 65.2038 26.4167C65.47 26.2331 69.9912 23.0568 71.0515 20.4267L71.0698 20.39C71.1157 20.3074 72.2541 18.3245 70.1105 16.8189C70.083 16.796 68.6463 15.6347 65.5939 14.2347L65.7867 13.8125C68.8987 15.24 70.3309 16.4013 70.3905 16.4472C72.7636 18.1134 71.6023 20.3808 71.4784 20.6057C70.3263 23.4332 65.6582 26.6646 65.4608 26.8023L65.4333 26.8207C64.9008 27.0915 64.3684 27.4036 63.8543 27.7065C63.1291 28.1288 62.3855 28.5694 61.5914 28.9183C60.2511 29.5104 58.7869 29.8776 57.4879 30.2081C54.3346 31.0068 51.3006 31.4107 48.4685 31.4199H48.3951H48.3996Z" fill="#575756"/>
<path d="M50.7341 30.5969C38.9606 30.5969 25.2548 24.3683 23.3086 23.4549L23.4096 23.2437C25.957 24.4371 48.6502 34.7463 60.6715 28.2238C60.7449 28.1871 67.6116 24.8639 68.2129 20.8293C68.4241 19.4064 67.8274 18.0478 66.4457 16.7855C66.4274 16.7672 65.0917 15.4223 62.3377 14.0269L62.4432 13.8203C65.234 15.234 66.5926 16.6065 66.6064 16.6203C68.0477 17.933 68.6628 19.3651 68.4424 20.8661C67.8274 25.0246 61.0662 28.2973 60.7771 28.4304C57.8945 29.9956 54.4107 30.5969 50.7387 30.5969H50.7341Z" fill="#575756"/>
<path d="M48.5923 29.694C37.5395 29.694 24.7057 23.8646 22.8789 23.0062L22.9799 22.7951C23.6454 23.1072 29.6722 25.8888 36.8418 27.7386C46.0861 30.1208 53.1869 30.0198 57.956 27.4356C58.0248 27.3989 64.304 24.3511 64.8594 20.6195C65.0567 19.2929 64.4968 18.0169 63.1978 16.8281C63.1702 16.8051 60.9992 14.7442 57.194 13.2157L57.2812 13C61.1369 14.5468 63.3401 16.6399 63.3584 16.6582C64.7171 17.8976 65.3 19.2424 65.0935 20.6562C64.5243 24.5118 58.3277 27.5182 58.0661 27.6422C55.3442 29.1156 52.0578 29.6894 48.5969 29.6894L48.5923 29.694Z" fill="#575756"/>
<path d="M44.394 27.8867C34.3831 27.8867 22.2654 22.2548 22.1094 22.1813L22.2103 21.9702C22.4077 22.0666 42.3101 31.3063 52.0456 26.0278C52.1007 26.0003 57.0166 23.5859 57.4572 20.5702C57.6225 19.4549 57.1405 18.3807 56.0435 17.3755C56.0114 17.3434 53.34 14.7317 48.0614 13.5108L48.1119 13.2812C53.4639 14.5206 56.1766 17.1736 56.2042 17.2011C57.3608 18.2568 57.8611 19.3997 57.6867 20.5977C57.2277 23.7373 52.3577 26.1287 52.1511 26.2297C49.9617 27.4185 47.2628 27.8821 44.3894 27.8821L44.394 27.8867Z" fill="#575756"/>
<path d="M40.5412 26.5612C32.628 26.5612 23.324 22.6414 21.9883 22.0584L22.0847 21.8427C23.838 22.6047 39.4396 29.1776 47.3482 24.8859C47.3895 24.863 51.3416 22.8984 51.6996 20.3968C51.8373 19.4329 51.4196 18.5011 50.4603 17.6199C50.4327 17.5923 48.2203 15.4258 43.8368 14.3701L43.8919 14.1406C48.3397 15.2147 50.598 17.4317 50.6209 17.45C51.6399 18.3772 52.0806 19.3824 51.9337 20.4244C51.5573 23.0499 47.6282 25.0006 47.4584 25.0833C45.5076 26.139 43.0979 26.5475 40.5458 26.5475L40.5412 26.5612Z" fill="#575756"/>
<path d="M36.2208 25.1189C30.0334 25.1189 22.8179 22.2777 21.7713 21.8508L21.8585 21.6351C23.2447 22.1997 35.6149 27.0606 41.7655 23.7282C41.7977 23.7098 44.5058 22.3282 44.7628 20.4922C44.8684 19.7211 44.5242 18.9683 43.7393 18.2523C43.7025 18.2155 40.2462 14.8648 33.3887 15.31C33.2969 15.3238 23.3411 16.9166 19.5956 18.5965L19.5681 18.6057L18.5537 18.8122L18.5078 18.5827L19.5084 18.3808C23.2952 16.6917 33.2602 15.0943 33.3658 15.0805C40.3472 14.6261 43.8678 18.0549 43.8999 18.0916C44.7399 18.8582 45.1117 19.6843 44.9923 20.5335C44.7215 22.4889 41.9905 23.8888 41.8757 23.9485C40.2967 24.8069 38.3184 25.1327 36.2208 25.1327V25.1189Z" fill="#575756"/>
<path d="M72.0499 21.1129C71.5358 21.1129 71.0676 21.0211 70.6453 20.8467C70.223 20.6677 69.8604 20.4152 69.5621 20.0939C69.2637 19.7726 69.0296 19.3825 68.869 18.928C68.7037 18.4782 68.6211 17.9779 68.6211 17.4455C68.6211 16.913 68.7083 16.4127 68.8736 15.9629C69.0434 15.5131 69.2866 15.1229 69.5942 14.797C69.9063 14.4757 70.2781 14.2187 70.7096 14.0397C71.141 13.8607 71.6184 13.7734 72.1371 13.7734C72.6558 13.7734 73.101 13.8561 73.4911 14.0213C73.8813 14.1866 74.2301 14.4115 74.5239 14.6914L74.5973 14.7603L74.2255 15.2744C74.2026 15.3111 74.1659 15.3524 74.12 15.38C74.0695 15.4167 74.0052 15.4304 73.9318 15.4304C73.8446 15.4304 73.7528 15.3937 73.6472 15.3157C73.5646 15.256 73.459 15.1872 73.3259 15.1137C73.202 15.0403 73.0367 14.976 72.8393 14.9118C72.6466 14.8521 72.4033 14.82 72.1233 14.82C71.7836 14.82 71.4623 14.8797 71.1823 14.999C70.9023 15.1137 70.6545 15.2882 70.4525 15.5131C70.2506 15.738 70.0853 16.0134 69.9752 16.3347C69.8604 16.656 69.8007 17.0324 69.8007 17.4455C69.8007 17.8586 69.8604 18.2442 69.9798 18.5655C70.0945 18.8868 70.2597 19.1667 70.4663 19.387C70.6683 19.6074 70.9115 19.7772 71.1869 19.8966C71.4623 20.0159 71.7699 20.0755 72.0912 20.0755C72.2931 20.0755 72.4767 20.0618 72.6328 20.0388C72.7934 20.0159 72.9403 19.9792 73.0734 19.9333C73.2065 19.8874 73.3305 19.8231 73.4452 19.7497C73.56 19.6762 73.6793 19.5799 73.7895 19.4789C73.8675 19.41 73.9501 19.3733 74.0374 19.3733C74.1246 19.3733 74.198 19.41 74.2577 19.4743L74.7029 19.9517L74.6341 20.0297C74.3403 20.3693 73.9777 20.6401 73.5554 20.8329C73.1377 21.0211 72.6236 21.1221 72.0315 21.1221" fill="#575756"/>
<path d="M24.5247 24.5666C24.3228 24.5666 23.7811 24.305 21.7799 23.3319C20.0907 22.5149 18.4567 21.6978 17.4193 21.1562L17.3918 21.1378C16.5656 20.5457 15.5696 19.669 15.5512 18.8566C15.542 18.5353 15.6843 18.2553 15.9643 18.035C16.3774 17.7091 16.9144 17.6081 17.4698 17.7504C18.8285 18.0946 19.9118 19.2743 20.8206 20.3484C21.4586 21.1011 22.3307 21.9319 23.1752 22.7306C23.7077 23.2401 24.2126 23.7174 24.6487 24.1718L24.7864 24.3141L24.6716 24.4748C24.6349 24.5253 24.6073 24.562 24.5293 24.562L24.5247 24.5666ZM17.6488 20.7523C19.2829 21.606 21.8854 22.8774 23.3818 23.5889C23.2074 23.4191 23.0284 23.2538 22.8494 23.0794C21.9956 22.267 21.1143 21.427 20.4625 20.6559C19.5996 19.6323 18.5806 18.5215 17.3551 18.2094C17.0613 18.136 16.6299 18.1084 16.2581 18.4067C16.0928 18.5353 16.0148 18.6776 16.0194 18.852C16.0332 19.3156 16.639 20.0271 17.6534 20.7523H17.6488Z" fill="#575756"/>
<path d="M6.52167 20.7942V15.6074L4.37813 19.5135C4.28174 19.6925 4.13026 19.7935 3.93288 19.7935H3.79519C3.60241 19.7935 3.44636 19.6925 3.34997 19.5135L1.16511 15.5937V20.7988H0.109375V13.6016H0.921821C1.0228 13.6016 1.09625 13.6108 1.15592 13.6337C1.22936 13.6613 1.29361 13.7209 1.34869 13.8219L3.7493 18.1044C3.78602 18.187 3.82733 18.2651 3.86405 18.3477C3.90077 18.2605 3.93749 18.1779 3.9788 18.0998L6.33806 13.8219C6.38855 13.7209 6.45283 13.6567 6.53086 13.6337C6.59053 13.6108 6.66854 13.6016 6.76952 13.6016H7.58197V20.7896H6.52167V20.7942Z" fill="#575756"/>
<path d="M7.468 13.7139V20.6678H6.64639V15.5545C6.64639 15.4856 6.64637 15.4122 6.65555 15.3342C6.65555 15.2561 6.66475 15.1781 6.67393 15.0955L4.28711 19.4468C4.21367 19.5937 4.09892 19.6672 3.94745 19.6672H3.80975C3.65828 19.6672 3.54351 19.5937 3.47007 19.4468L1.03276 15.0817C1.05112 15.2561 1.06489 15.4122 1.06489 15.5545V20.6678H0.238691V13.7139H0.931791C1.01441 13.7139 1.07866 13.7231 1.12456 13.7414C1.16587 13.7598 1.21638 13.8011 1.2531 13.8791L3.65368 18.1617C3.6904 18.2397 3.73171 18.3223 3.76384 18.4049C3.80056 18.4921 3.83727 18.5793 3.8694 18.662C3.90612 18.5747 3.93368 18.4876 3.97499 18.4049C4.01171 18.3177 4.04843 18.2351 4.08974 18.1571L6.44902 13.8791C6.48574 13.8057 6.53163 13.7598 6.57753 13.7414C6.62343 13.7231 6.68769 13.7139 6.7749 13.7139H7.468ZM7.6975 13.4844H6.7703C6.66014 13.4844 6.57295 13.4982 6.49951 13.5211C6.39394 13.5579 6.30673 13.6404 6.24247 13.769L3.88318 18.0423L3.86483 18.0744L3.85564 18.0561L1.45506 13.7644C1.38162 13.6404 1.29898 13.5579 1.20259 13.5211C1.12915 13.4936 1.03736 13.4844 0.927196 13.4844H0V20.9065H1.29439V16.0365L3.26354 19.5662C3.36911 19.7819 3.56648 19.9058 3.80516 19.9058H3.94285C4.18154 19.9058 4.37432 19.7865 4.48907 19.5616L6.4123 16.0594V20.9065H7.70669V13.4844H7.6975Z" fill="#575756"/>
<path d="M26.8359 20.7931V15.3677L28.0064 15.0234V19.765H31.0129V20.7931H26.8359Z" fill="#575756"/>
<path d="M30.8996 19.6501H28.1226V14.9453C28.0721 15.0417 27.9849 15.1243 27.8885 15.1702V19.8842H30.8996V20.6783H26.9568V15.4502H26.7227V20.9124H31.1383V19.6547H30.8996V19.6501Z" fill="#575756"/>
<path d="M36.793 20.7962V14.9531H37.9588V19.7681H40.9699V20.7962H36.793Z" fill="#575756"/>
<path d="M40.8527 19.6552H38.0757V14.955C37.9289 14.9688 37.7728 14.8035 37.7361 14.955L37.8416 15.0651V19.8801H40.8527V20.6742H36.9099V15.0651H37.0384C36.9971 14.8907 36.8456 15.0927 36.6758 15.033V20.9037H41.0914V19.646H40.8527V19.6552Z" fill="#575756"/>
<path d="M49.5473 20.8744C49.1066 20.8744 48.7027 20.801 48.3493 20.6495C47.9913 20.5026 47.6837 20.2961 47.4359 20.0344C47.188 19.7774 46.9906 19.4607 46.8575 19.1026C46.7244 18.7492 46.6602 18.3591 46.6602 17.946V13.8701L47.8352 13.5625L47.826 17.9368C47.826 18.2122 47.8627 18.4692 47.9408 18.6987C48.0188 18.9282 48.129 19.121 48.2759 19.2863C48.4227 19.4469 48.6017 19.5755 48.8129 19.6673C49.024 19.7591 49.2719 19.8049 49.5427 19.8049C49.8135 19.8049 50.0568 19.7591 50.2679 19.6673C50.4791 19.5755 50.6581 19.4515 50.8004 19.2863C50.9427 19.121 51.0574 18.9282 51.1354 18.6987C51.2135 18.4692 51.2502 18.2122 51.2502 17.9368V13.59H52.4206V17.9368C52.4206 18.3499 52.3518 18.7401 52.2233 19.0935C52.0902 19.4515 51.8974 19.7636 51.6495 20.0253C51.4017 20.2869 51.0941 20.4935 50.7407 20.6404C50.3873 20.7872 49.9833 20.8653 49.5427 20.8653" fill="#575756"/>
<path d="M47.707 13.566V17.9404C47.707 18.2341 47.7483 18.5003 47.8309 18.7436C47.9135 18.9869 48.0329 19.198 48.1889 19.3678C48.345 19.5377 48.5378 19.68 48.7673 19.7764C48.9968 19.8728 49.2538 19.9232 49.543 19.9232C49.8322 19.9232 50.0846 19.8773 50.3141 19.7764C50.5436 19.6754 50.7318 19.5423 50.8879 19.3678C51.0439 19.1934 51.1633 18.9823 51.2459 18.7436C51.3285 18.5049 51.3699 18.2341 51.3699 17.9404V13.7129H52.3062V17.9404C52.3062 18.3397 52.242 18.7114 52.1134 19.0557C51.9849 19.4 51.8013 19.6937 51.5672 19.9462C51.3285 20.1941 51.0348 20.396 50.6951 20.5383C50.3509 20.6806 49.9653 20.754 49.5384 20.754C49.1115 20.754 48.726 20.6852 48.3817 20.5383C48.0375 20.396 47.7483 20.1986 47.505 19.9462C47.2618 19.6983 47.0828 19.4 46.9542 19.0557C46.8257 18.7114 46.7614 18.3397 46.7614 17.9404V13.947L47.6978 13.5614M47.9319 13.4467L47.6106 13.5798L46.6742 13.7313L46.5273 13.7909V17.9404C46.5273 18.3672 46.5962 18.7711 46.7339 19.1383C46.8716 19.5101 47.0736 19.836 47.3352 20.1068C47.5922 20.3776 47.9181 20.598 48.2899 20.7495C48.6617 20.9055 49.0794 20.9836 49.5338 20.9836C49.9883 20.9836 50.4105 20.9055 50.7777 20.7495C51.1449 20.5934 51.4662 20.3776 51.7325 20.1022C51.9895 19.8314 52.1915 19.501 52.3338 19.1338C52.4715 18.7665 52.5403 18.3626 52.5403 17.9358V13.4742H51.1358V17.9358C51.1358 18.1974 51.099 18.4452 51.0256 18.661C50.9522 18.8721 50.8466 19.0557 50.7135 19.2026C50.5803 19.3541 50.4151 19.4643 50.2178 19.5515C50.025 19.6387 49.7954 19.6753 49.5384 19.6753C49.2814 19.6753 49.0565 19.6341 48.8591 19.5469C48.6663 19.4597 48.4965 19.3449 48.3634 19.1934C48.2302 19.042 48.1201 18.8629 48.0512 18.6518C47.9778 18.4315 47.9411 18.1928 47.9411 17.9266V13.4375L47.9319 13.4467Z" fill="#575756"/>
<path d="M60.5765 20.8675C60.1129 20.8675 59.6814 20.7803 59.2958 20.615C58.9149 20.4452 58.5844 20.2157 58.3136 19.9265L58.2539 19.8622L58.5752 19.339C58.6119 19.2839 58.6578 19.2426 58.7037 19.215C58.7588 19.1783 58.8231 19.16 58.8873 19.16C58.9516 19.16 59.0204 19.1829 59.0939 19.2288C59.1489 19.2655 59.2132 19.3115 59.2821 19.362C59.3463 19.4124 59.4244 19.4675 59.5116 19.5318C59.5942 19.5869 59.6906 19.6419 59.7916 19.6924C59.8971 19.7383 60.0165 19.7842 60.1496 19.8118C60.2827 19.8393 60.4342 19.8577 60.604 19.8577C60.8151 19.8577 60.9987 19.8256 61.164 19.7705C61.3246 19.7154 61.4577 19.6328 61.5679 19.5318C61.6735 19.4308 61.7607 19.3114 61.8158 19.1737C61.8754 19.0315 61.903 18.8708 61.903 18.701C61.903 18.5174 61.8663 18.3659 61.7836 18.2511C61.6964 18.1318 61.5863 18.0262 61.444 17.9482C61.2971 17.861 61.1227 17.7875 60.9345 17.7279C60.7325 17.6636 60.5305 17.5994 60.324 17.5351C60.122 17.4709 59.9109 17.3928 59.7043 17.2964C59.4932 17.2046 59.305 17.0853 59.1398 16.9384C58.9699 16.7915 58.8368 16.6033 58.7359 16.3784C58.6349 16.1535 58.5798 15.8781 58.5798 15.5568C58.5798 15.2998 58.6303 15.0427 58.7313 14.7994C58.8322 14.5562 58.9791 14.3405 59.1765 14.1477C59.3739 13.9549 59.6126 13.808 59.888 13.6933C60.168 13.5831 60.4892 13.5234 60.8473 13.5234C61.2466 13.5234 61.6184 13.5877 61.9489 13.7162C62.2794 13.8447 62.5731 14.0329 62.8302 14.2762L62.8944 14.3358L62.6282 14.8591C62.5869 14.9279 62.5456 14.9739 62.4997 15.0106C62.4446 15.0473 62.3803 15.0703 62.3069 15.0703C62.2243 15.0703 62.1371 15.0335 62.0453 14.9647C61.9764 14.9142 61.8846 14.8545 61.7791 14.7857C61.6735 14.726 61.5449 14.6664 61.3935 14.6113C61.2512 14.5608 61.0722 14.5332 60.861 14.5332C60.6499 14.5332 60.4892 14.5608 60.3424 14.6113C60.1955 14.6618 60.0761 14.7306 59.9797 14.8178C59.8833 14.905 59.8099 15.0014 59.764 15.1208C59.7181 15.2401 59.6906 15.364 59.6906 15.5017C59.6906 15.6715 59.7273 15.8093 59.8099 15.9148C59.8971 16.0296 60.0119 16.1306 60.1542 16.2132C60.3056 16.3004 60.4755 16.3784 60.6682 16.4381C60.8656 16.5024 61.0722 16.5712 61.2787 16.6446C61.4853 16.7135 61.6964 16.7961 61.8984 16.8925C62.1049 16.9843 62.2931 17.1037 62.4584 17.246C62.6282 17.3928 62.7659 17.5718 62.8623 17.7829C62.9679 17.9941 63.0184 18.2558 63.0184 18.5633C63.0184 18.8708 62.9633 19.1829 62.8531 19.4629C62.7429 19.7429 62.5823 19.9954 62.3758 20.2019C62.1646 20.4085 61.9076 20.5783 61.6046 20.6931C61.3017 20.8078 60.9574 20.872 60.5765 20.872" fill="#575756"/>
<path d="M60.8469 13.639C61.237 13.639 61.5905 13.6987 61.9072 13.8226C62.2285 13.9419 62.5085 14.1255 62.7472 14.355L62.5177 14.8049C62.4855 14.8508 62.458 14.8921 62.4213 14.9104C62.3845 14.938 62.3478 14.9472 62.2974 14.9472C62.2423 14.9472 62.178 14.9196 62.1046 14.8645C62.0311 14.8094 61.9347 14.7498 61.8246 14.6855C61.7144 14.6213 61.5767 14.557 61.4252 14.5065C61.2738 14.456 61.0764 14.4239 60.8561 14.4239C60.6358 14.4239 60.4613 14.456 60.3007 14.5111C60.14 14.5662 60.0069 14.6442 59.9013 14.7406C59.7958 14.837 59.7132 14.9517 59.6535 15.0802C59.5938 15.2088 59.5709 15.3511 59.5709 15.5071C59.5709 15.6999 59.6168 15.8606 59.7132 15.9891C59.8096 16.1176 59.9335 16.2278 60.0941 16.315C60.2502 16.4068 60.4292 16.4848 60.6266 16.5537C60.8239 16.6179 61.0259 16.6868 61.2371 16.7602C61.4436 16.8291 61.6501 16.9117 61.8475 17.0035C62.0449 17.0953 62.2239 17.2055 62.38 17.3386C62.536 17.4763 62.6645 17.6415 62.7609 17.8389C62.8573 18.0362 62.9032 18.2795 62.9032 18.5687C62.9032 18.8763 62.8527 19.1608 62.7472 19.4271C62.6416 19.6933 62.4947 19.9274 62.2928 20.1248C62.0954 20.3221 61.8475 20.4781 61.5583 20.5883C61.2692 20.6985 60.9387 20.7581 60.5715 20.7581C60.1171 20.7581 59.7086 20.6755 59.3368 20.5103C58.965 20.3451 58.6529 20.1247 58.3866 19.8447L58.6575 19.3949C58.685 19.3582 58.7125 19.3307 58.7538 19.3031C58.7906 19.2756 58.8319 19.2664 58.8778 19.2664C58.9191 19.2664 58.9696 19.2848 59.0201 19.3169C59.0706 19.3536 59.1302 19.3949 59.1991 19.4454C59.2679 19.4959 59.3459 19.5509 59.4331 19.6152C59.5204 19.6795 59.6168 19.73 59.7315 19.7896C59.8417 19.8401 59.9702 19.886 60.1125 19.9182C60.2548 19.9549 60.4154 19.9686 60.5944 19.9686C60.8194 19.9686 61.0167 19.9365 61.1911 19.8769C61.3656 19.8172 61.5125 19.73 61.6364 19.6198C61.7603 19.5096 61.8521 19.3719 61.9164 19.2205C61.9806 19.069 62.0173 18.8946 62.0173 18.6972C62.0173 18.4861 61.9714 18.3116 61.8751 18.1785C61.7787 18.0454 61.6547 17.9307 61.4987 17.8435C61.3426 17.7562 61.1682 17.6736 60.9662 17.6094C60.7643 17.5451 60.5623 17.4809 60.3558 17.4166C60.1492 17.3524 59.9473 17.2743 59.7453 17.1871C59.5433 17.0999 59.3643 16.9852 59.2128 16.8475C59.0614 16.7098 58.9328 16.5307 58.8365 16.3242C58.7401 16.113 58.6942 15.8606 58.6942 15.5484C58.6942 15.3006 58.7401 15.0665 58.8365 14.837C58.9328 14.6075 59.0706 14.4009 59.2542 14.2265C59.4332 14.0475 59.6627 13.9052 59.9289 13.7997C60.1951 13.6941 60.5026 13.639 60.8469 13.639ZM60.8515 13.4141C60.4751 13.4141 60.14 13.4737 59.8463 13.5931C59.5525 13.7078 59.3 13.8685 59.0981 14.0705C58.8915 14.2678 58.7355 14.5019 58.6299 14.759C58.5243 15.016 58.4693 15.2868 58.4693 15.5622C58.4693 15.9019 58.5243 16.1957 58.6345 16.4343C58.7446 16.673 58.8869 16.875 59.066 17.0356C59.2404 17.1917 59.4423 17.3202 59.6627 17.4166C59.8738 17.5084 60.0849 17.591 60.2961 17.6553C60.5026 17.7196 60.7046 17.7838 60.9066 17.8481C61.0856 17.9031 61.2508 17.9766 61.3931 18.0592C61.517 18.1327 61.6226 18.2245 61.6961 18.33C61.7603 18.4264 61.797 18.5503 61.797 18.711C61.797 18.8716 61.7695 19.014 61.719 19.1425C61.6685 19.2664 61.5951 19.372 61.4987 19.4638C61.3977 19.5556 61.2829 19.6244 61.1361 19.6749C60.9892 19.7254 60.8148 19.7529 60.6174 19.7529C60.4567 19.7529 60.3144 19.7392 60.1905 19.7116C60.0666 19.6795 59.9473 19.6428 59.8555 19.6015C59.7545 19.5602 59.6718 19.5051 59.5938 19.45C59.5066 19.3903 59.4332 19.3352 59.3643 19.2847C59.2909 19.2297 59.2266 19.1792 59.1669 19.1471C59.0751 19.092 58.9879 19.0598 58.9007 19.0598C58.8089 19.0598 58.7217 19.0874 58.6529 19.1333C58.5932 19.17 58.5427 19.2251 58.4968 19.2847V19.2939L58.4876 19.3031L58.2168 19.7529L58.125 19.9044L58.2443 20.0329C58.5289 20.3359 58.8686 20.57 59.2679 20.749C59.6672 20.928 60.1125 21.0152 60.5944 21.0152C60.9892 21.0152 61.3518 20.9509 61.6685 20.8316C61.9898 20.7076 62.2606 20.5332 62.4809 20.3129C62.7013 20.0926 62.8711 19.8356 62.9904 19.5372C63.1006 19.2434 63.1649 18.9313 63.1649 18.5962C63.1649 18.2612 63.1098 17.995 62.995 17.7701C62.8895 17.5451 62.7426 17.3524 62.559 17.1963C62.3846 17.0448 62.1826 16.9209 61.9669 16.8199C61.7603 16.7235 61.5446 16.6409 61.338 16.572C61.1315 16.4986 60.9249 16.4297 60.7275 16.3655C60.5439 16.3058 60.3787 16.2324 60.2364 16.1498C60.1079 16.0763 60.0023 15.9845 59.9243 15.8835C59.86 15.7963 59.8279 15.6861 59.8279 15.5393C59.8279 15.4199 59.8508 15.3052 59.8922 15.2042C59.9335 15.1032 59.9977 15.0206 60.0758 14.9472C60.163 14.8691 60.2686 14.8095 60.3971 14.7636C60.5302 14.7177 60.6954 14.6901 60.8744 14.6901C61.0672 14.6901 61.237 14.7131 61.3656 14.759C61.5079 14.8049 61.6272 14.8645 61.7282 14.9242C61.8337 14.9839 61.921 15.0435 61.9852 15.094C62.1 15.1812 62.2101 15.2226 62.3157 15.2226C62.4121 15.2226 62.4993 15.195 62.5727 15.1445C62.6324 15.1032 62.6875 15.0389 62.7334 14.9655V14.9564L62.7426 14.9472L62.9721 14.4974L63.0501 14.3413L62.9262 14.2219C62.6646 13.9695 62.3524 13.7721 62.0082 13.639C61.6639 13.5059 61.2784 13.4416 60.8607 13.4416" fill="#575756"/>
<path d="M85.5854 20.7942C85.4753 20.7942 85.3789 20.7621 85.31 20.7024C85.2412 20.6473 85.1953 20.5784 85.1585 20.4958L84.5389 18.8893H81.5783L80.9587 20.4912C80.9311 20.5647 80.8852 20.6335 80.8118 20.6932C80.7337 20.7575 80.6419 20.7896 80.5364 20.7896H79.6367L82.5101 13.6016H83.6163L86.4896 20.7896H85.5854V20.7942ZM84.1809 17.9759L83.1527 15.3045C83.1206 15.2265 83.093 15.1346 83.0563 15.0337C83.0196 15.1392 82.9921 15.2264 82.9553 15.3136L81.9271 17.9759H84.1809Z" fill="#575756"/>
<path d="M83.5291 13.7153L86.3106 20.6692H85.5808C85.4982 20.6692 85.4293 20.6462 85.3788 20.6049C85.3284 20.5636 85.287 20.5085 85.2641 20.4443L84.6123 18.7643H81.4911L80.8393 20.4443C80.8163 20.4993 80.7842 20.5544 80.7291 20.6003C80.6741 20.6462 80.6052 20.6692 80.5272 20.6692H79.7974L82.5789 13.7153H83.5336M81.7573 18.0896H84.3507L83.2583 15.2621C83.2215 15.1795 83.194 15.0831 83.1527 14.9683C83.116 14.8582 83.0838 14.7389 83.0471 14.6103C82.9783 14.872 82.9094 15.0877 82.8406 15.2667L81.7481 18.0896M83.6897 13.4812H82.4229L82.3632 13.6281L79.5816 20.582L79.4531 20.9033H80.5272C80.6603 20.9033 80.7842 20.862 80.8806 20.7839C80.9678 20.7105 81.0321 20.6233 81.0642 20.5269L81.6563 19.003H84.4562L85.0484 20.5314C85.0897 20.637 85.1539 20.7197 85.232 20.7839C85.3284 20.862 85.4431 20.8987 85.5854 20.8987H86.6595L86.531 20.5774L83.7494 13.6235L83.6897 13.4766V13.4812ZM82.097 17.8509L83.0563 15.3723L84.0156 17.8509H82.1016H82.097Z" fill="#575756"/>
<path d="M74.2733 19.3805C74.2136 19.3162 74.1356 19.2795 74.053 19.2795C73.9703 19.2795 73.8877 19.3162 73.8051 19.3851C73.6904 19.4906 73.571 19.5825 73.4609 19.6559C73.3507 19.7294 73.2222 19.789 73.0891 19.8395C72.9559 19.8854 72.8091 19.9267 72.6484 19.9451C72.4878 19.968 72.3087 19.9818 72.1068 19.9818C71.7855 19.9818 71.4825 19.9221 71.2025 19.8028C70.9271 19.688 70.6839 19.5182 70.4819 19.2933C70.28 19.0684 70.1147 18.793 69.9954 18.4717C69.876 18.1504 69.8164 17.7694 69.8164 17.3517C69.8164 16.934 69.8714 16.5622 69.9908 16.2409C70.1009 15.9196 70.2662 15.6397 70.4681 15.4193C70.6701 15.199 70.918 15.0245 71.198 14.9052C71.478 14.7904 71.7993 14.7262 72.1389 14.7262C72.4235 14.7262 72.6668 14.7583 72.855 14.818C73.0477 14.8777 73.213 14.9465 73.3415 15.0199C73.4746 15.098 73.5802 15.1623 73.6628 15.2219C73.7684 15.3 73.8602 15.3367 73.9474 15.3367C74.0254 15.3367 74.0851 15.3183 74.1356 15.2862C74.1769 15.2541 74.2182 15.2174 74.2411 15.1806L74.613 14.6666L74.5395 14.5977C74.2411 14.3177 73.8923 14.0928 73.5067 13.9276C73.1166 13.7623 72.6622 13.6797 72.1527 13.6797C71.6432 13.6797 71.2163 13.7623 70.8078 13.923C70.5829 14.1662 70.3718 14.3452 70.0505 14.3314C69.8944 14.4416 69.7429 14.5702 69.6098 14.7124C69.2977 15.0337 69.059 15.4285 68.8892 15.8783C68.7193 16.3282 68.6367 16.8285 68.6367 17.3609C68.6367 17.8934 68.7193 18.3937 68.8846 18.8435C69.0498 19.2933 69.2793 19.6835 69.5777 20.0094C69.876 20.3307 70.2432 20.5877 70.6609 20.7621C71.0832 20.9411 71.5514 21.0283 72.0655 21.0283C72.6576 21.0283 73.1671 20.9319 73.5894 20.7392C74.0071 20.551 74.3697 20.2802 74.668 19.9359L74.7369 19.8579L74.2916 19.3805H74.2733Z" fill="#575756"/>
<path d="M74.7337 19.709L74.3574 19.3097C74.2747 19.2179 74.1692 19.172 74.0498 19.172C73.9305 19.172 73.8295 19.2133 73.7285 19.3005C73.6184 19.4061 73.5036 19.4933 73.3935 19.5621C73.2879 19.631 73.1731 19.6906 73.0492 19.7365C72.9253 19.7824 72.7876 19.8192 72.6361 19.8422C72.48 19.8651 72.3056 19.8789 72.1083 19.8789C71.8007 19.8789 71.5116 19.8238 71.2499 19.709C70.9929 19.6035 70.7588 19.4382 70.5706 19.2316C70.3778 19.0205 70.2217 18.7589 70.1116 18.4468C69.9968 18.1346 69.9371 17.772 69.9371 17.3681C69.9371 16.9642 69.9922 16.6107 70.107 16.294C70.2125 15.9819 70.3686 15.7203 70.5614 15.5091C70.7496 15.298 70.9837 15.1373 71.2453 15.0272C71.5115 14.917 71.8145 14.8573 72.1404 14.8573C72.4112 14.8573 72.6407 14.8895 72.8243 14.9446C73.0079 14.9997 73.164 15.0639 73.2833 15.1328C73.4072 15.2062 73.5128 15.2704 73.5908 15.3255C73.7148 15.4219 73.8341 15.4678 73.9443 15.4678C74.0453 15.4678 74.1279 15.4403 74.1967 15.3944C74.2518 15.3577 74.3023 15.3072 74.3344 15.2521L74.6419 14.8298L74.7613 14.6646L74.6144 14.5269C74.3069 14.2377 73.9443 14.0036 73.5449 13.8384C73.141 13.6685 72.6682 13.5859 72.145 13.5859C71.8053 13.5859 71.4748 13.6273 71.1719 13.7053C71.126 13.8292 70.7404 13.8705 70.8781 14.0358C71.2683 13.8935 71.686 13.8154 72.145 13.8154C72.6407 13.8154 73.0768 13.8934 73.4577 14.0541C73.8387 14.2147 74.1692 14.4305 74.4584 14.7013L74.1462 15.1328C74.1279 15.1649 74.1049 15.1924 74.0728 15.2154C74.0406 15.2383 73.9994 15.2475 73.9489 15.2475C73.8938 15.2475 73.8203 15.2154 73.7331 15.1511C73.6459 15.0868 73.5403 15.018 73.4026 14.94C73.2649 14.8619 73.0951 14.7931 72.8931 14.7289C72.6912 14.6646 72.4387 14.6324 72.1404 14.6324C71.7824 14.6324 71.4519 14.6967 71.1535 14.816C70.8552 14.94 70.5981 15.1236 70.387 15.3577C70.1713 15.5964 70.0014 15.881 69.8821 16.2206C69.7627 16.5603 69.7031 16.9458 69.7031 17.3727C69.7031 17.7996 69.7627 18.1897 69.8867 18.534C70.0106 18.8736 70.1804 19.1582 70.3962 19.3969C70.6119 19.6356 70.8644 19.81 71.1581 19.9293C71.4519 20.0533 71.764 20.113 72.1083 20.113C72.3148 20.113 72.4984 20.0992 72.6682 20.0762C72.8381 20.0487 72.9895 20.0119 73.1272 19.966C73.2695 19.9156 73.3981 19.8513 73.5174 19.7687C73.6367 19.6907 73.7607 19.5943 73.88 19.4841C73.9351 19.4382 73.9856 19.4107 74.0452 19.4107C74.0957 19.4107 74.1462 19.4336 74.1829 19.4749L74.5593 19.8743C74.2747 20.2047 73.9305 20.4618 73.5266 20.6454C73.1226 20.829 72.6315 20.9208 72.0532 20.9208C71.5529 20.9208 71.0984 20.8336 70.6945 20.6637C70.286 20.4893 69.9417 20.2507 69.6526 19.9339C69.3634 19.6218 69.1385 19.25 68.9824 18.8094C68.8218 18.3733 68.7438 17.8914 68.7438 17.3681C68.7438 16.8449 68.8264 16.3629 68.9916 15.9268C69.1568 15.4908 69.3864 15.1144 69.6893 14.8023C69.7903 14.6967 69.8959 14.6049 70.0106 14.5177H69.6572C69.6159 14.559 69.5654 14.6003 69.5287 14.6416C69.2074 14.9767 68.9595 15.3852 68.7851 15.8442C68.6107 16.3032 68.5234 16.8173 68.5234 17.3681C68.5234 17.9189 68.6106 18.4284 68.7713 18.892C68.9411 19.3556 69.1798 19.7595 69.4873 20.0946C69.7995 20.4297 70.1713 20.6959 70.6119 20.8795C71.048 21.0631 71.5345 21.1595 72.0623 21.1595C72.6682 21.1595 73.1961 21.0585 73.6322 20.8611C74.0682 20.6638 74.4446 20.3837 74.7475 20.0303L74.8852 19.8697L74.7429 19.7182V19.7044L74.7337 19.709Z" fill="#575756"/>
<path d="M54.9848 3.79016C55.7605 3.80852 57.312 4.40521 57.3303 4.4098L57.367 4.42359H57.4037C58.9322 4.51998 59.5657 5.23144 59.5702 5.23603V5.24522C59.965 5.65833 59.9007 6.36976 59.841 7.05826C59.8043 7.49891 59.763 7.95334 59.841 8.3435L59.8548 8.39398C59.8778 8.49955 59.8961 8.59594 59.887 8.67397C59.887 8.70151 59.864 8.73822 59.8456 8.77953C59.8273 8.82084 59.8043 8.87136 59.786 8.92644C59.1801 10.8772 57.2706 11.6804 57.2477 11.6896L57.2156 11.7034L57.188 11.7264C56.4398 12.3322 55.3382 12.548 54.3697 12.6994C53.7363 12.8004 53.0754 12.8647 52.3501 12.9014C52.2629 12.9014 51.7488 12.8693 51.1062 12.8693C49.8348 12.8693 48.9214 12.961 48.3889 13.1355L47.8427 13.3145C47.5398 13.4155 47.2139 13.5302 46.865 13.6587C46.4106 13.7368 39.2364 14.9348 34.8391 14.9348C34.1598 14.9348 33.5723 14.9026 33.0949 14.8475H33.0582L32.7782 14.8567C32.6726 14.8476 31.9612 14.7971 31.0294 14.7833C34.0726 13.8837 36.845 12.3276 37.0377 12.2129C37.2259 12.1257 40.0672 10.868 41.6553 10.6431C41.8481 10.6202 46.406 10.129 47.6407 9.93163C47.8932 9.90868 51.299 9.61492 52.419 8.3802L52.4282 8.37101L52.4373 8.36182C52.6806 8.04052 53.415 7.15925 53.9245 7.00778L53.9566 6.99859L53.9842 6.98027C54.154 6.87929 54.9848 6.36517 55.1638 5.96583C55.4851 5.41503 55.5035 4.8872 55.2235 4.20787C55.1592 4.05181 55.0858 3.90494 55.0032 3.76724M54.9527 3.54688C54.7966 3.54688 54.6727 3.56985 54.5946 3.62493C54.7553 3.82689 54.8884 4.05638 54.9848 4.30424C55.2143 4.86423 55.2464 5.33243 54.9343 5.86946C54.7874 6.2183 53.8373 6.78747 53.8373 6.78747C53.1396 6.98943 52.2262 8.22415 52.2262 8.22415C51.1384 9.42674 47.5902 9.69754 47.5902 9.69754C46.3647 9.89491 41.6094 10.409 41.6094 10.409C39.9157 10.6523 36.9138 12.0063 36.9138 12.0063C36.9138 12.0063 33.1271 14.182 29.455 14.9348L28.918 15.0679C29.4871 15.0312 30.0655 15.0174 30.5842 15.0174C31.8051 15.0174 32.7507 15.0954 32.7507 15.0954L33.0444 15.0862C33.5539 15.1459 34.1552 15.1735 34.8162 15.1735C39.4843 15.201 46.9063 13.8928 46.9063 13.8928C47.2827 13.7505 47.6086 13.6358 47.8978 13.544L48.4394 13.365C49.0637 13.1538 50.1974 13.1126 51.0833 13.1126C51.7856 13.1126 52.3272 13.1447 52.3272 13.1447C53.0157 13.1079 53.7042 13.0437 54.3881 12.9381C55.3612 12.7867 56.5179 12.5663 57.3211 11.9146C57.3211 11.9146 59.3407 11.0883 59.9925 9.00444C60.0247 8.90346 60.0889 8.82083 60.1027 8.71526C60.1256 8.57756 60.0843 8.4399 60.0614 8.3022C59.864 7.35207 60.4699 5.86948 59.7355 5.08918C59.7355 5.08918 59.0653 4.29507 57.4037 4.19868C57.4037 4.19868 55.7559 3.56066 54.9435 3.56066" fill="#575756"/>
<path d="M60.4805 5.68274C61.8621 5.90306 62.6929 6.78437 62.7021 6.79355L62.7112 6.80274L62.7204 6.81193L63.083 7.16531L63.1748 7.25255L63.2942 7.28466C65.4148 7.84005 67.4069 9.33181 69.0731 10.718C69.6652 11.2091 70.4684 11.8793 70.753 12.7009C70.8815 13.0727 70.9366 13.5822 70.7163 13.8897C70.5373 14.1376 70.1792 14.2661 69.6376 14.2661C69.3943 14.2661 69.1235 14.2386 68.8206 14.1881H68.7976C68.7517 14.1789 64.0056 13.5914 61.3159 13.2104L57.6301 12.7606H57.5888L56.556 12.7238C56.8452 12.5953 57.1435 12.4301 57.4878 12.2098C57.8091 12.0675 59.7231 11.1449 60.3887 9.0243C60.3887 9.01512 60.407 8.98758 60.4162 8.96922C60.4529 8.89578 60.4989 8.79019 60.5218 8.66167C60.5539 8.45971 60.5126 8.27609 60.4851 8.1338L60.4759 8.08791C60.4162 7.80333 60.4484 7.41319 60.4897 7.00927C60.5264 6.58239 60.5677 6.12338 60.5034 5.68274M59.87 5.16406H59.8333L59.8425 5.18244C60.3198 5.99947 59.8287 7.31224 60.0123 8.18434C60.0398 8.32204 60.0766 8.4597 60.0536 8.5974C60.0399 8.70297 59.9756 8.7856 59.9435 8.88658C59.2917 10.975 57.2721 11.7967 57.2721 11.7967C56.4459 12.3246 55.9547 12.5219 54.977 12.678C54.2977 12.7835 53.802 12.8661 53.1089 12.9029C53.1089 12.9029 52.0256 12.9901 51.2637 12.9901L50.8047 13.0085L52.526 13.0681L57.5842 13.2196L61.27 13.6694C63.9827 14.0596 68.7517 14.6425 68.7517 14.6425C69.0914 14.7022 69.3852 14.7297 69.6468 14.7297C71.5104 14.7297 71.4782 13.3481 71.2028 12.5449C70.8861 11.6315 70.092 10.9475 69.3806 10.3554C67.6639 8.93251 65.6168 7.4086 63.4227 6.83484L63.0601 6.4814C63.028 6.44927 61.8437 5.16866 59.8746 5.16866" fill="#575756"/>
<path d="M15.7533 13.9727L15.6523 13.7616C15.7166 13.7294 15.7809 13.6927 15.8405 13.6606C15.8956 13.6285 15.9461 13.6055 15.9782 13.5871C16.2077 13.4816 16.4372 13.3852 16.6622 13.2796C17.1074 13.0777 17.5526 12.8711 17.9933 12.6646C19.3473 12.0312 20.5453 11.439 21.6653 10.8561C22.7531 10.2869 24.0292 9.59842 25.2363 8.79975L25.4016 8.69419C26.0993 8.23519 26.8887 7.7165 27.2789 7.01422L27.2973 6.99125C27.3432 6.94076 28.4769 5.75194 29.271 5.61883L29.4087 5.57294C30.01 5.35721 30.5562 5.1415 31.0703 4.90741C31.4604 4.7284 31.7496 4.58149 32.0204 4.42084C32.2866 4.26019 32.5437 4.09496 32.7135 3.80579C32.7778 3.70022 32.8925 3.62677 32.9935 3.5625C33.0302 3.53955 33.0578 3.52578 33.0899 3.50283C33.2184 3.41103 33.3469 3.31464 33.4754 3.21825C33.7371 3.0117 33.9849 2.79136 34.2007 2.57104C34.6275 2.13499 35.1784 1.47866 35.0177 0.840644L34.9947 0.771782C34.9856 0.716702 34.9718 0.679977 34.958 0.652437L35.1692 0.546875C35.1967 0.597365 35.2105 0.652448 35.2197 0.721299L35.2426 0.776377C35.44 1.53373 34.8433 2.25437 34.3705 2.73174C34.1456 2.96124 33.8977 3.18613 33.6269 3.39727C33.4984 3.50284 33.3699 3.59465 33.2368 3.69104C33.2001 3.71399 33.1679 3.73695 33.1312 3.7599C33.0486 3.8058 32.9659 3.86087 32.9292 3.92054C32.7318 4.25561 32.4519 4.44381 32.1535 4.61824C31.8827 4.78348 31.5798 4.93493 31.185 5.11394C30.6663 5.35262 30.1156 5.57293 29.5097 5.78866L29.3536 5.84374C28.6559 5.95849 27.614 7.01882 27.4992 7.13816C27.0769 7.88175 26.2645 8.41875 25.5485 8.88694L25.3832 8.99255C24.1669 9.8004 22.8862 10.4889 21.7938 11.0626C20.6738 11.6501 19.4712 12.2377 18.1126 12.8757C17.6674 13.0823 17.2267 13.2888 16.7769 13.4908C16.5474 13.5963 16.3179 13.6973 16.0884 13.8029C16.0563 13.8167 16.0195 13.8396 15.9691 13.8672C15.9094 13.9039 15.8405 13.9406 15.7671 13.9727H15.7533Z" fill="#575756"/>
<path d="M15.3674 14.6807C15.1792 14.6807 15.0415 14.644 14.9543 14.5706C14.89 14.5155 14.8671 14.4466 14.8717 14.3961V14.3594L14.8946 14.3273C15.0782 14.0749 15.2113 13.9096 15.2802 13.85L15.3444 13.7903L15.4179 13.8362H15.4271C15.4546 13.8362 15.5234 13.8361 15.6428 13.7581L15.7575 13.9601C15.5877 14.0611 15.4684 14.0703 15.3857 14.0657C15.3444 14.1162 15.2618 14.2125 15.1195 14.4053C15.17 14.4237 15.3261 14.4742 15.7667 14.3961L16.8959 14.2585C18.4748 13.5241 19.6224 13.1063 20.3017 13.0191C21.3298 12.9778 24.0426 12.6978 24.3088 11.9497C24.3455 11.8762 25.0524 10.3707 25.6215 10.054C25.75 9.92087 26.7185 8.94321 27.8844 8.576C29.0595 8.20421 30.1886 7.36422 30.2024 7.35963C30.2253 7.34586 30.7532 7.05666 31.0837 5.95506C31.3499 5.06459 32.3689 4.9774 33.2318 5.00035H33.241C33.6679 5.00035 34.3747 3.93089 34.6822 3.47648C34.7281 3.40763 34.7695 3.34795 34.797 3.29746C35.4075 2.40699 35.6737 1.61751 35.5957 0.887692C35.5957 0.887692 35.5819 0.814243 35.513 0.763752C35.4212 0.699492 35.2652 0.681147 35.0586 0.722458L35.0173 0.492956C35.2927 0.442465 35.5085 0.469983 35.6553 0.584734C35.8068 0.694895 35.8252 0.850954 35.8298 0.869314C35.9124 1.65421 35.637 2.49417 34.9898 3.43513C34.9531 3.48103 34.9164 3.5407 34.875 3.60955C34.3426 4.40822 33.7413 5.25281 33.2272 5.23904C32.4515 5.21609 31.5335 5.28493 31.3132 6.02851C30.9506 7.24028 30.3539 7.55239 30.3309 7.56616C30.2988 7.5937 29.1742 8.42453 27.9579 8.80551C26.792 9.17271 25.796 10.2284 25.7822 10.2376L25.7501 10.2605C25.337 10.4808 24.7265 11.6284 24.5291 12.0506C24.1665 13.0742 20.7194 13.2441 20.3246 13.2624C19.682 13.3496 18.5207 13.7765 16.9785 14.4926L16.9418 14.5018L15.7989 14.6394C15.629 14.6716 15.4821 14.6853 15.3582 14.6853H15.372L15.3674 14.6807Z" fill="#575756"/>
<path d="M14.5579 16.9316C14.4982 16.9316 14.434 16.9224 14.3697 16.9041C14.0851 16.8214 13.8832 16.5185 13.8005 16.2844C13.6628 15.8942 13.8602 15.7474 14.0025 15.6326C14.0484 15.5959 14.1035 15.5546 14.1586 15.4995L14.1953 15.4628L14.3743 15.3893C14.6681 15.2287 18.6063 13.1219 20.2909 12.897C21.8056 12.8327 23.9996 12.4839 24.2016 11.9055C24.2888 11.7219 24.9635 10.3082 25.5465 9.95475C25.7163 9.77574 26.6894 8.821 27.8506 8.4538C29.0073 8.08659 30.1227 7.26498 30.1365 7.2558L30.1732 7.23283C30.1732 7.23283 30.6643 6.95284 30.9765 5.9109C31.2978 4.81388 32.7115 4.85978 33.2394 4.87355C33.4872 4.88273 33.9279 4.38702 34.5842 3.40016C34.6301 3.33131 34.6715 3.27163 34.7036 3.22114C35.2773 2.38576 35.5344 1.64675 35.4885 0.972015V0.912342L35.5619 0.747108L35.6262 0.710407C35.9107 0.554346 36.8517 0.430395 37.0812 0.402855C41.2077 -0.643673 41.8778 0.650753 41.9696 0.898615C42.1211 1.21074 41.8962 1.49989 41.6575 1.79824C41.5703 1.90381 41.4785 2.03231 41.3821 2.17001L41.2627 2.34903C40.8726 2.93196 40.5651 3.38641 40.0326 3.93262C39.5139 4.46048 38.9126 4.96079 38.2425 5.42438C37.3474 6.03945 36.4983 6.48924 35.4885 6.87939C34.5751 7.23282 33.6387 7.60007 32.9777 8.29775C32.863 8.41709 32.7574 8.55019 32.6472 8.68789C32.56 8.79346 32.4728 8.9036 32.3856 9.00917C31.5686 9.93636 30.5771 10.3265 29.5352 10.7442C29.3516 10.8177 29.168 10.8911 28.9798 10.9691C28.6218 11.116 28.25 11.3088 27.8415 11.5567L27.6533 11.6714C27.2585 11.9101 26.8776 12.1304 26.6068 12.4976C26.5012 12.6353 26.4094 12.7822 26.3084 12.9383C26.1202 13.232 25.9228 13.5396 25.6474 13.792C25.3261 14.0812 24.9406 14.2602 24.5366 14.4346C21.98 15.5271 19.7033 16.2018 17.3716 16.5644C16.5454 16.6929 15.7192 16.8077 14.9159 16.8949C14.8838 16.8949 14.8517 16.9041 14.8195 16.9087C14.7461 16.9224 14.6589 16.9362 14.5717 16.9362L14.5579 16.9316ZM14.2183 16.0595C14.2183 16.0595 14.2274 16.0962 14.2412 16.1283C14.2963 16.2844 14.4156 16.4358 14.4982 16.4588C14.5533 16.4772 14.6451 16.4588 14.7369 16.4451C14.7737 16.4451 14.815 16.4313 14.8517 16.4267C15.6503 16.3349 16.4674 16.2293 17.289 16.1008C19.584 15.7428 21.8239 15.0726 24.3439 14.0031C24.7248 13.8379 25.0599 13.6864 25.3261 13.4478C25.5602 13.2366 25.7255 12.9704 25.9091 12.6904C26.01 12.5343 26.111 12.3737 26.2258 12.2222C26.5517 11.7816 26.9877 11.5245 27.4054 11.2767L27.5936 11.1665C28.0205 10.9095 28.4106 10.7075 28.7916 10.5514C28.9798 10.4734 29.168 10.4 29.3516 10.3265C30.343 9.93636 31.2794 9.56457 32.023 8.72459C32.1102 8.62361 32.1928 8.52726 32.2708 8.42169C32.381 8.28399 32.5004 8.14168 32.6243 8.00398C33.3587 7.22368 34.341 6.84267 35.2911 6.47546C36.2734 6.0899 37.095 5.65846 37.9579 5.06635C38.6051 4.62111 39.1835 4.13916 39.6792 3.63426C40.1795 3.12476 40.4595 2.70246 40.8496 2.11952L40.969 1.94051C41.0745 1.78903 41.1755 1.65593 41.2673 1.54118C41.3775 1.39429 41.5519 1.17861 41.5244 1.12812L41.506 1.08677C41.506 1.08677 41.0241 -0.0928422 37.1592 0.889426H37.1271C36.7507 0.939916 36.1908 1.02711 35.9383 1.10514C35.9521 1.84873 35.6675 2.63821 35.0662 3.51032C35.0341 3.55622 34.9973 3.61589 34.9514 3.68474C34.4052 4.50636 33.781 5.37389 33.2026 5.36471C32.4682 5.34176 31.6007 5.40144 31.3988 6.067C31.0545 7.22369 30.5083 7.59088 30.3752 7.66432C30.2375 7.76989 29.1404 8.5502 27.9654 8.92199C26.8317 9.28001 25.8494 10.3081 25.8402 10.3219L25.8127 10.3495L25.776 10.3679C25.4317 10.5469 24.8763 11.5337 24.6055 12.1029C24.2291 13.1586 20.9518 13.3514 20.3046 13.3835C18.7027 13.5946 14.5992 15.8024 14.5579 15.83L14.535 15.8437L14.4294 15.885C14.3651 15.9447 14.31 15.9906 14.2595 16.0228C14.2366 16.0411 14.2091 16.0595 14.1953 16.0732V16.0641L14.2183 16.0595Z" fill="#575756"/>
<path d="M31.6602 9.43185L31.9998 8.97285C32.0687 8.904 32.1192 8.84431 32.1788 8.78464C32.266 8.68366 32.3487 8.58271 32.4313 8.47714C32.5414 8.33944 32.6562 8.19714 32.7801 8.06862C33.4916 7.31127 34.4647 6.93028 35.4102 6.56308C36.4017 6.17751 37.2279 5.74147 38.1 5.14018C38.7563 4.69035 39.3393 4.2038 39.835 3.6943C40.3445 3.17563 40.6291 2.74877 41.0238 2.16125L41.1386 1.98682C41.2395 1.83994 41.3405 1.71138 41.4277 1.59663C41.6389 1.32581 41.7536 1.16519 41.694 1.05503L41.6802 1.01374C41.6802 1.01374 41.6435 0.830124 41.3405 0.655702L41.1753 0.563868L41.3314 0.458306C41.8776 0.086513 45.7791 0.674035 46.2243 0.742886H46.2427C47.6013 0.742886 47.9135 1.27537 47.9272 1.29832L47.9456 1.33042V1.36712C47.9318 1.51401 47.9089 1.67012 47.8767 1.82159C47.6702 2.70747 47.0735 3.54282 46.0591 4.36903C45.7378 4.63066 45.3844 4.87851 45.0172 5.10802C44.806 5.23654 44.604 5.39263 44.4113 5.5441C44.2093 5.70016 43.9982 5.8654 43.7732 6.00311C43.4749 6.18212 43.1215 6.34275 42.6671 6.49881C41.8317 6.78798 40.8769 6.98074 39.6606 7.10926C39.2108 7.15516 38.839 7.18733 38.4901 7.2011C37.8108 7.23323 37.2187 7.40306 36.5715 7.60502C35.1164 8.06403 33.5971 8.62861 32.0503 9.2758L31.6602 9.44104V9.43185ZM41.9097 0.95866C42.0244 1.20652 41.8409 1.44059 41.6114 1.73435C41.5241 1.84451 41.4278 1.97301 41.3314 2.1153L41.2166 2.28973C40.8265 2.86807 40.5235 3.3225 40.0002 3.85954C39.4908 4.3828 38.8941 4.87851 38.2285 5.33292C37.3426 5.9434 36.498 6.38864 35.4974 6.77879C34.5702 7.13682 33.6201 7.50863 32.9454 8.22926C32.8306 8.35319 32.7159 8.49089 32.6103 8.624C32.546 8.70662 32.4818 8.78466 32.4175 8.86728C33.8129 8.29353 35.1899 7.79322 36.5026 7.37552C37.1682 7.16438 37.7741 6.98535 38.4809 6.95781C38.8252 6.93945 39.1924 6.91652 39.6376 6.86603C40.8356 6.73751 41.7766 6.54471 42.589 6.26471C43.0297 6.11324 43.3693 5.96176 43.6539 5.79193C43.8697 5.6634 44.0716 5.50277 44.269 5.3513C44.4663 5.19524 44.6729 5.0346 44.8978 4.90149C45.2604 4.68116 45.6001 4.43786 45.9168 4.18082C46.8899 3.38674 47.459 2.59271 47.6518 1.76192C47.684 1.63799 47.6977 1.51402 47.7115 1.3855C47.6335 1.2937 47.28 0.972388 46.2243 0.972388H46.2151C44.7372 0.747476 42.4054 0.476684 41.6618 0.591435C41.8454 0.752086 41.9005 0.903584 41.9097 0.963255V0.95866Z" fill="#575756"/>
<path d="M15.1168 17.4746C14.9378 17.4746 14.488 17.4425 14.2539 17.1717C14.1667 17.0661 14.0749 16.8962 14.13 16.63L14.1483 16.5795L14.2355 16.3271L14.4972 16.4556C14.5522 16.474 14.644 16.4556 14.7358 16.4419C14.7726 16.4419 14.8139 16.4281 14.8506 16.4235C15.6447 16.3317 16.4617 16.2261 17.2879 16.0976C19.5829 15.7396 21.8229 15.0694 24.3428 13.9999C24.7283 13.8347 25.0634 13.6833 25.325 13.4446C25.5591 13.2334 25.7244 12.9672 25.908 12.6872C26.009 12.5311 26.1099 12.3705 26.2293 12.219C26.5552 11.7784 26.9912 11.5213 27.4089 11.2689L27.5925 11.1587C28.0148 10.9017 28.4096 10.6997 28.7905 10.5436C28.9787 10.4656 29.1669 10.3922 29.3505 10.3187C30.1675 9.99742 30.9387 9.69451 31.5904 9.13911L31.6272 9.11154L31.9118 8.9509L32.1045 8.86832C33.5917 8.24866 35.0559 7.70704 36.4651 7.2664C37.1398 7.05526 37.7503 6.87622 38.4755 6.84409C38.8152 6.83032 39.1824 6.80281 39.623 6.75232C40.8118 6.62838 41.7436 6.43558 42.556 6.15559C42.9967 6.00412 43.3134 5.85723 43.5934 5.69199C43.8045 5.56347 43.9927 5.41661 44.1993 5.25596C44.4012 5.0999 44.6078 4.93925 44.8373 4.79696C45.1953 4.57663 45.535 4.33793 45.8425 4.08548C46.7972 3.30976 47.3526 2.53863 47.5408 1.73079C47.5729 1.59767 47.5913 1.46457 47.6005 1.33605L47.6188 1.04688L48.0044 1.15244C48.3716 1.10195 48.6287 1.15243 48.7893 1.31767C48.9087 1.4416 48.9408 1.60224 48.9224 1.70781C48.9224 1.74453 48.9224 1.77671 48.9132 1.80884C48.8077 2.79569 48.2018 3.7642 47.1048 4.6868C46.7054 5.02646 46.329 5.29265 45.9618 5.50838C45.7323 5.64149 45.5212 5.80214 45.2963 5.97198C45.0163 6.18312 44.7317 6.39887 44.4104 6.56411C43.9606 6.7982 43.4511 6.98181 42.8039 7.14705C41.8675 7.38573 40.8715 7.5418 39.8388 7.61065C39.6873 7.61983 39.5404 7.62438 39.3889 7.62897C39.0906 7.63815 38.8106 7.64275 38.5398 7.69783C38.2276 7.76209 37.9339 7.86765 37.6172 7.97322C37.4932 8.01453 37.3647 8.06045 37.2362 8.10176C35.547 8.64797 33.8258 9.30435 32.1321 10.0525C31.9944 10.1122 31.8429 10.2269 31.696 10.3325C31.595 10.406 31.4941 10.484 31.3885 10.5436C30.7137 10.9521 30.0757 11.2184 29.5433 11.4249C29.2266 11.5443 28.9282 11.682 28.6436 11.8335C28.0561 12.1456 27.5971 12.4853 27.2253 12.8708C27.1565 12.9443 27.0968 13.0223 27.0325 13.1003C26.927 13.238 26.8122 13.3757 26.6653 13.4951C26.4909 13.6328 26.3027 13.7383 26.1191 13.8393L25.9814 13.9174C25.7336 14.0551 25.4765 14.1927 25.2103 14.3304C23.9572 14.9776 22.6077 15.5468 21.194 16.0334C19.2295 16.7081 17.2053 17.1946 15.1903 17.4654H15.1306L15.1214 17.4746H15.1168ZM14.6762 16.9192C14.7955 16.9881 15.0066 17.0156 15.1397 17.011C16.2781 16.855 17.4302 16.6301 18.5731 16.3363C18.1692 16.4189 17.7652 16.4924 17.3567 16.5566C16.5305 16.6851 15.6997 16.7999 14.9011 16.8871C14.8689 16.8871 14.8368 16.8963 14.8047 16.9009C14.768 16.9009 14.7175 16.9146 14.6762 16.9192ZM31.875 9.50174C31.1636 10.103 30.3649 10.4151 29.5203 10.7456C29.3413 10.8191 29.1531 10.8925 28.9695 10.9659C28.6069 11.1174 28.2351 11.3056 27.8358 11.5535L27.6476 11.6682C27.2528 11.9069 26.8719 12.1272 26.6011 12.4944C26.4955 12.6321 26.4037 12.779 26.3027 12.9351C26.2063 13.0866 26.1099 13.238 25.9998 13.3849C26.1329 13.3115 26.2614 13.2334 26.3716 13.1462C26.4771 13.059 26.5735 12.9443 26.6699 12.8249C26.7388 12.7331 26.8122 12.6459 26.8903 12.5679C27.2942 12.1456 27.7991 11.7738 28.4279 11.4433C28.7308 11.2827 29.0522 11.1358 29.3872 11.0072C30.1308 10.7226 30.6403 10.4794 31.1544 10.1673C31.2462 10.1122 31.3334 10.0479 31.4298 9.97907C31.595 9.85973 31.7649 9.73122 31.953 9.65319C33.6651 8.90043 35.3956 8.23945 37.1031 7.68864C37.227 7.65192 37.3509 7.60601 37.4749 7.5647C37.686 7.49126 37.9017 7.41784 38.1221 7.35358C37.6034 7.41784 37.1306 7.56015 36.6119 7.72081C35.2212 8.16145 33.7661 8.69388 32.2927 9.30894L32.1137 9.3824L31.8796 9.51547L31.875 9.50174ZM48.0366 1.62063C48.0228 1.69407 48.009 1.76291 47.9952 1.83635C47.7841 2.74518 47.1782 3.59895 46.1363 4.44351C45.815 4.70515 45.4569 4.9576 45.0806 5.1871C44.874 5.31103 44.6858 5.45788 44.4793 5.61394C44.2727 5.77459 44.0616 5.93524 43.8275 6.07294C43.5153 6.26113 43.1665 6.41724 42.6983 6.58249C42.12 6.77986 41.482 6.93588 40.743 7.05522C41.4131 6.9726 42.0603 6.85329 42.6846 6.69264C43.295 6.53658 43.777 6.36213 44.1947 6.15099C44.4793 6.00411 44.7363 5.81136 45.0117 5.60481C45.2366 5.43497 45.4707 5.26052 45.7186 5.11364C46.0628 4.91168 46.4163 4.65466 46.8018 4.33336C47.8025 3.49338 48.3533 2.62587 48.4451 1.75835C48.4451 1.72622 48.4451 1.69865 48.4542 1.66652V1.63901C48.4542 1.63901 48.3533 1.56554 48.032 1.61144H48.0411L48.0366 1.62063Z" fill="#575756"/>
<path d="M18.3201 9.02226L18.265 8.94421C18.1365 8.7652 18.2558 8.52194 18.2971 8.44391C18.3706 8.29244 18.4761 8.17311 18.5725 8.05377C18.6184 7.99869 18.6643 7.9482 18.7056 7.88853C18.7423 7.84263 22.3409 3.08735 27.2339 1.97656C27.3441 1.97656 27.5323 2.01784 27.569 2.22898L27.5782 2.25195C27.6883 2.61916 27.4313 2.97257 27.2293 3.20666C27.1238 3.32141 27.009 3.44536 26.8621 3.56929C26.8208 3.60601 26.7703 3.63813 26.7198 3.67485C26.6464 3.72534 26.5684 3.78041 26.5317 3.83549C26.4261 3.9686 26.3389 4.08336 26.1736 4.18894C26.0084 4.29451 25.8339 4.39093 25.7008 4.45519C25.453 4.57912 25.1868 4.69842 24.893 4.81317L24.8379 4.83615C24.5534 4.89582 24.1265 5.32271 23.9842 5.48336C23.7547 5.87351 23.337 6.18102 22.8963 6.48855C22.2583 6.93378 21.5928 7.31016 21.0282 7.62687C20.4774 7.9344 19.899 8.23737 19.2518 8.56785C18.9719 8.71014 18.6919 8.84785 18.4119 8.98096L18.3247 9.02226H18.3201ZM27.2661 2.21066C22.4649 3.30768 18.926 7.98489 18.8892 8.03079C18.8433 8.09046 18.7929 8.15014 18.747 8.20981C18.6506 8.31997 18.5679 8.42554 18.5037 8.54947C18.4669 8.61832 18.4532 8.6688 18.444 8.71011C18.6827 8.59536 18.9122 8.48066 19.1463 8.36132C19.7889 8.04002 20.3672 7.73247 20.9134 7.42493C21.4734 7.11281 22.1298 6.73639 22.7586 6.30034C23.0937 6.06625 23.5573 5.74956 23.7914 5.35023C23.8602 5.26761 24.3835 4.69386 24.7645 4.61583L24.8012 4.59746C25.0858 4.48729 25.3428 4.36795 25.5907 4.24861C25.7192 4.18435 25.8845 4.09717 26.0405 3.99619C26.1736 3.90439 26.2471 3.81716 26.3435 3.69323C26.4031 3.61061 26.4949 3.54637 26.5867 3.4867C26.6281 3.45457 26.6739 3.427 26.7061 3.39487C26.8392 3.28012 26.9539 3.16538 27.0457 3.0598C27.2156 2.87161 27.4267 2.58705 27.3487 2.33L27.3349 2.29784C27.3211 2.22899 27.289 2.21066 27.2569 2.21066H27.2661Z" fill="#575756"/>
<path d="M16.0486 12.2245L15.9522 12.1878C15.9155 12.174 15.842 12.1419 15.7732 11.9583C15.7319 11.8298 15.7319 11.6829 15.7732 11.5222C15.8879 11.0311 16.2414 10.6501 16.5535 10.3151C16.6361 10.2233 16.7187 10.136 16.7968 10.0488C17.1823 9.59898 17.6138 9.21346 17.9856 8.88757C18.059 8.8279 18.1325 8.76363 18.2059 8.70396L18.2518 8.67179L18.5364 8.53413C20.6891 7.47842 23.3238 6.00041 23.6772 5.30732C23.6772 5.30732 23.7002 5.27979 23.7094 5.26602L23.7736 5.19257C23.7736 5.19257 23.8103 5.15125 23.8333 5.1283L24.8615 4.0129L24.5769 4.57752C24.6182 4.55457 24.6595 4.54076 24.6962 4.53617L24.7329 4.51785C25.0175 4.40768 25.27 4.29293 25.5132 4.17359C25.6372 4.11392 25.8024 4.02669 25.9493 3.92571C26.0549 3.85227 26.1237 3.78343 26.2247 3.65032C26.2981 3.55393 26.4037 3.48049 26.4863 3.42082C26.523 3.38869 26.5689 3.36571 26.5965 3.33817C26.725 3.22801 26.8352 3.11787 26.927 3.0123L26.9545 2.98014C27.0922 2.82408 27.2483 2.64968 27.2345 2.48443L27.2162 2.22742L27.7578 1.98414C28.1801 1.78676 29.6443 0.978936 29.658 0.969756L29.6948 0.951378C30.5485 0.662205 31.4068 0.437311 32.2468 0.28125H32.2881C32.458 0.28125 32.7839 0.382193 32.8527 0.758576L32.8711 0.804465C32.9766 1.19462 32.8573 1.6215 32.5406 2.07591C32.3249 2.38345 32.054 2.67724 31.7098 2.96641C31.5675 3.08575 31.4114 3.21424 31.237 3.33817C31.1957 3.3703 31.1498 3.39788 31.1039 3.43001C31.0167 3.48509 30.9249 3.54017 30.8882 3.60443L30.8606 3.64113C30.8147 3.71457 30.7551 3.80179 30.677 3.87982C30.5072 4.04047 30.3144 4.14602 30.1308 4.25618L30.1033 4.26997C29.8508 4.41685 29.5708 4.54994 29.199 4.71519C28.7308 4.92174 28.2627 5.10535 27.8175 5.24765L27.7807 5.25683C27.3263 5.33028 26.5919 6.00961 26.3257 6.29419C25.1598 8.27708 16.4984 12.0271 16.1266 12.1878L16.0348 12.2245H16.0486ZM15.9614 11.7517L18.4813 9.08032C18.417 9.13081 18.3574 9.18587 18.2931 9.24096C17.9305 9.55308 17.5128 9.92489 17.1502 10.3472C17.0676 10.4436 16.9804 10.5308 16.8977 10.6272C16.6132 10.9347 16.3194 11.2468 16.2276 11.6232V11.637C19.3947 10.2554 25.1506 7.46462 25.9493 6.03252L25.986 5.98663C26.0916 5.88106 27.0096 4.92635 27.7073 4.79324C28.1341 4.64636 28.5794 4.47193 29.0292 4.27456C29.3826 4.1185 29.6489 3.98996 29.8921 3.85226L29.9197 3.83853C30.0895 3.74214 30.2501 3.65491 30.3787 3.53098C30.42 3.48967 30.4521 3.4392 30.4934 3.37953L30.521 3.34277C30.6174 3.20048 30.7551 3.10871 30.879 3.03068C30.9157 3.00314 30.957 2.98476 30.9846 2.95722C31.1498 2.83788 31.2967 2.72313 31.4298 2.60837C31.7465 2.34215 31.9898 2.07593 32.178 1.80512C32.4167 1.46545 32.5039 1.17168 32.4442 0.928405L32.4166 0.841221C32.4029 0.7586 32.3524 0.735659 32.3203 0.735659C31.517 0.88713 30.6954 1.10282 29.8784 1.37822C29.6994 1.4792 28.382 2.19988 27.9643 2.39725L27.7119 2.50741C27.7027 2.82871 27.4778 3.08571 27.3171 3.26931L27.2896 3.30147C27.184 3.42541 27.0555 3.54931 26.9086 3.67324C26.8673 3.70996 26.8122 3.75126 26.7572 3.78339C26.6929 3.8247 26.624 3.8798 26.5919 3.91652C26.4863 4.05422 26.3853 4.17819 26.2017 4.29753C26.0273 4.40769 25.8529 4.50407 25.7152 4.57292C25.4628 4.69685 25.1919 4.82075 24.8982 4.9355L24.8018 4.97225C24.6136 5.01357 24.2418 5.35782 24.0628 5.54601C23.5166 6.52828 20.1521 8.2541 18.72 8.95638L18.4584 9.08032H18.4721L15.9614 11.7517Z" fill="#575756"/>
<path d="M15.4345 14.0632C15.384 14.0632 15.3335 14.0495 15.2922 14.0265C15.205 13.9715 15.1729 13.8659 15.1867 13.7144C15.228 13.3564 15.3978 12.9984 15.7007 12.622C15.8384 12.4475 15.8476 12.3558 15.8614 12.2318C15.8706 12.14 15.8798 12.0437 15.9394 11.9105L15.9578 11.8738L16.5866 11.5892C18.5833 10.7033 25.1654 7.6739 26.0513 6.07657L26.0697 6.05366C26.1064 6.01234 27.0703 5.00711 27.7404 4.89236C28.1581 4.75007 28.6125 4.57105 29.0715 4.36909C29.4295 4.21303 29.6958 4.07995 29.9436 3.94225L29.9666 3.92847C30.1364 3.83207 30.3108 3.7357 30.4485 3.60259C30.5036 3.5521 30.5403 3.49701 30.5816 3.42357L30.6046 3.38682C30.6872 3.26748 30.8157 3.18487 30.9259 3.11143C30.9626 3.08389 31.0085 3.06091 31.0406 3.03337C31.2151 2.90944 31.3619 2.79015 31.495 2.67999C31.8164 2.40918 32.0688 2.13834 32.2662 1.85376C32.5049 1.51869 32.6013 1.21577 32.5645 0.958725L32.4865 0.779707L32.6105 0.742951C33.2806 0.550169 33.9553 0.389556 34.6209 0.265625C34.7999 0.265625 35.1028 0.366606 35.1579 0.724629L35.1809 0.779707C35.3782 1.53706 34.7815 2.2577 34.3087 2.73507C34.0884 2.96457 33.836 3.18487 33.5652 3.4006C33.4366 3.50617 33.3081 3.59798 33.175 3.69437C33.1383 3.71732 33.1062 3.74028 33.0695 3.76323C32.9868 3.80913 32.9042 3.8642 32.8721 3.92387C32.6747 4.25894 32.3947 4.44714 32.0963 4.62157C31.8255 4.78681 31.5272 4.93826 31.1279 5.11727C30.6138 5.35136 30.0676 5.57167 29.4525 5.79199L29.2964 5.84707C28.5987 5.96182 27.5614 7.02215 27.4467 7.14149C27.0244 7.88508 26.2119 8.42208 25.4959 8.89027L25.3352 8.99588C24.1143 9.80373 22.8337 10.4968 21.7458 11.0659C20.6213 11.6535 19.4187 12.2456 18.0646 12.879C17.6194 13.0856 17.1787 13.2921 16.7289 13.4941C16.4994 13.5997 16.2699 13.7007 16.0404 13.8062C16.0083 13.82 15.9716 13.843 15.9257 13.8705C15.765 13.9623 15.5814 14.0632 15.4254 14.0632H15.4437H15.4345ZM16.1368 12.0528C16.1047 12.1262 16.1001 12.1905 16.0955 12.2594C16.0817 12.3925 16.068 12.544 15.8844 12.7735C15.6135 13.104 15.4575 13.4344 15.4208 13.742C15.4116 13.8154 15.4208 13.8337 15.4208 13.8337C15.4804 13.8567 15.7329 13.7144 15.8155 13.6639C15.8706 13.6318 15.9211 13.6088 15.9532 13.5905C16.1827 13.4849 16.4122 13.3885 16.6371 13.283C17.0823 13.081 17.5276 12.8791 17.9682 12.6679C19.3177 12.0391 20.5157 11.4423 21.6403 10.8594C22.7281 10.2948 23.9995 9.60634 25.2113 8.80308L25.372 8.69752C26.0696 8.23852 26.8637 7.71982 27.2493 7.01296L27.2676 6.98998C27.3135 6.93949 28.4473 5.75068 29.2414 5.61757L29.379 5.57168C29.9849 5.35595 30.5311 5.13565 31.0406 4.90615C31.4308 4.72713 31.7246 4.58023 31.9908 4.41958C32.257 4.25892 32.514 4.0937 32.6839 3.80453C32.7481 3.69895 32.8629 3.62551 32.9639 3.56583C33.0006 3.54288 33.0281 3.52911 33.0603 3.50616C33.1888 3.41436 33.3173 3.31797 33.4458 3.21699C33.7074 3.01044 33.9553 2.79015 34.171 2.56983C34.5979 2.13378 35.1487 1.47739 34.9881 0.83938L34.9651 0.770518C34.9238 0.504296 34.6989 0.490532 34.6714 0.490532C34.0701 0.605283 33.4458 0.752142 32.8216 0.926563C32.8675 1.24787 32.7527 1.60133 32.4819 1.98689C32.2708 2.28524 32.0091 2.56978 31.6695 2.85895C31.5318 2.9737 31.3803 3.09766 31.2059 3.22618C31.1692 3.25831 31.1187 3.28129 31.0774 3.31342C30.9764 3.37309 30.88 3.43733 30.8295 3.51995L30.8065 3.55665C30.7606 3.63009 30.7102 3.70811 30.6321 3.77696C30.4715 3.92843 30.2879 4.03401 30.1043 4.13499L30.0813 4.14878C29.8335 4.29107 29.5535 4.42875 29.1909 4.5894C28.7273 4.79137 28.2637 4.97498 27.823 5.12186C27.2401 5.22285 26.368 6.10413 26.2716 6.2097C25.3169 7.87588 18.7118 10.9191 16.7014 11.8095L16.1552 12.0574H16.1414L16.1368 12.0528Z" fill="#575756"/>
<path d="M15.9454 18.3978C15.748 18.3978 15.1421 18.3657 14.8024 17.9985C14.6326 17.8195 14.5546 17.5762 14.5775 17.3008L14.4766 16.9061L14.8484 16.9886C14.9998 17.0254 15.1421 17.0208 15.1421 17.0208C17.1066 16.7546 19.0941 16.2772 21.0357 15.6116C22.4265 15.1343 23.7576 14.5697 24.9877 13.9363C25.254 13.7986 25.5064 13.6654 25.7451 13.5323C25.791 13.5048 25.8415 13.4819 25.892 13.4497C26.0572 13.3579 26.227 13.2707 26.3647 13.156C26.4703 13.0688 26.5621 12.954 26.6631 12.8347C26.732 12.7429 26.8054 12.6557 26.8834 12.5776C27.2873 12.1553 27.7923 11.7836 28.4211 11.4531C28.7286 11.2878 29.0453 11.1409 29.3804 11.017C30.124 10.737 30.6335 10.4892 31.1476 10.177C31.2394 10.122 31.3266 10.0577 31.423 9.98884C31.5882 9.8695 31.758 9.741 31.9462 9.66296C33.6537 8.91479 35.3842 8.24922 37.0962 7.69842C37.2202 7.6617 37.3441 7.61579 37.468 7.57448C37.7848 7.4689 38.1061 7.35415 38.4457 7.28071C38.7578 7.21645 39.07 7.2073 39.3775 7.19812C39.5198 7.19812 39.6667 7.18892 39.809 7.17974C40.8142 7.11089 41.7827 6.95942 42.6869 6.72533C43.2974 6.56927 43.7839 6.39488 44.1971 6.18374C44.4816 6.03686 44.7387 5.84404 45.0141 5.63749C45.239 5.46766 45.4731 5.29327 45.7209 5.14638C46.0652 4.94442 46.4186 4.68735 46.8042 4.36604C47.791 3.53525 48.3419 2.68608 48.4428 1.83233L48.3923 1.60283L48.631 1.55694C49.0166 1.4835 49.728 1.65794 49.8657 1.69007C50.288 1.79564 50.7011 1.92875 51.0178 2.02973C51.3896 2.14907 51.6558 2.23167 51.9909 2.24085C52.3352 2.25003 52.863 2.26843 53.166 2.73202C53.345 3.00283 53.345 3.29201 53.3404 3.53987C53.1293 8.49711 46.6344 8.88264 46.2626 8.89641C40.3093 9.85573 37.0136 11.0629 36.9861 11.0767C36.0268 11.4531 35.0307 11.8708 33.9383 12.3527C33.5619 12.518 33.1947 12.6878 32.8183 12.8576C32.7587 12.8852 32.699 12.9127 32.6393 12.9403C32.5338 12.9862 32.4236 13.0366 32.318 13.0871C32.1574 13.1743 28.2329 15.3271 27.269 15.4786C27.191 15.4923 26.7182 15.6392 26.3051 15.7769L26.2729 15.7861C25.2126 15.988 24.6114 16.1349 23.675 16.5434C23.4776 16.6169 19.0299 18.2922 16.0005 18.4207H15.9454V18.3978ZM15.0457 17.4798C15.0595 17.5578 15.087 17.6267 15.1421 17.6817C15.3486 17.9067 15.826 17.9342 15.9775 17.9296C18.9289 17.8103 23.4501 16.1028 23.496 16.0844C24.4599 15.6621 25.0795 15.5061 26.1674 15.2995C26.3923 15.2261 27.0532 15.0103 27.1909 14.9874C27.9253 14.8726 30.9777 13.2524 32.0931 12.6419C32.2079 12.5822 32.3272 12.5363 32.4374 12.4813C32.4925 12.4537 32.5521 12.4307 32.6118 12.4032C32.9882 12.2288 33.36 12.0635 33.7363 11.8937C34.8334 11.4072 35.834 10.9895 36.8071 10.6085C36.8438 10.5947 40.1762 9.3692 46.1937 8.4007H46.2258C46.2901 8.4007 52.6702 8.1345 52.8676 3.48479C52.8768 3.25529 52.8676 3.09462 52.7712 2.95233C52.6106 2.70906 52.3398 2.68612 51.9726 2.67235C51.5732 2.65858 51.2611 2.56677 50.8664 2.43825C50.5588 2.33727 50.1549 2.20876 49.7464 2.10778C49.4664 2.03893 49.1267 1.97924 48.8926 1.97006C48.7412 2.90184 48.1445 3.81987 47.1071 4.69197C46.7078 5.02705 46.3314 5.29782 45.9642 5.51355C45.7347 5.64666 45.5236 5.80732 45.2986 5.97715C45.0186 6.18829 44.7341 6.40404 44.4128 6.56928C43.9629 6.80338 43.4534 6.9824 42.8063 7.15223C41.8699 7.3955 40.8739 7.54698 39.8411 7.61583C39.6896 7.62501 39.5427 7.62956 39.3913 7.63415C39.0929 7.64333 38.8129 7.64793 38.5421 7.70301C38.23 7.76727 37.9362 7.87283 37.6241 7.9784C37.5002 8.01971 37.3717 8.06563 37.2431 8.10694C35.5494 8.65315 33.8327 9.30953 32.139 10.0577C32.0013 10.1174 31.8498 10.2321 31.703 10.3331C31.602 10.4065 31.501 10.4846 31.3954 10.5443C30.7207 10.9528 30.0827 11.219 29.5502 11.4255C29.2381 11.5403 28.9352 11.678 28.6506 11.834C28.0631 12.1462 27.6041 12.4858 27.2323 12.8714C27.1634 12.9448 27.1038 13.0229 27.0395 13.1009C26.9339 13.2386 26.8192 13.3763 26.6723 13.4956C26.4979 13.6333 26.3097 13.7389 26.1306 13.8353C26.0847 13.8628 26.0343 13.8858 25.9884 13.9133C25.7405 14.051 25.488 14.1842 25.2172 14.3265C23.9642 14.9691 22.6147 15.5428 21.2009 16.0293C19.2318 16.7041 17.2122 17.1906 15.1972 17.4614H15.0549L15.0457 17.4798Z" fill="#575756"/>
<path d="M25.3842 15.9196L26.674 15.176L32.1224 12.6561C32.2279 12.6056 32.3381 12.5505 32.4528 12.5046L32.6273 12.4266C33.0036 12.2522 33.3754 12.087 33.7518 11.9171C34.8351 11.4398 35.8357 11.0174 36.8226 10.6319C36.8593 10.6181 40.1916 9.39261 46.2046 8.42411C46.2964 8.42411 52.6949 8.15783 52.8923 3.49436C52.9015 3.26026 52.8923 3.09964 52.7913 2.95276L52.571 2.62229H52.9703C53.8699 2.51672 54.6686 3.06291 55.0863 4.08649C55.3617 4.76581 55.3434 5.2937 55.0175 5.83991C54.866 6.21171 54.0168 6.73035 53.847 6.83592L53.7965 6.85889C53.2778 7.01036 52.5434 7.88704 52.2956 8.21752C51.1526 9.48437 47.6504 9.76897 47.5081 9.77815C46.3101 9.97093 41.7293 10.4667 41.5319 10.4896C39.8979 10.7237 36.9327 12.0548 36.9006 12.0686C36.7491 12.1695 32.5171 14.8134 28.6293 15.3596H28.3677C27.8444 15.4239 27.3166 15.5065 26.8163 15.5983L25.375 15.9288H25.3842V15.9196ZM53.2916 3.03995C53.3283 3.20519 53.3283 3.36126 53.3237 3.51273C53.108 8.58013 46.3147 8.85095 46.2459 8.85554C40.3018 9.81027 37.0107 11.022 36.9786 11.0358C36.0055 11.4214 35.0049 11.8391 33.9308 12.3119C33.5545 12.4771 33.1827 12.6469 32.8109 12.8167L32.6318 12.8994C32.5263 12.9453 32.4161 12.9958 32.3105 13.0462L28.2162 14.9419C28.2575 14.9419 28.308 14.9281 28.3493 14.9236H28.6064C32.3748 14.3911 36.6619 11.706 36.7078 11.683C36.8593 11.6142 39.7877 10.3014 41.4906 10.0581C41.5457 10.0581 46.2643 9.53943 47.4669 9.34665C47.5173 9.34665 50.9599 9.06669 51.9743 7.94213C52.0569 7.82738 52.9152 6.69364 53.6542 6.45037C54.0765 6.19792 54.5676 5.82153 54.6365 5.64711C54.9027 5.18811 54.9165 4.80252 54.687 4.24713C54.5401 3.88452 54.1224 3.09962 53.287 3.03995H53.2962H53.2916Z" fill="#575756"/>
<path d="M20.4901 17.4455C20.4901 16.913 20.4028 16.4173 20.2376 15.9721C20.0678 15.5223 19.8245 15.1321 19.5124 14.8062C19.2002 14.4803 18.8239 14.2233 18.3878 14.0443C17.9518 13.8653 17.4652 13.7734 16.942 13.7734C16.4187 13.7734 15.9321 13.8653 15.4961 14.0443C15.06 14.2233 14.6837 14.4803 14.3761 14.8062C14.064 15.1321 13.8253 15.5223 13.6509 15.9721C13.4811 16.4219 13.3984 16.9176 13.3984 17.4455C13.3984 17.9733 13.4856 18.4737 13.6509 18.9189C13.8207 19.3687 14.064 19.7588 14.3761 20.0847C14.6882 20.406 15.0646 20.6631 15.4961 20.8421C15.9321 21.0211 16.4141 21.1083 16.942 21.1083C17.121 21.1083 17.2954 21.0946 17.4698 21.0716C17.1164 20.7182 16.7629 20.3648 16.4049 20.0067C16.2534 19.9746 16.1066 19.9333 15.9735 19.8782C15.6843 19.7635 15.441 19.589 15.2345 19.3687C15.0325 19.1484 14.8719 18.873 14.7617 18.5517C14.6515 18.2304 14.5919 17.854 14.5919 17.4455C14.5919 17.037 14.6469 16.6606 14.7617 16.3347C14.8719 16.0134 15.0325 15.7334 15.2345 15.5177C15.4364 15.2974 15.6843 15.1275 15.9735 15.0036C16.2626 14.8797 16.5885 14.8246 16.942 14.8246C17.2954 14.8246 17.6259 14.8843 17.915 15.0036C18.1996 15.1229 18.4475 15.2974 18.6494 15.5177C18.8514 15.7426 19.0121 16.018 19.1176 16.3347C19.2278 16.6606 19.2875 17.0324 19.2875 17.4455C19.2875 17.8586 19.2324 18.2304 19.1176 18.5517C19.0717 18.6894 19.0121 18.8133 18.9478 18.9372C19.1957 19.2907 19.618 19.2861 19.8704 19.6165C20.0127 19.4008 20.132 19.1668 20.233 18.9143C20.4028 18.4645 20.4855 17.9687 20.4855 17.4409L20.4901 17.4455Z" fill="#575756"/>
<path d="M20.3492 15.9284C20.1702 15.4693 19.9224 15.0608 19.6011 14.7258C19.2797 14.3907 18.8896 14.1244 18.4352 13.9362C17.9854 13.7526 17.4851 13.6562 16.9434 13.6562C16.4018 13.6562 15.9061 13.7526 15.4563 13.9362C15.0064 14.1198 14.6163 14.3907 14.295 14.7258C13.9737 15.0608 13.7212 15.4693 13.5468 15.9284C13.3724 16.3874 13.2852 16.8968 13.2852 17.4476C13.2852 17.9984 13.3724 18.5034 13.5468 18.967C13.7258 19.426 13.9737 19.8345 14.295 20.1695C14.6163 20.5046 15.0064 20.7708 15.4608 20.9544C15.9107 21.138 16.411 21.2298 16.948 21.2298C17.2097 21.2298 17.4621 21.2069 17.7008 21.1655C17.6457 21.0967 17.5906 21.0187 17.5218 20.9544C17.3382 20.982 17.1454 20.9957 16.948 20.9957C16.4339 20.9957 15.9703 20.9085 15.5526 20.7387C15.1304 20.5643 14.7723 20.3256 14.4694 20.0089C14.1665 19.6922 13.9369 19.3204 13.7717 18.8843C13.6065 18.4483 13.5238 17.9709 13.5238 17.4476C13.5238 16.9244 13.6065 16.447 13.7717 16.0109C13.9369 15.5749 14.1665 15.1985 14.4694 14.8864C14.7723 14.5697 15.1304 14.3264 15.5526 14.1474C15.9749 13.973 16.4385 13.8858 16.948 13.8858C17.4575 13.8858 17.9257 13.973 18.348 14.1474C18.7703 14.3218 19.1329 14.5651 19.4358 14.8864C19.7388 15.2031 19.9683 15.5749 20.1335 16.0109C20.2988 16.447 20.3814 16.9244 20.3814 17.4476C20.3814 17.9709 20.2988 18.4483 20.1335 18.8843C20.0371 19.1368 19.9178 19.3663 19.7755 19.5774C19.826 19.6187 19.9132 19.6554 19.9774 19.6922C20.1243 19.4672 20.2482 19.2286 20.3492 18.967C20.5237 18.508 20.6109 17.9984 20.6109 17.4476C20.6109 16.8968 20.5237 16.3919 20.3492 15.9284Z" fill="#575756"/>
<path d="M19.2364 16.2959C19.1217 15.9562 18.9564 15.6716 18.7407 15.4329C18.525 15.1988 18.2679 15.0199 17.965 14.8913C17.6574 14.7674 17.3224 14.7031 16.946 14.7031C16.5696 14.7031 16.2345 14.7674 15.9316 14.8913C15.6287 15.0153 15.367 15.1988 15.1513 15.4329C14.9356 15.667 14.7703 15.9562 14.6556 16.2959C14.5408 16.6355 14.4766 17.0211 14.4766 17.448C14.4766 17.8748 14.5362 18.2604 14.6556 18.5955C14.7749 18.9305 14.9356 19.2197 15.1513 19.4538C15.367 19.6879 15.6241 19.8669 15.9316 19.9909C16.1152 20.0689 16.3172 20.1148 16.5283 20.1469C16.4686 20.0505 16.3447 19.9541 16.2758 19.8577C16.1886 19.8348 16.1014 19.8073 16.028 19.7751C15.7572 19.665 15.5231 19.5043 15.3349 19.2978C15.1421 19.0866 14.9906 18.8296 14.8851 18.5221C14.7795 18.2099 14.7198 17.8473 14.7198 17.448C14.7198 17.0486 14.7749 16.686 14.8851 16.3739C14.9906 16.0664 15.1375 15.8048 15.3349 15.5936C15.5231 15.3871 15.7618 15.2218 16.028 15.1116C16.3034 15.0015 16.6155 14.9372 16.9552 14.9372C17.2948 14.9372 17.6116 14.9923 17.887 15.1116C18.1578 15.2218 18.3919 15.3871 18.5801 15.5936C18.7682 15.8048 18.9197 16.0664 19.0299 16.3739C19.1354 16.6906 19.1951 17.0486 19.1951 17.448C19.1951 17.8473 19.14 18.2054 19.0299 18.5221C19.0023 18.5955 18.9794 18.6597 18.9473 18.7286C19.0207 18.747 19.0941 18.7883 19.1538 18.8388C19.1905 18.7607 19.2226 18.6781 19.2502 18.5955C19.3649 18.2604 19.4292 17.8748 19.4292 17.448C19.4292 17.0211 19.3695 16.6355 19.2502 16.2959H19.241H19.2364Z" fill="#575756"/>
</svg>
