<svg width="95" height="9" viewBox="0 0 95 9" fill="none" xmlns="http://www.w3.org/2000/svg">
<path d="M41.372 0.178702C41.9366 0.091491 42.4873 0.164943 43.0565 0.132812C43.5935 0.743287 44.0526 1.40886 44.5483 2.04228C45.044 2.67571 45.526 3.32291 46.0446 3.99764C46.9718 2.69407 47.8806 1.41804 48.7849 0.151191H50.3914C50.5566 0.284302 50.5153 0.449538 50.5153 0.6056C50.5153 1.86786 50.5153 3.13012 50.5153 4.39238C50.5153 5.43891 50.5153 6.48083 50.5153 7.52735V8.16078C50.1068 8.29848 49.6983 8.31687 48.7941 8.24343C48.638 8.12868 48.6885 7.95881 48.6885 7.80734C48.6885 6.36607 48.6885 4.92943 48.6839 3.48816C48.6839 3.378 48.7206 3.25406 48.5737 3.13471C47.8807 4.10321 47.1921 5.0579 46.499 6.02181H45.5948C44.8099 5.07626 44.0985 4.07564 43.2401 3.04288C43.1713 3.4468 43.2034 3.71764 43.1942 3.98386C43.1896 4.25926 43.1942 4.53469 43.1942 4.81009C43.1942 5.10385 43.1942 5.40217 43.1942 5.69593C43.1942 5.97134 43.1942 6.24676 43.1942 6.52216C43.1942 6.79757 43.1942 7.07293 43.1942 7.34834C43.1942 7.62374 43.1942 7.89456 43.1896 8.16538C42.8775 8.33062 42.5792 8.26175 42.29 8.26634C41.9962 8.27093 41.7025 8.30307 41.3857 8.21586C41.3674 8.11947 41.3398 8.02768 41.3398 7.93587C41.3398 5.45266 41.3398 2.96487 41.3398 0.48166C41.3398 0.385269 41.3582 0.293448 41.372 0.174107V0.178702Z" fill="#575756"/>
<path d="M75.818 0.191213C75.9144 0.172853 75.9878 0.145324 76.0658 0.145324C76.557 0.145324 77.0481 0.145324 77.4933 0.145324C77.6815 0.305976 77.6356 0.475825 77.6356 0.622706C77.6356 2.14201 77.6219 3.66128 77.6173 5.18058C77.6173 5.21271 77.6448 5.24942 77.6586 5.28155C77.6769 5.29073 77.6953 5.30452 77.7137 5.30452C77.732 5.30452 77.755 5.29532 77.7641 5.28155C77.8192 5.22647 77.8743 5.1668 77.9248 5.11172C79.2972 3.50521 80.6651 1.90329 82.0375 0.296775C82.065 0.269235 82.0971 0.241731 82.1247 0.218781C82.1385 0.20501 82.1568 0.195819 82.2119 0.149919C82.7765 0.154509 83.3778 0.108588 84.0066 0.186619C84.0249 0.30596 84.0479 0.397781 84.0479 0.494172C84.0479 3.05541 84.08 5.61665 84.0479 8.17789C83.7358 8.34772 83.4374 8.27886 83.1483 8.27886C82.8591 8.27886 82.5607 8.33397 82.2394 8.20086C82.2073 6.44747 82.2486 4.69865 82.2211 2.96361C82.1155 2.89476 82.0558 2.92227 82.0007 2.99112C80.61 4.62977 79.2192 6.26845 77.8284 7.90709C77.7274 8.02643 77.6127 8.13657 77.4796 8.27886C76.9517 8.27427 76.4055 8.32019 75.8317 8.24216C75.8134 8.11364 75.7812 8.00347 75.7812 7.88871C75.7812 5.46059 75.7812 3.03705 75.7812 0.608923C75.7812 0.475811 75.8042 0.342689 75.8226 0.195808L75.818 0.191213Z" fill="#575756"/>
<path d="M25.5262 5.50864C25.517 6.45419 25.5124 7.33087 25.5032 8.24428C24.8836 8.34526 24.3052 8.29476 23.6902 8.28558C23.6672 8.14788 23.6351 8.0377 23.6351 7.92754C23.6305 7.33543 23.6351 6.74332 23.6351 6.15579C23.6351 5.96301 23.6167 5.77022 23.6075 5.57285C23.3321 5.44892 23.0751 5.47187 22.8272 5.46269C22.203 5.43974 21.62 5.27911 21.083 4.96699C20.4863 4.61815 20.0411 4.13158 19.8391 3.45226C19.5178 2.36442 19.8712 1.09301 21.0692 0.500894C21.4961 0.289752 21.9551 0.165803 22.4279 0.138263C22.8777 0.115312 23.3321 0.101562 23.7866 0.101562C24.7321 0.101562 25.6776 0.110718 26.6232 0.133668C27.1006 0.142848 27.5504 0.28054 27.991 0.468732C29.5241 1.1297 29.7169 3.02543 28.9962 4.07655C28.7254 4.47129 28.3858 4.79715 27.9543 5.01747C27.4586 5.27911 26.9307 5.42597 26.3753 5.4581C26.1229 5.47187 25.8704 5.48569 25.5308 5.50864H25.5262ZM23.5525 1.55203C23.0659 1.48777 22.6299 1.54284 22.2213 1.76775C21.4135 2.21298 21.4319 3.40637 22.0745 3.86537C22.5243 4.18667 23.0338 4.24174 23.5616 4.14076C23.658 3.60373 23.658 2.07983 23.5525 1.55657V1.55203ZM25.5813 4.16373C26.0081 4.21881 26.3937 4.18207 26.7609 4.02601C27.6835 3.64045 27.6881 2.40574 27.1006 1.9146C26.7104 1.58871 26.1183 1.46023 25.5675 1.60711C25.494 2.13037 25.4986 3.63129 25.5813 4.16373Z" fill="#575756"/>
<path d="M13.2957 8.41803C12.4328 8.4318 11.6754 8.30324 10.9686 7.97735C9.50434 7.30262 8.72863 6.13217 8.63682 4.54401C8.51289 2.37293 9.85318 0.642511 11.9921 0.155967C13.1121 -0.0964848 14.2275 -0.0506158 15.3107 0.353307C16.8943 0.940832 17.7572 2.09296 17.9179 3.76373C17.9913 4.53945 17.8903 5.30141 17.5599 6.01745C17.1468 6.92169 16.4491 7.54133 15.5632 7.95444C14.8196 8.30328 14.0301 8.45934 13.2911 8.41803H13.2957ZM10.606 4.0896C10.5968 4.91122 10.7574 5.57221 11.2256 6.12302C11.9508 6.98135 12.9056 7.18329 13.9567 6.96297C14.9022 6.7656 15.5081 6.16431 15.8065 5.24171C15.9488 4.80106 15.9901 4.35128 15.9442 3.90145C15.8615 3.08443 15.5632 2.37296 14.8701 1.88183C13.2131 0.715956 10.9502 1.67528 10.6427 3.66736C10.6151 3.84178 10.6151 4.02075 10.6105 4.08501L10.606 4.0896Z" fill="#575756"/>
<path d="M64.114 0.166193C64.752 0.129473 65.3166 0.111065 65.9179 0.175326C65.927 0.391058 65.9454 0.583862 65.9454 0.772053C65.9454 1.4422 65.9454 2.11235 65.9454 2.78249C65.9454 2.95691 65.9637 3.13133 65.9775 3.29657C66.0693 3.3287 66.1244 3.36084 66.1795 3.36084C67.3408 3.36543 68.5066 3.37003 69.6679 3.37003C69.7643 3.37003 69.8607 3.34704 69.9846 3.32868C70.003 3.18639 70.0351 3.05327 70.0351 2.92475C70.0397 2.2133 70.0351 1.50648 70.0397 0.795026C70.0397 0.602244 70.0535 0.409467 70.0627 0.225866C70.5125 0.111115 71.3065 0.101912 71.8436 0.202893C71.8619 0.253383 71.8987 0.303858 71.8987 0.358939C71.8987 2.96149 71.8987 5.55944 71.8987 8.14822C71.5223 8.29969 70.8889 8.32266 70.0994 8.22167C70.081 8.10233 70.0443 7.97384 70.0443 7.84532C70.0397 7.07419 70.0443 6.30764 70.0397 5.53651C70.0397 5.34373 70.0259 5.15097 70.0167 4.92606C69.879 4.90311 69.7689 4.87098 69.6587 4.87098C68.5525 4.87098 67.4509 4.87098 66.3447 4.87098C66.2483 4.87098 66.1519 4.88471 66.0739 4.8893C65.9178 5.027 65.95 5.19224 65.9454 5.34371C65.9454 6.09189 65.9454 6.84008 65.9454 7.59284C65.9454 7.78562 65.9362 7.98301 65.927 8.18038C65.6241 8.33644 65.3257 8.26757 65.0366 8.27216C64.7474 8.27216 64.449 8.32265 64.1507 8.21708C64.1369 8.12987 64.1094 8.05642 64.1094 7.97839C64.1094 5.39879 64.1094 2.81464 64.1094 0.166193H64.114Z" fill="#575756"/>
<path d="M94.3518 0.190816C94.3656 0.356057 94.3839 0.530472 94.3885 0.700303C94.4436 4.8038 94.4161 7.7231 94.3151 8.19587C93.8515 8.30603 93.0391 8.30602 92.5433 8.18668C92.4745 7.19982 92.5663 6.19918 92.4882 5.18937C92.0935 5.03331 91.7722 5.10217 91.5289 5.42347C91.2581 5.78608 91.0011 6.1579 90.7486 6.53887C90.4411 6.99788 90.1381 7.46143 89.8536 7.93421C89.7067 8.17748 89.5323 8.29683 89.2339 8.28765C88.706 8.2647 88.1736 8.28305 87.6274 8.28305C87.6274 8.18666 87.6044 8.11784 87.6274 8.08112C88.247 7.14475 88.8667 6.2038 89.4955 5.27661C89.647 5.0517 89.8398 4.84974 90.0096 4.64319C90.0096 4.47335 89.8581 4.47335 89.7755 4.40449C89.546 4.2163 89.2982 4.05102 89.0916 3.84447C88.1461 2.88056 88.4628 1.24656 89.546 0.626903C90.0739 0.328551 90.6476 0.177066 91.2397 0.154116C92.2037 0.121986 93.1722 0.135738 94.1407 0.135738C94.1957 0.135738 94.2508 0.163276 94.3472 0.190816H94.3518ZM92.4332 1.56323C91.9925 1.53569 91.584 1.49899 91.1847 1.63669C90.7807 1.7698 90.4962 2.03145 90.4181 2.45373C90.3309 2.91273 90.5008 3.30288 90.8725 3.59205C91.0791 3.7527 91.3132 3.86744 91.5702 3.87203C91.8732 3.88121 92.1945 3.95922 92.4745 3.78939C92.5525 3.11924 92.5341 2.03601 92.4332 1.56323Z" fill="#575756"/>
<path d="M7.25872 8.2778H5.0096C4.00898 7.2175 3.09097 6.03327 2.07657 4.95462C1.92051 4.99593 1.94805 5.11069 1.94805 5.1979C1.94805 6.00575 1.94805 6.81361 1.94805 7.62145C1.94805 7.81424 1.92969 8.007 1.92051 8.2365C1.29627 8.35125 0.699559 8.26863 0.116624 8.29158C0.00187305 7.75455 -0.0302583 4.2799 0.0294121 0.672131C0.0294121 0.49771 0.0523632 0.32789 0.0661333 0.167238C0.575627 0.0708475 1.37889 0.0708386 1.87002 0.158049C2.00313 0.410501 1.92969 0.695088 1.94346 0.9659C1.95723 1.22294 1.94346 1.47995 1.94346 1.737C1.94346 2.0124 1.93887 2.28782 1.94346 2.56322C1.95264 2.81109 1.90215 3.06355 1.99395 3.37567C2.14542 3.21961 2.25558 3.11861 2.35197 3.00844C3.06802 2.19601 3.78407 1.37901 4.49552 0.566569C4.57355 0.479359 4.65158 0.387522 4.72961 0.300311C4.826 0.19474 4.94075 0.130487 5.09222 0.135077C5.69811 0.135077 6.30859 0.135077 6.96955 0.135077C6.86857 0.419659 6.67579 0.561972 6.52891 0.731804C6.36366 0.929175 6.19383 1.11737 6.01941 1.31015C5.85876 1.48457 5.69811 1.65441 5.53746 1.82883C5.36303 2.01702 5.1978 2.2098 5.02337 2.40258C4.86272 2.57701 4.70207 2.75138 4.54142 2.9258C4.367 3.11399 4.19717 3.30223 4.02734 3.49501C3.87128 3.66944 3.72439 3.84843 3.54997 4.05039C4.7342 5.46871 6.00105 6.78604 7.24954 8.28239L7.25872 8.2778Z" fill="#575756"/>
<path d="M54.7537 8.26027C54.1387 8.28322 53.5925 8.30616 53.0554 8.24649C52.9407 8.08125 53.0462 7.9619 53.0967 7.84256C53.9229 5.90557 54.7537 3.96396 55.58 2.02696C55.7865 1.53583 55.9931 1.04931 56.2042 0.558175C56.2639 0.415884 56.3373 0.278158 56.4062 0.131277C56.8743 0.0578366 57.3196 0.0945816 57.7969 0.0991716C58.1045 0.613256 58.2972 1.17324 58.5451 1.70109C58.7976 2.23812 59.0225 2.77976 59.2658 3.32139C59.5044 3.86301 59.7523 4.4 59.991 4.94163C60.2297 5.48325 60.4683 6.0203 60.707 6.56192C60.9457 7.09437 61.2119 7.61766 61.4047 8.2006C61.189 8.30158 60.9916 8.26941 60.8034 8.274C60.5877 8.27859 60.3719 8.274 60.1516 8.274C59.9543 8.274 59.7569 8.274 59.5641 8.274C59.2612 7.9986 59.2015 7.61307 59.0362 7.28259C58.8802 6.96588 58.7471 6.63996 58.6094 6.33702C58.1596 6.24522 56.3098 6.22688 55.5891 6.30491C55.3229 6.92916 55.0429 7.57176 54.7537 8.25108V8.26027ZM57.0717 2.44467C56.8698 2.95876 56.7045 3.33975 56.576 3.72531C56.4475 4.10629 56.2088 4.45512 56.1996 4.91871C56.4245 4.9233 56.6173 4.9279 56.8101 4.93249C57.0074 4.93249 57.2048 4.94167 57.4022 4.93249C57.5858 4.92331 57.7924 4.99211 57.9805 4.82228C57.6868 4.06493 57.4527 3.29843 57.0717 2.44927V2.44467Z" fill="#575756"/>
<path d="M37.478 1.46651C37.0924 1.4711 36.739 1.4803 36.3902 1.48489C36.0551 1.48489 35.72 1.48489 35.3849 1.48489C35.0361 1.48948 34.6827 1.45274 34.3017 1.53077C34.3017 1.77864 34.2925 1.99436 34.2925 2.21009C34.2925 2.58188 34.2925 2.95367 34.2971 3.28874C34.4623 3.45857 34.6276 3.42647 34.7836 3.43106C35.5135 3.43106 36.2433 3.43106 36.9731 3.43106C37.1246 3.43106 37.276 3.44939 37.4596 3.46316C37.5193 3.89922 37.5009 4.30775 37.4688 4.74839C37.3311 4.77135 37.2026 4.81267 37.0741 4.81726C36.3626 4.82185 35.6557 4.81726 34.9443 4.81726C34.7515 4.81726 34.5587 4.83099 34.3751 4.84017C34.2696 5.28541 34.2558 6.18046 34.343 6.84142C34.4807 6.85978 34.6322 6.89191 34.779 6.89191C35.6466 6.8965 36.5141 6.89191 37.3816 6.89191C37.556 6.89191 37.7259 6.91029 37.8865 6.91947C37.9921 7.43356 37.9921 7.75025 37.8865 8.21843C37.4137 8.30564 32.9798 8.31024 32.4427 8.21843C32.3555 7.56665 32.4152 6.90112 32.406 6.24016C32.3968 5.55165 32.406 4.85855 32.406 4.17005C32.406 3.4999 32.406 2.82975 32.406 2.15961C32.4106 1.49405 32.3831 0.828485 32.4244 0.13998C33.0624 0.029819 33.6729 0.103266 34.2742 0.0894962C34.8663 0.0757261 35.4584 0.0849062 36.0459 0.0894962C36.6564 0.0894962 37.2623 0.0757396 37.914 0.10328C37.8498 0.589824 37.6708 0.989139 37.4688 1.46191L37.478 1.46651Z" fill="#575756"/>
</svg>
