<svg width="75" height="27" viewBox="0 0 75 27" fill="none" xmlns="http://www.w3.org/2000/svg">
<path d="M43.8062 22.6677C43.6042 22.7917 43.4573 22.8881 43.3059 22.9845C42.241 23.6684 41.1761 24.3523 40.102 25.027C39.8312 25.1969 39.542 25.3254 39.2115 25.3851C38.982 25.4264 38.7571 25.5319 38.5184 25.4906C38.0365 25.4126 37.5545 25.3208 37.2654 24.8618C37.1322 24.6506 37.0221 24.4349 37.0221 24.1733C37.0221 23.9943 36.9624 23.8198 36.9211 23.5857C36.7696 23.6821 36.6778 23.7464 36.5769 23.7969C35.7093 24.2422 34.8326 24.669 33.9789 25.1326C33.4281 25.4309 32.8406 25.4264 32.276 25.3392C31.8124 25.2703 31.3718 25.0362 31.0229 24.692C30.8577 24.5267 30.7888 24.3294 30.775 24.0815C30.7567 23.7097 30.8806 23.3884 31.0091 23.0579C31.1468 22.7044 31.2938 22.3465 31.4498 21.9609C31.381 21.9701 31.335 21.9609 31.3075 21.9838C30.3252 22.6173 29.2925 23.1543 28.2322 23.6408C27.8512 23.8152 27.4335 23.9438 27.0158 23.8566C26.6073 23.774 26.1988 23.6546 25.8408 23.3333C25.6618 23.5261 25.4919 23.7143 25.3129 23.9025C24.8218 24.4212 24.3536 24.9674 23.8303 25.4493C23.4218 25.8257 22.9123 26.069 22.3248 26.0277C21.8383 25.9955 21.4068 25.8028 21.0121 25.5182C20.8284 25.3851 20.654 25.2336 20.4934 25.0775C20.1858 24.7792 20.1399 24.4762 20.3144 24.0815C20.6586 23.3104 21.0488 22.5622 21.4986 21.8462C21.7419 21.4606 21.9851 21.0796 22.2284 20.6941C22.2376 20.6803 22.2284 20.6527 22.2238 20.5839C22.1412 20.6252 22.0632 20.6481 22.0035 20.6895C21.5674 20.9878 21.1314 21.2862 20.6953 21.5937C20.475 21.7497 20.2639 21.9196 20.0436 22.0757C19.9059 22.1766 19.7636 22.2776 19.6075 22.3465C19.5203 22.3878 19.4055 22.3648 19.3 22.3694C19.2265 22.1032 19.378 21.9655 19.5249 21.8416C19.8829 21.5432 20.2318 21.2265 20.6173 20.974C21.3196 20.515 21.9668 20.001 22.591 19.441C22.8251 19.2298 23.05 19.0141 23.2612 18.7846C24.0048 17.9767 24.6473 17.0955 25.2165 16.1545C25.4781 15.723 25.8086 15.3283 26.1162 14.9243C26.4696 14.4608 26.8276 13.9972 27.1948 13.5381C27.3968 13.2857 27.6034 13.0332 27.8237 12.7946C28.4571 12.1106 29.0859 11.4222 29.7469 10.7658C30.059 10.4537 30.4354 10.2104 30.7796 9.93498C30.9586 9.79269 31.1331 9.65043 31.3121 9.51273C32.1475 8.87931 32.9737 8.22752 33.8274 7.61704C34.3461 7.24525 34.8786 6.88719 35.5258 6.77244C35.5533 6.76785 35.5716 6.73572 35.5992 6.71277C35.5395 6.58883 35.434 6.63018 35.3422 6.63018C34.4655 6.63018 33.5842 6.63937 32.7075 6.64396C32.6662 6.64396 32.6203 6.64855 32.5789 6.64396C32.2347 6.56593 31.8904 6.48789 31.5508 6.40986C31.3305 6.35937 31.1101 6.3043 30.8944 6.24463C30.6052 6.1666 30.316 6.07937 30.0269 6.00134C29.779 5.93708 29.5311 5.88659 29.2833 5.82232C28.8885 5.72134 28.4938 5.61115 28.1037 5.50558C27.8329 5.43214 27.5666 5.35871 27.2958 5.28527C26.9975 5.20265 26.7037 5.11089 26.4007 5.03745C26.1437 4.97319 25.8775 4.93183 25.6158 4.87675C25.4185 4.83085 25.2211 4.78038 25.0237 4.7253C24.5877 4.60596 24.1562 4.47283 23.7202 4.36726C23.2658 4.25251 22.8022 4.16534 22.3477 4.06436C22.1595 4.02305 21.9714 3.96794 21.7832 3.91745C21.3288 3.79352 20.8789 3.62367 20.4154 3.55941C20.0344 3.50892 19.6764 3.35286 19.2724 3.38499C18.7538 3.4263 18.2305 3.36665 17.7118 3.40796C17.239 3.44468 16.7754 3.53188 16.2981 3.5686C15.8528 3.60532 15.4122 3.72468 14.9716 3.81648C14.7696 3.85779 14.5722 3.90826 14.3748 3.96793C13.1723 4.32136 12.0064 4.76204 10.9736 5.48726C10.4366 5.86364 9.9776 6.32722 9.65171 6.90097C9.335 7.45637 9.01368 8.00719 8.75205 8.58554C8.39862 9.37961 8.18747 10.2196 8.28845 11.1009C8.3114 11.2891 8.39404 11.4726 8.47666 11.6471C8.59141 11.8903 8.55929 12.1015 8.42618 12.3218C8.22422 12.6523 7.88913 12.7854 7.54947 12.8772C7.3016 12.9461 6.97571 12.6936 6.91604 12.432C6.77834 11.8353 6.75998 11.2294 6.86096 10.6235C6.8885 10.4628 6.8931 10.2976 6.92523 10.1416C6.99408 9.82026 7.05834 9.48974 7.15932 9.17761C7.28784 8.78287 7.42554 8.38357 7.60914 8.00719C7.89831 7.41048 8.27929 6.87802 8.7337 6.38689C9.72515 5.322 10.9094 4.54628 12.2313 3.96793C12.8142 3.71548 13.4064 3.47681 14.0076 3.28862C14.4575 3.14632 14.9303 3.08205 15.3939 2.99025C15.8024 2.90763 16.2155 2.82959 16.624 2.74697C16.6791 2.73779 16.7295 2.72864 16.7846 2.72405C17.5557 2.7011 18.3223 2.65978 19.0934 2.65978C19.7957 2.65978 20.498 2.7011 21.2048 2.72864C21.2874 2.72864 21.3747 2.76077 21.4573 2.78372C21.5215 2.80208 21.5812 2.83422 21.6409 2.8434C22.0769 2.89389 22.5176 2.93517 22.9536 2.99025C23.2841 3.03156 23.6146 3.09581 23.9451 3.15089C24.1471 3.18302 24.349 3.21974 24.5464 3.26564C24.8677 3.33908 25.189 3.4263 25.5057 3.50433C25.5286 3.50892 25.547 3.51812 25.5654 3.52271C25.8821 3.5732 26.1988 3.61449 26.5155 3.67416C26.7909 3.72465 27.0617 3.78433 27.3325 3.84859C27.6171 3.91285 27.8925 4.0001 28.1771 4.05977C28.4801 4.11944 28.7922 4.15613 29.0951 4.20662C29.1686 4.22039 29.2374 4.24794 29.3108 4.27548C29.3613 4.29384 29.4072 4.33057 29.4577 4.33975C29.7744 4.39483 30.0912 4.44072 30.4079 4.4958C30.6741 4.5417 30.9357 4.59676 31.1973 4.65184C31.638 4.74364 32.0924 4.80334 32.5239 4.90891C33.3776 5.11546 34.2267 4.97776 35.0759 5.01907C35.2549 5.02825 35.4339 4.96396 35.613 4.93183C35.6543 4.92265 35.6956 4.89972 35.7369 4.89513C36.1408 4.84464 36.5493 4.80794 36.9533 4.74368C37.2837 4.6886 37.6051 4.60593 37.9309 4.5279C38.2109 4.46364 38.5001 4.41777 38.7709 4.32597C39.1473 4.20204 39.5191 4.05054 39.8817 3.89448C40.6115 3.58235 41.3046 3.2014 41.9289 2.71027C42.5301 2.2329 43.1544 1.7785 43.5858 1.11754C43.7327 0.892625 43.8934 0.653955 44.1045 0.497893C44.4442 0.245441 44.793 -0.0483524 45.2704 0.00672802C45.3806 0.0204981 45.5045 0.0572229 45.5917 0.126073C45.7432 0.245414 45.8946 0.378532 46.0094 0.534593C46.2251 0.828356 46.1838 1.15425 46.0369 1.4572C45.734 2.10439 45.2887 2.64602 44.7655 3.12338C43.8612 3.94959 42.8468 4.60598 41.7269 5.08793C41.1669 5.3312 40.5794 5.5148 39.9965 5.71217C39.5834 5.84987 39.1611 5.97837 38.7388 6.08853C38.468 6.15738 38.188 6.18955 37.9126 6.24463C37.5637 6.31807 37.2241 6.40069 36.8752 6.46954C36.6962 6.50167 36.508 6.50625 36.329 6.52461C36.2051 6.53838 36.0811 6.54755 35.9067 6.56591C35.9802 6.65312 36.0077 6.71737 36.0444 6.72655C36.3152 6.77704 36.4713 6.97903 36.6319 7.16264C36.7742 7.32788 36.9211 7.36455 37.1185 7.28652C37.2378 7.24062 37.3663 7.22229 37.4903 7.19934C37.7519 7.14885 38.0181 7.10751 38.2843 7.05702C38.601 6.99276 38.9132 6.91474 39.2299 6.8413C39.2529 6.83671 39.2712 6.82751 39.2942 6.82292C39.7302 6.76784 40.1709 6.66228 40.6069 6.66228C41.2587 6.66228 41.9013 6.57052 42.5485 6.52921C43.1957 6.4879 43.8475 6.49246 44.4901 6.6118C44.7655 6.66229 45.0547 6.63014 45.3347 6.65309C45.5045 6.66686 45.6743 6.7082 45.8442 6.73574C45.9084 6.74951 45.9681 6.77244 46.0323 6.77703C46.8172 6.82293 47.5516 7.06161 48.2906 7.29111C48.9745 7.50226 49.6263 7.78687 50.2506 8.12653C51.2145 8.65898 52.0131 9.38877 52.6466 10.2792C53.0505 10.8438 53.3397 11.4819 53.5325 12.1474C53.6335 12.4917 53.7482 12.8497 53.6931 13.2261C53.6793 13.3087 53.7023 13.4004 53.7206 13.4831C53.7849 13.7631 53.7849 14.0385 53.7206 14.3185C53.6885 14.4516 53.6931 14.5985 53.6885 14.7362C53.6793 15.007 53.6885 15.2686 53.5876 15.5349C53.4958 15.7689 53.4819 16.0351 53.436 16.2922C53.3397 16.8108 53.1561 17.3066 52.9541 17.7931C52.5915 18.6698 52.1187 19.4823 51.522 20.2121C50.884 20.9878 50.2368 21.7635 49.4381 22.3923C49.0113 22.7274 48.6303 23.1176 48.2126 23.4618C47.7628 23.8336 47.2992 24.1962 46.8218 24.5313C46.372 24.848 45.89 25.1188 45.4265 25.4172C45.0271 25.6696 44.5865 25.7201 44.1504 25.6192C43.6868 25.509 43.3288 25.2061 43.1498 24.7654C43.081 24.5956 43.1131 24.3477 43.1819 24.1687C43.3518 23.728 43.5721 23.3058 43.7695 22.8743C43.7878 22.833 43.7832 22.7779 43.8016 22.6631L43.8062 22.6677ZM47.6756 22.195C47.8133 22.0803 47.9464 21.9746 48.0657 21.8599C48.231 21.7038 48.3825 21.534 48.5431 21.3734C49.328 20.5977 50.0807 19.7898 50.6774 18.8489C51.4072 17.6968 51.9948 16.5033 52.0774 15.108C52.0774 15.0345 52.1141 14.9611 52.1325 14.8876C52.2518 14.4608 52.2243 14.0293 52.1555 13.5978C52.1233 13.3959 52.0958 13.1939 52.0682 12.992C52.059 12.9047 52.0683 12.8175 52.0499 12.7349C51.9719 12.4319 51.8984 12.129 51.802 11.8353C51.5817 11.1605 51.2696 10.5409 50.8014 9.99925C50.246 9.35205 49.5575 8.90221 48.7909 8.54878C48.0565 8.21371 47.2854 7.97044 46.5097 7.75012C46.2802 7.68586 46.0507 7.62162 45.8166 7.59867C45.3897 7.55736 44.9766 7.39212 44.5406 7.42884C44.4809 7.43343 44.4167 7.38753 44.357 7.36916C44.2744 7.3508 44.1871 7.32328 44.1045 7.32328C43.3334 7.30492 42.5668 7.27739 41.7957 7.27739C41.3092 7.27739 40.8181 7.27279 40.3361 7.33247C39.9873 7.37378 39.643 7.47013 39.285 7.47013C39.2437 7.47013 39.207 7.50225 39.1656 7.51143C39.0417 7.53897 38.9178 7.57112 38.7939 7.59407C38.7113 7.61243 38.624 7.61241 38.5368 7.63077C38.2339 7.70421 37.9355 7.79143 37.6326 7.86487C37.1782 7.97044 36.788 8.14486 36.5723 8.61305C36.4529 8.87468 36.2556 9.1042 36.0674 9.32452C35.6818 9.77894 35.2779 10.215 34.8786 10.6602C34.2497 11.3625 33.6392 12.0831 32.9783 12.7579C31.9868 13.7631 30.9678 14.7316 29.9443 15.7047C29.623 16.0076 29.265 16.2738 28.9161 16.5492C28.5214 16.8659 28.1174 17.178 27.7181 17.4948C27.2591 17.8574 26.8001 18.2154 26.3411 18.5781C26.1299 18.7433 25.9142 18.9131 25.7031 19.0784C25.3955 19.317 25.0834 19.5511 24.785 19.8036C24.6106 19.9504 24.4362 20.1065 24.3123 20.2947C23.5917 21.3872 22.8894 22.4933 22.1779 23.5949C22.0356 23.8198 21.9392 24.0539 21.9805 24.3293C22.0264 24.6231 22.1779 24.8343 22.4395 24.9949C22.6736 25.1418 22.8664 25.0913 23.0776 24.9674C23.1326 24.9352 23.1923 24.9031 23.2428 24.8664C23.8579 24.4487 24.326 23.8703 24.8447 23.3516C24.9273 23.269 24.9549 23.1222 24.9687 22.9983C25.0146 22.6724 24.8539 22.3877 24.7529 22.0986C24.6152 21.713 24.6795 21.3734 24.9595 21.0796C25.189 20.8363 25.4414 20.6206 25.7444 20.4554C26.0703 20.2809 26.364 20.3039 26.6532 20.5058C26.9011 20.6803 26.9883 20.9694 26.9057 21.3091C26.8827 21.4009 26.8873 21.5019 26.8689 21.5983C26.8414 21.7543 26.823 21.9196 26.7725 22.0665C26.6027 22.5301 26.722 22.8422 27.1627 23.0946C27.3463 23.2002 27.5345 23.2415 27.7227 23.1818C28.0165 23.0854 28.3056 22.9615 28.5856 22.833C29.4347 22.452 30.1371 21.8507 30.8715 21.2999C31.4865 20.8409 32.1061 20.3819 32.7258 19.9275C33.116 19.6383 33.5107 19.3492 33.9101 19.0738C34.2819 18.8167 34.6674 18.578 35.053 18.3394C35.1127 18.3026 35.2136 18.2843 35.2687 18.3072C35.5303 18.422 35.8195 18.4908 36.0261 18.7249C36.2923 19.0279 36.3061 19.2252 36.0261 19.5098C35.1723 20.3865 34.2405 21.1898 33.5016 22.1766C33.2399 22.5209 32.9415 22.8376 32.6661 23.1681C32.5973 23.2507 32.5376 23.3425 32.4871 23.4389C32.377 23.65 32.3724 23.8887 32.4596 24.0998C32.634 24.5175 33.1252 24.692 33.552 24.5221C33.7586 24.4395 33.9697 24.3477 34.1763 24.2651C34.8051 24.0218 35.3927 23.6959 35.9251 23.292C36.6366 22.7549 37.2654 22.117 37.8391 21.4422C38.5735 20.5747 39.4319 19.8495 40.2627 19.0875C40.4187 18.9453 40.639 18.8121 40.8823 18.8856C41.1118 18.959 41.3138 19.0875 41.4607 19.2849C41.603 19.4731 41.6718 19.6797 41.5295 19.8862C41.4102 20.0606 41.2587 20.2166 41.1026 20.3635C40.9328 20.5288 40.7309 20.6619 40.5656 20.8317C40.1755 21.2356 39.7807 21.6396 39.4227 22.0757C39.0555 22.5255 38.7342 23.0166 38.3854 23.4848C38.2247 23.6959 38.2247 23.9346 38.2522 24.1687C38.2844 24.4395 38.4679 24.6369 38.6883 24.7883C38.7387 24.8251 38.8444 24.8251 38.904 24.7975C39.2391 24.6552 39.5879 24.5313 39.9046 24.3477C40.7813 23.8336 41.6443 23.292 42.5118 22.7596C43.1865 22.3465 43.8521 21.9196 44.5222 21.5065C45.0547 21.176 45.5917 20.8501 46.1379 20.538C46.5786 20.2855 47.0192 20.2626 47.4369 20.6068C47.6389 20.7721 47.7811 20.9694 47.7628 21.2448C47.7444 21.5524 47.7077 21.8599 47.6802 22.2041L47.6756 22.195ZM35.8149 8.4983C35.691 8.52125 35.6038 8.52124 35.5258 8.55337C35.0759 8.73239 34.6215 8.90225 34.1809 9.09962C33.2445 9.5219 32.4137 10.1094 31.6885 10.8255C30.8806 11.6241 30.0452 12.3953 29.3384 13.2949C28.7003 14.1119 28.0027 14.8831 27.3601 15.7001C26.7771 16.4391 26.2401 17.2102 25.6801 17.9675C25.6526 18.0043 25.6434 18.0594 25.625 18.1053C25.8178 18.0318 25.9693 17.9262 26.1208 17.8115C26.566 17.4856 27.0158 17.1689 27.4519 16.8292C27.7915 16.563 28.1128 16.2739 28.4433 15.9939C28.9712 15.544 29.522 15.1217 30.0177 14.6398C31.1744 13.5152 32.3219 12.3769 33.4419 11.2156C34.2451 10.3802 35.0025 9.50354 35.7736 8.64061C35.792 8.62225 35.792 8.58092 35.8104 8.4983H35.8149ZM46.7943 22.1995C46.7943 22.1995 46.8035 22.1995 46.8081 22.1995C46.8081 21.993 46.8172 21.7865 46.8081 21.5845C46.7989 21.4422 46.8448 21.2311 46.6703 21.1898C46.551 21.1622 46.3766 21.254 46.271 21.3412C45.6789 21.8507 45.1281 22.4015 44.816 23.1359C44.7563 23.2736 44.7104 23.4205 44.6875 23.5674C44.6324 23.953 44.9399 24.233 45.3071 24.1136C45.7523 23.9667 46.1609 23.7418 46.4776 23.393C46.6796 23.1681 46.8494 22.9202 46.7989 22.5851C46.7805 22.4566 46.7989 22.3281 46.7989 22.195L46.7943 22.1995Z" fill="#575756"/>
<path d="M58.4011 21.9565C58.5204 21.9565 58.5847 21.9749 58.6352 21.9565C59.4476 21.649 60.1912 21.2221 60.8843 20.6943C61.3387 20.3454 61.8253 20.0425 62.2934 19.712C62.9406 19.2576 63.5786 18.794 64.2304 18.3488C64.4508 18.1973 64.7032 18.0871 64.9465 17.9723C65.2494 17.8301 65.6029 18.0274 65.6396 18.3625C65.6671 18.6195 65.6671 18.8628 65.4881 19.1015C65.2081 19.4687 64.9694 19.8726 64.7124 20.2628C64.5793 20.4693 64.6344 20.5841 64.8776 20.6116C65.1117 20.6392 65.3229 20.607 65.5065 20.4326C65.8232 20.1342 66.1583 19.8588 66.4796 19.5697C67.0074 19.0877 67.5261 18.5966 68.0677 18.1284C68.3706 17.8668 68.7058 17.6419 69.0362 17.417C69.3438 17.2104 69.6742 17.371 69.7339 17.7382C69.7935 18.1238 69.6926 18.4543 69.4631 18.771C69.0637 19.3356 68.5542 19.79 68.0769 20.2766C67.6087 20.7585 67.1268 21.2313 66.6494 21.6995C66.3464 21.9932 66.2179 22.3283 66.3005 22.7506C66.3373 22.9388 66.3556 23.1224 66.4337 23.306C66.5714 23.6227 66.8422 23.7375 67.1176 23.8568C67.1818 23.8843 67.2736 23.8798 67.3425 23.8568C68.6506 23.4253 69.9588 22.9939 71.1568 22.2962C71.8958 21.8693 72.621 21.4149 73.36 20.9834C73.5436 20.8779 73.7181 20.7264 73.9522 20.7585C74.021 20.7677 74.0852 20.7998 74.1541 20.8227C74.1265 20.9008 74.122 21.0018 74.0715 21.0477C73.8833 21.2129 73.6859 21.3644 73.484 21.5067C72.4512 22.2457 71.3909 22.9296 70.2296 23.4437C69.509 23.7604 68.7929 24.0863 68.0677 24.38C67.7418 24.5131 67.393 24.5958 67.0487 24.6601C66.8789 24.6922 66.6861 24.6508 66.5117 24.6141C65.8324 24.4718 65.5019 23.9578 65.2265 23.3886C65.0521 23.0306 64.8914 22.6679 64.8088 22.2732C64.7629 22.0529 64.616 21.8876 64.359 21.8739C64.2488 21.8693 64.1433 21.8509 64.0377 21.8372C63.8036 21.8005 63.6154 21.8785 63.4456 22.0391C62.9544 22.4981 62.4587 22.9525 61.9768 23.4207C61.0771 24.2974 60.1866 25.1879 59.2915 26.0692C59.0483 26.3124 58.7729 26.4731 58.4057 26.4731C57.9283 26.4731 57.405 25.7203 57.7493 25.2751C57.887 25.0961 58.0063 24.8987 58.144 24.7197C58.6535 24.0725 59.1998 23.4574 59.9021 23.003C60.687 22.4935 61.4122 21.9152 62.0639 21.245C62.5229 20.7723 62.9636 20.2765 63.4089 19.79C63.441 19.7533 63.4547 19.7028 63.5052 19.6064C63.3997 19.634 63.34 19.6386 63.2941 19.6707C62.7387 20.0471 62.1833 20.4234 61.6325 20.8044C61.1689 21.1257 60.7237 21.4654 60.2509 21.7729C59.9296 21.9795 59.5853 22.1493 59.2136 22.2732C58.8785 22.388 58.5618 22.3788 58.2313 22.3834C58.066 22.3834 57.9513 22.4339 57.8365 22.5532C57.3316 23.0719 56.8313 23.6044 56.2897 24.0863C55.8307 24.4948 55.3258 24.8528 54.8209 25.2062C54.4766 25.4449 54.1002 25.6377 53.7284 25.8351C53.2694 26.0784 52.76 26.1151 52.2734 26.0233C51.6216 25.8994 51.1397 25.4862 50.9056 24.8528C50.823 24.6279 50.823 24.3617 50.8321 24.1138C50.8551 23.4024 51.0984 22.7598 51.5252 22.1952C52.0393 21.5113 52.558 20.832 53.2235 20.2811C53.6642 19.9185 54.0911 19.5238 54.5638 19.2025C55.1055 18.8307 55.6792 18.491 56.2621 18.1927C56.8451 17.8943 57.4556 17.6511 58.0614 17.4078C58.2772 17.3206 58.5159 17.2793 58.75 17.2425C59.1585 17.1783 59.5165 17.3114 59.824 17.5776C60.1086 17.8209 60.3427 18.0917 60.4069 18.4864C60.4528 18.7802 60.4299 19.0602 60.2876 19.3035C59.9938 19.8038 59.6771 20.2949 59.342 20.7723C59.0666 21.167 58.7546 21.5388 58.4149 21.9748L58.4011 21.9565ZM52.3836 24.0633C52.4432 24.3204 52.4937 24.5636 52.558 24.8023C52.5809 24.8941 52.6314 24.9859 52.6911 25.0594C52.7737 25.165 52.8838 25.2475 53.0307 25.1879C53.3474 25.0502 53.6779 24.94 53.9671 24.7564C54.4445 24.4581 54.8943 24.123 55.3487 23.7925C55.7159 23.5263 56.0831 23.2555 56.4228 22.9571C57.2536 22.2135 58.0523 21.4286 58.7362 20.5428C59.0529 20.1342 59.3512 19.712 59.5715 19.2346C59.6725 19.0235 59.6312 18.8628 59.5394 18.693C59.365 18.3671 59.0162 18.2018 58.7041 18.3074C58.5251 18.3671 58.346 18.4497 58.1808 18.5415C57.3225 19.0326 56.5192 19.6018 55.7893 20.2674C54.752 21.2083 53.7881 22.2182 52.8747 23.2785C52.7416 23.4345 52.6268 23.6089 52.5166 23.7788C52.457 23.866 52.4295 23.9715 52.3882 24.0587L52.3836 24.0633Z" fill="#575756"/>
<path d="M1.06751 24.3851C1.09964 24.61 1.08589 24.8211 1.23277 25.0139C1.34752 25.1608 1.47143 25.2664 1.6688 25.2343C1.99929 25.1792 2.33437 25.1471 2.65108 25.0507C3.39925 24.8212 4.06022 24.3989 4.71659 23.9812C5.16642 23.6966 5.60706 23.4075 6.03853 23.0999C6.52048 22.7511 7.00244 22.3977 7.45227 22.0167C8.01225 21.5393 8.56764 21.0528 9.08172 20.5249C10.041 19.5381 10.9682 18.519 11.9046 17.5138C12.561 16.807 13.2173 16.1001 13.8599 15.3794C14.3052 14.8791 14.7321 14.3605 15.1681 13.851C15.5215 13.4425 15.8888 13.0385 16.233 12.6254C16.614 12.171 16.9812 11.6982 17.3621 11.2438C17.9084 10.5874 18.4684 9.9403 19.0192 9.28852C19.1247 9.16459 19.2349 9.04523 19.345 8.92589C19.3955 8.87081 19.4368 8.80196 19.4965 8.75606C19.8958 8.40721 20.107 8.3521 20.5752 8.72389C20.7955 8.89832 20.9837 9.10489 21.0892 9.38029C21.1581 9.55931 21.1765 9.71535 21.0801 9.876C20.8552 10.257 20.6532 10.6563 20.3916 11.0098C20.0106 11.5239 19.5929 12.0058 19.1844 12.4969C18.5143 13.3048 17.8533 14.1218 17.1602 14.9067C16.5543 15.5998 15.9117 16.2607 15.2783 16.9309C14.7045 17.5368 14.1308 18.1427 13.5295 18.721C12.3774 19.8364 11.2345 20.9609 10.0411 22.0304C8.56765 23.3523 6.90144 24.3989 5.0792 25.1838C4.55593 25.4087 4.01433 25.5831 3.46812 25.7484C3.18354 25.8356 2.87141 25.8356 2.57765 25.909C2.22881 25.9962 1.91209 25.9182 1.59538 25.7897C1.31538 25.6795 1.01704 25.6244 0.741636 25.5005C0.278042 25.294 -0.0937543 24.7753 0.0209966 24.2153C0.103617 23.8297 0.232128 23.4488 0.383599 23.0861C0.695722 22.3517 1.20522 21.7688 1.85242 21.3052C2.55469 20.8049 3.2432 21.0436 3.60122 21.6586C3.67466 21.7826 3.70219 21.9478 3.70678 22.0901C3.71137 22.3242 3.50942 22.4711 3.31204 22.3517C3.04123 22.1911 2.76125 22.237 2.49044 22.2599C2.32979 22.2737 2.15994 22.4068 2.0406 22.5354C1.67798 22.9117 1.36129 23.3248 1.19604 23.8297C1.13637 24.0087 1.10882 24.2015 1.06751 24.3897V24.3851Z" fill="#575756"/>
</svg>
