<svg width="96" height="18" viewBox="0 0 96 18" fill="none" xmlns="http://www.w3.org/2000/svg">
<path d="M72.3661 16.4609C72.3661 16.4609 72.3569 16.4609 72.3523 16.4609C71.6408 16.4517 71.2553 16.0891 70.8881 15.7448C70.8422 15.6989 70.7917 15.6531 70.7412 15.6072C70.6081 15.4878 70.4842 15.3593 70.3694 15.2353C70.1307 14.9875 69.9012 14.7534 69.6533 14.6295C69.5202 14.7029 69.2815 14.8819 69.1163 15.0104C68.5334 15.4603 67.9275 15.9239 67.3445 15.6714C66.9223 15.4878 66.6285 15.1573 66.3944 14.8865C66.3302 14.8131 66.2476 14.7213 66.1787 14.6524C66.1558 14.758 66.142 14.9049 66.1328 15.0058C66.0869 15.4557 65.9951 16.3966 65.0358 16.4196C64.5447 16.4287 64.1178 16.1717 63.8286 15.6898C63.0713 14.4321 63.2365 11.5725 63.7644 10.6269C64.0581 10.0991 64.6778 9.99814 65.1276 9.9247C65.2423 9.90633 65.4075 9.87878 65.5039 9.85124C65.4856 9.71813 65.38 9.43816 65.1368 9.12603C64.8614 8.76801 64.6181 8.63026 64.5446 8.62108C64.2738 8.62108 63.8791 8.51093 63.5211 8.00144C62.6444 6.75295 62.3644 3.45273 62.8372 2.16293C63.007 1.69474 63.8883 0.877698 64.5951 0.652786C65.0587 0.505905 65.3663 0.620685 65.5453 0.740026C66.142 1.14854 65.8344 1.93345 65.5131 2.75965C65.3708 3.12686 65.1046 3.80159 65.1551 4.01732C65.2423 4.0724 65.3158 4.08155 65.4213 4.04024C65.7289 3.9163 66.0731 3.44816 66.1466 3.04883C66.1879 2.82851 66.1787 2.56686 66.1741 2.28687C66.1558 1.57541 66.1328 0.694116 66.936 0.157082C67.1885 -0.0127494 67.5052 -0.0448617 67.8265 0.0607091C68.3222 0.22595 68.7537 0.689522 68.974 1.3C69.2081 1.95178 69.4009 2.0298 69.4238 2.03439C69.5661 2.08029 69.9333 1.81868 70.1766 1.64884C70.6907 1.28623 71.3976 0.790518 72.1136 1.2587C72.4992 1.50656 72.7195 1.81409 72.7746 2.16752C72.8618 2.7321 72.4762 3.1957 72.2238 3.50324C72.1549 3.58586 72.0815 3.67765 72.0539 3.71896C71.728 4.2973 71.8015 4.35235 72.1641 4.6048C72.4395 4.79758 72.8572 5.08677 72.9077 5.65134C72.9352 5.9497 72.8342 6.21133 72.6323 6.39493C72.1457 6.8218 71.2691 6.63361 70.4245 6.45001C70.195 6.39952 69.8875 6.33525 69.7911 6.33525C68.7904 6.41329 68.0055 6.50509 67.2436 6.62443C66.702 6.71164 66.4679 7.12935 66.4541 7.27623C66.4816 7.32213 66.5138 7.38641 66.5551 7.45985C67.037 8.3595 67.3032 8.78634 67.4501 8.98372C67.5649 8.93781 67.7072 8.86898 67.8173 8.82308C68.5563 8.488 69.1989 8.19426 69.6304 8.55228C69.7727 8.66703 69.915 8.87816 70.2271 9.34635C70.4291 9.6447 70.8559 10.2873 71.2048 10.6866C71.1543 10.48 71.09 10.2552 71.035 10.0761C70.755 9.10306 70.4658 8.09786 70.9477 7.51493C71.1038 7.32214 71.4113 7.1064 71.9576 7.15689C72.7975 7.23492 72.9811 8.07488 73.1051 8.63027C73.1326 8.75879 73.1785 8.9562 73.2198 9.07096C73.4677 8.96997 73.7476 8.74046 74.0001 8.5385C74.4362 8.18506 74.8447 7.84997 75.3266 7.94177C75.3725 7.95095 76.4879 8.16672 76.7404 8.78178C76.9974 9.40603 76.8689 9.88796 76.3548 10.2506C75.9096 10.5627 75.3404 10.8473 74.964 11.0309L74.8355 11.0951C74.8034 11.2007 74.785 11.4348 74.7758 11.5863C74.7437 12.0086 74.7116 12.4446 74.4132 12.7292C74.2526 12.8807 74.0368 12.9358 73.4355 13.0735C73.2795 13.1102 73.0454 13.1606 72.8251 13.2203C72.8572 13.2341 72.8939 13.2478 72.926 13.2662C73.3988 13.4682 73.9359 13.7023 74.2526 14.2623C74.5968 14.8727 74.4086 15.7219 73.8349 16.1167C73.4677 16.3691 72.6553 16.4747 72.3707 16.4747M69.6579 13.5692C69.7406 13.5692 69.8232 13.5829 69.9058 13.615C70.4199 13.8032 70.7871 14.1842 71.1084 14.5147C71.2186 14.6295 71.3287 14.7396 71.4343 14.8406C71.4894 14.8911 71.5398 14.9416 71.5949 14.9875C71.9346 15.3088 72.0677 15.419 72.3661 15.4236C72.5956 15.419 73.1234 15.3226 73.2473 15.2491C73.3758 15.1619 73.431 14.9094 73.3438 14.7626C73.1969 14.5055 72.8801 14.3678 72.5083 14.2072C72.2329 14.0878 71.9254 13.9547 71.65 13.7528C71.2828 13.482 71.3058 13.1515 71.3333 13.0276C71.4481 12.4814 72.1182 12.3023 73.1968 12.059C73.3575 12.0223 73.5641 11.9764 73.688 11.9397C73.711 11.8296 73.7293 11.6322 73.7385 11.5082C73.7752 11.0355 73.8165 10.4479 74.3077 10.2001L74.5005 10.1037C74.8677 9.92011 75.3726 9.67224 75.7535 9.40142C75.7948 9.37388 75.8132 9.35553 75.8269 9.34635C75.8269 9.32799 75.8178 9.28667 75.7948 9.22241C75.703 9.14897 75.4276 9.02501 75.1706 8.96993C75.0604 9.01583 74.8171 9.21323 74.6519 9.34635C74.3031 9.63093 73.9083 9.95223 73.4493 10.0899C73.1051 10.1955 72.8526 10.1129 72.7011 10.0257C72.2972 9.79157 72.1917 9.31418 72.0907 8.85518C72.0494 8.65781 71.9575 8.25391 71.8657 8.18965C71.7969 8.18506 71.7602 8.18965 71.7372 8.18965C71.6363 8.43751 71.8979 9.34633 72.0264 9.79157C72.3064 10.7692 72.5313 11.5404 71.9759 11.9214C71.8015 12.0407 71.5903 12.082 71.3746 12.0407C70.7412 11.9168 70.1123 11.0493 69.3642 9.92929C69.254 9.76405 69.1255 9.57125 69.0383 9.45191C68.8317 9.50699 68.46 9.6768 68.2396 9.77319C67.8174 9.96597 67.5695 10.0762 67.3491 10.0853C67.06 10.1037 66.8442 9.97976 66.4265 9.33716C66.5826 9.76862 66.5734 10.145 66.399 10.4296C66.1603 10.8152 65.7013 10.8886 65.2928 10.9575C65.1046 10.9896 64.7145 11.0538 64.664 11.1456C64.3243 11.7561 64.1407 14.2301 64.7099 15.1711C64.8476 15.4052 64.9623 15.4006 65.0036 15.4006H65.0128C65.0541 15.3134 65.0816 15.0701 65.0954 14.9187C65.1413 14.4826 65.1964 13.8859 65.7426 13.6426C66.4036 13.3489 66.8626 13.8721 67.1655 14.2164C67.3354 14.4092 67.5098 14.6111 67.7026 14.7121C67.877 14.6662 68.2626 14.3678 68.4783 14.2026C68.9052 13.8767 69.2816 13.5829 69.6579 13.5829M64.5446 7.58373C65.0633 7.58373 65.5407 7.98767 65.8804 8.40077C65.8023 8.26307 65.7243 8.11161 65.6371 7.95096C65.5866 7.85916 65.5499 7.78574 65.5269 7.74443C65.3663 7.45985 65.3754 7.07426 65.5636 6.6887C65.839 6.11494 66.4082 5.70643 67.0783 5.60086C67.8678 5.47693 68.6803 5.38053 69.7084 5.3025C69.9242 5.28414 70.1904 5.33923 70.6402 5.43563C70.934 5.49989 71.4848 5.61924 71.7923 5.61924C71.7418 5.57334 71.6684 5.52285 71.572 5.454C71.1497 5.16024 70.3602 4.61402 71.1497 3.21406C71.2231 3.08554 71.3195 2.97076 71.4251 2.84224C71.5353 2.70913 71.7693 2.42914 71.751 2.32357C71.751 2.30062 71.7005 2.22721 71.549 2.12623C71.4159 2.03902 71.0579 2.29143 70.7688 2.4934C70.3097 2.8147 69.736 3.21863 69.1072 3.02126C68.6298 2.86979 68.2809 2.43374 67.9964 1.64884C67.8495 1.24033 67.5878 1.05674 67.4823 1.03379C67.2115 1.23576 67.1885 1.58456 67.2069 2.2547C67.2161 2.57142 67.2206 2.90189 67.1655 3.2232C67.0508 3.8658 66.5321 4.70583 65.8023 4.995C65.3525 5.17401 64.8935 5.10975 64.5125 4.82517C63.8011 4.29273 64.2004 3.2737 64.5492 2.37405C64.6319 2.16291 64.742 1.87837 64.8063 1.67182C64.4758 1.82788 63.9388 2.25015 63.8102 2.51637C63.4706 3.45274 63.6725 6.17922 64.3013 7.28083C64.4299 7.51033 64.5309 7.57001 64.5538 7.5746" fill="#575756"/>
<path d="M24.9805 0.760612C24.9805 0.677991 25.0585 0.622911 25.1365 0.645861C26.2427 1.02224 31.4294 3.05564 31.3835 8.05878C31.3376 13.0298 26.2565 15.5268 25.1457 16.0134C25.0631 15.9583 25.0631 15.9582 24.9805 15.9031V0.756017V0.760612Z" fill="#575756"/>
<path d="M80.861 15.0461L95.3839 15.3215C95.4298 15.3215 95.4573 15.2756 95.4389 15.2389L88.3565 0.968483C88.3335 0.927172 88.2739 0.927172 88.2509 0.968483L80.8105 14.9589C80.7921 14.9956 80.8197 15.0461 80.861 15.0461ZM89.8758 11.8927C88.9991 12.8291 87.5257 12.8796 86.5893 12.0029C85.653 11.1262 85.6025 9.65283 86.4792 8.71647C87.3559 7.7801 88.8292 7.72961 89.7656 8.60631C90.702 9.48301 90.7525 10.9564 89.8758 11.8927Z" fill="#575756"/>
<path d="M13.8507 7.00183H11.2573V5.11074C11.2573 2.78818 9.37542 0.90625 7.05286 0.90625L0.117321 0.920034C0.0347001 0.920034 -0.0203758 1.00264 0.0071644 1.07608L2.75659 8.948L2.77497 15.3144C2.77497 15.3695 2.82086 15.4154 2.87594 15.4154L9.17805 15.4062H13.3825C16.5359 15.4062 18.8814 11.9315 16.7929 8.59916C16.2375 7.71328 14.9019 7.00183 13.8553 7.00183M7.51186 6.77233C5.41422 8.07131 3.21099 5.86808 4.51456 3.77502C4.62013 3.60519 4.76703 3.45829 4.93686 3.35272C7.03451 2.05374 9.23774 4.25697 7.93417 6.35003C7.8286 6.51986 7.68169 6.66676 7.51186 6.77233Z" fill="#575756"/>
<path d="M70.3139 3.66241C69.5933 2.90047 67.6655 3.55227 66.0131 5.11288C64.6682 6.38432 63.7135 8.61044 63.5666 8.96847C63.5528 9.0006 63.5574 9.03276 63.5758 9.0603C63.7732 9.36324 64.9712 11.1488 65.8708 12.1035C67.436 13.7605 69.3225 14.5178 70.0844 13.7972C70.8464 13.0766 70.1946 11.1487 68.634 9.49633C68.3311 9.17503 68.0143 8.88586 67.693 8.638C68.0052 8.41768 68.3173 8.16062 68.6202 7.87604C70.2772 6.31083 71.0346 4.42436 70.3139 3.66241Z" fill="#575756"/>
<path d="M41.4442 0.267834L38.3414 16.0438C38.3276 16.1081 38.4102 16.1494 38.4561 16.1035L42.2888 11.9816L47.1634 17.9716C47.2047 18.0221 47.2873 18.0221 47.3286 17.9716L52.1482 11.7337L56.0405 15.9107C56.0864 15.9612 56.1645 15.9198 56.1553 15.851L53.0524 0.272429C53.034 0.180628 52.9193 0.157693 52.8643 0.231134L47.2506 7.82761L41.637 0.235729C41.5819 0.162288 41.4672 0.189813 41.4488 0.277023" fill="#575756"/>
</svg>
