<svg width="75" height="33" viewBox="0 0 75 33" fill="none" xmlns="http://www.w3.org/2000/svg">
<path d="M71.0601 22.5167C71.3585 22.5488 71.946 22.457 72.2535 22.3514C70.7526 24.2884 68.6182 24.9815 67.333 25.2064C66.6308 25.3304 66.5665 25.133 66.7088 24.6419C67.3055 22.5993 69.7015 20.1437 73.9106 13.9976C74.8377 12.6435 74.1033 11.2619 72.7263 11.0921C70.5782 10.8304 68.6412 11.5786 66.9429 12.4278C66.1672 12.8179 65.9698 13.7681 66.3095 14.0848C67.2871 13.0612 70.1283 11.6521 72.024 11.6521C72.4371 11.6521 72.8089 11.6337 72.1847 12.4508C69.5087 15.9621 66.3783 19.4505 64.5147 23.1409C63.6151 24.9264 64.2072 25.2202 64.478 25.592C64.7488 25.9638 65.575 26.2989 66.6307 26.2714C69.5179 26.1933 75.0122 23.2511 73.9564 17.128C73.8646 19.5378 72.2949 21.9292 71.0647 22.5121L71.0601 22.5167ZM69.3113 19.524C71.0005 17.128 73.5617 13.7084 73.8922 12.8822C74.1125 13.534 71.2208 17.128 69.4169 19.5423C69.1782 19.8591 69.0864 19.8453 69.3113 19.524Z" fill="#575756"/>
<path d="M36.0572 9.88231C35.9975 9.78592 36.0618 9.72626 36.1628 9.66199C38.1456 8.35842 42.3409 5.82932 48.386 4.84705C54.0363 3.92904 56.4415 6.01293 57.1208 6.98143C57.2264 7.07323 57.2999 6.96308 57.2677 6.88046C56.9281 5.88442 55.2527 1.46879 48.2621 2.44647C40.8675 3.47923 35.7221 7.7663 35.1667 8.5053C35.0795 8.62005 34.6893 9.93283 34.8592 10.2633C35.2631 11.0344 36.2683 12.3977 36.4794 14.2842C36.0801 14.3026 35.5155 14.4081 35.3641 14.3668C35.1437 14.3071 34.9142 14.3117 34.7352 14.353C34.6526 14.3714 34.5792 14.4081 34.5103 14.4586C33.4087 15.2756 31.9812 17.029 31.0632 19.3837C29.8468 20.6368 28.5387 21.9128 27.7263 22.9823C28.1807 21.5273 31.178 16.2257 31.0724 15.6703C30.9622 15.0874 30.0947 14.5045 29.4475 14.2107C29.3557 14.3025 29.0574 14.835 28.7406 15.4317C28.5754 15.7438 28.3551 16.0284 28.0889 16.2671C26.9643 17.2631 25.1512 18.3188 23.8936 18.8146C23.788 18.8513 23.6044 18.9247 23.6044 18.9247C23.4667 18.9936 23.3519 19.0762 23.2877 19.1634C23.1683 19.3241 23.4116 19.526 23.3106 20.3935C23.1821 21.541 22.1126 24.3363 20.2353 25.3094C20.0517 25.4058 20.1068 25.2085 20.1481 25.0019C20.2491 24.4924 21.8097 20.0814 24.2287 16.111C24.5683 15.551 24.4857 15.3628 23.9992 14.9359C23.9303 14.8763 23.8431 14.8166 23.7421 14.7569C28.1669 12.1544 31.4671 8.54661 31.2927 5.24179C31.1917 3.36446 28.4239 1.9645 24.3204 1.79926C23.5723 1.76713 23.1087 1.70287 21.6812 1.79926C21.5389 1.80844 21.392 1.81765 21.2405 1.83142C21.213 1.657 21.1763 1.49632 21.1166 1.34485C20.7081 0.257011 20.4832 0.00459004 20.272 0C20.0609 0 20.1297 0.84452 19.7625 1.84515C19.7488 1.88646 19.7304 1.92778 19.712 1.97368C15.9161 2.40056 10.711 3.46087 6.29078 5.72376C-1.2736 9.59316 -0.653944 13.1137 1.19584 14.5366C1.40698 14.7019 1.44371 14.4678 1.44371 14.4678C1.42535 13.3753 1.6732 10.9793 7.46124 7.72042C10.8487 5.81555 15.1954 4.54409 18.8491 3.85559C17.7429 6.10929 15.8518 9.6069 13.6991 13.435C13.2309 14.2658 12.7719 15.1563 12.3588 16.0697C8.49859 16.2992 7.92942 15.2619 7.67697 15.1471C7.49796 15.2894 7.61271 15.4913 7.69074 15.7392C7.81926 16.1477 8.98055 17.8323 11.4821 18.2637C10.3117 21.6558 10.0913 25.0341 12.4965 26.7966C12.7444 26.8701 12.7076 26.6451 12.7076 26.6451C11.8906 24.9835 12.1293 22.4131 13.387 19.1909C13.4053 19.145 13.4099 19.09 13.4007 19.0395C13.3411 18.7824 13.0611 18.4703 12.7076 18.3142C13.0932 18.3555 13.3594 18.3418 13.7588 18.2959C16.2695 17.9792 18.9088 17.1576 21.3599 16.0101C20.1481 18.2729 17.8072 22.9593 17.6649 24.6852C17.596 25.5252 18.9868 26.5809 19.3357 26.5809C20.6576 26.5809 24.8804 24.4235 25.344 20.0997C25.3624 19.9161 25.3624 19.705 25.3348 19.5031C26.1381 19.0991 26.7807 18.6952 27.3545 18.2545C26.3997 20.3522 25.2339 23.1613 25.1926 23.6938C25.1375 24.4282 26.2896 26.0255 26.7853 25.4334C28.3505 23.556 29.4705 22.2754 30.4803 21.2518C30.2691 22.1698 30.1406 23.1521 30.136 24.1803C30.2416 25.034 31.1366 26.1632 31.9491 26.3514C32.2061 26.411 32.2796 26.3147 32.4769 26.2137C34.827 25.0111 39.9174 16.3772 36.048 9.8869L36.0572 9.88231ZM38.2787 7.93154C42.9698 5.34735 50.7223 2.6576 53.8757 4.61295C52.7465 4.05297 47.7342 3.112 38.32 7.99121C38.1456 8.07384 38.1594 8.00039 38.2833 7.93154H38.2787ZM17.5226 3.79591C5.99701 6.44896 2.42597 10.2633 1.22338 13.1137C1.44829 9.79511 7.38781 5.76048 17.5134 3.773C17.5364 3.76841 17.5364 3.79591 17.5226 3.79591ZM14.9797 15.7714C15.2 15.3537 15.4387 14.9268 15.6866 14.4953C18.4544 9.69414 20.3042 6.32046 20.9835 3.9979C20.9697 3.77758 20.6668 3.56642 20.4464 3.5756C20.653 3.54347 20.9055 3.51136 21.1212 3.48382C21.8051 3.39202 22.4431 3.32314 23.0215 3.28183C23.7605 3.2497 24.2103 3.24515 24.8254 3.25892C29.0069 3.33695 30.7373 4.49824 30.6226 5.62739C30.439 7.50013 25.1512 14.1878 14.9797 15.776V15.7714ZM35.6395 15.5923C33.8126 17.4926 32.7523 20.0217 32.3301 21.6512C32.3255 21.6695 32.2612 21.6925 32.2704 21.6512C32.6835 19.5857 34.033 16.5608 35.6441 15.5877L35.6395 15.5923ZM32.4907 24.396C32.3117 24.5567 32.2979 24.3823 32.2979 24.3823C32.0409 23.6525 33.1562 18.5254 36.5116 15.3078C36.5116 15.3445 36.5116 15.3812 36.507 15.4225C36.3188 18.0939 35.2952 21.8898 32.4953 24.396H32.4907Z" fill="#575756"/>
<path d="M64.9933 14.7285C63.5337 15.2518 61.6563 16.7895 60.3803 18.1757C60.9449 17.0006 61.3672 16.0964 61.5462 15.5915C61.8491 14.7331 60.5455 13.7692 60.316 13.7325C60.0865 13.6958 59.9947 13.8289 59.8754 14.1594C59.756 14.4899 59.5679 14.9902 59.3705 15.4262C59.1594 15.8944 58.6453 16.9409 57.9889 18.2858C57.6814 18.7035 56.9056 19.2543 56.3135 19.3828C56.9653 17.2577 57.1443 14.9948 56.5981 14.2787C56.3732 13.9896 55.3496 13.9161 55.3129 13.9299C55.065 14.0263 54.8264 14.3568 54.6014 14.8525C54.3765 14.8249 54.1287 14.8249 53.9497 14.7515C53.6284 14.6183 53.6008 14.5082 53.0362 15.1967C52.1182 16.3167 50.9248 18.5658 50.1537 20.7185C49.3596 22.4398 46.8121 24.8312 46.6974 24.8128C46.5597 24.7853 46.5964 24.7165 46.5964 24.7165C46.6699 24.0739 46.8902 23.1467 47.6475 21.5723C48.2396 20.3559 49.0108 18.7402 50.6632 16.8858C50.6953 16.7252 50.4566 15.8026 50.0298 15.2151C49.8278 14.9397 49.6258 14.7928 49.4376 14.7928C49.3963 14.7928 49.277 14.8295 49.2357 14.8479C47.3446 15.8806 45.4397 18.3684 44.5171 19.7546C44.4161 19.9061 44.3289 20.0438 44.2601 20.1677L44.2004 20.1035C44.2417 19.9933 46.5689 16.0642 46.5551 15.9219C46.5276 15.6557 45.5958 14.3843 44.9302 14.4715C44.2784 14.5587 41.7723 17.6662 40.4595 19.4425C40.4366 19.4701 40.4412 19.4196 40.4182 19.4425C40.7166 18.832 41.5749 17.2898 41.5198 16.9593C41.4602 16.5829 40.4871 15.8944 40.0143 15.4996C39.7113 15.2472 39.5966 15.417 39.5599 15.5823C39.514 15.7934 39.4497 15.9862 39.3166 16.3809C39.0137 17.2806 36.2596 23.0686 35.7364 24.3492C35.4426 25.1433 36.8059 26.4928 37.2649 26.1256C37.5953 25.8639 40.1566 20.8241 43.3604 17.3724C43.3008 17.4504 43.5165 17.3357 43.4247 17.4596C41.8136 19.7087 40.6385 22.5362 40.5008 23.4909C40.3998 24.1978 41.4877 25.6804 41.9421 25.6391C41.9513 25.6391 41.9605 25.6391 41.9696 25.6345C42.0614 25.6345 42.1624 25.5289 42.2956 25.3085C42.805 24.2987 43.8745 22.3526 44.7833 20.9389C45.7564 19.4242 46.858 17.9737 47.877 17.2118C47.9092 17.1888 47.9505 17.1934 47.9505 17.1934C45.4397 20.1448 44.5171 23.1696 44.3611 24.3263C44.2234 25.3499 45.0909 26.2908 45.6095 26.4606C45.6417 26.4698 45.6784 26.479 45.7197 26.479C46.1236 26.479 46.982 25.7675 47.8174 24.9643C48.4278 24.3722 49.0291 23.6378 49.5019 22.9952C49.3596 23.7709 49.3275 24.4594 49.456 24.9735C49.5203 25.3912 50.2225 26.2863 51.0763 26.6718C52.4533 26.0659 54.4683 24.0004 55.804 20.7507C55.8224 20.7048 55.8224 20.6451 55.7994 20.5992C55.726 20.4615 55.5516 20.3375 55.3818 20.2779C55.7076 20.333 56.0519 20.3054 56.2998 20.2366C56.5798 20.1631 56.9102 20.0163 57.2086 19.8464C55.2945 23.7893 52.7792 29.0724 52.2972 30.8992C52.0631 31.7851 53.0592 32.5516 53.7661 32.8362C54.987 29.2835 57.1168 24.8266 58.8472 21.2739C60.3895 19.0845 63.2169 16.8216 64.3874 16.3442C64.5022 16.459 64.493 16.8216 64.3277 17.2118C63.7356 19.0845 60.0773 22.9906 58.6957 24.0004C58.8656 24.2987 60.2564 25.1984 60.8347 24.9184C63.4648 23.6378 65.9296 19.4563 66.5309 17.0557C66.8109 15.9357 66.2234 14.2833 64.9749 14.7331L64.9933 14.7285ZM53.2749 18.3501C53.3025 18.3134 53.3438 18.318 53.3208 18.3501C52.4854 19.7317 51.5261 22.0313 51.4435 23.2706C51.1819 22.0818 52.4166 19.5573 53.2749 18.3455V18.3501ZM51.875 24.5879C51.7143 24.7348 51.7051 24.5466 51.7051 24.5466C51.5858 23.8214 52.1963 20.7644 53.968 18.0517C54.0369 18.9376 54.3031 19.8143 54.8677 20.1769C54.2205 21.8339 53.2152 23.4955 51.8704 24.5879H51.875ZM55.2349 19.1258C54.9778 18.6209 54.7208 17.5101 55.6617 15.5042C55.8224 16.3442 55.6709 17.6845 55.2349 19.1258Z" fill="#575756"/>
</svg>
