<svg width="80" height="16" viewBox="0 0 80 16" fill="none" xmlns="http://www.w3.org/2000/svg">
<path d="M14.0781 8.25415H16.0794L15.0787 5.57812L14.0781 8.25415Z" fill="#575756"/>
<path d="M47.8711 8.43276H50.3726L49.1242 5.26562L47.8711 8.43276Z" fill="#575756"/>
<path d="M76.3553 0H3.60779C1.61571 0 0 1.61569 0 3.60776V11.8698C0 13.8619 1.61571 15.4776 3.60779 15.4776H76.3553C78.3473 15.4776 79.963 13.8619 79.963 11.8698V3.60776C79.963 1.61569 78.3473 0 76.3553 0ZM10.1623 10.961H8.66599V5.77425H6.42605V4.42021H12.4069V5.77425H10.1669V10.961H10.1623ZM17.0841 10.961L16.5792 9.60692H13.5727L13.0678 10.961H11.4338L14.0042 4.42021H16.1523L18.7228 10.961H17.0887H17.0841ZM25.4105 10.961H22.8492L20.4578 5.4208V10.961H18.9614V4.42021H21.5227L23.9141 9.96036V4.42021H25.4105V10.961ZM31.8457 8.29877C31.8457 9.97872 30.7991 11.0528 29.0917 11.0528C27.3842 11.0528 26.3376 9.97872 26.3376 8.29877V4.42021H27.834V8.29877C27.834 9.1571 28.2746 9.69875 29.0962 9.69875C29.9179 9.69875 30.3585 9.1571 30.3585 8.29877V4.42021H31.8549V8.29877H31.8457ZM36.9268 10.961L35.1597 8.20699L34.2646 9.18921V10.9655H32.7683V4.42475H34.2646V7.06861L36.6469 4.42475H38.515L36.1328 7.08699L38.6573 10.9655H36.9268V10.961ZM40.4153 10.961H38.9189V4.42021H40.4153V10.961ZM42.4349 10.961H41.4067V4.42021H46.1253V5.40243H42.4349V7.2706H45.8453V8.25288H42.4349V10.961ZM51.3625 10.961L50.7383 9.37282H47.5069L46.8826 10.961H45.7259L48.4157 4.42021H49.834L52.5238 10.961H51.3625ZM60.3177 10.961H59.2895V4.98937L57.3755 10.961H55.7873L53.8732 4.98937V10.961H52.8451V4.42021H54.7591L56.5814 10.1669L58.4036 4.42021H60.3177V10.961ZM62.4383 10.961H61.4101V4.42021H62.4383V10.961ZM68.4604 10.961H63.5078V4.42021H64.5359V9.97874H68.4604V10.961ZM70.9206 8.29877V10.961H69.8925V8.29877L67.2762 4.42021H68.5384L70.4066 7.38995L72.3665 4.42021H73.5324L70.9161 8.29877H70.9206Z" fill="#575756"/>
</svg>
