<svg width="106" height="12" viewBox="0 0 106 12" fill="none" xmlns="http://www.w3.org/2000/svg">
<path d="M68.8318 1.46885L68.7675 1.40917C67.799 0.500345 66.3853 0 64.788 0C63.1907 0 61.7631 0.504949 60.7946 1.42296L60.7855 1.43209C59.7528 2.33174 59.1836 3.65366 59.1836 5.1592C59.1836 6.66473 59.7527 7.99127 60.7442 8.8496L60.8084 8.90928C61.7769 9.8181 63.1907 10.3184 64.788 10.3184C66.3853 10.3184 67.8036 9.8181 68.7721 8.90468L68.8089 8.87258C69.8325 7.97752 70.397 6.65555 70.397 5.1592C70.397 3.66284 69.8278 2.32718 68.8364 1.46885H68.8318ZM67.7486 7.68831L67.6889 7.74339C67.0142 8.3814 65.986 8.73026 64.788 8.73026C63.59 8.73026 62.5572 8.3814 61.8871 7.74339L61.855 7.71588L61.8274 7.69291C61.1481 7.10079 60.7717 6.20114 60.7717 5.16379C60.7717 4.12644 61.1481 3.22679 61.8274 2.63468L61.8871 2.5796C62.5618 1.94158 63.59 1.59279 64.788 1.59279C65.986 1.59279 67.0187 1.94617 67.6889 2.5796L67.7486 2.63468C68.4279 3.22679 68.8043 4.12644 68.8043 5.16379C68.8043 6.20114 68.4279 7.10079 67.7486 7.69291V7.68831Z" fill="#575756"/>
<path d="M103.414 0.367188V8.33089H103.308L98.0203 0.417671H94.6328V2.08386H95.5324V10.0292H97.194V2.18023L102.422 9.99248H105.08V0.367188H103.414Z" fill="#575756"/>
<path d="M87.1131 1.46885L87.0488 1.40917C86.0803 0.500345 84.6666 0 83.0693 0C81.4719 0 80.0444 0.504949 79.076 1.42296L79.0668 1.43209C78.034 2.33174 77.4648 3.65366 77.4648 5.1592C77.4648 6.66473 78.034 7.99127 79.0255 8.8496L79.0989 8.91847C80.0674 9.8227 81.4765 10.3184 83.0693 10.3184C84.662 10.3184 86.0849 9.8181 87.0534 8.90468L87.0901 8.87258C88.1137 7.97752 88.6783 6.65555 88.6783 5.1592C88.6783 3.66284 88.1092 2.32718 87.1177 1.46885H87.1131ZM86.0299 7.68831L85.9702 7.74339C85.2955 8.3814 84.2673 8.73026 83.0647 8.73026C81.8621 8.73026 80.8339 8.3814 80.1638 7.74339L80.1041 7.68831C79.4248 7.0962 79.0484 6.19655 79.0484 5.1592C79.0484 4.12185 79.411 3.24978 80.1133 2.62095L80.1638 2.575C80.8385 1.93699 81.8667 1.58819 83.0647 1.58819C84.2627 1.58819 85.2955 1.94158 85.9702 2.575L86.0299 2.63008C86.7092 3.2222 87.0855 4.12185 87.0855 5.1592C87.0855 6.19655 86.7092 7.0962 86.0299 7.68831Z" fill="#575756"/>
<path d="M7.0457 6.04008L3.39204 0.421875H0V2.08806H0.899629V10.0334H2.56122V2.19822L6.42605 8.14229H7.0457H7.66993L11.5302 2.19822V10.0334H13.1964V2.08806H14.0914V0.421875H10.6994L7.0457 6.04008Z" fill="#575756"/>
<path d="M33.5409 8.90885C33.5179 8.86295 33.4904 8.82162 33.4675 8.77572L29.2768 0.421875H25.5818V2.08806H26.4172L22.332 11.6812H22.3825C23.4474 11.6812 24.4113 11.0432 24.829 10.0655L26.1142 7.04532C26.4676 7.37122 26.8945 7.59609 27.3214 7.69248C27.9089 7.83018 28.4551 7.85315 28.9876 7.88069C30.0571 7.93118 30.6905 7.99083 31.2872 8.60589C31.558 8.88588 31.7829 9.198 31.9986 9.57898L32.2281 10.038H34.0917L33.5271 8.91344H33.5363L33.5409 8.90885ZM29.0748 6.20991C28.5974 6.18695 28.1476 6.16403 27.7069 6.06305C27.3994 5.98961 26.9359 5.68667 26.9359 5.14504H26.9267L28.2302 2.08806H28.2486L30.3784 6.33385C29.9331 6.25122 29.4925 6.23286 29.0748 6.20991Z" fill="#575756"/>
<path d="M46.5933 5.39746C46.1022 5.36533 45.6432 5.33321 45.2301 5.23682C44.9272 5.16797 44.4819 4.86964 44.4636 4.34178V2.08347H48.2916C49.0949 2.08347 49.7697 2.73527 49.7467 3.53853C49.7238 4.3785 49.3979 4.91091 49.1959 5.16336C49.1408 5.23221 49.1959 5.33783 49.2831 5.32865C49.6274 5.30111 50.2883 5.21844 50.7841 4.75944C51.5276 4.07093 51.5139 2.73065 50.9769 1.84018C50.4077 0.894633 49.3428 0.421875 48.1723 0.421875H41.9023V2.08806H42.7974V4.31881C42.7974 4.31881 42.7974 4.33719 42.7974 4.34178V10.038H44.4636V6.73777C44.5921 6.78826 44.7206 6.83417 44.8491 6.86171C45.3907 6.99023 45.9416 7.02692 46.474 7.06364C47.5022 7.1325 48.3881 7.19678 48.948 7.83939C49.3336 8.28003 49.7283 9.00522 50.1506 10.038H51.9362C51.3486 8.47737 50.7932 7.4171 50.2011 6.74236C49.1867 5.58109 47.8051 5.48467 46.5842 5.40205L46.5933 5.39746Z" fill="#575756"/>
</svg>
