<svg width="230" height="21" viewBox="0 0 230 21" fill="none" xmlns="http://www.w3.org/2000/svg">
<path d="M100.73 0.446811C102.104 0.234476 103.445 0.413312 104.831 0.335083C106.139 1.82143 107.256 3.44193 108.463 4.98415C109.67 6.52638 110.844 8.10214 112.107 9.74495C114.364 6.57109 116.577 3.46428 118.778 0.379829H122.69C123.092 0.70392 122.992 1.10623 122.992 1.4862C122.992 4.55948 122.992 7.63275 122.992 10.706C122.992 13.2541 122.992 15.7909 122.992 18.3389V19.8811C121.997 20.2164 121.002 20.2611 118.801 20.0823C118.421 19.8029 118.544 19.3894 118.544 19.0206C118.544 15.5115 118.544 12.0136 118.532 8.50448C118.532 8.23627 118.622 7.9345 118.264 7.64394C116.577 10.002 114.9 12.3264 113.213 14.6733H111.011C109.1 12.3711 107.368 9.93485 105.278 7.42035C105.111 8.4038 105.189 9.06321 105.167 9.71139C105.155 10.3819 105.167 11.0525 105.167 11.723C105.167 12.4383 105.167 13.1646 105.167 13.8799C105.167 14.5504 105.167 15.221 105.167 15.8915C105.167 16.562 105.167 17.2325 105.167 17.903C105.167 18.5736 105.167 19.2329 105.155 19.8923C104.395 20.2946 103.669 20.127 102.965 20.1381C102.25 20.1493 101.534 20.2276 100.763 20.0152C100.719 19.7805 100.652 19.557 100.652 19.3335C100.652 13.2876 100.652 7.23041 100.652 1.18444C100.652 0.949749 100.696 0.726189 100.73 0.435625V0.446811Z" fill="#575756"/>
<path d="M184.603 0.469178C184.837 0.424476 185.016 0.35745 185.206 0.35745C186.402 0.35745 187.598 0.35745 188.682 0.35745C189.14 0.748594 189.028 1.16213 189.028 1.51975C189.028 5.21886 188.995 8.91789 188.983 12.617C188.983 12.6952 189.05 12.7846 189.084 12.8628C189.129 12.8852 189.173 12.9188 189.218 12.9188C189.263 12.9188 189.319 12.8964 189.341 12.8628C189.475 12.7287 189.609 12.5834 189.732 12.4493C193.074 8.5379 196.404 4.63764 199.745 0.726194C199.813 0.659141 199.891 0.592175 199.958 0.536297C199.991 0.50277 200.036 0.480392 200.17 0.368636C201.545 0.379812 203.009 0.268007 204.54 0.457992C204.584 0.748556 204.64 0.972116 204.64 1.2068C204.64 7.44276 204.719 13.6787 204.64 19.9147C203.88 20.3282 203.154 20.1605 202.45 20.1605C201.746 20.1605 201.019 20.2947 200.237 19.9706C200.159 15.7015 200.26 11.4436 200.192 7.21926C199.935 7.05162 199.79 7.11861 199.656 7.28624C196.27 11.2759 192.884 15.2657 189.497 19.2554C189.252 19.5459 188.972 19.8141 188.648 20.1605C187.363 20.1493 186.033 20.2611 184.636 20.0711C184.591 19.7582 184.513 19.49 184.513 19.2106C184.513 13.2987 184.513 7.39806 184.513 1.48619C184.513 1.1621 184.569 0.837982 184.614 0.480365L184.603 0.469178Z" fill="#575756"/>
<path d="M62.1508 13.3993C62.1285 15.7015 62.1173 17.836 62.0949 20.0599C60.5862 20.3058 59.1782 20.1828 57.6806 20.1605C57.6247 19.8252 57.5465 19.5569 57.5465 19.2887C57.5353 17.8471 57.5465 16.4055 57.5465 14.975C57.5465 14.5056 57.5018 14.0362 57.4794 13.5557C56.8089 13.2539 56.1831 13.3098 55.5796 13.2875C54.0597 13.2316 52.6404 12.8405 51.3329 12.0806C49.8801 11.2312 48.796 10.0466 48.3043 8.39257C47.522 5.74396 48.3825 2.64841 51.2994 1.20676C52.3387 0.692689 53.4563 0.390906 54.6073 0.323852C55.7026 0.267975 56.8089 0.234497 57.9153 0.234497C60.2175 0.234497 62.5196 0.256788 64.8218 0.312666C65.984 0.335017 67.0793 0.670262 68.1521 1.12846C71.8847 2.73774 72.3541 7.35336 70.5996 9.91257C69.9402 10.8737 69.1132 11.667 68.0627 12.2035C66.8557 12.8405 65.5705 13.1981 64.2183 13.2763C63.6036 13.3098 62.989 13.3435 62.162 13.3993H62.1508ZM57.3453 3.76601C56.1607 3.60955 55.0991 3.74363 54.1044 4.29123C52.1375 5.37526 52.1822 8.28084 53.7468 9.3984C54.842 10.1807 56.0825 10.3148 57.3677 10.0689C57.6024 8.76136 57.6024 5.05107 57.3453 3.77706V3.76601ZM62.2849 10.1248C63.3243 10.2589 64.263 10.1695 65.157 9.78951C67.4033 8.85077 67.4145 5.84457 65.9841 4.64879C65.0341 3.85532 63.5925 3.54249 62.2514 3.90011C62.0726 5.17413 62.0838 8.82847 62.2849 10.1248Z" fill="#575756"/>
<path d="M32.3683 20.4957C30.2673 20.5293 28.4234 20.2163 26.7023 19.4228C23.1373 17.78 21.2486 14.9302 21.0251 11.0635C20.7234 5.77746 23.9867 1.56435 29.1945 0.37974C31.9213 -0.234916 34.637 -0.123236 37.2744 0.860212C41.13 2.29068 43.231 5.09581 43.6221 9.16371C43.8009 11.0524 43.5551 12.9076 42.7504 14.6509C41.7446 16.8525 40.0459 18.3612 37.889 19.367C36.0786 20.2163 34.1564 20.5963 32.3571 20.4957H32.3683ZM25.8195 9.95713C25.7971 11.9576 26.1882 13.5669 27.3281 14.908C29.0939 16.9978 31.4184 17.4895 33.9776 16.953C36.2798 16.4725 37.755 15.0085 38.4814 12.7622C38.8278 11.6894 38.9284 10.5942 38.8166 9.49903C38.6155 7.50978 37.8891 5.77754 36.2015 4.58176C32.1672 1.74317 26.6576 4.07888 25.9089 8.92907C25.8418 9.35374 25.8418 9.78949 25.8306 9.94594L25.8195 9.95713Z" fill="#575756"/>
<path d="M156.104 0.413304C157.658 0.323899 159.032 0.279083 160.496 0.43554C160.519 0.960791 160.563 1.43022 160.563 1.88842C160.563 3.52005 160.563 5.15168 160.563 6.78332C160.563 7.20799 160.608 7.63265 160.642 8.03497C160.865 8.1132 160.999 8.19145 161.133 8.19145C163.961 8.20262 166.799 8.21382 169.627 8.21382C169.862 8.21382 170.096 8.15784 170.398 8.11314C170.443 7.7667 170.521 7.4426 170.521 7.12969C170.532 5.39748 170.521 3.67656 170.532 1.94435C170.532 1.47498 170.566 1.00561 170.588 0.558592C171.683 0.279203 173.617 0.256797 174.924 0.502659C174.969 0.62559 175.058 0.748483 175.058 0.88259C175.058 7.21913 175.058 13.5445 175.058 19.8475C174.142 20.2163 172.6 20.2722 170.677 20.0263C170.633 19.7358 170.543 19.4229 170.543 19.11C170.532 17.2325 170.543 15.3661 170.532 13.4886C170.532 13.0193 170.499 12.55 170.476 12.0023C170.141 11.9465 169.873 11.8682 169.605 11.8682C166.911 11.8682 164.229 11.8682 161.536 11.8682C161.301 11.8682 161.066 11.9017 160.876 11.9129C160.496 12.2481 160.575 12.6504 160.563 13.0192C160.563 14.8408 160.563 16.6625 160.563 18.4953C160.563 18.9646 160.541 19.4452 160.519 19.9258C159.781 20.3057 159.055 20.1381 158.351 20.1492C157.647 20.1492 156.92 20.2722 156.194 20.0151C156.16 19.8028 156.093 19.624 156.093 19.434C156.093 13.1533 156.093 6.8616 156.093 0.413304H156.104Z" fill="#575756"/>
<path d="M229.718 0.469166C229.752 0.871486 229.797 1.29614 229.808 1.70964C229.942 11.7006 229.875 18.8083 229.629 19.9594C228.5 20.2276 226.522 20.2276 225.315 19.937C225.148 17.5343 225.371 15.098 225.181 12.6394C224.22 12.2594 223.438 12.427 222.845 13.2093C222.186 14.0922 221.56 14.9975 220.946 15.925C220.197 17.0426 219.459 18.1712 218.766 19.3223C218.409 19.9146 217.984 20.2052 217.258 20.1829C215.972 20.127 214.676 20.1717 213.346 20.1717C213.346 19.937 213.29 19.7694 213.346 19.68C214.855 17.4002 216.364 15.1092 217.895 12.8518C218.263 12.3042 218.733 11.8124 219.146 11.3095C219.146 10.896 218.777 10.896 218.576 10.7284C218.017 10.2702 217.414 9.86776 216.911 9.36486C214.609 7.018 215.38 3.03963 218.017 1.53093C219.303 0.804514 220.7 0.435688 222.141 0.37981C224.488 0.301581 226.846 0.335064 229.204 0.335064C229.338 0.335064 229.472 0.402112 229.707 0.469166H229.718ZM225.047 3.81065C223.974 3.74359 222.979 3.65423 222.007 3.98949C221.024 4.31358 220.331 4.95062 220.141 5.97877C219.929 7.09633 220.342 8.04623 221.247 8.75029C221.75 9.14143 222.32 9.42081 222.946 9.43198C223.684 9.45433 224.466 9.64426 225.148 9.23076C225.337 7.59913 225.293 4.96173 225.047 3.81065Z" fill="#575756"/>
<path d="M17.6731 20.1604H12.1971C9.76082 17.5788 7.52571 14.6955 5.05592 12.0693C4.67595 12.1698 4.743 12.4493 4.743 12.6616C4.743 14.6285 4.743 16.5954 4.743 18.5623C4.743 19.0317 4.6983 19.501 4.67595 20.0598C3.15608 20.3392 1.70324 20.138 0.283949 20.1939C0.00456039 18.8864 -0.0736712 10.4265 0.071611 1.64252C0.071611 1.21785 0.127491 0.804383 0.161017 0.413239C1.4015 0.178552 3.35724 0.17853 4.55302 0.390866C4.87711 1.00552 4.69829 1.69842 4.73182 2.35777C4.76534 2.98361 4.73182 3.60936 4.73182 4.23519C4.73182 4.90573 4.72064 5.57631 4.73182 6.24685C4.75417 6.85033 4.63124 7.465 4.85475 8.22494C5.22354 7.84497 5.49175 7.59906 5.72644 7.33084C7.46983 5.35277 9.21323 3.36358 10.9454 1.38551C11.1354 1.17317 11.3254 0.949573 11.5154 0.737237C11.7501 0.4802 12.0295 0.323758 12.3982 0.334934C13.8734 0.334934 15.3598 0.334934 16.9691 0.334934C16.7232 1.02782 16.2538 1.37431 15.8962 1.78781C15.4939 2.26836 15.0804 2.72657 14.6557 3.19594C14.2646 3.62061 13.8734 4.03411 13.4823 4.45878C13.0576 4.91698 12.6553 5.38636 12.2306 5.85573C11.8395 6.2804 11.4483 6.70495 11.0572 7.12962C10.6325 7.58782 10.219 8.04614 9.80553 8.51552C9.42556 8.94019 9.06793 9.37599 8.64326 9.86771C11.5266 13.321 14.611 16.5283 17.6508 20.1715L17.6731 20.1604Z" fill="#575756"/>
<path d="M133.318 20.1159C131.821 20.1718 130.491 20.2277 129.183 20.0824C128.904 19.6801 129.161 19.3895 129.284 19.0989C131.295 14.3829 133.318 9.65555 135.33 4.93946C135.833 3.74368 136.335 2.55912 136.85 1.36334C136.995 1.0169 137.174 0.68157 137.341 0.323952C138.481 0.145144 139.565 0.234608 140.727 0.245784C141.476 1.49745 141.946 2.86085 142.549 4.14604C143.164 5.45358 143.711 6.77233 144.304 8.09104C144.885 9.40976 145.488 10.7172 146.069 12.0359C146.65 13.3546 147.232 14.6622 147.813 15.9809C148.394 17.2773 149.042 18.5514 149.511 19.9707C148.986 20.2165 148.506 20.1382 148.047 20.1494C147.522 20.1605 146.997 20.1494 146.46 20.1494C145.98 20.1494 145.499 20.1494 145.03 20.1494C144.292 19.4788 144.147 18.5402 143.745 17.7356C143.365 16.9644 143.041 16.1709 142.705 15.4333C141.61 15.2098 137.107 15.1652 135.352 15.3552C134.704 16.875 134.022 18.4396 133.318 20.0936V20.1159ZM138.962 5.95648C138.47 7.20814 138.068 8.13575 137.755 9.0745C137.442 10.0021 136.861 10.8514 136.838 11.9801C137.386 11.9913 137.855 12.0025 138.325 12.0137C138.805 12.0137 139.286 12.036 139.766 12.0137C140.213 11.9913 140.716 12.1588 141.174 11.7453C140.459 9.90137 139.889 8.03514 138.962 5.96766V5.95648Z" fill="#575756"/>
<path d="M91.2534 3.57597C90.3146 3.58715 89.4541 3.60954 88.6048 3.62072C87.789 3.62072 86.9731 3.62072 86.1573 3.62072C85.308 3.63189 84.4475 3.54246 83.5199 3.73244C83.5199 4.33592 83.4975 4.86115 83.4975 5.3864C83.4975 6.29162 83.4975 7.19682 83.5087 8.01263C83.911 8.42613 84.3134 8.34796 84.6933 8.35914C86.4702 8.35914 88.2471 8.35914 90.0241 8.35914C90.3928 8.35914 90.7617 8.40378 91.2087 8.43731C91.354 9.49899 91.3093 10.4937 91.231 11.5665C90.8958 11.6224 90.5828 11.723 90.2699 11.7342C88.5377 11.7454 86.8167 11.7342 85.0845 11.7342C84.6151 11.7342 84.1457 11.7676 83.6987 11.79C83.4417 12.874 83.4081 15.0532 83.6205 16.6625C83.9557 16.7072 84.3245 16.7854 84.6821 16.7854C86.7943 16.7966 88.9065 16.7854 91.0187 16.7854C91.4434 16.7854 91.8569 16.8302 92.248 16.8525C92.505 18.1042 92.505 18.8753 92.248 20.0152C91.0969 20.2275 80.3013 20.2387 78.9938 20.0152C78.7814 18.4282 78.9267 16.8079 78.9044 15.1986C78.882 13.5222 78.9044 11.8347 78.9044 10.1584C78.9044 8.52676 78.9044 6.89512 78.9044 5.26349C78.9156 3.64303 78.8485 2.02255 78.9491 0.346218C80.5025 0.0780051 81.9889 0.25683 83.4529 0.223304C84.8945 0.189777 86.3361 0.212128 87.7666 0.223304C89.2529 0.223304 90.7281 0.18981 92.3151 0.256863C92.1586 1.44147 91.7228 2.4137 91.231 3.56478L91.2534 3.57597Z" fill="#575756"/>
</svg>
