<svg width="227" height="42" viewBox="0 0 227 42" fill="none" xmlns="http://www.w3.org/2000/svg">
<path d="M2.86798 17.5685C2.27934 17.6807 1.6814 17.6153 1.1021 17.6246C0.812451 17.6246 0.522821 17.5872 0.186455 17.5685C0.130394 17.3256 0.0369268 17.1201 0.0369268 16.9145C0.0369268 13.4855 0.0369359 10.047 0.0462794 6.61798C0.0462794 6.17884 0.102324 5.73032 0.205103 5.30051C0.532125 3.92702 1.43848 3.14215 2.81197 2.94594C3.39127 2.86184 3.98927 2.82447 4.57791 2.82447C7.45571 2.81512 10.3335 2.82447 13.2113 2.82447C18.4904 2.82447 23.7694 2.82447 29.0391 2.82447C29.5904 2.82447 30.151 2.84323 30.6929 2.89929C32.8513 3.11419 33.5988 4.33817 33.767 5.8051C33.8324 6.39374 33.8604 6.98239 33.8604 7.57103C33.8604 12.4764 33.8604 17.3911 33.8604 22.2964C33.8604 25.5853 33.8791 28.8648 33.8604 32.1537C33.8604 32.8451 33.795 33.5552 33.6455 34.2373C33.3932 35.3772 32.6738 36.1528 31.5339 36.4238C30.8985 36.5826 30.2258 36.648 29.5624 36.648C25.8344 36.6667 22.1063 36.6573 18.3783 36.6573C13.7252 36.6573 9.08144 36.6573 4.42838 36.6573C3.83974 36.6573 3.24175 36.62 2.6718 36.5265C1.27962 36.2929 0.45738 35.4333 0.149044 34.0692C-0.0378258 33.2376 -0.0284503 32.3874 0.0649846 31.4997C0.289229 31.4437 0.494779 31.3595 0.700336 31.3502C1.4011 31.3315 2.09255 31.3502 2.71856 31.3502C3.12968 31.6398 3.03624 31.9949 3.06427 32.3126C3.12967 33.2469 3.43801 33.5646 4.35367 33.602C4.71807 33.6207 5.09175 33.602 5.45614 33.602C13.1645 33.602 20.8823 33.602 28.5906 33.602C28.955 33.602 29.3288 33.6113 29.6932 33.5833C30.3753 33.5272 30.749 33.1348 30.8051 32.4434C30.8237 32.2192 30.8051 32.0042 30.8051 31.78C30.8051 23.8754 30.8051 15.9801 30.8051 8.07551C30.8051 7.70177 30.8144 7.33742 30.7957 6.96368C30.7583 6.34701 30.3846 5.94519 29.7679 5.8611C29.5157 5.82373 29.2541 5.83316 28.9925 5.83316C20.9103 5.83316 12.8282 5.85183 4.74603 5.81445C3.30713 5.81445 3.01751 6.43107 3.02686 7.51492C3.05489 10.4675 3.0362 13.42 3.02686 16.3725C3.02686 16.7369 3.12033 17.1107 2.83068 17.5498L2.86798 17.5685Z" fill="#575756"/>
<path d="M164.51 29.8208C164.239 29.2882 164.314 28.8771 164.314 28.4754C164.314 26.5973 164.314 24.7099 164.314 22.8318C164.314 22.5329 164.314 22.2432 164.305 21.9443C164.286 21.6266 164.127 21.4677 163.819 21.4584C163.454 21.4397 163.081 21.4584 162.716 21.4584C160.763 21.4584 158.811 21.4584 156.848 21.4584C156.484 21.4584 156.12 21.4863 155.849 21.505C155.494 21.804 155.568 22.1218 155.568 22.4021C155.568 24.5044 155.568 26.6067 155.568 28.7089C155.568 29.4502 155.207 29.8239 154.485 29.8301C153.821 29.8301 153.158 29.8301 152.494 29.8301C152.242 29.8301 151.99 29.7834 151.775 29.7554C151.467 29.391 151.569 29.0079 151.56 28.6528C151.56 24.8874 151.56 21.122 151.56 17.3659C151.56 15.1515 151.56 12.9371 151.56 10.7227C151.56 10.3957 151.597 10.078 151.616 9.77901C152.438 9.55476 154.316 9.52666 155.382 9.70419C155.643 9.92843 155.559 10.2461 155.559 10.5264C155.559 12.554 155.559 14.5815 155.559 16.6184C155.559 16.908 155.559 17.1977 155.559 17.534C155.867 17.5901 156.12 17.6742 156.363 17.6742C158.726 17.6836 161.081 17.6836 163.445 17.6742C163.688 17.6742 163.94 17.6088 164.258 17.5621C164.277 17.151 164.305 16.796 164.305 16.4316C164.305 14.4788 164.305 12.5166 164.305 10.5638C164.305 10.2835 164.351 9.99386 164.379 9.73224C165.23 9.54537 167.192 9.52676 168.173 9.6856C168.453 10.0313 168.341 10.4518 168.341 10.8442C168.35 13.096 168.341 15.3477 168.341 17.5995C168.341 21.2154 168.341 24.8314 168.341 28.4473C168.341 28.8491 168.397 29.2508 168.229 29.6806C167.631 29.9609 166.995 29.7927 166.388 29.8114C165.771 29.8394 165.145 29.8114 164.51 29.8114V29.8208Z" fill="#575756"/>
<path d="M198.633 18.4059C199.511 17.4155 200.389 16.4344 201.268 15.444C202.809 13.7061 204.351 11.9682 205.874 10.2117C206.238 9.79121 206.621 9.57628 207.201 9.59497C208.565 9.63234 209.92 9.60432 211.246 9.60432C211.489 9.90331 211.274 10.0435 211.125 10.193C208.864 12.669 206.603 15.1451 204.341 17.6305C204.117 17.8734 203.921 18.1256 203.687 18.4153C203.837 18.6676 203.958 18.8918 204.099 19.0973C206.472 22.433 208.845 25.7686 211.209 29.1042C211.331 29.2724 211.405 29.4686 211.517 29.6835C211.359 29.7582 211.265 29.8424 211.172 29.8424C209.957 29.8424 208.733 29.8143 207.518 29.8517C206.93 29.8704 206.575 29.6555 206.248 29.179C204.631 26.8431 202.977 24.5352 201.333 22.218C201.193 22.0125 201.015 21.835 200.828 21.6015C199.997 22.3583 199.315 23.1804 198.623 23.9933C198.474 24.1615 198.446 24.4699 198.436 24.7128C198.408 25.6004 198.464 26.488 198.408 27.3663C198.362 28.1512 198.661 28.9828 198.194 29.7302C197.437 29.9451 196.661 29.805 195.895 29.833C195.456 29.8517 195.026 29.8143 194.662 29.805C194.297 29.4125 194.4 29.0295 194.4 28.6744C194.391 26.0209 194.391 23.358 194.391 20.7044C194.391 17.2753 194.391 13.8463 194.391 10.4078C194.391 10.1929 194.428 9.97807 194.447 9.73514C195.073 9.46418 195.708 9.63235 196.315 9.60432C196.941 9.57629 197.558 9.60432 198.091 9.60432C198.493 9.93134 198.408 10.2865 198.408 10.6041C198.408 13.0054 198.408 15.3973 198.408 17.7986C198.408 17.9761 198.408 18.1443 198.408 18.3219C198.474 18.3499 198.549 18.3779 198.614 18.4059H198.633Z" fill="#575756"/>
<path d="M79.0382 29.7275C78.2066 29.877 76.1044 29.8863 75.0112 29.7275C74.3198 28.3166 73.9741 26.7096 73.2733 25.2987C72.4044 25.1679 66.4432 25.1398 65.2752 25.2613C64.9389 25.4855 64.8922 25.878 64.7614 26.2143C64.4531 27.0459 64.1633 27.8775 63.8643 28.7184C63.7803 28.9614 63.6869 29.2042 63.5841 29.4378C63.472 29.6994 63.2477 29.8396 62.9674 29.8396C61.8275 29.8209 60.6876 29.7929 59.5477 29.7649C59.5196 29.7649 59.4823 29.7275 59.4542 29.7088C59.3047 29.4005 59.4916 29.1388 59.5944 28.8678C60.5661 26.3544 61.5379 23.8411 62.5002 21.3277C63.8364 17.8519 65.1538 14.3668 66.4899 10.891C66.6488 10.4799 66.8169 10.0781 66.985 9.66703C67.2186 9.639 67.3962 9.60156 67.583 9.60156C68.8724 9.60156 70.1619 9.60156 71.5074 9.60156C71.6475 9.88187 71.797 10.1249 71.8997 10.3959C73.3293 14.1146 74.7589 17.8332 76.1791 21.5519C77.0854 23.9252 77.9824 26.3171 78.8701 28.6997C78.9915 29.0268 79.2437 29.3538 79.0382 29.7368V29.7275ZM66.6393 21.4211C67.4242 21.6173 70.6477 21.6454 71.8157 21.4585C71.797 21.281 71.8157 21.0941 71.7503 20.9352C70.9842 18.8236 70.2179 16.7121 69.4424 14.6004C69.3957 14.479 69.321 14.32 69.1247 14.3948C68.0783 16.9456 66.7701 20.6456 66.6393 21.4118V21.4211Z" fill="#575756"/>
<path d="M173.641 9.60156C174.818 9.60156 175.893 9.60156 176.958 9.60156C177.098 9.60156 177.238 9.64834 177.36 9.66703C177.659 10.0595 177.547 10.4798 177.547 10.8723C177.547 14.4508 177.547 18.0387 177.547 21.6173C177.547 22.2433 177.565 22.8787 177.677 23.486C177.771 23.9812 177.967 24.4858 178.229 24.9156C178.649 25.5883 179.294 26.0275 180.079 26.233C180.92 26.4573 181.761 26.4666 182.592 26.233C183.835 25.8967 184.648 25.0837 184.956 23.841C185.087 23.3085 185.143 22.7478 185.143 22.1966C185.162 18.4311 185.152 14.6658 185.152 10.9003C185.152 10.5359 185.152 10.1716 185.152 9.87256C185.274 9.75109 185.33 9.66702 185.386 9.65768C185.675 9.62965 185.974 9.60156 186.264 9.60156C187.142 9.60156 188.03 9.60156 188.974 9.60156C189.039 9.90055 189.123 10.1342 189.133 10.3771C189.151 11.3022 189.133 12.2271 189.133 13.1428C189.133 16.2822 189.133 19.4216 189.133 22.561C189.133 23.9065 188.89 25.2052 188.282 26.4199C187.497 27.9709 186.301 29.0828 184.685 29.6901C182.573 30.4749 180.424 30.5403 178.285 29.8022C175.949 28.9893 174.454 27.3636 173.837 24.9717C173.669 24.299 173.548 23.5888 173.548 22.8973C173.52 18.6928 173.529 14.479 173.529 10.2744C173.529 10.0969 173.576 9.91925 173.622 9.61092L173.641 9.60156Z" fill="#575756"/>
<path d="M94.5851 13.8463C94.3421 13.7716 94.1085 13.7155 93.8843 13.6221C92.3707 12.9774 90.7917 12.6224 89.1472 12.6971C88.6053 12.7251 88.054 12.8372 87.5214 12.996C87.1757 13.0988 86.8487 13.3045 86.5684 13.538C85.7462 14.2295 85.7274 15.3413 86.5403 16.042C86.8954 16.3504 87.3159 16.612 87.755 16.7989C88.5586 17.1633 89.3995 17.4529 90.2217 17.7706C91.427 18.2377 92.5856 18.7798 93.6694 19.5085C96.6033 21.48 96.8462 26.0303 93.7441 28.4502C92.6136 29.3285 91.3429 29.8891 89.904 30.0292C87.6709 30.2535 85.4845 30.0293 83.3542 29.2912C82.943 29.151 82.5507 28.9361 82.2236 28.7866C81.9807 28.3007 82.1021 27.8896 82.0835 27.4972C82.0648 27.058 82.0648 26.6095 82.0835 26.1704C82.1021 25.7779 81.962 25.3669 82.233 24.9464C82.4572 25.0305 82.6628 25.0959 82.8497 25.1894C84.6717 26.0863 86.5964 26.5068 88.6146 26.5722C89.1752 26.5909 89.7171 26.5161 90.2403 26.3199C91.184 25.9555 91.782 25.3014 91.9128 24.3017C92.0343 23.358 91.5671 22.6479 90.8103 22.1527C90.3244 21.835 89.7825 21.5734 89.2406 21.3398C88.054 20.8353 86.8487 20.3774 85.6527 19.8822C84.8585 19.5552 84.1578 19.088 83.5224 18.5181C81.5229 16.7428 81.4761 13.4819 83.2233 11.5198C84.0549 10.5761 85.1107 9.99677 86.2787 9.595C87.5214 9.1652 88.8107 9.11854 90.1095 9.19329C91.4736 9.27738 92.8191 9.48295 94.0992 10.0249C94.5196 10.2024 94.7533 10.4547 94.7439 10.9312C94.7253 11.7814 94.7439 12.6317 94.7439 13.4819C94.7439 13.5847 94.6598 13.6782 94.5851 13.8463Z" fill="#575756"/>
<path d="M52.22 29.803C50.8279 29.8591 49.5478 29.8591 48.3331 29.803C47.9033 29.4293 47.838 28.9715 47.6885 28.5604C46.2029 24.5427 44.7359 20.525 43.2503 16.5073C42.5309 14.5732 41.802 12.6391 41.0826 10.6956C40.9704 10.3967 40.8957 10.079 40.793 9.75194C41.2695 9.49032 41.7179 9.6211 42.1384 9.60241C42.6149 9.58373 43.1008 9.60241 43.5773 9.60241C44.0165 9.60241 44.4556 9.60241 44.9321 9.60241C45.0629 9.85469 45.203 10.0696 45.2871 10.3032C46.67 14.2368 48.0529 18.1704 49.4357 22.104C49.6786 22.7954 49.9309 23.4868 50.2205 24.2997C50.3794 24.0755 50.5008 23.9447 50.5569 23.8046C51.9117 19.9364 53.2479 16.0681 54.5933 12.1999C54.883 11.3684 55.21 10.5461 55.509 9.73324C56.3125 9.56505 58.5549 9.54634 59.5453 9.70518C59.536 9.87336 59.564 10.0603 59.5079 10.2098C57.8074 14.8161 56.1069 19.4225 54.397 24.0195C53.8364 25.5425 53.2665 27.0655 52.6966 28.5885C52.5564 28.9622 52.3976 29.3359 52.2107 29.803H52.22Z" fill="#575756"/>
<path d="M146.776 25.011C146.832 25.3006 146.888 25.4315 146.888 25.5717C146.888 26.4219 146.869 27.2722 146.888 28.1224C146.897 28.5896 146.71 28.8885 146.308 29.0941C145.411 29.5425 144.505 29.9257 143.496 30.0565C141.73 30.2994 139.974 30.3555 138.208 30.0565C133.05 29.1688 128.873 24.4037 129.724 18.1903C130.35 13.5839 133.508 10.5006 137.507 9.52883C140.273 8.8561 143.001 9.07098 145.626 10.2109C145.832 10.295 146.028 10.4071 146.224 10.4912C146.673 10.6874 146.897 11.0051 146.878 11.5284C146.85 12.5188 146.878 13.5186 146.878 14.6024C146.635 14.537 146.458 14.5276 146.318 14.4435C144.879 13.5839 143.337 12.9859 141.665 12.7803C140.702 12.6589 139.749 12.6589 138.806 12.9018C136.068 13.6213 134.47 15.4245 133.807 18.1248C133.555 19.1432 133.573 20.1524 133.779 21.1988C134.405 24.3383 137.021 26.4966 140.179 26.6648C142.179 26.7769 144.066 26.3191 145.851 25.4408C146.112 25.31 146.374 25.1885 146.766 25.0016L146.776 25.011Z" fill="#575756"/>
<path d="M103.217 13.0635C101.918 12.8486 100.732 13.0634 99.5639 12.9139C99.2555 12.3813 99.4143 11.8207 99.3956 11.2882C99.3769 10.7836 99.3489 10.2603 99.4143 9.82118C99.5171 9.73709 99.5451 9.70916 99.5731 9.69047C99.6011 9.67178 99.6386 9.64371 99.6666 9.64371C103.283 9.63436 106.889 9.625 110.505 9.625C110.608 9.625 110.711 9.67169 110.86 9.70906C110.907 9.83052 110.991 9.97072 110.991 10.1015C110.963 11.0078 111.094 11.9328 110.897 12.8765C109.711 13.1101 108.524 12.8392 107.319 13.0541C107.272 13.2597 107.207 13.4372 107.207 13.6053C107.207 17.6604 107.207 21.7249 107.207 25.7799C107.207 25.9575 107.253 26.135 107.281 26.3312C107.889 26.5367 108.477 26.4153 109.057 26.4433C109.636 26.4713 110.234 26.3779 110.832 26.5274C111.122 27.0506 110.972 27.6206 110.982 28.1532C110.991 28.6578 111.075 29.181 110.879 29.7322C110.664 29.7696 110.458 29.8443 110.253 29.8443C106.936 29.8443 103.61 29.8443 100.293 29.8443C100.04 29.8443 99.7881 29.7883 99.5639 29.7603C99.3209 28.9567 99.3116 27.4243 99.5452 26.5461C100.106 26.3592 100.694 26.4713 101.274 26.4526C101.862 26.434 102.451 26.4526 102.946 26.4526C103.329 26.1256 103.245 25.7706 103.245 25.4529C103.245 23.4254 103.245 21.3978 103.245 19.361C103.245 17.6604 103.245 15.9692 103.245 14.2687C103.245 13.9043 103.236 13.54 103.217 13.0635Z" fill="#575756"/>
<path d="M222.748 26.4309H226.262C226.673 26.9915 226.476 27.5615 226.504 28.0941C226.533 28.608 226.495 29.1219 226.476 29.6545C226.243 29.7293 226.075 29.832 225.906 29.832C222.477 29.832 219.039 29.832 215.61 29.832C215.432 29.832 215.255 29.776 215.059 29.7479C214.732 29.2247 214.9 28.6547 214.89 28.1222C214.881 27.6176 214.778 27.0943 214.984 26.5524C216.142 26.3001 217.329 26.5524 218.432 26.4029C218.777 26.1506 218.712 25.8424 218.712 25.5527C218.712 23.8896 218.712 22.2263 218.712 20.5725C218.712 18.5076 218.712 16.4335 218.712 14.3686C218.712 13.9668 218.693 13.5649 218.684 13.1165C218.432 13.0604 218.226 12.9764 218.021 12.967C217.357 12.9484 216.694 12.967 216.03 12.967C215.703 12.967 215.376 12.9296 215.077 12.9203C214.834 12.1821 214.797 11.3226 214.937 9.80893C215.274 9.49125 215.703 9.62199 216.086 9.61264C219.002 9.6033 221.917 9.61264 224.832 9.61264C225.308 9.61264 225.785 9.61264 226.215 9.61264C226.626 9.93966 226.467 10.3415 226.495 10.6872C226.523 11.0516 226.514 11.4254 226.504 11.7898C226.495 12.1541 226.579 12.5372 226.308 12.8922C225.178 13.0884 223.991 12.8455 222.814 13.0417C222.571 13.4435 222.655 13.8547 222.655 14.2471C222.655 18.0125 222.655 21.7779 222.655 25.5433C222.655 25.7956 222.692 26.0385 222.73 26.4403L222.748 26.4309Z" fill="#575756"/>
<path d="M13.211 12.5549C11.9683 12.7511 10.7537 12.5362 9.58572 12.7044C9.27739 13.1155 9.3989 13.5359 9.3989 13.9283C9.3989 18.3945 9.3989 22.87 9.3989 27.3362C9.3989 27.8875 9.3989 28.4481 9.3989 28.9994C9.3989 29.2143 9.36146 29.4292 9.33343 29.7001C9.10919 29.7562 8.90369 29.831 8.69814 29.8403C8.18424 29.859 7.66098 29.8216 7.14708 29.8497C6.52107 29.8964 6.11925 29.6721 5.81091 29.1115C5.10081 27.8221 4.32528 26.5608 3.5778 25.29C3.48437 25.1312 3.39101 24.9724 3.30692 24.8322C2.99858 24.8603 3.02657 25.0471 3.02657 25.2339C3.02657 26.486 3.04527 27.7474 3.03592 28.9994C3.03592 29.2517 2.97053 29.4947 2.93316 29.7656C2.0829 29.9245 1.27 29.8403 0.466461 29.8216C0.22353 29.8216 0.0740224 29.6348 0.045992 29.3825C0.027305 29.1956 0.0366872 29.0181 0.0273438 28.8313C0.0273438 26.0282 0.0273438 23.2158 0.0273438 20.4128C0.0273438 20.1605 0.0647155 19.9082 0.0834024 19.6092C0.307646 19.5532 0.513206 19.4597 0.728106 19.4504C1.35412 19.4317 1.98014 19.4503 2.60616 19.4317C3.02662 19.4223 3.29754 19.5999 3.5031 19.9549C4.28795 21.2911 5.07283 22.6271 5.86703 23.9632C5.96046 24.1127 6.07251 24.2529 6.25938 24.5052C6.33413 24.2623 6.40891 24.1502 6.40891 24.0287C6.40891 19.5251 6.40891 15.0216 6.40891 10.5087C6.40891 10.2658 6.44634 10.0135 6.46503 9.78922C7.2966 9.63972 10.8938 9.56496 12.7064 9.65839C12.8839 9.65839 13.0521 9.72379 13.267 9.77051C13.3511 10.7142 13.3979 11.6205 13.2297 12.5642L13.211 12.5549Z" fill="#575756"/>
<path d="M116.038 9.68986C117.3 9.54971 119.01 9.5777 119.748 9.76457C119.916 10.8017 119.804 11.8669 119.832 12.9227C119.86 13.9878 119.832 15.0623 119.832 16.1368C119.832 17.2393 119.832 18.3512 119.832 19.4538C119.832 20.5283 119.822 21.5934 119.841 22.6679C119.86 23.733 119.748 24.7983 119.897 25.9289C120.205 25.9569 120.486 26.0129 120.766 26.0129C122.682 26.0129 124.606 26.0129 126.522 26.0129C126.886 26.0129 127.26 25.9382 127.596 26.1344C127.858 26.966 127.858 28.872 127.596 29.7316C127.475 29.7596 127.335 29.8344 127.194 29.8344C123.579 29.8344 119.963 29.8344 116.347 29.8344C116.244 29.8344 116.141 29.769 115.982 29.7129C115.945 29.4887 115.88 29.2457 115.88 28.9934C115.87 27.6293 115.88 26.2651 115.88 24.901C115.88 20.2106 115.88 15.5295 115.88 10.8391C115.88 10.484 115.786 10.101 116.048 9.69921L116.038 9.68986Z" fill="#575756"/>
<path d="M24.199 29.7435C23.9187 29.3324 24.0308 28.9119 24.0308 28.5101C24.0308 23.6795 24.0308 18.849 24.0308 14.0184C24.0308 13.6167 24.0122 13.2242 23.9935 12.7757C23.7225 12.7196 23.5169 12.6542 23.3113 12.6449C22.6853 12.6262 22.0593 12.6449 21.4333 12.6449C21.1716 12.6449 20.9194 12.6542 20.6578 12.6449C20.2 12.6168 20.0411 12.4767 20.0317 12.0469C20.0131 11.3181 20.0317 10.5799 20.0317 9.8231C20.2653 9.7577 20.4336 9.67367 20.6018 9.65498C21.8258 9.5522 26.2079 9.6363 26.9087 9.77645C27.1422 10.0848 27.0394 10.4679 27.0394 10.8229C27.0394 13.8128 27.0394 16.7934 27.0394 19.7833C27.0394 22.6985 27.0394 25.6136 27.0394 28.5194C27.0394 28.8838 27.0208 29.2483 27.0021 29.6314C26.8245 29.7061 26.6937 29.8089 26.5722 29.8089C25.7686 29.8182 24.9652 29.9397 24.199 29.7435Z" fill="#575756"/>
<path d="M20.1705 14.5193C20.3107 15.6685 20.3013 20.6019 20.1705 21.555C19.4137 21.8259 18.6288 21.7511 17.8346 21.6297C17.4796 20.985 17.8347 20.275 17.5263 19.6116C17.3301 19.5835 17.1245 19.5554 16.9096 19.5274C16.3957 19.462 15.8818 19.434 15.3773 19.3219C14.3028 19.0789 13.6208 18.3875 13.3685 17.3317C13.1536 16.4347 13.1629 15.5191 13.2656 14.5754C13.6861 14.3699 14.0973 14.4539 14.4897 14.4446C14.8915 14.4352 15.2932 14.4633 15.6296 14.4726C15.9753 14.8557 15.8632 15.2388 15.8725 15.5938C15.9005 16.7431 16.0968 16.9206 17.274 16.8365C17.3394 16.8365 17.4142 16.7804 17.5076 16.743C17.872 16.0797 17.489 15.3042 17.7599 14.538C18.5261 14.3511 19.3109 14.4072 20.1611 14.5006L20.1705 14.5193Z" fill="#575756"/>
<path d="M185.457 37.5679C185.457 35.3628 187.251 33.5594 189.465 33.5314C191.773 33.5127 193.511 35.2414 193.511 37.6053C193.511 39.5954 192.025 41.6509 189.391 41.6323C186.709 41.6136 185.476 39.4739 185.457 37.5679ZM187.13 37.5585C187.139 38.0817 187.242 38.5769 187.522 39.0254C188.251 40.2027 189.792 40.5297 190.867 39.6608C192.287 38.5022 192.063 36.3998 190.904 35.5122C190.428 35.1478 189.886 34.9611 189.26 35.0358C187.999 35.1946 187.139 36.1944 187.13 37.5585Z" fill="#575756"/>
<path d="M218.087 41.2715C217.742 41.3276 217.536 41.3743 217.321 41.393C216.919 41.4303 216.62 41.2715 216.396 40.9164C215.592 39.6364 214.77 38.3751 213.948 37.1043C213.836 36.9268 213.705 36.7586 213.5 36.4783C213.322 37.0015 213.509 37.3846 213.481 37.7583C213.453 38.1227 213.481 38.4965 213.481 38.8609C213.481 39.2627 213.481 39.6737 213.481 40.0755C213.481 40.4399 213.481 40.8043 213.481 41.1594C212.986 41.5144 212.556 41.4771 212.051 41.1687C212.033 38.7581 212.051 36.3381 212.051 33.8808C212.416 33.834 212.659 33.7967 212.902 33.7686C213.266 33.7406 213.537 33.9089 213.724 34.2172C214.06 34.7498 214.406 35.2636 214.742 35.7962C215.322 36.6932 215.892 37.5902 216.461 38.4872C216.667 38.4591 216.695 38.3284 216.695 38.1695C216.695 37.0296 216.676 35.8803 216.686 34.7404C216.686 34.4601 216.732 34.1704 216.76 33.8901C217.218 33.7406 217.601 33.722 218.022 33.9088C218.05 34.1237 218.115 34.3387 218.115 34.5442C218.115 36.7493 218.153 38.9543 218.087 41.2715Z" fill="#575756"/>
<path d="M200.504 41.2599C200.308 41.2973 200.102 41.3533 199.887 41.372C199.439 41.4187 199.131 41.2413 198.888 40.8489C198.047 39.5034 197.187 38.1766 196.328 36.8498C196.253 36.7377 196.15 36.6442 195.982 36.4573C195.823 36.9619 196.019 37.3451 195.991 37.7188C195.963 38.1206 195.991 38.5316 195.991 38.9334C195.991 39.2978 195.991 39.6716 195.991 40.036C195.991 40.4377 196.075 40.8489 195.851 41.232C195.468 41.4282 195.085 41.4095 194.664 41.2133C194.477 40.4284 194.608 39.6248 194.58 38.8213C194.552 37.971 194.552 37.1301 194.58 36.2799C194.599 35.4763 194.468 34.6727 194.664 33.8785C195.094 33.6917 195.487 33.7571 195.944 33.8038C197.028 35.3081 198.028 36.8872 199.018 38.4849C199.308 38.4662 199.224 38.2419 199.224 38.0831C199.224 36.9432 199.224 35.8034 199.224 34.6541C199.224 34.4018 199.252 34.1495 199.271 33.8879C199.701 33.701 200.084 33.7198 200.523 33.8506C200.56 34.0561 200.626 34.271 200.635 34.4765C200.747 37.018 200.682 40.3536 200.504 41.2412V41.2599Z" fill="#575756"/>
<path d="M164.774 38.2111C163.811 38.1457 162.942 38.099 162.017 38.2392C161.821 39.2389 162.045 40.2387 161.868 41.2198C161.391 41.5001 160.924 41.3973 160.41 41.3226C160.177 40.5097 160.326 39.7061 160.307 38.9119C160.289 38.0616 160.289 37.2207 160.289 36.3705C160.289 35.5669 160.298 34.7634 160.307 33.9412C160.812 33.6702 161.27 33.7543 161.765 33.8478C162.111 34.7354 161.765 35.6791 161.989 36.6228C162.877 36.8844 163.783 36.7349 164.727 36.7162C165.045 35.7818 164.727 34.8475 164.932 33.9318C165.39 33.6796 165.858 33.773 166.371 33.8197C166.427 33.9972 166.53 34.1655 166.53 34.3243C166.54 36.5013 166.549 38.669 166.54 40.846C166.54 40.9862 166.465 41.1169 166.427 41.2478C165.932 41.4627 165.474 41.4253 164.979 41.2571C164.717 40.2947 165.017 39.2856 164.764 38.2111H164.774Z" fill="#575756"/>
<path d="M184.292 41.2825C184.039 41.3199 183.862 41.3759 183.684 41.3759C183.432 41.3759 183.18 41.3386 182.881 41.3106C182.582 40.3295 182.881 39.3204 182.666 38.302C181.76 38.0497 180.863 38.2086 179.91 38.1992C179.657 39.227 179.956 40.2361 179.732 41.1798C179.106 41.4414 179.106 41.4414 178.265 41.2919C178.228 41.1517 178.144 40.9835 178.144 40.8153C178.134 38.6757 178.134 36.536 178.144 34.3964C178.144 34.2188 178.209 34.0506 178.237 33.8824C178.714 33.6956 179.153 33.8077 179.611 33.7984C180.04 34.7421 179.62 35.7325 179.882 36.6295C180.797 36.8257 181.816 36.8163 182.666 36.6108C182.843 36.1716 182.722 35.6858 182.759 35.2186C182.787 34.7888 182.694 34.3403 182.862 33.8824C183.301 33.7049 183.74 33.817 184.198 33.7797C184.264 33.9946 184.366 34.1628 184.366 34.331C184.376 36.4707 184.366 38.6103 184.366 40.75C184.366 40.8901 184.329 41.0396 184.301 41.2919L184.292 41.2825Z" fill="#575756"/>
<path d="M158.897 36.0961C158.355 36.3297 157.879 36.1989 157.384 36.1989C157.243 36.0307 157.094 35.8718 156.963 35.7036C155.889 34.3769 153.945 34.8908 153.357 36.3203C153.002 37.1799 153.02 38.0582 153.422 38.8898C153.824 39.712 154.487 40.1978 155.431 40.1978C156.047 40.1978 156.58 39.9736 156.963 39.4597C157.094 39.2822 157.215 39.0954 157.356 38.8991C157.888 38.7123 158.421 38.7309 159 38.8804C158.972 39.058 158.981 39.2074 158.925 39.3289C158.253 40.7865 156.916 41.7582 155.001 41.6087C153.329 41.4685 152.039 40.3754 151.591 38.7496C151.123 37.0398 151.665 35.3018 153.011 34.2928C154.665 33.0501 157.449 33.2183 158.682 35.3766C158.804 35.5822 158.823 35.8345 158.897 36.0867V36.0961Z" fill="#575756"/>
<path d="M172.114 39.7101C171.171 39.6353 170.302 39.5792 169.386 39.7567C169.246 40.1492 169.106 40.5229 168.975 40.906C168.863 41.2143 168.648 41.4012 168.321 41.4012C167.994 41.4012 167.676 41.3545 167.405 41.3358C167.34 41.2331 167.312 41.2143 167.303 41.177C167.293 41.1396 167.274 41.1022 167.284 41.0648C168.209 38.6636 169.134 36.2622 170.059 33.8796C170.582 33.6928 171.049 33.7395 171.6 33.8236C172.61 36.2062 173.441 38.6729 174.366 41.1583C173.843 41.4946 173.348 41.4385 172.871 41.2423C172.731 41.1863 172.638 40.9714 172.563 40.8126C172.395 40.4482 172.264 40.0745 172.114 39.7007V39.7101ZM171.685 38.3365C171.376 37.4956 171.208 36.6547 170.675 35.7483C170.47 36.7294 170.059 37.4676 169.919 38.3272C170.517 38.514 171.068 38.4953 171.694 38.3272L171.685 38.3365Z" fill="#575756"/>
<path d="M208.435 41.177C207.977 41.4853 207.529 41.4199 207.108 41.3545C206.968 41.3358 206.809 41.149 206.734 40.9995C206.604 40.7379 206.529 40.4482 206.435 40.1679C206.333 39.8596 206.127 39.6633 205.791 39.6633C205.062 39.6633 204.324 39.6821 203.53 39.6914C203.361 40.1212 203.193 40.5229 203.034 40.9247C202.913 41.233 202.707 41.4199 202.371 41.4012C202.044 41.3825 201.708 41.4853 201.418 41.261C201.539 40.5042 203.754 34.7767 204.286 33.8517C204.726 33.7489 205.183 33.7396 205.716 33.8704C206.706 36.2717 207.51 38.7477 208.435 41.1957V41.177ZM204.987 35.9353C204.875 36.0007 204.744 36.0288 204.726 36.0942C204.501 36.6828 204.287 37.2714 204.09 37.86C204.034 38.0188 204.053 38.1871 204.034 38.4113C204.642 38.43 205.183 38.5515 205.772 38.2992C205.51 37.505 205.258 36.7388 204.997 35.9259L204.987 35.9353Z" fill="#575756"/>
<path d="M222.9 0C223.572 0.56061 224.348 1.66308 224.918 2.85905C224.806 2.96183 224.693 3.11132 224.553 3.20476C222.488 4.41007 220.414 5.60601 218.34 6.80198C218.284 6.83935 218.2 6.83942 218.088 6.86745C217.527 6.35355 217.172 5.67147 216.742 4.9894C217.312 4.2606 218.106 3.84007 218.77 3.27946C219.442 2.70951 220.153 2.17703 220.844 1.62576C221.535 1.08384 222.227 0.541818 222.9 0.00923856V0Z" fill="#575756"/>
<path d="M13.3336 26.0041C13.2215 25.1725 13.2494 24.425 13.2868 23.6495C13.483 23.5841 13.6232 23.5 13.754 23.5C15.7348 23.5 17.7156 23.5 19.7058 23.5C19.8459 23.5 19.9861 23.556 20.1636 23.6028C20.3692 24.3689 20.2291 25.1352 20.2478 25.92C20.0516 25.9855 19.8927 26.0975 19.7245 26.0975C17.781 26.0975 15.8283 26.0975 13.8848 26.0882C13.7447 26.0882 13.5952 26.0415 13.3242 26.0041H13.3336Z" fill="#575756"/>
<path d="M226.372 41.2198C225.88 41.3631 225.391 41.3506 224.905 41.1824C224.905 40.22 224.886 39.2296 224.886 38.2392C224.886 37.2862 224.886 36.3238 224.886 35.3521C224.512 35.24 224.204 35.1465 223.877 35.0437C223.728 34.6606 223.737 34.2776 223.886 33.8291C224.699 33.7357 225.494 33.7263 226.353 33.8478C226.559 34.6794 226.428 35.4829 226.447 36.2771C226.465 37.1273 226.465 37.9776 226.447 38.8278C226.428 39.6314 226.54 40.4443 226.381 41.2292L226.372 41.2198Z" fill="#575756"/>
<path d="M175.106 33.9114C175.601 33.7058 176.031 33.7806 176.526 33.818C176.582 33.9955 176.676 34.1637 176.676 34.3319C176.676 36.5089 176.676 38.686 176.676 40.863C176.676 41.0032 176.61 41.1433 176.582 41.2928C176.096 41.489 175.639 41.3956 175.115 41.3489C175.003 40.4706 175.087 39.667 175.059 38.8635C175.031 38.0132 175.059 37.163 175.059 36.3221C175.059 35.5185 175.013 34.7149 175.115 33.9207L175.106 33.9114Z" fill="#575756"/>
<path d="M223.114 37.6C223.123 38.824 222.18 39.7676 220.946 39.7582C219.685 39.7582 218.723 38.8425 218.751 37.6186C218.779 36.4506 219.62 35.5443 220.872 35.5163C222.142 35.4882 223.095 36.3853 223.114 37.6ZM220.946 38.6558C221.432 38.6838 221.918 38.1979 221.946 37.6747C221.974 37.1608 221.535 36.6562 221.021 36.6188C220.489 36.5815 220.021 36.9926 219.975 37.5345C219.928 38.1138 220.367 38.6277 220.946 38.6558Z" fill="#575756"/>
<path d="M222.833 40.4C222.852 40.7271 222.861 40.9419 222.87 41.1942C222.693 41.2596 222.534 41.3623 222.366 41.3623C221.413 41.381 220.46 41.381 219.507 41.3623C219.077 41.3623 218.927 41.2128 218.918 40.8858C218.918 40.5308 219.077 40.3252 219.45 40.3346C220.544 40.3439 221.637 40.2692 222.833 40.3907V40.4Z" fill="#575756"/>
</svg>
