<svg width="45" height="16" viewBox="0 0 45 16" fill="none" xmlns="http://www.w3.org/2000/svg">
<path d="M5.66869 8.14877C5.69164 8.07533 5.72836 8.00645 5.76967 7.94677C5.86147 7.80448 5.98081 7.68518 6.11392 7.5842L6.12769 7.57501L8.07387 6.19341L8.17026 6.12454C8.21616 6.09241 8.35845 5.99601 8.35845 5.99601C8.66599 5.77569 8.97352 5.53242 9.20302 5.25702C9.75841 4.58687 9.96956 3.7561 9.43711 2.6958C9.04696 1.92467 8.28501 1.53908 7.57815 1.35089C6.91718 1.17188 6.03131 1.17188 6.03131 1.17188H0V15.1899H2.5796V1.46105C2.68976 1.46105 2.8091 1.46105 2.94221 1.46105H4.57626C4.57626 1.46105 4.80577 1.46109 5.05363 1.49781C6.12311 1.686 7.21094 2.37448 7.49094 3.99476C7.67454 5.05506 7.44962 5.7895 7.15127 6.26686C7.07324 6.39079 6.85292 6.66618 6.32507 7.05174C5.93033 7.34091 5.27395 7.8183 4.53955 8.33697C3.18549 9.2917 4.20447 10.586 4.20447 10.586L8.1519 15.1853H11.3879C11.3879 15.1853 6.74276 10.0261 5.94868 9.09888C5.62738 8.7225 5.59525 8.39662 5.66869 8.14417V8.14877Z" fill="#575756"/>
<path d="M28.5812 4.96486C26.3321 4.90519 24.9138 6.81927 24.7072 7.11762V5.0567H22.0726V9.10508C21.9395 9.64212 20.8883 13.4106 17.377 13.5575C17.377 13.5575 15.3711 13.7089 14.0171 12.3043C12.6676 10.8998 12.7777 9.31164 12.8833 8.3615H18.6576C18.6576 8.3615 19.1533 8.38445 19.5664 8.30642C19.8005 8.26052 19.9795 8.14579 20.0621 8.03563C20.3329 7.69137 20.3054 7.13596 20.1034 6.63564C19.9015 6.12615 18.9697 4.88224 16.459 4.96486C13.8702 5.05207 12.4381 6.36945 11.5201 7.58581C10.5516 8.86643 10.5103 10.6795 10.5103 10.6795C10.5103 10.6795 10.2395 15.1043 15.3849 15.4715C15.3849 15.4715 17.0511 15.5679 18.4281 14.7233C19.7317 13.9292 21.1087 12.5017 22.0726 9.97261V15.2879H24.7072V7.62711C25.8134 5.85994 27.1905 5.91963 27.1905 5.91963C29.4855 5.86913 29.2835 8.92147 29.2835 8.92147V15.2879H31.831V11.8637C31.831 10.8585 31.831 9.59622 31.7759 8.13659C31.6611 4.87308 28.5812 4.96486 28.5812 4.96486ZM15.7659 5.2862C16.9593 5.27243 17.7029 6.06649 17.657 7.10843C17.6156 8.0907 16.4498 8.04941 16.4498 8.04941L12.92 8.08611C13.2413 6.13993 14.577 5.29997 15.7659 5.2862Z" fill="#575756"/>
<path d="M44.4239 9.03622C44.4239 9.03622 43.5059 13.3922 39.7742 13.5574C39.7742 13.5574 37.7913 13.7089 36.4602 12.3043C35.1245 10.8998 35.2392 9.31164 35.3402 8.3615H41.041C41.041 8.3615 41.5322 8.38445 41.9361 8.30642C42.1702 8.26052 42.34 8.14579 42.4272 8.03563C42.6935 7.69137 42.6659 7.13596 42.4685 6.63564C42.2666 6.12615 41.3486 4.88224 38.87 4.96486C36.3133 5.05207 34.8996 6.36945 33.9907 7.58581C33.036 8.86643 32.9947 10.6795 32.9947 10.6795C32.9947 10.6795 32.7239 15.1043 37.8051 15.4715C37.8051 15.4715 39.4299 15.5357 40.8115 14.7233C42.2528 13.8741 43.8042 12.3227 44.6718 9.11427L44.4239 9.03622ZM38.1815 5.2816C39.3565 5.26783 40.0909 6.0619 40.0496 7.10383C40.0083 8.0861 38.8562 8.04935 38.8562 8.04935L35.3678 8.08611C35.6845 6.13993 37.0064 5.29996 38.1815 5.2816Z" fill="#575756"/>
<path d="M37.8109 3.79204C38.348 3.2596 39.9361 2.07075 40.4364 1.75404C41.024 1.38224 41.1846 1.05175 41.1708 0.712089C41.1617 0.514717 41.0836 0.372458 41.0194 0.285247C40.9781 0.225576 40.9092 0.165901 40.9092 0.165901C40.8266 0.0924607 40.6935 0.00525676 40.5099 0.000666721C40.1932 -0.0131034 39.8627 0.184259 39.546 0.794734C39.2614 1.34095 38.1552 3.053 37.6641 3.63135L37.7375 3.71399L37.8109 3.79204Z" fill="#575756"/>
</svg>
