<svg width="119" height="35" viewBox="0 0 119 35" fill="none" xmlns="http://www.w3.org/2000/svg">
<path d="M105.032 20.0124H97.8283C97.7909 20.7692 97.7442 21.5074 97.7068 22.2362C97.5667 24.7122 97.1088 27.1134 95.8755 29.2998C94.2871 32.1215 91.8204 33.6726 88.653 34.1491C86.7282 34.4388 84.8128 34.364 82.9721 33.6913C80.0102 32.6075 78.1228 30.4491 76.9736 27.5713C76.114 25.4129 75.7683 23.1612 75.759 20.8534C75.759 19.9844 75.7496 19.975 74.8713 19.975C73.7781 19.975 72.685 19.975 71.5637 19.975C71.5077 21.0215 71.4796 22.0026 71.3956 22.9837C71.1807 25.413 70.6293 27.7395 69.3026 29.8324C68.0225 31.8413 66.2099 33.1307 63.9581 33.8034C61.725 34.4668 59.4732 34.4948 57.2308 33.8501C54.3156 32.9998 52.3442 31.0471 51.0547 28.3562C49.9335 26.0017 49.5224 23.4975 49.4944 20.9094C49.4851 19.975 49.4944 19.975 48.5881 19.975C46.6259 19.975 44.6638 19.975 42.7017 19.975C42.5428 19.975 42.384 20.0031 42.1317 20.0218C42.2906 20.5544 42.412 21.0215 42.5615 21.4793C43.4491 24.2263 44.3461 26.964 45.2244 29.711C45.3459 30.0941 45.5047 30.2902 45.9532 30.2716C46.738 30.2342 47.5229 30.2435 48.3078 30.2716C48.5413 30.2716 48.8216 30.3276 48.9992 30.4677C49.5878 30.9443 49.5785 32.813 48.9992 33.2895C48.8777 33.3923 48.6628 33.4203 48.4853 33.4203C46.2335 33.4203 43.9817 33.4203 41.73 33.4297C41.3002 33.4297 41.0385 33.2615 40.9824 32.8691C40.9077 32.3085 40.8423 31.7292 40.8797 31.1593C40.9264 30.5426 41.3188 30.2248 41.9728 30.2529C42.5241 30.2809 43.0754 30.2529 43.7294 30.2529C43.4678 29.4119 43.2436 28.6645 43.01 27.9357C42.2158 25.4877 41.4029 23.0397 40.6274 20.5824C40.4872 20.1432 40.2724 19.975 39.7958 19.975C36.8246 19.9844 33.844 19.975 30.8728 19.9657C30.471 19.9657 30.3402 20.1619 30.2374 20.4889C29.4245 23.1332 28.6023 25.768 27.7801 28.4029C27.6306 28.8794 27.4811 29.3466 27.3316 29.8231C27.2195 30.1781 27.3503 30.3183 27.7147 30.2996C28.1912 30.2809 28.6677 30.3183 29.1349 30.2903C29.7048 30.2529 29.9852 30.5612 30.0879 31.047C30.1627 31.4114 30.2094 31.7946 30.1627 32.1496C30.0132 33.4297 29.8076 33.439 28.8265 33.439C24.9864 33.411 21.1462 33.4297 17.2967 33.4297C16.4745 33.4297 16.353 33.3363 16.1848 32.5234C16.1381 32.2804 16.1194 32.0281 16.1194 31.7852C16.1381 30.5051 16.3904 30.2622 17.6424 30.2622C18.1376 30.2622 18.6328 30.2248 19.128 30.2622C19.6513 30.3089 19.754 30.066 19.754 29.6176C19.7447 21.3299 19.7447 13.0516 19.7353 4.76389C19.7353 4.55833 19.7167 4.36204 19.698 4.10042C19.4457 4.09108 19.2308 4.07236 19.0066 4.07236C15.2225 4.07236 11.4477 4.09114 7.66355 4.05377C6.99082 4.05377 6.87868 4.28735 6.88802 4.86665C6.90671 11.7061 6.89738 18.5455 6.89738 25.3756C6.89738 26.964 6.89738 28.5524 6.89738 30.2903C7.73829 30.2903 8.53246 30.309 9.32666 30.2903C9.78449 30.2716 10.0648 30.4678 10.1302 30.8789C10.2143 31.4021 10.3078 31.944 10.2424 32.4673C10.1396 33.2895 9.90597 33.4297 9.04637 33.4297C6.36478 33.4297 3.67386 33.4203 0.992278 33.439C0.394294 33.439 0.0766451 33.1961 0.0299277 32.6542C-0.0167898 32.0842 -0.0074851 31.5049 0.0485759 30.9443C0.0952934 30.5425 0.375614 30.2996 0.824102 30.2996C2.16957 30.2996 3.50568 30.2622 4.85115 30.2996C5.3557 30.309 5.55191 30.2155 5.55191 29.6829C5.53322 21.6101 5.54255 13.5281 5.5332 5.45529C5.5332 4.09114 5.50522 4.09107 4.12238 4.09107C3.15066 4.09107 2.17888 4.08172 1.20716 4.09107C0.637207 4.10041 0.282156 3.8575 0.216752 3.29689C0.160691 2.82972 0.123338 2.34385 0.179399 1.88602C0.26349 1.16657 0.562502 0.961018 1.30998 0.961018C9.15852 0.961018 17.007 0.961018 24.8555 0.961018C25.7525 0.961018 26.0702 1.24134 26.1263 2.14766C26.1357 2.33453 26.145 2.52138 26.1263 2.70825C26.0516 3.86684 25.818 4.09107 24.6781 4.09107C23.6877 4.09107 22.6972 4.09105 21.7068 4.07236C21.2396 4.06302 21.0528 4.22192 21.0528 4.71712C21.0621 13.0422 21.0621 21.3672 21.0621 29.6923C21.0621 29.8698 21.0902 30.0567 21.1089 30.2903C22.0899 30.2903 23.0336 30.2903 23.9773 30.2903C25.5003 30.2903 25.5096 30.2902 25.9581 28.8607C26.8177 26.123 27.6586 23.3855 28.5089 20.6478C28.5649 20.4796 28.5836 20.3021 28.6397 20.0498C28.3594 20.0311 28.1445 20.0031 27.9296 20.0031C26.9205 20.0031 25.9021 20.0031 24.893 20.0031C24.4071 20.0031 24.0987 19.7788 24.0427 19.293C23.9866 18.8071 23.9212 18.3026 23.968 17.8167C24.024 17.144 24.3978 16.8637 25.0798 16.8637C26.444 16.8637 27.8081 16.8637 29.1723 16.8637C29.5273 16.8637 29.6955 16.7889 29.817 16.3965C31.396 11.2763 32.9938 6.15597 34.5915 1.04508C34.6382 0.904925 34.6569 0.74615 34.741 0.643371C34.8718 0.475189 35.0774 0.204159 35.2082 0.222846C35.395 0.250876 35.6286 0.475216 35.7034 0.671429C36.264 2.26917 36.7966 3.8668 37.3292 5.47389C38.5158 9.09916 39.7117 12.7245 40.8703 16.3591C41.0105 16.7982 41.2441 16.873 41.6365 16.873C44.0097 16.8637 46.383 16.8543 48.7656 16.873C49.3262 16.873 49.4663 16.6768 49.457 16.1536C49.4476 13.7149 49.6439 11.2856 50.2512 8.91234C50.8866 6.47369 51.7929 4.12842 53.7643 2.43725C56.4646 0.120063 59.6227 -0.440451 63.0518 0.316372C66.621 1.11057 68.7793 3.46504 70.0594 6.76329C70.8723 8.84689 71.1993 11.024 71.3675 13.229C71.4422 14.2568 71.4703 15.294 71.4983 16.3218C71.4983 16.7142 71.6384 16.873 72.0402 16.8637C73.0493 16.845 74.0677 16.8356 75.0768 16.8637C75.5814 16.8824 75.6842 16.6675 75.7215 16.2097C75.871 14.2008 76.0019 12.1826 76.2728 10.183C76.5251 8.26763 77.1885 6.46431 78.1602 4.78248C79.9355 1.69912 82.7012 0.213557 86.1489 0.045374C91.456 -0.216244 95.0626 2.54004 96.6791 7.707C97.5387 10.454 97.7349 13.2944 97.7816 16.1442C97.7909 16.7142 97.9404 16.8824 98.5103 16.873C100.594 16.845 102.687 16.8637 104.771 16.8543C104.948 16.8543 105.126 16.8262 105.425 16.8076C105.032 15.8171 104.677 14.9015 104.313 13.9951C103.257 11.3323 102.21 8.66007 101.145 5.99718C100.837 5.21232 100.501 4.4368 100.174 3.65195C99.8278 2.82972 99.7064 1.98883 99.8932 1.11055C99.9867 0.690089 100.192 0.484491 100.65 0.484491C106.228 0.493834 111.806 0.493834 117.384 0.484491C117.861 0.484491 118.132 0.67142 118.216 1.12925C118.272 1.45627 118.365 1.77388 118.365 2.1009C118.375 4.14712 118.384 6.19341 118.365 8.23964C118.365 8.62272 118.291 9.02447 118.16 9.38887C118.104 9.55705 117.851 9.73459 117.674 9.75328C117.534 9.77197 117.291 9.56642 117.244 9.41693C117.132 9.07122 117.067 8.69745 117.057 8.33305C117.039 6.81006 117.057 5.28712 117.057 3.70807H102.117C102.322 4.26868 102.491 4.80124 102.706 5.32447C104.21 9.11793 105.705 12.9207 107.247 16.7048C107.555 17.471 107.873 18.2091 107.639 19.022C107.489 19.5452 107.209 20.0311 106.948 20.517C105.294 23.6564 103.631 26.7864 101.967 29.9165C101.855 30.1314 101.771 30.3557 101.631 30.664H117.02C117.029 30.4398 117.057 30.2248 117.057 30.0099C117.057 28.6458 117.048 27.2816 117.076 25.9175C117.085 25.4409 117.113 24.7776 117.739 24.7776C118.328 24.7776 118.365 25.4317 118.375 25.8802C118.403 28.1133 118.412 30.3463 118.375 32.57C118.365 33.6352 118.094 33.8688 117.039 33.8688C111.358 33.8781 105.677 33.8688 99.996 33.8875C99.426 33.8875 99.1084 33.6352 99.0149 33.084C98.8841 32.3085 98.9401 31.561 99.3139 30.8602C101.164 27.3844 103.014 23.9086 104.864 20.4328C104.92 20.3301 104.957 20.2086 105.041 20.0031L105.032 20.0124ZM86.7282 3.12877C86.5694 3.13812 86.261 3.15674 85.9527 3.17542C82.0097 3.38098 78.8423 5.9505 78.0014 9.78134C77.5996 11.622 77.366 13.5186 77.2165 15.3967C77.0016 18.0876 76.8708 20.8066 77.3474 23.4788C77.8706 26.422 79.4029 28.7393 82.1219 30.0847C85.0184 31.5143 88.027 31.4955 91.0075 30.3556C92.8482 29.6549 94.2404 28.3935 95.1467 26.6369C96.1558 24.6841 96.38 22.5539 96.4268 20.3955C96.4268 20.0405 96.2492 19.9657 95.9689 19.9844C95.4364 20.0217 95.1561 19.7322 95.0907 19.237C95.0346 18.7698 94.9598 18.2839 95.0346 17.8354C95.1 17.3963 95.1841 16.8263 95.8475 16.8637C96.3801 16.8917 96.4735 16.6114 96.4455 16.1816C96.3614 14.967 96.3333 13.7429 96.1838 12.5376C95.9129 10.398 95.4177 8.30497 94.0909 6.52971C92.2969 4.12843 89.7929 3.16615 86.7282 3.12877ZM50.7277 16.7796C51.0827 16.817 51.2416 16.845 51.4098 16.845C57.4831 16.845 63.547 16.845 69.6203 16.8543C70.0968 16.8543 70.2182 16.6861 70.1996 16.2376C70.1248 14.0886 70.0314 11.9397 69.424 9.8654C68.8167 7.79114 67.8357 5.93175 65.9576 4.68906C63.5564 3.09133 60.9308 2.81102 58.1932 3.39966C56.1843 3.82946 54.4558 4.81059 53.2224 6.50176C52.3255 7.7351 51.7742 9.14591 51.5313 10.6409C51.2043 12.6497 50.9987 14.6773 50.737 16.7703L50.7277 16.7796ZM50.8118 20.0218C50.7838 24.1329 51.6808 27.8049 55.5023 29.8699C59.1836 31.8694 63.0238 31.7665 66.5182 29.3559C69.7417 27.1322 70.1248 23.6377 70.1622 20.0218H50.8118ZM39.3473 16.789C38.0112 12.6872 36.6844 8.6133 35.367 4.53954C35.3016 4.53954 35.2456 4.5489 35.1802 4.55824C33.9281 8.60398 32.6761 12.6591 31.396 16.789H39.3473Z" fill="#575756"/>
</svg>
