<svg width="59" height="17" viewBox="0 0 59 17" fill="none" xmlns="http://www.w3.org/2000/svg">
<path d="M51.7916 9.57548H48.2394C48.2209 9.9376 48.1979 10.2908 48.1795 10.6395C48.1104 11.8242 47.8846 12.9731 47.2764 14.0193C46.4932 15.3694 45.2769 16.1116 43.715 16.3396C42.7659 16.4782 41.8214 16.4424 40.9138 16.1205C39.4532 15.6019 38.5226 14.5692 37.9559 13.1922C37.532 12.1595 37.3615 11.0821 37.3569 9.97785C37.3569 9.56208 37.3523 9.55758 36.9192 9.55758C36.3802 9.55758 35.8411 9.55758 35.2883 9.55758C35.2606 10.0583 35.2468 10.5277 35.2053 10.9972C35.0994 12.1595 34.8275 13.2727 34.1733 14.2741C33.5421 15.2353 32.6483 15.8523 31.5379 16.1742C30.4368 16.4916 29.3264 16.5049 28.2206 16.1965C26.7832 15.7896 25.811 14.8553 25.1752 13.5678C24.6223 12.4412 24.4196 11.243 24.4058 10.0046C24.4012 9.55758 24.4058 9.55758 23.9589 9.55758C22.9914 9.55758 22.0238 9.55758 21.0563 9.55758C20.978 9.55758 20.8997 9.57101 20.7753 9.57995C20.8536 9.83478 20.9135 10.0583 20.9872 10.2773C21.4249 11.5917 21.8672 12.9016 22.3003 14.216C22.3602 14.3993 22.4385 14.4932 22.6596 14.4842C23.0466 14.4664 23.4337 14.4708 23.8207 14.4842C23.9359 14.4842 24.0741 14.511 24.1616 14.5781C24.4519 14.8061 24.4473 15.7002 24.1616 15.9282C24.1017 15.9774 23.9958 15.9908 23.9082 15.9908C22.7979 15.9908 21.6875 15.9908 20.5771 15.9953C20.3652 15.9953 20.2362 15.9149 20.2085 15.7271C20.1717 15.4588 20.1394 15.1817 20.1579 14.909C20.1809 14.6139 20.3744 14.4619 20.6969 14.4753C20.9687 14.4887 21.2406 14.4753 21.5631 14.4753C21.4341 14.0729 21.3235 13.7153 21.2083 13.3666C20.8167 12.1953 20.4159 11.024 20.0335 9.84818C19.9644 9.63806 19.8584 9.55758 19.6234 9.55758C18.1583 9.56205 16.6886 9.55757 15.2234 9.5531C15.0253 9.5531 14.9608 9.64701 14.9101 9.80348C14.5093 11.0687 14.1039 12.3294 13.6984 13.5901C13.6247 13.8181 13.551 14.0417 13.4773 14.2697C13.422 14.4395 13.4865 14.5066 13.6662 14.4977C13.9012 14.4887 14.1361 14.5066 14.3665 14.4932C14.6475 14.4753 14.7858 14.6228 14.8364 14.8553C14.8733 15.0296 14.8963 15.213 14.8733 15.3828C14.7996 15.9953 14.6982 15.9998 14.2144 15.9998C12.3208 15.9864 10.4272 15.9953 8.52904 15.9953C8.1236 15.9953 8.0637 15.9506 7.98077 15.5617C7.95774 15.4454 7.94852 15.3247 7.94852 15.2085C7.95773 14.596 8.08213 14.4798 8.69951 14.4798C8.9437 14.4798 9.1879 14.4619 9.43208 14.4798C9.69009 14.5021 9.74076 14.3859 9.74076 14.1713C9.73616 10.2059 9.73615 6.24487 9.73154 2.27941C9.73154 2.18105 9.72234 2.08713 9.71312 1.96196C9.58872 1.95748 9.48276 1.94853 9.37219 1.94853C7.50623 1.94853 5.64487 1.95752 3.77891 1.93963C3.44719 1.93963 3.39189 2.0514 3.3965 2.32858C3.40572 5.60109 3.40111 8.87358 3.40111 12.1416C3.40111 12.9016 3.40111 13.6616 3.40111 14.4932C3.81577 14.4932 4.20738 14.5021 4.599 14.4932C4.82476 14.4842 4.963 14.5781 4.99525 14.7748C5.03672 15.0252 5.08279 15.2845 5.05053 15.5348C4.99985 15.9282 4.88466 15.9953 4.46079 15.9953C3.13849 15.9953 1.81159 15.9909 0.489295 15.9998C0.194428 15.9998 0.0377939 15.8836 0.0147574 15.6243C-0.0082791 15.3516 -0.00369092 15.0743 0.0239529 14.8061C0.0469894 14.6139 0.185216 14.4977 0.406367 14.4977C1.06982 14.4977 1.72866 14.4798 2.39211 14.4977C2.64091 14.5021 2.73766 14.4574 2.73766 14.2026C2.72845 10.3399 2.73304 6.47287 2.72844 2.61023C2.72844 1.95752 2.71464 1.95748 2.03276 1.95748C1.5536 1.95748 1.07441 1.95301 0.595254 1.95748C0.314208 1.96195 0.139132 1.84572 0.106881 1.57749C0.0792371 1.35395 0.060818 1.12148 0.0884619 0.902414C0.129928 0.558175 0.277371 0.459825 0.645956 0.459825C4.51609 0.459825 8.3862 0.459825 12.2563 0.459825C12.6986 0.459825 12.8553 0.593953 12.8829 1.02761C12.8876 1.11702 12.8922 1.20642 12.8829 1.29583C12.8461 1.85019 12.7309 1.95748 12.1688 1.95748C11.6804 1.95748 11.192 1.95747 10.7037 1.94853C10.4733 1.94406 10.3812 2.02009 10.3812 2.25703C10.3858 6.24038 10.3858 10.2237 10.3858 14.2071C10.3858 14.292 10.3996 14.3814 10.4088 14.4932C10.8926 14.4932 11.3579 14.4932 11.8233 14.4932C12.5743 14.4932 12.5789 14.4932 12.8 13.8092C13.2239 12.4993 13.6385 11.1894 14.0578 9.87951C14.0854 9.79903 14.0947 9.71408 14.1223 9.59338C13.9841 9.58444 13.8781 9.571 13.7722 9.571C13.2746 9.571 12.7724 9.571 12.2748 9.571C12.0352 9.571 11.8831 9.4637 11.8555 9.23123C11.8279 8.99876 11.7956 8.75736 11.8187 8.52489C11.8463 8.203 12.0306 8.06887 12.3669 8.06887C13.0396 8.06887 13.7123 8.06887 14.3849 8.06887C14.56 8.06887 14.6429 8.03311 14.7028 7.84534C15.4815 5.39543 16.2693 2.94549 17.0572 0.500045C17.0802 0.432986 17.0894 0.357015 17.1309 0.307838C17.1954 0.227367 17.2967 0.0976852 17.3612 0.106626C17.4534 0.120038 17.5686 0.22738 17.6054 0.321263C17.8819 1.08574 18.1445 1.85018 18.4071 2.61913C18.9922 4.35374 19.582 6.08836 20.1533 7.82744C20.2224 8.03756 20.3376 8.07335 20.5311 8.07335C21.7013 8.06888 22.8716 8.06441 24.0464 8.07335C24.3229 8.07335 24.392 7.97945 24.3874 7.7291C24.3828 6.56226 24.4795 5.39989 24.779 4.26435C25.0923 3.09751 25.5392 1.97535 26.5113 1.16617C27.8428 0.0574471 29.4001 -0.210746 31.091 0.151377C32.851 0.531381 33.9153 1.65794 34.5465 3.23608C34.9473 4.23303 35.1086 5.27471 35.1915 6.32978C35.2284 6.82156 35.2422 7.31782 35.256 7.80959C35.256 7.99736 35.3251 8.07334 35.5232 8.06887C36.0208 8.05993 36.523 8.05546 37.0206 8.06887C37.2694 8.07781 37.3201 7.97501 37.3385 7.75595C37.4122 6.79476 37.4767 5.82907 37.6103 4.87235C37.7347 3.95587 38.0619 3.09302 38.541 2.2883C39.4164 0.812991 40.7802 0.102182 42.4802 0.0217104C45.0972 -0.103468 46.8756 1.21535 47.6727 3.68762C48.0966 5.00199 48.1933 6.36108 48.2163 7.72462C48.221 7.99733 48.2947 8.07782 48.5757 8.07335C49.6031 8.05994 50.6352 8.06887 51.6626 8.0644C51.7501 8.0644 51.8377 8.05096 51.9851 8.04202C51.7916 7.56813 51.6165 7.13001 51.4368 6.69635C50.9162 5.42222 50.4002 4.14364 49.875 2.86951C49.7229 2.49397 49.5571 2.12291 49.3958 1.74737C49.2253 1.35396 49.1655 0.951611 49.2576 0.531371C49.3037 0.330191 49.405 0.231818 49.6308 0.231818C52.3813 0.236288 55.1319 0.236288 57.8825 0.231818C58.1174 0.231818 58.251 0.321259 58.2925 0.540321C58.3202 0.696793 58.3662 0.848758 58.3662 1.00523C58.3708 1.9843 58.3754 2.9634 58.3662 3.94247C58.3662 4.12577 58.3294 4.318 58.2649 4.49236C58.2372 4.57283 58.1128 4.65778 58.0253 4.66672C57.9562 4.67566 57.8364 4.57731 57.8133 4.50578C57.758 4.34037 57.7258 4.16153 57.7212 3.98717C57.712 3.25846 57.7212 2.52976 57.7212 1.77422H50.3541C50.4555 2.04246 50.5384 2.29728 50.6444 2.54764C51.3861 4.36272 52.1233 6.18224 52.8835 7.99285C53.0356 8.35944 53.1922 8.71262 53.077 9.10156C53.0033 9.35192 52.8651 9.58444 52.7361 9.81691C51.9206 11.319 51.1005 12.8167 50.2804 14.3143C50.2251 14.4172 50.1837 14.5245 50.1146 14.672H57.7028C57.7074 14.5647 57.7212 14.4619 57.7212 14.359C57.7212 13.7063 57.7166 13.0536 57.7304 12.4009C57.735 12.1729 57.7488 11.8555 58.0575 11.8555C58.3478 11.8555 58.3662 12.1685 58.3708 12.3831C58.3846 13.4515 58.3893 14.52 58.3708 15.584C58.3662 16.0937 58.2326 16.2054 57.712 16.2054C54.9107 16.2099 52.1095 16.2054 49.3083 16.2144C49.0272 16.2144 48.8706 16.0937 48.8245 15.8299C48.76 15.4588 48.7876 15.1012 48.9719 14.7659C49.8842 13.1028 50.7964 11.4397 51.7087 9.77663C51.7363 9.72746 51.7547 9.66936 51.7962 9.571L51.7916 9.57548ZM42.7659 1.49705C42.6876 1.50152 42.5355 1.51042 42.3835 1.51937C40.4392 1.61772 38.8773 2.84718 38.4627 4.68014C38.2646 5.56086 38.1494 6.46835 38.0757 7.36695C37.9697 8.6545 37.9052 9.95546 38.1402 11.2341C38.3982 12.6423 39.1538 13.7511 40.4945 14.3948C41.9228 15.0789 43.4063 15.0699 44.876 14.5245C45.7837 14.1892 46.4702 13.5856 46.9171 12.7451C47.4147 11.8108 47.5252 10.7915 47.5483 9.75879C47.5483 9.5889 47.4607 9.55311 47.3225 9.56205C47.0599 9.57994 46.9217 9.44138 46.8894 9.20443C46.8618 8.9809 46.8249 8.74843 46.8618 8.53384C46.894 8.32372 46.9355 8.05099 47.2626 8.06887C47.5252 8.08228 47.5713 7.94817 47.5575 7.74252C47.516 7.16134 47.5022 6.57567 47.4285 5.99896C47.2949 4.97518 47.0507 3.97373 46.3965 3.12431C45.5119 1.97536 44.2771 1.51493 42.7659 1.49705ZM25.014 8.02865C25.189 8.04653 25.2674 8.05992 25.3503 8.05992C28.3451 8.05992 31.3352 8.05993 34.3299 8.0644C34.5649 8.0644 34.6248 7.98391 34.6156 7.76932C34.5787 6.74107 34.5326 5.71285 34.2332 4.72036C33.9337 3.72788 33.4499 2.8382 32.5239 2.24361C31.3398 1.47913 30.0452 1.34501 28.6952 1.62666C27.7046 1.83231 26.8523 2.30175 26.2441 3.11094C25.8018 3.70107 25.53 4.3761 25.4102 5.09141C25.2489 6.0526 25.1476 7.02275 25.0186 8.02418L25.014 8.02865ZM25.0554 9.57995C25.0416 11.547 25.4839 13.304 27.3683 14.292C29.1836 15.2487 31.0772 15.1995 32.8003 14.0461C34.3898 12.9821 34.5787 11.3101 34.5972 9.57995H25.0554ZM19.4023 8.03313C18.7434 6.07051 18.0892 4.12126 17.4395 2.17206C17.4073 2.17206 17.3797 2.17654 17.3474 2.18101C16.73 4.1168 16.1126 6.0571 15.4814 8.03313H19.4023Z" fill="#575756"/>
</svg>
