<svg width="163" height="32" viewBox="0 0 163 32" fill="none" xmlns="http://www.w3.org/2000/svg">
<path d="M155.429 0H7.34403C3.28895 0 0 3.2889 0 7.34397V24.1623C0 28.2173 3.28895 31.5062 7.34403 31.5062H155.429C159.484 31.5062 162.773 28.2173 162.773 24.1623V7.34397C162.773 3.2889 159.484 0 155.429 0ZM20.6865 22.3123H17.6405V11.7541H13.0809V8.99779H25.2555V11.7541H20.6959V22.3123H20.6865ZM34.7765 22.3123L33.7487 19.5559H27.6287L26.601 22.3123H23.2747L28.507 8.99779H32.8798L38.1122 22.3123H34.7859H34.7765ZM51.7256 22.3123H46.5119L41.644 11.0346V22.3123H38.598V8.99779H43.8117L48.6796 20.2753V8.99779H51.7256V22.3123ZM64.8252 16.893C64.8252 20.3127 62.6949 22.4991 59.2191 22.4991C55.7433 22.4991 53.613 20.3127 53.613 16.893V8.99779H56.659V16.893C56.659 18.6402 57.5559 19.7428 59.2284 19.7428C60.9009 19.7428 61.7979 18.6402 61.7979 16.893V8.99779H64.8439V16.893H64.8252ZM75.1684 22.3123L71.5712 16.7062L69.7492 18.7056V22.3215H66.7032V9.00703H69.7492V14.3889L74.5985 9.00703H78.4013L73.552 14.4263L78.6909 22.3215H75.1684V22.3123ZM82.2695 22.3123H79.2235V8.99779H82.2695V22.3123ZM86.3806 22.3123H84.2877V8.99779H93.8928V10.9972H86.3806V14.8001H93.3228V16.7996H86.3806V22.3123ZM104.554 22.3123L103.283 19.0793H96.7052L95.4345 22.3123H93.0799L98.5552 8.99779H101.442L106.918 22.3123H104.554ZM122.783 22.3123H120.69V10.1564L116.794 22.3123H113.561L109.665 10.1564V22.3123H107.572V8.99779H111.468L115.177 20.6958L118.887 8.99779H122.783V22.3123ZM127.1 22.3123H125.007V8.99779H127.1V22.3123ZM139.358 22.3123H129.277V8.99779H131.37V20.3128H139.358V22.3123ZM144.366 16.893V22.3123H142.273V16.893L136.948 8.99779H139.517L143.32 15.043L147.31 8.99779H149.683L144.357 16.893H144.366Z" fill="#575756"/>
</svg>
