<svg width="210" height="47" viewBox="0 0 210 47" fill="none" xmlns="http://www.w3.org/2000/svg">
<path d="M60.3924 35.7037C60.046 36.0948 59.6437 36.4413 59.2078 36.7319C57.7774 37.693 56.3133 38.6094 54.8717 39.5481C53.6536 40.3304 52.4466 41.1127 51.2285 41.9061C51.1503 41.962 51.0944 42.0626 51.0273 42.152C51.1167 42.2302 51.1838 42.286 51.2844 42.3754C53.7095 40.8444 56.1457 39.3133 58.582 37.7823C58.582 38.0617 58.4814 38.2518 58.3697 38.4306C58.012 39.0229 57.6321 39.604 57.2856 40.2074C56.738 41.1685 56.4922 42.1967 56.4698 43.3143C56.4475 45.08 58.1685 46.6222 60.0013 46.3428C60.7613 46.2311 61.5212 46.0187 62.2588 45.7617C63.7675 45.2364 65.1309 44.4094 66.4608 43.5489C69.0759 41.8614 71.6686 40.1404 74.2725 38.4306C74.3954 38.3523 74.5295 38.2964 74.8424 38.14C74.6525 38.5088 74.5631 38.7099 74.4513 38.8887C74.1607 39.358 73.8478 39.8162 73.5684 40.2968C73.0432 41.1797 72.5626 42.0961 72.3056 43.1019C71.9256 44.6217 72.6744 45.974 74.0378 46.3204C74.5184 46.4434 74.9766 46.3428 75.4348 46.2087C77.1334 45.6946 78.6533 44.8342 80.1285 43.8842C82.9112 42.0962 85.6716 40.2634 88.4207 38.4306C90.2982 37.1789 92.1534 35.9049 93.9973 34.6197C94.6008 34.195 95.1596 33.6809 95.7519 33.2003C95.9978 33.3456 96.2324 33.4797 96.4671 33.6138C96.4224 33.7144 96.4001 33.7815 96.3665 33.8039C94.7573 34.8655 93.3044 36.1172 91.8963 37.4247C90.5776 38.6429 89.4377 39.9951 88.6554 41.6268C88.2978 42.3867 88.0296 43.169 88.0519 44.0295C88.0743 45.013 88.5437 45.717 89.4712 46.0746C90.3206 46.3987 91.1811 46.4881 92.0863 46.2199C93.5056 45.784 94.8355 45.147 96.0872 44.3759C98.244 43.046 100.356 41.6602 102.48 40.2968C102.692 40.1627 102.927 40.0399 103.262 39.8387C103.15 40.2187 103.105 40.431 103.038 40.6321C102.792 41.3585 102.737 42.0961 102.792 42.856C102.904 44.3983 103.888 45.6165 105.352 46.1305C106.704 46.6111 107.989 46.3428 109.274 45.9405C112.169 45.0241 114.739 43.4595 117.198 41.7385C119.612 40.051 121.914 38.207 124.261 36.4189C125.658 35.3572 127.043 34.2843 128.586 33.4462C129.044 33.1891 129.513 33.0998 130.005 33.2786C130.195 33.7927 130.228 33.815 130.027 34.1391C129.737 34.6084 129.424 35.0779 129.055 35.4802C128.172 36.4413 127.256 37.3689 126.339 38.3076C124.428 40.2857 122.506 42.2637 120.595 44.253C120.193 44.6665 119.802 45.0911 119.511 45.6164C120.092 46.3875 120.852 46.0634 121.567 46.0858C121.88 45.8288 122.227 45.5829 122.529 45.2924C123.769 44.0519 124.976 42.7889 126.216 41.5485C127.077 40.6879 127.926 39.7827 128.876 39.0228C130.977 37.3688 133.179 35.8602 135.47 34.4856C136.084 34.1168 136.755 33.8262 137.414 33.5245C137.85 33.3345 138.32 33.2674 138.744 33.5021C139.012 33.8932 138.923 34.2508 138.744 34.5637C138.364 35.1784 138.007 35.8155 137.526 36.3519C136.163 37.8942 134.732 39.3804 133.335 40.8891C132.072 42.2525 130.81 43.6272 129.547 45.0018C129.39 45.1806 129.256 45.3817 129.1 45.6052C129.267 45.7616 129.368 45.9405 129.502 45.9741C130.217 46.1864 130.933 46.2534 131.57 45.7617C131.815 45.5717 132.028 45.3594 132.24 45.1359C133.849 43.5154 135.481 41.9174 137.057 40.2634C138.778 38.4529 140.756 36.9889 142.913 35.726C144.31 34.9102 145.729 34.1503 147.26 33.6138C147.696 33.4574 148.132 33.2338 148.612 33.435C148.914 33.7926 148.746 34.1056 148.534 34.3626C148.176 34.7873 147.796 35.1896 147.405 35.5919C145.952 37.0895 144.455 38.5423 143.058 40.0845C142.298 40.9227 141.65 41.8838 141.069 42.8449C140.253 44.1859 140.823 45.4599 142.32 46.041C143.248 46.3987 144.209 46.5104 145.181 46.1863C145.818 45.974 146.478 45.8176 147.059 45.5158C148.523 44.7782 149.987 44.0295 151.395 43.2025C152.468 42.5655 153.462 41.7944 154.491 41.0792C154.681 40.9562 154.882 40.8668 155.116 40.7327C154.848 41.582 154.502 42.3308 154.379 43.1019C153.999 45.404 155.876 46.8569 157.732 46.1975C158.592 45.8958 159.441 45.5047 160.201 45.013C161.319 44.2977 162.358 43.4595 163.453 42.6548C163.42 42.7666 163.364 42.9008 163.364 43.0237C163.364 43.4931 163.286 43.9848 163.409 44.4206C163.789 45.7729 165.208 46.5775 166.706 46.3204C167.275 46.2199 167.845 46.0523 168.382 45.8512C169.98 45.2588 171.444 44.3871 172.863 43.4596C175.847 41.515 178.809 39.5481 181.77 37.57C183.826 36.2066 185.939 34.899 187.783 33.178C187.95 33.2562 188.129 33.3345 188.297 33.4239C188.386 33.4798 188.464 33.558 188.543 33.625C188.498 33.7032 188.487 33.7592 188.453 33.7927C186.844 34.8544 185.391 36.106 183.983 37.4135C182.664 38.6317 181.513 39.9839 180.742 41.6156C180.384 42.3755 180.138 43.1578 180.138 44.0183C180.138 45.013 180.63 45.6611 181.491 46.0187C182.295 46.3539 183.145 46.5216 184.016 46.2199C184.676 45.9964 185.335 45.784 185.972 45.5046C187.961 44.6106 189.772 43.4148 191.605 42.2637C192.689 41.582 193.728 40.8445 194.79 40.1293C194.935 40.0399 195.103 39.9727 195.337 39.8609C195.192 40.375 195.069 40.7662 194.98 41.1685C194.79 42.1073 194.756 43.046 195.125 43.9624C195.907 45.8846 197.896 46.5551 199.573 46.3204C200.333 46.2087 201.093 45.9963 201.83 45.7505C203.875 45.0576 205.731 43.9848 207.541 42.856C208.055 42.5319 208.569 42.1855 209.061 41.8278C209.161 41.7608 209.184 41.5932 209.273 41.4367C208.86 41.3808 208.681 41.6268 208.469 41.772C206.826 42.8672 205.127 43.8842 203.317 44.6777C202.076 45.2141 200.802 45.5606 199.428 45.4041C198.489 45.2923 197.774 44.89 197.494 43.9512C197.271 43.2248 197.304 42.4761 197.595 41.7385C198.165 41.6267 198.701 41.5149 199.249 41.4255C201.808 40.9897 204.166 40.0398 206.289 38.5535C207.373 37.7935 208.323 36.8994 208.893 35.6813C209.139 35.156 209.351 34.6084 209.184 33.9938C208.927 33.0103 208.089 32.3399 206.982 32.2504C205.831 32.161 204.781 32.4963 203.752 32.9545C201.596 33.9268 199.729 35.3349 197.997 36.8995C196.522 38.2294 195.002 39.4699 193.337 40.5539C192.8 40.9004 192.264 41.258 191.75 41.6268C189.839 42.979 187.816 44.1412 185.659 45.0576C185.078 45.3035 184.452 45.5046 183.838 45.6164C182.765 45.8175 181.681 45.013 182.206 43.5937C182.53 42.722 183.011 41.9509 183.603 41.2356C184.944 39.5928 186.475 38.14 188.051 36.7207C188.844 36.0166 189.615 35.3013 190.387 34.5749C190.621 34.3514 190.878 34.1392 190.912 33.7033C190.454 33.5692 189.995 33.4462 189.559 33.3009C189.135 33.1556 188.654 33.0551 188.408 32.5858C189.314 31.837 190.174 31.0882 190.342 29.87C189.973 28.8531 189.381 28.5849 188.475 29.0431C187.816 29.3783 187.291 29.8701 186.877 30.4736C186.509 30.9988 186.464 31.5464 186.833 32.1052C186.967 32.3063 187.101 32.5186 187.257 32.7421C186.609 33.5579 185.805 34.1502 185 34.7202C183.368 35.8713 181.714 37.0001 180.049 38.1288C177.613 39.7828 175.188 41.4592 172.718 43.0573C171.232 44.0295 169.678 44.9123 167.968 45.4599C167.454 45.6275 166.94 45.6834 166.415 45.594C165.923 45.5046 165.588 45.2476 165.499 44.7558C165.443 44.4094 165.431 44.0406 165.465 43.6942C165.577 42.7219 166.203 42.0291 166.817 41.3586C167.924 40.1516 169.064 38.9669 170.192 37.7711C171.489 36.3965 172.785 35.0108 174.07 33.625C174.271 33.4127 174.428 33.1557 174.651 32.854C173.847 32.3064 173.064 32.6528 172.405 32.541C171.779 32.9545 171.422 33.5468 170.84 33.882C170.617 33.6026 170.427 33.3569 170.226 33.1334C169.701 32.5411 169.03 32.2281 168.237 32.2393C167.79 32.2393 167.343 32.2616 166.907 32.3286C165.487 32.541 164.191 33.1222 162.95 33.8262C160.604 35.1561 158.614 36.933 156.703 38.8105C156.346 39.1569 155.977 39.4922 155.563 39.7828C154.513 40.5203 153.418 41.1798 152.39 41.9397C150.635 43.2361 148.724 44.253 146.746 45.1471C145.885 45.5271 144.991 45.8399 144.008 45.784C143.125 45.7282 142.89 45.5381 142.622 44.6329C142.745 43.8283 143.214 43.2025 143.762 42.6438C144.79 41.5933 145.852 40.5651 146.902 39.5257C147.886 38.5423 148.88 37.57 149.842 36.5642C150.412 35.9607 150.926 35.2902 151.183 34.4744C151.563 33.2562 150.769 32.1722 149.506 32.2504C149.015 32.284 148.512 32.418 148.053 32.608C145.517 33.6809 143.08 34.9661 140.767 36.4748C140.532 36.6313 140.275 36.7654 140.029 36.9107C140.074 36.6201 140.219 36.4524 140.309 36.2512C140.566 35.6366 140.89 35.0444 141.035 34.4074C141.348 33.044 140.577 32.1834 139.169 32.2504C138.901 32.2616 138.61 32.3287 138.364 32.4181C137.895 32.5969 137.426 32.7868 137.001 33.0439C135.123 34.1726 133.257 35.3349 131.38 36.4748C131.089 36.6537 130.787 36.8324 130.497 37.0112C130.575 36.676 130.743 36.4189 130.877 36.1619C131.29 35.402 131.614 34.6085 131.558 33.7033C131.514 33.0104 131.178 32.5745 130.519 32.351C129.938 32.1498 129.357 32.161 128.832 32.4963C127.993 33.0327 127.144 33.5803 126.351 34.1838C124.194 35.8601 122.104 37.6035 119.936 39.2464C118.405 40.4086 116.829 41.5037 115.209 42.5207C113.946 43.3142 112.593 43.9959 111.241 44.6553C110.023 45.2476 108.727 45.5382 107.352 45.3929C106.346 45.2812 105.609 44.7671 105.385 43.8619C105.206 43.1578 105.206 42.4425 105.508 41.7273C105.709 41.6826 105.899 41.6379 106.078 41.5932C107.106 41.3697 108.157 41.2021 109.163 40.9227C111.353 40.308 113.365 39.3022 115.097 37.8159C115.846 37.1788 116.46 36.4302 116.863 35.5138C117.589 33.8598 116.628 32.3287 114.806 32.2281C114.728 32.2281 114.639 32.2281 114.56 32.2281C113.532 32.2057 112.582 32.5298 111.666 32.9433C109.509 33.9156 107.665 35.3461 105.899 36.8883C104.558 38.0618 103.24 39.2575 101.731 40.2186C100.792 40.8109 99.898 41.4814 98.9705 42.096C96.9253 43.4371 94.8132 44.6776 92.4663 45.4487C92.0863 45.5716 91.6505 45.6387 91.2482 45.6164C90.3094 45.5493 89.84 44.8676 90.03 43.9288C90.1865 43.1801 90.5553 42.5208 90.9911 41.9173C92.4104 39.9728 94.1538 38.3411 95.9419 36.7319C96.7242 36.0278 97.5065 35.3125 98.2776 34.5861C98.5123 34.3626 98.7693 34.1391 98.8028 33.7479C97.9758 33.3344 96.9365 33.3903 96.2772 32.6416C97.6629 31.457 98.0317 30.9094 98.2329 29.87C97.8753 28.8642 97.283 28.6072 96.3777 29.0654C95.696 29.4119 95.1484 29.9259 94.7349 30.5629C94.3997 31.077 94.3773 31.6023 94.7237 32.1275C94.8578 32.3287 94.992 32.541 95.1484 32.7645C94.7014 33.368 94.1538 33.8374 93.5615 34.2509C91.427 35.7484 89.2701 37.2348 87.1244 38.7211C85.3139 39.9616 83.5035 41.2132 81.6707 42.4202C80.419 43.2472 79.1339 44.0183 77.8375 44.767C77.167 45.1582 76.4294 45.4041 75.6247 45.4377C74.4066 45.4935 74.116 44.5883 74.2837 43.7501C74.3172 43.5602 74.4066 43.3701 74.5072 43.2136C75.1553 42.1743 75.7588 41.1015 76.4741 40.1293C79.1674 36.4749 82.1624 33.0774 85.2245 29.7248C85.7498 29.1548 86.2974 28.6072 86.8226 28.0484C87.7055 28.0484 88.5437 28.0484 89.3707 28.0484C89.773 28.0484 90.153 28.0149 90.4882 27.6014C90.4547 27.4226 90.3988 27.1991 90.3429 26.9197C89.5271 26.8862 88.7783 26.8639 87.9178 26.8303C88.1972 26.4951 88.3872 26.2603 88.5884 26.0368C89.8065 24.7404 91.0358 23.4553 92.2651 22.1589C92.9468 21.4325 93.6397 20.6949 94.3102 19.9573C94.4891 19.7562 94.612 19.5103 94.8243 19.1973C94.4667 19.0074 94.1873 18.8621 94.0309 18.7727C92.8462 18.8174 92.0416 19.3427 91.3487 20.0691C89.9853 21.4995 88.6331 22.9412 87.2808 24.3828C86.4985 25.2098 85.7274 26.0481 85.001 26.8415C83.9952 26.9309 83.0453 26.7633 82.1401 26.9532C82.0842 27.7244 82.263 27.9702 82.8888 28.0372C83.157 28.0708 83.4364 28.0372 83.8499 28.0372C83.5482 28.406 83.347 28.6743 83.1235 28.9202C81.8271 30.4065 80.5308 31.904 79.2344 33.3904C77.6587 35.2008 75.9823 36.8995 73.8701 38.1064C73.7249 38.1847 73.5908 38.2852 73.4567 38.3858C71.4451 39.7381 69.4447 41.1015 67.4331 42.4314C65.8796 43.4595 64.3039 44.4541 62.5717 45.1805C61.7447 45.5269 60.9065 45.784 59.9901 45.7952C59.5096 45.7952 59.1296 45.6388 58.8055 45.3036C58.1685 44.633 57.9338 43.6272 58.392 42.7555C58.9061 41.772 59.4537 40.7886 60.1354 39.928C62.0017 37.5365 63.9351 35.2008 65.8573 32.8652C66.1143 32.5522 66.4943 32.3399 66.8407 32.1275C67.3436 31.837 67.8912 31.6246 68.4053 31.3452C72.0933 29.3894 75.58 27.0985 79.0109 24.7069C81.2907 23.1088 83.4923 21.3989 85.4928 19.4655C86.7109 18.2809 87.9402 17.1076 88.8789 15.6771C89.1919 15.1966 89.4824 14.6713 89.6836 14.1349C90.1418 12.8609 89.4824 11.7321 88.1749 11.3744C87.5267 11.1956 86.9009 11.3075 86.2862 11.4751C84.9228 11.8551 83.727 12.5703 82.5871 13.3525C80.3408 14.9059 78.2845 16.7053 76.3176 18.5828C72.6632 22.0584 69.2994 25.8022 65.902 29.5125C64.0469 31.5464 62.2699 33.6585 60.4483 35.7148L60.3924 35.7037ZM199.729 38.2405C201.238 36.486 202.925 34.9102 204.948 33.7591C205.574 33.4015 206.222 33.1332 206.993 33.1556C207.764 33.1779 208.558 33.8597 208.323 34.8543C208.156 35.5919 207.832 36.2066 207.34 36.7542C206.524 37.6818 205.507 38.3635 204.412 38.9334C202.501 39.928 200.456 40.5315 198.344 40.8891C198.243 40.9115 198.131 40.8891 197.919 40.8668C198.444 39.8498 199.048 39.0228 199.718 38.2405H199.729ZM156.312 43.8842C156.48 43.4149 156.748 42.979 157.016 42.5655C157.899 41.2356 158.983 40.0845 160.101 38.9558C161.866 37.1677 163.733 35.5025 165.834 34.1391C166.504 33.7032 167.253 33.3903 167.979 33.0551C168.169 32.9657 168.404 32.921 168.628 32.921C169.689 32.8986 170.282 33.7479 169.879 34.7202C169.734 35.0666 169.511 35.4131 169.242 35.6925C166.761 38.2405 164.403 40.9226 161.688 43.2472C160.838 43.9736 159.955 44.6441 158.916 45.08C158.436 45.2811 157.922 45.3817 157.419 45.527C156.39 45.4376 155.966 44.8677 156.312 43.9066V43.8842ZM107.084 38.9558C108.481 37.1342 110.112 35.5584 112.024 34.2843C112.504 33.9602 113.04 33.7144 113.543 33.435C114.024 33.1668 114.549 33.1445 115.086 33.2115C115.89 33.3009 116.348 33.9267 116.259 34.7314C116.17 35.5696 115.745 36.2401 115.186 36.8436C114.449 37.6482 113.566 38.2852 112.616 38.7993C110.615 39.8833 108.481 40.5315 106.246 40.9003C106.145 40.9227 106.033 40.8891 105.866 40.8779C106.179 40.1404 106.626 39.5481 107.073 38.967L107.084 38.9558ZM69.7687 28.1378C72.3838 25.0757 75.0213 22.036 77.8487 19.1527C79.7038 17.2641 81.5925 15.42 83.7829 13.9337C84.6993 13.319 85.6827 12.7826 86.6662 12.2685C87.0238 12.0897 87.4596 12.0115 87.8731 12.0003C88.9013 11.978 89.4601 12.7268 89.1583 13.7214C89.0019 14.2467 88.7336 14.7495 88.4431 15.2189C87.7167 16.3812 86.7891 17.3757 85.8392 18.3592C83.917 20.3484 81.7377 22.0248 79.5026 23.623C76.407 25.8357 73.2443 27.959 69.9587 29.87C69.1205 30.3618 68.26 30.7976 67.3995 31.2558C67.3548 31.2111 67.3101 31.1664 67.2654 31.1105C68.0924 30.1159 68.9194 29.11 69.7687 28.1266V28.1378Z" fill="#575756"/>
<path d="M1.22928 45.3036C3.26323 46.1418 5.40897 46.2534 7.5435 46.0075C9.25336 45.8064 10.8962 45.2589 12.4943 44.5771C14.4165 43.7613 16.2269 42.7331 17.9703 41.582C18.7749 41.0568 19.5907 40.5316 20.4848 39.9616C20.5854 40.3751 20.6412 40.6433 20.7195 40.9115C21.4459 43.6048 23.1669 45.2923 25.8937 45.8734C28.0394 46.3316 30.1628 46.1081 32.2414 45.4935C34.8565 44.7224 37.2369 43.4819 39.4832 41.9732C41.8971 40.3639 44.1211 38.5199 46.2556 36.5642C50.6811 32.5075 54.8496 28.2497 57.9005 23.0754C59.2304 22.3602 60.5491 21.7008 61.812 20.952C64.7065 19.2533 67.3662 17.2528 69.4896 14.6154C71.4341 12.2015 72.6299 9.51933 72.384 6.33429C72.2388 4.38975 71.4341 2.8141 69.8137 1.69655C68.7967 0.98131 67.6568 0.579012 66.4386 0.321974C64.3935 -0.113872 62.3484 -0.0581148 60.2921 0.198923C57.3529 0.556541 54.5255 1.35002 51.7763 2.44522C47.1385 4.30036 42.9477 6.89309 39.0474 9.98872C35.5494 12.7603 32.3756 15.8672 29.537 19.3204C26.6202 22.8519 24.1057 26.6404 22.3176 30.8759C21.4459 32.921 20.7418 35.022 20.5295 37.2683C20.4736 37.9053 20.3954 38.5311 20.3283 39.1793C18.2944 40.6321 16.2492 42.0737 14.0141 43.2136C12.1255 44.1747 10.1697 44.9571 8.05756 45.3036C6.57122 45.5494 5.17427 45.393 3.93378 44.4542C3.50911 44.1413 3.0621 43.8507 2.61508 43.5713C2.38039 43.426 2.14571 43.2584 1.88867 43.1802C1.66516 43.1131 1.37458 43.0572 1.17342 43.1355C0.625817 43.359 0.145282 43.6942 0 44.3424C0.212336 44.89 0.726385 45.1024 1.19576 45.3036H1.22928ZM22.7422 35.279C23.7927 32.4181 25.3126 29.8031 26.989 27.2662C29.4923 23.4777 32.3644 19.9797 35.4935 16.6829C38.8015 13.2073 42.3665 10.0335 46.3003 7.28432C49.7312 4.88158 53.3744 2.85876 57.4088 1.6518C59.4204 1.04832 61.4655 0.690751 63.5665 0.724278C64.9523 0.746629 66.3381 0.936504 67.6456 1.45058C69.836 2.32227 70.9089 3.9316 71.0318 6.24494C71.1436 8.49122 70.3613 10.5028 69.2325 12.3915C67.5562 15.1966 65.3435 17.5322 62.7507 19.4991C61.7338 20.2702 60.6274 20.9296 59.5545 21.6113C59.2863 21.7901 58.9622 21.8907 58.6717 22.0248C59.4092 20.3373 60.0574 18.6834 60.4262 16.9288C60.6721 15.7554 60.8062 14.5819 60.5491 13.3749C60.1356 11.4751 58.5487 10.1228 56.6042 9.99991C54.4361 9.8658 52.4916 10.5476 50.6141 11.4975C47.9655 12.8386 45.6186 14.6266 43.3835 16.5488C39.8967 19.5438 36.7005 22.8407 33.6161 26.238C30.3193 29.8589 26.9219 33.3792 23.3234 36.7095C22.9546 37.0448 22.5746 37.3689 22.1276 37.7601C22.1946 36.8102 22.4852 36.0389 22.7757 35.2678L22.7422 35.279ZM22.474 38.654C24.4633 37.0448 26.4525 35.4467 28.4306 33.8263C31.3586 31.4235 34.0743 28.7972 36.7005 26.0704C39.2485 23.4218 41.7519 20.7396 44.3111 18.1134C46.2891 16.0794 48.4348 14.2131 50.8264 12.6709C52.1675 11.8104 53.5644 11.0392 55.1625 10.8045C55.8107 10.7039 56.5036 10.6928 57.1518 10.8045C58.7499 11.0839 59.7222 12.1679 60.0351 13.7437C60.3256 15.1853 60.0351 16.5711 59.6327 17.9345C59.1745 19.5103 58.4817 20.9967 57.7217 22.483C56.3471 23.243 54.8496 23.757 53.3521 24.2487C51.8769 24.7293 50.4017 25.2099 48.9154 25.6904C47.4179 26.171 45.8309 26.3497 44.3446 26.8973C44.5122 27.2997 44.7916 27.2214 45.0151 27.1879C45.451 27.1097 45.8757 26.9867 46.3115 26.8862C48.826 26.2827 51.3181 25.6122 53.732 24.6958C54.7378 24.3158 55.7437 23.9471 56.9283 23.5001C56.7048 23.9136 56.5818 24.1705 56.4254 24.4164C55.2966 26.238 53.9444 27.9031 52.5586 29.5348C50.547 31.8816 48.4237 34.1168 46.1103 36.1731C43.5511 38.4529 40.8913 40.5874 37.9186 42.3085C35.6947 43.5937 33.3702 44.633 30.8333 45.1583C29.5146 45.4265 28.1736 45.5158 26.8437 45.3594C24.6421 45.0912 23.0663 43.9513 22.3846 41.7721C22.1276 40.9563 21.9823 40.1069 21.7811 39.2576C22.0382 39.0341 22.2393 38.844 22.4517 38.6652L22.474 38.654Z" fill="#575756"/>
</svg>
