<svg width="195" height="37" viewBox="0 0 195 37" fill="none" xmlns="http://www.w3.org/2000/svg">
<path d="M147.306 33.5079C147.306 33.5079 147.287 33.5079 147.278 33.5079C145.83 33.4892 145.045 32.751 144.298 32.0502C144.204 31.9568 144.101 31.8634 143.998 31.77C143.727 31.5271 143.475 31.2654 143.242 31.0131C142.756 30.5086 142.289 30.0321 141.784 29.7798C141.513 29.9293 141.027 30.2937 140.691 30.5553C139.504 31.471 138.271 32.4147 137.084 31.9008C136.225 31.5271 135.627 30.8543 135.15 30.303C135.019 30.1535 134.851 29.9666 134.711 29.8265C134.664 30.0414 134.636 30.3404 134.618 30.5459C134.524 31.4616 134.337 33.377 132.385 33.4237C131.385 33.4424 130.516 32.9192 129.927 31.9381C128.386 29.378 128.722 23.557 129.796 21.6322C130.394 20.5577 131.656 20.3522 132.571 20.2027C132.805 20.1654 133.141 20.1093 133.337 20.0532C133.3 19.7823 133.085 19.2123 132.59 18.577C132.029 17.8482 131.534 17.5678 131.385 17.5491C130.833 17.5491 130.03 17.3249 129.301 16.2878C127.517 13.7463 126.947 7.02838 127.909 4.40286C128.255 3.44982 130.049 1.78664 131.488 1.32881C132.431 1.02982 133.057 1.26347 133.422 1.5064C134.636 2.33797 134.01 3.93573 133.356 5.61756C133.067 6.36504 132.525 7.73853 132.627 8.17767C132.805 8.28979 132.954 8.30841 133.169 8.22432C133.795 7.97204 134.496 7.01909 134.646 6.20621C134.73 5.75772 134.711 5.22511 134.702 4.65515C134.664 3.20691 134.618 1.41295 136.253 0.319757C136.767 -0.0259527 137.411 -0.0913207 138.065 0.12358C139.074 0.459946 139.953 1.40359 140.401 2.64628C140.878 3.97305 141.27 4.13187 141.317 4.14121C141.607 4.23465 142.354 3.7021 142.849 3.35639C143.896 2.61826 145.335 1.60918 146.792 2.56222C147.577 3.06677 148.026 3.69276 148.138 4.41221C148.315 5.56146 147.53 6.50519 147.016 7.1312C146.876 7.29939 146.727 7.48623 146.671 7.57032C146.007 8.7476 146.157 8.85966 146.895 9.37355C147.456 9.76598 148.306 10.3546 148.409 11.5039C148.465 12.1112 148.259 12.6438 147.848 13.0175C146.858 13.8865 145.073 13.5034 143.354 13.1297C142.887 13.0269 142.261 12.8961 142.064 12.8961C140.028 13.0549 138.43 13.2418 136.879 13.4847C135.776 13.6622 135.3 14.5125 135.272 14.8115C135.328 14.905 135.393 15.0358 135.477 15.1853C136.458 17.0166 137 17.8855 137.299 18.2873C137.533 18.1938 137.822 18.0537 138.047 17.9603C139.551 17.2782 140.859 16.6803 141.737 17.409C142.027 17.6426 142.317 18.0724 142.952 19.0255C143.363 19.6328 144.232 20.9408 144.942 21.7537C144.839 21.3332 144.709 20.8754 144.596 20.511C144.026 18.5302 143.438 16.484 144.419 15.2974C144.737 14.905 145.363 14.4658 146.475 14.5686C148.184 14.7274 148.558 16.4373 148.81 17.5678C148.866 17.8294 148.96 18.2313 149.044 18.4649C149.549 18.2593 150.118 17.7921 150.632 17.381C151.52 16.6615 152.352 15.9794 153.333 16.1663C153.426 16.185 155.697 16.6242 156.21 17.8762C156.734 19.1469 156.472 20.128 155.426 20.8661C154.519 21.5015 153.361 22.0807 152.594 22.4544L152.333 22.5853C152.267 22.8002 152.23 23.2768 152.211 23.5851C152.146 24.4447 152.081 25.3323 151.473 25.9116C151.146 26.2199 150.707 26.3321 149.483 26.6124C149.165 26.6871 148.689 26.7898 148.24 26.9113C148.306 26.9393 148.381 26.9674 148.446 27.0047C149.408 27.4158 150.502 27.8924 151.146 29.0323C151.847 30.275 151.464 32.0036 150.296 32.8071C149.548 33.321 147.895 33.5359 147.315 33.5359M141.793 27.6214C141.962 27.6214 142.13 27.6494 142.298 27.7148C143.344 28.0979 144.092 28.8735 144.746 29.5462C144.97 29.7798 145.194 30.004 145.409 30.2096C145.521 30.3124 145.624 30.4151 145.736 30.5085C146.428 31.1626 146.699 31.3869 147.306 31.3962C147.773 31.3869 148.848 31.1907 149.1 31.0412C149.362 30.8637 149.474 30.3497 149.296 30.0507C148.997 29.5275 148.353 29.2472 147.596 28.9202C147.035 28.6773 146.409 28.4063 145.848 27.9952C145.101 27.4439 145.148 26.7712 145.204 26.519C145.437 25.4071 146.801 25.0426 148.997 24.5474C149.324 24.4726 149.745 24.3793 149.997 24.3046C150.044 24.0803 150.081 23.6785 150.1 23.4262C150.175 22.4638 150.259 21.2679 151.258 20.7633L151.651 20.5672C152.398 20.1934 153.426 19.6888 154.202 19.1376C154.286 19.0815 154.323 19.0441 154.351 19.0255C154.351 18.9881 154.332 18.904 154.286 18.7732C154.099 18.6237 153.538 18.3713 153.015 18.2592C152.791 18.3527 152.295 18.7545 151.959 19.0255C151.249 19.6048 150.445 20.2588 149.511 20.5391C148.81 20.754 148.296 20.5858 147.988 20.4083C147.166 19.9318 146.951 18.96 146.746 18.0256C146.661 17.6239 146.474 16.8017 146.288 16.6709C146.147 16.6615 146.073 16.6709 146.026 16.6709C145.82 17.1754 146.353 19.0254 146.615 19.9317C147.185 21.9219 147.642 23.4916 146.512 24.2671C146.157 24.5101 145.727 24.5942 145.288 24.5101C143.998 24.2578 142.718 22.4919 141.195 20.2121C140.971 19.8757 140.71 19.4833 140.532 19.2403C140.112 19.3525 139.355 19.6981 138.906 19.8943C138.047 20.2868 137.542 20.5111 137.094 20.5297C136.505 20.5671 136.066 20.3148 135.216 19.0068C135.533 19.885 135.515 20.6512 135.16 21.2305C134.674 22.0154 133.739 22.1649 132.908 22.305C132.525 22.3704 131.73 22.5012 131.628 22.688C130.936 23.9307 130.562 28.9669 131.721 30.8823C132.001 31.3588 132.235 31.3495 132.319 31.3495H132.338C132.422 31.1719 132.478 30.6768 132.506 30.3685C132.599 29.4808 132.711 28.2662 133.823 27.771C135.169 27.173 136.103 28.2381 136.72 28.9389C137.066 29.3313 137.421 29.7424 137.813 29.948C138.168 29.8545 138.953 29.2472 139.392 28.9108C140.261 28.2474 141.027 27.6495 141.793 27.6495M131.385 15.4375C132.441 15.4375 133.412 16.2597 134.104 17.1006C133.945 16.8203 133.786 16.512 133.608 16.185C133.506 15.9981 133.431 15.8487 133.384 15.7646C133.057 15.1853 133.076 14.4004 133.459 13.6155C134.02 12.4476 135.178 11.616 136.542 11.4011C138.149 11.1489 139.803 10.9526 141.896 10.7938C142.335 10.7564 142.877 10.8686 143.793 11.0648C144.391 11.1956 145.512 11.4385 146.138 11.4385C146.035 11.3451 145.886 11.2423 145.69 11.1022C144.83 10.5042 143.223 9.39232 144.83 6.54256C144.98 6.28094 145.176 6.0473 145.391 5.78568C145.615 5.51472 146.091 4.94476 146.054 4.72986C146.054 4.68314 145.951 4.53371 145.643 4.32815C145.372 4.15063 144.643 4.66445 144.055 5.07556C143.12 5.72961 141.952 6.55186 140.672 6.15009C139.701 5.84175 138.99 4.95413 138.411 3.35639C138.112 2.52482 137.579 2.15111 137.365 2.1044C136.813 2.51551 136.767 3.22553 136.804 4.58968C136.823 5.23439 136.832 5.9071 136.72 6.56115C136.486 7.86924 135.43 9.5792 133.945 10.1678C133.029 10.5322 132.095 10.4014 131.319 9.82213C129.871 8.73829 130.684 6.66395 131.394 4.83262C131.562 4.40282 131.787 3.82361 131.917 3.40316C131.245 3.72084 130.151 4.5804 129.89 5.12233C129.198 7.0284 129.609 12.5784 130.89 14.8209C131.151 15.2881 131.357 15.4095 131.403 15.4189" fill="#575756"/>
<path d="M50.8516 1.55675C50.8516 1.38856 51.0104 1.27644 51.1692 1.32316C53.421 2.08932 63.9791 6.22852 63.8857 16.4129C63.7923 26.5319 53.449 31.6149 51.1879 32.6053C51.0197 32.4932 51.0197 32.4931 50.8516 32.3809V1.54739V1.55675Z" fill="#575756"/>
<path d="M164.599 30.6336L194.162 31.1943C194.255 31.1943 194.311 31.1008 194.274 31.026L179.857 1.97713C179.81 1.89304 179.689 1.89304 179.642 1.97713L164.496 30.4561C164.459 30.5308 164.515 30.6336 164.599 30.6336ZM182.95 24.2146C181.165 26.1207 178.166 26.2234 176.26 24.4388C174.354 22.6542 174.251 19.655 176.035 17.749C177.82 15.8429 180.819 15.7401 182.725 17.5247C184.631 19.3093 184.734 22.3085 182.95 24.2146Z" fill="#575756"/>
<path d="M28.1946 14.2519H22.9155V10.4024C22.9155 5.67462 19.0846 1.84375 14.3568 1.84375L0.238819 1.87181C0.0706357 1.87181 -0.0414771 2.03996 0.0145839 2.18945L5.61133 18.2136L5.64874 31.173C5.64874 31.2851 5.74215 31.3785 5.85427 31.3785L18.6829 31.3598H27.2415C33.6605 31.3598 38.435 24.2868 34.1837 17.5035C33.0531 15.7002 30.3343 14.2519 28.204 14.2519M15.2912 13.7848C11.0212 16.429 6.53629 11.9441 9.18985 7.68344C9.40475 7.33773 9.70378 7.03869 10.0495 6.82379C14.3195 4.17958 18.8044 8.66449 16.1508 12.9251C15.9359 13.2708 15.6369 13.5699 15.2912 13.7848Z" fill="#575756"/>
<path d="M143.138 7.46117C141.671 5.91015 137.747 7.23696 134.383 10.4137C131.645 13.0019 129.702 17.5334 129.403 18.2622C129.375 18.3276 129.384 18.3931 129.422 18.4491C129.823 19.0658 132.262 22.7004 134.093 24.6439C137.28 28.0169 141.12 29.5585 142.671 28.0916C144.222 26.6246 142.895 22.7004 139.718 19.3367C139.102 18.6827 138.457 18.094 137.803 17.5895C138.438 17.141 139.074 16.6177 139.69 16.0384C143.063 12.8523 144.605 9.01219 143.138 7.46117Z" fill="#575756"/>
<path d="M84.3662 0.530716L78.05 32.6443C78.022 32.7751 78.1901 32.8592 78.2836 32.7658L86.0854 24.3753L96.0082 36.5686C96.0922 36.6714 96.2604 36.6714 96.3445 36.5686L106.155 23.8708L114.078 32.3733C114.172 32.4761 114.331 32.392 114.312 32.2518L107.996 0.540069C107.958 0.353199 107.725 0.306513 107.613 0.456009L96.1856 15.9194L84.7586 0.465362C84.6464 0.315866 84.4129 0.371895 84.3756 0.549421" fill="#575756"/>
</svg>
