<svg width="89" height="19" viewBox="0 0 89 19" fill="none" xmlns="http://www.w3.org/2000/svg">
<path d="M5.81554 1.70454L5.31524 2.12684C5.10869 1.74128 4.82867 1.42915 4.47982 1.19505C4.13098 0.960962 3.72711 0.841668 3.2681 0.841668C2.67599 0.841668 2.20318 1.02985 1.85434 1.40623C1.50549 1.78262 1.33107 2.24162 1.33107 2.78324C1.33107 3.21012 1.44127 3.55892 1.66159 3.82973C1.88191 4.10054 2.38218 4.42189 3.16249 4.79828C4.15393 5.28941 4.71393 5.57399 4.84245 5.65202C4.97098 5.73005 5.10408 5.81263 5.24179 5.89525C5.62735 6.17524 5.90733 6.47823 6.08634 6.80412C6.26535 7.12542 6.35259 7.49718 6.35259 7.91487C6.35259 8.7778 6.03585 9.50302 5.39783 10.086C4.76441 10.6689 3.99792 10.9627 3.09827 10.9627C2.60714 10.9627 2.16189 10.8755 1.76256 10.7057C1.36323 10.5358 1.00061 10.2558 0.674722 9.87023C0.518661 9.70499 0.380953 9.52602 0.266202 9.33324C0.151451 9.14045 0.0642605 8.93847 0 8.73191L0.592077 8.45193C0.642567 8.61717 0.720602 8.7962 0.826173 8.98439C0.931744 9.17258 1.04189 9.32859 1.15205 9.45253C1.38155 9.74629 1.66613 9.96664 2.01038 10.1181C2.35464 10.2696 2.71725 10.343 3.10281 10.343C3.80968 10.3522 4.40639 10.1273 4.89294 9.6637C5.37948 9.20011 5.6182 8.62635 5.6182 7.93785C5.6182 7.59359 5.53096 7.28606 5.36113 7.01524C5.1913 6.74443 4.93425 6.50572 4.60376 6.29458C4.47983 6.23032 4.30086 6.14312 4.06677 6.01919C3.83267 5.89985 3.36447 5.6612 2.66678 5.30776C2.08385 5.02777 1.67993 4.79827 1.46419 4.61926C1.24387 4.44025 1.06944 4.23825 0.931735 4.00875C0.807804 3.82056 0.720622 3.63237 0.674722 3.43959C0.628822 3.24681 0.60586 3.04027 0.60586 2.81994C0.60586 2.058 0.853724 1.43832 1.35404 0.960957C1.85435 0.483593 2.49693 0.235743 3.27724 0.226562C3.80968 0.226562 4.29625 0.355119 4.73689 0.607571C5.17754 0.864613 5.53554 1.23177 5.80635 1.70914L5.81554 1.70454Z" fill="#575756"/>
<path d="M13.0555 0.210938C14.5748 0.210938 15.86 0.734217 16.902 1.77616C17.9439 2.81809 18.4626 4.08956 18.4626 5.5905C18.4534 7.10063 17.9255 8.37204 16.8836 9.40479C15.8416 10.4376 14.5656 10.9516 13.0555 10.9516C11.5454 10.9516 10.251 10.4376 9.20906 9.40479C8.16712 8.37204 7.64844 7.10063 7.64844 5.5905C7.64844 4.08038 8.16712 2.82269 9.20447 1.78534C10.2418 0.747996 11.527 0.224712 13.0555 0.215532V0.210938ZM13.0555 10.3228C14.3912 10.3228 15.502 9.86841 16.4017 8.96417C17.2967 8.05993 17.7465 6.93079 17.7465 5.5905C17.7373 4.2548 17.2875 3.1302 16.3925 2.21678C15.502 1.29877 14.3912 0.83977 13.0555 0.83977C11.7198 0.83977 10.5952 1.29877 9.70476 2.21678C8.8143 3.13479 8.3691 4.25939 8.3691 5.5905C8.3691 6.92161 8.8143 8.05993 9.70476 8.96417C10.5952 9.86841 11.7152 10.3228 13.0555 10.3228Z" fill="#575756"/>
<path d="M21.0088 0.359375V4.78418H27.3247V0.359375H28.0132V10.7833H27.3247V5.40842H21.0088V10.7833H20.3203V0.359375H21.0088Z" fill="#575756"/>
<path d="M35.2782 0.210938C36.7975 0.210938 38.0827 0.734217 39.1246 1.77616C40.1666 2.81809 40.6852 4.08956 40.6852 5.5905C40.676 7.10063 40.1482 8.37204 39.1062 9.40479C38.0643 10.4376 36.7883 10.9516 35.2782 10.9516C33.768 10.9516 32.4737 10.4376 31.4317 9.40479C30.3898 8.37204 29.8711 7.10063 29.8711 5.5905C29.8711 4.08038 30.3898 2.82269 31.4271 1.78534C32.4645 0.747996 33.7497 0.224712 35.2782 0.215532V0.210938ZM35.2782 10.3228C36.6139 10.3228 37.7246 9.86841 38.6243 8.96417C39.5193 8.05993 39.9692 6.93079 39.9692 5.5905C39.96 4.2548 39.5101 3.1302 38.6151 2.21678C37.7246 1.29877 36.6139 0.83977 35.2782 0.83977C33.9425 0.83977 32.8179 1.29877 31.9274 2.21678C31.037 3.13479 30.5917 4.25939 30.5917 5.5905C30.5917 6.92161 31.037 8.05993 31.9274 8.96417C32.8179 9.86841 33.9379 10.3228 35.2782 10.3228Z" fill="#575756"/>
<path d="M50.0158 0.36397V0.988208H46.4815V4.77039H49.9194V5.39463H46.4815V10.7833H45.793V0.359375H50.0112L50.0158 0.36397Z" fill="#575756"/>
<path d="M58.5301 10.7752L57.1623 7.35561H52.6962L51.31 10.7752H50.5664L54.9591 0.0390625L59.2875 10.7752H58.5301ZM52.9487 6.72678H56.9145L54.9453 1.79708L52.9487 6.72678Z" fill="#575756"/>
<path d="M61.1033 10.782H60.4102L61.599 0L66.1155 9.64827L70.6321 0L71.821 10.782H71.1279L70.2099 2.40977L66.1155 11.1538L62.0213 2.40977L61.1033 10.782Z" fill="#575756"/>
<path d="M74.1328 0.359375H74.8213V10.7833H74.1328V0.359375Z" fill="#575756"/>
<path d="M77.2422 0.359375H77.9307V10.1591H80.8362V10.7833H77.2422V0.359375Z" fill="#575756"/>
<path d="M84.3109 10.7833V6.33102L80.8867 0.359375H81.6624L84.6689 5.62413L87.735 0.359375H88.5154L84.9994 6.33102V10.7833H84.3109Z" fill="#575756"/>
<path d="M29.0987 17.108C29.0987 17.512 28.9565 17.847 28.6765 18.1224C28.3965 18.3932 28.0476 18.5309 27.6299 18.5309C27.2811 18.5309 26.9782 18.4254 26.7257 18.2097C26.4549 17.9756 26.2805 17.6543 26.207 17.2458L26.7532 17.131C26.7808 17.4018 26.8772 17.6129 27.047 17.769C27.2122 17.925 27.4234 17.9985 27.6804 17.9985C27.9145 17.9985 28.1165 17.9113 28.2817 17.7369C28.447 17.5625 28.5296 17.3513 28.5296 17.108C28.5296 16.8923 28.4561 16.7133 28.3047 16.5619C28.167 16.4287 27.9421 16.3002 27.6345 16.1808C27.2077 16.0202 26.9047 15.8412 26.7165 15.653C26.5191 15.451 26.4182 15.2078 26.4182 14.9186C26.4182 14.5789 26.5513 14.2989 26.8129 14.074C27.0745 13.8491 27.4004 13.7344 27.7814 13.7344C28.2955 13.7344 28.6857 13.9685 28.9611 14.4321L28.502 14.7075C28.3276 14.4183 28.0843 14.2714 27.7768 14.2714C27.5611 14.2714 27.3775 14.3356 27.226 14.4596C27.0745 14.5835 26.9965 14.7396 26.9965 14.9186C26.9965 15.0792 27.0608 15.2123 27.1893 15.3225C27.3178 15.4327 27.5335 15.5428 27.8411 15.6576C28.2955 15.8228 28.6214 16.0202 28.8141 16.2451C29.0115 16.47 29.1079 16.7592 29.1079 17.1126L29.0987 17.108Z" fill="#575756"/>
<path d="M30.7105 18.4319H30.1367V13.8281H30.7105V18.4319Z" fill="#575756"/>
<path d="M35.744 18.5277L32.4805 15.1082V18.4268H31.9297V13.7266L35.1932 17.1461V13.8229H35.744V18.5231V18.5277Z" fill="#575756"/>
<path d="M40.3552 18.2018C39.9605 18.4176 39.5704 18.5277 39.1894 18.5277C38.4366 18.5277 37.8399 18.312 37.3993 17.8714C36.9586 17.4353 36.7383 16.8524 36.7383 16.1271C36.7383 15.4019 36.977 14.8282 37.4589 14.3784C37.9225 13.9469 38.5008 13.7266 39.1939 13.7266C39.6438 13.7266 40.0293 13.8275 40.346 14.0387V14.7134C40.0156 14.4059 39.6071 14.2544 39.1297 14.2544C38.6111 14.2544 38.1842 14.4196 37.8445 14.7501C37.4865 15.099 37.312 15.558 37.312 16.1271C37.312 16.6963 37.4911 17.1691 37.8445 17.5133C38.1796 17.8392 38.6065 18.0045 39.1251 18.0045C39.5841 18.0045 39.9926 17.8438 40.3552 17.5225V18.2064V18.2018Z" fill="#575756"/>
<path d="M43.8927 14.356H41.9878V15.6458H43.8284V16.169H41.9878V17.9087H43.8881V18.4319H41.4141V13.8281H43.8927V14.3514V14.356Z" fill="#575756"/>
<path d="M50.0088 18.4268H47.0391L49.1046 15.893C49.3479 15.5993 49.4672 15.3468 49.4672 15.1357C49.4672 14.897 49.38 14.6859 49.201 14.5114C49.0219 14.337 48.8154 14.2498 48.5675 14.2498C48.3197 14.2498 48.1315 14.3279 47.9617 14.4885C47.7918 14.6492 47.6954 14.8511 47.6771 15.0944H47.1033C47.1492 14.6767 47.3007 14.3462 47.5577 14.0983C47.8148 13.8505 48.1452 13.7266 48.5537 13.7266C48.9623 13.7266 49.3019 13.8597 49.5819 14.1259C49.8619 14.3921 50.0042 14.718 50.0042 15.1082C50.0042 15.4662 49.8757 15.8058 49.6187 16.118L48.1544 17.9081H50.0042V18.4314L50.0088 18.4268Z" fill="#575756"/>
<path d="M54.0724 16.1271C54.0724 16.8156 53.9209 17.3894 53.618 17.8438C53.315 18.2982 52.9341 18.5277 52.4659 18.5277C51.9977 18.5277 51.6167 18.2982 51.3138 17.8438C51.0108 17.3894 50.8594 16.8156 50.8594 16.1271C50.8594 15.4386 51.0108 14.8695 51.3138 14.4105C51.6167 13.9561 52.0023 13.7266 52.4659 13.7266C52.9295 13.7266 53.315 13.9561 53.618 14.4105C53.9209 14.8649 54.0724 15.4386 54.0724 16.1271ZM53.5262 16.1271C53.5262 15.5763 53.4298 15.1219 53.2324 14.7639C53.0351 14.4059 52.7826 14.2315 52.4705 14.2315C52.1584 14.2315 51.9059 14.4105 51.7085 14.7639C51.5111 15.1219 51.4148 15.5717 51.4148 16.1271C51.4148 16.6825 51.5111 17.1323 51.7085 17.4904C51.9059 17.8484 52.1584 18.0228 52.4705 18.0228C52.7826 18.0228 53.0351 17.8438 53.2324 17.4904C53.4298 17.1323 53.5262 16.6825 53.5262 16.1271Z" fill="#575756"/>
<path d="M58.0216 16.1271C58.0216 16.8156 57.8702 17.3894 57.5672 17.8438C57.2643 18.2982 56.8833 18.5277 56.4151 18.5277C55.9469 18.5277 55.5659 18.2982 55.263 17.8438C54.9601 17.3894 54.8086 16.8156 54.8086 16.1271C54.8086 15.4386 54.9601 14.8695 55.263 14.4105C55.5659 13.9561 55.9515 13.7266 56.4151 13.7266C56.8787 13.7266 57.2643 13.9561 57.5672 14.4105C57.8702 14.8649 58.0216 15.4386 58.0216 16.1271ZM57.4708 16.1271C57.4708 15.5763 57.3744 15.1219 57.1771 14.7639C56.9797 14.4059 56.7272 14.2315 56.4151 14.2315C56.103 14.2315 55.8506 14.4105 55.6532 14.7639C55.4558 15.1219 55.3594 15.5717 55.3594 16.1271C55.3594 16.6825 55.4558 17.1323 55.6532 17.4904C55.8506 17.8484 56.103 18.0228 56.4151 18.0228C56.7272 18.0228 56.9797 17.8438 57.1771 17.4904C57.3744 17.1323 57.4708 16.6825 57.4708 16.1271Z" fill="#575756"/>
<path d="M62.1969 13.8281L59.8054 18.5283L59.3281 18.2529L61.288 14.3514H58.8828V13.8281H62.1969Z" fill="#575756"/>
</svg>
