<svg width="66" height="16" viewBox="0 0 66 16" fill="none" xmlns="http://www.w3.org/2000/svg">
<path fill-rule="evenodd" clip-rule="evenodd" d="M40.2498 0.015625V8.41541C40.2498 8.53017 40.1534 8.62654 40.034 8.62654C39.9422 8.62654 39.8642 8.56684 39.8321 8.48881L36.5594 0.015625H34.3516V15.4565H36.5594V6.95116C36.5594 6.95116 36.5594 6.94202 36.5594 6.93284C36.5594 6.8135 36.6558 6.71707 36.7751 6.71707C36.8715 6.71707 36.9495 6.78136 36.9771 6.86398L40.2452 15.4565H42.453V0.015625H40.2452H40.2498Z" fill="#575756"/>
<path fill-rule="evenodd" clip-rule="evenodd" d="M49.1777 11.7753C49.1777 12.3032 49.3246 12.6887 49.6184 12.9412C49.9121 13.189 50.261 13.3175 50.6603 13.3175C51.0596 13.3175 51.4085 13.1936 51.7023 12.9412C51.996 12.6933 52.1429 12.3032 52.1429 11.7753V3.73814C52.1429 3.21028 51.996 2.82476 51.7023 2.57231C51.4085 2.32445 51.0596 2.19589 50.6603 2.19589C50.261 2.19589 49.9121 2.31985 49.6184 2.57231C49.3246 2.82017 49.1777 3.21028 49.1777 3.73814V11.7753ZM46.9883 3.73354C46.9883 3.12307 47.0939 2.58148 47.3096 2.10871C47.5253 1.64052 47.8099 1.24575 48.1679 0.933632C48.5122 0.63528 48.9023 0.405783 49.3384 0.249721C49.7744 0.0936601 50.2151 0.015625 50.6603 0.015625C51.1055 0.015625 51.5462 0.0936601 51.9822 0.249721C52.4183 0.405783 52.8176 0.63528 53.1757 0.933632C53.5199 1.24575 53.7999 1.64052 54.0156 2.10871C54.2314 2.57689 54.3369 3.12307 54.3369 3.73354V11.7707C54.3369 12.4133 54.2314 12.9596 54.0156 13.4186C53.7999 13.873 53.5199 14.2539 53.1757 14.5523C52.8176 14.8644 52.4183 15.1031 51.9822 15.2591C51.5462 15.4152 51.1055 15.4932 50.6603 15.4932C50.2151 15.4932 49.7744 15.4152 49.3384 15.2591C48.9023 15.1031 48.5122 14.869 48.1679 14.5523C47.8099 14.2539 47.5253 13.8776 47.3096 13.4186C47.0939 12.9642 46.9883 12.4133 46.9883 11.7707V3.73354Z" fill="#575756"/>
<path fill-rule="evenodd" clip-rule="evenodd" d="M29.7216 4.51204H27.5826V4.02088C27.5826 3.52515 27.4679 3.09372 27.2384 2.73111C27.0089 2.36849 26.6187 2.18486 26.0771 2.18486C25.7833 2.18486 25.5447 2.23994 25.3657 2.35469C25.1821 2.46944 25.0352 2.61176 24.925 2.78159C24.8149 2.96519 24.7368 3.17633 24.6955 3.41042C24.6542 3.64451 24.6312 3.89236 24.6312 4.14482C24.6312 4.44317 24.6404 4.69103 24.6634 4.89299C24.6863 5.09037 24.7368 5.26939 24.8194 5.42545C24.9021 5.58152 25.026 5.71922 25.1866 5.82938C25.3473 5.94413 25.5676 6.05888 25.8476 6.16904L27.4817 6.82998C27.9544 7.01358 28.34 7.23392 28.6338 7.48178C28.9275 7.72964 29.157 8.01882 29.3269 8.34471C29.4783 8.68437 29.5839 9.07454 29.639 9.506C29.6941 9.94206 29.7216 10.4332 29.7216 10.9886C29.7216 11.6266 29.6573 12.2233 29.5334 12.7695C29.4095 13.3157 29.2075 13.7839 28.9275 14.1649C28.6338 14.5642 28.2482 14.8763 27.7754 15.1012C27.2981 15.3307 26.7197 15.4409 26.0358 15.4409C25.5171 15.4409 25.0352 15.3491 24.5899 15.1655C24.1447 14.9819 23.7591 14.7248 23.4378 14.3989C23.1165 14.073 22.8595 13.6921 22.6713 13.256C22.4831 12.8246 22.3867 12.3472 22.3867 11.8377V11.0299H24.5257V11.7138C24.5257 12.1131 24.6404 12.4711 24.8699 12.7924C25.0994 13.1137 25.4896 13.2698 26.0312 13.2698C26.3938 13.2698 26.6784 13.2147 26.8804 13.1092C27.0823 13.0036 27.2384 12.8521 27.3531 12.6502C27.4633 12.4528 27.5322 12.2141 27.5505 11.9341C27.5735 11.6587 27.5826 11.3466 27.5826 11.007C27.5826 10.6076 27.5689 10.2817 27.5413 10.0247C27.5138 9.76764 27.4587 9.56104 27.3715 9.40498C27.2751 9.24892 27.142 9.12041 26.9859 9.01943C26.8253 8.91845 26.6095 8.8129 26.3479 8.69815L24.8194 8.06013C23.8968 7.67457 23.2818 7.16963 22.9651 6.53621C22.6529 5.90278 22.4923 5.11333 22.4923 4.1586C22.4923 3.58944 22.5703 3.0478 22.7218 2.5383C22.8733 2.02422 23.1074 1.58816 23.4149 1.21637C23.7087 0.849168 24.0804 0.550847 24.5349 0.330525C24.9893 0.110203 25.5309 0 26.1597 0C26.6922 0 27.1741 0.100992 27.6148 0.298364C28.0554 0.495735 28.4364 0.761944 28.7577 1.08784C29.4003 1.77175 29.7216 2.55211 29.7216 3.43339V4.49826V4.51204Z" fill="#575756"/>
<path fill-rule="evenodd" clip-rule="evenodd" d="M0 0.015625V15.4565H6.56375V13.3635H3.34613C2.65763 13.3635 2.10224 12.7759 2.10683 12.0553V0.0202195H0.00458752L0 0.015625Z" fill="#575756"/>
<path fill-rule="evenodd" clip-rule="evenodd" d="M17.6902 0.015625H11.1953V15.4565H17.7591V13.3635H14.6837C13.9677 13.3635 13.3848 12.7759 13.3848 12.0553V8.64492H17.1899V6.66199H13.3848V2.1179H17.6948V0.024814L17.6902 0.015625Z" fill="#575756"/>
<path fill-rule="evenodd" clip-rule="evenodd" d="M63.722 0.015625L62.4873 4.12828C62.3909 4.41286 62.1293 4.62404 61.8172 4.62404C61.5051 4.62404 61.248 4.41746 61.147 4.13747L59.8802 0.015625H57.5117L60.6788 8.88361V15.4565H62.8316V8.95241L65.9987 0.0202195H63.7129L63.722 0.015625Z" fill="#575756"/>
</svg>
