<svg width="77" height="20" viewBox="0 0 77 20" fill="none" xmlns="http://www.w3.org/2000/svg">
<path d="M25.6176 2.3139H25.6772C25.8884 2.32767 26.6733 2.52048 26.6687 2.9703L28.8398 2.98868C28.8489 1.93297 28.0273 0.211676 25.792 0.0877452H25.7369C24.3691 0.0097146 22.0832 -0.118829 20.9495 1.44178C20.3849 2.21291 20.1692 3.25028 20.3711 4.21418C20.5547 5.09547 21.0597 5.80693 21.7941 6.22462C22.5927 6.67904 23.4877 6.78459 24.3277 6.78459C24.7041 6.78459 25.0714 6.76625 25.411 6.7433L25.7139 6.72492C27.7519 6.61935 28.8168 5.19188 28.8168 3.82864H26.6457C26.6457 4.39321 25.6129 4.48958 25.6038 4.49417L25.2871 4.51255C24.3874 4.56304 23.451 4.6181 22.8406 4.26926C22.6156 4.14074 22.5284 3.91123 22.4917 3.74599C22.4229 3.4201 22.4963 3.03914 22.6845 2.78209C23.1252 2.1808 24.8051 2.2726 25.6176 2.3185V2.3139Z" fill="#575756"/>
<path d="M47.0154 2.13066C47.0016 2.09394 46.9879 2.05263 46.9741 2.01591C46.9741 2.01591 46.9741 2.00672 46.9695 2.00213C46.6161 1.07953 45.7394 0.133976 44.1145 0.0421753H44.0595C43.3388 -0.00372506 42.3611 -0.0542334 41.4339 0.138548C40.0018 0.34969 39.1206 1.26313 38.8314 2.28212C38.6157 2.89718 38.5652 3.5719 38.6983 4.2191C38.735 4.39811 38.7855 4.56794 38.8497 4.73318C38.8635 4.7699 38.8773 4.81121 38.8911 4.84793C38.8911 4.84793 38.8911 4.85253 38.8911 4.85712C39.2445 5.77972 40.1212 6.72527 41.7461 6.81707H41.8011C42.127 6.84002 42.508 6.86296 42.912 6.86296C43.4169 6.86296 43.9584 6.83086 44.4817 6.71611C45.8817 6.49119 46.7446 5.58695 47.0292 4.58173C47.2449 3.96666 47.2954 3.29194 47.1623 2.64475C47.1256 2.46573 47.0705 2.29591 47.0108 2.13066H47.0154ZM45.0463 3.12207C45.0968 3.35616 45.0692 3.61323 44.9866 3.83814H44.9683C44.9683 3.83814 44.9637 3.88405 44.9637 3.90241C44.9316 3.97126 44.8994 4.04008 44.8535 4.09516C44.7525 4.23745 44.5827 4.33846 44.3761 4.4119C44.3394 4.42567 44.2981 4.43482 44.2568 4.444C44.0778 4.48991 43.9309 4.50827 43.9263 4.50827L43.6096 4.52665C42.7099 4.57714 41.7736 4.63221 41.1631 4.28336C41.0116 4.19615 40.9244 4.06303 40.8694 3.92992C40.8694 3.92074 40.8694 3.9116 40.8694 3.90701H40.8602C40.8418 3.85193 40.8235 3.8014 40.8143 3.7555C40.7638 3.52141 40.7913 3.26439 40.8739 3.03948H40.8923C40.8923 3.03948 40.8969 2.99358 40.8969 2.97522C40.929 2.90636 40.9612 2.83749 41.0071 2.78241C41.1081 2.64012 41.2779 2.53916 41.489 2.46113C41.5257 2.44736 41.567 2.43815 41.6083 2.42897C41.7874 2.38307 41.9343 2.3693 41.9343 2.3693L42.251 2.35098C43.1506 2.30049 44.087 2.24536 44.6974 2.59421C44.8489 2.68142 44.9361 2.81454 44.9912 2.94765C44.9912 2.95683 44.9912 2.96603 44.9912 2.97062H45.0004C45.0187 3.0257 45.0371 3.07617 45.0463 3.12207Z" fill="#575756"/>
<path d="M10.0177 2.55949C10.0085 2.20147 9.91675 1.85264 9.73315 1.53592C9.15939 0.549066 7.82371 -0.010945 6.07949 0.0165952C3.633 0.0441355 1.33795 1.18708 0.364865 2.85786C-0.0941388 3.64734 -0.121695 4.50569 0.291409 5.21714C0.855983 6.18564 2.15037 6.73642 3.84869 6.73642H3.94512C5.37262 6.71806 6.74503 6.32333 7.83746 5.66236V6.7456H10.0407V2.56409H10.0177V2.55949ZM7.71811 2.75689C7.22698 3.60146 5.76274 4.46439 3.91295 4.48734C2.81594 4.50111 2.34315 4.2119 2.24217 4.10174C2.24676 4.07879 2.26512 4.03747 2.29725 3.98239C2.78839 3.13783 4.25263 2.27489 6.10241 2.25194C7.19484 2.23817 7.67221 2.52738 7.77319 2.63754C7.7686 2.66049 7.75024 2.70181 7.71811 2.75689Z" fill="#575756"/>
<path d="M18.121 0.835566C17.3086 0.225092 16.2483 0.0506523 15.2063 0.358185C14.4352 0.583097 13.8064 0.849352 13.2877 1.13852V0.15625H11.0156V6.73835H13.2877V4.36993C13.352 3.37848 14.6877 2.78175 15.8168 2.45127C16.207 2.33652 16.5512 2.38244 16.8174 2.5844C17.1342 2.82308 17.3132 3.24992 17.3132 3.75942V6.74294H19.4889V3.75942C19.4889 2.55683 18.9886 1.49195 18.121 0.840161V0.835566Z" fill="#575756"/>
<path d="M35.6205 2.44759H32.0264V0.125H29.7773V6.73007H32.0264V4.4764H35.6205V6.73007H37.7686V0.125H35.6205V2.44759Z" fill="#575756"/>
<path d="M51.6743 4.53142L49.4711 0.125H47.043L50.3478 6.73461H51.0179H51.3117H52.9962L56.301 0.125H53.8775L51.6743 4.53142Z" fill="#575756"/>
<path d="M65.83 0.125H63.411H63.4019L61.2721 4.37992L59.1469 0.125H56.7188L60.0786 6.84017L59.2754 8.46047H61.6989L65.83 0.125Z" fill="#575756"/>
<path d="M66.5954 0.125L65.8242 1.64427L67.8438 2.66784L69.1382 0.125H66.5954Z" fill="#575756"/>
<path d="M76.5614 3.84228C76.3411 3.42458 75.9785 3.08489 75.4736 2.83243C74.7621 2.47441 73.9864 2.4423 73.2153 2.39181C72.4442 2.34132 71.6685 2.30001 70.8973 2.28165C70.8331 2.28165 70.7734 2.28165 70.7137 2.28165C70.7964 1.91445 71.8015 1.85475 72.8664 1.85475C73.9864 1.85475 74.9366 1.91905 75.2349 2.34592C75.2624 2.38264 75.3634 2.56623 75.3634 2.56623L76.9333 1.35905C76.8506 1.23971 76.7818 1.14331 76.7083 1.06069C76.3044 0.587912 75.6434 0.289544 75.0559 0.183973C73.8441 -0.0271686 71.5216 0.0784336 71.2691 0.101384C70.8927 0.138104 70.5669 0.2207 70.2731 0.362991C69.58 0.698064 69.0889 1.29476 68.9604 1.96032C68.8502 2.53407 69.0154 3.09869 69.4148 3.5577C69.6626 3.84228 69.9655 4.03504 70.296 4.17274L68.6758 5.42582C69.0063 5.89859 69.4744 6.14188 69.7957 6.30712C70.5898 6.72023 71.5399 6.74777 72.3019 6.77072C72.4212 6.77072 72.5406 6.77527 72.6553 6.78445C72.8848 6.79363 73.1006 6.79823 73.3025 6.79823C75.6159 6.79823 76.2815 6.15103 76.5798 5.64153C76.7634 5.32941 77.0021 4.68684 76.5614 3.83768V3.84228ZM72.9629 4.88417C71.7419 4.88417 70.7229 4.80615 70.5301 4.26912L70.4842 4.14518C71.0259 4.25993 71.5675 4.28288 72.1183 4.3196C72.8527 4.3655 73.5917 4.41141 74.3261 4.43895C74.5372 4.44813 74.753 4.45273 74.9641 4.45732C74.8815 4.82453 74.0186 4.88417 72.9583 4.88417H72.9629Z" fill="#575756"/>
<path d="M38.4669 9.35938C29.3465 9.35938 19.6523 11.0577 19.6523 14.2064C19.6523 17.3552 29.3465 19.0535 38.4669 19.0535C47.5873 19.0535 57.2815 17.3552 57.2815 14.2064C57.2815 11.0577 47.5873 9.35938 38.4669 9.35938ZM38.4669 18.1676C27.9006 18.1676 20.5382 16.0792 20.5382 14.2018C20.5382 12.3245 27.9006 10.236 38.4669 10.236C49.0332 10.236 56.3956 12.3245 56.3956 14.2018C56.3956 16.0792 49.0332 18.1676 38.4669 18.1676Z" fill="#575756"/>
<path d="M27.9223 13.5425C28.1564 13.4048 28.5052 13.3359 28.978 13.3359C29.2993 13.3359 29.6114 13.3726 29.9189 13.446C30.2265 13.5195 30.4514 13.6342 30.5983 13.7857C31.195 13.6159 31.7136 13.492 32.1589 13.4093C31.631 12.8218 30.5891 12.5234 29.0285 12.5234C27.9131 12.5234 27.0915 12.6657 26.5637 12.9457C26.0358 13.2257 25.7695 13.6113 25.7695 14.0978C25.7695 14.5844 26.0358 14.9516 26.5637 15.2132C27.0915 15.4749 27.9131 15.6034 29.0285 15.6034C29.7078 15.6034 30.3367 15.5391 30.915 15.4106C31.4933 15.2775 31.9018 15.0526 32.1497 14.7221C31.5209 14.5706 31.0022 14.4375 30.5983 14.3182C30.4835 14.4834 30.3091 14.5982 30.0658 14.6762C29.8225 14.7496 29.5013 14.7909 29.0882 14.7909C28.5741 14.7909 28.1931 14.7221 27.9452 14.5844C27.6973 14.4467 27.5734 14.2723 27.5734 14.052C27.5734 13.85 27.6882 13.6802 27.9223 13.5471V13.5425Z" fill="#575756"/>
<path d="M34.5539 12.6094H32.75C32.7913 13.1372 32.8097 13.6283 32.8097 14.0874C32.8097 14.5464 32.7913 15.0375 32.75 15.5653H37.9643C37.9643 15.3817 37.9688 15.2303 37.9872 15.1018C38.001 14.9733 38.0423 14.8402 38.1065 14.7025C37.1702 14.7254 35.9859 14.7392 34.5539 14.7438V12.6094Z" fill="#575756"/>
<path d="M42.7086 14.1484C42.7086 14.2769 42.6903 14.3825 42.6536 14.4605C42.6168 14.5432 42.4975 14.6166 42.3001 14.6809C42.1028 14.7451 41.7907 14.7818 41.3684 14.7818C40.9782 14.7818 40.6936 14.7497 40.5192 14.6855C40.3448 14.6212 40.2392 14.5523 40.2071 14.4743C40.175 14.4008 40.1566 14.3044 40.1566 14.1851V12.6016H38.3206V14.2494C38.3114 14.6533 38.5226 14.9792 38.9494 15.2271C39.3763 15.4749 40.1749 15.5989 41.3362 15.5989C42.4975 15.5989 43.3007 15.4704 43.7873 15.2087C44.2738 14.9471 44.5217 14.6166 44.5309 14.2219V12.6016H42.6949V14.1484H42.7086Z" fill="#575756"/>
<path d="M49.4633 14.0919C49.9727 14.0139 50.3308 13.9084 50.5374 13.7799C50.7485 13.6513 50.8495 13.5044 50.8495 13.3392C50.8495 13.1739 50.776 13.0408 50.6291 12.9352C50.4823 12.8297 50.2344 12.747 49.881 12.692C49.5275 12.6369 49.0456 12.6094 48.4351 12.6094H46.8607H45.1211C45.1624 13.1372 45.1808 13.6283 45.1808 14.0874C45.1808 14.5464 45.1624 15.0375 45.1211 15.5653H48.4489C49.1466 15.5653 49.6973 15.5286 50.0921 15.4598C50.4868 15.3863 50.7577 15.2854 50.9137 15.1569C51.0652 15.0283 51.1432 14.8723 51.1432 14.6841C51.1432 14.2893 50.5832 14.0919 49.4587 14.0919H49.4633ZM46.8699 13.353H48.2928C48.5866 13.353 48.7977 13.3667 48.9263 13.3897C49.0548 13.4126 49.1144 13.4585 49.1144 13.5228C49.1144 13.6008 49.0548 13.6559 48.9308 13.688C48.8069 13.7202 48.5958 13.7339 48.2882 13.7339H46.8653V13.3576L46.8699 13.353ZM49.1695 14.7346C49.1099 14.7667 49.0135 14.7851 48.8758 14.7988C48.7381 14.8126 48.5453 14.8172 48.2882 14.8172H46.8653V14.4041H48.2882C48.6508 14.4041 48.9033 14.4179 49.0456 14.45C49.1879 14.4821 49.2567 14.5326 49.2567 14.6014C49.2567 14.6565 49.2246 14.6978 49.1695 14.73V14.7346Z" fill="#575756"/>
</svg>
