<svg width="86" height="20" viewBox="0 0 86 20" fill="none" xmlns="http://www.w3.org/2000/svg">
<path d="M24.8035 14.6627C24.6612 14.8234 24.4959 14.9657 24.3169 15.085C23.7294 15.4798 23.1281 15.8562 22.536 16.2417C22.0357 16.563 21.54 16.8843 21.0396 17.2102C21.0075 17.2332 20.9846 17.2745 20.957 17.3112C20.9938 17.3433 21.0213 17.3663 21.0626 17.403C22.0586 16.7741 23.0593 16.1453 24.0599 15.5165C24.0599 15.6312 24.0186 15.7093 23.9727 15.7827C23.8258 16.026 23.6697 16.2647 23.5274 16.5125C23.3025 16.9073 23.2016 17.3296 23.1924 17.7886C23.1832 18.5138 23.8901 19.1472 24.6428 19.0325C24.955 18.9866 25.2671 18.8993 25.57 18.7938C26.1897 18.578 26.7497 18.2384 27.2959 17.8849C28.3699 17.1919 29.4348 16.485 30.5043 15.7827C30.5548 15.7506 30.6099 15.7276 30.7384 15.6634C30.6604 15.8149 30.6236 15.8974 30.5777 15.9709C30.4584 16.1637 30.3299 16.3519 30.2151 16.5492C29.9994 16.9118 29.802 17.2882 29.6965 17.7013C29.5404 18.3256 29.8479 18.881 30.4079 19.0233C30.6053 19.0738 30.7935 19.0325 30.9817 18.9774C31.6794 18.7662 32.3036 18.4128 32.9095 18.0227C34.0524 17.2883 35.1861 16.5355 36.3153 15.7827C37.0864 15.2686 37.8484 14.7454 38.6057 14.2175C38.8536 14.0431 39.0831 13.8319 39.3264 13.6346C39.4273 13.6942 39.5237 13.7493 39.6201 13.8044C39.6017 13.8457 39.5926 13.8733 39.5788 13.8825C38.9178 14.3185 38.3211 14.8326 37.7428 15.3696C37.2012 15.8699 36.733 16.4253 36.4117 17.0955C36.2648 17.4076 36.1546 17.7289 36.1638 18.0823C36.173 18.4863 36.3658 18.7754 36.7468 18.9223C37.0956 19.0554 37.449 19.0921 37.8208 18.982C38.4038 18.803 38.95 18.5413 39.464 18.2246C40.3499 17.6784 41.2174 17.1092 42.0896 16.5492C42.1768 16.4942 42.2732 16.4437 42.4109 16.3611C42.365 16.5171 42.3466 16.6043 42.3191 16.687C42.2181 16.9853 42.1951 17.2882 42.2181 17.6004C42.264 18.2338 42.6679 18.7341 43.2692 18.9453C43.8246 19.1426 44.3524 19.0325 44.8803 18.8672C46.0691 18.4908 47.1248 17.8482 48.1346 17.1414C49.1261 16.4483 50.0716 15.6909 51.0355 14.9565C51.6093 14.5204 52.1785 14.0798 52.8119 13.7355C53.0001 13.63 53.1929 13.5933 53.3948 13.6667C53.4728 13.8779 53.4866 13.887 53.404 14.0201C53.2846 14.2129 53.1561 14.4057 53.0047 14.571C52.642 14.9657 52.2657 15.3467 51.8893 15.7322C51.1044 16.5447 50.3149 17.3571 49.53 18.1741C49.3648 18.344 49.2041 18.5184 49.0848 18.7341C49.3235 19.0508 49.6356 18.9177 49.9293 18.9269C50.0579 18.8213 50.2001 18.7204 50.3241 18.601C50.8336 18.0915 51.3293 17.5728 51.8388 17.0633C52.1922 16.7099 52.5411 16.3381 52.9312 16.026C53.7941 15.3466 54.6984 14.727 55.6393 14.1624C55.8918 14.011 56.1672 13.8916 56.438 13.7677C56.617 13.6897 56.8098 13.6621 56.9842 13.7585C57.0944 13.9192 57.0577 14.066 56.9842 14.1945C56.8282 14.447 56.6813 14.7087 56.4839 14.929C55.9239 15.5624 55.3364 16.1729 54.7626 16.7925C54.244 17.3525 53.7253 17.9171 53.2066 18.4817C53.1424 18.5551 53.0873 18.6377 53.023 18.7295C53.0919 18.7938 53.1332 18.8672 53.1883 18.881C53.482 18.9682 53.7758 18.9957 54.0374 18.7938C54.1384 18.7157 54.2256 18.6286 54.3128 18.5368C54.9738 17.8712 55.6439 17.2148 56.2911 16.5355C56.998 15.7919 57.8104 15.1906 58.6963 14.6719C59.2701 14.3369 59.853 14.0247 60.4818 13.8044C60.6608 13.7401 60.8399 13.6483 61.0372 13.7309C61.1612 13.8778 61.0923 14.0064 61.0051 14.112C60.8582 14.2864 60.7022 14.4516 60.5415 14.6168C59.9448 15.2319 59.3297 15.8286 58.756 16.462C58.4439 16.8063 58.1776 17.201 57.9389 17.5958C57.6039 18.1466 57.838 18.6698 58.453 18.9085C58.834 19.0554 59.2288 19.1013 59.6281 18.9682C59.8897 18.881 60.1605 18.8167 60.3992 18.6928C61.0005 18.3899 61.6018 18.0823 62.1802 17.7427C62.6208 17.4811 63.0293 17.1643 63.4516 16.8706C63.5296 16.8201 63.6123 16.7833 63.7086 16.7283C63.5985 17.0771 63.4562 17.3846 63.4057 17.7013C63.2496 18.6469 64.0207 19.2436 64.7827 18.9728C65.1361 18.8489 65.485 18.6882 65.7971 18.4863C66.2561 18.1925 66.683 17.8482 67.1328 17.5177C67.119 17.5636 67.0961 17.6187 67.0961 17.6692C67.0961 17.862 67.0639 18.064 67.1144 18.243C67.2705 18.7984 67.8534 19.1288 68.4685 19.0233C68.7026 18.982 68.9367 18.9131 69.157 18.8305C69.8134 18.5873 70.4147 18.2292 70.9976 17.8482C72.2231 17.0496 73.4395 16.2417 74.6559 15.4293C75.5004 14.8693 76.368 14.3322 77.1253 13.6254C77.1942 13.6575 77.2676 13.6897 77.3364 13.7264C77.3732 13.7494 77.4053 13.7815 77.4374 13.809C77.4191 13.8411 77.4145 13.8641 77.4007 13.8779C76.7397 14.3139 76.143 14.828 75.5647 15.365C75.0231 15.8653 74.5503 16.4207 74.2336 17.0909C74.0867 17.403 73.9857 17.7243 73.9857 18.0778C73.9857 18.4863 74.1877 18.7524 74.5411 18.8993C74.8716 19.037 75.2204 19.1059 75.5785 18.982C75.8493 18.8902 76.1201 18.803 76.3817 18.6882C77.1988 18.321 77.9423 17.8299 78.6951 17.3571C79.1403 17.0771 79.5672 16.7742 80.0033 16.4804C80.0629 16.4437 80.1318 16.4161 80.2282 16.3702C80.1685 16.5814 80.118 16.742 80.0813 16.9073C80.0033 17.2928 79.9895 17.6784 80.141 18.0548C80.4623 18.8443 81.2793 19.1197 81.9678 19.0233C82.2799 18.9774 82.592 18.8902 82.895 18.7892C83.735 18.5046 84.4969 18.064 85.2405 17.6004C85.4516 17.4673 85.6628 17.3249 85.8647 17.1781C85.906 17.1505 85.9152 17.0817 85.9519 17.0174C85.7821 16.9945 85.7087 17.0955 85.6215 17.1551C84.9467 17.605 84.249 18.0227 83.5054 18.3485C82.9959 18.5689 82.4727 18.7112 81.9081 18.6469C81.5226 18.601 81.2288 18.4357 81.1141 18.0502C81.0223 17.7518 81.036 17.4443 81.1553 17.1414C81.3894 17.0955 81.6098 17.0496 81.8347 17.0128C82.8858 16.8338 83.8543 16.4437 84.7264 15.8332C85.1716 15.5211 85.5618 15.1539 85.7959 14.6535C85.8969 14.4378 85.9841 14.2129 85.9152 13.9604C85.8096 13.5565 85.4654 13.2811 85.011 13.2444C84.5382 13.2077 84.1067 13.3454 83.6845 13.5336C82.7986 13.9329 82.0321 14.5113 81.3206 15.1539C80.7147 15.7001 80.0905 16.2096 79.4065 16.6549C79.1862 16.7971 78.9659 16.944 78.7548 17.0955C77.9699 17.6509 77.1391 18.1282 76.2532 18.5046C76.0145 18.6056 75.7575 18.6882 75.505 18.7341C75.0644 18.8167 74.6192 18.4863 74.8349 17.9033C74.968 17.5453 75.1654 17.2286 75.4086 16.9348C75.9594 16.2601 76.5883 15.6634 77.2355 15.0804C77.5614 14.7913 77.8781 14.4975 78.1948 14.1991C78.2912 14.1073 78.3967 14.0202 78.4105 13.8412C78.2223 13.7861 78.0341 13.7355 77.8551 13.6759C77.6807 13.6162 77.4833 13.5749 77.3824 13.3822C77.7541 13.0746 78.1076 12.7671 78.1764 12.2667C78.0249 11.8491 77.7817 11.7389 77.4099 11.9271C77.1391 12.0648 76.9234 12.2668 76.7535 12.5146C76.602 12.7304 76.5837 12.9553 76.7351 13.1848C76.7902 13.2674 76.8453 13.3546 76.9096 13.4464C76.6433 13.7814 76.3129 14.0247 75.9824 14.2588C75.3122 14.7316 74.6329 15.1952 73.949 15.6588C72.9484 16.3381 71.9523 17.0266 70.938 17.683C70.3275 18.0823 69.6895 18.4449 68.9872 18.6698C68.776 18.7387 68.5649 18.7616 68.3492 18.7249C68.1472 18.6882 68.0095 18.5826 67.9728 18.3807C67.9498 18.2384 67.9452 18.0869 67.959 17.9446C68.0049 17.5453 68.2619 17.2607 68.5144 16.9853C68.9688 16.4896 69.437 16.003 69.9006 15.5119C70.433 14.9473 70.9655 14.3782 71.4933 13.809C71.5759 13.7218 71.6402 13.6162 71.732 13.4923C71.4015 13.2674 71.0802 13.4097 70.8094 13.3638C70.5524 13.5336 70.4055 13.7769 70.1668 13.9146C70.075 13.7998 69.997 13.6989 69.9144 13.6071C69.6986 13.3638 69.4232 13.2352 69.0973 13.2398C68.9137 13.2398 68.7301 13.249 68.5511 13.2765C67.9682 13.3637 67.4357 13.6025 66.9262 13.8916C65.9623 14.4379 65.1453 15.1677 64.3604 15.9388C64.2135 16.0811 64.0621 16.2188 63.8922 16.3381C63.4608 16.6411 63.011 16.9119 62.5887 17.224C61.868 17.7565 61.0831 18.1741 60.2707 18.5413C59.9173 18.6974 59.5501 18.8259 59.1461 18.803C58.7835 18.78 58.6871 18.702 58.577 18.3302C58.6275 17.9997 58.8202 17.7427 59.0451 17.5132C59.4674 17.0817 59.9035 16.6594 60.3349 16.2325C60.7389 15.8286 61.1474 15.4293 61.5421 15.0162C61.7762 14.7683 61.9874 14.4929 62.0929 14.1578C62.249 13.6575 61.9231 13.2123 61.4044 13.2444C61.2025 13.2582 60.9959 13.3133 60.8077 13.3913C59.7658 13.8319 58.7652 14.3598 57.815 14.9795C57.7186 15.0437 57.6131 15.0988 57.5121 15.1585C57.5304 15.0392 57.5901 14.9703 57.6268 14.8876C57.7324 14.6352 57.8655 14.392 57.9252 14.1303C58.0537 13.5703 57.737 13.2169 57.1586 13.2444C57.0485 13.249 56.9291 13.2766 56.8282 13.3133C56.6354 13.3867 56.4426 13.4647 56.2682 13.5703C55.4971 14.0339 54.7305 14.5113 53.9594 14.9795C53.8401 15.0529 53.7161 15.1263 53.5968 15.1998C53.6289 15.0621 53.6978 14.9565 53.7528 14.8509C53.9227 14.5388 54.0558 14.2129 54.0328 13.8412C54.0145 13.5566 53.8768 13.3775 53.606 13.2857C53.3673 13.2031 53.1286 13.2077 52.9129 13.3454C52.5686 13.5657 52.2198 13.7906 51.8939 14.0385C51.008 14.727 50.1497 15.4431 49.2592 16.1178C48.6304 16.5952 47.9832 17.045 47.3176 17.4626C46.7989 17.7885 46.2435 18.0685 45.6881 18.3394C45.1878 18.5826 44.6554 18.702 44.0908 18.6423C43.6777 18.5964 43.3748 18.3853 43.283 18.0135C43.2095 17.7243 43.2095 17.4305 43.3335 17.1368C43.4161 17.1184 43.4941 17.1001 43.5675 17.0817C43.9898 16.9899 44.4213 16.9211 44.8344 16.8063C45.734 16.5538 46.5603 16.1407 47.2717 15.5303C47.5792 15.2686 47.8317 14.9611 47.9969 14.5847C48.2953 13.9054 47.9005 13.2765 47.1524 13.2352C47.1202 13.2352 47.0835 13.2352 47.0514 13.2352C46.6291 13.2261 46.2389 13.3592 45.8626 13.529C44.9767 13.9283 44.2193 14.5159 43.4941 15.1493C42.9433 15.6313 42.4017 16.1224 41.782 16.5171C41.3965 16.7604 41.0293 17.0358 40.6483 17.2882C39.8083 17.839 38.9408 18.3485 37.9769 18.6652C37.8208 18.7157 37.6418 18.7433 37.4766 18.7341C37.091 18.7066 36.8982 18.4266 36.9763 18.041C37.0405 17.7335 37.192 17.4627 37.371 17.2148C37.9539 16.4162 38.67 15.746 39.4044 15.085C39.7257 14.7959 40.047 14.5021 40.3637 14.2037C40.4601 14.1119 40.5657 14.0201 40.5794 13.8595C40.2398 13.6896 39.8129 13.7126 39.5421 13.4051C40.1112 12.9185 40.2627 12.6936 40.3453 12.2667C40.1985 11.8536 39.9552 11.7481 39.5834 11.9363C39.3034 12.0786 39.0785 12.2897 38.9087 12.5513C38.771 12.7625 38.7618 12.9782 38.9041 13.1939C38.9591 13.2766 39.0142 13.3638 39.0785 13.4556C38.8949 13.7034 38.67 13.8962 38.4267 14.0661C37.55 14.6811 36.6641 15.2916 35.7828 15.9021C35.0393 16.4116 34.2957 16.9256 33.5429 17.4214C33.0288 17.761 32.501 18.0777 31.9685 18.3852C31.6931 18.5459 31.3902 18.6469 31.0597 18.6607C30.5594 18.6836 30.44 18.3118 30.5089 17.9676C30.5227 17.8896 30.5594 17.8115 30.6007 17.7472C30.8669 17.3204 31.1148 16.8798 31.4085 16.4804C32.5147 14.9795 33.7449 13.5841 35.0025 12.2071C35.2183 11.973 35.4432 11.7481 35.6589 11.5186C36.0215 11.5186 36.3658 11.5186 36.7054 11.5186C36.8707 11.5186 37.0267 11.5048 37.1644 11.335C37.1507 11.2615 37.1277 11.1697 37.1048 11.055C36.7697 11.0412 36.4622 11.032 36.1087 11.0183C36.2235 10.8806 36.3015 10.7841 36.3841 10.6923C36.8845 10.1599 37.3894 9.63206 37.8943 9.09961C38.1743 8.80126 38.4588 8.49833 38.7342 8.19539C38.8077 8.11277 38.8582 8.01176 38.9454 7.88324C38.7985 7.80521 38.6837 7.74554 38.6195 7.70882C38.1329 7.72718 37.8025 7.94292 37.5179 8.24128C36.9579 8.8288 36.4025 9.42091 35.8471 10.013C35.5258 10.3527 35.2091 10.697 34.9107 11.0229C34.4976 11.0596 34.1075 10.9907 33.7357 11.0688C33.7127 11.3855 33.7862 11.4864 34.0432 11.514C34.1534 11.5277 34.2681 11.514 34.438 11.514C34.314 11.6654 34.2314 11.7756 34.1396 11.8766C33.6072 12.4871 33.0747 13.1021 32.5423 13.7126C31.8951 14.4562 31.2066 15.1539 30.3391 15.6496C30.2794 15.6817 30.2243 15.723 30.1692 15.7644C29.343 16.3197 28.5214 16.8797 27.6952 17.4259C27.0572 17.8482 26.41 18.2567 25.6985 18.5551C25.3589 18.6974 25.0146 18.803 24.6382 18.8076C24.4409 18.8076 24.2848 18.7433 24.1517 18.6056C23.8901 18.3302 23.7937 17.9171 23.9819 17.5591C24.193 17.1552 24.4179 16.7512 24.6979 16.3978C25.4644 15.4155 26.2585 14.4562 27.048 13.4969C27.1536 13.3684 27.3096 13.2812 27.4519 13.1939C27.6585 13.0746 27.8834 12.9874 28.0945 12.8726C29.6092 12.0694 31.0413 11.1284 32.4505 10.1462C33.3868 9.48978 34.2911 8.78747 35.1127 7.9934C35.613 7.50685 36.1179 7.02495 36.5035 6.43742C36.632 6.24005 36.7513 6.02432 36.834 5.804C37.0222 5.28073 36.7513 4.8171 36.2143 4.67021C35.9481 4.59677 35.691 4.64271 35.4386 4.71156C34.8786 4.86763 34.3875 5.16136 33.9193 5.48266C32.9967 6.12067 32.1521 6.8597 31.3443 7.63082C29.8433 9.05832 28.4617 10.596 27.0664 12.1199C26.3044 12.9553 25.5746 13.8228 24.8264 14.6673L24.8035 14.6627ZM82.0321 15.7047C82.6517 14.984 83.3448 14.3368 84.1756 13.8641C84.4326 13.7172 84.6989 13.607 85.0156 13.6162C85.3323 13.6254 85.6582 13.9054 85.5618 14.3139C85.493 14.6168 85.3598 14.8693 85.1579 15.0942C84.8228 15.4752 84.4051 15.7552 83.9553 15.9893C83.1704 16.3978 82.3304 16.6456 81.4629 16.7925C81.4216 16.8017 81.3757 16.7925 81.2885 16.7833C81.5042 16.3656 81.7521 16.026 82.0275 15.7047H82.0321ZM64.1997 18.0227C64.2686 17.8299 64.3788 17.6509 64.4889 17.481C64.8515 16.9348 65.2968 16.462 65.7558 15.9985C66.481 15.264 67.2475 14.5801 68.1105 14.0201C68.3859 13.8411 68.6934 13.7126 68.9917 13.5749C69.0698 13.5382 69.1662 13.5198 69.258 13.5198C69.694 13.5106 69.9373 13.8595 69.7721 14.2588C69.7124 14.4011 69.6206 14.5434 69.5104 14.6581C68.4914 15.7047 67.5229 16.8063 66.4076 17.761C66.0587 18.0594 65.6961 18.3348 65.2692 18.5138C65.0719 18.5964 64.8607 18.6377 64.6542 18.6974C64.2319 18.6607 64.0575 18.4266 64.1997 18.0319V18.0227ZM43.9806 15.9985C44.5544 15.2503 45.2246 14.6031 46.0094 14.0798C46.2068 13.9467 46.4271 13.8457 46.6337 13.7309C46.8311 13.6208 47.0468 13.6116 47.2671 13.6392C47.5976 13.6759 47.7858 13.9329 47.7491 14.2634C47.7124 14.6077 47.5379 14.8831 47.3084 15.1309C47.0055 15.4614 46.6429 15.723 46.2527 15.9342C45.4311 16.3794 44.5544 16.6456 43.6364 16.7971C43.5951 16.8063 43.5492 16.7925 43.4803 16.7879C43.6089 16.485 43.7925 16.2417 43.9761 16.003L43.9806 15.9985ZM28.6545 11.5553C29.7286 10.2976 30.8118 9.04915 31.9731 7.86492C32.7351 7.0892 33.5108 6.33183 34.4104 5.72135C34.7868 5.4689 35.1907 5.24858 35.5947 5.03744C35.7415 4.964 35.9205 4.93187 36.0904 4.92728C36.5127 4.9181 36.7422 5.22565 36.6182 5.63417C36.554 5.8499 36.4438 6.05643 36.3245 6.24922C36.0261 6.72658 35.6451 7.13506 35.255 7.53899C34.4655 8.35601 33.5704 9.04456 32.6524 9.70093C31.381 10.6098 30.082 11.4819 28.7325 12.2667C28.3883 12.4687 28.0349 12.6477 27.6814 12.8359C27.6631 12.8175 27.6447 12.7992 27.6264 12.7762C27.966 12.3677 28.3057 11.9546 28.6545 11.5507V11.5553Z" fill="#575756"/>
<path d="M0.504893 18.6071C1.34028 18.9514 2.22158 18.9972 3.09827 18.8963C3.80055 18.8136 4.47528 18.5888 5.13166 18.3088C5.92114 17.9737 6.66473 17.5514 7.38077 17.0786C7.71126 16.8629 8.04633 16.6472 8.41353 16.4131C8.45484 16.5829 8.47779 16.6931 8.50992 16.8032C8.80827 17.9094 9.51514 18.6025 10.6351 18.8412C11.5164 19.0294 12.3885 18.9376 13.2422 18.6851C14.3163 18.3684 15.294 17.8589 16.2166 17.2393C17.208 16.5783 18.1215 15.821 18.9982 15.0177C20.8158 13.3515 22.5279 11.6027 23.781 9.47755C24.3272 9.18379 24.8688 8.91296 25.3875 8.60543C26.5763 7.90775 27.6687 7.08611 28.5408 6.00286C29.3395 5.01141 29.8306 3.90979 29.7297 2.60163C29.67 1.80296 29.3395 1.15581 28.674 0.696807C28.2563 0.403045 27.7881 0.237812 27.2878 0.132242C26.4478 -0.0467698 25.6078 -0.023869 24.7632 0.0817019C23.5561 0.228583 22.3948 0.55448 21.2656 1.0043C19.3608 1.76625 17.6395 2.83114 16.0376 4.10258C14.6009 5.24091 13.2973 6.51698 12.1315 7.9353C10.9335 9.38576 9.90071 10.9418 9.1663 12.6814C8.80828 13.5214 8.51911 14.3843 8.4319 15.3069C8.40895 15.5685 8.37682 15.8255 8.34928 16.0918C7.51389 16.6885 6.6739 17.2806 5.7559 17.7488C4.98018 18.1435 4.17693 18.4648 3.30941 18.6071C2.69894 18.7081 2.12518 18.6439 1.61569 18.2583C1.44127 18.1298 1.25767 18.0104 1.07407 17.8957C0.977676 17.836 0.881288 17.7672 0.775717 17.735C0.683917 17.7075 0.564569 17.6845 0.481948 17.7166C0.257036 17.8084 0.0596705 17.9461 0 18.2123C0.0872107 18.4373 0.298342 18.5245 0.491123 18.6071H0.504893ZM9.34071 14.4898C9.77218 13.3148 10.3964 12.2408 11.0849 11.1988C12.1131 9.64279 13.2927 8.20607 14.5779 6.85201C15.9366 5.42451 17.4008 4.12098 19.0165 2.99183C20.4257 2.00497 21.922 1.17415 23.579 0.678429C24.4052 0.430567 25.2452 0.283706 26.1081 0.297476C26.6773 0.306656 27.2465 0.384642 27.7835 0.595784C28.6831 0.953807 29.1238 1.61479 29.1743 2.56493C29.2202 3.48753 28.8989 4.31373 28.4353 5.08945C27.7468 6.24155 26.8379 7.20086 25.7731 8.00871C25.3554 8.32542 24.9009 8.59624 24.4603 8.87623C24.3501 8.94967 24.217 8.99098 24.0977 9.04606C24.4006 8.35296 24.6668 7.67367 24.8183 6.95303C24.9193 6.47108 24.9744 5.9891 24.8688 5.49337C24.699 4.71307 24.0472 4.15766 23.2485 4.10717C22.3581 4.05209 21.5594 4.33213 20.7883 4.72228C19.7004 5.27308 18.7365 6.00744 17.8185 6.79693C16.3864 8.02706 15.0737 9.38114 13.8068 10.7765C12.4528 12.2637 11.0574 13.7095 9.5794 15.0774C9.42793 15.2151 9.27187 15.3482 9.08827 15.5089C9.11581 15.1187 9.23514 14.802 9.35448 14.4852L9.34071 14.4898ZM9.23056 15.876C10.0476 15.2151 10.8646 14.5587 11.6771 13.8932C12.8796 12.9063 13.995 11.8276 15.0737 10.7076C16.1202 9.61981 17.1484 8.5182 18.1995 7.43954C19.0119 6.60416 19.8932 5.83762 20.8755 5.2042C21.4263 4.85077 22 4.53403 22.6564 4.43764C22.9226 4.39633 23.2072 4.39174 23.4734 4.43764C24.1298 4.55239 24.5292 4.99763 24.6577 5.64482C24.777 6.23694 24.6577 6.8061 24.4924 7.36609C24.3042 8.01328 24.0197 8.62379 23.7075 9.23426C23.143 9.54639 22.5279 9.75751 21.9128 9.95947C21.3069 10.1568 20.7011 10.3542 20.0906 10.5516C19.4755 10.749 18.8237 10.8224 18.2133 11.0473C18.2821 11.2125 18.3969 11.1804 18.4887 11.1667C18.6677 11.1345 18.8421 11.084 19.0211 11.0427C20.0539 10.7949 21.0774 10.5195 22.0689 10.1431C22.482 9.98702 22.8951 9.83558 23.3816 9.65197C23.2898 9.82181 23.2394 9.92735 23.1751 10.0283C22.7115 10.7765 22.1561 11.4604 21.5869 12.1305C20.7607 13.0945 19.8886 14.0125 18.9385 14.8571C17.8874 15.7934 16.7949 16.6701 15.574 17.377C14.6606 17.9048 13.7058 18.3317 12.6639 18.5475C12.1223 18.6576 11.5715 18.6943 11.0253 18.6301C10.121 18.5199 9.47384 18.0517 9.19384 17.1567C9.08827 16.8216 9.0286 16.4728 8.94598 16.1239C9.05155 16.0321 9.13417 15.9541 9.22138 15.8806L9.23056 15.876Z" fill="#575756"/>
</svg>
