<svg width="92" height="13" viewBox="0 0 92 13" fill="none" xmlns="http://www.w3.org/2000/svg">
<path d="M70.9761 12.7666V12.3125H70.9899C71.5194 12.3125 71.9521 12.2059 72.2882 11.9927C72.6242 11.7796 72.8866 11.4599 73.0662 11.0335C73.2503 10.6026 73.3793 10.065 73.4483 9.41628C73.5174 8.76752 73.5496 8.01217 73.545 7.14098V5.66277C73.545 4.79158 73.5174 4.03159 73.4437 3.38283C73.37 2.73407 73.2412 2.19189 73.0616 1.7563C72.8775 1.3207 72.615 0.996335 72.2789 0.783172C71.9429 0.565375 71.5148 0.45876 70.9899 0.45876H70.9715V0.00927701C71.57 0.00927701 72.1592 0.0973453 72.7347 0.264169C73.324 0.435626 73.8673 0.690511 74.3829 1.03343C74.8985 1.37171 75.3497 1.80262 75.7456 2.31699C76.1369 2.82673 76.4454 3.42914 76.6663 4.11034C76.8873 4.79617 77.0024 5.56082 77.007 6.41811C77.007 7.26149 76.8873 8.02607 76.6663 8.70263C76.4454 9.37919 76.1369 9.97237 75.7456 10.4775C75.3543 10.9872 74.9031 11.4089 74.3921 11.7472C73.8764 12.0855 73.3286 12.3403 72.7485 12.5071C72.1593 12.6786 71.57 12.762 70.9715 12.762L70.9761 12.7666ZM84.594 12.5998C84.6078 12.623 84.6354 12.6415 84.6769 12.6508C84.7183 12.6647 84.7597 12.674 84.8057 12.6786C84.8518 12.6833 84.884 12.6878 84.9117 12.6878C84.9255 12.6878 84.9531 12.6879 84.9991 12.6786C85.0406 12.674 85.0866 12.6601 85.1326 12.6508C85.1741 12.6369 85.2017 12.623 85.2063 12.6091L89.7594 0.690459H91.0761C91.1267 0.690459 91.1636 0.662691 91.1866 0.611717C91.2142 0.565377 91.2234 0.505133 91.2234 0.435624C91.2234 0.366114 91.2142 0.30587 91.1866 0.25953C91.159 0.21319 91.1221 0.185366 91.0761 0.180732H87.9777C87.9271 0.180732 87.8903 0.208556 87.8672 0.25953C87.8396 0.30587 87.8304 0.366114 87.8304 0.435624C87.8304 0.505133 87.8442 0.565377 87.8672 0.611717C87.8949 0.658057 87.9271 0.685825 87.9777 0.690459H89.2162L86.3618 8.1141L83.2451 0.690459H84.5618C84.6124 0.690459 84.6493 0.662691 84.6723 0.611717C84.6999 0.565377 84.7091 0.505133 84.7091 0.435624C84.7091 0.366114 84.6999 0.30587 84.6723 0.25953C84.6446 0.21319 84.6078 0.185366 84.5618 0.180732H78.3099C78.2592 0.180732 78.2224 0.208556 78.1994 0.25953C78.1717 0.30587 78.1626 0.366114 78.1626 0.435624C78.1626 0.505133 78.1763 0.565377 78.1994 0.611717C78.227 0.658057 78.2592 0.685825 78.3099 0.690459H79.6127L84.594 12.6045V12.5998ZM70.9761 0.00927701V0.463398C70.4559 0.463398 70.0323 0.570013 69.6962 0.787811C69.3602 1.00561 69.0932 1.32997 68.9044 1.76094C68.7157 2.19653 68.5822 2.73408 68.5085 3.38747C68.4348 4.03622 68.398 4.79622 68.398 5.66741V7.14562C68.398 8.01217 68.4302 8.77216 68.5085 9.42092C68.5822 10.0697 68.7157 10.6072 68.9044 11.0382C69.0932 11.4645 69.3556 11.7889 69.6962 11.9974C70.0323 12.2059 70.4559 12.3125 70.9761 12.3172V12.7713H70.9577C70.35 12.7713 69.7561 12.6878 69.1714 12.5164C68.5867 12.3496 68.0435 12.0947 67.5325 11.7564C67.0215 11.4181 66.5749 10.9964 66.1836 10.4867C65.7923 9.9816 65.493 9.38847 65.2674 8.71191C65.0465 8.03071 64.9406 7.27076 64.9314 6.42275C64.936 5.57009 65.0465 4.79617 65.2674 4.11034C65.4884 3.42451 65.7923 2.82672 66.179 2.31235C66.5703 1.80261 67.0169 1.3717 67.5279 1.02879C68.0343 0.690506 68.5775 0.430987 69.1622 0.25953C69.7423 0.0880728 70.3316 0.00463851 70.9347 0.00463851H70.9715L70.9761 0.00927701ZM20.4361 12.7666V12.3125H20.4545C20.9839 12.3125 21.4167 12.2059 21.7527 11.9927C22.0888 11.7796 22.3513 11.4599 22.5308 11.0335C22.715 10.6026 22.8438 10.065 22.9129 9.41628C22.982 8.76752 23.0142 8.01217 23.0096 7.14098V5.66277C23.0096 4.79158 22.9819 4.03159 22.9083 3.38283C22.8346 2.73407 22.7103 2.19189 22.5262 1.7563C22.342 1.3207 22.0796 0.996335 21.7435 0.783172C21.4074 0.565375 20.9793 0.45876 20.4545 0.45876H20.4361V0.00927701C21.0346 0.00927701 21.6238 0.0973453 22.1993 0.264169C22.784 0.435626 23.3319 0.690511 23.8475 1.03343C24.3631 1.37171 24.8142 1.80262 25.2102 2.31699C25.6015 2.82673 25.9099 3.42914 26.1309 4.11034C26.3519 4.79617 26.467 5.56082 26.4716 6.41811C26.4716 7.26149 26.3519 8.02607 26.1309 8.70263C25.9099 9.37919 25.6015 9.97237 25.2102 10.4775C24.8188 10.9872 24.3677 11.4089 23.8567 11.7472C23.3411 12.0855 22.7932 12.3403 22.2085 12.5071C21.6238 12.6786 21.0346 12.762 20.4315 12.762L20.4361 12.7666ZM34.0586 12.5998C34.0724 12.623 34.1 12.6415 34.1415 12.6508C34.1829 12.6647 34.2243 12.674 34.2704 12.6786C34.3164 12.6833 34.3486 12.6878 34.3763 12.6878C34.3901 12.6878 34.4177 12.6879 34.4637 12.6786C34.5051 12.674 34.5512 12.6601 34.5926 12.6508C34.634 12.6369 34.6617 12.623 34.6663 12.6091L39.2194 0.690459H40.5361C40.5867 0.690459 40.6235 0.662691 40.6466 0.611717C40.6742 0.565377 40.6834 0.505133 40.6834 0.435624C40.6834 0.366114 40.6742 0.30587 40.6466 0.25953C40.6189 0.21319 40.5821 0.185366 40.5361 0.180732H37.4378C37.3871 0.180732 37.3503 0.208556 37.3273 0.25953C37.2997 0.30587 37.2858 0.366114 37.2858 0.435624C37.2858 0.505133 37.2997 0.565377 37.3273 0.611717C37.3549 0.658057 37.3871 0.685825 37.4378 0.690459H38.6761L35.8218 8.1141L32.7051 0.690459H34.0218C34.0724 0.690459 34.1092 0.662691 34.1322 0.611717C34.1599 0.565377 34.1691 0.505133 34.1691 0.435624C34.1691 0.366114 34.1599 0.30587 34.1322 0.25953C34.1046 0.21319 34.0678 0.185366 34.0218 0.180732H27.7699C27.7192 0.180732 27.6824 0.208556 27.6639 0.25953C27.6363 0.30587 27.6225 0.366114 27.6225 0.435624C27.6225 0.505133 27.6363 0.565377 27.6639 0.611717C27.6916 0.658057 27.7238 0.685825 27.7699 0.690459H29.0727L34.054 12.6045L34.0586 12.5998ZM46.4427 0.681238H47.6811C47.7318 0.681238 47.7686 0.653414 47.7916 0.60244C47.8192 0.5561 47.8284 0.495856 47.8284 0.426347C47.8284 0.356837 47.8192 0.296593 47.7916 0.250253C47.764 0.203913 47.7272 0.176089 47.6811 0.171455H41.908C41.8573 0.171455 41.8205 0.199279 41.7975 0.250253C41.7699 0.296593 41.7561 0.356837 41.7561 0.426347C41.7561 0.495856 41.7699 0.5561 41.7975 0.60244C41.8251 0.64878 41.8573 0.676604 41.908 0.681238H43.1464V12.0947H41.908C41.8573 12.0947 41.8205 12.1225 41.7975 12.1735C41.7699 12.2198 41.7561 12.2801 41.7561 12.3496C41.7561 12.4191 41.7699 12.4747 41.7975 12.5257C41.8251 12.572 41.8573 12.5998 41.908 12.6045H47.6811C47.7318 12.6045 47.7686 12.5766 47.7916 12.5257C47.8192 12.4793 47.8284 12.4191 47.8284 12.3496C47.8284 12.2801 47.8192 12.2244 47.7916 12.1735C47.764 12.1271 47.7272 12.0994 47.6811 12.0947H46.4427V0.681238ZM57.1602 12.0994C57.1096 12.0994 57.0728 12.1271 57.0497 12.1781C57.0221 12.2245 57.0129 12.2847 57.0129 12.3542C57.0129 12.4237 57.0267 12.4793 57.0497 12.5303C57.0774 12.5766 57.1096 12.6045 57.1602 12.6091H62.8965C62.9471 12.6091 62.984 12.5813 63.007 12.5303C63.0346 12.484 63.0438 12.4237 63.0438 12.3542C63.0438 12.2847 63.0346 12.2291 63.007 12.1781C62.9794 12.1318 62.9425 12.104 62.8965 12.0994H62.0725L56.6676 4.30962L59.8857 0.685877H61.6029C61.6535 0.685877 61.6903 0.658052 61.7133 0.607079C61.741 0.560739 61.7502 0.500495 61.7502 0.430985C61.7502 0.361475 61.741 0.301231 61.7133 0.254892C61.6857 0.208552 61.6489 0.180727 61.6029 0.176094H57.86C57.8094 0.176094 57.7725 0.203918 57.7495 0.254892C57.7219 0.301231 57.708 0.361475 57.708 0.430985C57.708 0.500495 57.7219 0.560739 57.7495 0.607079C57.7771 0.653418 57.8094 0.681243 57.86 0.685877H59.2273L54.4946 6.04273V0.685877H55.7331C55.7837 0.685877 55.8205 0.658052 55.8436 0.607079C55.8712 0.560739 55.8804 0.500495 55.8804 0.430985C55.8804 0.361475 55.8712 0.301231 55.8436 0.254892C55.8159 0.208552 55.7791 0.180727 55.7331 0.176094H49.9599C49.9093 0.176094 49.8725 0.203918 49.8495 0.254892C49.8218 0.301231 49.808 0.361475 49.808 0.430985C49.808 0.500495 49.8218 0.560739 49.8495 0.607079C49.8771 0.653418 49.9093 0.681243 49.9599 0.685877H51.1983V12.0994H49.9599C49.9093 12.0994 49.8725 12.1271 49.8495 12.1781C49.8218 12.2245 49.808 12.2847 49.808 12.3542C49.808 12.4237 49.8218 12.4793 49.8495 12.5303C49.8771 12.5766 49.9093 12.6045 49.9599 12.6091H55.7331C55.7837 12.6091 55.8205 12.5813 55.8436 12.5303C55.8712 12.484 55.8804 12.4237 55.8804 12.3542C55.8804 12.2847 55.8712 12.2291 55.8436 12.1781C55.8159 12.1318 55.7791 12.104 55.7331 12.0994H54.4946V6.93247L58.0211 12.104H57.1602V12.0994ZM10.8741 0.681238H12.1907C12.2414 0.681238 12.2782 0.653414 12.3012 0.60244C12.3288 0.5561 12.3381 0.495856 12.3381 0.426347C12.3381 0.356837 12.3288 0.296593 12.3012 0.250253C12.2736 0.203913 12.2368 0.176089 12.1907 0.171455H9.09241C9.04177 0.171455 9.00495 0.199279 8.98193 0.250253C8.95431 0.305861 8.94051 0.361466 8.94051 0.421708C8.94051 0.491218 8.95431 0.551462 8.98193 0.597802C9.00955 0.644141 9.04177 0.671966 9.09241 0.6766H10.3769V7.56269L3.7981 0.176094H0.15196C0.101319 0.176094 0.0644368 0.203918 0.0414181 0.254892C0.0137955 0.301231 0 0.361475 0 0.430985C0 0.500495 0.0137955 0.560739 0.0414181 0.607079C0.0644368 0.653418 0.101319 0.676604 0.15196 0.681238H1.4548V12.0947H0.15196C0.101319 12.0947 0.0644368 12.1225 0.0414181 12.1735C0.0137955 12.2198 0 12.2801 0 12.3496C0 12.4191 0.0137955 12.4747 0.0414181 12.5257C0.0690406 12.572 0.101319 12.5998 0.15196 12.6045H3.25028C3.30092 12.6045 3.33774 12.5766 3.36076 12.5257C3.38839 12.4793 3.39757 12.4191 3.39757 12.3496C3.39757 12.2801 3.38839 12.2244 3.36076 12.1735C3.33314 12.1271 3.29631 12.0994 3.25028 12.0947H1.94738V3.13258L10.3769 12.5998H10.8741V0.681238ZM20.4361 0.00927701V0.463398C19.9158 0.463398 19.4923 0.570013 19.1562 0.787811C18.8201 1.00561 18.5531 1.32997 18.3644 1.76094C18.1756 2.19653 18.0421 2.73408 17.9685 3.38747C17.8948 4.03622 17.858 4.79622 17.858 5.66741V7.14562C17.858 8.01217 17.8902 8.77216 17.9685 9.42092C18.0421 10.0697 18.1756 10.6072 18.3644 11.0382C18.5531 11.4645 18.8155 11.7889 19.1562 11.9974C19.4923 12.2059 19.9158 12.3125 20.4361 12.3172V12.7713H20.4176C19.8099 12.7713 19.2161 12.6878 18.636 12.5164C18.0513 12.3496 17.5081 12.0947 16.9971 11.7564C16.4861 11.4181 16.0395 10.9964 15.6482 10.4867C15.2568 9.9816 14.9576 9.38847 14.732 8.71191C14.511 8.03071 14.4052 7.27076 14.3959 6.42275C14.4006 5.57009 14.511 4.79617 14.732 4.11034C14.953 3.42451 15.2568 2.82672 15.6435 2.31235C16.0349 1.80261 16.4815 1.3717 16.9925 1.02879C17.4989 0.690506 18.0421 0.430987 18.6268 0.25953C19.2114 0.0834388 19.8008 0 20.4039 0H20.4361V0.00927701Z" fill="#575756"/>
</svg>
