<svg width="152" height="67" viewBox="0 0 152 67" fill="none" xmlns="http://www.w3.org/2000/svg">
<path d="M144.652 45.8326C145.259 45.898 146.455 45.7112 147.081 45.4963C144.026 49.4392 139.681 50.8501 137.065 51.3079C135.635 51.5602 135.504 51.1584 135.794 50.1587C137.009 46.0008 141.886 41.0021 150.454 28.4912C152.341 25.7348 150.846 22.9224 148.043 22.5767C143.671 22.0441 139.728 23.5671 136.271 25.2956C134.691 26.0898 134.29 28.0239 134.981 28.6686C136.971 26.585 142.755 23.7167 146.614 23.7167C147.455 23.7167 148.212 23.6793 146.941 25.3424C141.494 32.4902 135.121 39.5912 131.328 47.1033C129.496 50.738 130.702 51.336 131.253 52.0928C131.804 52.8497 133.486 53.5317 135.635 53.4757C141.512 53.3168 152.696 47.3276 150.547 34.8634C150.361 39.7687 147.165 44.6367 144.661 45.8233L144.652 45.8326ZM141.092 39.7407C144.53 34.8634 149.744 27.9025 150.417 26.2206C150.865 27.5474 144.979 34.8634 141.307 39.7781C140.821 40.4228 140.634 40.3947 141.092 39.7407Z" fill="#575756"/>
<path d="M73.3981 20.1165C73.2766 19.9202 73.4075 19.7988 73.613 19.668C77.6494 17.0144 86.1893 11.8662 98.4947 9.86667C109.997 7.99797 114.893 12.2399 116.275 14.2114C116.49 14.3983 116.64 14.1741 116.574 14.0059C115.883 11.9784 112.473 2.98988 98.2425 4.98004C83.1901 7.08233 72.716 15.8091 71.5854 17.3134C71.4079 17.547 70.6137 20.2193 70.9594 20.892C71.7817 22.4618 73.8279 25.2368 74.2577 29.077C73.4448 29.1143 72.2955 29.3292 71.9872 29.2451C71.5387 29.1236 71.0716 29.1329 70.7072 29.217C70.539 29.2544 70.3895 29.3292 70.2493 29.432C68.0069 31.0952 65.1011 34.6644 63.2324 39.4576C60.7563 42.0083 58.0935 44.6058 56.4397 46.7828C57.3647 43.8209 63.466 33.0292 63.2511 31.8986C63.0268 30.712 61.2609 29.5254 59.9435 28.9274C59.7566 29.1143 59.1493 30.1982 58.5046 31.4128C58.1682 32.0482 57.7197 32.6274 57.1778 33.1133C54.8886 35.1408 51.1979 37.2899 48.6378 38.299C48.4229 38.3737 48.0492 38.5232 48.0492 38.5232C47.7689 38.6634 47.5353 38.8316 47.4045 39.0091C47.1615 39.3361 47.6568 39.7472 47.4512 41.5131C47.1896 43.849 45.0126 49.5391 41.1911 51.5199C40.8173 51.7162 40.9295 51.3145 41.0136 50.894C41.2191 49.8569 44.3959 40.8778 49.3199 32.7957C50.0114 31.6557 49.8432 31.2726 48.8528 30.4037C48.7126 30.2822 48.535 30.1607 48.3295 30.0392C57.3366 24.7415 64.0546 17.3975 63.6995 10.6702C63.494 6.84871 57.8599 3.99894 49.5068 3.66258C47.9838 3.59717 47.0401 3.46636 44.1343 3.66258C43.8446 3.68126 43.5457 3.70002 43.2373 3.72805C43.1813 3.37299 43.1065 3.04592 42.985 2.73758C42.1535 0.523172 41.6956 0.0093435 41.2658 0C40.836 0 40.9762 1.71911 40.2287 3.75599C40.2007 3.84008 40.1633 3.9242 40.1259 4.01763C32.3988 4.88658 21.8033 7.04497 12.8055 11.6513C-2.59254 19.5279 -1.33117 26.6943 2.43426 29.5908C2.86406 29.9271 2.93881 29.4506 2.93881 29.4506C2.90144 27.2269 3.40598 22.3496 15.1881 15.7157C22.0836 11.8382 30.9319 9.24997 38.3693 7.84845C36.1176 12.4361 32.268 19.5558 27.8859 27.3483C26.9329 29.0395 25.9986 30.8522 25.1576 32.7116C17.2998 33.1788 16.1412 31.0671 15.6273 30.8335C15.2629 31.1232 15.4965 31.5342 15.6553 32.0388C15.9169 32.8703 18.2808 36.2994 23.373 37.1777C20.9904 44.0825 20.5419 50.9594 25.4379 54.5473C25.9425 54.6968 25.8677 54.2389 25.8677 54.2389C24.2046 50.8566 24.6905 45.6242 27.2506 39.0651C27.288 38.9717 27.2973 38.8596 27.2786 38.7568C27.1571 38.2336 26.5872 37.5981 25.8677 37.2805C26.6526 37.3646 27.1945 37.3366 28.0074 37.2432C33.1183 36.5985 38.4908 34.926 43.4803 32.5901C41.0136 37.1965 36.2483 46.7361 35.9587 50.2492C35.8185 51.9591 38.6496 54.1081 39.3597 54.1081C42.0507 54.1081 50.6467 49.7167 51.5904 40.9151C51.6278 40.5414 51.6278 40.1116 51.5717 39.7005C53.2068 38.8783 54.5149 38.056 55.6829 37.159C53.7394 41.429 51.3661 47.1473 51.2821 48.2311C51.1699 49.7261 53.5151 52.9775 54.5242 51.7722C57.7104 47.9507 59.9902 45.3439 62.0458 43.2603C61.616 45.129 61.3544 47.1285 61.345 49.2215C61.5599 50.9594 63.3819 53.2578 65.0357 53.6409C65.5589 53.7624 65.7084 53.5663 66.1102 53.3607C70.894 50.9127 81.256 33.3375 73.3794 20.1258L73.3981 20.1165ZM77.9204 16.1455C87.4694 10.8851 103.251 5.40982 109.67 9.39015C107.371 8.25024 97.1679 6.33481 78.0044 16.2669C77.6494 16.4351 77.6774 16.2856 77.9297 16.1455H77.9204ZM35.6691 7.72698C12.2075 13.1275 4.93831 20.892 2.49032 26.6943C2.94815 19.939 15.0387 11.7261 35.6504 7.68033C35.6971 7.67098 35.6971 7.72698 35.6691 7.72698ZM30.4928 32.1042C30.9413 31.254 31.4271 30.385 31.9317 29.5067C37.5658 19.7334 41.3312 12.866 42.7141 8.13815C42.6861 7.68966 42.0693 7.25982 41.6209 7.27851C42.0413 7.2131 42.5552 7.14774 42.9944 7.09168C44.3866 6.90481 45.6853 6.7646 46.8626 6.68051C48.3669 6.6151 49.2826 6.60583 50.5346 6.63386C59.0465 6.7927 62.569 9.15664 62.3354 11.4551C61.9617 15.2673 51.198 28.8807 30.4928 32.1136V32.1042ZM72.5479 31.7398C68.8291 35.608 66.6708 40.7563 65.8112 44.0732C65.8018 44.1106 65.671 44.1573 65.6897 44.0732C66.5306 39.8686 69.2776 33.7113 72.5572 31.7305L72.5479 31.7398ZM66.1382 49.6606C65.7738 49.9876 65.7458 49.6326 65.7458 49.6326C65.2225 48.147 67.493 37.7103 74.3231 31.1605C74.3231 31.2353 74.3231 31.31 74.3138 31.3941C73.9307 36.832 71.8471 44.559 66.1475 49.6606H66.1382Z" fill="#575756"/>
<path d="M132.299 29.9849C129.328 31.0501 125.506 34.1802 122.909 37.0019C124.058 34.61 124.918 32.7693 125.282 31.7415C125.899 29.9943 123.245 28.0321 122.778 27.9574C122.311 27.8826 122.124 28.1536 121.881 28.8264C121.638 29.4991 121.255 30.5175 120.853 31.4052C120.424 32.3582 119.377 34.4885 118.041 37.2262C117.415 38.0764 115.836 39.1976 114.631 39.4593C115.957 35.1332 116.322 30.5269 115.21 29.0693C114.752 28.4807 112.669 28.3312 112.594 28.3592C112.089 28.5554 111.603 29.2281 111.146 30.2372C110.688 30.1812 110.183 30.1811 109.819 30.0316C109.165 29.7606 109.109 29.5365 107.959 30.938C106.091 33.2178 103.661 37.796 102.092 42.1781C100.475 45.6819 95.2896 50.5499 95.056 50.5126C94.7757 50.4565 94.8505 50.3164 94.8505 50.3164C95 49.0083 95.4484 47.1209 96.9901 43.9161C98.1954 41.4401 99.7651 38.1511 103.129 34.3763C103.194 34.0493 102.708 32.1713 101.839 30.9753C101.428 30.4147 101.017 30.1158 100.634 30.1158C100.55 30.1158 100.307 30.1905 100.223 30.2279C96.3735 32.3302 92.4959 37.3943 90.6178 40.216C90.4123 40.5244 90.2348 40.8047 90.0946 41.057L89.9731 40.9261C90.0572 40.7019 94.7944 32.7039 94.7664 32.4142C94.7103 31.8723 92.8136 29.2841 91.4588 29.4617C90.132 29.6392 85.0305 35.9648 82.3582 39.5807C82.3115 39.6368 82.3208 39.534 82.2741 39.5807C82.8814 38.338 84.6287 35.1986 84.5166 34.5259C84.3951 33.7597 82.4143 32.3581 81.4519 31.5546C80.8352 31.0407 80.6016 31.3865 80.5269 31.7228C80.4334 32.1526 80.3027 32.545 80.0317 33.3486C79.415 35.1799 73.8089 46.962 72.7437 49.5689C72.1457 51.1853 74.9208 53.9323 75.8551 53.1848C76.5279 52.6522 81.7416 42.3931 88.2633 35.3668C88.1419 35.5256 88.581 35.292 88.3941 35.5443C85.1145 40.1226 82.7226 45.8782 82.4423 47.8216C82.2367 49.2605 84.4512 52.2785 85.3762 52.1944C85.3948 52.1944 85.4135 52.1944 85.4322 52.1851C85.6191 52.1851 85.8247 51.9701 86.0956 51.5216C87.1328 49.4661 89.3098 45.5045 91.1598 42.6267C93.1406 39.5434 95.383 36.5908 97.4573 35.0398C97.5227 34.9931 97.6068 35.0024 97.6068 35.0024C92.4959 41.0103 90.6179 47.1677 90.3002 49.5222C90.0199 51.6058 91.7858 53.5211 92.8416 53.8669C92.907 53.8855 92.9817 53.9043 93.0658 53.9043C93.8881 53.9043 95.6353 52.456 97.3358 50.8209C98.5785 49.6156 99.8025 48.1207 100.765 46.8126C100.475 48.3916 100.41 49.7931 100.671 50.8396C100.802 51.6898 102.232 53.5119 103.97 54.2967C106.773 53.0634 110.875 48.8588 113.594 42.2436C113.631 42.1502 113.631 42.0287 113.584 41.9353C113.435 41.655 113.08 41.4027 112.734 41.2812C113.397 41.3933 114.098 41.3373 114.603 41.1971C115.173 41.0476 115.845 40.7487 116.453 40.403C112.556 48.429 107.436 59.1833 106.455 62.9021C105.979 64.7054 108.006 66.2657 109.445 66.845C111.93 59.6131 116.266 50.5406 119.788 43.3088C122.928 38.8519 128.683 34.2456 131.066 33.2739C131.299 33.5075 131.281 34.2456 130.944 35.0398C129.739 38.852 122.292 46.8032 119.48 48.8588C119.826 49.4661 122.657 51.2974 123.834 50.7275C129.188 48.1206 134.205 39.6087 135.429 34.722C135.999 32.4422 134.803 29.0786 132.262 29.9943L132.299 29.9849ZM108.445 37.357C108.501 37.2822 108.585 37.2916 108.539 37.357C106.838 40.1694 104.885 44.8504 104.717 47.3732C104.185 44.9532 106.698 39.8143 108.445 37.3476V37.357ZM105.595 50.0548C105.268 50.3537 105.25 49.9707 105.25 49.9707C105.007 48.4944 106.25 42.2716 109.856 36.7496C109.996 38.5529 110.538 40.3375 111.687 41.0757C110.37 44.4487 108.324 47.831 105.586 50.0548H105.595ZM112.435 38.936C111.912 37.9082 111.388 35.647 113.304 31.5639C113.631 33.2738 113.323 36.0021 112.435 38.936Z" fill="#575756"/>
</svg>
