<svg width="67" height="41" viewBox="0 0 67 41" fill="none" xmlns="http://www.w3.org/2000/svg">
<path d="M27.3512 7.06895C27.3512 9.2584 27.342 11.4524 27.3558 13.6419C27.3558 14.0917 27.42 14.5507 27.4384 15.0005C27.4614 15.5421 27.6082 16.047 27.7276 16.5611C27.8791 17.2037 28.1636 17.7958 28.54 18.3329C28.664 18.5119 28.797 18.7139 29.0128 18.8148C29.0357 18.824 29.0678 18.8516 29.0724 18.8745C29.1137 19.1132 29.3295 19.1729 29.4993 19.2784C29.7105 19.4115 29.9446 19.5125 30.119 19.6961C30.1649 19.742 30.2199 19.7466 30.275 19.7604C30.5183 19.8246 30.7662 19.8751 31.0003 19.9669C31.1609 20.0312 31.317 20.0541 31.4822 20.0541C32.1478 20.0541 32.8133 20.1459 33.4835 20.1092C33.8874 20.0863 34.2959 20.0679 34.6861 19.9486C34.9936 19.8522 35.3195 19.8017 35.5903 19.586C35.7097 19.4896 35.8887 19.4437 36.0355 19.3565C36.3201 19.1912 36.5037 18.9204 36.7745 18.7506C36.7975 18.7368 36.8204 18.7138 36.8388 18.6909C37.1693 18.163 37.4768 17.626 37.7017 17.0385C37.9129 16.4785 37.9496 15.8956 38.0735 15.331C38.1286 15.0786 38.1378 14.8123 38.1423 14.5507C38.2755 9.89179 38.1653 5.22833 38.1974 0.569443C38.1974 0.482232 38.1837 0.394995 38.1745 0.312374C38.147 0.0828721 38.225 -0.00430727 38.4637 0.000282766C39.7994 0.0186429 41.1351 0.0691221 42.4708 0.0461719C43.0767 0.0369919 43.6825 0.0140574 44.293 0.00487729C44.6097 0.00487729 44.9265 0.0186474 45.2432 0.00487729C45.5232 -0.00889282 45.6104 0.115031 45.5599 0.399614C45.5461 0.486824 45.5461 0.57401 45.5461 0.661221C45.5461 1.43694 45.5277 2.21269 45.5553 2.9884C45.5644 3.31429 45.5553 3.64018 45.5828 3.96149C45.5966 4.12214 45.4772 4.23691 45.3212 4.20937C45.234 4.1956 45.1468 4.18182 45.0642 4.20018C44.8806 4.2369 44.7061 4.22313 44.5179 4.20018C44.2379 4.17264 43.9579 4.1864 43.6734 4.19099C43.4439 4.19099 43.398 4.23228 43.3934 4.46179C43.3888 4.82899 43.3934 5.1962 43.3934 5.56341C43.3934 8.24858 43.4163 10.9338 43.3842 13.6189C43.375 14.4084 43.375 15.2025 43.2419 15.992C43.1638 16.4464 43.0904 16.9054 43.0308 17.3644C43.0032 17.5709 42.9022 17.7683 42.8517 17.9749C42.6865 18.6083 42.4891 19.2279 42.2045 19.82C42.0485 20.1505 41.8695 20.4673 41.7042 20.7886C41.4105 21.3577 40.9744 21.8167 40.6164 22.34C40.5521 22.4318 40.4466 22.4685 40.3823 22.5511C40.0656 22.9688 39.602 23.2259 39.2302 23.5793C39.1889 23.6206 39.1476 23.6757 39.0879 23.6711C38.8768 23.6619 38.8079 23.8271 38.7437 23.9648C38.7024 24.0566 38.6611 24.0796 38.5738 24.0796C38.2801 24.0796 38.0322 24.2357 37.8119 24.3826C37.6145 24.5157 37.4172 24.5753 37.2014 24.6121C37.0775 24.635 36.9443 24.6167 36.8709 24.7498C36.5817 24.7819 36.3477 24.9793 36.0539 25.016C35.6638 25.0665 35.2736 25.1307 34.9018 25.273C34.8559 25.2914 34.81 25.296 34.7595 25.296C34.2775 25.3189 33.791 25.3189 33.3091 25.3648C32.9694 25.397 32.6343 25.4016 32.3038 25.3648C31.8724 25.3189 31.4363 25.3373 31.0049 25.2593C30.7891 25.218 30.5596 25.2684 30.3439 25.195C30.0226 25.0848 29.6921 25.0481 29.357 25.0022C29.3295 25.0022 29.302 24.9885 29.2744 24.9747C28.8843 24.7544 28.462 24.635 28.0305 24.534C27.8837 24.5019 27.801 24.3642 27.6817 24.2862C27.4292 24.1209 27.1309 24.0613 26.883 23.8823C26.3735 23.5242 25.8686 23.1708 25.4188 22.7302C24.9644 22.2895 24.5742 21.803 24.1886 21.3073C24.0096 21.0732 23.8903 20.7885 23.7388 20.5315C23.2247 19.6273 22.8897 18.6542 22.6235 17.6535C22.4812 17.1211 22.4353 16.5703 22.3297 16.0332C22.2149 15.4595 22.2195 14.8812 22.2012 14.2983C22.1002 11.177 22.192 8.0558 22.1553 4.93917C22.1553 4.78311 22.1553 4.62704 22.1553 4.47557C22.1461 4.23689 22.114 4.20018 21.8845 4.20018C21.352 4.20018 20.8195 4.20018 20.2871 4.20018C20.0209 4.20018 19.9474 4.14049 19.9566 3.89263C19.9888 2.94249 19.9474 1.99696 19.9566 1.04682C19.9566 0.789783 20.0255 0.532707 19.9566 0.266485C19.9153 0.101243 20.053 -0.0318385 20.2137 0.0094718C20.4019 0.0645522 20.5763 0.0094718 20.7599 0.0094718C21.8156 0.0094718 22.8667 0.0094718 23.9224 0.0094718C24.3906 0.0094718 24.8634 -0.0134739 25.3316 0.0140663C25.8136 0.0461966 26.2955 -0.0548089 26.7774 0.0461719C26.8968 0.0691221 27.0299 0.0691042 27.1492 0.0277939C27.2778 -0.0181065 27.3329 0.0461764 27.342 0.165517C27.3466 0.243548 27.3512 0.321583 27.3512 0.399614C27.3512 2.63037 27.3512 4.85651 27.3512 7.08727H27.3558L27.3512 7.06895Z" fill="#575756"/>
<path d="M41.3897 37.7644C41.3897 36.9795 41.3897 36.1946 41.3897 35.4097C41.3897 35.2077 41.3897 35.2031 41.5733 35.2031C42.5326 35.2077 43.4919 35.2123 44.4512 35.2307C44.7634 35.2353 45.0847 35.3087 45.3371 35.474C46.2781 36.1074 46.2827 37.31 45.4289 37.948C45.3371 38.0169 45.2224 38.049 45.1168 38.1041C44.947 38.1913 44.9286 38.2372 45.0204 38.3978C45.2453 38.7926 45.4702 39.1873 45.7135 39.5728C45.842 39.7748 45.9201 40.0089 46.1037 40.1788C46.1634 40.2338 46.1312 40.3027 46.0945 40.3623C46.0578 40.4266 46.0073 40.422 45.9476 40.3945C45.7961 40.3348 45.6401 40.3669 45.4886 40.3669C45.3371 40.3669 45.2361 40.3164 45.1581 40.1558C44.8644 39.582 44.5384 39.0221 44.2263 38.4529C44.1667 38.3427 44.0749 38.3152 43.9601 38.3106C43.5149 38.3014 43.0696 38.283 42.6244 38.3014C42.5372 38.3014 42.45 38.2923 42.3628 38.2923C42.1976 38.2923 42.1379 38.3381 42.1471 38.4896C42.1884 39.0588 42.0828 39.6279 42.1746 40.1971C42.193 40.321 42.0644 40.4266 41.9359 40.3899C41.8212 40.3578 41.7064 40.3302 41.5962 40.3761C41.4585 40.4358 41.4218 40.3486 41.3943 40.2568C41.3805 40.2109 41.3897 40.1604 41.3897 40.1145C41.3897 39.3296 41.3897 38.5447 41.3897 37.7598C41.3897 37.7598 41.3897 37.7598 41.3943 37.7598L41.3897 37.7644ZM43.3956 35.9054C43.3956 35.9054 43.3956 35.8916 43.3956 35.887C43.0559 35.887 42.7162 35.887 42.3811 35.887C42.1608 35.887 42.1379 35.9146 42.1379 36.1395C42.1379 36.548 42.1379 36.952 42.1333 37.3605C42.1333 37.5808 42.1746 37.6267 42.4087 37.6221C43.0467 37.5991 43.6847 37.6083 44.3228 37.6313C44.6854 37.645 44.9332 37.4706 45.1489 37.2273C45.3601 36.9933 45.3371 36.4241 45.1076 36.2313C44.8873 36.0477 44.6441 35.8871 44.3273 35.9054C44.0198 35.9238 43.7077 35.9054 43.4002 35.9054H43.3956Z" fill="#575756"/>
<path d="M37.9175 37.4806C38.2296 37.4806 38.5372 37.4806 38.8493 37.4806C39.0237 37.4806 39.0558 37.4943 39.0604 37.6733C39.0696 37.9074 39.0604 38.1369 39.0604 38.371C39.0604 38.7382 39.0558 39.1054 39.0604 39.4726C39.0604 39.6057 39.0283 39.6975 38.9182 39.7939C38.6611 40.0142 38.3444 40.1153 38.046 40.2392C37.4126 40.4916 36.7425 40.5421 36.0815 40.3998C35.5307 40.2851 35.0395 40.0234 34.6448 39.5966C34.3556 39.2844 34.1262 38.9356 34.0389 38.5271C33.9655 38.1736 33.8645 37.8248 33.9517 37.4438C34.0389 37.0628 34.1078 36.6865 34.3327 36.3606C34.7963 35.6858 35.4251 35.2773 36.2421 35.135C36.9306 35.0203 37.5732 35.1534 38.1929 35.4288C38.4545 35.5435 38.6932 35.718 38.9365 35.8741C39.0237 35.9291 39.0191 35.998 38.9503 36.0668C38.8493 36.1678 38.7483 36.2734 38.6382 36.3698C38.528 36.4662 38.4316 36.4203 38.3306 36.3331C37.8578 35.9337 37.3024 35.7593 36.6965 35.7776C35.9025 35.8006 35.2828 36.1586 34.9156 36.8747C34.6356 37.4255 34.6081 38.0222 34.8422 38.5867C34.9983 38.9585 35.2828 39.2569 35.6501 39.468C36.2054 39.7802 36.7884 39.8582 37.4126 39.7113C37.6788 39.6471 37.9267 39.5553 38.1654 39.4313C38.2755 39.3717 38.3581 39.3028 38.3627 39.1697C38.3627 38.8897 38.3627 38.6097 38.3627 38.3251C38.3627 38.1966 38.2893 38.1415 38.1746 38.1691C37.8624 38.2425 37.5549 38.169 37.2428 38.1828C37.0821 38.1874 36.8847 38.2746 36.77 38.1507C36.6644 38.0405 36.7562 37.8524 36.7333 37.7009C36.7103 37.4989 36.7471 37.4806 36.9628 37.4806C37.2841 37.4806 37.6008 37.4806 37.9221 37.4806C37.9221 37.4806 37.9221 37.4806 37.9221 37.476L37.9175 37.4806Z" fill="#575756"/>
<path d="M47.8115 37.8029C47.7105 36.5773 48.757 35.5354 49.6153 35.2646C50.1983 35.081 50.7766 35.0489 51.355 35.1866C51.6533 35.2554 51.9517 35.3793 52.2225 35.5583C52.5851 35.797 52.8881 36.0862 53.0946 36.4626C53.4021 37.0134 53.5719 37.5918 53.4113 38.2344C53.347 38.4914 53.2828 38.7393 53.1634 38.9688C52.8238 39.616 52.3051 40.0382 51.6212 40.2907C50.9143 40.5523 50.2121 40.5202 49.5281 40.2677C48.78 39.9877 48.2429 39.4644 47.9629 38.6979C47.8528 38.395 47.7748 38.0875 47.8161 37.8029H47.8115ZM52.6585 37.7891C52.7228 36.6921 51.713 35.7328 50.5104 35.7832C49.4547 35.8292 48.6055 36.637 48.5963 37.757C48.5872 38.9596 49.4777 39.7812 50.5655 39.7949C51.8048 39.8041 52.6861 38.8769 52.6585 37.7891Z" fill="#575756"/>
<path d="M23.7969 35.1484C23.8107 35.2494 23.8153 35.3137 23.7419 35.3779C23.1819 35.8553 22.677 36.3924 22.1445 36.8973C21.8462 37.1773 21.8599 37.1818 22.0711 37.5123C22.3281 37.9162 22.6632 38.2513 22.9432 38.6323C23.2829 39.0913 23.6271 39.5411 23.976 39.9955C24.0356 40.069 24.1137 40.1286 24.178 40.2021C24.2147 40.2434 24.2468 40.2985 24.1917 40.3582C24.1504 40.3995 24.1091 40.4454 24.0402 40.4133C23.852 40.3306 23.6593 40.3719 23.4665 40.3811C23.3471 40.3857 23.2737 40.3444 23.2003 40.248C22.7275 39.6237 22.2456 39.0087 21.7682 38.389C21.6397 38.2192 21.5157 38.0494 21.3872 37.8795C21.2724 37.7281 21.2036 37.7143 21.0888 37.8474C20.9465 38.0126 20.7583 38.132 20.6436 38.334C20.5839 38.4349 20.4325 38.5084 20.3269 38.6047C20.1525 38.77 20.0745 38.9536 20.0882 39.1969C20.1112 39.5044 20.0974 39.8165 20.102 40.1287C20.102 40.3674 20.0836 40.3857 19.8312 40.3765C19.6889 40.3719 19.5466 40.3627 19.4089 40.4178C19.3217 40.3168 19.3263 40.2021 19.3263 40.0873C19.3263 38.5542 19.3263 37.0258 19.3263 35.4927C19.3263 35.433 19.3217 35.3733 19.3263 35.3183C19.34 35.2265 19.363 35.1438 19.4915 35.1989C19.5925 35.2402 19.6981 35.2127 19.8036 35.1898C20.0331 35.1485 20.0836 35.1898 20.079 35.4239C20.0653 36.1583 20.1066 36.8973 20.0652 37.6317C20.0652 37.7097 20.0653 37.7923 20.1525 37.8245C20.2305 37.852 20.2764 37.7923 20.3223 37.7464C20.5839 37.4756 20.8318 37.191 21.1072 36.9386C21.4928 36.5897 21.8599 36.2133 22.2409 35.8553C22.4108 35.6947 22.5852 35.5386 22.7367 35.3688C22.8239 35.2724 22.9157 35.2265 23.035 35.2219C23.2829 35.2127 23.5354 35.2311 23.7832 35.1576L23.7969 35.1484Z" fill="#575756"/>
<path d="M62.4018 35.2444C62.6267 35.1434 62.8379 35.2076 63.049 35.2076C63.6503 35.2076 64.2516 35.226 64.8483 35.1984C65.1605 35.1847 65.4588 35.2306 65.7618 35.2857C66.129 35.3545 66.4503 35.5336 66.6752 35.809C66.9276 36.1165 67.0469 36.4974 66.9873 36.9197C66.8496 37.8744 66.1381 38.2554 65.2798 38.2967C64.6601 38.3243 64.0405 38.3013 63.4209 38.2967C63.1776 38.2967 63.1822 38.2875 63.1822 38.5262C63.1822 39.0495 63.1822 39.5728 63.1822 40.0914C63.1822 40.197 63.1776 40.3026 63.1179 40.4082C62.9343 40.376 62.7507 40.3164 62.5625 40.4082C62.4753 40.4495 62.434 40.3898 62.4064 40.3255C62.3835 40.275 62.3789 40.2154 62.3789 40.1557C62.3789 38.54 62.3789 36.9198 62.3835 35.3041C62.3835 35.2857 62.3926 35.2673 62.3972 35.249L62.4018 35.2444ZM64.3297 35.8915C64.013 35.8915 63.6916 35.8915 63.3749 35.8915C63.1775 35.8915 63.1638 35.9191 63.1684 36.1302C63.1776 36.5433 63.1776 36.9611 63.1684 37.3742C63.1638 37.5899 63.1684 37.6128 63.3979 37.6174C63.9946 37.6358 64.5959 37.5853 65.1926 37.622C65.39 37.6358 65.569 37.5715 65.7526 37.4981C66.3585 37.2594 66.3538 36.4928 65.9637 36.1302C65.9362 36.1027 65.904 36.0843 65.8673 36.066C65.6149 35.965 65.367 35.8732 65.0824 35.8915C64.83 35.9099 64.5821 35.8915 64.3297 35.8915Z" fill="#575756"/>
<path d="M12.1387 37.7764C12.1111 37.0374 12.3728 36.3902 12.9052 35.8853C13.5892 35.2381 14.4245 34.9903 15.3655 35.1326C15.7006 35.1831 16.0265 35.2657 16.3432 35.3942C16.6461 35.5136 16.9032 35.7064 17.1832 35.867C17.2796 35.9221 17.2382 36.0919 17.1051 36.1745C17.0271 36.2204 16.9628 36.2663 16.9169 36.3443C16.7701 36.5876 16.7746 36.5739 16.5727 36.3949C16.1274 36.0047 15.5996 35.8211 15.0166 35.7844C14.5209 35.7522 14.0757 35.9129 13.681 36.1837C13.4561 36.3398 13.2771 36.5739 13.1577 36.8309C13.0017 37.1752 12.8548 37.5378 12.9144 37.9187C12.9603 38.2263 12.9879 38.5567 13.2174 38.8092C13.3092 38.9102 13.3 39.0571 13.4101 39.158C13.9013 39.5895 14.4475 39.8236 15.1131 39.7869C15.6318 39.7593 16.0494 39.5115 16.4809 39.2866C16.5773 39.2361 16.6507 39.1305 16.7242 39.0433C16.8389 38.9148 16.9123 38.901 17.0179 39.0342C17.0959 39.1351 17.1832 39.2177 17.2888 39.2912C17.3897 39.36 17.3805 39.4747 17.2842 39.5574C16.5865 40.1587 15.7832 40.4984 14.8514 40.4708C14.1262 40.4525 13.4607 40.223 12.9328 39.7089C12.4876 39.2774 12.1249 38.6807 12.1387 37.7764Z" fill="#575756"/>
<path d="M9.35997 35.2097H10.099C10.099 36.348 10.0898 37.4772 10.1035 38.6017C10.1035 38.9139 10.0485 39.1984 9.89243 39.4555C9.66292 39.8319 9.35993 40.1211 8.92388 40.2771C8.57045 40.4056 8.22162 40.4745 7.85442 40.4745C7.22559 40.4745 6.64264 40.3184 6.17445 39.8916C5.88528 39.6299 5.68791 39.2857 5.66037 38.8817C5.60988 38.1657 5.62826 37.4497 5.62826 36.7336C5.62826 36.2792 5.62826 35.8247 5.62826 35.3657C5.62826 35.2235 5.68791 35.1501 5.8302 35.1776C5.95413 35.2005 6.07809 35.2051 6.20661 35.2005C6.33513 35.2005 6.36725 35.2602 6.36725 35.3795C6.36266 35.7789 6.36725 36.1736 6.36725 36.5729C6.36725 37.1467 6.35348 37.7159 6.36725 38.2897C6.37184 38.689 6.40399 39.0929 6.72529 39.3866C7.11544 39.7401 7.58821 39.8549 8.09771 39.7768C8.35934 39.7401 8.62558 39.685 8.85967 39.5289C9.25441 39.2627 9.38748 38.8634 9.39207 38.4273C9.41043 37.3808 9.39207 36.3343 9.38748 35.2878C9.38748 35.2694 9.37834 35.251 9.36916 35.2143L9.35997 35.2097Z" fill="#575756"/>
<path d="M59.9672 37.1562C59.935 37.7254 59.9809 38.2992 59.9075 38.8683C59.8387 39.41 59.577 39.8414 59.1088 40.1076C58.2276 40.6079 57.3095 40.6125 56.4099 40.1765C55.9234 39.9378 55.6066 39.5293 55.5011 38.9739C55.4552 38.726 55.4414 38.4736 55.4414 38.2211C55.4414 37.2893 55.4414 36.3621 55.4414 35.4303C55.4414 35.1917 55.4689 35.1687 55.703 35.2054C55.7902 35.2192 55.8729 35.2055 55.9601 35.1871C56.1207 35.155 56.1896 35.2284 56.1896 35.3844C56.185 36.3438 56.1758 37.3031 56.1804 38.2624C56.1804 38.5699 56.2171 38.882 56.3732 39.1574C56.5797 39.5246 56.9286 39.6991 57.3141 39.7634C57.7869 39.8414 58.2551 39.8138 58.6728 39.5109C59.0124 39.263 59.1868 38.9463 59.1868 38.5286C59.1868 37.5326 59.1868 36.532 59.1868 35.536C59.1868 35.4579 59.1777 35.3799 59.196 35.3065C59.2098 35.2284 59.2466 35.1642 59.3567 35.1963C59.522 35.2468 59.6964 35.1274 59.8708 35.2146C59.9442 35.2513 59.9672 35.2743 59.9626 35.3569C59.958 35.9582 59.9626 36.5595 59.9626 37.1562H59.9672Z" fill="#575756"/>
<path d="M25.1133 35.1912C25.1775 35.1269 25.251 35.1544 25.3153 35.1682C25.4759 35.2049 25.6365 35.2095 25.8064 35.1912C25.9808 35.1728 26.1185 35.2187 26.2425 35.3885C26.6097 35.8842 26.9401 36.4121 27.3624 36.8711C27.4313 36.9445 27.468 37.0317 27.5185 37.1144C27.6011 37.2475 27.7021 37.2521 27.7893 37.1236C28.2116 36.4993 28.6889 35.9163 29.1388 35.315C29.1892 35.2462 29.2306 35.2003 29.3224 35.2049C29.5702 35.2141 29.8227 35.2095 30.1164 35.1406C30.0522 35.2646 30.0384 35.3564 29.9788 35.4344C29.3729 36.2009 28.7716 36.9721 28.1657 37.7386C28.0693 37.8579 28.0188 37.9819 28.0234 38.1379C28.0326 38.8173 28.028 39.492 28.0417 40.1713C28.0417 40.3136 27.9866 40.3641 27.8627 40.3687C27.7388 40.3687 27.6103 40.3595 27.4864 40.3641C27.2385 40.3641 27.2293 40.3641 27.2293 40.1025C27.2293 39.4645 27.2293 38.8218 27.2293 38.1838C27.2293 38.0094 27.1834 37.8763 27.0732 37.7386C26.6693 37.2337 26.2884 36.7104 25.889 36.1964C25.6274 35.8659 25.3611 35.54 25.1179 35.1912H25.1133Z" fill="#575756"/>
<path d="M0.0261068 37.676C0.0261068 36.9324 0.0261068 36.1842 0.0261068 35.4406C0.0261068 35.2203 0.0490513 35.1881 0.278553 35.2065C0.439204 35.2203 0.650355 35.1285 0.746746 35.257C0.820186 35.358 0.774285 35.5554 0.774285 35.7069C0.774285 36.937 0.774285 38.1671 0.774285 39.3972C0.774285 39.6726 0.778887 39.6727 1.04511 39.6727C1.95394 39.6727 2.86733 39.6727 3.77616 39.6635C3.88632 39.6635 3.94139 39.7002 3.94139 39.8057C3.94139 39.8149 3.94139 39.8241 3.94139 39.8333C3.9827 40.3612 3.98274 40.3612 3.45947 40.3612C2.3854 40.3612 1.31132 40.3611 0.232664 40.3657C0.0444725 40.3657 -0.015198 40.3152 0.00316218 40.1408C0.0536526 39.6956 0.0169267 39.2504 0.0261068 38.8051C0.0306968 38.4288 0.0261068 38.0477 0.0261068 37.6714V37.676Z" fill="#575756"/>
</svg>
