<svg width="339" height="36" viewBox="0 0 339 36" fill="none" xmlns="http://www.w3.org/2000/svg">
<path d="M328.16 3.90022C326.294 3.90022 324.204 4.28014 322.17 5.24124V24.0386C324.182 24.9885 326.294 25.3796 328.16 25.3796C330.026 25.3796 332.116 24.9997 334.15 24.0386V5.23005C332.139 4.28013 330.026 3.88904 328.16 3.88904V3.90022ZM332.429 22.988C331.021 23.5245 329.568 23.7592 328.16 23.7592C326.752 23.7592 325.299 23.5356 323.891 22.988V6.25825C325.299 5.72182 326.752 5.4872 328.16 5.4872C329.568 5.4872 331.021 5.71065 332.429 6.25825V22.988Z" fill="#575756"/>
<path d="M328.16 0C324.807 0 321.186 0.949917 317.979 3.20738V32.0626C321.186 34.3089 324.796 35.27 328.16 35.27C331.524 35.27 335.134 34.3201 338.341 32.0626V3.20738C335.134 0.961092 331.524 0 328.16 0ZM336.631 31.3027C333.994 32.9008 331.032 33.6608 328.171 33.6608C325.31 33.6608 322.349 32.8897 319.711 31.3027V3.96738C322.349 2.36927 325.31 1.60921 328.171 1.60921C331.032 1.60921 333.994 2.38045 336.631 3.96738V31.2916V31.3027Z" fill="#575756"/>
<path d="M329.008 14.6735H327.287V19.6242H329.008V14.6735Z" fill="#575756"/>
<path d="M146.937 0.581116H128.911L126.363 34.89H149.496L146.948 0.581116H146.937ZM132.274 33.3478L132.978 23.8262H142.846L143.551 33.3478H132.263H132.274ZM133.101 22.3063L134.32 5.91188H141.517L142.735 22.3063H133.09H133.101ZM143.126 4.39188H132.721L130.587 33.359H128.173L130.498 2.11216H145.316L147.641 33.359H145.227L143.092 4.39188H143.115H143.126Z" fill="#575756"/>
<path d="M244.968 21.8482C246.611 19.1437 247.516 15.9363 247.516 12.6618C247.516 8.35923 245.996 4.12377 242.789 0.581116H225.903V34.89H248.31L244.957 21.8482H244.968ZM231.815 33.3478V21.9152H239.012L242.018 33.3478H231.826H231.815ZM231.815 20.3954V5.91188H239.515C240.923 7.96818 241.604 10.2591 241.604 12.6506C241.604 15.5116 240.599 18.1938 238.744 20.3842H231.803L231.815 20.3954ZM240.498 20.9653C242.398 18.4508 243.314 15.668 243.314 12.6506C243.314 9.63323 242.51 7.08532 240.532 4.38083H230.094V33.3478H227.624V2.10097H241.873C244.085 4.649 245.795 8.31452 245.795 12.6506C245.795 15.4333 245.024 18.7526 243.124 21.5353L246.175 33.3478H243.717L240.498 20.9653Z" fill="#575756"/>
<path d="M138.789 14.6735H137.068V19.6242H138.789V14.6735Z" fill="#575756"/>
<path d="M121.703 0.581116H112.103L108.683 5.16307L105.264 0.581116H95.6191L93.7192 34.89H104.437L104.649 24.9549L108.672 28.1735L112.695 24.9549L112.908 34.89H123.625L121.725 0.581116H121.703ZM114.573 33.3478L114.282 21.7587L108.683 26.1396L103.084 21.7587L102.794 33.3478H99.8435L101.185 5.91188H102.246L108.694 14.1035L115.143 5.91188H116.204L117.546 33.3478H114.584H114.573ZM117.78 4.39188H114.271L108.694 11.5443L103.118 4.39188H99.5752L98.1559 33.359H95.5297L97.2507 2.11216H104.425L108.683 7.71113L112.941 2.11216H120.116L121.837 33.359H119.211L117.791 4.39188H117.78Z" fill="#575756"/>
<path d="M269.51 18.8643L271.343 0.569946H251.137V34.8788H270.918L271.6 18.8755H269.51V18.8643ZM269.275 33.3478H252.847V2.10099H269.421L269.197 4.3919H255.328V31.0791H269.365L269.264 33.3702L269.275 33.3478ZM269.443 29.5369H257.049V5.91189H269.052L268.169 14.6847H259.899V16.2045H268.013L267.744 18.8755H259.888V20.3954H269.801L269.421 29.5369H269.443Z" fill="#575756"/>
<path d="M222.583 0.581116H199.83V16.2045H206.043L205.507 34.89H216.906L216.37 16.2045H222.08L222.572 0.581116H222.583ZM210.357 33.3478H207.273L207.809 14.6623H201.562V5.90069H210.368V33.3366L210.357 33.3478ZM220.426 14.6735H214.637L215.174 33.359H212.089V5.91188H220.728L220.438 14.6847L220.426 14.6735ZM220.762 4.39188H201.551V2.10097H220.84L220.762 4.39188Z" fill="#575756"/>
<path d="M193.773 16.2045H196.936L195.941 0.581116H180.463C177.792 3.25207 176.652 6.57114 176.652 9.72264C176.652 12.8741 177.681 15.8246 180.43 18.8643H177.189L176.507 34.8676H195.371C196.478 33.0796 197.774 29.8722 197.774 26.5531C197.774 22.0493 196.131 19.2331 193.773 16.1821V16.2045ZM178.843 20.3954H183.883L181.447 17.4674C179.267 14.7964 178.362 12.6618 178.396 9.73383C178.429 7.40931 179.122 4.54843 181.402 2.11216H194.354L194.5 4.40307H182.698C181.357 6.19116 180.866 7.99044 180.866 9.73383C180.866 12.5165 182.005 14.2377 184.531 16.5175L188.688 20.2948C191.158 22.5411 191.896 24.5303 191.896 26.5755C191.896 28.0953 191.583 29.0899 191.438 29.5481H178.452L178.854 20.4065H178.832L178.843 20.3954ZM194.265 33.3478H178.262L178.362 31.0569H192.667C193.159 29.917 193.583 28.5088 193.583 26.5531C193.583 24.0051 192.667 21.5576 189.694 18.8531L185.459 15.0422C183.481 13.2541 182.564 11.8348 182.564 9.71146C182.564 8.37039 182.944 7.0406 183.704 5.90069H194.589L195.148 14.6735H190.041L190.991 15.7017C194.913 19.9372 196.064 22.8987 196.064 26.5643C196.064 29.6934 194.924 32.1632 194.276 33.3478H194.265Z" fill="#575756"/>
<path d="M307.239 18.8643L307.842 0.569946H296.901V34.8788H314.704L315.386 18.8755H307.228L307.239 18.8643ZM313.072 33.3478H298.622V2.10099H301.092V31.0681H313.151L313.05 33.359L313.072 33.3478ZM313.229 29.5369H302.824V2.10099H306.099L305.495 20.3954H313.609L313.229 29.5369Z" fill="#575756"/>
<path d="M171.634 16.2045H173.422L172.394 0.581116H152.96V34.89H173.467L171.634 16.2045ZM154.67 33.3478V2.10097H170.785L170.93 4.39188H157.139V31.0791H171.321L171.545 33.3702H154.658L154.67 33.3478ZM161.721 14.6735V16.1933H169.868L170.137 18.8643H161.721V20.3842H170.282L171.176 29.5258H158.86V5.90069H171.031L171.589 14.6735H161.71H161.721Z" fill="#575756"/>
<path d="M293.325 18.8643H285.546L286.15 0.569946H275.209V34.8788H294.006L293.325 18.8755V18.8643ZM281.132 2.10099H284.406L283.803 20.3954H291.771L292.151 29.5369H281.143V2.10099H281.132ZM276.941 33.3478V2.10099H279.411V31.0681H292.207L292.308 33.359H276.941V33.3478Z" fill="#575756"/>
<path d="M32.1516 0.581116H18.0369L18.6627 14.6735H21.6913V20.3954H18.6627L18.0369 34.8788H31.4811L30.8552 20.3954H27.8825V14.6735H30.8999L32.1516 0.581116Z" fill="#575756"/>
<path d="M36.1195 14.6735H41.2156L36.1195 20.3954L35.5496 34.8788H48.3679L47.7197 20.3954H43.283L48.3679 14.6735L48.9379 0.581116H36.1195V14.6735Z" fill="#575756"/>
<path d="M53.0058 14.6735H58.0906L53.0058 20.3954L52.3911 34.8788H65.243L64.6171 20.3954H60.1693L65.2542 14.6735L66.5058 0.581116H53.0058V14.6735Z" fill="#575756"/>
<path d="M0 0.581133V34.89H7.27526L6.96235 25.659H11.6449V25.6366H12.2707C14.2041 22.4516 15.277 18.1044 15.277 14.2376C15.277 9.95739 14.2041 4.7496 10.438 0.569946H0.0111524L0 0.581133ZM8.86221 19.6354H5.97889V14.6847H8.86221V19.6354Z" fill="#575756"/>
<path d="M87.046 34.8788L84.4086 0.569946H71.3332L68.6958 34.8788H76.4293L76.1164 25.6478H79.6366L79.3237 34.8788H87.0572H87.046ZM77.8821 19.6354H76.4516V14.6847H79.3349V19.6354H77.8933H77.8821Z" fill="#575756"/>
<path d="M236.966 12.7736H235.245V17.7245H236.966V12.7736Z" fill="#575756"/>
</svg>
