<svg width="193" height="18" viewBox="0 0 193 18" fill="none" xmlns="http://www.w3.org/2000/svg">
<path d="M84.2178 0.374662C85.367 0.197136 86.4882 0.346654 87.6468 0.28125C88.74 1.52394 89.6743 2.87877 90.6834 4.16818C91.6925 5.45758 92.6736 6.77502 93.7294 8.14852C95.6168 5.49496 97.4668 2.89747 99.3075 0.31866H102.578C102.914 0.589622 102.83 0.925979 102.83 1.24366C102.83 3.81312 102.83 6.38258 102.83 8.95204C102.83 11.0824 102.83 13.2033 102.83 15.3336V16.623C101.998 16.9033 101.167 16.9407 99.3262 16.7913C99.0085 16.5577 99.1113 16.2119 99.1113 15.9036C99.1113 12.9697 99.1113 10.0453 99.1019 7.1114C99.1019 6.88716 99.1767 6.63486 98.8777 6.39193C97.4668 8.36341 96.0653 10.3068 94.6544 12.2689H92.8138C91.216 10.3442 89.7678 8.30728 88.0206 6.205C87.8804 7.02722 87.9458 7.57854 87.9271 8.12046C87.9178 8.68107 87.9271 9.24172 87.9271 9.80233C87.9271 10.4003 87.9271 11.0076 87.9271 11.6056C87.9271 12.1662 87.9271 12.7268 87.9271 13.2874C87.9271 13.848 87.9271 14.4086 87.9271 14.9692C87.9271 15.5298 87.9271 16.0811 87.9178 16.6324C87.2824 16.9687 86.6751 16.8286 86.0865 16.8379C85.4885 16.8472 84.8905 16.9127 84.2458 16.7351C84.2084 16.5389 84.1523 16.3521 84.1523 16.1652C84.1523 11.1104 84.1523 6.0462 84.1523 0.991365C84.1523 0.795151 84.1897 0.60824 84.2178 0.36531V0.374662Z" fill="#575756"/>
<path d="M154.34 0.392041C154.537 0.354667 154.686 0.298628 154.845 0.298628C155.845 0.298628 156.844 0.298628 157.751 0.298628C158.134 0.625651 158.04 0.971397 158.04 1.27039C158.04 4.36309 158.012 7.45572 158.003 10.5484C158.003 10.6138 158.059 10.6885 158.087 10.7539C158.124 10.7726 158.162 10.8007 158.199 10.8007C158.237 10.8007 158.283 10.782 158.302 10.7539C158.414 10.6418 158.526 10.5204 158.629 10.4082C161.423 7.13802 164.207 3.87715 167.001 0.606923C167.057 0.550862 167.122 0.494874 167.178 0.448156C167.206 0.420126 167.244 0.401416 167.356 0.307981C168.505 0.317325 169.729 0.223848 171.009 0.382688C171.047 0.625619 171.093 0.81253 171.093 1.00874C171.093 6.22241 171.159 11.4361 171.093 16.6497C170.458 16.9955 169.851 16.8553 169.262 16.8553C168.673 16.8553 168.066 16.9675 167.412 16.6965C167.347 13.1273 167.431 9.56739 167.375 6.03555C167.16 5.8954 167.038 5.9514 166.926 6.09155C164.095 9.42718 161.264 12.7629 158.433 16.0985C158.227 16.3414 157.994 16.5656 157.723 16.8553C156.648 16.8459 155.536 16.9394 154.368 16.7806C154.331 16.519 154.266 16.2947 154.266 16.0611C154.266 11.1184 154.266 6.18504 154.266 1.24233C154.266 0.971369 154.312 0.700385 154.35 0.401393L154.34 0.392041Z" fill="#575756"/>
<path d="M51.962 11.202C51.9433 13.1267 51.9339 14.9113 51.9152 16.7707C50.6539 16.9762 49.4766 16.8734 48.2246 16.8547C48.1779 16.5744 48.1124 16.3501 48.1124 16.1259C48.1031 14.9206 48.1124 13.7153 48.1124 12.5193C48.1124 12.1269 48.0751 11.7345 48.0564 11.3327C47.4958 11.0804 46.9725 11.1271 46.468 11.1085C45.1973 11.0617 44.0106 10.7348 42.9174 10.0994C41.7028 9.38929 40.7965 8.39883 40.3854 7.016C39.7313 4.80159 40.4508 2.2135 42.8894 1.00819C43.7584 0.578391 44.6927 0.32608 45.6551 0.270019C46.5708 0.223302 47.4958 0.195312 48.4208 0.195312C50.3455 0.195312 52.2703 0.213949 54.1951 0.260667C55.1668 0.279354 56.0825 0.55964 56.9794 0.942724C60.1002 2.28819 60.4926 6.14715 59.0257 8.28681C58.4744 9.09035 57.783 9.75367 56.9047 10.2022C55.8956 10.7347 54.8211 11.0337 53.6905 11.0991C53.1766 11.1271 52.6627 11.1553 51.9713 11.202H51.962ZM47.9443 3.14789C46.9538 3.01708 46.0662 3.12917 45.2346 3.58701C43.5902 4.49333 43.6276 6.92258 44.9356 7.85693C45.8513 8.51098 46.8884 8.62308 47.9629 8.41752C48.1591 7.32433 48.1592 4.22229 47.9443 3.15713V3.14789ZM52.0741 8.46428C52.943 8.57641 53.7279 8.50161 54.4753 8.18393C56.3534 7.39908 56.3628 4.8857 55.1668 3.88595C54.3726 3.22256 53.1673 2.96101 52.0461 3.26001C51.8966 4.32517 51.9059 7.38044 52.0741 8.46428Z" fill="#575756"/>
<path d="M27.0623 17.1358C25.3057 17.1638 23.764 16.9021 22.3251 16.2387C19.3445 14.8652 17.7655 12.4827 17.5786 9.24981C17.3263 4.83034 20.0546 1.3079 24.4087 0.317487C26.6885 -0.196405 28.959 -0.103034 31.1641 0.719194C34.3876 1.91516 36.1441 4.26043 36.4712 7.66146C36.6207 9.24051 36.4151 10.7916 35.7424 12.2492C34.9015 14.0898 33.4812 15.3512 31.678 16.1921C30.1643 16.9022 28.5572 17.2199 27.0529 17.1358H27.0623ZM21.587 8.32481C21.5683 9.9973 21.8953 11.3428 22.8483 12.464C24.3246 14.2113 26.2681 14.6223 28.4077 14.1739C30.3325 13.7721 31.5658 12.5481 32.1732 10.67C32.4628 9.77307 32.5469 8.85748 32.4535 7.94181C32.2853 6.27867 31.678 4.83041 30.2671 3.83065C26.8941 1.4574 22.2878 3.41021 21.6617 7.46529C21.6057 7.82034 21.6057 8.18465 21.5963 8.31546L21.587 8.32481Z" fill="#575756"/>
<path d="M130.513 0.349199C131.812 0.274451 132.961 0.236981 134.185 0.36779C134.204 0.806935 134.241 1.19941 134.241 1.58249C134.241 2.94664 134.241 4.3108 134.241 5.67495C134.241 6.03 134.279 6.38505 134.307 6.72141C134.494 6.78682 134.606 6.85224 134.718 6.85224C137.082 6.86158 139.455 6.87094 141.819 6.87094C142.015 6.87094 142.211 6.82414 142.464 6.78677C142.501 6.49712 142.566 6.22615 142.566 5.96454C142.576 4.51629 142.566 3.0775 142.576 1.62925C142.576 1.23683 142.604 0.844409 142.622 0.470669C143.538 0.237082 145.154 0.218349 146.248 0.423906C146.285 0.526685 146.36 0.629431 146.36 0.741553C146.36 6.03932 146.36 11.3277 146.36 16.5974C145.594 16.9058 144.304 16.9525 142.697 16.747C142.66 16.504 142.585 16.2425 142.585 15.9809C142.576 14.4111 142.585 12.8508 142.576 11.281C142.576 10.8886 142.548 10.4962 142.529 10.0384C142.249 9.99168 142.024 9.92628 141.8 9.92628C139.548 9.92628 137.306 9.92628 135.054 9.92628C134.858 9.92628 134.662 9.95424 134.503 9.96358C134.185 10.2439 134.251 10.5802 134.241 10.8886C134.241 12.4116 134.241 13.9346 134.241 15.4669C134.241 15.8593 134.223 16.2611 134.204 16.6629C133.587 16.9806 132.98 16.8404 132.391 16.8497C131.803 16.8497 131.195 16.9525 130.588 16.7376C130.56 16.5601 130.504 16.4106 130.504 16.2517C130.504 11.0007 130.504 5.7404 130.504 0.349199H130.513Z" fill="#575756"/>
<path d="M192.061 0.39151C192.089 0.727876 192.126 1.08291 192.135 1.42862C192.247 9.78171 192.191 15.7242 191.986 16.6866C191.042 16.9109 189.388 16.9109 188.379 16.6679C188.239 14.6591 188.426 12.6222 188.267 10.5666C187.464 10.2489 186.81 10.3891 186.314 11.0431C185.763 11.7813 185.24 12.5381 184.726 13.3136C184.1 14.248 183.483 15.1916 182.904 16.154C182.605 16.6492 182.25 16.8921 181.643 16.8735C180.568 16.8267 179.484 16.8641 178.372 16.8641C178.372 16.6679 178.326 16.5278 178.372 16.453C179.634 14.547 180.895 12.6316 182.175 10.7442C182.483 10.2863 182.876 9.87523 183.222 9.45477C183.222 9.10906 182.913 9.10904 182.745 8.96889C182.278 8.58581 181.773 8.24935 181.353 7.8289C179.428 5.86676 180.073 2.54058 182.278 1.27921C183.352 0.671883 184.52 0.36352 185.726 0.316803C187.688 0.251398 189.659 0.279392 191.631 0.279392C191.743 0.279392 191.855 0.335449 192.051 0.39151H192.061ZM188.155 3.18521C187.258 3.12915 186.426 3.05443 185.614 3.33473C184.791 3.6057 184.212 4.1383 184.053 4.9979C183.876 5.93225 184.221 6.72643 184.978 7.31507C185.399 7.6421 185.875 7.87567 186.398 7.88501C187.015 7.9037 187.669 8.06249 188.239 7.71678C188.398 6.35263 188.361 4.14759 188.155 3.18521Z" fill="#575756"/>
<path d="M14.7759 16.8548H10.1976C8.16069 14.6964 6.29199 12.2858 4.22708 10.0901C3.9094 10.1742 3.96546 10.4078 3.96546 10.5853C3.96546 12.2298 3.96546 13.8743 3.96546 15.5187C3.96546 15.9112 3.92809 16.3036 3.9094 16.7707C2.63869 17.0043 1.42402 16.8361 0.2374 16.8828C0.00381278 15.7897 -0.061594 8.71666 0.0598715 1.37267C0.0598715 1.01761 0.106591 0.671928 0.134621 0.344906C1.17175 0.148692 2.80687 0.148674 3.80662 0.3262C4.07758 0.840093 3.92808 1.4194 3.95611 1.97066C3.98414 2.4939 3.95611 3.01707 3.95611 3.54031C3.95611 4.10092 3.94676 4.66157 3.95611 5.22218C3.97479 5.72673 3.87202 6.24064 4.05889 6.876C4.36722 6.55832 4.59146 6.35272 4.78768 6.12848C6.24526 4.47468 7.70286 2.81158 9.1511 1.15779C9.30994 0.980259 9.46878 0.793316 9.62762 0.615789C9.82383 0.400889 10.0574 0.270094 10.3657 0.279437C11.5991 0.279437 12.8418 0.279437 14.1872 0.279437C13.9817 0.858734 13.5893 1.14843 13.2903 1.49414C12.9539 1.89591 12.6082 2.279 12.2531 2.67143C11.9261 3.02648 11.5991 3.37219 11.2721 3.72725C10.917 4.11033 10.5807 4.50276 10.2256 4.89518C9.89858 5.25024 9.57155 5.60519 9.24453 5.96024C8.88948 6.34333 8.54377 6.72651 8.19806 7.11894C7.88038 7.47399 7.58138 7.83835 7.22633 8.24947C9.63695 11.1366 12.2158 13.8182 14.7572 16.8641L14.7759 16.8548Z" fill="#575756"/>
<path d="M111.464 16.8194C110.212 16.8661 109.1 16.9128 108.007 16.7913C107.774 16.455 107.989 16.212 108.091 15.9691C109.773 12.0261 111.464 8.07381 113.146 4.13085C113.567 3.1311 113.987 2.14073 114.417 1.14098C114.538 0.851328 114.688 0.570973 114.828 0.271981C115.781 0.122485 116.687 0.197283 117.659 0.206627C118.285 1.2531 118.677 2.393 119.182 3.4675C119.696 4.56069 120.154 5.66325 120.649 6.76578C121.135 7.86831 121.639 8.96142 122.125 10.0639C122.611 11.1665 123.097 12.2597 123.583 13.3622C124.069 14.4461 124.611 15.5113 125.003 16.6979C124.564 16.9035 124.162 16.838 123.779 16.8473C123.34 16.8567 122.901 16.8473 122.452 16.8473C122.05 16.8473 121.649 16.8473 121.256 16.8473C120.64 16.2867 120.518 15.502 120.182 14.8292C119.864 14.1845 119.593 13.5211 119.313 12.9044C118.397 12.7175 114.632 12.6802 113.165 12.8391C112.623 14.1098 112.053 15.4178 111.464 16.8007V16.8194ZM116.183 4.98114C115.772 6.02761 115.435 6.80316 115.174 7.58801C114.912 8.36352 114.426 9.07361 114.408 10.0173C114.865 10.0266 115.258 10.036 115.65 10.0454C116.052 10.0454 116.454 10.064 116.856 10.0454C117.229 10.0267 117.65 10.1667 118.033 9.82101C117.435 8.27933 116.958 6.71904 116.183 4.99049V4.98114Z" fill="#575756"/>
<path d="M76.2932 2.99026C75.5084 2.9996 74.7889 3.01833 74.0788 3.02767C73.3967 3.02767 72.7147 3.02767 72.0326 3.02767C71.3225 3.03701 70.603 2.96224 69.8275 3.12108C69.8275 3.62563 69.8088 4.06476 69.8088 4.5039C69.8088 5.26072 69.8088 6.01752 69.8182 6.6996C70.1545 7.04531 70.4909 6.97996 70.8086 6.9893C72.2942 6.9893 73.7798 6.9893 75.2654 6.9893C75.5738 6.9893 75.8821 7.02663 76.2559 7.05466C76.3773 7.94229 76.3399 8.77391 76.2745 9.67088C75.9942 9.7176 75.7326 9.80171 75.471 9.81106C74.0227 9.8204 72.5839 9.81106 71.1356 9.81106C70.7432 9.81106 70.3508 9.83902 69.977 9.85771C69.7621 10.764 69.7341 12.586 69.9116 13.9315C70.1919 13.9688 70.5002 14.0342 70.7992 14.0342C72.5652 14.0436 74.3311 14.0342 76.097 14.0342C76.4521 14.0342 76.7978 14.0716 77.1248 14.0903C77.3397 15.1368 77.3397 15.7815 77.1248 16.7345C76.1624 16.912 67.1366 16.9214 66.0434 16.7345C65.8659 15.4077 65.9873 14.053 65.9687 12.7075C65.95 11.306 65.9687 9.89512 65.9687 8.49359C65.9687 7.12944 65.9687 5.76529 65.9687 4.40114C65.978 3.04633 65.922 1.6915 66.006 0.289975C67.3048 0.0657307 68.5475 0.21524 69.7715 0.18721C70.9768 0.159179 72.1821 0.177866 73.378 0.18721C74.6207 0.18721 75.8541 0.159207 77.1809 0.215268C77.05 1.20568 76.6857 2.01853 76.2745 2.98091L76.2932 2.99026Z" fill="#575756"/>
</svg>
