<svg width="71" height="16" viewBox="0 0 71 16" fill="none" xmlns="http://www.w3.org/2000/svg">
<path d="M30.3549 15.2811C30.1162 15.3178 28.6244 15.3132 28.4225 15.2811C28.4133 15.2398 28.4041 15.1984 28.3995 15.1525C28.3995 15.0837 28.3995 15.0103 28.3995 14.9414C28.3995 12.6648 28.3995 10.3835 28.3995 8.10684C28.3995 7.69374 28.3812 7.28067 28.2848 6.87674C28.193 6.47282 28.0507 6.08261 27.8212 5.73377C27.4769 5.20133 27.0087 4.82957 26.3891 4.6781C25.3839 4.42564 24.3098 4.73318 23.6718 5.71085C23.3688 6.16986 23.2128 6.67937 23.1301 7.2164C23.0842 7.51016 23.0797 7.80848 23.0797 8.10225C23.0797 10.3973 23.0797 12.6877 23.0797 14.9827C23.0797 15.0745 23.0797 15.1709 23.0797 15.2673C23.0338 15.2811 22.997 15.2994 22.9649 15.2994C22.3866 15.2994 21.8082 15.2994 21.2345 15.2994C21.2023 15.2994 21.1748 15.2902 21.1427 15.2811C21.106 15.1847 21.1197 15.0929 21.1197 15.0011C21.1197 13.2293 21.1197 11.4575 21.1197 9.69038C21.1197 9.43334 21.1197 9.17633 21.1243 8.91929C21.1427 8.4511 21.2069 7.9875 21.3309 7.53309C21.5925 6.57377 22.1341 5.79807 22.919 5.19677C23.6351 4.64597 24.4475 4.33842 25.3517 4.26039C27.2245 4.09056 29.1431 5.11872 29.9509 6.95014C30.1391 7.37243 30.2355 7.82226 30.2998 8.28126C30.3503 8.63929 30.364 8.99729 30.364 9.35532C30.364 11.2372 30.364 13.1146 30.364 14.9965C30.364 15.0883 30.364 15.1801 30.3595 15.2857L30.3549 15.2811Z" fill="#575756"/>
<path d="M70.078 15.2933C70.0229 15.2979 69.9633 15.3071 69.9036 15.3071C69.3298 15.3071 68.7515 15.3163 68.164 15.2979C68.1548 15.2382 68.1502 15.1969 68.1456 15.151C68.1456 15.0821 68.1456 15.0087 68.1456 14.9399C68.1456 12.6311 68.1456 10.3223 68.1456 8.01352C68.1456 7.5178 68.0951 7.03123 67.9482 6.55846C67.8381 6.19585 67.6774 5.86081 67.4479 5.55786C66.9705 4.93821 66.3417 4.61227 65.5568 4.5985C64.5608 4.58014 63.8218 5.0208 63.3215 5.86995C63.092 6.26011 62.968 6.68238 62.8946 7.12303C62.8441 7.42597 62.8349 7.7289 62.8349 8.03184C62.8349 10.3498 62.8349 12.6678 62.8349 14.9812C62.8349 15.073 62.8349 15.1648 62.8349 15.2657C62.789 15.2795 62.7523 15.2979 62.7156 15.2979C62.1464 15.2979 61.5773 15.2979 61.0081 15.2979C60.9714 15.2979 60.9347 15.2841 60.8842 15.2749C60.8842 15.2015 60.875 15.1327 60.875 15.0638C60.875 13.1222 60.875 11.1806 60.875 9.23443C60.875 8.71117 60.9255 8.19254 61.0494 7.67846C61.3202 6.54931 61.9537 5.67259 62.9084 5.02081C63.5648 4.57557 64.2946 4.32769 65.0887 4.25425C66.7732 4.0936 68.5036 4.91525 69.4262 6.4116C69.7383 6.91651 69.922 7.46729 70.0183 8.05022C70.0872 8.46792 70.1193 8.8856 70.1193 9.30789C70.1193 11.2173 70.1193 13.1314 70.1193 15.0408C70.1193 15.1189 70.1377 15.1969 70.0918 15.2841L70.078 15.2933Z" fill="#575756"/>
<path d="M18.0805 15.2781C18.03 15.2873 17.9933 15.3011 17.9566 15.3011C17.3645 15.3011 16.7724 15.3103 16.1986 15.3011C16.1252 15.2368 16.1435 15.1726 16.1435 15.1129C16.1435 14.81 16.1435 14.5024 16.1435 14.1995C16.1435 14.149 16.1298 14.0985 16.1206 14.0159C16.0517 14.1031 16.0012 14.1627 15.9553 14.2224C15.4275 14.9063 14.7252 15.2873 13.8852 15.425C13.1967 15.5352 12.5312 15.448 11.884 15.2047C11.0853 14.9063 10.4152 14.4244 9.86437 13.7726C9.42373 13.2493 9.13914 12.6481 9.00144 11.9779C8.91423 11.5648 8.85456 11.1471 8.85456 10.7248C8.85456 10.1006 8.84538 9.47633 8.85915 8.85208C8.87292 8.338 8.95553 7.82854 9.107 7.33281C9.52929 5.97416 10.6447 4.86794 12.04 4.44566C14.1423 3.81223 16.2262 4.64764 17.3507 6.35513C17.7546 6.96561 17.975 7.64029 18.0392 8.37011C18.0759 8.79239 18.0851 9.21008 18.0851 9.63237C18.0851 11.4271 18.0851 13.2218 18.0851 15.0165C18.0851 15.1037 18.0851 15.1863 18.0851 15.2781H18.0805ZM16.1206 10.4219C16.1206 10.4219 16.1206 10.4219 16.116 10.4219C16.116 9.63241 16.116 8.8475 16.116 8.05802C16.116 7.69081 16.0793 7.3282 16.015 6.96559C15.9553 6.61215 15.859 6.26332 15.6891 5.94661C15.3724 5.36368 14.9226 4.92301 14.28 4.72105C13.8898 4.59712 13.4859 4.57874 13.0774 4.63841C12.4256 4.7348 11.9069 5.03774 11.5076 5.56101C11.2322 5.91903 11.0669 6.33214 10.9614 6.76819C10.842 7.26391 10.8053 7.76884 10.8053 8.27833C10.8053 9.2147 10.8053 10.1511 10.8053 11.0874C10.8053 11.5235 10.8145 11.9595 10.865 12.3956C10.9017 12.7123 10.9568 13.029 11.0578 13.332C11.2184 13.8139 11.4801 14.2408 11.8748 14.5621C12.545 15.1175 13.3161 15.246 14.1377 15.0165C15.0006 14.7824 15.6065 14.227 16.0196 13.4467C16.093 13.3136 16.1206 13.1759 16.1206 13.0198C16.1206 12.1523 16.1206 11.2894 16.1206 10.4219Z" fill="#575756"/>
<path d="M48.0945 10.0823C47.9752 10.0823 47.8834 10.0915 47.7916 10.0915C45.57 10.0915 43.3438 10.0915 41.1223 10.0915C41.0305 10.0915 40.9341 10.0731 40.8331 10.119C40.8285 10.1787 40.8193 10.2384 40.8193 10.298C40.8239 10.8443 40.8239 11.3905 40.8423 11.9367C40.856 12.3589 40.902 12.7767 41.0213 13.1852C41.0718 13.355 41.1268 13.5294 41.2049 13.6901C41.5445 14.4199 42.1137 14.8881 42.8986 15.0303C44.2573 15.2782 45.469 14.9707 46.4742 13.9839C46.8965 13.5708 47.2178 13.0842 47.4932 12.5655C47.5345 12.4921 47.5758 12.4186 47.6217 12.336C47.7365 12.3681 47.8283 12.4186 47.9155 12.4737C47.9063 12.5104 47.9063 12.5379 47.8972 12.5563C47.5529 13.2907 47.0985 13.9517 46.4697 14.475C45.8087 15.0212 45.0513 15.3379 44.1976 15.4343C43.1557 15.549 42.155 15.4022 41.2278 14.8973C39.9839 14.2179 39.2174 13.176 38.9603 11.7714C38.8869 11.3767 38.8594 10.982 38.8594 10.5826C38.8594 10.0731 38.8594 9.5682 38.8594 9.0587C38.8594 8.26922 39.0109 7.50271 39.3551 6.79125C40.0298 5.40506 41.1314 4.56966 42.6599 4.30803C43.8579 4.10606 44.9825 4.31724 46.0015 4.96902C47.1169 5.68048 47.8008 6.69488 48.0073 8.01681C48.0762 8.45746 48.1037 8.89805 48.0991 9.34788C48.0991 9.58197 48.0991 9.81611 48.0991 10.0823H48.0945ZM40.8331 9.70591C40.9341 9.73804 41.0305 9.72889 41.1223 9.72889C42.6875 9.72889 44.2573 9.72889 45.8225 9.72889C45.8775 9.72889 45.9326 9.72889 45.9877 9.72889C46.0336 9.72889 46.0749 9.71509 46.1254 9.70591C46.1254 9.62329 46.1346 9.55445 46.1346 9.4856C46.1346 9.13676 46.1346 8.78331 46.1346 8.43446C46.1346 7.97546 46.0933 7.51646 46.0428 7.05745C45.9739 6.43321 45.7123 5.8916 45.3222 5.40965C45.0146 5.03326 44.629 4.79002 44.1517 4.68903C44.014 4.66149 43.8763 4.63394 43.7386 4.62017C42.9858 4.54673 42.3248 4.75326 41.7694 5.28571C41.4344 5.60701 41.2095 5.99257 41.0764 6.43322C40.9341 6.89681 40.8652 7.37876 40.8469 7.86071C40.8239 8.42069 40.8285 8.9807 40.8239 9.54527C40.8239 9.59576 40.8331 9.65083 40.8377 9.70591H40.8331Z" fill="#575756"/>
<path d="M58.691 10.0851C58.5671 10.0851 58.4753 10.0943 58.3835 10.0943C56.1619 10.0943 53.9357 10.0943 51.7141 10.0943C51.6223 10.0943 51.5305 10.0805 51.4296 10.1172C51.425 10.1723 51.4158 10.2274 51.4158 10.2779C51.4158 10.948 51.402 11.6182 51.4663 12.2883C51.503 12.6877 51.5627 13.0778 51.7004 13.4542C52.0676 14.4457 52.7974 14.9781 53.8347 15.0928C54.3534 15.1525 54.8629 15.1066 55.3678 14.9781C56.0976 14.7899 56.7035 14.3906 57.213 13.8398C57.5573 13.4634 57.8372 13.0411 58.0759 12.5913C58.1218 12.5087 58.1677 12.4306 58.2182 12.3342C58.3284 12.3709 58.4248 12.4077 58.5211 12.4811C58.4982 12.5316 58.4845 12.5821 58.4615 12.628C58.2733 13.0227 58.0484 13.3945 57.773 13.7388C57.0111 14.7027 56.0334 15.281 54.8078 15.4279C53.8806 15.5381 52.981 15.4279 52.1318 15.0378C50.6906 14.3722 49.8184 13.2569 49.543 11.6871C49.4834 11.3428 49.4513 10.9894 49.4513 10.6405C49.4513 10.0943 49.4467 9.54806 49.4513 9.00184C49.4604 8.18941 49.6303 7.40454 50.0066 6.67931C50.6906 5.35738 51.7692 4.56788 53.238 4.31084C54.2616 4.13183 55.2485 4.26496 56.1711 4.73314C57.4976 5.40788 58.3284 6.47277 58.59 7.95076C58.6634 8.37305 58.691 8.80447 58.6956 9.23135C58.6956 9.50216 58.6956 9.7776 58.6956 10.0805L58.691 10.0851ZM56.7127 9.70873C56.7173 9.6307 56.7265 9.56186 56.7265 9.49301C56.7265 9.22679 56.7265 8.96057 56.7265 8.69894C56.7173 8.1206 56.6989 7.54684 56.6209 6.97308C56.5337 6.33966 56.2537 5.80259 55.8406 5.32981C55.556 5.00392 55.198 4.79283 54.7757 4.69644C54.6242 4.65972 54.4682 4.63676 54.3167 4.62299C53.5685 4.55414 52.9167 4.75607 52.3659 5.28393C52.0125 5.62359 51.783 6.02752 51.6499 6.4957C51.4984 7.02356 51.4433 7.56519 51.425 8.1114C51.4112 8.59336 51.4158 9.07992 51.4158 9.56187C51.4158 9.61236 51.4295 9.66744 51.4387 9.7317C53.1646 9.7317 54.8813 9.7317 56.5934 9.7317C56.6301 9.7317 56.6668 9.72251 56.7173 9.71792L56.7127 9.70873Z" fill="#575756"/>
<path d="M32.545 4.69106C32.5312 4.58549 32.5175 4.50282 32.5588 4.41102C32.7332 4.36971 32.9122 4.39728 33.0912 4.3881C33.2611 4.37892 33.4309 4.40644 33.6145 4.36513C33.642 4.12186 33.6237 3.87861 33.6283 3.63992C33.6283 3.39665 33.6283 3.15799 33.6283 2.91472V0.761962C33.6283 0.52328 33.6283 0.280019 33.6283 0.0275671C33.6742 0.018387 33.7109 0 33.7476 0C34.3305 0 34.9181 0 35.501 0C35.5239 0 35.5469 0.00919352 35.5836 0.0137836C35.5882 0.068864 35.602 0.128537 35.602 0.188207C35.602 0.610491 35.602 1.03277 35.602 1.45047C35.602 2.33175 35.602 3.21305 35.602 4.09433C35.602 4.17695 35.5836 4.26418 35.6249 4.34221C35.6984 4.39729 35.7764 4.37432 35.8544 4.37432C36.3226 4.37432 36.7908 4.37432 37.259 4.37432C37.337 4.37432 37.4105 4.37892 37.4885 4.38351C37.5344 4.48449 37.5114 4.5763 37.5114 4.67728C37.3416 4.70023 37.1856 4.68647 37.0341 4.69106C36.878 4.69106 36.722 4.69106 36.5659 4.69106C36.4098 4.69106 36.2538 4.69106 36.0977 4.69106C35.9416 4.69106 35.7902 4.68183 35.6249 4.70019C35.6158 4.75986 35.6066 4.80121 35.6066 4.84711C35.6066 4.89301 35.6066 4.93888 35.6066 4.98937C35.6066 7.84437 35.6066 10.6994 35.6066 13.5544C35.6066 13.7242 35.6158 13.8986 35.6479 14.0639C35.7121 14.4081 35.9003 14.6698 36.24 14.7845C36.7036 14.9452 37.1855 14.7295 37.3737 14.2659C37.4196 14.1511 37.4472 14.0318 37.4885 13.9032C37.5941 13.8757 37.6996 13.8895 37.796 13.8941C37.8465 13.9491 37.8327 13.9951 37.8236 14.041C37.7042 14.7295 37.2223 15.2435 36.5338 15.3904C35.9784 15.5097 35.4321 15.4638 34.8997 15.2573C34.3994 15.0645 34.0689 14.6927 33.8624 14.2062C33.7568 13.9537 33.7063 13.6829 33.6742 13.4121C33.6375 13.1 33.6283 12.7879 33.6283 12.4757C33.6283 9.97877 33.6283 7.48176 33.6283 4.98937C33.6283 4.89757 33.642 4.80577 33.6099 4.70479C33.4952 4.66807 33.3758 4.68646 33.2611 4.68187C33.1463 4.68187 33.027 4.68187 32.9122 4.68187C32.7975 4.68187 32.6781 4.69104 32.5496 4.66809L32.545 4.69106Z" fill="#575756"/>
<path d="M7.20177 12.9748C7.32111 12.9473 7.43128 12.9427 7.55521 12.984C7.55521 13.0345 7.5552 13.0804 7.54602 13.1263C7.35783 13.9938 6.90802 14.6777 6.12772 15.123C5.70543 15.3617 5.24641 15.481 4.76446 15.4856C3.56187 15.4947 2.48782 15.1321 1.57441 14.3518C0.775741 13.6679 0.284597 12.8004 0.100995 11.763C0.0275548 11.3545 0 10.9415 0 10.5283C0 9.99591 4.48256e-06 9.46806 0.00459452 8.93562C0.0137746 8.38482 0.0963986 7.84778 0.26623 7.32451C0.734414 5.87865 1.98291 4.73112 3.46091 4.37309C4.14023 4.20785 4.81956 4.18949 5.49888 4.37309C5.97625 4.50162 6.39392 4.73573 6.74277 5.08457C6.92178 5.26358 7.05948 5.47013 7.15129 5.70881C7.2844 6.06224 7.34407 6.42945 7.35325 6.80584C7.35325 6.84256 7.34408 6.87928 7.33949 6.92059C7.23851 6.94813 7.1467 6.94355 7.04572 6.92978C7.04113 6.87929 7.03194 6.83336 7.03194 6.78746C7.01817 6.14944 6.76113 5.62162 6.28836 5.20851C5.82476 4.8 5.28315 4.59341 4.66349 4.598C4.44317 4.598 4.22745 4.61637 4.01172 4.66686C3.61697 4.75866 3.27272 4.94684 2.97436 5.22683C2.48323 5.68584 2.20322 6.25502 2.07011 6.9114C1.97831 7.3704 1.9416 7.8386 1.9416 8.30679C1.9416 9.27529 1.9416 10.2438 1.9416 11.2077C1.9416 11.6667 1.95996 12.1303 2.01963 12.5847C2.07012 12.9748 2.16652 13.3512 2.34553 13.7001C2.76781 14.5309 3.44713 14.9898 4.36972 15.1C4.72316 15.1413 5.07201 15.123 5.41167 15.0174C6.25165 14.7604 6.78869 14.1958 7.08245 13.3787C7.12835 13.2456 7.16046 13.1125 7.20177 12.9748Z" fill="#575756"/>
</svg>
