<svg width="157" height="39" viewBox="0 0 157 39" fill="none" xmlns="http://www.w3.org/2000/svg">
<path d="M52.1511 4.72414H52.2726C52.7024 4.75217 54.3001 5.14465 54.2908 6.06031L58.7103 6.09772C58.7289 3.94872 57.0564 0.444845 52.5062 0.192571H52.394C49.6097 0.0337311 44.9566 -0.227932 42.6487 2.94886C41.4995 4.51856 41.0603 6.63023 41.4714 8.59236C41.8452 10.3863 42.8731 11.8346 44.368 12.6848C45.9938 13.6098 47.8157 13.8247 49.5255 13.8247C50.2917 13.8247 51.0393 13.7874 51.7307 13.7406L52.3473 13.7032C56.4958 13.4883 58.6635 10.5826 58.6635 7.80754H54.244C54.244 8.95679 52.1417 9.15296 52.123 9.1623L51.4784 9.19971C49.6471 9.30249 47.7409 9.41459 46.4982 8.70448C46.0404 8.44286 45.8629 7.97568 45.7881 7.63931C45.648 6.97592 45.7975 6.20043 46.1806 5.6772C47.0776 4.4532 50.4973 4.64006 52.1511 4.7335V4.72414Z" fill="#575756"/>
<path d="M95.7085 4.33719C95.6804 4.26244 95.6524 4.17835 95.6244 4.1036C95.6244 4.1036 95.6244 4.08489 95.6151 4.07554C94.8956 2.1975 93.111 0.272722 89.8034 0.0858522H89.6913C88.2244 -0.00758276 86.2341 -0.110398 84.3467 0.282029C81.4316 0.71183 79.6377 2.57123 79.0491 4.64548C78.6099 5.89751 78.5071 7.27098 78.7781 8.58841C78.8528 8.95281 78.9555 9.29851 79.0864 9.63488C79.1144 9.70963 79.1425 9.79372 79.1705 9.86847C79.1705 9.86847 79.1705 9.87783 79.1705 9.88717C79.89 11.7652 81.6746 13.69 84.9822 13.8769H85.0943C85.7577 13.9236 86.5332 13.9703 87.3554 13.9703C88.3832 13.9703 89.4857 13.9049 90.5508 13.6713C93.4006 13.2135 95.1572 11.3728 95.7365 9.32658C96.1757 8.07456 96.2784 6.70109 96.0074 5.38366C95.9327 5.01926 95.8206 4.67355 95.6991 4.33719H95.7085ZM91.7001 6.3553C91.8029 6.83182 91.7468 7.35511 91.5786 7.81294H91.5413C91.5413 7.81294 91.532 7.90639 91.532 7.94376C91.4666 8.08392 91.4012 8.224 91.3077 8.33612C91.1022 8.62577 90.7564 8.83138 90.336 8.98088C90.2612 9.00891 90.1771 9.02755 90.093 9.04623C89.7286 9.13967 89.4297 9.17706 89.4203 9.17706L88.7756 9.21447C86.9442 9.31724 85.0382 9.42934 83.7955 8.71923C83.4872 8.54171 83.3096 8.27073 83.1975 7.99977C83.1975 7.98108 83.1975 7.96246 83.1975 7.95312H83.1788C83.1414 7.84099 83.1041 7.73814 83.0854 7.64471C82.9826 7.16819 83.0387 6.64501 83.2069 6.18718H83.2443C83.2443 6.18718 83.2536 6.09373 83.2536 6.05636C83.319 5.91621 83.3844 5.77601 83.4779 5.66389C83.6834 5.37424 84.0291 5.16873 84.4589 5.00989C84.5336 4.98186 84.6177 4.96311 84.7018 4.94442C85.0662 4.85099 85.3653 4.82295 85.3653 4.82295L86.0099 4.78566C87.8412 4.68288 89.7473 4.57067 90.99 5.28078C91.2983 5.4583 91.4758 5.72928 91.588 6.00024C91.588 6.01893 91.588 6.03766 91.588 6.04701H91.6067C91.644 6.15913 91.6814 6.26187 91.7001 6.3553Z" fill="#575756"/>
<path d="M20.3921 5.20956C20.3734 4.48077 20.1866 3.77068 19.8128 3.12598C18.6449 1.11713 15.926 -0.0228359 12.3754 0.033225C7.39536 0.089286 2.72354 2.41588 0.74272 5.81691C-0.191629 7.42399 -0.247722 9.17124 0.593193 10.6195C1.74244 12.591 4.37731 13.7121 7.8344 13.7121H8.03069C10.9365 13.6747 13.7302 12.8712 15.954 11.5258V13.7308H20.4389V5.21891H20.3921V5.20956ZM15.711 5.61138C14.7113 7.33058 11.7307 9.08718 7.96523 9.13389C5.73213 9.16193 4.76974 8.5732 4.56418 8.34896C4.57352 8.30224 4.61089 8.21814 4.6763 8.10602C5.67605 6.38682 8.65666 4.63022 12.4221 4.5835C14.6458 4.55547 15.6176 5.1442 15.8231 5.36844C15.8138 5.41516 15.7764 5.49926 15.711 5.61138Z" fill="#575756"/>
<path d="M36.8935 1.70313C35.2397 0.460447 33.0813 0.105357 30.9603 0.731372C29.3906 1.1892 28.1106 1.73119 27.0548 2.31983V0.320312H22.4297V13.7189H27.0548V8.89769C27.1856 6.8795 29.9046 5.66479 32.2031 4.99206C32.9973 4.75847 33.698 4.85194 34.2399 5.26306C34.8846 5.74892 35.2491 6.61781 35.2491 7.65493V13.7282H39.6779V7.65493C39.6779 5.20694 38.6594 3.03926 36.8935 1.71248V1.70313Z" fill="#575756"/>
<path d="M72.5114 4.99349H65.1954V0.265625H60.6172V13.7109H65.1954V9.12336H72.5114V13.7109H76.8841V0.265625H72.5114V4.99349Z" fill="#575756"/>
<path d="M105.193 9.22755L100.708 0.257812H95.7656L102.493 13.7124H103.857H104.455H107.884L114.611 0.257812H109.678L105.193 9.22755Z" fill="#575756"/>
<path d="M134 0.257812H129.076H129.057L124.722 8.91914L120.396 0.257812H115.453L122.293 13.9272L120.657 17.2255H125.591L134 0.257812Z" fill="#575756"/>
<path d="M135.57 0.257812L134 3.35045L138.111 5.43403L140.746 0.257812H135.57Z" fill="#575756"/>
<path d="M155.853 7.83503C155.404 6.98477 154.666 6.29328 153.638 5.77939C152.19 5.0506 150.611 4.98523 149.041 4.88245C147.472 4.77967 145.893 4.69559 144.323 4.65822C144.192 4.65822 144.071 4.65822 143.949 4.65822C144.117 3.91074 146.164 3.78922 148.331 3.78922C150.611 3.78922 152.545 3.92009 153.153 4.78904C153.209 4.86379 153.414 5.23751 153.414 5.23751L156.61 2.78016C156.442 2.53723 156.301 2.341 156.152 2.17281C155.33 1.21043 153.984 0.603075 152.788 0.388174C150.321 -0.0416266 145.594 0.173338 145.08 0.220055C144.314 0.294803 143.65 0.462936 143.052 0.752584C141.641 1.43466 140.642 2.6493 140.38 4.0041C140.156 5.17204 140.492 6.32139 141.305 7.25574C141.81 7.83503 142.426 8.22743 143.099 8.50773L139.801 11.0585C140.474 12.0209 141.426 12.5161 142.081 12.8525C143.697 13.6934 145.631 13.7495 147.182 13.7962C147.425 13.7962 147.668 13.8054 147.902 13.8241C148.369 13.8428 148.808 13.8522 149.219 13.8522C153.928 13.8522 155.283 12.5347 155.89 11.4976C156.264 10.8622 156.75 9.55422 155.853 7.82568V7.83503ZM148.528 9.95591C146.042 9.95591 143.968 9.7971 143.575 8.70391L143.482 8.45162C144.585 8.6852 145.687 8.73193 146.808 8.80667C148.303 8.90011 149.808 8.99355 151.303 9.04961C151.732 9.0683 152.172 9.07768 152.601 9.08702C152.433 9.8345 150.677 9.95591 148.518 9.95591H148.528Z" fill="#575756"/>
<path d="M78.3029 19.0547C59.7374 19.0547 40.0039 22.5117 40.0039 28.9214C40.0039 35.331 59.7374 38.7881 78.3029 38.7881C96.8684 38.7881 116.602 35.331 116.602 28.9214C116.602 22.5117 96.8684 19.0547 78.3029 19.0547ZM78.3029 36.9848C56.7942 36.9848 41.8073 32.7335 41.8073 28.912C41.8073 25.0905 56.7942 20.8392 78.3029 20.8392C99.8116 20.8392 114.799 25.0905 114.799 28.912C114.799 32.7335 99.8116 36.9848 78.3029 36.9848Z" fill="#575756"/>
<path d="M56.8392 27.5665C57.3157 27.2862 58.0257 27.146 58.9881 27.146C59.6422 27.146 60.2776 27.2207 60.9036 27.3702C61.5296 27.5197 61.9874 27.7533 62.2864 28.0616C63.5011 27.7159 64.5569 27.4637 65.4632 27.2955C64.3887 26.0996 62.2678 25.4922 59.091 25.4922C56.8205 25.4922 55.1481 25.7819 54.0736 26.3518C52.999 26.9218 52.457 27.7066 52.457 28.6971C52.457 29.6875 52.999 30.435 54.0736 30.9676C55.1481 31.5002 56.8205 31.7618 59.091 31.7618C60.4738 31.7618 61.7539 31.6309 62.9312 31.3693C64.1084 31.0983 64.94 30.6405 65.4445 29.9678C64.1645 29.6594 63.1086 29.3885 62.2864 29.1455C62.0528 29.4819 61.6977 29.7155 61.2025 29.8743C60.7073 30.0238 60.0534 30.1079 59.2125 30.1079C58.166 30.1079 57.3904 29.9678 56.8858 29.6875C56.3813 29.4072 56.1291 29.0521 56.1291 28.6036C56.1291 28.1925 56.3627 27.8468 56.8392 27.5759V27.5665Z" fill="#575756"/>
<path d="M70.3399 25.6562H66.668C66.7521 26.7308 66.7894 27.7305 66.7894 28.6648C66.7894 29.5992 66.7521 30.5989 66.668 31.6734H77.2822C77.2822 31.2997 77.2914 30.9914 77.3288 30.7298C77.3568 30.4682 77.4409 30.1972 77.5718 29.9169C75.6657 29.9637 73.2551 29.9917 70.3399 30.001V25.6562Z" fill="#575756"/>
<path d="M86.9368 28.7972C86.9368 29.0588 86.8994 29.2738 86.8247 29.4326C86.7499 29.6008 86.507 29.7503 86.1052 29.8811C85.7035 30.0119 85.0682 30.0866 84.2086 30.0866C83.4144 30.0866 82.835 30.0212 82.4799 29.8904C82.1249 29.7596 81.9101 29.6194 81.8447 29.4605C81.7792 29.311 81.7419 29.1148 81.7419 28.8719V25.6484H78.0045V29.0027C77.9858 29.8249 78.4156 30.4883 79.2845 30.9929C80.1535 31.4974 81.7792 31.7498 84.1431 31.7498C86.507 31.7498 88.1421 31.4882 89.1325 30.9556C90.1229 30.423 90.6275 29.7503 90.6462 28.9467V25.6484H86.9088V28.7972H86.9368Z" fill="#575756"/>
<path d="M100.69 28.6898C101.728 28.531 102.456 28.3161 102.877 28.0545C103.307 27.7929 103.512 27.4938 103.512 27.1575C103.512 26.8211 103.363 26.5501 103.064 26.3352C102.765 26.1203 102.26 25.9521 101.541 25.84C100.821 25.7279 99.8402 25.6719 98.5975 25.6719H95.3928H91.8516C91.9357 26.7464 91.973 27.7461 91.973 28.6805C91.973 29.6148 91.9357 30.6145 91.8516 31.689H98.6256C100.046 31.689 101.167 31.6143 101.971 31.4742C102.774 31.3247 103.325 31.1192 103.643 30.8576C103.951 30.5959 104.11 30.2782 104.11 29.8952C104.11 29.0916 102.97 28.6898 100.681 28.6898H100.69ZM95.4115 27.1855H98.308C98.9059 27.1855 99.3357 27.2135 99.5974 27.2602C99.859 27.3069 99.9804 27.4004 99.9804 27.5312C99.9804 27.6901 99.859 27.8022 99.6067 27.8676C99.3544 27.933 98.9246 27.961 98.2986 27.961H95.4021V27.1949L95.4115 27.1855ZM100.093 29.9979C99.9711 30.0633 99.7749 30.1007 99.4946 30.1287C99.2143 30.1568 98.8218 30.166 98.2986 30.166H95.4021V29.3252H98.2986C99.0367 29.3252 99.5506 29.3532 99.8403 29.4186C100.13 29.484 100.27 29.5868 100.27 29.7269C100.27 29.839 100.205 29.9232 100.093 29.9886V29.9979Z" fill="#575756"/>
</svg>
