<svg width="177" height="64" viewBox="0 0 177 64" fill="none" xmlns="http://www.w3.org/2000/svg">
<path d="M98.5264 63.951C92.5466 63.951 86.8564 63.0821 81.568 61.3816C79.5872 60.7369 76.971 60.1762 74.2053 59.5876C70.0101 58.6906 65.6747 57.7655 62.7688 56.392C58.6671 54.4579 54.2102 52.2809 49.1367 49.7582L49.5572 48.908C54.6307 51.4308 59.0782 53.5984 63.1707 55.5325C65.9737 56.8593 70.253 57.7656 74.3922 58.6532C77.1859 59.2512 79.8114 59.8119 81.8483 60.4659C87.034 62.1384 92.6307 62.9886 98.5077 62.9886H98.6572C104.357 62.9699 110.449 62.1571 116.784 60.55C119.381 59.8959 122.334 59.1484 124.987 57.9805C126.557 57.2891 128.052 56.4107 129.5 55.5698C130.547 54.9531 131.621 54.3272 132.733 53.7666C133.275 53.3928 142.478 46.9271 144.637 41.5733L144.674 41.4986C144.767 41.3304 147.085 37.294 142.721 34.2293C142.665 34.1826 139.741 31.8187 133.527 28.9689L133.92 28.1094C140.254 31.0152 143.17 33.3791 143.291 33.4725C148.122 36.8642 145.758 41.4799 145.506 41.9377C143.16 47.6933 133.658 54.2711 133.256 54.5514L133.2 54.5888C132.116 55.1401 131.032 55.7754 129.986 56.392C128.51 57.2516 126.996 58.1486 125.38 58.8587C122.651 60.0641 119.671 60.8116 117.027 61.4843C110.608 63.1101 104.432 63.9323 98.6666 63.951H98.5171H98.5264Z" fill="#575756"/>
<path d="M103.273 62.2833C79.3066 62.2833 51.407 49.6043 47.4453 47.7449L47.6508 47.315C52.8365 49.7443 99.0307 70.7298 123.501 57.4527C123.651 57.378 137.629 50.6133 138.853 42.4003C139.283 39.5039 138.068 36.7382 135.255 34.1688C135.218 34.1314 132.499 31.3938 126.893 28.5533L127.108 28.1328C132.789 31.0106 135.554 33.8044 135.583 33.8324C138.516 36.5047 139.768 39.4198 139.32 42.4752C138.068 50.9404 124.305 57.6023 123.716 57.8732C117.849 61.0594 110.757 62.2833 103.282 62.2833H103.273Z" fill="#575756"/>
<path d="M98.9204 60.451C76.4212 60.451 50.2968 48.5847 46.5781 46.8375L46.7837 46.4077C48.1385 47.0431 60.4065 52.7053 75.001 56.4707C93.8188 61.32 108.273 61.1144 117.981 55.854C118.121 55.7793 130.903 49.5752 132.034 41.9789C132.435 39.2787 131.296 36.6812 128.651 34.2612C128.595 34.2145 124.176 30.0193 116.43 26.9079L116.608 26.4688C124.456 29.6175 128.941 33.8781 128.978 33.9155C131.744 36.4382 132.931 39.1758 132.51 42.0536C131.352 49.9022 118.738 56.0221 118.205 56.2744C112.665 59.2737 105.975 60.4417 98.9297 60.4417L98.9204 60.451Z" fill="#575756"/>
<path d="M90.3705 56.7778C69.9923 56.7778 45.3255 45.3134 45.0078 45.1639L45.2133 44.7341C45.6151 44.9303 86.1285 63.7388 105.946 52.9938C106.058 52.9377 116.065 48.023 116.962 41.8844C117.298 39.6139 116.317 37.4274 114.084 35.3812C114.019 35.3158 108.581 29.9994 97.8359 27.514L97.9387 27.0469C108.833 29.5696 114.355 34.9701 114.411 35.0261C116.766 37.1751 117.784 39.5017 117.429 41.9404C116.495 48.3313 106.581 53.1993 106.161 53.4048C101.704 55.8248 96.2102 56.7685 90.3611 56.7685L90.3705 56.7778Z" fill="#575756"/>
<path d="M82.532 54.0725C66.4238 54.0725 47.4846 46.0932 44.7656 44.9066L44.9618 44.4675C48.531 46.0185 80.2896 59.3984 96.3884 50.6622C96.4725 50.6155 104.517 46.6165 105.246 41.5243C105.526 39.5621 104.676 37.6653 102.723 35.8714C102.667 35.8153 98.1637 31.4052 89.2406 29.2562L89.3528 28.7891C98.4066 30.9754 103.004 35.4883 103.05 35.5257C105.125 37.4131 106.022 39.4593 105.723 41.5803C104.956 46.9247 96.9584 50.8957 96.6127 51.0639C92.6417 53.2129 87.7364 54.0446 82.5414 54.0446L82.532 54.0725Z" fill="#575756"/>
<path d="M73.7285 51.1358C61.1334 51.1358 46.4454 45.3522 44.3151 44.4833L44.4926 44.0442C47.3144 45.1934 72.4951 55.0882 85.0154 48.3048C85.0808 48.2675 90.5935 45.455 91.1167 41.7176C91.3316 40.1479 90.6308 38.6156 89.0331 37.158C88.9584 37.0833 81.9227 30.2625 67.9635 31.1688C67.7766 31.1968 47.5106 34.439 39.8863 37.8588L39.8302 37.8775L37.7653 38.2979L37.6719 37.8307L39.7088 37.4196C47.4171 33.9812 67.7019 30.7296 67.9168 30.7016C82.1282 29.7766 89.2947 36.7563 89.3601 36.831C91.07 38.3914 91.8268 40.0731 91.5839 41.8017C91.0326 45.782 85.4732 48.6318 85.2396 48.7533C82.0255 50.5005 77.9984 51.1639 73.7285 51.1639V51.1358Z" fill="#575756"/>
<path d="M146.663 42.9793C145.617 42.9793 144.664 42.7925 143.804 42.4374C142.945 42.073 142.206 41.5591 141.599 40.9051C140.992 40.251 140.515 39.4568 140.188 38.5318C139.852 37.6161 139.684 36.5977 139.684 35.5139C139.684 34.43 139.861 33.4116 140.198 32.4959C140.543 31.5803 141.038 30.786 141.664 30.1226C142.3 29.4686 143.057 28.9455 143.935 28.5811C144.813 28.2167 145.785 28.0391 146.841 28.0391C147.897 28.0391 148.803 28.2073 149.597 28.5436C150.391 28.88 151.101 29.3378 151.699 29.9078L151.849 30.0479L151.092 31.0944C151.045 31.1692 150.971 31.2532 150.877 31.3093C150.774 31.384 150.644 31.4121 150.494 31.4121C150.316 31.4121 150.13 31.3373 149.915 31.1785C149.747 31.057 149.532 30.9169 149.261 30.7674C149.008 30.6179 148.672 30.487 148.27 30.3562C147.878 30.2348 147.383 30.1694 146.813 30.1694C146.121 30.1694 145.467 30.2909 144.897 30.5338C144.327 30.7674 143.823 31.1225 143.412 31.5803C143.001 32.0381 142.664 32.5988 142.44 33.2528C142.206 33.9069 142.085 34.6729 142.085 35.5139C142.085 36.3548 142.206 37.1397 142.449 37.7937C142.683 38.4478 143.019 39.0177 143.44 39.4661C143.851 39.9146 144.346 40.2604 144.907 40.5034C145.467 40.7463 146.093 40.8677 146.747 40.8677C147.158 40.8677 147.532 40.8397 147.85 40.793C148.177 40.7462 148.476 40.6715 148.747 40.5781C149.018 40.4846 149.27 40.3538 149.504 40.2043C149.737 40.0548 149.98 39.8586 150.204 39.6531C150.363 39.5129 150.531 39.4382 150.709 39.4382C150.886 39.4382 151.036 39.5129 151.157 39.6437L152.064 40.6155L151.924 40.7743C151.326 41.4657 150.587 42.0169 149.728 42.4094C148.878 42.7924 147.831 42.998 146.626 42.998" fill="#575756"/>
<path d="M49.9197 50.0109C49.5086 50.0109 48.4061 49.4784 44.3323 47.4976C40.8939 45.8344 37.5676 44.1713 35.456 43.0687L35.3999 43.0313C33.7181 41.826 31.6906 40.0414 31.6532 38.3876C31.6345 37.7336 31.9242 37.1636 32.4941 36.7151C33.335 36.0517 34.4282 35.8462 35.5588 36.1358C38.3244 36.8366 40.5296 39.2379 42.3796 41.4243C43.6783 42.9566 45.4535 44.6477 47.1727 46.2735C48.2566 47.3106 49.2844 48.2824 50.172 49.2074L50.4523 49.497L50.2187 49.8241C50.144 49.9269 50.0879 50.0015 49.9291 50.0015L49.9197 50.0109ZM35.9232 42.2465C39.2495 43.9844 44.5472 46.5725 47.5932 48.0207C47.2381 47.675 46.8738 47.3387 46.5094 46.9836C44.7715 45.3298 42.9775 43.6199 41.6507 42.0502C39.8942 39.9666 37.8199 37.7055 35.3252 37.0702C34.7272 36.9207 33.849 36.8646 33.0921 37.4719C32.7558 37.7335 32.5969 38.0232 32.6062 38.3783C32.6343 39.322 33.8676 40.7702 35.9325 42.2465H35.9232Z" fill="#575756"/>
<path d="M13.2795 42.321V31.7628L8.91606 39.7141C8.71985 40.0785 8.41148 40.2841 8.00971 40.2841H7.72942C7.33699 40.2841 7.01934 40.0785 6.82313 39.7141L2.37561 31.7348V42.3303H0.226562V27.6797H1.88038C2.08594 27.6797 2.23544 27.6984 2.35691 27.7452C2.5064 27.8012 2.6372 27.9226 2.74932 28.1282L7.63601 36.8457C7.71075 37.0139 7.79485 37.1728 7.86959 37.3409C7.94434 37.1634 8.01909 36.9952 8.10318 36.8364L12.9057 28.1282C13.0085 27.9226 13.1393 27.7919 13.2982 27.7452C13.4196 27.6984 13.5784 27.6797 13.784 27.6797H15.4378V42.3116H13.2795V42.321Z" fill="#575756"/>
<path d="M15.2019 27.9125V42.0679H13.5294V31.6592C13.5294 31.5191 13.5294 31.3696 13.5481 31.2108C13.5481 31.0519 13.5668 30.8931 13.5855 30.7249L8.72685 39.5825C8.57736 39.8815 8.34378 40.0311 8.03544 40.0311H7.75515C7.44681 40.0311 7.21318 39.8815 7.06368 39.5825L2.10229 30.6968C2.13966 31.0519 2.1677 31.3696 2.1677 31.6592V42.0679H0.48588V27.9125H1.89676C2.06494 27.9125 2.19573 27.9312 2.28917 27.9686C2.37326 28.006 2.47607 28.09 2.55081 28.2488L7.43744 36.9664C7.51219 37.1252 7.59627 37.2934 7.66168 37.4616C7.73643 37.6392 7.81116 37.8166 7.87656 37.9848C7.95131 37.8073 8.00741 37.6298 8.0915 37.4616C8.16625 37.2841 8.241 37.1159 8.32509 36.957L13.1277 28.2488C13.2024 28.0993 13.2958 28.006 13.3892 27.9686C13.4827 27.9312 13.6135 27.9125 13.791 27.9125H15.2019ZM15.6691 27.4453H13.7817C13.5574 27.4453 13.3799 27.4734 13.2304 27.5201C13.0155 27.5949 12.838 27.763 12.7072 28.0246L7.90462 36.7235L7.86727 36.7888L7.84856 36.7515L2.96193 28.0153C2.81243 27.763 2.6442 27.5949 2.44799 27.5201C2.2985 27.4641 2.11165 27.4453 1.8874 27.4453H0V42.5538H2.63487V32.6404L6.64327 39.8254C6.85817 40.2646 7.25993 40.5169 7.7458 40.5169H8.02609C8.51195 40.5169 8.90438 40.2739 9.13797 39.8161L13.0529 32.687V42.5538H15.6878V27.4453H15.6691Z" fill="#575756"/>
<path d="M54.6328 42.323V31.2789L57.0154 30.5781V40.23H63.1354V42.323H54.6328Z" fill="#575756"/>
<path d="M62.901 39.999H57.2482V30.4219C57.1454 30.6181 56.9679 30.7863 56.7717 30.8797V40.4755H62.901V42.0919H54.875V31.4496H54.3984V42.5684H63.3869V40.0083H62.901V39.999Z" fill="#575756"/>
<path d="M74.8984 42.3239V30.4297H77.2717V40.231H83.401V42.3239H74.8984Z" fill="#575756"/>
<path d="M83.1588 39.9956H77.506V30.4279C77.207 30.4559 76.8893 30.1196 76.8146 30.4279L77.0295 30.6521V40.4534H83.1588V42.0699H75.1328V30.6521H75.3944C75.3103 30.2971 75.002 30.7081 74.6562 30.5867V42.537H83.6447V39.9769H83.1588V39.9956Z" fill="#575756"/>
<path d="M100.854 42.4935C99.9566 42.4935 99.1344 42.344 98.415 42.0357C97.6862 41.7367 97.0602 41.3163 96.5556 40.7837C96.0511 40.2604 95.6493 39.6157 95.3783 38.8869C95.1074 38.1675 94.9766 37.3734 94.9766 36.5325V28.2354L97.3685 27.6094L97.3498 36.5138C97.3498 37.0744 97.4245 37.5975 97.5834 38.0647C97.7422 38.5319 97.9665 38.9243 98.2655 39.2607C98.5645 39.5877 98.9289 39.8494 99.3587 40.0363C99.7885 40.2231 100.293 40.3165 100.844 40.3165C101.396 40.3165 101.891 40.2231 102.321 40.0363C102.75 39.8494 103.115 39.5971 103.404 39.2607C103.694 38.9243 103.928 38.5319 104.086 38.0647C104.245 37.5975 104.32 37.0744 104.32 36.5138V27.6654H106.703V36.5138C106.703 37.3547 106.562 38.1489 106.301 38.8683C106.03 39.5971 105.637 40.2324 105.133 40.765C104.628 41.2976 104.002 41.7181 103.283 42.0171C102.563 42.3161 101.741 42.4749 100.844 42.4749" fill="#575756"/>
<path d="M97.1161 27.621V36.5254C97.1161 37.1234 97.2002 37.6653 97.3684 38.1605C97.5366 38.6557 97.7795 39.0855 98.0972 39.4312C98.4149 39.7769 98.8073 40.0666 99.2745 40.2628C99.7416 40.459 100.265 40.5617 100.854 40.5617C101.442 40.5617 101.956 40.4684 102.423 40.2628C102.89 40.0572 103.273 39.7863 103.591 39.4312C103.909 39.0762 104.152 38.6464 104.32 38.1605C104.488 37.6747 104.572 37.1234 104.572 36.5254V27.92H106.478V36.5254C106.478 37.3383 106.348 38.095 106.086 38.7958C105.824 39.4966 105.451 40.0946 104.974 40.6085C104.488 41.1131 103.89 41.5241 103.199 41.8137C102.498 42.1034 101.713 42.253 100.844 42.253C99.9752 42.253 99.1904 42.1127 98.4897 41.8137C97.7889 41.5241 97.2002 41.1224 96.705 40.6085C96.2098 40.104 95.8455 39.4966 95.5838 38.7958C95.3222 38.095 95.1914 37.3383 95.1914 36.5254V28.3965L97.0975 27.6117M97.574 27.3781L96.92 27.6491L95.0138 27.9574L94.7148 28.0788V36.5254C94.7148 37.3943 94.855 38.2166 95.1353 38.964C95.4156 39.7209 95.8267 40.3842 96.3593 40.9355C96.8825 41.4868 97.5459 41.9353 98.3028 42.2436C99.0596 42.5613 99.9099 42.7201 100.835 42.7201C101.76 42.7201 102.619 42.5613 103.367 42.2436C104.114 41.9259 104.768 41.4868 105.31 40.9262C105.834 40.3749 106.245 39.7022 106.534 38.9547C106.815 38.2072 106.955 37.385 106.955 36.516V27.4341H104.096V36.516C104.096 37.0486 104.021 37.5531 103.872 37.9923C103.722 38.4221 103.507 38.7959 103.236 39.0949C102.965 39.4032 102.629 39.6275 102.227 39.805C101.835 39.9825 101.367 40.0572 100.844 40.0572C100.321 40.0572 99.8631 39.9732 99.4614 39.7956C99.0689 39.6181 98.7232 39.3845 98.4522 39.0762C98.1813 38.7678 97.957 38.4034 97.8169 37.9736C97.6674 37.5251 97.5927 37.0393 97.5927 36.4973V27.3594L97.574 27.3781Z" fill="#575756"/>
<path d="M123.314 42.4808C122.37 42.4808 121.492 42.3033 120.707 41.9669C119.931 41.6212 119.259 41.154 118.707 40.5654L118.586 40.4346L119.24 39.3694C119.315 39.2573 119.408 39.1732 119.502 39.1171C119.614 39.0423 119.745 39.005 119.875 39.005C120.006 39.005 120.146 39.0517 120.296 39.1452C120.408 39.2199 120.539 39.3134 120.679 39.4162C120.81 39.5189 120.969 39.631 121.146 39.7619C121.314 39.874 121.51 39.9861 121.716 40.0889C121.931 40.1823 122.174 40.2757 122.445 40.3318C122.716 40.3879 123.024 40.4252 123.37 40.4252C123.8 40.4252 124.173 40.3599 124.51 40.2477C124.837 40.1356 125.108 39.9674 125.332 39.7619C125.547 39.5563 125.724 39.3133 125.836 39.033C125.958 38.7434 126.014 38.4163 126.014 38.0706C126.014 37.6969 125.939 37.3886 125.771 37.155C125.594 36.9121 125.369 36.6971 125.08 36.5383C124.781 36.3608 124.426 36.2113 124.043 36.0898C123.631 35.959 123.22 35.8283 122.8 35.6975C122.389 35.5666 121.959 35.4078 121.538 35.2116C121.109 35.0247 120.726 34.7817 120.389 34.4828C120.044 34.1838 119.773 33.8007 119.567 33.3429C119.361 32.885 119.249 32.3244 119.249 31.6704C119.249 31.1471 119.352 30.6239 119.558 30.1287C119.763 29.6335 120.062 29.1944 120.464 28.802C120.866 28.4095 121.352 28.1105 121.912 27.877C122.482 27.6527 123.136 27.5312 123.865 27.5312C124.678 27.5312 125.435 27.662 126.107 27.9236C126.78 28.1852 127.378 28.5683 127.901 29.0635L128.032 29.185L127.49 30.2501C127.406 30.3903 127.322 30.4838 127.229 30.5585C127.117 30.6333 126.986 30.68 126.836 30.68C126.668 30.68 126.49 30.6052 126.304 30.465C126.163 30.3622 125.977 30.2409 125.762 30.1007C125.547 29.9792 125.285 29.8578 124.977 29.7457C124.687 29.6429 124.323 29.5868 123.893 29.5868C123.463 29.5868 123.136 29.6429 122.837 29.7457C122.538 29.8484 122.295 29.9885 122.099 30.1661C121.903 30.3436 121.753 30.5398 121.66 30.7828C121.566 31.0257 121.51 31.2779 121.51 31.5582C121.51 31.9039 121.585 32.1843 121.753 32.3992C121.931 32.6328 122.164 32.8383 122.454 33.0065C122.762 33.1841 123.108 33.3429 123.501 33.4643C123.902 33.5952 124.323 33.7353 124.743 33.8848C125.164 34.0249 125.594 34.1931 126.005 34.3893C126.425 34.5762 126.808 34.8192 127.145 35.1088C127.49 35.4078 127.771 35.7721 127.967 36.2019C128.182 36.6317 128.284 37.1644 128.284 37.7904C128.284 38.4164 128.172 39.0517 127.948 39.6217C127.724 40.1916 127.397 40.7055 126.976 41.126C126.547 41.5464 126.023 41.8922 125.407 42.1258C124.79 42.3594 124.089 42.4901 123.314 42.4901" fill="#575756"/>
<path d="M123.865 27.7704C124.659 27.7704 125.379 27.8918 126.023 28.1441C126.677 28.387 127.247 28.7608 127.733 29.228L127.266 30.1436C127.201 30.237 127.144 30.3211 127.07 30.3585C126.995 30.4146 126.92 30.4333 126.817 30.4333C126.705 30.4333 126.575 30.3772 126.425 30.2651C126.276 30.153 126.079 30.0315 125.855 29.9007C125.631 29.7699 125.351 29.639 125.042 29.5363C124.734 29.4335 124.332 29.3681 123.884 29.3681C123.435 29.3681 123.08 29.4335 122.753 29.5456C122.426 29.6577 122.155 29.8166 121.94 30.0128C121.725 30.209 121.557 30.4426 121.436 30.7042C121.314 30.9658 121.267 31.2555 121.267 31.5732C121.267 31.9656 121.361 32.2927 121.557 32.5543C121.753 32.8159 122.006 33.0401 122.333 33.2177C122.65 33.4045 123.015 33.5634 123.416 33.7035C123.818 33.8343 124.229 33.9744 124.659 34.1239C125.08 34.2641 125.5 34.4323 125.902 34.6192C126.304 34.806 126.668 35.0303 126.986 35.3012C127.303 35.5815 127.565 35.9179 127.761 36.3196C127.957 36.7214 128.051 37.2167 128.051 37.8053C128.051 38.4314 127.948 39.0106 127.733 39.5526C127.518 40.0945 127.219 40.571 126.808 40.9728C126.406 41.3746 125.902 41.6921 125.313 41.9164C124.724 42.1406 124.052 42.2621 123.304 42.2621C122.379 42.2621 121.548 42.094 120.791 41.7576C120.034 41.4213 119.399 40.9727 118.857 40.4027L119.408 39.4871C119.464 39.4124 119.52 39.3563 119.604 39.3003C119.679 39.2442 119.763 39.2255 119.857 39.2255C119.941 39.2255 120.043 39.2629 120.146 39.3283C120.249 39.4031 120.37 39.4871 120.511 39.5899C120.651 39.6926 120.81 39.8048 120.987 39.9356C121.165 40.0664 121.361 40.1692 121.594 40.2906C121.819 40.3934 122.08 40.4869 122.37 40.5523C122.66 40.627 122.987 40.655 123.351 40.655C123.809 40.655 124.211 40.5897 124.566 40.4682C124.921 40.3468 125.22 40.1692 125.472 39.9449C125.724 39.7207 125.911 39.4404 126.042 39.132C126.173 38.8237 126.247 38.4686 126.247 38.0669C126.247 37.6371 126.154 37.282 125.958 37.0111C125.762 36.7401 125.509 36.5065 125.192 36.329C124.874 36.1515 124.519 35.9833 124.108 35.8525C123.697 35.7217 123.286 35.5909 122.865 35.4601C122.445 35.3293 122.034 35.1705 121.623 34.9929C121.211 34.8154 120.847 34.5818 120.539 34.3015C120.23 34.0212 119.969 33.6568 119.772 33.2364C119.576 32.8066 119.483 32.2926 119.483 31.6572C119.483 31.1527 119.576 30.6762 119.772 30.2091C119.969 29.7419 120.249 29.3214 120.623 28.9663C120.987 28.6019 121.454 28.3123 121.996 28.0974C122.538 27.8825 123.164 27.7704 123.865 27.7704ZM123.874 27.3125C123.108 27.3125 122.426 27.434 121.828 27.6769C121.23 27.9105 120.716 28.2376 120.305 28.6487C119.885 29.0504 119.567 29.527 119.352 30.0502C119.137 30.5734 119.025 31.1247 119.025 31.6853C119.025 32.3767 119.137 32.9747 119.361 33.4606C119.586 33.9465 119.875 34.3575 120.24 34.6845C120.595 35.0022 121.006 35.2639 121.454 35.4601C121.884 35.647 122.314 35.8152 122.744 35.946C123.164 36.0768 123.575 36.2075 123.986 36.3383C124.351 36.4505 124.687 36.6 124.977 36.7682C125.229 36.9177 125.444 37.1046 125.593 37.3195C125.724 37.5157 125.799 37.7679 125.799 38.0949C125.799 38.422 125.743 38.7117 125.64 38.9733C125.537 39.2256 125.388 39.4404 125.192 39.6273C124.986 39.8141 124.753 39.9543 124.454 40.057C124.155 40.1598 123.8 40.2159 123.398 40.2159C123.071 40.2159 122.781 40.1879 122.529 40.1319C122.277 40.0665 122.034 39.9917 121.847 39.9076C121.641 39.8235 121.473 39.7113 121.314 39.5992C121.137 39.4778 120.987 39.3656 120.847 39.2629C120.697 39.1507 120.567 39.048 120.445 38.9826C120.258 38.8705 120.081 38.805 119.903 38.805C119.716 38.805 119.539 38.8611 119.399 38.9546C119.277 39.0293 119.174 39.1414 119.081 39.2629V39.2816L119.062 39.3003L118.511 40.2159L118.324 40.5242L118.567 40.7859C119.146 41.4025 119.838 41.8791 120.651 42.2435C121.464 42.6079 122.37 42.7854 123.351 42.7854C124.155 42.7854 124.893 42.6546 125.537 42.4116C126.191 42.1593 126.743 41.8043 127.191 41.3558C127.64 40.9073 127.985 40.3841 128.228 39.7768C128.453 39.1788 128.583 38.5434 128.583 37.8613C128.583 37.1793 128.471 36.6374 128.238 36.1796C128.023 35.7218 127.724 35.3293 127.35 35.0116C126.995 34.7033 126.584 34.451 126.145 34.2454C125.724 34.0492 125.285 33.881 124.865 33.7408C124.444 33.5913 124.024 33.4512 123.622 33.3204C123.248 33.199 122.912 33.0495 122.622 32.8813C122.361 32.7318 122.146 32.5449 121.987 32.3393C121.856 32.1618 121.791 31.9375 121.791 31.6385C121.791 31.3956 121.837 31.162 121.921 30.9565C122.006 30.7509 122.136 30.5828 122.295 30.4333C122.473 30.2745 122.688 30.153 122.949 30.0595C123.22 29.9661 123.557 29.91 123.921 29.91C124.313 29.91 124.659 29.9568 124.921 30.0502C125.21 30.1436 125.453 30.2651 125.659 30.3865C125.874 30.508 126.051 30.6295 126.182 30.7323C126.416 30.9098 126.64 30.9939 126.855 30.9939C127.051 30.9939 127.229 30.9378 127.378 30.835C127.5 30.7509 127.612 30.6201 127.705 30.4706V30.452L127.724 30.4333L128.191 29.5177L128.35 29.1999L128.098 28.957C127.565 28.4431 126.93 28.0414 126.229 27.7704C125.528 27.4995 124.743 27.3686 123.893 27.3686" fill="#575756"/>
<path d="M174.219 42.321C173.994 42.321 173.798 42.2556 173.658 42.1342C173.518 42.022 173.424 41.8818 173.35 41.7136L172.088 38.4434H166.062L164.8 41.7043C164.744 41.8538 164.651 41.994 164.501 42.1155C164.342 42.2463 164.156 42.3116 163.941 42.3116H162.109L167.958 27.6797H170.21L176.059 42.3116H174.219V42.321ZM171.359 36.5841L169.267 31.1462C169.201 30.9874 169.145 30.8004 169.07 30.5949C168.996 30.8098 168.94 30.9873 168.865 31.1648L166.772 36.5841H171.359Z" fill="#575756"/>
<path d="M170.031 27.9156L175.694 42.071H174.208C174.04 42.071 173.9 42.0243 173.797 41.9402C173.694 41.8561 173.61 41.744 173.563 41.6132L172.236 38.1934H165.883L164.556 41.6132C164.509 41.7253 164.444 41.8374 164.332 41.9308C164.22 42.0242 164.08 42.071 163.921 42.071H162.435L168.097 27.9156H170.041M166.425 36.8199H171.704L169.48 31.0643C169.405 30.8961 169.349 30.6999 169.265 30.4663C169.19 30.2421 169.125 29.9992 169.05 29.7376C168.91 30.2702 168.77 30.7093 168.63 31.0737L166.406 36.8199M170.358 27.439H167.78L167.658 27.7381L161.996 41.8935L161.734 42.5475H163.921C164.192 42.5475 164.444 42.4634 164.64 42.3046C164.818 42.1551 164.949 41.9776 165.014 41.7814L166.219 38.6793H171.919L173.124 41.7906C173.208 42.0055 173.339 42.1738 173.498 42.3046C173.694 42.4634 173.928 42.5382 174.217 42.5382H176.404L176.142 41.8842L170.48 27.7287L170.358 27.4297V27.439ZM167.116 36.3341L169.069 31.2886L171.022 36.3341H167.126H167.116Z" fill="#575756"/>
<path d="M151.189 39.4561C151.067 39.3253 150.908 39.2506 150.74 39.2506C150.572 39.2506 150.404 39.3253 150.236 39.4655C150.002 39.6804 149.759 39.8673 149.535 40.0168C149.311 40.1663 149.049 40.2877 148.778 40.3905C148.507 40.4839 148.208 40.5681 147.881 40.6055C147.554 40.6522 147.19 40.6802 146.779 40.6802C146.124 40.6802 145.508 40.5587 144.938 40.3158C144.377 40.0822 143.882 39.7365 143.471 39.2786C143.06 38.8208 142.723 38.2602 142.48 37.6061C142.238 36.9521 142.116 36.1766 142.116 35.3264C142.116 34.4761 142.228 33.7192 142.471 33.0652C142.695 32.4111 143.032 31.8413 143.443 31.3928C143.854 30.9443 144.359 30.5891 144.929 30.3462C145.498 30.1126 146.153 29.9819 146.844 29.9819C147.423 29.9819 147.918 30.0473 148.302 30.1687C148.694 30.2902 149.03 30.4303 149.292 30.5798C149.563 30.7386 149.778 30.8695 149.946 30.991C150.161 31.1498 150.348 31.2246 150.525 31.2246C150.684 31.2246 150.806 31.1872 150.908 31.1218C150.992 31.0564 151.076 30.9817 151.123 30.9069L151.88 29.8604L151.731 29.7203C151.123 29.1503 150.413 28.6925 149.628 28.3561C148.834 28.0198 147.909 27.8516 146.872 27.8516C145.835 27.8516 144.966 28.0198 144.134 28.3468C143.676 28.842 143.247 29.2063 142.593 29.1783C142.275 29.4025 141.967 29.6642 141.696 29.9538C141.06 30.6079 140.574 31.4115 140.229 32.3271C139.883 33.2428 139.715 34.2612 139.715 35.3451C139.715 36.4289 139.883 37.4473 140.219 38.363C140.556 39.2787 141.023 40.0729 141.63 40.7363C142.238 41.3903 142.985 41.9135 143.835 42.2685C144.695 42.6329 145.648 42.8105 146.694 42.8105C147.9 42.8105 148.937 42.6143 149.796 42.2219C150.647 41.8388 151.385 41.2875 151.992 40.5868L152.132 40.4279L151.226 39.4561H151.189Z" fill="#575756"/>
<path d="M152.13 40.1126L151.364 39.2998C151.196 39.1129 150.981 39.0194 150.738 39.0194C150.495 39.0194 150.289 39.1035 150.084 39.281C149.86 39.4959 149.626 39.6734 149.402 39.8136C149.187 39.9537 148.953 40.0752 148.701 40.1686C148.449 40.2621 148.168 40.3369 147.86 40.3836C147.542 40.4303 147.187 40.4583 146.786 40.4583C146.16 40.4583 145.571 40.3462 145.038 40.1126C144.515 39.8977 144.039 39.5613 143.655 39.1409C143.263 38.7111 142.945 38.1785 142.721 37.5432C142.488 36.9078 142.366 36.1697 142.366 35.3475C142.366 34.5252 142.478 33.8057 142.712 33.161C142.927 32.5257 143.244 31.9931 143.637 31.5633C144.02 31.1335 144.496 30.8064 145.029 30.5822C145.571 30.358 146.188 30.2365 146.851 30.2365C147.402 30.2365 147.869 30.302 148.243 30.4141C148.617 30.5262 148.935 30.657 149.177 30.7972C149.43 30.9467 149.645 31.0774 149.803 31.1895C150.056 31.3858 150.299 31.4792 150.523 31.4792C150.729 31.4792 150.897 31.4232 151.037 31.3297C151.149 31.255 151.252 31.1523 151.317 31.0401L151.943 30.1805L152.186 29.8441L151.887 29.5638C151.261 28.9751 150.523 28.4986 149.71 28.1623C148.888 27.8166 147.925 27.6484 146.86 27.6484C146.169 27.6484 145.496 27.7325 144.879 27.8914C144.786 28.1437 144.001 28.2277 144.281 28.5641C145.076 28.2744 145.926 28.1156 146.86 28.1156C147.869 28.1156 148.757 28.2744 149.533 28.6014C150.308 28.9284 150.981 29.3676 151.569 29.9188L150.934 30.7972C150.897 30.8626 150.85 30.9186 150.785 30.9653C150.719 31.012 150.635 31.0308 150.532 31.0308C150.42 31.0308 150.271 30.9653 150.093 30.8345C149.916 30.7037 149.701 30.5636 149.42 30.4047C149.14 30.2459 148.794 30.1058 148.383 29.975C147.972 29.8442 147.458 29.7787 146.851 29.7787C146.122 29.7787 145.449 29.9095 144.842 30.1524C144.235 30.4047 143.712 30.7785 143.282 31.255C142.843 31.7409 142.497 32.3202 142.254 33.0116C142.011 33.703 141.89 34.4879 141.89 35.3568C141.89 36.2258 142.011 37.0199 142.263 37.7206C142.516 38.4121 142.861 38.9914 143.3 39.4772C143.74 39.9631 144.253 40.3182 144.851 40.5611C145.449 40.8134 146.085 40.9349 146.786 40.9349C147.206 40.9349 147.58 40.9068 147.925 40.86C148.271 40.804 148.579 40.7292 148.86 40.6358C149.149 40.533 149.411 40.4023 149.654 40.2341C149.897 40.0753 150.149 39.8791 150.392 39.6548C150.504 39.5614 150.607 39.5053 150.728 39.5053C150.831 39.5053 150.934 39.552 151.009 39.6361L151.775 40.449C151.196 41.1217 150.495 41.645 149.673 42.0187C148.85 42.3925 147.851 42.5793 146.673 42.5793C145.655 42.5793 144.73 42.4017 143.908 42.056C143.076 41.701 142.375 41.2152 141.787 40.5705C141.198 39.9351 140.74 39.1783 140.423 38.2813C140.096 37.3937 139.937 36.4126 139.937 35.3475C139.937 34.2823 140.105 33.3012 140.441 32.4136C140.778 31.526 141.245 30.7597 141.862 30.1244C142.067 29.9095 142.282 29.7226 142.516 29.5451H141.796C141.712 29.6292 141.609 29.7133 141.535 29.7974C140.88 30.4794 140.376 31.311 140.021 32.2454C139.666 33.1797 139.488 34.2263 139.488 35.3475C139.488 36.4687 139.666 37.5058 139.993 38.4495C140.339 39.3932 140.824 40.2154 141.45 40.8975C142.086 41.5795 142.843 42.1214 143.74 42.4952C144.627 42.8689 145.618 43.0652 146.692 43.0652C147.925 43.0652 149 42.8596 149.888 42.4579C150.775 42.0561 151.541 41.4861 152.158 40.7666L152.438 40.4396L152.149 40.1313V40.1033L152.13 40.1126Z" fill="#575756"/>
<path d="M111.925 7.7218C113.504 7.75917 116.662 8.9738 116.7 8.98314L116.774 9.0112H116.849C119.96 9.20742 121.25 10.6557 121.259 10.665V10.6837C122.063 11.5246 121.932 12.9728 121.81 14.3744C121.736 15.2713 121.652 16.1964 121.81 16.9906L121.838 17.0934C121.885 17.3083 121.923 17.5045 121.904 17.6633C121.904 17.7194 121.857 17.7941 121.82 17.8782C121.782 17.9623 121.736 18.0651 121.698 18.1772C120.465 22.1482 116.578 23.7832 116.531 23.8019L116.466 23.83L116.41 23.8767C114.887 25.1101 112.644 25.5492 110.673 25.8576C109.384 26.0631 108.038 26.1939 106.562 26.2686C106.384 26.2686 105.338 26.2033 104.03 26.2033C101.442 26.2033 99.5823 26.3901 98.4984 26.7451L97.3866 27.1096C96.7699 27.3151 96.1065 27.5487 95.3964 27.8103C94.4714 27.9692 79.8675 30.4078 70.9164 30.4078C69.5336 30.4078 68.3376 30.3424 67.3659 30.2302H67.2911L66.7212 30.249C66.5063 30.2303 65.0581 30.1276 63.1613 30.0995C69.3561 28.2682 74.9995 25.1007 75.3919 24.8671C75.775 24.6896 81.5586 22.1295 84.7915 21.6717C85.1839 21.625 94.462 20.6252 96.9754 20.2234C97.4893 20.1767 104.422 19.5787 106.702 17.0653L106.721 17.0466L106.739 17.0279C107.235 16.3738 108.73 14.5799 109.767 14.2716L109.832 14.2529L109.888 14.2156C110.234 14.01 111.925 12.9635 112.289 12.1506C112.943 11.0294 112.981 9.95492 112.411 8.57209C112.28 8.25441 112.131 7.95545 111.962 7.67515M111.86 7.22656C111.542 7.22656 111.29 7.27332 111.131 7.38544C111.458 7.79656 111.729 8.26371 111.925 8.76826C112.392 9.90817 112.458 10.8612 111.822 11.9544C111.523 12.6645 109.589 13.8231 109.589 13.8231C108.169 14.2342 106.31 16.7476 106.31 16.7476C104.095 19.1956 96.8726 19.7469 96.8726 19.7469C94.3779 20.1486 84.6981 21.1952 84.6981 21.1952C81.2503 21.6904 75.1397 24.4467 75.1397 24.4467C75.1397 24.4467 67.4313 28.8755 59.9565 30.4078L58.8633 30.6788C60.0219 30.6041 61.1992 30.576 62.255 30.576C64.7403 30.576 66.6651 30.7348 66.6651 30.7348L67.2631 30.7161C68.3002 30.8376 69.5242 30.8937 70.8697 30.8937C80.372 30.9498 95.4804 28.2868 95.4804 28.2868C96.2466 27.9972 96.91 27.7636 97.4987 27.5767L98.6012 27.2123C99.8719 26.7825 102.18 26.6985 103.983 26.6985C105.413 26.6985 106.515 26.7638 106.515 26.7638C107.917 26.6891 109.318 26.5583 110.71 26.3434C112.691 26.0351 115.046 25.5866 116.681 24.2599C116.681 24.2599 120.792 22.5779 122.119 18.336C122.184 18.1304 122.315 17.9622 122.343 17.7473C122.39 17.467 122.306 17.1868 122.259 16.9065C121.857 14.9724 123.09 11.9545 121.596 10.3661C121.596 10.3661 120.231 8.74959 116.849 8.55338C116.849 8.55338 113.495 7.25462 111.841 7.25462" fill="#575756"/>
<path d="M123.11 11.5714C125.923 12.0199 127.614 13.8139 127.632 13.8326L127.651 13.8513L127.67 13.87L128.408 14.5894L128.595 14.767L128.838 14.8323C133.154 15.9629 137.21 18.9995 140.601 21.8212C141.807 22.821 143.442 24.1852 144.021 25.8577C144.283 26.6145 144.395 27.6516 143.946 28.2776C143.582 28.7822 142.853 29.0439 141.75 29.0439C141.255 29.0439 140.704 28.9877 140.087 28.885H140.041C139.947 28.8663 130.286 27.6703 124.811 26.8948L117.308 25.9792H117.224L115.121 25.9043C115.71 25.6427 116.317 25.3064 117.018 24.8579C117.672 24.5682 121.568 22.6902 122.923 18.3735C122.923 18.3549 122.961 18.2988 122.979 18.2614C123.054 18.1119 123.148 17.897 123.194 17.6354C123.26 17.2243 123.176 16.8505 123.12 16.5608L123.101 16.4674C122.979 15.8881 123.045 15.094 123.129 14.2717C123.204 13.4028 123.288 12.4684 123.157 11.5714M121.867 10.5156H121.793L121.811 10.553C122.783 12.2162 121.783 14.8885 122.157 16.6637C122.213 16.944 122.288 17.2242 122.241 17.5045C122.213 17.7194 122.082 17.8876 122.017 18.0932C120.69 22.3445 116.579 24.017 116.579 24.017C114.897 25.0915 113.897 25.4932 111.907 25.8109C110.524 26.0258 109.515 26.194 108.105 26.2687C108.105 26.2687 105.899 26.4463 104.348 26.4463L103.414 26.4837L106.918 26.6051L117.214 26.9135L124.717 27.8292C130.239 28.6233 139.947 29.81 139.947 29.81C140.639 29.9314 141.237 29.9876 141.769 29.9876C145.563 29.9876 145.497 27.1752 144.937 25.54C144.292 23.6807 142.675 22.2885 141.227 21.0832C137.733 18.1867 133.566 15.0846 129.099 13.9167L128.361 13.1972C128.296 13.1318 125.885 10.525 121.877 10.525" fill="#575756"/>
<path d="M32.0649 28.4469L31.8594 28.017C31.9902 27.9516 32.121 27.8769 32.2424 27.8115C32.3546 27.7461 32.4573 27.6994 32.5227 27.662C32.9899 27.4471 33.4571 27.2509 33.915 27.036C34.8213 26.6249 35.7276 26.2045 36.6245 25.784C39.3809 24.4946 41.8195 23.2893 44.0993 22.1026C46.3137 20.944 48.9113 19.5425 51.3686 17.9168L51.705 17.7019C53.1252 16.7675 54.7322 15.7117 55.5264 14.2821L55.5638 14.2354C55.6573 14.1326 57.9651 11.7126 59.5815 11.4417L59.8618 11.3483C61.0858 10.9091 62.1977 10.47 63.2441 9.99351C64.0383 9.62911 64.627 9.33007 65.1783 9.00304C65.7202 8.67602 66.2434 8.33969 66.5891 7.75105C66.7199 7.53615 66.9535 7.38662 67.1591 7.25581C67.2338 7.2091 67.2899 7.18106 67.3553 7.13434C67.6169 6.94747 67.8785 6.75127 68.1401 6.55505C68.6727 6.13459 69.1773 5.68608 69.6164 5.23759C70.4854 4.34996 71.6066 3.01393 71.2796 1.71518L71.2328 1.57501C71.2141 1.46289 71.1861 1.38813 71.1581 1.33207L71.5879 1.11719C71.6439 1.21997 71.672 1.33209 71.6907 1.47224L71.7374 1.58436C72.1392 3.12604 70.9245 4.59298 69.9621 5.5647C69.5043 6.03188 68.9997 6.48966 68.4485 6.91946C68.1869 7.13436 67.9253 7.32125 67.6543 7.51746C67.5796 7.56418 67.5141 7.61092 67.4394 7.65764C67.2712 7.75107 67.103 7.86317 67.0282 7.98463C66.6265 8.66671 66.0566 9.04981 65.4493 9.40486C64.898 9.74123 64.2813 10.0495 63.4777 10.4139C62.4219 10.8998 61.3007 11.3482 60.0674 11.7874L59.7497 11.8995C58.3295 12.1331 56.2085 14.2915 55.9749 14.5344C55.1153 16.0481 53.4615 17.1412 52.0039 18.0942L51.6676 18.3092C49.1916 19.9537 46.5847 21.3551 44.361 22.5231C42.0812 23.719 39.6331 24.9151 36.8675 26.2138C35.9612 26.6343 35.0642 27.0547 34.1485 27.4658C33.6814 27.6807 33.2142 27.8863 32.747 28.1012C32.6816 28.1292 32.6069 28.176 32.5041 28.232C32.3826 28.3068 32.2425 28.3815 32.093 28.4469H32.0649Z" fill="#575756"/>
<path d="M31.2798 29.8909C30.8967 29.8909 30.6164 29.8161 30.4389 29.6666C30.3081 29.5545 30.2613 29.4144 30.2707 29.3116V29.2369L30.3174 29.1715C30.6911 28.6576 30.9621 28.3212 31.1023 28.1998L31.233 28.0783L31.3826 28.1717H31.4013C31.4573 28.1717 31.5975 28.1717 31.8404 28.0128L32.074 28.424C31.7283 28.6296 31.4853 28.6482 31.3172 28.6389C31.2331 28.7417 31.0649 28.9379 30.7752 29.3303C30.878 29.3677 31.1957 29.4704 32.0927 29.3116L34.3911 29.0313C37.6053 27.5364 39.9412 26.6861 41.3241 26.5085C43.417 26.4244 48.939 25.8545 49.4809 24.3315C49.5557 24.182 50.9945 21.1174 52.1531 20.4727C52.4148 20.2017 54.3862 18.2116 56.7595 17.4641C59.1514 16.7073 61.45 14.9974 61.478 14.988C61.5247 14.96 62.5992 14.3713 63.2719 12.1289C63.8138 10.3162 65.8881 10.1388 67.6447 10.1855H67.6634C68.5323 10.1855 69.9712 8.00849 70.5972 7.08348C70.6906 6.94333 70.7747 6.82185 70.8308 6.71907C72.0735 4.90644 72.6154 3.29935 72.4566 1.81374C72.4566 1.81374 72.4285 1.66422 72.2884 1.56145C72.1015 1.43064 71.7838 1.39329 71.3634 1.47739L71.2793 1.01021C71.8399 0.907432 72.279 0.963448 72.578 1.19704C72.8863 1.42128 72.9237 1.73895 72.9331 1.77633C73.1012 3.37407 72.5407 5.08389 71.2232 6.99931C71.1485 7.09274 71.0737 7.21421 70.9897 7.35437C69.9058 8.98014 68.6818 10.6994 67.6353 10.6714C66.0563 10.6246 64.1876 10.7648 63.7391 12.2784C63.001 14.7451 61.7863 15.3804 61.7396 15.4085C61.6742 15.4645 59.385 17.1558 56.909 17.9313C54.5358 18.6787 52.5082 20.8277 52.4802 20.8464L52.4148 20.8931C51.5739 21.3416 50.3312 23.6775 49.9294 24.5371C49.1912 26.6207 42.1743 26.9664 41.3708 27.0038C40.0627 27.1813 37.6987 28.0503 34.5593 29.5079L34.4846 29.5266L32.1581 29.8068C31.8124 29.8722 31.5134 29.9002 31.2611 29.9002H31.2891L31.2798 29.8909Z" fill="#575756"/>
<path d="M29.6366 34.466C29.5152 34.466 29.3843 34.4474 29.2535 34.41C28.6742 34.2418 28.2631 33.625 28.0949 33.1485C27.8146 32.3543 28.2164 32.0554 28.5061 31.8218C28.5995 31.7471 28.7116 31.6629 28.8238 31.5508L28.8985 31.4761L29.2629 31.3266C29.8609 30.9996 37.8776 26.711 41.3067 26.2531C44.39 26.1223 48.8562 25.4122 49.2673 24.2349C49.4449 23.8612 50.8183 20.9834 52.005 20.2639C52.3507 19.8995 54.3315 17.9561 56.6954 17.2086C59.0499 16.4611 61.3204 14.7886 61.3485 14.7699L61.4232 14.7232C61.4232 14.7232 62.4229 14.1532 63.0583 12.0322C63.7123 9.79915 66.5902 9.89258 67.6647 9.92061C68.1692 9.9393 69.0662 8.93023 70.4023 6.92138C70.4958 6.78123 70.5799 6.65975 70.6453 6.55697C71.8132 4.85646 72.3364 3.35213 72.243 1.97864V1.85717L72.3925 1.52082L72.5233 1.44611C73.1026 1.12843 75.018 0.876114 75.4852 0.820053C83.885 -1.31026 85.2491 1.32467 85.436 1.82922C85.7443 2.46458 85.2865 3.05318 84.8006 3.66051C84.6231 3.87541 84.4362 4.13697 84.24 4.41728L83.9971 4.78169C83.2029 5.96831 82.5769 6.89338 81.493 8.00526C80.4372 9.07976 79.2132 10.0982 77.8491 11.0419C76.0271 12.2939 74.2985 13.2095 72.243 14.0037C70.3836 14.7232 68.4776 15.4707 67.1321 16.8909C66.8985 17.1339 66.6836 17.4048 66.4593 17.6851C66.2818 17.9 66.1043 18.1242 65.9267 18.3391C64.2636 20.2265 62.2454 21.0207 60.1245 21.871C59.7507 22.0205 59.377 22.17 58.9939 22.3288C58.2651 22.6278 57.5083 23.0202 56.6767 23.5248L56.2936 23.7584C55.4901 24.2442 54.7146 24.6927 54.1633 25.4401C53.9484 25.7204 53.7615 26.0195 53.556 26.3372C53.1729 26.9352 52.7711 27.5612 52.2105 28.0751C51.5565 28.6637 50.7716 29.0281 49.9494 29.3832C44.7451 31.6069 40.1107 32.9804 35.3642 33.7186C33.6824 33.9802 32.0005 34.2138 30.3654 34.3913C30.3 34.3913 30.2346 34.41 30.1692 34.4193C30.0197 34.4474 29.8422 34.4753 29.6646 34.4753L29.6366 34.466ZM28.9452 32.6907C28.9452 32.6907 28.9639 32.7655 28.9919 32.8309C29.1041 33.1486 29.347 33.4569 29.5152 33.5036C29.6273 33.541 29.8142 33.5037 30.001 33.4756C30.0758 33.4756 30.1599 33.4476 30.2346 33.4382C31.8604 33.2514 33.5235 33.0365 35.196 32.7749C39.8678 32.0461 44.4274 30.6819 49.557 28.5048C50.3325 28.1685 51.0145 27.8602 51.5564 27.3743C52.033 26.9445 52.3693 26.4026 52.7431 25.8326C52.9486 25.5149 53.1542 25.1879 53.3878 24.8796C54.0512 23.9826 54.9388 23.4594 55.7891 22.9549L56.1721 22.7306C57.0411 22.2074 57.8353 21.7962 58.6108 21.4785C58.9939 21.3197 59.377 21.1702 59.7507 21.0207C61.7689 20.2265 63.675 19.4697 65.1886 17.7598C65.3662 17.5543 65.5343 17.3581 65.6932 17.1432C65.9174 16.8629 66.1604 16.5732 66.4126 16.2929C67.9076 14.7045 69.9071 13.929 71.8412 13.1815C73.8407 12.3966 75.5132 11.5184 77.2698 10.3131C78.5872 9.40676 79.7645 8.42569 80.7736 7.39791C81.792 6.36078 82.362 5.50113 83.1562 4.31451L83.3991 3.9501C83.614 3.64177 83.8196 3.37081 84.0064 3.13722C84.2307 2.83823 84.5857 2.39918 84.5297 2.2964L84.4923 2.21222C84.4923 2.21222 83.5112 -0.18899 75.644 1.81052H75.5786C74.8124 1.9133 73.6726 2.0908 73.1587 2.24964C73.1867 3.76328 72.6074 5.37035 71.3834 7.14562C71.318 7.23905 71.2432 7.36052 71.1498 7.50068C70.0379 9.17316 68.7672 10.9391 67.5899 10.9204C66.095 10.8737 64.329 10.9952 63.9179 12.35C63.2172 14.7046 62.1053 15.452 61.8343 15.6015C61.554 15.8164 59.3209 17.4048 56.929 18.1616C54.6211 18.8904 52.6217 20.9833 52.603 21.0113L52.5469 21.0674L52.4721 21.1049C51.7714 21.4693 50.6408 23.478 50.0896 24.6366C49.3234 26.7856 42.6521 27.1781 41.3347 27.2435C38.0738 27.6733 29.7207 32.1675 29.6366 32.2235L29.5899 32.2516L29.375 32.3356C29.2442 32.4571 29.1321 32.5506 29.0293 32.616C28.9826 32.6534 28.9265 32.6907 28.8985 32.7188V32.7001L28.9452 32.6907Z" fill="#575756"/>
<path d="M64.4531 19.1954L65.1445 18.261C65.2847 18.1209 65.3875 17.9994 65.5089 17.8779C65.6865 17.6723 65.8546 17.4669 66.0228 17.252C66.2471 16.9717 66.4807 16.682 66.7329 16.4204C68.1812 14.8787 70.162 14.1032 72.0867 13.3557C74.1049 12.5708 75.7868 11.6832 77.562 10.4592C78.8981 9.54355 80.0848 8.55312 81.0939 7.51599C82.131 6.46018 82.7103 5.59126 83.5138 4.3953L83.7474 4.04024C83.953 3.74125 84.1585 3.47954 84.3361 3.24595C84.7659 2.69468 84.9995 2.36773 84.878 2.14348L84.8499 2.05942C84.8499 2.05942 84.7752 1.68565 84.1585 1.3306L83.8222 1.14366L84.1399 0.928781C85.2518 0.171958 93.1937 1.36792 94.1 1.50807H94.1374C96.903 1.50807 97.5384 2.592 97.5665 2.63871L97.6038 2.70407V2.77878C97.5758 3.07777 97.5291 3.39555 97.4637 3.70389C97.0432 5.50718 95.8286 7.20763 93.7637 8.88946C93.1096 9.42204 92.3902 9.92657 91.6427 10.3937C91.2129 10.6554 90.8018 10.9731 90.4093 11.2814C89.9982 11.5991 89.5684 11.9355 89.1106 12.2158C88.5032 12.5802 87.7838 12.9072 86.8588 13.2249C85.1583 13.8135 83.2149 14.2059 80.7388 14.4675C79.8232 14.5609 79.0664 14.6264 78.3563 14.6544C76.9734 14.7198 75.7681 15.0656 74.4506 15.4767C71.4887 16.411 68.3961 17.5603 65.2473 18.8777L64.4531 19.2141V19.1954ZM85.3171 1.9473C85.5507 2.45185 85.177 2.92832 84.7098 3.5263C84.5323 3.75054 84.3361 4.01212 84.1399 4.30177L83.9063 4.65683C83.1121 5.83411 82.4954 6.75916 81.4302 7.85234C80.3931 8.9175 79.1785 9.92656 77.8237 10.8516C76.0204 12.0943 74.3012 13.0006 72.2643 13.7948C70.3769 14.5236 68.4428 15.2804 67.0693 16.7474C66.8357 16.9996 66.6021 17.2799 66.3872 17.5509C66.2564 17.7191 66.1256 17.8779 65.9948 18.0461C68.8352 16.8782 71.6383 15.8598 74.3105 15.0095C75.6653 14.5797 76.8986 14.2153 78.3375 14.1592C79.0383 14.1218 79.7858 14.0752 80.6921 13.9724C83.1308 13.7108 85.0462 13.3183 86.7 12.7483C87.597 12.44 88.2884 12.1316 88.8677 11.7859C89.3068 11.5243 89.7179 11.1973 90.1197 10.889C90.5215 10.5713 90.9419 10.2443 91.3997 9.97334C92.1379 9.52485 92.8293 9.02958 93.474 8.50634C95.4548 6.88992 96.6134 5.27359 97.0058 3.58242C97.0712 3.33014 97.0993 3.0778 97.1273 2.81619C96.9685 2.62932 96.249 1.97525 94.1 1.97525H94.0813C91.0727 1.51742 86.3262 0.966192 84.8126 1.19978C85.1863 1.5268 85.2984 1.83519 85.3171 1.95666V1.9473Z" fill="#575756"/>
<path d="M30.7771 35.581C30.4127 35.581 29.4971 35.5156 29.0206 34.9643C28.843 34.7494 28.6562 34.4037 28.7683 33.8617L28.8057 33.759L28.9832 33.2452L29.5158 33.5067C29.6279 33.5441 29.8148 33.5068 30.0017 33.4787C30.0764 33.4787 30.1605 33.4507 30.2353 33.4413C31.8517 33.2545 33.5148 33.0396 35.1966 32.778C39.8684 32.0492 44.428 30.685 49.5576 28.5079C50.3424 28.1716 51.0245 27.8633 51.5571 27.3774C52.0336 26.9476 52.37 26.4057 52.7437 25.8357C52.9493 25.518 53.1548 25.191 53.3978 24.8827C54.0611 23.9857 54.9488 23.4625 55.799 22.9486L56.1727 22.7244C57.0324 22.2011 57.8359 21.7899 58.6114 21.4723C58.9945 21.3134 59.3776 21.1639 59.7513 21.0144C61.4145 20.3604 62.9842 19.7438 64.311 18.6132L64.3857 18.5571L64.965 18.2301L65.3574 18.062C68.3847 16.8006 71.3653 15.6981 74.2337 14.8011C75.6072 14.3713 76.8499 14.0069 78.3262 13.9415C79.0176 13.9134 79.7651 13.8574 80.6621 13.7546C83.082 13.5024 84.9788 13.1099 86.6326 12.5399C87.5296 12.2316 88.1743 11.9326 88.7442 11.5962C89.174 11.3346 89.5571 11.0357 89.9776 10.7087C90.3887 10.391 90.8091 10.064 91.2763 9.7743C92.0051 9.32581 92.6965 8.83991 93.3225 8.32601C95.2659 6.74696 96.3965 5.17725 96.7796 3.5328C96.845 3.26184 96.8824 2.99089 96.9011 2.72927L96.9384 2.14062L97.7233 2.35551C98.4708 2.25273 98.994 2.35549 99.3211 2.69186C99.564 2.94413 99.6294 3.27113 99.592 3.48603C99.592 3.56078 99.592 3.62627 99.5733 3.69168C99.3584 5.70053 98.1251 7.67203 95.892 9.55007C95.0791 10.2415 94.3129 10.7833 93.5654 11.2225C93.0983 11.4934 92.6684 11.8205 92.2106 12.1662C91.6407 12.596 91.0614 13.0352 90.4073 13.3715C89.4917 13.848 88.4545 14.2218 87.1371 14.5582C85.231 15.044 83.2035 15.3617 81.1012 15.5019C80.7929 15.5206 80.4939 15.5298 80.1855 15.5392C79.5782 15.5579 79.0083 15.5672 78.457 15.6793C77.8217 15.8102 77.2237 16.025 76.579 16.2399C76.3267 16.324 76.0651 16.4175 75.8034 16.5016C72.365 17.6135 68.8612 18.9496 65.4135 20.4726C65.1332 20.594 64.8248 20.8276 64.5258 21.0425C64.3203 21.192 64.1147 21.3508 63.8998 21.4723C62.5263 22.3038 61.2276 22.8458 60.1437 23.2663C59.499 23.5092 58.8917 23.7895 58.3124 24.0978C57.1165 24.7332 56.1821 25.4246 55.4253 26.2095C55.2851 26.359 55.1637 26.5178 55.0329 26.6767C54.818 26.957 54.5844 27.2373 54.2854 27.4802C53.9303 27.7605 53.5473 27.9754 53.1735 28.1809L52.8932 28.3398C52.3887 28.6201 51.8654 28.9003 51.3235 29.1806C48.7727 30.4981 46.0257 31.6568 43.1479 32.6472C39.1489 34.0207 35.0285 35.0111 30.9267 35.5623H30.8052L30.7865 35.581H30.7771ZM29.8802 34.4504C30.1231 34.5905 30.5529 34.6467 30.8238 34.6373C33.141 34.3197 35.4863 33.8619 37.8128 33.2639C36.9906 33.432 36.1683 33.5815 35.3368 33.7123C33.6549 33.974 31.9638 34.2075 30.338 34.385C30.2726 34.385 30.2072 34.4038 30.1418 34.4131C30.067 34.4131 29.9643 34.4411 29.8802 34.4504ZM64.8902 19.3514C63.442 20.5754 61.8162 21.2107 60.097 21.8834C59.7326 22.0329 59.3495 22.1824 58.9758 22.3319C58.2377 22.6402 57.4809 23.0234 56.668 23.5279L56.2849 23.7615C55.4813 24.2474 54.7058 24.6958 54.1546 25.4433C53.9397 25.7236 53.7528 26.0226 53.5472 26.3403C53.351 26.6486 53.1548 26.957 52.9306 27.2559C53.2015 27.1065 53.4632 26.9476 53.6874 26.7701C53.9023 26.5925 54.0985 26.359 54.2948 26.1161C54.4349 25.9292 54.5844 25.7516 54.7432 25.5928C55.5655 24.7332 56.5932 23.9764 57.8733 23.3037C58.4899 22.9766 59.144 22.6776 59.8261 22.416C61.3397 21.8367 62.3768 21.3415 63.4233 20.7061C63.6102 20.594 63.7877 20.4632 63.984 20.323C64.3203 20.0801 64.666 19.8185 65.0491 19.6597C68.5342 18.1273 72.0567 16.7819 75.5325 15.6606C75.7848 15.5859 76.037 15.4924 76.2893 15.4083C76.7191 15.2588 77.1582 15.1094 77.6067 14.9786C76.5509 15.1094 75.5886 15.3991 74.5327 15.7261C71.7017 16.6231 68.7398 17.7069 65.7405 18.9589L65.3761 19.1084L64.8996 19.3793L64.8902 19.3514ZM97.7887 3.30856C97.7607 3.45806 97.7326 3.59818 97.7046 3.74768C97.2748 5.59769 96.0415 7.33563 93.9205 9.05484C93.2664 9.58741 92.5377 10.1013 91.7715 10.5685C91.351 10.8208 90.968 11.1197 90.5475 11.4374C90.127 11.7644 89.6972 12.0914 89.2207 12.3717C88.5853 12.7548 87.8753 13.0726 86.9222 13.4089C85.7449 13.8107 84.4462 14.1283 82.9419 14.3712C84.306 14.203 85.6235 13.9602 86.8942 13.6332C88.1369 13.3155 89.118 12.9604 89.9682 12.5306C90.5475 12.2316 91.0707 11.8392 91.6313 11.4188C92.0892 11.0731 92.5657 10.7179 93.0703 10.4189C93.771 10.0078 94.4905 9.48465 95.2753 8.8306C97.3122 7.12074 98.4334 5.35483 98.6203 3.58891C98.6203 3.52351 98.6203 3.46738 98.6389 3.40197V3.34597C98.6389 3.34597 98.4334 3.19642 97.7794 3.28986H97.7981L97.7887 3.30856Z" fill="#575756"/>
<path d="M37.2887 18.3657L37.1766 18.2068C36.915 17.8424 37.1579 17.3472 37.242 17.1884C37.3915 16.8801 37.6064 16.6371 37.8026 16.3942C37.896 16.2821 37.9894 16.1793 38.0735 16.0579C38.1483 15.9644 45.4736 6.28456 55.4338 4.02344C55.658 4.02344 56.0411 4.10746 56.1158 4.53726L56.1345 4.58402C56.3588 5.3315 55.8355 6.05091 55.4244 6.52743C55.2095 6.76102 54.9759 7.01333 54.6769 7.2656C54.5929 7.34035 54.4901 7.40574 54.3873 7.48049C54.2378 7.58326 54.079 7.69536 54.0042 7.80749C53.7893 8.07845 53.6118 8.31205 53.2754 8.52695C52.9391 8.74185 52.584 8.93814 52.313 9.06895C51.8085 9.32122 51.2666 9.56407 50.6686 9.79765L50.5565 9.84442C49.9772 9.96588 49.1082 10.8349 48.8186 11.1619C48.3514 11.9561 47.5011 12.582 46.6042 13.2081C45.3054 14.1144 43.9506 14.8805 42.8013 15.5252C41.6801 16.1512 40.5029 16.768 39.1854 17.4407C38.6155 17.7303 38.0456 18.0107 37.4756 18.2816L37.2981 18.3657H37.2887ZM55.4992 4.49996C45.7259 6.73306 38.522 16.254 38.4473 16.3475C38.3539 16.4689 38.2511 16.5904 38.1577 16.7119C37.9614 16.9361 37.7932 17.151 37.6624 17.4033C37.5877 17.5434 37.5596 17.6462 37.541 17.7303C38.0268 17.4967 38.494 17.2632 38.9705 17.0203C40.2786 16.3662 41.4559 15.7402 42.5678 15.1142C43.7077 14.4788 45.0438 13.7126 46.3239 12.8249C47.0059 12.3484 47.9496 11.7038 48.4261 10.8909C48.5663 10.7227 49.6315 9.55479 50.407 9.39595L50.4817 9.35854C51.061 9.13429 51.5842 8.89135 52.0888 8.64842C52.3504 8.51761 52.6868 8.34016 53.0045 8.1346C53.2754 7.94773 53.4249 7.77017 53.6211 7.5179C53.7426 7.34971 53.9295 7.21895 54.1164 7.09748C54.2005 7.03208 54.2938 6.97595 54.3592 6.91055C54.6302 6.67696 54.8638 6.44339 55.0507 6.22849C55.3964 5.84541 55.8262 5.26614 55.6674 4.7429L55.6394 4.67744C55.6113 4.53728 55.5459 4.49996 55.4805 4.49996H55.4992Z" fill="#575756"/>
<path d="M32.6745 24.8664L32.4783 24.7917C32.4035 24.7636 32.254 24.6982 32.1138 24.3245C32.0298 24.0629 32.0298 23.7639 32.1138 23.4369C32.3474 22.4371 33.0669 21.6616 33.7023 20.9796C33.8704 20.7927 34.0386 20.6151 34.1975 20.4376C34.9823 19.5219 35.8606 18.7371 36.6174 18.0737C36.7669 17.9523 36.9165 17.8214 37.0659 17.7L37.1594 17.6345L37.7387 17.3543C42.1208 15.2053 47.4839 12.1966 48.2034 10.7858C48.2034 10.7858 48.2501 10.7297 48.2688 10.7017L48.3996 10.5522C48.3996 10.5522 48.4743 10.4681 48.521 10.4214L50.614 8.15084L50.0347 9.30019C50.1188 9.25347 50.2029 9.22536 50.2776 9.21601L50.3524 9.17872C50.9317 8.95447 51.4456 8.72089 51.9408 8.47795C52.1931 8.35649 52.5294 8.17893 52.8284 7.97337C53.0433 7.82387 53.1835 7.68374 53.389 7.41278C53.5385 7.21657 53.7534 7.06707 53.9216 6.94561C53.9963 6.8802 54.0898 6.83344 54.1458 6.77737C54.4074 6.55313 54.6317 6.32892 54.8186 6.11402L54.8746 6.04855C55.155 5.73088 55.4726 5.37586 55.4446 5.0395L55.4072 4.51632L56.5098 4.02109C57.3694 3.61932 60.3499 1.9749 60.3779 1.95621L60.4527 1.9188C62.1906 1.33016 63.9378 0.872366 65.6477 0.554688H65.7318C66.0775 0.554688 66.7409 0.760167 66.881 1.52633L66.9184 1.61975C67.1333 2.41394 66.8904 3.28291 66.2457 4.20791C65.8065 4.83393 65.2553 5.43197 64.5545 6.02061C64.2649 6.26354 63.9471 6.5251 63.5921 6.77737C63.508 6.84278 63.4146 6.89891 63.3211 6.96431C63.1436 7.07643 62.9568 7.18856 62.882 7.31937L62.8259 7.39408C62.7325 7.54357 62.6111 7.72112 62.4522 7.87996C62.1065 8.20698 61.7141 8.42183 61.3403 8.64607L61.2843 8.67413C60.7704 8.97312 60.2004 9.24406 59.4436 9.58042C58.4905 10.0009 57.5375 10.3747 56.6312 10.6643L56.5565 10.683C55.6315 10.8325 54.1365 12.2153 53.5946 12.7946C51.2213 16.831 33.5901 24.4646 32.8333 24.7917L32.6464 24.8664H32.6745ZM32.497 23.9041L37.6265 18.4661C37.4957 18.5689 37.3743 18.681 37.2435 18.7931C36.5053 19.4285 35.655 20.1853 34.9169 21.0449C34.7487 21.2411 34.5712 21.4186 34.403 21.6149C33.8237 22.2409 33.2258 22.8763 33.0389 23.6424V23.6705C39.4859 20.8581 51.2027 15.1772 52.8284 12.262L52.9031 12.1686C53.118 11.9537 54.9867 10.0103 56.4069 9.7393C57.2759 9.44031 58.1822 9.08525 59.0979 8.68348C59.8173 8.36581 60.3592 8.10415 60.8545 7.82384L60.9105 7.7959C61.2562 7.59968 61.5832 7.42212 61.8449 7.16984C61.929 7.08575 61.9944 6.98301 62.0784 6.86155L62.1345 6.78673C62.3307 6.49708 62.6111 6.31027 62.8633 6.15143C62.9381 6.09537 63.0222 6.05797 63.0782 6.00191C63.4146 5.75897 63.7136 5.52538 63.9846 5.29179C64.6293 4.74987 65.1245 4.20794 65.5076 3.65668C65.9934 2.96526 66.1709 2.36724 66.0494 1.87204L65.9934 1.69457C65.9653 1.52638 65.8626 1.47968 65.7972 1.47968C64.1621 1.78802 62.4896 2.22707 60.8265 2.78768C60.4621 2.99324 57.7804 4.46026 56.9302 4.86203L56.4163 5.08626C56.3976 5.74031 55.9398 6.26346 55.6128 6.6372L55.5567 6.70267C55.3418 6.95494 55.0802 7.20716 54.7812 7.45943C54.6971 7.53418 54.585 7.61826 54.4729 7.68367C54.3421 7.76776 54.2019 7.87992 54.1365 7.95466C53.9216 8.23497 53.716 8.48732 53.3423 8.73025C52.9872 8.95449 52.6322 9.15068 52.3519 9.29083C51.838 9.54311 51.2867 9.79531 50.6887 10.0289L50.4925 10.1037C50.1095 10.1878 49.3526 10.8886 48.9882 11.2717C47.8763 13.2712 41.0276 16.7843 38.1124 18.2138L37.5798 18.4661H37.6078L32.497 23.9041Z" fill="#575756"/>
<path d="M31.4209 28.6256C31.3182 28.6256 31.2154 28.5976 31.1313 28.5508C30.9538 28.4387 30.8884 28.2238 30.9164 27.9154C31.0005 27.1866 31.3462 26.4579 31.9629 25.6917C32.2432 25.3366 32.2618 25.1498 32.2899 24.8975C32.3086 24.7106 32.3273 24.5145 32.4487 24.2435L32.4861 24.1687L33.7662 23.5894C37.8306 21.7861 51.2291 15.6194 53.0324 12.3678L53.0699 12.3212C53.1446 12.2371 55.1067 10.1909 56.4708 9.95727C57.3211 9.66762 58.2461 9.30321 59.1805 8.89209C59.9093 8.57442 60.4512 8.30352 60.9557 8.02321L61.0025 7.99515C61.3482 7.79894 61.7032 7.60276 61.9835 7.3318C62.0956 7.22902 62.1704 7.11689 62.2545 6.96739L62.3012 6.89257C62.4694 6.64964 62.731 6.48148 62.9552 6.33198C63.03 6.27592 63.1234 6.22917 63.1888 6.1731C63.5439 5.92083 63.8429 5.678 64.1138 5.45375C64.7679 4.90248 65.2818 4.35117 65.6836 3.77188C66.1694 3.0898 66.3656 2.47318 66.2909 1.94994L66.132 1.58553L66.3843 1.51071C67.7485 1.11828 69.1219 0.791337 70.4767 0.539062C70.8411 0.539062 71.4578 0.744619 71.57 1.47341L71.6167 1.58553C72.0184 3.12721 70.8038 4.59414 69.8414 5.56587C69.3929 6.03304 68.879 6.48149 68.3277 6.92063C68.0661 7.13553 67.8045 7.32241 67.5336 7.51863C67.4588 7.56534 67.3934 7.61209 67.3187 7.6588C67.1505 7.75224 66.9823 7.86434 66.9169 7.9858C66.5151 8.66788 65.9451 9.05098 65.3378 9.40603C64.7865 9.7424 64.1792 10.0507 63.3663 10.4151C62.3199 10.8916 61.208 11.3401 59.956 11.7886L59.6383 11.9007C58.2181 12.1343 56.1065 14.2927 55.8729 14.5356C55.0133 16.0492 53.3595 17.1424 51.9019 18.0954L51.5749 18.3104C49.0895 19.9549 46.4826 21.3656 44.2682 22.5242C41.9791 23.7202 39.5311 24.9256 36.7748 26.215C35.8685 26.6354 34.9715 27.0559 34.0558 27.467C33.5886 27.6819 33.1215 27.8875 32.6543 28.1024C32.5889 28.1304 32.5141 28.1771 32.4207 28.2332C32.0937 28.4201 31.72 28.6256 31.4023 28.6256H31.4396H31.4209ZM32.8505 24.5331C32.7851 24.6826 32.7757 24.8135 32.7664 24.9536C32.7384 25.2246 32.7104 25.5329 32.3366 26.0001C31.7854 26.6728 31.4677 27.3455 31.3929 27.9716C31.3742 28.1211 31.3929 28.1584 31.3929 28.1584C31.5144 28.2051 32.0283 27.9155 32.1965 27.8127C32.3086 27.7473 32.4113 27.7005 32.4768 27.6631C32.9439 27.4482 33.4111 27.2521 33.8689 27.0372C34.7752 26.6261 35.6816 26.215 36.5786 25.7852C39.3255 24.5052 41.7642 23.2904 44.0534 22.1038C46.2678 20.9546 48.8559 19.5531 51.3226 17.9179L51.6496 17.7031C53.0698 16.7687 54.6862 15.7129 55.4711 14.274L55.5085 14.2272C55.6019 14.1244 57.9098 11.7045 59.5262 11.4335L59.8065 11.3401C61.0398 10.9009 62.1517 10.4525 63.1888 9.98532C63.983 9.62093 64.581 9.32188 65.1229 8.99486C65.6649 8.66784 66.1881 8.3315 66.5338 7.74286C66.6646 7.52796 66.8982 7.37845 67.1037 7.25698C67.1785 7.21026 67.2346 7.18223 67.3 7.13551C67.5616 6.94864 67.8232 6.75242 68.0848 6.54687C68.6174 6.12641 69.1219 5.678 69.5611 5.22952C70.43 4.34188 71.5513 3.00575 71.2243 1.707L71.1775 1.56682C71.0934 1.0249 70.6356 0.996885 70.5796 0.996885C69.3556 1.23047 68.0848 1.52942 66.8141 1.88447C66.9075 2.53852 66.674 3.25802 66.1227 4.04287C65.6929 4.6502 65.1603 5.22941 64.4689 5.81805C64.1886 6.05163 63.8802 6.30395 63.5252 6.56557C63.4504 6.63098 63.3477 6.67775 63.2636 6.74316C63.058 6.86462 62.8618 6.99539 62.7591 7.16357L62.7123 7.23828C62.6189 7.38777 62.5161 7.54659 62.3572 7.68675C62.0302 7.99508 61.6565 8.21001 61.2828 8.41557L61.2361 8.44362C60.7315 8.73327 60.1616 9.01354 59.4234 9.34056C58.4797 9.75168 57.536 10.1254 56.639 10.4244C55.4524 10.63 53.6771 12.4239 53.4809 12.6388C51.5375 16.0305 38.0922 22.2252 33.9997 24.0379L32.8879 24.5425H32.8599L32.8505 24.5331Z" fill="#575756"/>
<path d="M32.4586 37.4506C32.0569 37.4506 30.8235 37.3852 30.1321 36.6377C29.7864 36.2733 29.6276 35.7781 29.6743 35.2174L29.4688 34.4139L30.2256 34.582C30.5339 34.6568 30.8235 34.6475 30.8235 34.6475C34.8225 34.1056 38.8683 33.1338 42.8206 31.779C45.6517 30.8073 48.3613 29.658 50.8653 28.3686C51.4072 28.0883 51.9212 27.8173 52.407 27.5464C52.5005 27.4903 52.6032 27.4436 52.706 27.3782C53.0424 27.1914 53.3881 27.0138 53.6684 26.7802C53.8833 26.6027 54.0702 26.3692 54.2757 26.1262C54.4159 25.9394 54.5654 25.7618 54.7242 25.603C55.5464 24.7434 56.5742 23.9866 57.8543 23.3138C58.4803 22.9775 59.125 22.6784 59.8071 22.4261C61.3207 21.8562 62.3579 21.3517 63.4043 20.7163C63.5912 20.6042 63.7687 20.4734 63.9649 20.3332C64.3013 20.0903 64.647 19.8287 65.0301 19.6699C68.5059 18.1469 72.0283 16.792 75.5135 15.6708C75.7657 15.5961 76.018 15.5026 76.2703 15.4185C76.915 15.2036 77.569 14.97 78.2605 14.8205C78.8958 14.6897 79.5312 14.6711 80.1572 14.6524C80.4469 14.6524 80.7459 14.6337 81.0355 14.615C83.0817 14.4748 85.0532 14.1665 86.8938 13.69C88.1365 13.3723 89.127 13.0173 89.9679 12.5875C90.5472 12.2885 91.0704 11.8961 91.631 11.4756C92.0888 11.1299 92.5654 10.7749 93.0699 10.4759C93.7707 10.0648 94.4901 9.54147 95.275 8.88743C97.2838 7.19625 98.4051 5.46769 98.6106 3.7298L98.5078 3.26262L98.9937 3.16921C99.7785 3.01972 101.227 3.37481 101.507 3.44021C102.367 3.65511 103.208 3.92606 103.852 4.13162C104.609 4.37455 105.151 4.5427 105.833 4.56138C106.534 4.58007 107.608 4.61751 108.225 5.5612C108.589 6.11247 108.589 6.70112 108.58 7.20567C108.15 17.2966 94.9293 18.0814 94.1725 18.1095C82.0539 20.0622 75.3453 22.5196 75.2892 22.5476C73.3364 23.3138 71.3089 24.1641 69.0851 25.1451C68.319 25.4815 67.5715 25.8272 66.8053 26.1729C66.6839 26.229 66.5624 26.2851 66.441 26.3411C66.2261 26.4346 66.0018 26.5373 65.7869 26.6401C65.4599 26.8176 57.4712 31.1998 55.5091 31.5081C55.3502 31.5361 54.3878 31.835 53.5469 32.1153L53.4815 32.1341C51.3231 32.5452 50.0992 32.8442 48.1931 33.6758C47.7913 33.8252 38.7375 37.2356 32.5708 37.4972H32.4586V37.4506ZM30.6273 35.5819C30.6554 35.7407 30.7114 35.8808 30.8235 35.9929C31.244 36.4507 32.2157 36.5068 32.524 36.4975C38.5319 36.2546 47.7353 32.7788 47.8287 32.7414C49.7908 31.8818 51.0522 31.5642 53.2666 31.1437C53.7244 30.9942 55.0699 30.555 55.3502 30.5083C56.8451 30.2747 63.0586 26.9765 65.3291 25.7338C65.5627 25.6123 65.8056 25.5189 66.0299 25.4068C66.142 25.3507 66.2634 25.304 66.3849 25.2479C67.1511 24.8928 67.9079 24.5565 68.674 24.2108C70.9071 23.2204 72.944 22.3701 74.9248 21.5946C74.9996 21.5665 81.783 19.0719 94.0323 17.1004H94.0977C94.2285 17.1004 107.216 16.5585 107.618 7.09355C107.636 6.62637 107.618 6.29932 107.422 6.00967C107.095 5.51447 106.543 5.46776 105.796 5.43973C104.983 5.4117 104.348 5.22482 103.544 4.9632C102.918 4.75765 102.096 4.49606 101.264 4.2905C100.694 4.15035 100.003 4.02884 99.5263 4.01015C99.2179 5.90688 98.0033 7.77563 95.8916 9.55089C95.0788 10.233 94.3126 10.7842 93.5651 11.2233C93.0979 11.4943 92.6681 11.8213 92.2103 12.167C91.6403 12.5968 91.0611 13.036 90.407 13.3724C89.4913 13.8489 88.4542 14.2133 87.1368 14.559C85.2307 15.0542 83.2032 15.3625 81.1009 15.5027C80.7926 15.5214 80.4936 15.5306 80.1852 15.54C79.5779 15.5587 79.008 15.568 78.4567 15.6802C77.8213 15.811 77.2234 16.0259 76.588 16.2408C76.3357 16.3248 76.0741 16.4183 75.8125 16.5024C72.3647 17.6143 68.8703 18.9504 65.4225 20.4734C65.1422 20.5949 64.8339 20.8284 64.5349 21.034C64.3293 21.1835 64.1238 21.3424 63.9089 21.4639C62.5354 22.2954 61.2366 22.8373 60.1528 23.2577C59.5174 23.4913 58.9008 23.7716 58.3215 24.0893C57.1255 24.7247 56.1911 25.4161 55.4343 26.201C55.2942 26.3505 55.1727 26.5093 55.0419 26.6681C54.827 26.9484 54.5934 27.2287 54.2944 27.4717C53.9394 27.752 53.5562 27.9669 53.1918 28.1631C53.0984 28.2191 52.9956 28.2659 52.9022 28.3219C52.3976 28.6023 51.8838 28.8732 51.3325 29.1629C48.7817 30.471 46.0347 31.6389 43.1569 32.6293C39.1486 34.0028 35.0375 34.9932 30.9357 35.5444H30.646L30.6273 35.5819Z" fill="#575756"/>
<path d="M51.671 32.3991L54.2966 30.8854L65.3873 25.7559C65.6022 25.6531 65.8264 25.5409 66.06 25.4474L66.4151 25.2887C67.1812 24.9336 67.9381 24.5973 68.7042 24.2516C70.9093 23.2798 72.9462 22.4202 74.955 21.6353C75.0298 21.6073 81.8132 19.1127 94.0531 17.1412C94.24 17.1412 107.265 16.5992 107.667 7.10616C107.685 6.62964 107.667 6.30268 107.461 6.00369L107.013 5.33099H107.825C109.657 5.11609 111.283 6.22791 112.133 8.31151C112.693 9.69434 112.656 10.7689 111.993 11.8808C111.684 12.6376 109.956 13.6934 109.61 13.9083L109.507 13.955C108.451 14.2634 106.956 16.0479 106.452 16.7207C104.125 19.2995 96.9963 19.8788 96.7067 19.8975C94.268 20.2899 84.9432 21.299 84.5415 21.3458C81.2152 21.8223 75.1793 24.5318 75.1138 24.5599C74.8055 24.7654 66.1908 30.1473 58.2769 31.2592H57.7443C56.6792 31.39 55.6047 31.5581 54.5862 31.745L51.6523 32.4178H51.671V32.3991ZM108.479 6.18116C108.554 6.51753 108.554 6.83523 108.545 7.14357C108.106 17.4588 94.2773 18.0101 94.1372 18.0194C82.0374 19.9629 75.3381 22.4295 75.2727 22.4576C73.2919 23.2424 71.255 24.0927 69.0686 25.0551C68.3025 25.3915 67.5456 25.7371 66.7888 26.0829L66.4244 26.2511C66.2095 26.3445 65.9853 26.4473 65.7704 26.55L57.436 30.4089C57.5201 30.4089 57.6228 30.3808 57.7069 30.3715H58.2301C65.9012 29.2876 74.628 23.8218 74.7214 23.775C75.0298 23.6349 80.9909 20.9626 84.4573 20.4674C84.5695 20.4674 94.1746 19.4115 96.6226 19.0191C96.7254 19.0191 103.733 18.4492 105.798 16.1601C105.966 15.9265 107.713 13.6186 109.218 13.1234C110.077 12.6095 111.077 11.8434 111.217 11.4883C111.759 10.554 111.787 9.76907 111.32 8.63851C111.021 7.90037 110.171 6.30263 108.47 6.18116H108.489H108.479Z" fill="#575756"/>
<path d="M41.7092 35.5139C41.7092 34.43 41.5316 33.421 41.1953 32.5146C40.8496 31.599 40.3543 30.8047 39.719 30.1413C39.0836 29.478 38.3174 28.9548 37.4298 28.5904C36.5422 28.226 35.5518 28.0391 34.4866 28.0391C33.4215 28.0391 32.4311 28.226 31.5434 28.5904C30.6558 28.9548 29.8896 29.478 29.2636 30.1413C28.6282 30.8047 28.1424 31.599 27.7873 32.5146C27.4416 33.4303 27.2734 34.4394 27.2734 35.5139C27.2734 36.5884 27.451 37.6069 27.7873 38.5132C28.133 39.4289 28.6282 40.223 29.2636 40.8864C29.899 41.5404 30.6651 42.0637 31.5434 42.4281C32.4311 42.7925 33.4121 42.97 34.4866 42.97C34.851 42.97 35.2061 42.942 35.5611 42.8952C34.8417 42.1758 34.1222 41.4564 33.3934 40.7276C33.0851 40.6622 32.7861 40.5781 32.5152 40.466C31.9265 40.2324 31.4313 39.8773 31.0108 39.4288C30.5997 38.9804 30.2727 38.4197 30.0485 37.7657C29.8242 37.1116 29.7028 36.3454 29.7028 35.5139C29.7028 34.6823 29.8149 33.9162 30.0485 33.2528C30.2727 32.5988 30.5997 32.0288 31.0108 31.5896C31.4219 31.1411 31.9265 30.7954 32.5152 30.5432C33.1038 30.2909 33.7672 30.1788 34.4866 30.1788C35.2061 30.1788 35.8788 30.3002 36.4675 30.5432C37.0468 30.7861 37.5513 31.1411 37.9624 31.5896C38.3735 32.0475 38.7006 32.6081 38.9155 33.2528C39.1397 33.9162 39.2612 34.6729 39.2612 35.5139C39.2612 36.3548 39.149 37.1116 38.9155 37.7657C38.822 38.046 38.7006 38.2982 38.5697 38.5505C39.0743 39.2699 39.9339 39.2606 40.4478 39.9333C40.7374 39.4942 40.9804 39.0177 41.1859 38.5038C41.5316 37.5882 41.6998 36.579 41.6998 35.5045L41.7092 35.5139Z" fill="#575756"/>
<path d="M41.4187 32.422C41.0543 31.4876 40.5498 30.6561 39.8957 29.974C39.2417 29.2919 38.4475 28.7499 37.5225 28.3668C36.6068 27.9931 35.5884 27.7969 34.4859 27.7969C33.3833 27.7969 32.3742 27.9931 31.4586 28.3668C30.5429 28.7406 29.7487 29.2919 29.0946 29.974C28.4406 30.6561 27.9267 31.4876 27.5716 32.422C27.2166 33.3563 27.0391 34.3934 27.0391 35.5146C27.0391 36.6358 27.2166 37.6637 27.5716 38.6074C27.936 39.5417 28.4406 40.3733 29.0946 41.0554C29.7487 41.7374 30.5429 42.2793 31.4679 42.6531C32.3835 43.0268 33.402 43.2136 34.4952 43.2136C35.0278 43.2136 35.5416 43.1669 36.0275 43.0828C35.9154 42.9427 35.8033 42.7839 35.6631 42.6531C35.2894 42.7091 34.897 42.7371 34.4952 42.7371C33.4487 42.7371 32.505 42.5597 31.6548 42.2139C30.7952 41.8589 30.0664 41.3731 29.4497 40.7284C28.833 40.0837 28.3658 39.3268 28.0295 38.4391C27.6931 37.5515 27.5249 36.5798 27.5249 35.5146C27.5249 34.4495 27.6931 33.4777 28.0295 32.5901C28.3658 31.7025 28.833 30.9363 29.4497 30.301C30.0664 29.6563 30.7952 29.1611 31.6548 28.7967C32.5144 28.4416 33.4581 28.264 34.4952 28.264C35.5323 28.264 36.4854 28.4416 37.345 28.7967C38.2046 29.1517 38.9427 29.6469 39.5594 30.301C40.176 30.9457 40.6432 31.7025 40.9796 32.5901C41.316 33.4777 41.4841 34.4495 41.4841 35.5146C41.4841 36.5798 41.316 37.5515 40.9796 38.4391C40.7834 38.953 40.5404 39.4202 40.2508 39.85C40.3536 39.9341 40.5311 40.0088 40.6619 40.0836C40.9609 39.6258 41.2132 39.1399 41.4187 38.6074C41.7738 37.673 41.9513 36.6358 41.9513 35.5146C41.9513 34.3934 41.7738 33.3657 41.4187 32.422Z" fill="#575756"/>
<path d="M39.158 33.164C38.9244 32.4726 38.588 31.8933 38.1488 31.4075C37.7097 30.9309 37.1865 30.5666 36.5698 30.305C35.9438 30.0527 35.2617 29.9219 34.4956 29.9219C33.7294 29.9219 33.0473 30.0527 32.4306 30.305C31.814 30.5573 31.2814 30.9309 30.8422 31.4075C30.4031 31.884 30.0667 32.4726 29.8331 33.164C29.5995 33.8555 29.4688 34.6403 29.4688 35.5093C29.4688 36.3782 29.5902 37.1631 29.8331 37.8451C30.076 38.5272 30.4031 39.1159 30.8422 39.5924C31.2814 40.0689 31.8046 40.4333 32.4306 40.6856C32.8044 40.8444 33.2155 40.9378 33.6453 41.0032C33.5238 40.807 33.2715 40.6108 33.1314 40.4146C32.9539 40.3679 32.7764 40.3119 32.6269 40.2465C32.0756 40.0222 31.5991 39.6952 31.216 39.2747C30.8236 38.8449 30.5152 38.3217 30.3003 37.6957C30.0854 37.0604 29.9639 36.3222 29.9639 35.5093C29.9639 34.6964 30.076 33.9583 30.3003 33.3229C30.5152 32.6969 30.8142 32.1644 31.216 31.7346C31.5991 31.3141 32.0849 30.9777 32.6269 30.7535C33.1875 30.5292 33.8228 30.3984 34.5142 30.3984C35.2056 30.3984 35.8504 30.5105 36.411 30.7535C36.9622 30.9777 37.4388 31.3141 37.8218 31.7346C38.2049 32.1644 38.5132 32.6969 38.7375 33.3229C38.9524 33.9676 39.0738 34.6964 39.0738 35.5093C39.0738 36.3222 38.9617 37.051 38.7375 37.6957C38.6814 37.8452 38.6347 37.976 38.5693 38.1161C38.7188 38.1535 38.8683 38.2376 38.9898 38.3404C39.0645 38.1815 39.1299 38.0133 39.186 37.8451C39.4195 37.1631 39.5504 36.3782 39.5504 35.5093C39.5504 34.6403 39.4289 33.8555 39.186 33.164H39.1673H39.158Z" fill="#575756"/>
</svg>
