<svg width="137" height="83" viewBox="0 0 137 83" fill="none" xmlns="http://www.w3.org/2000/svg">
<path d="M55.6768 14.3896C55.6768 18.8464 55.6581 23.3126 55.6862 27.7694C55.6862 28.6851 55.817 29.6194 55.8544 30.5351C55.9011 31.6376 56.2001 32.6654 56.443 33.7119C56.7514 35.02 57.3307 36.2253 58.0969 37.3184C58.3491 37.6828 58.62 38.094 59.0592 38.2996C59.1059 38.3182 59.1713 38.3743 59.1806 38.421C59.2647 38.9069 59.7039 39.0284 60.0496 39.2433C60.4794 39.5142 60.9559 39.7198 61.311 40.0935C61.4044 40.187 61.5165 40.1962 61.6286 40.2243C62.1238 40.3551 62.6284 40.4579 63.105 40.6448C63.432 40.7756 63.7496 40.8223 64.086 40.8223C65.4408 40.8223 66.7956 41.0091 68.1597 40.9344C68.9819 40.8877 69.8136 40.8503 70.6078 40.6074C71.2338 40.4112 71.8972 40.3085 72.4485 39.8693C72.6914 39.6731 73.0558 39.5797 73.3548 39.4021C73.934 39.0658 74.3078 38.5144 74.859 38.1687C74.9058 38.1407 74.9525 38.094 74.9899 38.0473C75.6626 36.9728 76.2886 35.8796 76.7464 34.6836C77.1762 33.5437 77.2509 32.3571 77.5032 31.2079C77.6153 30.694 77.634 30.152 77.6434 29.6194C77.9143 20.1358 77.6901 10.6428 77.7555 1.15916C77.7555 0.981634 77.7275 0.804052 77.7089 0.63587C77.6528 0.168695 77.8116 -0.0087679 78.2975 0.0005756C81.0165 0.0379496 83.7354 0.140705 86.4544 0.0939878C87.6877 0.0753008 88.921 0.0286152 90.1637 0.00992822C90.8084 0.00992822 91.4532 0.0379587 92.0979 0.00992822C92.6678 -0.0181023 92.8453 0.234158 92.7425 0.813455C92.7145 0.990982 92.7144 1.16846 92.7144 1.34598C92.7144 2.92504 92.6771 4.50415 92.7332 6.0832C92.7518 6.74659 92.7332 7.40997 92.7893 8.06402C92.8173 8.39104 92.5743 8.62466 92.2566 8.5686C92.0791 8.54057 91.9016 8.51252 91.7335 8.5499C91.3597 8.62465 91.0046 8.59661 90.6215 8.5499C90.0516 8.49384 89.4816 8.52185 88.9023 8.53119C88.4352 8.53119 88.3417 8.61525 88.3324 9.08243C88.3231 9.82991 88.3324 10.5774 88.3324 11.3249C88.3324 16.7908 88.3791 22.2568 88.3137 27.7228C88.295 29.3299 88.295 30.9462 88.024 32.5533C87.8652 33.4783 87.7157 34.4126 87.5942 35.347C87.5382 35.7674 87.3326 36.1693 87.2298 36.5897C86.8935 37.8791 86.4917 39.1404 85.9124 40.3457C85.5947 41.0185 85.2303 41.6633 84.8939 42.3173C84.296 43.4759 83.4083 44.4103 82.6795 45.4754C82.5487 45.6623 82.3338 45.737 82.203 45.9052C81.5583 46.7554 80.6146 47.2787 79.8578 47.9981C79.7737 48.0822 79.6897 48.1943 79.5682 48.1849C79.1384 48.1662 78.9982 48.5026 78.8674 48.7829C78.7833 48.9698 78.6993 49.0165 78.5217 49.0165C77.9237 49.0165 77.4192 49.3342 76.9707 49.6332C76.5689 49.9042 76.1672 50.0257 75.728 50.1004C75.4758 50.1471 75.2047 50.1098 75.0552 50.3807C74.4666 50.4462 73.9901 50.8479 73.3922 50.9226C72.598 51.0254 71.8038 51.1562 71.0469 51.4458C70.9535 51.4832 70.86 51.4926 70.7572 51.4926C69.7762 51.5393 68.7858 51.5393 67.8048 51.6327C67.1133 51.6982 66.4312 51.7075 65.7585 51.6327C64.8802 51.5393 63.9926 51.5767 63.1143 51.4179C62.6752 51.3338 62.2079 51.4365 61.7688 51.287C61.1147 51.0628 60.442 50.988 59.7599 50.8946C59.7039 50.8946 59.6479 50.8666 59.5918 50.8386C58.7976 50.3901 57.938 50.1471 57.0597 49.9415C56.7608 49.8761 56.5926 49.5959 56.3496 49.437C55.8357 49.1007 55.2284 48.9792 54.7239 48.6148C53.6867 47.886 52.6589 47.1666 51.7432 46.2696C50.8182 45.3726 50.024 44.3822 49.2391 43.3731C48.8747 42.8966 48.6318 42.3173 48.3235 41.794C47.277 39.9533 46.595 37.9725 46.0531 35.9356C45.7634 34.8518 45.67 33.7305 45.4551 32.6373C45.2215 31.4694 45.2308 30.2922 45.1934 29.1056C44.9879 22.752 45.1748 16.3984 45.1 10.0542C45.1 9.73651 45.1 9.41882 45.1 9.11049C45.0813 8.62462 45.016 8.5499 44.5488 8.5499C43.4649 8.5499 42.381 8.5499 41.2972 8.5499C40.7552 8.5499 40.6058 8.42839 40.6245 7.92384C40.6899 5.98974 40.6058 4.06502 40.6245 2.13092C40.6245 1.60768 40.7646 1.08438 40.6245 0.542457C40.5404 0.206091 40.8207 -0.0648106 41.1477 0.0192808C41.5308 0.131403 41.8858 0.0192808 42.2596 0.0192808C44.4086 0.0192808 46.5482 0.0192808 48.6973 0.0192808C49.6503 0.0192808 50.6127 -0.0274275 51.5658 0.0286335C52.5468 0.0940379 53.5278 -0.111569 54.5089 0.0939878C54.7518 0.140705 55.0228 0.140669 55.2658 0.0565773C55.5274 -0.0368577 55.6395 0.0939969 55.6582 0.336928C55.6676 0.495767 55.6768 0.654616 55.6768 0.813455C55.6768 5.35439 55.6768 9.88594 55.6768 14.4269H55.6862L55.6768 14.3896Z" fill="#575756"/>
<path d="M84.2483 76.87C84.2483 75.2723 84.2483 73.6745 84.2483 72.0768C84.2483 71.6657 84.2483 71.6562 84.622 71.6562C86.5748 71.6656 88.5275 71.675 90.4803 71.7124C91.1157 71.7217 91.7698 71.8712 92.2837 72.2076C94.1991 73.497 94.2084 75.945 92.4705 77.2438C92.2836 77.3839 92.0501 77.4493 91.8352 77.5614C91.4895 77.7389 91.452 77.8324 91.6389 78.1594C92.0967 78.9629 92.5546 79.7664 93.0498 80.5513C93.3114 80.9624 93.4703 81.439 93.8441 81.7847C93.9655 81.8968 93.9001 82.0369 93.8254 82.1583C93.7506 82.2891 93.6478 82.2799 93.5263 82.2238C93.218 82.1023 92.9003 82.1677 92.592 82.1677C92.2836 82.1677 92.0781 82.0649 91.9193 81.7379C91.3213 80.57 90.6579 79.4301 90.0225 78.2715C89.901 78.0473 89.7142 77.9912 89.4806 77.9818C88.5743 77.9631 87.6679 77.9257 86.7616 77.9631C86.5841 77.9631 86.4066 77.9445 86.2291 77.9445C85.8927 77.9445 85.7713 78.0379 85.79 78.3462C85.8741 79.5048 85.6591 80.6634 85.846 81.822C85.8834 82.0743 85.6217 82.2892 85.3601 82.2144C85.1265 82.149 84.8929 82.093 84.6687 82.1864C84.3884 82.3079 84.3137 82.1303 84.2576 81.9434C84.2296 81.85 84.2483 81.7473 84.2483 81.6539C84.2483 80.0561 84.2483 78.4584 84.2483 76.8606C84.2483 76.8606 84.2483 76.8606 84.2576 76.8606L84.2483 76.87ZM88.3314 73.0858C88.3314 73.0858 88.3314 73.0578 88.3314 73.0484C87.64 73.0484 86.9485 73.0484 86.2664 73.0484C85.8179 73.0484 85.7713 73.1045 85.7713 73.5624C85.7713 74.3939 85.7713 75.2162 85.7619 76.0478C85.7619 76.4963 85.846 76.5896 86.3225 76.5803C87.6213 76.5336 88.92 76.5523 90.2188 76.599C90.9569 76.627 91.4614 76.272 91.9006 75.7768C92.3304 75.3002 92.2837 74.1416 91.8165 73.7492C91.368 73.3754 90.8728 73.0485 90.2281 73.0858C89.6021 73.1232 88.9668 73.0858 88.3407 73.0858H88.3314Z" fill="#575756"/>
<path d="M77.1922 76.2961C77.8276 76.2961 78.4536 76.2961 79.089 76.2961C79.4441 76.2961 79.5094 76.3241 79.5188 76.6885C79.5375 77.165 79.5188 77.6322 79.5188 78.1087C79.5188 78.8562 79.5094 79.6037 79.5188 80.3512C79.5188 80.6221 79.4534 80.8089 79.2292 81.0052C78.7059 81.4536 78.0612 81.6593 77.4539 81.9116C76.1645 82.4255 74.8003 82.5282 73.4548 82.2386C72.3336 82.005 71.3339 81.4724 70.5303 80.6035C69.9417 79.9681 69.4746 79.2579 69.297 78.4263C69.1475 77.7069 68.9419 76.9968 69.1195 76.2213C69.297 75.4458 69.4372 74.6796 69.895 74.0162C70.8387 72.6428 72.1187 71.8111 73.7818 71.5215C75.1834 71.2879 76.4915 71.5589 77.7528 72.1195C78.2854 72.3531 78.7713 72.7082 79.2665 73.0259C79.444 73.138 79.4347 73.2781 79.2945 73.4182C79.089 73.6238 78.8835 73.8387 78.6592 74.0349C78.435 74.2312 78.2387 74.1378 78.0332 73.9602C77.0708 73.1474 75.9402 72.7922 74.7068 72.8296C73.0904 72.8763 71.829 73.6051 71.0816 75.0627C70.5116 76.1839 70.4556 77.3986 70.9321 78.5478C71.2498 79.3046 71.8291 79.912 72.5766 80.3418C73.7072 80.9772 74.8938 81.136 76.1645 80.837C76.7064 80.7062 77.211 80.5194 77.6968 80.2671C77.9211 80.1456 78.0892 80.0054 78.0985 79.7345C78.0985 79.1645 78.0985 78.5946 78.0985 78.0153C78.0985 77.7537 77.9491 77.6416 77.7155 77.6976C77.0802 77.8471 76.4541 77.6976 75.8188 77.7256C75.4918 77.7349 75.09 77.9125 74.8564 77.6602C74.6415 77.436 74.8284 77.0529 74.7817 76.7446C74.7349 76.3335 74.8097 76.2961 75.2488 76.2961C75.9029 76.2961 76.5476 76.2961 77.2016 76.2961C77.2016 76.2961 77.2016 76.2961 77.2016 76.2868L77.1922 76.2961Z" fill="#575756"/>
<path d="M97.3302 76.9441C97.1247 74.4494 99.2549 72.3284 101.002 71.7771C102.189 71.4034 103.366 71.3381 104.543 71.6184C105.151 71.7585 105.758 72.0107 106.309 72.3751C107.047 72.861 107.664 73.4496 108.085 74.2158C108.711 75.337 109.056 76.5144 108.729 77.8225C108.598 78.3457 108.468 78.8502 108.225 79.3174C107.533 80.6348 106.477 81.4944 105.085 82.0083C103.646 82.5409 102.217 82.4755 100.825 81.9616C99.3017 81.3916 98.2085 80.3264 97.6385 78.7661C97.4143 78.1494 97.2555 77.5234 97.3396 76.9441H97.3302ZM107.197 76.9161C107.328 74.683 105.272 72.7302 102.824 72.833C100.675 72.9264 98.9466 74.5709 98.9279 76.8507C98.9092 79.2987 100.722 80.9711 102.936 80.9992C105.459 81.0179 107.253 79.1305 107.197 76.9161Z" fill="#575756"/>
<path d="M48.4446 71.5469C48.4726 71.7524 48.4819 71.8832 48.3324 72.014C47.1925 72.9858 46.1648 74.079 45.0809 75.1068C44.4736 75.6768 44.5016 75.6861 44.9314 76.3588C45.4546 77.181 46.1367 77.8632 46.7067 78.6387C47.3981 79.573 48.0989 80.4887 48.809 81.4137C48.9304 81.5632 49.0893 81.6846 49.2201 81.8341C49.2949 81.9182 49.3602 82.0304 49.2481 82.1518C49.164 82.2359 49.0799 82.3294 48.9398 82.264C48.5567 82.0958 48.1643 82.1798 47.7718 82.1985C47.5289 82.2078 47.3795 82.1237 47.23 81.9275C46.2676 80.6568 45.2865 79.4048 44.3148 78.1434C44.0532 77.7977 43.8008 77.452 43.5392 77.1063C43.3056 76.798 43.1655 76.7699 42.9319 77.0409C42.6422 77.3772 42.2592 77.6202 42.0256 78.0313C41.9041 78.2369 41.5958 78.3863 41.3809 78.5826C41.0259 78.9189 40.867 79.2927 40.895 79.7879C40.9418 80.4139 40.9138 81.0493 40.9231 81.6847C40.9231 82.1705 40.8857 82.2078 40.3718 82.1891C40.0821 82.1798 39.7925 82.1611 39.5122 82.2732C39.3347 82.0676 39.344 81.8341 39.344 81.6005C39.344 78.4798 39.344 75.3684 39.344 72.2476C39.344 72.1262 39.3347 72.0047 39.344 71.8926C39.372 71.7057 39.4187 71.5375 39.6803 71.6496C39.8859 71.7337 40.1009 71.6778 40.3158 71.631C40.7829 71.547 40.8857 71.6311 40.8763 72.1076C40.8483 73.6025 40.9324 75.1068 40.8483 76.6017C40.8483 76.7606 40.8483 76.9288 41.0259 76.9942C41.1847 77.0503 41.2781 76.9288 41.3716 76.8353C41.9042 76.2841 42.4087 75.7048 42.9693 75.1909C43.7541 74.4808 44.5016 73.7146 45.2771 72.9858C45.6228 72.6588 45.9779 72.3411 46.2863 71.9953C46.4638 71.7991 46.6507 71.7057 46.8936 71.6964C47.3982 71.6777 47.9121 71.7151 48.4166 71.5656L48.4446 71.5469Z" fill="#575756"/>
<path d="M127.031 71.7408C127.489 71.5352 127.919 71.666 128.348 71.666C129.572 71.666 130.797 71.7033 132.011 71.6473C132.647 71.6192 133.254 71.7127 133.871 71.8249C134.618 71.965 135.272 72.3294 135.73 72.89C136.244 73.516 136.487 74.2915 136.365 75.1511C136.085 77.0945 134.637 77.87 132.889 77.9541C131.628 78.0102 130.367 77.9635 129.105 77.9541C128.61 77.9541 128.619 77.9354 128.619 78.4213C128.619 79.4865 128.619 80.5517 128.619 81.6075C128.619 81.8224 128.61 82.0373 128.489 82.2522C128.115 82.1868 127.741 82.0654 127.358 82.2522C127.181 82.3363 127.096 82.2148 127.04 82.084C126.994 81.9812 126.984 81.8598 126.984 81.7383C126.984 78.4494 126.984 75.1512 126.994 71.8623C126.994 71.8249 127.012 71.7875 127.022 71.7502L127.031 71.7408ZM130.955 73.0582C130.311 73.0582 129.657 73.0582 129.012 73.0582C128.61 73.0582 128.582 73.1142 128.591 73.544C128.61 74.3849 128.61 75.2353 128.591 76.0762C128.582 76.5153 128.591 76.562 129.059 76.5713C130.273 76.6087 131.497 76.5059 132.712 76.5807C133.114 76.6087 133.478 76.4779 133.852 76.3284C135.085 75.8425 135.076 74.2822 134.282 73.544C134.226 73.488 134.16 73.4506 134.085 73.4132C133.572 73.2077 133.067 73.0208 132.488 73.0582C131.974 73.0955 131.469 73.0582 130.955 73.0582Z" fill="#575756"/>
<path d="M24.711 76.8984C24.655 75.3941 25.1876 74.0766 26.2714 73.0489C27.6636 71.7314 29.3641 71.227 31.2795 71.5166C31.9616 71.6194 32.625 71.7875 33.2697 72.0492C33.8864 72.2921 34.4097 72.6845 34.9796 73.0116C35.1759 73.1237 35.0917 73.4693 34.8208 73.6375C34.6619 73.7309 34.5311 73.8244 34.4376 73.9832C34.1387 74.4784 34.148 74.4505 33.7369 74.0861C32.8306 73.2919 31.7561 72.9181 30.5694 72.8433C29.5603 72.7779 28.6541 73.1049 27.8506 73.6562C27.3927 73.9739 27.0283 74.4504 26.7854 74.9737C26.4677 75.6744 26.1687 76.4126 26.2901 77.1881C26.3836 77.8141 26.4397 78.4868 26.9069 79.0007C27.0937 79.2062 27.075 79.5052 27.2992 79.7108C28.299 80.5891 29.4109 81.0656 30.7657 80.9908C31.8215 80.9348 32.6718 80.4303 33.5501 79.9724C33.7463 79.8696 33.8958 79.6547 34.0453 79.4772C34.2789 79.2156 34.4283 79.1876 34.6432 79.4586C34.802 79.6642 34.9796 79.8323 35.1945 79.9818C35.4001 80.1219 35.3814 80.3555 35.1852 80.5237C33.765 81.7477 32.1298 82.4392 30.2331 82.3831C28.7568 82.3457 27.4021 81.8785 26.3276 80.8321C25.4212 79.9538 24.683 78.739 24.711 76.8984Z" fill="#575756"/>
<path d="M19.0599 71.6707H20.5642C20.5642 73.9879 20.5456 76.2864 20.5736 78.5756C20.5736 79.211 20.4615 79.7902 20.1438 80.3135C19.6766 81.0796 19.0599 81.6683 18.1722 81.986C17.4528 82.2476 16.7427 82.3877 15.9952 82.3877C14.7152 82.3877 13.5285 82.0701 12.5755 81.2012C11.9869 80.6686 11.5851 79.9678 11.529 79.1455C11.4263 77.688 11.4637 76.2304 11.4637 74.7729C11.4637 73.8478 11.4637 72.9227 11.4637 71.9884C11.4637 71.6987 11.5851 71.5493 11.8747 71.6054C12.127 71.6521 12.3793 71.6614 12.641 71.652C12.9026 71.652 12.968 71.7735 12.968 72.0165C12.9586 72.8293 12.968 73.6329 12.968 74.4457C12.968 75.6137 12.9399 76.7724 12.968 77.9403C12.9773 78.7532 13.0427 79.5753 13.6968 80.1733C14.491 80.8928 15.4534 81.1264 16.4905 80.9676C17.0231 80.8928 17.565 80.7807 18.0415 80.463C18.8451 79.9211 19.116 79.1082 19.1253 78.2205C19.1627 76.0902 19.1253 73.9599 19.1159 71.8296C19.1159 71.7923 19.0973 71.7548 19.0786 71.6801L19.0599 71.6707Z" fill="#575756"/>
<path d="M122.072 75.6249C122.007 76.7835 122.1 77.9516 121.951 79.1102C121.81 80.2127 121.278 81.0909 120.325 81.6329C118.531 82.6513 116.662 82.6607 114.831 81.773C113.84 81.2872 113.196 80.4556 112.981 79.3251C112.887 78.8205 112.859 78.3066 112.859 77.7927C112.859 75.896 112.859 74.0085 112.859 72.1118C112.859 71.6259 112.915 71.5792 113.392 71.654C113.569 71.682 113.738 71.654 113.915 71.6167C114.242 71.5513 114.382 71.7007 114.382 72.0184C114.373 73.9712 114.354 75.924 114.364 77.8768C114.364 78.5028 114.438 79.1381 114.756 79.6987C115.177 80.4462 115.887 80.8013 116.671 80.9321C117.634 81.0909 118.587 81.0348 119.437 80.4182C120.129 79.9136 120.484 79.2689 120.484 78.4186C120.484 76.3911 120.484 74.3543 120.484 72.3268C120.484 72.1679 120.465 72.0091 120.502 71.8596C120.53 71.7008 120.605 71.57 120.829 71.6354C121.166 71.7381 121.521 71.4951 121.876 71.6727C122.025 71.7474 122.072 71.7942 122.063 71.9624C122.053 73.1864 122.063 74.4103 122.063 75.6249H122.072Z" fill="#575756"/>
<path d="M51.125 71.6341C51.2558 71.5033 51.4054 71.5593 51.5362 71.5874C51.8632 71.6621 52.1902 71.6715 52.5359 71.6341C52.8909 71.5968 53.1713 71.6901 53.4236 72.0358C54.1711 73.0449 54.8437 74.1194 55.7033 75.0538C55.8435 75.2033 55.9182 75.3808 56.021 75.549C56.1892 75.82 56.3948 75.8293 56.5723 75.5677C57.4319 74.297 58.4036 73.1103 59.3193 71.8863C59.422 71.7462 59.5062 71.6527 59.693 71.6621C60.1976 71.6808 60.7115 71.6714 61.3094 71.5312C61.1786 71.7835 61.1507 71.9704 61.0292 72.1292C59.7959 73.6896 58.5718 75.2593 57.3384 76.8197C57.1422 77.0626 57.0395 77.3149 57.0489 77.6326C57.0675 79.0154 57.0581 80.389 57.0862 81.7718C57.0862 82.0614 56.974 82.1642 56.7217 82.1735C56.4695 82.1735 56.2079 82.1548 55.9556 82.1642C55.4511 82.1642 55.4323 82.1642 55.4323 81.6316C55.4323 80.3329 55.4323 79.0247 55.4323 77.726C55.4323 77.3709 55.3389 77.1 55.1147 76.8197C54.2925 75.7919 53.517 74.7268 52.7041 73.6803C52.1715 73.0076 51.6296 72.3442 51.1344 71.6341H51.125Z" fill="#575756"/>
<path d="M0.053143 76.6827C0.053143 75.169 0.053143 73.6461 0.053143 72.1324C0.053143 71.6839 0.0998491 71.6185 0.567024 71.6559C0.894046 71.6839 1.32387 71.497 1.52008 71.7586C1.66957 71.9642 1.57614 72.3661 1.57614 72.6744C1.57614 75.1785 1.57614 77.6824 1.57614 80.1865C1.57614 80.7471 1.58551 80.7472 2.12743 80.7472C3.97744 80.7472 5.83675 80.7472 7.68676 80.7285C7.91101 80.7285 8.02312 80.8032 8.02312 81.0181C8.02312 81.0368 8.02312 81.0555 8.02312 81.0742C8.10721 82.1487 8.10728 82.1487 7.04212 82.1487C4.85574 82.1487 2.66933 82.1486 0.473612 82.158C0.0905284 82.158 -0.030937 82.0552 0.00643694 81.7001C0.109215 80.7938 0.034456 79.8876 0.053143 78.9813C0.0624865 78.2151 0.053143 77.4395 0.053143 76.6733V76.6827Z" fill="#575756"/>
</svg>
