<svg width="204" height="36" viewBox="0 0 204 36" fill="none" xmlns="http://www.w3.org/2000/svg">
<path d="M0 17.8648C0 27.7128 8.02612 35.7295 17.8648 35.7295C27.7035 35.7295 35.7296 27.7035 35.7296 17.8648C35.7296 8.02606 27.7035 0 17.8648 0C8.02612 0 0 8.02606 0 17.8648ZM1.58841 17.8648C1.58841 8.93238 8.93243 1.47623 17.8648 1.47623C26.7972 1.47623 34.1412 8.93238 34.1412 17.8648C34.1412 26.7971 26.7972 34.2533 17.8648 34.2533C8.93243 34.2533 1.58841 26.7971 1.58841 17.8648ZM42.0551 17.8648C42.0551 27.7128 50.0811 35.7295 59.9198 35.7295C69.7585 35.7295 77.7846 27.7035 77.7846 17.8648C77.7846 8.02606 69.7585 0 59.9198 0C50.0811 0 42.0551 8.02606 42.0551 17.8648ZM43.6435 17.8648C43.6435 8.93238 50.9875 1.47623 59.9198 1.47623C68.8522 1.47623 76.1963 8.93238 76.1963 17.8648C76.1963 26.7971 68.8522 34.2533 59.9198 34.2533C50.9875 34.2533 43.6435 26.7971 43.6435 17.8648ZM84.1102 17.8648C84.1102 27.7128 92.1362 35.7295 101.975 35.7295C111.814 35.7295 119.84 27.7035 119.84 17.8648C119.84 8.02606 111.814 0 101.975 0C92.1362 0 84.1102 8.02606 84.1102 17.8648ZM85.7079 17.8648C85.7079 8.93238 93.0519 1.47623 101.984 1.47623C110.917 1.47623 118.261 8.93238 118.261 17.8648C118.261 26.7971 110.917 34.2533 101.984 34.2533C93.0519 34.2533 85.7079 26.7971 85.7079 17.8648ZM126.165 17.8648C126.165 27.7128 134.191 35.7295 144.03 35.7295C153.869 35.7295 161.895 27.7035 161.895 17.8648C161.895 8.02606 153.869 0 144.03 0C134.191 0 126.165 8.02606 126.165 17.8648ZM127.763 17.8648C127.763 8.93238 135.107 1.47623 144.039 1.47623C152.972 1.47623 160.316 8.93238 160.316 17.8648C160.316 26.7971 152.972 34.2533 144.039 34.2533C135.107 34.2533 127.763 26.7971 127.763 17.8648ZM168.22 17.8648C168.22 27.7128 176.246 35.7295 186.085 35.7295C195.924 35.7295 203.95 27.7035 203.95 17.8648C203.95 8.02606 195.924 0 186.085 0C176.246 0 168.22 8.02606 168.22 17.8648ZM169.818 17.8648C169.818 8.93238 177.162 1.47623 186.094 1.47623C195.027 1.47623 202.371 8.93238 202.371 17.8648C202.371 26.7971 195.027 34.2533 186.094 34.2533C177.162 34.2533 169.818 26.7971 169.818 17.8648ZM70.1136 25.433C67.7217 25.1527 64.9373 25.1527 62.5454 25.433L62.3118 24.9751L63.9656 23.667C63.9656 20.7051 63.732 18.033 63.3957 15.0711L59.5835 19.6867H59.2471L55.2014 14.9683C54.7436 18.2105 54.6875 20.2567 54.5193 23.3307L55.9396 24.9845L55.7713 25.4423C53.8933 25.2087 51.7256 25.162 49.8569 25.4423L49.7448 24.9845L51.5107 23.2186C52.1367 19.6307 52.361 16.7903 52.5385 12.7445L50.7726 10.8104L51.0062 10.4087H54.4166L59.4247 17.9209L64.4888 10.4087H68.5346L68.7028 10.8104L67.2825 12.0625C67.2825 16.1082 67.9086 21.163 68.5906 23.5549L70.2445 24.9751L70.1323 25.433H70.1136ZM107.048 25.433C107.048 25.433 104.544 25.1527 102.04 25.1527C99.5363 25.1527 97.0322 25.433 97.0322 25.433L95.2102 22.2469L95.612 21.9105L98.2842 23.6204C98.686 23.854 98.7981 23.854 99.7045 23.854C99.7045 23.854 100.041 21.6395 100.041 17.8741C100.041 14.1087 99.7045 11.8943 99.7045 11.8943C98.8542 11.8943 98.7981 11.8943 98.3403 12.1746L95.7241 13.8284L95.3878 13.492L97.3779 10.3059C97.3779 10.3059 100.106 10.5861 102.04 10.5861C103.974 10.5861 106.703 10.3059 106.703 10.3059L108.693 13.492L108.357 13.8284L105.74 12.1746C105.283 11.8943 105.226 11.8943 104.376 11.8943C104.376 11.8943 104.04 14.1087 104.04 17.8741C104.04 21.6395 104.376 23.854 104.376 23.854C105.283 23.854 105.404 23.854 105.796 23.6204L108.469 21.9105L108.87 22.2469L107.048 25.433ZM191.271 25.433C191.271 25.433 188.767 25.1527 186.263 25.1527C183.759 25.1527 181.255 25.433 181.255 25.433L179.433 22.2469L179.834 21.9105L182.507 23.6204C182.908 23.854 183.02 23.854 183.927 23.854C183.927 23.854 184.263 21.6395 184.263 17.8741C184.263 14.1087 183.927 11.8943 183.927 11.8943C183.076 11.8943 183.02 11.8943 182.563 12.1746L179.946 13.8284L179.61 13.492L181.6 10.3059C181.6 10.3059 184.329 10.5861 186.263 10.5861C188.197 10.5861 190.925 10.3059 190.925 10.3059L192.915 13.492L192.579 13.8284L189.963 12.1746C189.505 11.8943 189.449 11.8943 188.598 11.8943C188.598 11.8943 188.262 14.1087 188.262 17.8741C188.262 21.6395 188.598 23.854 188.598 23.854C189.505 23.854 189.626 23.854 190.019 23.6204L192.691 21.9105L193.093 22.2469L191.271 25.433ZM12.1185 23.5549L13.4827 24.9751L13.2491 25.433C11.4832 25.1994 10.063 25.1527 8.29703 25.433L8.12885 24.9751L10.1751 23.4334L15.9214 11.0814L14.8935 9.9975L15.1739 9.48367C17.2201 9.71726 18.36 9.71726 20.4062 9.48367L20.6398 9.9975L19.6681 11.0814C21.4901 14.4917 23.3681 19.1635 25.9282 23.5456L27.6381 24.9658L27.4699 25.4236C25.134 25.1433 23.256 25.1433 20.9855 25.4236L20.8173 24.9658L21.789 23.882C21.2751 22.4618 20.7613 21.0416 20.1913 19.7802L17.1173 25.4704H16.837L13.8191 19.7802L12.1092 23.5362H12.1185V23.5549ZM16.9585 12.922L14.1741 19.0701L16.9585 22.088L19.9764 19.0701C19.0701 17.1921 18.3226 15.37 16.9585 12.922ZM150.524 8.7642L151.094 16.9585L150.3 17.0706C149.674 14.3423 148.02 12.4082 145.235 12.4082C142.451 12.4082 140.62 14.5104 140.62 17.9301C140.62 21.3498 142.666 23.6204 145.684 23.6204C148.244 23.6204 150.066 22.2562 151.038 19.8082L151.888 20.1446C150.748 23.555 148.3 25.7787 144.32 25.7787C139.368 25.7787 136.069 22.7608 136.069 18.1545C136.069 13.5481 139.255 10.5301 143.694 10.5301C145.628 10.5301 147.338 11.1 148.814 12.6978L147.562 8.77356H150.524V8.7642Z" fill="#575756"/>
</svg>
