<svg width="101" height="18" viewBox="0 0 101 18" fill="none" xmlns="http://www.w3.org/2000/svg">
<path d="M0 8.66622C0 13.4435 3.94894 17.3324 8.7897 17.3324C13.6305 17.3324 17.5794 13.439 17.5794 8.66622C17.5794 3.89345 13.6305 0 8.7897 0C3.94894 0 0 3.89345 0 8.66622ZM0.781514 8.66622C0.781514 4.33311 4.39486 0.716122 8.7897 0.716122C13.1845 0.716122 16.7979 4.33311 16.7979 8.66622C16.7979 12.9993 13.1845 16.6163 8.7897 16.6163C4.39486 16.6163 0.781514 12.9993 0.781514 8.66622ZM20.6916 8.66622C20.6916 13.4435 24.6405 17.3324 29.4813 17.3324C34.322 17.3324 38.2709 13.439 38.2709 8.66622C38.2709 3.89345 34.322 0 29.4813 0C24.6405 0 20.6916 3.89345 20.6916 8.66622ZM21.4731 8.66622C21.4731 4.33311 25.0864 0.716122 29.4813 0.716122C33.8761 0.716122 37.4895 4.33311 37.4895 8.66622C37.4895 12.9993 33.8761 16.6163 29.4813 16.6163C25.0864 16.6163 21.4731 12.9993 21.4731 8.66622ZM41.3832 8.66622C41.3832 13.4435 45.3321 17.3324 50.1729 17.3324C55.0136 17.3324 58.9625 13.439 58.9625 8.66622C58.9625 3.89345 55.0136 0 50.1729 0C45.3321 0 41.3832 3.89345 41.3832 8.66622ZM42.1693 8.66622C42.1693 4.33311 45.7826 0.716122 50.1775 0.716122C54.5723 0.716122 58.1856 4.33311 58.1856 8.66622C58.1856 12.9993 54.5723 16.6163 50.1775 16.6163C45.7826 16.6163 42.1693 12.9993 42.1693 8.66622ZM62.0748 8.66622C62.0748 13.4435 66.0237 17.3324 70.8645 17.3324C75.7052 17.3324 79.6541 13.439 79.6541 8.66622C79.6541 3.89345 75.7052 0 70.8645 0C66.0237 0 62.0748 3.89345 62.0748 8.66622ZM62.8609 8.66622C62.8609 4.33311 66.4742 0.716122 70.8691 0.716122C75.2639 0.716122 78.8772 4.33311 78.8772 8.66622C78.8772 12.9993 75.2639 16.6163 70.8691 16.6163C66.4742 16.6163 62.8609 12.9993 62.8609 8.66622ZM82.7664 8.66622C82.7664 13.4435 86.7153 17.3324 91.5561 17.3324C96.3968 17.3324 100.346 13.439 100.346 8.66622C100.346 3.89345 96.3968 0 91.5561 0C86.7153 0 82.7664 3.89345 82.7664 8.66622ZM83.5525 8.66622C83.5525 4.33311 87.1658 0.716122 91.5607 0.716122C95.9555 0.716122 99.5688 4.33311 99.5688 8.66622C99.5688 12.9993 95.9555 16.6163 91.5607 16.6163C87.1658 16.6163 83.5525 12.9993 83.5525 8.66622ZM34.4967 12.3376C33.3199 12.2016 31.9499 12.2016 30.7731 12.3376L30.6581 12.1155L31.4718 11.4809C31.4718 10.0441 31.3569 8.74781 31.1914 7.311L29.3158 9.55005H29.1503L27.1597 7.26115C26.9345 8.83394 26.9069 9.82654 26.8242 11.3178L27.5229 12.12L27.4402 12.3421C26.5161 12.2288 25.4496 12.2061 24.5302 12.3421L24.475 12.12L25.3439 11.2634C25.6519 9.52287 25.7622 8.14499 25.8496 6.1824L24.9807 5.24413L25.0956 5.04926H26.7736L29.2376 8.69345L31.7293 5.04926H33.7198L33.8026 5.24413L33.1038 5.85153C33.1038 7.81412 33.4118 10.2662 33.7474 11.4265L34.5611 12.1155L34.5059 12.3376H34.4967ZM52.6691 12.3376C52.6691 12.3376 51.4371 12.2016 50.2051 12.2016C48.973 12.2016 47.741 12.3376 47.741 12.3376L46.8446 10.792L47.0422 10.6288L48.357 11.4583C48.5547 11.5716 48.6099 11.5716 49.0558 11.5716C49.0558 11.5716 49.2213 10.4974 49.2213 8.67076C49.2213 6.84414 49.0558 5.76992 49.0558 5.76992C48.6374 5.76992 48.6098 5.76994 48.3846 5.90592L47.0974 6.70819L46.9319 6.54497L47.9111 4.99941C47.9111 4.99941 49.2535 5.13535 50.2051 5.13535C51.1567 5.13535 52.499 4.99941 52.499 4.99941L53.4782 6.54497L53.3127 6.70819L52.0255 5.90592C51.8003 5.76994 51.7727 5.76992 51.3543 5.76992C51.3543 5.76992 51.1888 6.84414 51.1888 8.67076C51.1888 10.4974 51.3543 11.5716 51.3543 11.5716C51.8003 11.5716 51.86 11.5716 52.0531 11.4583L53.3679 10.6288L53.5655 10.792L52.6691 12.3376ZM94.1075 12.3376C94.1075 12.3376 92.8754 12.2016 91.6434 12.2016C90.4114 12.2016 89.1794 12.3376 89.1794 12.3376L88.2829 10.792L88.4806 10.6288L89.7954 11.4583C89.993 11.5716 90.0482 11.5716 90.4941 11.5716C90.4941 11.5716 90.6596 10.4974 90.6596 8.67076C90.6596 6.84414 90.4941 5.76992 90.4941 5.76992C90.0758 5.76992 90.0482 5.76994 89.8229 5.90592L88.5358 6.70819L88.3703 6.54497L89.3495 4.99941C89.3495 4.99941 90.6918 5.13535 91.6434 5.13535C92.595 5.13535 93.9374 4.99941 93.9374 4.99941L94.9166 6.54497L94.7511 6.70819L93.4639 5.90592C93.2386 5.76994 93.211 5.76992 92.7927 5.76992C92.7927 5.76992 92.6272 6.84414 92.6272 8.67076C92.6272 10.4974 92.7927 11.5716 92.7927 11.5716C93.2386 11.5716 93.2984 11.5716 93.4915 11.4583L94.8062 10.6288L95.0039 10.792L94.1075 12.3376ZM5.96247 11.4265L6.63366 12.1155L6.51873 12.3376C5.64987 12.2243 4.95109 12.2016 4.08224 12.3376L3.99949 12.1155L5.00626 11.3676L7.83349 5.37559L7.3278 4.8498L7.46573 4.60054C8.4725 4.71386 9.03333 4.71386 10.0401 4.60054L10.155 4.8498L9.67694 5.37559C10.5734 7.02997 11.4974 9.29623 12.757 11.422L13.5983 12.1109L13.5155 12.333C12.3662 12.1971 11.4422 12.1971 10.3251 12.333L10.2424 12.1109L10.7205 11.5852C10.4676 10.8963 10.2148 10.2073 9.93438 9.59542L8.42191 12.3557H8.284L6.79914 9.59542L5.95787 11.4175H5.96247V11.4265ZM8.34377 6.26849L6.97384 9.25094L8.34377 10.7149L9.82862 9.25094C9.3827 8.3399 9.01495 7.45602 8.34377 6.26849ZM74.0595 4.25153L74.3399 8.22658L73.9491 8.28097C73.6411 6.95747 72.8274 6.01923 71.4575 6.01923C70.0875 6.01923 69.1865 7.03902 69.1865 8.69793C69.1865 10.3568 70.1933 11.4583 71.6782 11.4583C72.9378 11.4583 73.8342 10.7965 74.3123 9.60897L74.7307 9.77219C74.1698 11.4266 72.9653 12.5053 71.007 12.5053C68.5705 12.5053 66.9477 11.0413 66.9477 8.80676C66.9477 6.57221 68.5154 5.10819 70.699 5.10819C71.6506 5.10819 72.4918 5.38465 73.2182 6.15971L72.6022 4.25607H74.0595V4.25153Z" fill="#575756"/>
</svg>
