<svg width="181" height="38" viewBox="0 0 181 38" fill="none" xmlns="http://www.w3.org/2000/svg">
<path d="M11.8381 3.46952L10.8197 4.32916C10.3993 3.54431 9.82925 2.90892 9.11915 2.4324C8.40904 1.95588 7.58691 1.71305 6.65257 1.71305C5.44725 1.71305 4.4848 2.09611 3.7747 2.86228C3.06459 3.62845 2.70952 4.5628 2.70952 5.66533C2.70952 6.53427 2.93385 7.24429 3.38234 7.79556C3.83083 8.34683 4.84917 9.00097 6.43757 9.76714C8.45576 10.7669 9.5957 11.3462 9.85732 11.505C10.1189 11.6639 10.3899 11.832 10.6702 12.0001C11.4551 12.5701 12.025 13.1869 12.3894 13.8502C12.7538 14.5043 12.9314 15.261 12.9314 16.1113C12.9314 17.8679 12.2866 19.3441 10.9878 20.5308C9.69844 21.7174 8.13819 22.3154 6.30686 22.3154C5.30711 22.3154 4.40075 22.1379 3.58787 21.7922C2.77499 21.4465 2.03685 20.8765 1.37347 20.0916C1.05579 19.7553 0.775469 19.3909 0.541882 18.9985C0.308294 18.6061 0.130809 18.1949 0 17.7745L1.20523 17.2045C1.30801 17.5409 1.46686 17.9053 1.68176 18.2884C1.89666 18.6715 2.12087 18.9891 2.34511 19.2413C2.81229 19.8393 3.39158 20.2879 4.09234 20.5962C4.7931 20.9046 5.53125 21.054 6.3161 21.054C7.755 21.0727 8.96968 20.6149 9.96008 19.6712C10.9505 18.7275 11.4364 17.5596 11.4364 16.1581C11.4364 15.4573 11.2588 14.8313 10.9131 14.28C10.5674 13.7287 10.0442 13.2428 9.37144 12.813C9.11917 12.6822 8.75484 12.5047 8.27832 12.2524C7.80181 12.0095 6.84872 11.5237 5.42851 10.8043C4.24189 10.2343 3.41967 9.76712 2.98052 9.40273C2.53203 9.03833 2.17695 8.62714 1.89664 8.15997C1.64437 7.77689 1.4669 7.39381 1.37347 7.00139C1.28003 6.60896 1.23329 6.18852 1.23329 5.74004C1.23329 4.18902 1.73784 2.9276 2.75629 1.95587C3.77473 0.984151 5.08276 0.479624 6.67116 0.460938C7.755 0.460938 8.74546 0.722628 9.64244 1.23652C10.5394 1.75976 11.2682 2.50714 11.8194 3.47887L11.8381 3.46952Z" fill="#575756"/>
<path d="M26.5731 0.4375C29.6658 0.4375 32.282 1.50269 34.4029 3.62366C36.5239 5.74464 37.5797 8.33284 37.5797 11.3882C37.561 14.4622 36.4865 17.0503 34.3655 19.1525C32.2445 21.2548 29.6471 22.3013 26.5731 22.3013C23.4991 22.3013 20.8642 21.2548 18.7432 19.1525C16.6222 17.0503 15.5664 14.4622 15.5664 11.3882C15.5664 8.31415 16.6222 5.754 18.7339 3.64237C20.8455 1.53074 23.4617 0.46554 26.5731 0.446853V0.4375ZM26.5731 21.0212C29.292 21.0212 31.5532 20.0963 33.3845 18.2556C35.2065 16.4149 36.1221 14.1165 36.1221 11.3882C36.1034 8.66921 35.1878 6.37996 33.3658 4.5206C31.5532 2.6519 29.292 1.71755 26.5731 1.71755C23.8541 1.71755 21.5649 2.6519 19.7523 4.5206C17.9396 6.3893 17.0334 8.67855 17.0334 11.3882C17.0334 14.0978 17.9396 16.4149 19.7523 18.2556C21.5649 20.0963 23.8448 21.0212 26.5731 21.0212Z" fill="#575756"/>
<path d="M42.7648 0.726562V9.73371H55.6215V0.726562H57.023V21.9456H55.6215V11.0044H42.7648V21.9456H41.3633V0.726562H42.7648Z" fill="#575756"/>
<path d="M71.8153 0.4375C74.908 0.4375 77.5241 1.50269 79.6451 3.62366C81.7661 5.74464 82.8218 8.33284 82.8218 11.3882C82.8031 14.4622 81.7287 17.0503 79.6077 19.1525C77.4867 21.2548 74.8893 22.3013 71.8153 22.3013C68.7412 22.3013 66.1064 21.2548 63.9854 19.1525C61.8644 17.0503 60.8086 14.4622 60.8086 11.3882C60.8086 8.31415 61.8644 5.754 63.9761 3.64237C66.0877 1.53074 68.7039 0.46554 71.8153 0.446853V0.4375ZM71.8153 21.0212C74.5342 21.0212 76.7953 20.0963 78.6266 18.2556C80.4486 16.4149 81.3643 14.1165 81.3643 11.3882C81.3456 8.66921 80.4299 6.37996 78.6079 4.5206C76.7952 2.6519 74.5342 1.71755 71.8153 1.71755C69.0963 1.71755 66.8071 2.6519 64.9945 4.5206C63.1818 6.3893 62.2755 8.67855 62.2755 11.3882C62.2755 14.0978 63.1818 16.4149 64.9945 18.2556C66.8071 20.0963 69.087 21.0212 71.8153 21.0212Z" fill="#575756"/>
<path d="M101.815 0.728103V1.9988H94.6203V9.69784H101.619V10.9685H94.6203V21.9378H93.2188V0.71875H101.805L101.815 0.728103Z" fill="#575756"/>
<path d="M119.141 21.9482L116.356 14.9873H107.265L104.443 21.9482H102.93L111.871 0.09375L120.682 21.9482H119.141ZM107.779 13.7073H115.852L111.843 3.67238L107.779 13.7073Z" fill="#575756"/>
<path d="M124.38 21.9479H122.969L125.389 0L134.583 19.64L143.777 0L146.197 21.9479H144.786L142.917 4.90534L134.583 22.7047L126.248 4.90534L124.38 21.9479Z" fill="#575756"/>
<path d="M150.906 0.726562H152.308V21.9456H150.906V0.726562Z" fill="#575756"/>
<path d="M157.234 0.726562H158.636V20.6749H164.55V21.9456H157.234V0.726562Z" fill="#575756"/>
<path d="M171.623 21.9456V12.8825L164.652 0.726562H166.231L172.351 11.4435L178.593 0.726562H180.181L173.024 12.8825V21.9456H171.623Z" fill="#575756"/>
<path d="M59.2301 34.8206C59.2301 35.6428 58.9405 36.3248 58.3706 36.8854C57.8006 37.4367 57.0905 37.717 56.2402 37.717C55.5301 37.717 54.9135 37.5022 54.3996 37.063C53.8483 36.5865 53.4932 35.9325 53.3438 35.1009L54.4556 34.8673C54.5116 35.4186 54.7079 35.8483 55.0536 36.166C55.3899 36.4837 55.8197 36.6332 56.343 36.6332C56.8195 36.6332 57.2307 36.4557 57.567 36.1006C57.9034 35.7456 58.0715 35.3158 58.0715 34.8206C58.0715 34.3814 57.922 34.0171 57.6137 33.7088C57.3334 33.4378 56.8756 33.1761 56.2496 32.9332C55.3806 32.6061 54.7639 32.2417 54.3809 31.8586C53.9791 31.4475 53.7735 30.9523 53.7735 30.3637C53.7735 29.6723 54.0445 29.1024 54.577 28.6445C55.1096 28.1867 55.773 27.9531 56.5485 27.9531C57.595 27.9531 58.3892 28.4297 58.9498 29.3734L58.0155 29.9339C57.6604 29.3453 57.1652 29.0462 56.5392 29.0462C56.1 29.0462 55.7263 29.1771 55.418 29.4294C55.1096 29.6816 54.9508 29.9993 54.9508 30.3637C54.9508 30.6907 55.0817 30.9617 55.3433 31.1859C55.6049 31.4102 56.044 31.6344 56.67 31.868C57.595 32.2044 58.2584 32.6062 58.6508 33.064C59.0526 33.5218 59.2488 34.1105 59.2488 34.8299L59.2301 34.8206Z" fill="#575756"/>
<path d="M62.5078 37.5122H61.3398V28.1406H62.5078V37.5122Z" fill="#575756"/>
<path d="M72.7606 37.7186L66.1173 30.7577V37.513H64.9961V27.9453L71.6393 34.9062V28.1415H72.7606V37.7092V37.7186Z" fill="#575756"/>
<path d="M82.14 37.0552C81.3365 37.4944 80.5424 37.7186 79.7669 37.7186C78.2345 37.7186 77.0198 37.2795 76.1229 36.3825C75.2259 35.4949 74.7773 34.3082 74.7773 32.8319C74.7773 31.3557 75.2633 30.1878 76.2443 29.2721C77.188 28.3938 78.3652 27.9453 79.7761 27.9453C80.6918 27.9453 81.4766 28.1508 82.1213 28.5806V29.9542C81.4486 29.3282 80.6171 29.0198 79.6454 29.0198C78.5896 29.0198 77.7206 29.3562 77.0292 30.0289C76.3004 30.739 75.9453 31.6733 75.9453 32.8319C75.9453 33.9905 76.3097 34.9529 77.0292 35.6537C77.7112 36.3171 78.5802 36.6534 79.636 36.6534C80.5704 36.6534 81.4019 36.3264 82.14 35.6724V37.0646V37.0552Z" fill="#575756"/>
<path d="M89.3463 29.2151H85.4687V31.8407H89.2155V32.9058H85.4687V36.447H89.3369V37.5122H84.3008V28.1406H89.3463V29.2058V29.2151Z" fill="#575756"/>
<path d="M101.791 37.513H95.7461L99.9507 32.3554C100.446 31.7574 100.689 31.2435 100.689 30.8137C100.689 30.3279 100.511 29.8981 100.147 29.543C99.7824 29.188 99.362 29.0105 98.8574 29.0105C98.3529 29.0105 97.9699 29.1693 97.6241 29.4964C97.2784 29.8234 97.0822 30.2345 97.0449 30.7297H95.8769C95.9704 29.8794 96.2787 29.2066 96.8019 28.7021C97.3251 28.1975 97.9978 27.9453 98.8294 27.9453C99.661 27.9453 100.352 28.2163 100.922 28.7582C101.492 29.3001 101.782 29.9635 101.782 30.7577C101.782 31.4865 101.52 32.1779 100.997 32.8132L98.0165 36.4572H101.782V37.5224L101.791 37.513Z" fill="#575756"/>
<path d="M110.068 32.8319C110.068 34.2335 109.759 35.4014 109.143 36.3264C108.526 37.2514 107.751 37.7186 106.798 37.7186C105.845 37.7186 105.069 37.2514 104.452 36.3264C103.836 35.4014 103.527 34.2335 103.527 32.8319C103.527 31.4304 103.836 30.2718 104.452 29.3375C105.069 28.4125 105.854 27.9453 106.798 27.9453C107.741 27.9453 108.526 28.4125 109.143 29.3375C109.759 30.2625 110.068 31.4304 110.068 32.8319ZM108.956 32.8319C108.956 31.7107 108.76 30.7857 108.358 30.057C107.956 29.3282 107.442 28.9731 106.807 28.9731C106.172 28.9731 105.658 29.3375 105.256 30.057C104.854 30.7857 104.658 31.7014 104.658 32.8319C104.658 33.9625 104.854 34.8781 105.256 35.6069C105.658 36.3357 106.172 36.6908 106.807 36.6908C107.442 36.6908 107.956 36.3264 108.358 35.6069C108.76 34.8781 108.956 33.9625 108.956 32.8319Z" fill="#575756"/>
<path d="M118.103 32.8319C118.103 34.2335 117.795 35.4014 117.178 36.3264C116.561 37.2514 115.786 37.7186 114.833 37.7186C113.88 37.7186 113.104 37.2514 112.487 36.3264C111.871 35.4014 111.562 34.2335 111.562 32.8319C111.562 31.4304 111.871 30.2718 112.487 29.3375C113.104 28.4125 113.889 27.9453 114.833 27.9453C115.776 27.9453 116.561 28.4125 117.178 29.3375C117.795 30.2625 118.103 31.4304 118.103 32.8319ZM116.982 32.8319C116.982 31.7107 116.786 30.7857 116.384 30.057C115.982 29.3282 115.468 28.9731 114.833 28.9731C114.197 28.9731 113.684 29.3375 113.282 30.057C112.88 30.7857 112.684 31.7014 112.684 32.8319C112.684 33.9625 112.88 34.8781 113.282 35.6069C113.684 36.3357 114.197 36.6908 114.833 36.6908C115.468 36.6908 115.982 36.3264 116.384 35.6069C116.786 34.8781 116.982 33.9625 116.982 32.8319Z" fill="#575756"/>
<path d="M126.605 28.1406L121.737 37.7084L120.766 37.1478L124.755 29.2058H119.859V28.1406H126.605Z" fill="#575756"/>
</svg>
