<svg width="142" height="42" viewBox="0 0 142 42" fill="none" xmlns="http://www.w3.org/2000/svg">
<path d="M125.627 23.9364H117.01C116.966 24.8416 116.91 25.7245 116.865 26.5962C116.697 29.5577 116.15 32.4298 114.675 35.0449C112.775 38.4199 109.824 40.2751 106.036 40.845C103.734 41.1915 101.443 41.1021 99.2411 40.2975C95.6985 39.0011 93.4411 36.4195 92.0665 32.9774C91.0383 30.3959 90.6248 27.7026 90.6137 24.9423C90.6137 23.9029 90.6025 23.8917 89.552 23.8917C88.2444 23.8917 86.9369 23.8917 85.5958 23.8917C85.5288 25.1433 85.4953 26.3169 85.3947 27.4903C85.1376 30.396 84.4782 33.1786 82.8913 35.6819C81.3603 38.0847 79.1922 39.6269 76.4989 40.4316C73.828 41.225 71.1346 41.2585 68.4525 40.4873C64.9657 39.4704 62.6077 37.1348 61.0655 33.9163C59.7244 31.1 59.2327 28.1049 59.1992 25.0092C59.188 23.8917 59.1992 23.8917 58.1151 23.8917C55.7683 23.8917 53.4214 23.8917 51.0745 23.8917C50.8846 23.8917 50.6946 23.9253 50.3928 23.9476C50.5828 24.5846 50.7281 25.1433 50.9069 25.6909C51.9686 28.9765 53.0415 32.251 54.092 35.5367C54.2372 35.9949 54.4272 36.2295 54.9636 36.2072C55.9024 36.1625 56.8411 36.1736 57.7799 36.2072C58.0593 36.2072 58.3945 36.2742 58.6068 36.4418C59.3109 37.0118 59.2997 39.2469 58.6068 39.8168C58.4616 39.9398 58.2045 39.9733 57.9922 39.9733C55.2989 39.9733 52.6056 39.9733 49.9123 39.9845C49.3982 39.9845 49.0853 39.7834 49.0182 39.314C48.9288 38.6435 48.8506 37.9506 48.8953 37.2689C48.9512 36.5313 49.4205 36.1513 50.2028 36.1848C50.8622 36.2183 51.5215 36.1848 52.3038 36.1848C51.9909 35.179 51.7227 34.285 51.4434 33.4133C50.4934 30.4853 49.5211 27.5573 48.5935 24.6181C48.4259 24.0929 48.1689 23.8917 47.599 23.8917C44.0451 23.9029 40.4801 23.8917 36.9262 23.8805C36.4457 23.8805 36.2892 24.1152 36.1663 24.5064C35.194 27.6691 34.2106 30.8205 33.2271 33.972C33.0483 34.542 32.8695 35.1008 32.6907 35.6708C32.5566 36.0954 32.7131 36.2631 33.149 36.2407C33.7189 36.2184 34.2888 36.2631 34.8476 36.2295C35.5293 36.1848 35.8646 36.5536 35.9875 37.1347C36.0769 37.5705 36.1328 38.0288 36.077 38.4535C35.8982 39.9845 35.6522 39.9957 34.4788 39.9957C29.8856 39.9622 25.2925 39.9845 20.6882 39.9845C19.7048 39.9845 19.5595 39.8728 19.3583 38.9005C19.3024 38.6099 19.2801 38.3082 19.2801 38.0176C19.3024 36.4865 19.6042 36.196 21.1017 36.196C21.694 36.196 22.2863 36.1513 22.8786 36.196C23.5045 36.2519 23.6274 35.9614 23.6274 35.4249C23.6162 25.5122 23.6162 15.6107 23.605 5.69798C23.605 5.45212 23.5827 5.21734 23.5603 4.90442C23.2586 4.89325 23.0016 4.87086 22.7333 4.87086C18.2072 4.87086 13.6923 4.89333 9.1662 4.84863C8.36156 4.84863 8.22744 5.12801 8.23862 5.82089C8.26097 14.0014 8.2498 22.1819 8.2498 30.3512C8.2498 32.251 8.2498 34.1509 8.2498 36.2295C9.2556 36.2295 10.2055 36.2519 11.1554 36.2295C11.703 36.2072 12.0383 36.4419 12.1166 36.9336C12.2171 37.5594 12.3289 38.2076 12.2507 38.8334C12.1277 39.8168 11.8483 39.9845 10.8202 39.9845C7.61278 39.9845 4.39423 39.9733 1.18684 39.9957C0.471607 39.9957 0.0916736 39.7052 0.0357958 39.057C-0.0200819 38.3753 -0.00895277 37.6823 0.0581006 37.0118C0.113978 36.5312 0.449264 36.2407 0.985691 36.2407C2.59497 36.2407 4.19307 36.196 5.80235 36.2407C6.40583 36.2519 6.64052 36.1401 6.64052 35.5031C6.61817 25.8474 6.62932 16.1806 6.61815 6.52496C6.61815 4.89333 6.58468 4.89324 4.93069 4.89324C3.76844 4.89324 2.60612 4.88206 1.44386 4.89324C0.76215 4.90441 0.337481 4.61387 0.259252 3.94334C0.192199 3.38456 0.147521 2.80342 0.214575 2.25582C0.315155 1.3953 0.672797 1.14945 1.56684 1.14945C10.9543 1.14945 20.3417 1.14945 29.7292 1.14945C30.802 1.14945 31.1821 1.48474 31.2491 2.56877C31.2603 2.79228 31.2715 3.01577 31.2491 3.23928C31.1597 4.62504 30.8803 4.89324 29.5169 4.89324C28.3323 4.89324 27.1476 4.89321 25.963 4.87086C25.4043 4.85969 25.1808 5.04974 25.1808 5.64205C25.192 15.5995 25.1919 25.5569 25.1919 35.5143C25.1919 35.7266 25.2255 35.9501 25.2478 36.2295C26.4213 36.2295 27.55 36.2295 28.6787 36.2295C30.5004 36.2295 30.5115 36.2295 31.048 34.5196C32.0761 31.2452 33.0819 27.9709 34.0989 24.6964C34.1659 24.4953 34.1883 24.2829 34.2553 23.9812C33.9201 23.9588 33.663 23.9252 33.406 23.9252C32.199 23.9252 30.9809 23.9252 29.7739 23.9252C29.1928 23.9252 28.824 23.657 28.7569 23.0759C28.6899 22.4948 28.6117 21.8913 28.6676 21.3102C28.7346 20.5056 29.1816 20.1703 29.9975 20.1703C31.6291 20.1703 33.2607 20.1703 34.8924 20.1703C35.317 20.1703 35.5182 20.0809 35.6635 19.6115C37.5521 13.4873 39.4631 7.36302 41.3742 1.25C41.43 1.08236 41.4524 0.892454 41.5529 0.769523C41.7094 0.568363 41.9553 0.24419 42.1117 0.266541C42.3352 0.300068 42.6147 0.568395 42.7041 0.803082C43.3746 2.7141 44.0116 4.625 44.6486 6.5472C46.0679 10.8833 47.4983 15.2195 48.8841 19.5667C49.0517 20.092 49.3311 20.1815 49.8005 20.1815C52.6391 20.1703 55.4777 20.1591 58.3275 20.1815C58.998 20.1815 59.1656 19.9467 59.1544 19.3209C59.1433 16.4041 59.378 13.4985 60.1044 10.6599C60.8643 7.74304 61.9483 4.93792 64.3064 2.91514C67.5361 0.143604 71.3134 -0.526814 75.4149 0.378406C79.6839 1.32833 82.2655 4.14446 83.7965 8.08943C84.7688 10.5816 85.16 13.1855 85.3611 15.823C85.4505 17.0523 85.4841 18.2928 85.5176 19.5221C85.5176 19.9915 85.6852 20.1814 86.1657 20.1703C87.3727 20.1479 88.5908 20.1367 89.7978 20.1703C90.4013 20.1926 90.5242 19.9356 90.5689 19.388C90.7477 16.9853 90.9042 14.5713 91.2283 12.1797C91.53 9.88873 92.3235 7.73182 93.4858 5.72022C95.6091 2.03228 98.9171 0.255431 103.041 0.0542709C109.389 -0.258645 113.702 3.03809 115.636 9.21817C116.664 12.5038 116.899 15.9012 116.954 19.3097C116.966 19.9914 117.144 20.1926 117.826 20.1815C120.318 20.1479 122.822 20.1703 125.314 20.1591C125.526 20.1591 125.738 20.1255 126.096 20.1031C125.627 18.9185 125.202 17.8233 124.766 16.7393C123.503 13.5543 122.252 10.3581 120.978 7.17309C120.609 6.23435 120.207 5.30676 119.815 4.36802C119.402 3.38457 119.257 2.3788 119.48 1.3283C119.592 0.825401 119.838 0.579489 120.385 0.579489C127.057 0.590665 133.729 0.590665 140.401 0.579489C140.971 0.579489 141.295 0.803071 141.395 1.35067C141.462 1.74182 141.574 2.12169 141.574 2.51284C141.585 4.96028 141.597 7.40781 141.574 9.85525C141.574 10.3135 141.485 10.794 141.328 11.2298C141.261 11.431 140.96 11.6433 140.747 11.6657C140.58 11.688 140.289 11.4422 140.233 11.2634C140.099 10.8499 140.021 10.4028 140.01 9.96698C139.987 8.14537 140.01 6.32381 140.01 4.43514H122.14C122.386 5.10567 122.587 5.74265 122.844 6.36849C124.643 10.9058 126.431 15.4541 128.275 19.9802C128.644 20.8966 129.024 21.7795 128.745 22.7518C128.566 23.3776 128.231 23.9588 127.918 24.5399C125.94 28.2949 123.95 32.0387 121.961 35.7825C121.827 36.0395 121.726 36.3078 121.559 36.6766H139.965C139.976 36.4084 140.01 36.1512 140.01 35.8942C140.01 34.2626 139.998 32.6309 140.032 30.9993C140.043 30.4294 140.077 29.6359 140.825 29.6359C141.529 29.6359 141.574 30.4183 141.585 30.9547C141.619 33.6257 141.63 36.2965 141.585 38.9563C141.574 40.2303 141.25 40.5097 139.987 40.5097C133.193 40.5209 126.398 40.5097 119.603 40.5321C118.921 40.5321 118.541 40.2304 118.43 39.571C118.273 38.6434 118.34 37.7494 118.787 36.9112C121 32.7539 123.213 28.5966 125.425 24.4393C125.493 24.3163 125.537 24.1711 125.638 23.9252L125.627 23.9364ZM103.734 3.74226C103.544 3.75343 103.175 3.7757 102.806 3.79805C98.0901 4.04392 94.3015 7.11727 93.2957 11.6992C92.8152 13.9008 92.5358 16.1693 92.357 18.4156C92.1 21.6342 91.9436 24.8863 92.5135 28.0825C93.1393 31.6028 94.9721 34.3744 98.2242 35.9837C101.689 37.6936 105.287 37.6711 108.852 36.3077C111.054 35.4695 112.719 33.9609 113.803 31.8599C115.01 29.5242 115.278 26.9762 115.334 24.3947C115.334 23.97 115.122 23.8805 114.786 23.9029C114.149 23.9476 113.814 23.6012 113.736 23.0089C113.669 22.4501 113.579 21.869 113.669 21.3326C113.747 20.8073 113.848 20.1256 114.641 20.1703C115.278 20.2038 115.39 19.8686 115.356 19.3545C115.256 17.9017 115.222 16.4376 115.043 14.996C114.719 12.4368 114.127 9.93339 112.54 7.81004C110.394 4.93792 107.399 3.78696 103.734 3.74226ZM60.6743 20.0697C61.099 20.1144 61.289 20.1479 61.4902 20.1479C68.7543 20.1479 76.0072 20.1479 83.2713 20.1591C83.8413 20.1591 83.9865 19.9579 83.9642 19.4215C83.8748 16.8511 83.763 14.2808 83.0366 11.7998C82.3102 9.31882 81.1368 7.09484 78.8905 5.60849C76.0184 3.69747 72.8781 3.3622 69.6036 4.06626C67.2009 4.58033 65.1334 5.75384 63.6582 7.77662C62.5854 9.25179 61.926 10.9392 61.6355 12.7273C61.2443 15.1301 60.9984 17.5552 60.6855 20.0585L60.6743 20.0697ZM60.7749 23.9476C60.7414 28.8649 61.8143 33.2569 66.3851 35.7267C70.7882 38.1183 75.3814 37.9953 79.561 35.112C83.4166 32.4522 83.8748 28.2726 83.9195 23.9476H60.7749ZM47.0625 20.0809C45.4644 15.1748 43.8774 10.3022 42.3017 5.42964C42.2235 5.42964 42.1565 5.44084 42.0782 5.45201C40.5807 10.291 39.0831 15.1413 37.5521 20.0809H47.0625Z" fill="#575756"/>
</svg>
