<svg width="46" height="41" viewBox="0 0 46 41" fill="none" xmlns="http://www.w3.org/2000/svg">
<path d="M20.3727 27.258C20.1891 27.0377 19.978 26.9413 19.7301 26.9642C19.4822 26.9872 19.2894 27.1249 19.1563 27.3774C19.0232 27.6298 18.9727 27.942 19.014 28.3137C19.0508 28.6855 19.1563 28.9747 19.3354 29.1813C19.5098 29.3878 19.7255 29.4796 19.9825 29.4567C20.2396 29.4291 20.4324 29.3006 20.5609 29.0619C20.694 28.8232 20.7399 28.5157 20.7032 28.1439C20.6665 27.7721 20.5563 27.4783 20.3773 27.2534L20.3727 27.258Z" fill="#575756"/>
<path d="M33.3906 8.95897L33.487 9.21603L34.2352 9.74844L33.4228 8.86719L33.3906 8.95897Z" fill="#575756"/>
<path d="M27.2344 23.1021L29.4514 22.028H29.456V22.0234L27.239 23.0929V23.1021H27.2344Z" fill="#575756"/>
<path d="M23.1248 17.9609C23.1248 17.9609 23.1103 17.9754 23.1055 17.9754C23.1199 17.9754 23.1248 17.9658 23.1248 17.9609Z" fill="#575756"/>
<path d="M21.7579 11.6848C21.735 11.7995 21.7258 11.9327 21.7441 12.0933C21.7579 12.2448 21.813 12.4192 21.8222 12.5936C21.8222 12.6074 21.8222 12.6165 21.8222 12.6257C21.8222 12.6349 21.8268 12.6441 21.8314 12.6533C21.8314 12.4834 21.8176 12.332 21.7854 12.1208C21.7487 11.873 21.813 11.5241 21.9691 11.3451C21.9599 11.3451 21.9553 11.3405 21.9461 11.3359C21.8589 11.4369 21.7992 11.5471 21.7533 11.6802L21.7579 11.6848Z" fill="#575756"/>
<path d="M24.28 10.1672C24.3442 10.4151 24.4223 10.6399 24.4911 10.8878C24.5141 10.9658 24.5416 11.0485 24.5554 11.1311C24.5692 11.1494 24.5783 11.1678 24.5875 11.1908C24.5416 10.718 24.28 10.2865 24.1973 9.84131C24.1928 9.80459 24.1882 9.76328 24.1836 9.72656C24.1836 9.74951 24.1836 9.77247 24.1836 9.79542C24.1836 9.91018 24.2478 10.0433 24.28 10.1672Z" fill="#575756"/>
<path d="M24.2969 7.62742C24.3106 7.54939 24.3198 7.4668 24.3244 7.375C24.3152 7.45303 24.3106 7.53562 24.2969 7.62742Z" fill="#575756"/>
<path d="M23.542 16.727C23.5282 16.704 23.5099 16.6811 23.4915 16.6627C23.4319 16.6031 23.1932 16.4837 22.9453 16.3047C23.0738 16.4057 23.2345 16.5158 23.441 16.6352C23.4778 16.6535 23.5099 16.6857 23.5374 16.7224L23.542 16.727Z" fill="#575756"/>
<path d="M26.9296 6.89062C26.8929 7.11554 26.8745 7.36341 26.8332 7.58832C26.7414 7.54701 26.7001 7.45061 26.668 7.34963C26.723 7.16603 26.7322 6.93653 26.925 6.89062H26.9296Z" fill="#575756"/>
<path d="M24.9138 7.17052C24.9138 7.17052 25.0836 7.15679 25.2075 7.1522L25.4554 6.44531L25.6849 6.58304C25.7813 6.61517 25.7675 6.92267 25.6023 7.06496V7.07415L25.4554 7.221L25.1662 7.27614C25.0331 7.30827 24.8633 7.28527 24.8633 7.28527L24.9092 7.17971L24.9138 7.17052Z" fill="#575756"/>
<path d="M23.4701 7.49807L23.7685 7.4292L23.7868 7.42002C23.8327 7.3833 23.8832 7.34197 23.9199 7.28689C23.9383 7.25935 24.0163 7.07578 24.0347 7.03906C24.0714 7.05283 24.099 7.07574 24.1219 7.10787C24.1449 7.35114 24.053 7.51643 23.9108 7.61741C23.8557 7.65413 23.7914 7.64951 23.6904 7.64492L23.4609 7.59444L23.4701 7.50266V7.49807Z" fill="#575756"/>
<path d="M23.5475 15.4163C23.4832 15.3704 23.3639 15.2051 23.3455 15.0903C23.2951 14.792 23.3639 14.4707 23.3914 14.1907C23.419 13.9153 23.4741 13.6261 23.4786 13.337C23.4786 13.1809 23.4603 13.0156 23.4695 12.8504C23.4787 12.6989 23.5108 12.5245 23.4878 12.3823C23.4695 12.2537 23.4144 12.1022 23.3639 11.9875C23.2905 11.8222 22.7993 10.5508 22.7305 10.28C22.9967 10.1836 23.2721 10.0964 23.5337 10C23.8275 10.4728 24.0845 10.9823 24.3783 11.4551V11.6662C24.3462 11.7213 24.2819 11.7258 24.236 11.7626C24.08 11.8865 23.9009 12.0655 23.8137 12.2491C23.5751 12.7586 23.9193 13.4058 23.8826 13.8877C23.8642 14.1448 23.5613 14.4386 23.5842 14.6451C23.5934 14.7231 23.6668 14.8012 23.7081 14.8838C23.8275 15.1179 23.9698 15.352 24.0708 15.5723C23.8964 15.5494 23.6714 15.5081 23.5429 15.4071L23.5475 15.4163Z" fill="#575756"/>
<path d="M15.043 17.7578C15.0623 17.7626 15.0816 17.7675 15.043 17.7578V17.7578Z" fill="#575756"/>
<path d="M17.418 15.9385C17.4639 15.9109 17.597 15.8283 17.418 15.9385V15.9385Z" fill="#575756"/>
<path d="M17.2526 15.0938C17.1965 15.1031 17.2199 15.0938 17.2526 15.0938V15.0938Z" fill="#575756"/>
<path d="M17.9817 15.4013C17.7752 15.4839 18.1516 15.3325 17.9817 15.4013V15.4013Z" fill="#575756"/>
<path d="M17.4201 15.9453C17.3991 15.961 17.4044 15.9558 17.4201 15.9453V15.9453Z" fill="#575756"/>
<path d="M17.25 15.0933C17.2962 15.0886 17.3654 15.0794 17.25 15.0933V15.0933Z" fill="#575756"/>
<path d="M26.8325 7.58832C26.8738 7.36341 26.8876 7.11554 26.9289 6.89062C26.7361 6.93653 26.7224 7.16603 26.6719 7.34963C26.6994 7.45061 26.7407 7.54701 26.8371 7.58832H26.8325Z" fill="#575756"/>
<path d="M25.1694 7.27154L25.4586 7.21646L25.6055 7.06955V7.06036C25.7707 6.92266 25.7799 6.61058 25.6881 6.58763L25.4586 6.44531L25.2108 7.1522C25.0822 7.15679 24.917 7.17052 24.917 7.17052L24.8711 7.27614C24.8711 7.27614 25.0409 7.30367 25.174 7.26695L25.1694 7.27154Z" fill="#575756"/>
<path d="M28.9627 8.14844C28.8847 8.2586 28.8021 8.44222 28.8296 8.62582C28.8434 8.72221 28.926 8.77729 28.9444 8.85532C28.9765 8.86909 29.0316 8.95631 29.0499 8.92418C29.0132 8.6855 29.0224 8.41007 29.0132 8.14844H28.9673H28.9627Z" fill="#575756"/>
<path d="M23.7121 14.8838C23.6707 14.8012 23.5973 14.7231 23.5881 14.6451C23.5652 14.4386 23.8681 14.1448 23.8865 13.8877C23.9232 13.4058 23.5789 12.7586 23.8176 12.2491C23.9048 12.0655 24.0839 11.8819 24.2399 11.7626C24.2858 11.7258 24.3547 11.7213 24.3822 11.6662V11.4551C24.0884 10.9823 23.8314 10.4682 23.5376 10C23.2714 10.0964 22.996 10.1836 22.7344 10.28C22.7986 10.5462 23.2944 11.8176 23.3678 11.9875C23.4183 12.1022 23.4734 12.2537 23.4917 12.3822C23.5101 12.5245 23.478 12.6989 23.4734 12.8504C23.4642 13.0156 23.4871 13.1855 23.4826 13.337C23.4826 13.6261 23.4229 13.9153 23.3953 14.1907C23.3678 14.4753 23.299 14.792 23.3495 15.0903C23.3678 15.2051 23.4872 15.3704 23.5514 15.4163C23.6799 15.5172 23.9002 15.5586 24.0793 15.5815C23.9783 15.3612 23.836 15.1271 23.7166 14.893L23.7121 14.8838Z" fill="#575756"/>
<path d="M12.6183 13.7268C12.6183 13.7268 12.3199 13.5662 12.2649 13.121C12.219 12.7171 12.4393 12.3544 12.7743 12.1616C13.5363 11.7302 13.954 11.923 13.9953 11.923C14.3441 12.0515 14.3763 12.3269 14.436 12.4233C14.5507 12.3315 14.3625 11.9826 14.2936 11.9C14.1651 11.744 13.9861 11.6338 13.7887 11.5879C13.3848 11.4915 12.0124 11.7761 12.0078 12.8364C12.0078 13.4698 12.4209 13.8003 12.6137 13.7268H12.6183Z" fill="#575756"/>
<path d="M13.0204 15.1547C12.8093 15.4852 12.7267 15.6321 12.6716 15.8019C12.5522 16.1508 12.465 16.3757 12.4926 16.7566C12.6991 16.316 12.9057 15.8662 13.1811 15.4623C13.3693 15.2236 13.5804 15.0492 13.8053 14.8793C13.9889 14.737 14.1863 14.6131 14.3791 14.4892C14.5076 14.4111 14.9666 14.0577 15.6643 13.8145C15.5358 13.7823 15.421 13.8144 15.3246 13.8007C15.3155 13.8007 15.3063 13.7961 15.2925 13.7915C15.2282 13.7731 15.1732 13.7318 15.141 13.6171C15.0676 13.3692 14.9528 12.5706 14.884 12.3227C14.7279 11.7581 14.4892 11.6388 14.4571 11.625C14.4571 11.625 14.5168 11.6984 14.5811 11.804C14.5856 11.8132 14.5902 11.8224 14.5994 11.8361C14.6086 11.8499 14.6132 11.8591 14.6223 11.8728C14.6269 11.882 14.6315 11.8912 14.6361 11.9004C14.6866 11.9968 14.7279 12.1024 14.7509 12.2125C14.9115 13.0892 14.0119 13.6079 13.6125 13.8099C13.2086 14.0164 12.7634 14.1036 12.3778 13.8833C11.7536 13.5252 11.8592 12.901 11.827 12.7817C11.827 12.7955 11.827 12.8046 11.8224 12.8184C11.5929 13.8282 12.768 14.4065 13.1306 14.5856C13.2775 14.6544 13.3234 14.7187 13.2729 14.8242C13.2637 14.8472 13.2499 14.8656 13.2361 14.8931C13.1765 14.9849 13.0893 15.0583 13.0296 15.1501L13.0204 15.1547Z" fill="#575756"/>
<path d="M17.8767 13.6286C16.6649 13.4817 16.1921 13.7617 16.2748 13.7571C18.3219 13.6607 19.0609 14.1151 19.7311 14.4364C19.5979 14.2987 19.4235 14.161 19.2216 14.0646C18.7534 13.8351 18.3265 13.6883 17.8721 13.6332L17.8767 13.6286Z" fill="#575756"/>
<path d="M15.0488 17.7606C14.9662 17.7422 15.0167 17.7514 15.0488 17.7606V17.7606Z" fill="#575756"/>
<path d="M15.9844 18.5234C15.9844 18.5693 16.0119 18.606 16.0211 18.6473C16.0578 18.762 16.0808 18.886 16.1267 18.9915C16.2368 19.0237 16.3286 19.0696 16.4434 19.0971C16.5857 19.0329 16.5902 18.8126 16.7096 18.684C16.7968 18.5922 17.0722 18.4499 17.2283 18.5325C17.2833 18.5601 17.2788 18.6381 17.3614 18.6381C17.4394 18.3444 17.086 18.404 17.0952 18.147C17.1915 18.0368 17.3476 18.0506 17.545 18.0506C17.5771 18.0965 17.5725 18.1837 17.623 18.2158C17.6873 18.225 17.7745 18.2159 17.8158 18.1791C17.8387 17.9359 17.6919 17.7843 17.6046 17.7293C17.5174 17.6742 17.0171 17.4906 16.8473 17.5778C16.806 17.6467 16.7647 17.7109 16.7326 17.7889C16.6132 17.8348 16.503 17.945 16.3699 17.9313C16.2322 17.9221 16.2322 17.7935 16.1312 17.7293C16.0348 17.8624 16.1037 18.046 16.0853 18.2204C16.0716 18.3306 15.9889 18.4269 15.9889 18.5279L15.9844 18.5234Z" fill="#575756"/>
<path d="M17.5855 18.6606C17.5488 18.6836 17.5304 18.7524 17.5075 18.7846C17.4754 18.8259 17.4386 18.8763 17.4019 18.8901C17.2964 18.9314 17.1265 18.8993 17.0301 18.8993C16.8557 19.0829 16.741 19.2022 16.5987 19.5098C16.4564 19.8173 16.5436 19.8999 16.5023 19.9413C16.4289 20.0101 16.3141 20.0193 16.3508 20.1524C16.3692 20.2258 16.4793 20.2534 16.5619 20.2075C16.6905 20.1386 16.8282 19.8449 17.0026 19.6613C17.2688 19.3996 17.457 19.3859 17.6268 19.3078C17.7829 19.2344 17.8931 19.0783 18.0399 19.0003C18.6321 18.6882 18.9855 18.9498 19.1232 18.8671C19.2609 18.7845 19.1324 18.5734 18.9717 18.6422C18.7422 18.578 18.5448 18.5 18.2603 18.5184C18.0675 18.5321 17.9527 18.555 17.8104 18.5963C17.7278 18.6193 17.6269 18.6285 17.5901 18.656L17.5855 18.6606Z" fill="#575756"/>
<path d="M18.1473 19.1953C18.005 19.2825 17.9132 19.4201 17.7663 19.5028C17.6561 19.5624 17.5505 19.6038 17.4496 19.6681C17.165 19.8471 16.963 20.0949 16.7198 20.3015C16.6968 20.3841 17.0686 20.4575 17.2476 20.4024C17.3073 20.3841 17.344 20.3611 17.4083 20.2923C17.4771 20.2234 17.5597 20.0995 17.6102 20.0444C17.7296 19.9251 17.8581 19.8103 17.9912 19.7231C18.106 19.6497 18.3171 19.5762 18.4548 19.5257C18.5879 19.4798 18.7164 19.5074 18.8174 19.4386C18.8771 19.4018 18.9322 19.31 18.9827 19.2458C19.0377 19.1769 19.0836 19.108 19.1158 19.0438C18.744 18.9841 18.3768 19.0622 18.1473 19.1953Z" fill="#575756"/>
<path d="M32.3079 1.9109L30.0312 0.804688L32.3079 1.9155V1.9109Z" fill="#575756"/>
<path d="M23.9108 7.6096C24.053 7.51321 24.1449 7.34797 24.1219 7.10011C24.099 7.06798 24.0714 7.04502 24.0347 7.03125C24.0163 7.06797 23.9383 7.25153 23.9199 7.27907C23.8832 7.33874 23.8327 7.38007 23.7868 7.4122L23.7685 7.42139L23.4701 7.49025L23.4609 7.58203L23.6904 7.63252C23.7914 7.63252 23.8557 7.64172 23.9108 7.605V7.6096Z" fill="#575756"/>
<path d="M39.4809 37.2599C39.4809 37.2599 39.4626 37.2461 39.4534 37.2369C39.279 37.1038 39.1 36.9661 38.9209 36.833C38.8842 36.8054 38.8475 36.7779 38.8108 36.7504C38.6226 36.6127 38.4344 36.4796 38.2462 36.3465C38.0305 36.195 37.8102 36.0481 37.5853 35.9058C37.5072 35.8554 37.4292 35.8094 37.3558 35.7589C37.2089 35.6671 37.062 35.5707 36.9105 35.4789C36.8187 35.4239 36.7269 35.3688 36.6351 35.3183C36.4974 35.2357 36.3597 35.1576 36.2174 35.075C36.121 35.0199 36.0201 34.9649 35.9237 34.9144C35.841 34.8685 35.7584 34.8226 35.6758 34.7812V38.7562L37.4843 38.0448L39.4855 37.2599H39.4809Z" fill="#575756"/>
<path d="M6.65412 36.9251C6.5715 36.9894 6.4843 37.0536 6.40167 37.1179C6.36495 37.1454 6.32823 37.173 6.28692 37.2051C6.26397 37.2235 6.24561 37.2372 6.22266 37.2556L10.2848 38.7657V34.6484C10.193 34.6989 10.0966 34.7449 10.0048 34.7954C9.90386 34.8504 9.7983 34.9055 9.69732 34.9606C9.54585 35.0432 9.39895 35.1304 9.24747 35.2176C9.15108 35.2727 9.0547 35.3278 8.96289 35.3829C8.79765 35.4793 8.637 35.5802 8.47635 35.6812C8.39832 35.7317 8.32031 35.7776 8.23769 35.8281C7.99901 35.9796 7.7649 36.1356 7.53081 36.2963C7.40228 36.3835 7.27835 36.4707 7.15442 36.5625C7.11311 36.59 7.07641 36.6176 7.0351 36.6451C6.94789 36.7094 6.86068 36.769 6.77806 36.8333C6.73675 36.8654 6.69543 36.8976 6.64953 36.9297L6.65412 36.9251Z" fill="#575756"/>
<path d="M14.0008 35.6921C14.0421 35.6921 14.0926 35.6921 14.1477 35.6921C14.2028 35.6921 14.2579 35.7013 14.3175 35.7151C14.3772 35.7288 14.4323 35.7426 14.492 35.7701C14.547 35.7931 14.5975 35.8252 14.6434 35.8665C14.6847 35.9032 14.726 35.9583 14.7673 36.0318C14.8087 36.1052 14.8316 36.2108 14.8316 36.3485C14.8316 36.4082 14.8224 36.4862 14.8041 36.5734C14.7857 36.6606 14.7398 36.7433 14.6664 36.8213C14.6067 36.881 14.5333 36.9268 14.446 36.9589C14.3588 36.9911 14.2762 37.014 14.189 37.0278V37.0645C14.2624 37.0737 14.3405 37.0967 14.4323 37.138C14.5241 37.1747 14.5929 37.2298 14.648 37.294C14.6893 37.3445 14.7214 37.4134 14.7398 37.4914C14.7628 37.5694 14.7765 37.6612 14.7811 37.7576L14.8041 38.0927C14.8041 38.1294 14.8086 38.1616 14.8132 38.1983C14.8132 38.235 14.8224 38.2671 14.8316 38.2993C14.8408 38.3314 14.8545 38.3544 14.8729 38.3727C14.8913 38.3911 14.9188 38.4002 14.951 38.4002C14.9785 38.4002 15.006 38.3865 15.0336 38.3635L15.0703 38.4507C15.0427 38.4691 15.006 38.492 14.9555 38.5196C14.905 38.5471 14.8316 38.5563 14.7444 38.5563C14.6618 38.5563 14.5975 38.5471 14.5562 38.5242C14.5149 38.5058 14.4828 38.4829 14.4598 38.4599C14.4552 38.4553 14.4461 38.4416 14.4323 38.4278C14.4185 38.414 14.4093 38.3865 14.3956 38.3543C14.3818 38.3222 14.368 38.2809 14.3588 38.2304C14.3451 38.1799 14.3359 38.1156 14.3313 38.0376L14.2946 37.597C14.2946 37.5694 14.29 37.5327 14.2854 37.496C14.2854 37.4593 14.2762 37.418 14.2716 37.3813C14.267 37.3445 14.2578 37.3078 14.2441 37.2711C14.2303 37.2344 14.2119 37.2068 14.189 37.1793C14.166 37.1517 14.1339 37.1334 14.0972 37.1151C14.0605 37.0967 14.01 37.0875 13.9503 37.0875H13.6887V38.4232H13.9457V38.5196H12.9727V38.4232H13.2251V35.7839H12.9727V35.6875H14.01L14.0008 35.6921ZM13.8907 36.9957C13.9366 36.9957 13.987 36.9911 14.0467 36.9773C14.1064 36.9636 14.1569 36.936 14.1982 36.8855C14.2395 36.8396 14.267 36.78 14.2762 36.7065C14.29 36.6331 14.2946 36.5642 14.2946 36.5045V36.2521C14.2946 36.1925 14.29 36.1282 14.2762 36.0547C14.2624 35.9813 14.2303 35.917 14.1661 35.8665C14.1293 35.839 14.088 35.816 14.0421 35.8023C13.9916 35.7885 13.9412 35.7793 13.8907 35.7793H13.6703V36.9911H13.8815L13.8907 36.9957Z" fill="#575756"/>
<path d="M15.2241 36.3952C15.3067 36.207 15.3985 36.0556 15.5087 35.9454C15.6143 35.8307 15.7198 35.7572 15.8162 35.7159C15.9172 35.6746 16.009 35.6562 16.0916 35.6562C16.2202 35.6562 16.3349 35.6838 16.4313 35.7434C16.5277 35.8031 16.6103 35.8674 16.6838 35.9454C16.771 36.0418 16.8398 36.1382 16.8949 36.2392C16.95 36.3402 16.9913 36.4457 17.0188 36.5467C17.0464 36.6477 17.0693 36.7487 17.0785 36.8451C17.0877 36.9414 17.0923 37.0287 17.0923 37.1067C17.0923 37.148 17.0923 37.2168 17.0831 37.3041C17.0785 37.3913 17.0601 37.4923 17.0372 37.6024C17.0097 37.7126 16.9729 37.8273 16.9179 37.9421C16.8628 38.0614 16.7847 38.1716 16.6883 38.2771C16.6287 38.3368 16.5736 38.3873 16.5185 38.4241C16.4634 38.4608 16.4083 38.4883 16.3579 38.5066C16.3074 38.525 16.2569 38.5388 16.2156 38.5434C16.1743 38.5526 16.1329 38.5525 16.1008 38.5525C16.0182 38.5525 15.9264 38.5342 15.8208 38.4929C15.7198 38.4516 15.6189 38.3781 15.5179 38.2725C15.4766 38.2312 15.4353 38.1762 15.3848 38.1073C15.3343 38.0385 15.293 37.9604 15.2517 37.864C15.2104 37.7676 15.1782 37.6575 15.1507 37.5336C15.1232 37.4096 15.1094 37.2674 15.1094 37.1021C15.1094 36.8175 15.1507 36.5788 15.2333 36.3906L15.2241 36.3952ZM15.6281 37.5703C15.6281 37.6208 15.6281 37.6804 15.6326 37.7447C15.6326 37.8089 15.6464 37.8732 15.6556 37.9375C15.6648 38.0017 15.6785 38.066 15.7015 38.1257C15.7198 38.19 15.7474 38.2404 15.7795 38.2817C15.8346 38.3552 15.8897 38.4057 15.9494 38.4241C16.009 38.4424 16.0549 38.4562 16.0916 38.4562C16.1559 38.4562 16.2202 38.4424 16.2752 38.4103C16.3303 38.3781 16.3762 38.3368 16.4175 38.2863C16.4451 38.2496 16.4634 38.1991 16.4864 38.1303C16.5093 38.0614 16.5185 37.9971 16.5323 37.9283C16.5415 37.8594 16.5506 37.7906 16.5598 37.7264C16.5644 37.6621 16.569 37.607 16.569 37.5703V36.6431C16.569 36.5926 16.569 36.533 16.5598 36.4641C16.5506 36.3953 16.546 36.331 16.5323 36.2667C16.5185 36.2024 16.5047 36.1382 16.4864 36.0786C16.468 36.0189 16.4497 35.9684 16.4221 35.9316C16.3441 35.8077 16.2339 35.7434 16.0962 35.7434C16.0228 35.7434 15.9585 35.7618 15.908 35.7939C15.8575 35.8306 15.8163 35.8766 15.7795 35.9316C15.752 35.9821 15.7244 36.0372 15.7061 36.1015C15.6877 36.1657 15.674 36.2346 15.6602 36.2989C15.651 36.3677 15.6418 36.4319 15.6372 36.4916C15.6372 36.5513 15.6326 36.6018 15.6326 36.6385V37.5657L15.6281 37.5703Z" fill="#575756"/>
<path d="M18.2217 35.6953V35.7917H17.9647V37.7884C17.9647 37.8848 17.9693 37.9766 17.9785 38.0546C17.9876 38.1326 18.0152 38.2015 18.0519 38.2612C18.0886 38.3117 18.1391 38.3484 18.1988 38.3759C18.2584 38.4035 18.3227 38.4172 18.387 38.4172C18.4375 38.4172 18.4971 38.4035 18.5706 38.3805C18.644 38.353 18.7129 38.2979 18.7771 38.2015C18.8414 38.1051 18.8827 38.0087 18.8873 37.9123C18.8965 37.8159 18.9011 37.7149 18.9011 37.6094V36.3609C18.9011 36.2966 18.9011 36.2324 18.9011 36.1727C18.9011 36.1084 18.8873 36.0488 18.8689 35.9983C18.8506 35.9432 18.823 35.9019 18.7909 35.8651C18.7542 35.8284 18.7037 35.8055 18.644 35.7917V35.6953H19.2407V35.7917C19.2086 35.7917 19.1764 35.8009 19.1489 35.8147C19.1214 35.8284 19.0938 35.856 19.0755 35.8927C19.0525 35.9294 19.0388 35.9845 19.025 36.0579C19.0112 36.1314 19.0066 36.2232 19.0066 36.3425V37.6553C19.0066 37.7425 19.002 37.8251 18.9929 37.9123C18.9837 37.995 18.9561 38.0821 18.9194 38.1693C18.8689 38.2795 18.7909 38.3713 18.6853 38.4493C18.5797 38.5274 18.4421 38.5641 18.2722 38.5641C18.1666 38.5641 18.0794 38.5503 18.006 38.5274C17.9326 38.5044 17.8683 38.4677 17.8132 38.431C17.7581 38.3943 17.7168 38.353 17.6847 38.3163C17.6526 38.275 17.6296 38.2428 17.6113 38.2106C17.5516 38.1051 17.524 38.0041 17.5194 37.894C17.5194 37.7884 17.5149 37.6874 17.5149 37.5956V35.7917H17.2578V35.6953H18.2355H18.2217Z" fill="#575756"/>
<path d="M21.3701 37.344V37.4404H21.159C21.159 37.6056 21.1498 37.7571 21.1222 37.8902C21.0947 38.0279 21.0396 38.1473 20.9616 38.2529C20.9203 38.3125 20.8698 38.3584 20.8147 38.3997C20.7596 38.4364 20.7046 38.4686 20.6541 38.4915C20.599 38.5145 20.5485 38.5328 20.498 38.542C20.4475 38.5512 20.4016 38.5558 20.3649 38.5558C20.2272 38.5558 20.1124 38.5236 20.0206 38.464C19.9288 38.3997 19.8554 38.3354 19.7957 38.2666C19.7361 38.1931 19.6764 38.106 19.6259 38.0096C19.5708 37.9132 19.5295 37.8168 19.4974 37.7204C19.4698 37.6332 19.4469 37.5368 19.4331 37.4312C19.4193 37.3302 19.4102 37.2292 19.4102 37.1283C19.4102 36.986 19.4239 36.8483 19.4469 36.7151C19.4744 36.582 19.5203 36.4398 19.5846 36.2975C19.6443 36.1644 19.7085 36.0588 19.7819 35.9716C19.8508 35.8889 19.9243 35.8247 19.9977 35.7788C20.0711 35.7329 20.14 35.7007 20.2042 35.687C20.2685 35.6732 20.3282 35.6641 20.3786 35.6641C20.4383 35.6641 20.4888 35.6686 20.5393 35.6824C20.5898 35.6962 20.6311 35.71 20.6632 35.7237C20.6954 35.7375 20.7275 35.7513 20.755 35.7604C20.7872 35.7742 20.8147 35.7788 20.8377 35.7788C20.879 35.7788 20.9065 35.7696 20.9203 35.7512C20.934 35.7329 20.9432 35.7145 20.9524 35.6962H21.0626V36.6096H20.9799C20.9708 36.5453 20.957 36.4673 20.9341 36.3801C20.9111 36.2929 20.879 36.2057 20.8377 36.1185C20.8009 36.045 20.7642 35.9854 20.7275 35.9395C20.6908 35.8936 20.6495 35.8568 20.6127 35.8293C20.576 35.8018 20.5347 35.7834 20.498 35.7742C20.4613 35.765 20.4246 35.7604 20.3878 35.7604C20.3282 35.7604 20.2685 35.7834 20.1997 35.8247C20.1308 35.866 20.0757 35.9394 20.0298 36.045C20.0023 36.1047 19.9839 36.1873 19.9656 36.2975C19.9472 36.4077 19.938 36.5683 19.938 36.784V37.3761C19.938 37.5001 19.938 37.6102 19.9472 37.702C19.9518 37.7938 19.961 37.8765 19.9747 37.9499C19.9839 38.0187 19.9977 38.083 20.016 38.1381C20.0344 38.1932 20.0482 38.2391 20.0711 38.2804C20.0941 38.3309 20.1262 38.3768 20.1675 38.4181C20.2088 38.4594 20.2685 38.4824 20.3465 38.4824C20.4108 38.4824 20.4659 38.464 20.5072 38.4319C20.5485 38.3997 20.5852 38.3538 20.6127 38.2987C20.6449 38.2345 20.6632 38.1748 20.6678 38.1151C20.6678 38.0555 20.6724 38.0004 20.6724 37.9453V37.4542H20.4154V37.3578H21.3655L21.3701 37.344Z" fill="#575756"/>
<path d="M22.3575 35.6953V35.7917H22.1464V36.9851H22.8533V35.7917H22.6421V35.6953H23.5693V35.7917H23.3169V38.431H23.5693V38.5274H22.6421V38.431H22.8533V37.0769H22.1464V38.431H22.3575V38.5274H21.4258V38.431H21.6782V35.7917H21.4258V35.6953H22.3575Z" fill="#575756"/>
<path d="M26.5813 35.6953L26.6043 36.6041H26.4987C26.4987 36.5766 26.4895 36.5399 26.485 36.5032C26.4758 36.4664 26.4712 36.4251 26.4574 36.3792C26.4482 36.3379 26.4345 36.2921 26.4207 36.2507C26.4069 36.2094 26.3885 36.1681 26.3748 36.1314C26.3243 36.0212 26.2555 35.9386 26.1682 35.8789C26.081 35.8193 25.98 35.7917 25.8607 35.7917H25.5715V36.9255H25.7735C25.8148 36.9255 25.8515 36.9163 25.8836 36.8979C25.9158 36.8795 25.9387 36.8566 25.9617 36.8291C25.9846 36.8016 26.003 36.774 26.0168 36.7464C26.0305 36.7189 26.0397 36.6914 26.0489 36.673C26.0627 36.6317 26.0718 36.5904 26.081 36.5445C26.0856 36.4986 26.0902 36.4573 26.0902 36.416H26.1958V37.5497H26.0902C26.0902 37.5084 26.0902 37.4533 26.081 37.3983C26.0764 37.3386 26.0673 37.2927 26.0489 37.2513C26.0351 37.21 26.0076 37.1596 25.9663 37.1091C25.925 37.054 25.8607 37.031 25.7781 37.031H25.5761V38.4447H25.8561V38.5412H24.8555V38.4447H25.1079V35.8055H24.8555V35.7091H26.5859L26.5813 35.6953Z" fill="#575756"/>
<path d="M26.8569 36.3952C26.9396 36.207 27.0314 36.0556 27.1415 35.9454C27.2471 35.8307 27.3527 35.7572 27.449 35.7159C27.5454 35.6746 27.6418 35.6562 27.7244 35.6562C27.853 35.6562 27.9677 35.6838 28.0641 35.7434C28.1605 35.8031 28.2431 35.8674 28.3166 35.9454C28.4038 36.0418 28.4726 36.1382 28.5277 36.2392C28.5828 36.3402 28.6241 36.4457 28.6516 36.5467C28.6792 36.6477 28.6975 36.7487 28.7113 36.8451C28.7205 36.9414 28.7251 37.0287 28.7251 37.1067C28.7251 37.148 28.7251 37.2168 28.7159 37.3041C28.7113 37.3913 28.6929 37.4923 28.67 37.6024C28.6424 37.7126 28.6057 37.8273 28.5507 37.9421C28.4956 38.0614 28.4176 38.1716 28.3212 38.2771C28.2615 38.3368 28.2064 38.3873 28.1513 38.4241C28.0962 38.4608 28.0412 38.4883 27.9907 38.5066C27.9402 38.525 27.8897 38.5388 27.8484 38.5434C27.8071 38.5526 27.7658 38.5525 27.7336 38.5525C27.651 38.5525 27.5592 38.5342 27.4536 38.4929C27.3527 38.4516 27.2517 38.3781 27.1507 38.2725C27.1094 38.2312 27.0681 38.1762 27.0176 38.1073C26.9717 38.0431 26.9258 37.9604 26.8845 37.864C26.8432 37.7676 26.811 37.6575 26.7835 37.5336C26.7559 37.4096 26.7422 37.2674 26.7422 37.1021C26.7422 36.8175 26.7835 36.5788 26.8661 36.3906L26.8569 36.3952ZM27.2608 37.5703C27.2608 37.6208 27.2608 37.6804 27.2654 37.7447C27.2654 37.8089 27.2746 37.8732 27.2884 37.9375C27.2976 38.0017 27.3113 38.066 27.3343 38.1257C27.3572 38.1854 27.3802 38.2404 27.4123 38.2817C27.4674 38.3552 27.5225 38.4057 27.5821 38.4241C27.6418 38.4424 27.6877 38.4562 27.7244 38.4562C27.7887 38.4562 27.853 38.4424 27.908 38.4103C27.9631 38.3781 28.009 38.3368 28.0503 38.2863C28.0779 38.2496 28.0962 38.1991 28.1192 38.1303C28.1376 38.066 28.1513 37.9971 28.1651 37.9283C28.1789 37.8594 28.1834 37.7906 28.1926 37.7264C28.1972 37.6621 28.2018 37.607 28.2018 37.5703V36.6431C28.2018 36.5926 28.2018 36.533 28.1926 36.4641C28.188 36.3998 28.1789 36.331 28.1651 36.2667C28.1513 36.2024 28.1376 36.1382 28.1192 36.0786C28.1008 36.0189 28.0825 35.9684 28.0549 35.9316C27.9769 35.8077 27.8713 35.7434 27.729 35.7434C27.6556 35.7434 27.5913 35.7618 27.5408 35.7939C27.4904 35.8306 27.449 35.8766 27.4123 35.9316C27.3848 35.9821 27.3618 36.0372 27.3389 36.1015C27.3205 36.1657 27.3067 36.2346 27.293 36.2989C27.2792 36.3677 27.2746 36.4319 27.27 36.4916C27.27 36.5513 27.2654 36.6018 27.2654 36.6385V37.5657L27.2608 37.5703Z" fill="#575756"/>
<path d="M29.0523 36.3952C29.1349 36.207 29.2267 36.0556 29.3368 35.9454C29.4424 35.8307 29.548 35.7572 29.6444 35.7159C29.7453 35.6746 29.8372 35.6562 29.9198 35.6562C30.0483 35.6562 30.163 35.6838 30.2594 35.7434C30.3558 35.8031 30.4384 35.8674 30.5119 35.9454C30.5991 36.0418 30.668 36.1382 30.723 36.2392C30.7781 36.3402 30.8194 36.4457 30.8469 36.5467C30.8745 36.6477 30.8974 36.7487 30.9066 36.8451C30.9158 36.9414 30.9204 37.0287 30.9204 37.1067C30.9204 37.148 30.9204 37.2168 30.9112 37.3041C30.9066 37.3913 30.8883 37.4923 30.8653 37.6024C30.8378 37.7126 30.8011 37.8273 30.746 37.9421C30.6909 38.0614 30.6129 38.1716 30.5165 38.2771C30.4568 38.3368 30.4017 38.3873 30.3466 38.4241C30.2916 38.4608 30.2365 38.4883 30.186 38.5066C30.1355 38.525 30.085 38.5388 30.0437 38.5434C30.0024 38.5526 29.9611 38.5525 29.9289 38.5525C29.8463 38.5525 29.7545 38.5342 29.649 38.4929C29.548 38.4516 29.447 38.3781 29.346 38.2725C29.3047 38.2312 29.2634 38.1762 29.2129 38.1073C29.167 38.0431 29.1211 37.9604 29.0798 37.864C29.0385 37.7676 29.0063 37.6575 28.9788 37.5336C28.9513 37.4096 28.9375 37.2674 28.9375 37.1021C28.9375 36.8175 28.9788 36.5788 29.0614 36.3906L29.0523 36.3952ZM29.4562 37.5703C29.4562 37.6208 29.4562 37.6804 29.4608 37.7447C29.4608 37.8089 29.4745 37.8732 29.4837 37.9375C29.4929 38.0017 29.5067 38.066 29.5296 38.1257C29.548 38.19 29.5755 38.2404 29.6077 38.2817C29.6627 38.3552 29.7178 38.4057 29.7775 38.4241C29.8372 38.4424 29.8831 38.4562 29.9198 38.4562C29.984 38.4562 30.0483 38.4424 30.1034 38.4103C30.1584 38.3781 30.2043 38.3368 30.2456 38.2863C30.2732 38.2496 30.2916 38.1991 30.3145 38.1303C30.3375 38.0614 30.3466 37.9971 30.3604 37.9283C30.3696 37.8594 30.3788 37.7906 30.3879 37.7264C30.3925 37.6621 30.3971 37.607 30.3971 37.5703V36.6431C30.3971 36.5926 30.3971 36.533 30.3879 36.4641C30.3833 36.3998 30.3742 36.331 30.3604 36.2667C30.3466 36.2024 30.3329 36.1382 30.3145 36.0786C30.2962 36.0189 30.2778 35.9684 30.2502 35.9316C30.1722 35.8077 30.0621 35.7434 29.9244 35.7434C29.8509 35.7434 29.7867 35.7618 29.7362 35.7939C29.6857 35.8306 29.6444 35.8766 29.6077 35.9316C29.5801 35.9821 29.5571 36.0372 29.5342 36.1015C29.5158 36.1657 29.5021 36.2346 29.4883 36.2989C29.4791 36.3677 29.47 36.4319 29.4654 36.4916C29.4654 36.5513 29.4608 36.6018 29.4608 36.6385V37.5657L29.4562 37.5703Z" fill="#575756"/>
<path d="M32.1795 35.6953C32.331 35.6953 32.4641 35.7412 32.5789 35.8284C32.689 35.9157 32.7854 36.0166 32.8543 36.1268C32.9598 36.292 33.0241 36.4573 33.0471 36.6225C33.07 36.7878 33.0838 36.9438 33.0838 37.0861C33.0838 37.1963 33.0792 37.3064 33.0654 37.4212C33.0517 37.5359 33.0333 37.6415 33.0012 37.7471C32.969 37.8527 32.9277 37.9536 32.8726 38.0454C32.8176 38.1418 32.7487 38.229 32.6661 38.3071C32.5743 38.3897 32.4825 38.4494 32.3999 38.4815C32.3127 38.5136 32.2254 38.5274 32.1382 38.5274H31.1055V38.431H31.3579V35.7917H31.1055V35.6953H32.1841H32.1795ZM31.8169 38.431H31.973C32.0556 38.431 32.129 38.4218 32.1933 38.408C32.2576 38.3943 32.3264 38.3438 32.3861 38.2612C32.4228 38.2107 32.455 38.151 32.4779 38.0822C32.5009 38.0133 32.5192 37.9399 32.5284 37.8619C32.5376 37.7838 32.5467 37.7058 32.5467 37.6232C32.5467 37.5405 32.5467 37.4625 32.5467 37.3845V36.6868C32.5467 36.5491 32.5422 36.4252 32.5284 36.315C32.5146 36.2049 32.4871 36.1039 32.432 36.0166C32.3999 35.9616 32.3677 35.9202 32.331 35.8881C32.2943 35.856 32.2622 35.833 32.2209 35.8193C32.1842 35.8055 32.1474 35.7917 32.1061 35.7871C32.0694 35.7871 32.0327 35.7826 31.9959 35.7826H31.8032V38.4218L31.8169 38.431Z" fill="#575756"/>
<path d="M15.1388 39.3516L15.1526 39.8427H15.0975C15.0975 39.8427 15.0975 39.8105 15.0883 39.7876C15.0883 39.7646 15.0791 39.7463 15.0745 39.7187C15.0699 39.6958 15.0608 39.6728 15.0562 39.6499C15.047 39.6269 15.0378 39.604 15.0286 39.5857C15.0011 39.526 14.9644 39.4801 14.9185 39.4479C14.8726 39.4158 14.8175 39.402 14.7532 39.402H14.5972V40.0125H14.7073C14.7303 40.0125 14.7486 40.0079 14.767 39.9987C14.7854 39.9895 14.7991 39.9758 14.8083 39.962C14.8221 39.9482 14.8313 39.9299 14.8359 39.9161C14.845 39.9024 14.8496 39.8886 14.8542 39.8748C14.8634 39.8519 14.868 39.8289 14.8726 39.806C14.8726 39.783 14.8772 39.7555 14.8772 39.7371H14.9322V40.3522H14.8772C14.8772 40.3292 14.8772 40.3017 14.8726 40.2696C14.8726 40.2374 14.8634 40.2099 14.8542 40.1915C14.845 40.1686 14.8313 40.141 14.8083 40.1135C14.7854 40.0859 14.7532 40.0722 14.7073 40.0722H14.5972V40.8387H14.7487V40.8892H14.207V40.8387H14.3447V39.4112H14.207V39.3607H15.1434L15.1388 39.3516Z" fill="#575756"/>
<path d="M15.3117 39.7275C15.3576 39.6265 15.4081 39.5438 15.4632 39.4842C15.5229 39.4245 15.5779 39.3832 15.6284 39.3602C15.6835 39.3373 15.7294 39.3281 15.7753 39.3281C15.8442 39.3281 15.9084 39.3419 15.9589 39.374C16.0094 39.4061 16.0553 39.4429 16.0966 39.4842C16.1425 39.5347 16.1792 39.5897 16.2114 39.6448C16.2389 39.6999 16.2618 39.755 16.2802 39.8101C16.294 39.8652 16.3077 39.9203 16.3123 39.9707C16.3169 40.0212 16.3215 40.0717 16.3215 40.113C16.3215 40.136 16.3215 40.1727 16.3169 40.2186C16.3169 40.2645 16.3032 40.3196 16.2894 40.3793C16.2756 40.4389 16.2527 40.4986 16.2251 40.5628C16.1976 40.6271 16.1563 40.6868 16.1012 40.7418C16.0691 40.774 16.0369 40.8015 16.0094 40.8199C15.9773 40.8382 15.9497 40.8566 15.9222 40.8658C15.8947 40.875 15.8671 40.8842 15.8442 40.8887C15.8212 40.8887 15.7983 40.8933 15.7799 40.8933C15.734 40.8933 15.6835 40.8841 15.6284 40.8612C15.5733 40.8382 15.5183 40.8015 15.4632 40.7418C15.4402 40.7189 15.4173 40.6914 15.3897 40.6547C15.3622 40.6179 15.3393 40.5766 15.3163 40.5215C15.2934 40.471 15.275 40.4114 15.2612 40.3425C15.2475 40.2737 15.2383 40.1956 15.2383 40.1084C15.2383 39.9523 15.2612 39.8238 15.3071 39.7229L15.3117 39.7275ZM15.5275 40.3655C15.5275 40.393 15.5275 40.4251 15.5275 40.4573C15.5275 40.4894 15.532 40.5261 15.5412 40.5628C15.5458 40.5995 15.555 40.6317 15.5642 40.6638C15.5733 40.696 15.5871 40.7281 15.6055 40.751C15.633 40.7923 15.6652 40.8199 15.6973 40.8291C15.7294 40.8383 15.7524 40.8474 15.7753 40.8474C15.812 40.8474 15.8441 40.8383 15.8763 40.8245C15.9084 40.8061 15.9314 40.7878 15.9543 40.7602C15.9681 40.7419 15.9818 40.7097 15.991 40.6776C16.0002 40.6408 16.0094 40.6041 16.014 40.5674C16.0186 40.5307 16.0232 40.494 16.0278 40.4573C16.0278 40.4205 16.0323 40.393 16.0323 40.3701V39.8698C16.0323 39.8422 16.0323 39.8101 16.0278 39.7733C16.0278 39.7366 16.0186 39.6999 16.014 39.6678C16.0048 39.6311 16.0002 39.5989 15.991 39.5668C15.9818 39.5347 15.9681 39.5071 15.9543 39.4842C15.913 39.4153 15.8533 39.3832 15.7799 39.3832C15.7386 39.3832 15.7064 39.3924 15.6789 39.4108C15.6514 39.4291 15.6284 39.452 15.6101 39.4842C15.5963 39.5117 15.5825 39.5393 15.5733 39.576C15.5642 39.6127 15.555 39.6448 15.5504 39.6816C15.5458 39.7183 15.5412 39.755 15.5366 39.7871C15.5366 39.8193 15.5366 39.8468 15.5366 39.8652V40.3655H15.5275Z" fill="#575756"/>
<path d="M16.9975 39.3451C17.0204 39.3451 17.048 39.3451 17.0755 39.3451C17.1031 39.3451 17.1352 39.3497 17.1673 39.3589C17.1994 39.3634 17.2316 39.3727 17.2591 39.3864C17.2912 39.4002 17.3188 39.4185 17.3417 39.4415C17.3647 39.4599 17.3876 39.4874 17.4106 39.5287C17.4335 39.57 17.4427 39.6251 17.4427 39.6985C17.4427 39.7306 17.4381 39.772 17.4289 39.8225C17.4198 39.8684 17.3968 39.9143 17.3555 39.9556C17.3234 39.9877 17.2821 40.0153 17.2362 40.029C17.1903 40.0474 17.1444 40.0566 17.0985 40.0657V40.0887C17.1398 40.0933 17.1811 40.1071 17.2316 40.1254C17.2821 40.1484 17.3188 40.1759 17.3463 40.2127C17.3693 40.2402 17.383 40.2769 17.3968 40.3182C17.4106 40.3595 17.4152 40.41 17.4198 40.4605L17.4335 40.6395C17.4335 40.6395 17.4335 40.6762 17.4381 40.6992C17.4381 40.7175 17.4427 40.7359 17.4473 40.7542C17.4519 40.7726 17.4611 40.7818 17.4703 40.7955C17.4794 40.8047 17.4932 40.8093 17.5116 40.8093C17.5253 40.8093 17.5391 40.8047 17.5575 40.7909L17.5758 40.8369C17.5758 40.8369 17.5391 40.8598 17.5116 40.8736C17.484 40.8874 17.4473 40.8966 17.3968 40.8966C17.3509 40.8966 17.3188 40.892 17.2958 40.8782C17.2729 40.869 17.2545 40.8553 17.2454 40.8415C17.2454 40.8415 17.2362 40.8323 17.2316 40.8231C17.227 40.8139 17.2178 40.8002 17.2132 40.7864C17.204 40.768 17.1995 40.7451 17.1903 40.7175C17.1811 40.69 17.1765 40.6533 17.1765 40.612L17.1535 40.3733C17.1535 40.3733 17.1535 40.3412 17.149 40.3182C17.149 40.2953 17.1489 40.2769 17.1398 40.2539C17.1398 40.2356 17.1306 40.2126 17.126 40.1943C17.1168 40.1759 17.1076 40.1576 17.0985 40.1438C17.0847 40.13 17.0709 40.1162 17.048 40.107C17.025 40.0979 17.0021 40.0933 16.9699 40.0933H16.8276V40.8139H16.9653V40.8644H16.4375V40.8139H16.5752V39.3864H16.4375V39.3359H16.9975V39.3451ZM16.9424 40.0474C16.9653 40.0474 16.9975 40.0474 17.0296 40.0382C17.0617 40.0336 17.0893 40.0152 17.1122 39.9877C17.1352 39.9647 17.149 39.928 17.1535 39.8913C17.1627 39.85 17.1627 39.8133 17.1627 39.7812V39.6434C17.1627 39.6113 17.1627 39.5746 17.1535 39.5379C17.149 39.4966 17.126 39.4644 17.0939 39.4369C17.0755 39.4231 17.0526 39.4094 17.025 39.4002C16.9975 39.391 16.9699 39.3864 16.9424 39.3864H16.823V40.0428H16.9378L16.9424 40.0474Z" fill="#575756"/>
<path d="M19.2563 40.2415V40.292H19.1415C19.1415 40.3792 19.1369 40.4619 19.1186 40.5353C19.1048 40.6087 19.0727 40.673 19.0314 40.7326C19.0084 40.7648 18.9809 40.7923 18.9533 40.8107C18.9258 40.8336 18.8937 40.8474 18.8661 40.8612C18.8386 40.875 18.8111 40.8842 18.7835 40.8887C18.756 40.8933 18.733 40.8979 18.7101 40.8979C18.6366 40.8979 18.5724 40.8795 18.5219 40.8474C18.4714 40.8153 18.4347 40.7786 18.4025 40.7418C18.3704 40.7005 18.3383 40.6547 18.3107 40.5996C18.2832 40.5491 18.2603 40.494 18.2419 40.4435C18.2281 40.393 18.2143 40.3425 18.2052 40.2874C18.196 40.2323 18.1914 40.1773 18.1914 40.1222C18.1914 40.0442 18.2006 39.9707 18.2144 39.8973C18.2281 39.8238 18.2511 39.7504 18.2878 39.6724C18.3199 39.5989 18.3566 39.5439 18.3934 39.498C18.4301 39.4521 18.4714 39.4153 18.5081 39.3924C18.5494 39.3694 18.5861 39.3511 18.6183 39.3419C18.655 39.3327 18.6871 39.3281 18.7146 39.3281C18.7468 39.3281 18.7743 39.3281 18.8019 39.3373C18.8294 39.3465 18.8524 39.3511 18.8707 39.3602C18.8891 39.3694 18.9028 39.374 18.9212 39.3832C18.9396 39.3878 18.9534 39.3924 18.9671 39.3924C18.9901 39.3924 19.0038 39.3878 19.013 39.3786C19.0222 39.3694 19.0268 39.3603 19.0314 39.3511H19.091V39.8422H19.0451C19.0406 39.8055 19.0314 39.7642 19.0176 39.7183C19.0038 39.6724 18.9901 39.6219 18.9671 39.576C18.9488 39.5347 18.9304 39.5025 18.9075 39.4796C18.8845 39.452 18.8661 39.4337 18.8432 39.4199C18.8202 39.4061 18.8019 39.397 18.7789 39.3924C18.7606 39.3878 18.7376 39.3832 18.7192 39.3832C18.6871 39.3832 18.655 39.3969 18.6183 39.4153C18.5816 39.4383 18.5494 39.475 18.5265 39.5347C18.5127 39.5668 18.4989 39.6127 18.4897 39.6724C18.4806 39.732 18.476 39.8192 18.476 39.934V40.2553C18.476 40.3242 18.476 40.3793 18.4806 40.4343C18.4806 40.4848 18.4897 40.5307 18.4943 40.5674C18.4989 40.6041 18.5081 40.6409 18.5173 40.6684C18.5265 40.696 18.5356 40.7235 18.5448 40.7464C18.5586 40.774 18.577 40.7969 18.5953 40.8199C18.6183 40.8428 18.6504 40.8566 18.6917 40.8566C18.7284 40.8566 18.756 40.8474 18.7789 40.8291C18.8019 40.8107 18.8202 40.7878 18.8386 40.7556C18.8569 40.7235 18.8661 40.6868 18.8661 40.6592C18.8661 40.6271 18.8661 40.5995 18.8661 40.5674V40.3012H18.7284V40.2507H19.2425L19.2563 40.2415Z" fill="#575756"/>
<path d="M20.245 39.3516L20.2587 39.8427H20.1991C20.1991 39.8105 20.1899 39.7692 20.1807 39.7187C20.1715 39.6728 20.1577 39.627 20.1348 39.5857C20.1256 39.5673 20.1164 39.5489 20.1027 39.526C20.0889 39.503 20.0705 39.4847 20.0476 39.4663C20.0246 39.448 20.0017 39.4341 19.9696 39.4204C19.9374 39.4066 19.9007 39.402 19.8594 39.402H19.7033V40.0125H19.8089C19.8089 40.0125 19.8502 40.0125 19.8686 39.9987C19.8869 39.9895 19.9053 39.9712 19.9236 39.9482C19.942 39.9207 19.9604 39.884 19.965 39.8473C19.9741 39.8105 19.9787 39.7738 19.9787 39.7371H20.0338V40.3522H19.9787C19.9787 40.3292 19.9787 40.3017 19.9741 40.2696C19.9741 40.242 19.965 40.2145 19.9558 40.1915C19.9466 40.164 19.9328 40.1364 19.919 40.1227C19.9053 40.1043 19.8915 40.0951 19.8778 40.086C19.864 40.0768 19.8502 40.0722 19.8364 40.0722C19.8227 40.0722 19.8135 40.0722 19.8043 40.0722H19.6987V40.8387H19.8548C19.9191 40.8387 19.9787 40.8204 20.0246 40.7791C20.0705 40.7423 20.1118 40.6964 20.1394 40.6459C20.1623 40.6046 20.1807 40.5587 20.1991 40.5128C20.2174 40.4669 20.2266 40.421 20.2312 40.3797H20.2863L20.2679 40.8892H19.3086V40.8387H19.4463V39.4112H19.3086V39.3607H20.245V39.3516Z" fill="#575756"/>
<path d="M20.7707 39.3451L21.3169 40.3503V39.7077C21.3169 39.7077 21.3169 39.6756 21.3169 39.6526C21.3169 39.6297 21.3169 39.6067 21.3123 39.5838C21.3123 39.5608 21.3031 39.5379 21.2986 39.515C21.294 39.492 21.2894 39.4782 21.2802 39.4645C21.271 39.4507 21.2618 39.4323 21.2435 39.4185C21.2251 39.4048 21.2022 39.3956 21.1746 39.391V39.3405H21.4959V39.391C21.4959 39.391 21.4592 39.391 21.4408 39.4048C21.4271 39.414 21.4133 39.4323 21.3996 39.4553C21.3904 39.4691 21.3858 39.4874 21.3812 39.5104C21.3812 39.5333 21.372 39.5517 21.372 39.5746C21.372 39.5976 21.3674 39.6159 21.3674 39.6389C21.3674 39.6618 21.3674 39.6802 21.3674 39.694V40.892H21.3261L20.6146 39.5838V40.5247C20.6146 40.5936 20.6147 40.6441 20.6238 40.6808C20.6284 40.7129 20.6376 40.7405 20.6514 40.7634C20.6606 40.7864 20.6743 40.8001 20.6881 40.8093C20.7019 40.8185 20.7202 40.8231 20.7432 40.8277V40.8782H20.4219V40.8277C20.454 40.8231 20.4769 40.8139 20.4907 40.8001C20.5045 40.7864 20.5183 40.7726 20.5274 40.7588C20.5366 40.7451 20.5412 40.7313 20.5458 40.7084C20.5504 40.6854 20.555 40.667 20.5596 40.6395C20.5596 40.6165 20.5642 40.5936 20.5642 40.5706C20.5642 40.5477 20.5642 40.5293 20.5642 40.5156V39.6251C20.5642 39.57 20.5642 39.5287 20.5596 39.4966C20.5596 39.469 20.5458 39.4461 20.5366 39.4323C20.5229 39.4185 20.5091 39.4048 20.4907 39.4002C20.4723 39.3956 20.454 39.391 20.4311 39.3864V39.3359H20.7707V39.3451Z" fill="#575756"/>
<path d="M21.9484 39.402C21.9162 39.402 21.8841 39.4112 21.8612 39.425C21.8382 39.4387 21.8153 39.4571 21.7969 39.48C21.7785 39.503 21.7648 39.5259 21.7556 39.5443C21.7464 39.5673 21.7372 39.581 21.7326 39.5948C21.7143 39.6315 21.7051 39.6728 21.6959 39.7141C21.6867 39.7509 21.6821 39.7968 21.673 39.8473H21.6133L21.6271 39.3516H22.6277L22.6415 39.8473H22.5818C22.5772 39.806 22.568 39.76 22.5543 39.7187C22.5451 39.6728 22.5313 39.6315 22.5175 39.5994C22.4992 39.5535 22.4808 39.5168 22.4579 39.4892C22.4349 39.4617 22.4165 39.4433 22.3936 39.4296C22.3752 39.4158 22.3569 39.4112 22.3385 39.4066C22.3202 39.4066 22.3064 39.402 22.2972 39.402H22.2513V40.8295H22.389V40.88H21.8612V40.8295H21.9989V39.402H21.953H21.9484Z" fill="#575756"/>
<path d="M23.2778 39.3516V39.402H23.1401V40.8295H23.2641C23.3238 40.8295 23.3788 40.8112 23.4247 40.7791C23.4706 40.7469 23.5119 40.701 23.5487 40.6413C23.5762 40.5954 23.5946 40.5496 23.6083 40.5037C23.6221 40.4578 23.6313 40.4164 23.6359 40.3751H23.6955L23.6772 40.8846H22.75V40.8341H22.8877V39.4066H22.75V39.3562H23.2778V39.3516Z" fill="#575756"/>
<path d="M24.7215 39.3516L24.7353 39.8427H24.6756C24.6756 39.8105 24.6664 39.7692 24.6572 39.7187C24.6481 39.6728 24.6343 39.627 24.6114 39.5857C24.6022 39.5673 24.593 39.5489 24.5792 39.526C24.5655 39.503 24.5471 39.4847 24.5241 39.4663C24.5012 39.448 24.4737 39.4341 24.4461 39.4204C24.414 39.4066 24.3772 39.402 24.3359 39.402H24.1799V40.0125H24.2855C24.2855 40.0125 24.3268 40.0125 24.3451 39.9987C24.3635 39.9895 24.3818 39.9712 24.4002 39.9482C24.4186 39.9207 24.4369 39.884 24.4415 39.8473C24.4507 39.8105 24.4553 39.7738 24.4553 39.7371H24.5104V40.3522H24.4553C24.4553 40.3292 24.4553 40.3017 24.4507 40.2696C24.4507 40.242 24.4415 40.2145 24.4323 40.1915C24.4232 40.164 24.4094 40.1364 24.3956 40.1227C24.3818 40.1043 24.3681 40.0951 24.3543 40.086C24.3405 40.0768 24.3268 40.0722 24.313 40.0722C24.2992 40.0722 24.29 40.0722 24.2809 40.0722H24.1753V40.8387H24.3314C24.3956 40.8387 24.4553 40.8204 24.5012 40.7791C24.5517 40.7423 24.5884 40.6964 24.616 40.6459C24.6389 40.6046 24.6573 40.5587 24.6756 40.5128C24.6894 40.4669 24.7031 40.421 24.7077 40.3797H24.7628L24.7445 40.8892H23.7852V40.8387H23.9229V39.4112H23.7852V39.3607H24.7215V39.3516Z" fill="#575756"/>
<path d="M25.9086 39.3483C25.95 39.3483 25.9912 39.3483 26.0326 39.3575C26.0785 39.3621 26.1198 39.3713 26.1611 39.3896C26.184 39.3988 26.2116 39.4126 26.2437 39.4309C26.2712 39.4493 26.2988 39.4769 26.3217 39.509C26.3447 39.5411 26.3676 39.5824 26.3814 39.6283C26.3952 39.6742 26.4043 39.7339 26.4043 39.7982C26.4043 39.8257 26.4043 39.8578 26.3998 39.8899C26.3998 39.9267 26.386 39.9588 26.3722 39.9909C26.3584 40.023 26.3355 40.0598 26.3125 40.0873C26.285 40.1195 26.2529 40.147 26.207 40.1653C26.1794 40.1791 26.1519 40.1883 26.1244 40.1929C26.0968 40.1975 26.0647 40.2067 26.0371 40.2113C26.0096 40.2113 25.9821 40.2158 25.9591 40.2204C25.9362 40.2204 25.9178 40.2204 25.8995 40.2204H25.7847V40.8217H25.9407V40.8722H25.3945V40.8217H25.5323V39.3942H25.3945V39.3438H25.9132L25.9086 39.3483ZM25.8627 40.1699C25.8627 40.1699 25.9132 40.1699 25.9407 40.1653C25.9729 40.1653 26.0004 40.1516 26.028 40.1332C26.0509 40.1149 26.0693 40.0965 26.083 40.069C26.0968 40.046 26.106 40.0184 26.1106 39.9909C26.1152 39.9634 26.1198 39.9359 26.1198 39.9083V39.665C26.1198 39.6421 26.1198 39.6191 26.1198 39.5916C26.1198 39.564 26.1152 39.5411 26.106 39.5182C26.0968 39.4952 26.0877 39.4769 26.0785 39.4585C26.0647 39.4401 26.0509 39.4263 26.028 39.4172C26.0142 39.4126 25.9913 39.408 25.9637 39.4034C25.9316 39.4034 25.9086 39.3988 25.8857 39.3988H25.7893V40.1745H25.8719L25.8627 40.1699Z" fill="#575756"/>
<path d="M27.3934 39.3516L27.4072 39.8427H27.3475C27.3475 39.8105 27.3383 39.7692 27.3291 39.7187C27.32 39.6728 27.3062 39.627 27.2833 39.5857C27.2741 39.5673 27.2649 39.5489 27.2511 39.526C27.2374 39.503 27.219 39.4847 27.196 39.4663C27.1731 39.448 27.1455 39.4341 27.118 39.4204C27.0859 39.4066 27.0492 39.402 27.0078 39.402H26.8518V40.0125H26.9574C26.9574 40.0125 26.9987 40.0125 27.017 39.9987C27.0354 39.9895 27.0537 39.9712 27.0721 39.9482C27.0905 39.9207 27.1088 39.884 27.1134 39.8473C27.1226 39.8105 27.1272 39.7738 27.1272 39.7371H27.1823V40.3522H27.1272C27.1272 40.3292 27.1272 40.3017 27.1226 40.2696C27.1226 40.242 27.1134 40.2145 27.1042 40.1915C27.0951 40.164 27.0813 40.1364 27.0675 40.1227C27.0537 40.1043 27.04 40.0951 27.0262 40.086C27.0124 40.0768 26.9987 40.0722 26.9849 40.0722C26.9711 40.0722 26.9619 40.0722 26.9528 40.0722H26.8472V40.8387H27.0032C27.0675 40.8387 27.1272 40.8204 27.1731 40.7791C27.2236 40.7423 27.2603 40.6964 27.2879 40.6459C27.3108 40.6046 27.3291 40.5587 27.3475 40.5128C27.3613 40.4669 27.375 40.421 27.3796 40.3797H27.4347L27.4164 40.8892H26.457V40.8387H26.5948V39.4112H26.457V39.3607H27.3934V39.3516Z" fill="#575756"/>
<path d="M27.6203 39.7275C27.6662 39.6265 27.7167 39.5438 27.7718 39.4842C27.8315 39.4245 27.8866 39.3832 27.937 39.3602C27.9921 39.3373 28.038 39.3281 28.0839 39.3281C28.1528 39.3281 28.217 39.3419 28.2675 39.374C28.318 39.4061 28.3639 39.4429 28.4052 39.4842C28.4511 39.5347 28.4878 39.5897 28.52 39.6448C28.5475 39.6999 28.5705 39.755 28.5888 39.8101C28.6026 39.8652 28.6164 39.9203 28.621 39.9707C28.6255 40.0212 28.6301 40.0717 28.6301 40.113C28.6301 40.136 28.6301 40.1727 28.6256 40.2186C28.6256 40.2645 28.6118 40.3196 28.598 40.3793C28.5842 40.4389 28.5613 40.4986 28.5337 40.5628C28.5062 40.6271 28.4649 40.6868 28.4098 40.7418C28.3777 40.774 28.3502 40.8015 28.318 40.8199C28.2859 40.8382 28.2584 40.8566 28.2308 40.8658C28.2033 40.875 28.1757 40.8842 28.1528 40.8887C28.1298 40.8887 28.1069 40.8933 28.0885 40.8933C28.0426 40.8933 27.9921 40.8841 27.937 40.8612C27.882 40.8382 27.8269 40.8015 27.7718 40.7418C27.7489 40.7189 27.7259 40.6914 27.6984 40.6547C27.6708 40.6179 27.6479 40.5766 27.6249 40.5215C27.602 40.471 27.5836 40.4114 27.5698 40.3425C27.5561 40.2737 27.5469 40.1956 27.5469 40.1084C27.5469 39.9523 27.5698 39.8238 27.6157 39.7229L27.6203 39.7275ZM27.836 40.3655C27.836 40.393 27.836 40.4251 27.836 40.4573C27.836 40.4894 27.8407 40.5261 27.8498 40.5628C27.8544 40.5995 27.8636 40.6317 27.8728 40.6638C27.882 40.696 27.8957 40.7281 27.9141 40.751C27.9416 40.7923 27.9737 40.8199 28.0059 40.8291C28.038 40.8383 28.0656 40.8474 28.0839 40.8474C28.1206 40.8474 28.1528 40.8383 28.1849 40.8245C28.217 40.8061 28.24 40.7878 28.2629 40.7602C28.2767 40.7419 28.2905 40.7097 28.2996 40.6776C28.3088 40.6408 28.318 40.6041 28.3226 40.5674C28.3272 40.5307 28.3318 40.494 28.3364 40.4573C28.3364 40.4205 28.341 40.393 28.341 40.3701V39.8698C28.341 39.8422 28.341 39.8101 28.3364 39.7733C28.3364 39.7366 28.3272 39.6999 28.3226 39.6678C28.3134 39.6311 28.3088 39.5989 28.2996 39.5668C28.2905 39.5347 28.2767 39.5071 28.2629 39.4842C28.2216 39.4153 28.162 39.3832 28.0885 39.3832C28.0472 39.3832 28.0151 39.3924 27.9875 39.4108C27.96 39.4291 27.937 39.452 27.9187 39.4842C27.9049 39.5117 27.8911 39.5393 27.882 39.576C27.8728 39.6127 27.8636 39.6448 27.859 39.6816C27.8544 39.7183 27.8498 39.755 27.8452 39.7871C27.8452 39.8193 27.8452 39.8468 27.8452 39.8652V40.3655H27.836Z" fill="#575756"/>
<path d="M29.2524 39.3483C29.2891 39.3483 29.335 39.3483 29.3763 39.3575C29.4176 39.3667 29.4635 39.3713 29.5048 39.3896C29.5278 39.3988 29.5553 39.4126 29.5874 39.4309C29.615 39.4493 29.6425 39.4769 29.6655 39.509C29.6884 39.5411 29.7114 39.5824 29.7252 39.6283C29.7389 39.6742 29.7481 39.7339 29.7481 39.7982C29.7481 39.8257 29.7481 39.8578 29.7435 39.8899C29.7435 39.9267 29.7297 39.9588 29.716 39.9909C29.7022 40.023 29.6838 40.0598 29.6563 40.0873C29.6287 40.1195 29.5966 40.147 29.5507 40.1653C29.5232 40.1791 29.4956 40.1883 29.4681 40.1929C29.4406 40.1975 29.4084 40.2067 29.3809 40.2113C29.3534 40.2113 29.3258 40.2158 29.3028 40.2204C29.2799 40.2204 29.2615 40.2204 29.2478 40.2204H29.1284V40.8217H29.2845V40.8722H28.7383V40.8217H28.876V39.3942H28.7383V39.3438H29.257L29.2524 39.3483ZM29.2065 40.1699C29.2065 40.1699 29.257 40.1699 29.2845 40.1653C29.3166 40.1653 29.3442 40.1516 29.3717 40.1332C29.3947 40.1149 29.413 40.0965 29.4268 40.069C29.4406 40.046 29.4497 40.0184 29.4543 39.9909C29.4589 39.9634 29.4635 39.9359 29.4635 39.9083V39.665C29.4635 39.6421 29.4635 39.6191 29.4635 39.5916C29.4635 39.564 29.4589 39.5411 29.4497 39.5182C29.4406 39.4952 29.4314 39.4769 29.4222 39.4585C29.4084 39.4401 29.3947 39.4263 29.3717 39.4172C29.3579 39.4126 29.335 39.408 29.3074 39.4034C29.2799 39.4034 29.2524 39.3988 29.2294 39.3988H29.133V40.1745H29.2156L29.2065 40.1699Z" fill="#575756"/>
<path d="M30.3443 39.3516V39.402H30.2066V40.8295H30.3305C30.3902 40.8295 30.4453 40.8112 30.4912 40.7791C30.5371 40.7469 30.5784 40.701 30.6151 40.6413C30.6426 40.5954 30.661 40.5496 30.6747 40.5037C30.6885 40.4578 30.6977 40.4164 30.7023 40.3751H30.762L30.7436 40.8846H29.8164V40.8341H29.9541V39.4066H29.8164V39.3562H30.3443V39.3516Z" fill="#575756"/>
<path d="M31.7879 39.3516L31.8017 39.8427H31.742C31.742 39.8105 31.7329 39.7692 31.7237 39.7187C31.7145 39.6728 31.7007 39.627 31.6778 39.5857C31.6686 39.5673 31.6594 39.5489 31.6457 39.526C31.6319 39.503 31.6135 39.4847 31.5906 39.4663C31.5676 39.448 31.5447 39.4341 31.5125 39.4204C31.4804 39.4066 31.4437 39.402 31.4024 39.402H31.2463V40.0125H31.3519C31.3519 40.0125 31.3932 40.0125 31.4116 39.9987C31.4299 39.9895 31.4483 39.9712 31.4666 39.9482C31.485 39.9207 31.5033 39.884 31.5079 39.8473C31.5171 39.8105 31.5217 39.7738 31.5217 39.7371H31.5768V40.3522H31.5217C31.5217 40.3292 31.5217 40.3017 31.5171 40.2696C31.5171 40.242 31.508 40.2145 31.4988 40.1915C31.4896 40.164 31.4758 40.1364 31.462 40.1227C31.4483 40.1043 31.4345 40.0951 31.4208 40.086C31.407 40.0768 31.3932 40.0722 31.3794 40.0722C31.3657 40.0722 31.3565 40.0722 31.3473 40.0722H31.2417V40.8387H31.3978C31.462 40.8387 31.5217 40.8204 31.5676 40.7791C31.6135 40.7423 31.6548 40.6964 31.6824 40.6459C31.7053 40.6046 31.7237 40.5587 31.742 40.5128C31.7604 40.4669 31.7696 40.421 31.7742 40.3797H31.8292L31.8109 40.8892H30.8516V40.8387H30.9893V39.4112H30.8516V39.3607H31.7879V39.3516Z" fill="#575756"/>
<path d="M22.8476 24.3327C15.8661 24.3327 9.03617 26.6782 3.60156 30.9424L5.91036 36.9921C5.94249 36.9691 5.97463 36.9462 6.00217 36.9186C6.05266 36.8773 6.10773 36.836 6.15822 36.7947C6.23166 36.7396 6.30509 36.6845 6.37853 36.6294C6.42902 36.5881 6.48411 36.5514 6.5346 36.5101C6.61722 36.4504 6.69983 36.3908 6.78245 36.3311C6.82836 36.299 6.87428 36.2668 6.92018 36.2347C7.0487 36.1429 7.17721 36.0511 7.31032 35.9639C8.29718 35.2846 9.33911 34.6695 10.404 34.1324C14.2137 32.2046 18.5192 31.1903 22.8568 31.1903C27.1944 31.1903 31.688 32.2551 35.5712 34.2702C36.5718 34.7888 37.5541 35.381 38.4812 36.019C38.6052 36.1062 38.7291 36.1934 38.8485 36.2806C38.8898 36.3081 38.9311 36.3402 38.9724 36.3678C39.055 36.4275 39.133 36.4825 39.2111 36.5422C39.257 36.5789 39.3029 36.6111 39.3534 36.6478C39.4268 36.7029 39.5003 36.758 39.5691 36.8131C39.615 36.8498 39.6655 36.8865 39.7114 36.9232C39.7389 36.9462 39.7711 36.9691 39.7986 36.9875L42.1074 30.9378C36.6682 26.6736 29.8382 24.3281 22.8568 24.3281L22.8476 24.3327ZM32.1195 26.3156L32.5326 26.9904L31.8532 27.4035L31.4401 26.7287L32.1195 26.3156ZM30.4854 25.9025L30.8985 26.5773L30.2238 26.9904L29.8107 26.3156L30.4854 25.9025ZM11.3771 32.0715C11.2256 32.3974 10.8859 32.6866 10.3673 32.9482C9.85319 33.2053 9.38043 33.2971 8.94437 33.2328C8.50832 33.1685 8.20078 32.9528 8.02177 32.5902L7.35621 31.2453L6.20413 30.9057L8.82043 29.6067L8.46702 30.6945L9.06372 31.8925C9.19224 32.1495 9.34371 32.3056 9.52732 32.3607C9.70633 32.4158 9.93122 32.3791 10.1974 32.2459C10.4728 32.1082 10.6473 31.9522 10.7115 31.7686C10.7804 31.5896 10.7483 31.3693 10.6197 31.1168L10.0276 29.9188L8.94897 29.5424L11.065 28.4913L10.6381 29.6159L11.3037 30.9562C11.5102 31.3739 11.5377 31.741 11.3863 32.0669L11.3771 32.0715ZM16.697 30.6302L16.0819 30.4283C15.6734 30.8047 15.2144 31.0663 14.7049 31.2178C14.0898 31.4014 13.5252 31.3876 13.0111 31.1765C12.4971 30.9653 12.1666 30.6119 12.0197 30.1162C11.8682 29.5975 11.96 29.088 12.3043 28.5785C12.6485 28.0736 13.1351 27.7247 13.7639 27.5366C14.3009 27.3759 14.8058 27.3851 15.2786 27.5687L15.5999 27.1143L16.0406 28.5969C15.2878 28.1149 14.5901 27.9681 13.9383 28.1609C13.6492 28.2481 13.4564 28.4224 13.3554 28.6887C13.259 28.9549 13.2682 29.2854 13.3829 29.6755C13.6124 30.4421 14.0439 30.7312 14.6819 30.5431C14.9757 30.4558 15.1868 30.2952 15.3153 30.0657L15.2603 29.8821L14.0852 29.368L16.9769 28.5096L16.371 29.5562L16.6878 30.6302H16.697ZM21.5991 29.446C21.186 29.85 20.6719 30.0795 20.0523 30.1391C19.4464 30.1988 18.8956 30.0703 18.3998 29.7582C17.9041 29.4415 17.6333 29.0467 17.5874 28.5693C17.5323 28.0277 17.7159 27.5412 18.1336 27.1097C18.5513 26.6737 19.0746 26.4258 19.708 26.3615C20.3139 26.3019 20.8555 26.4441 21.3421 26.793C21.8286 27.1418 22.0948 27.5779 22.1499 28.1057C22.2004 28.5969 22.0168 29.0467 21.6037 29.446H21.5991ZM27.1026 30.0703L22.4299 29.7352L23.3663 28.987L23.4994 27.1189L22.6823 26.2376L25.6751 26.4533L24.7387 27.2107L24.5964 29.1936L26.0744 29.2992L27.2357 28.1976L27.1026 30.0703ZM31.1051 28.8448L31.8487 28.6199L31.4356 30.1483L30.9215 29.5149L30.0218 29.2716L29.8199 30.0198L31.4539 30.4604L32.6519 29.7398L32.2067 31.3784L27.5845 30.1299L28.6494 29.5746L29.1405 27.7615L28.5025 26.7471L33.0558 27.9772L32.6611 29.4414L32.0368 28.3031L30.4028 27.8625L30.2054 28.6015L31.1051 28.8448ZM37.1914 31.2178L37.3246 32.8656L37.701 33.958L35.2315 32.7554L36.2138 32.3883L36.1312 31.429L35.0158 31.5804L34.9561 31.7089L35.1948 32.7371L32.6886 31.5161L33.8407 31.1673L34.6578 29.4873L34.2217 28.3674L36.7049 29.5746L35.8007 29.9785L35.3784 30.846L37.0675 30.5293L36.8197 29.6296L39.1973 30.7863L37.1914 31.2132V31.2178Z" fill="#575756"/>
<path d="M5.6595 37.476L4.05298 33.2578H0L1.1521 38.853H9.37285L5.66409 37.476H5.6595ZM2.12976 37.5679L2.84583 37.0216L1.36323 36.6315L2.54746 36.2092L1.1888 35.7227L2.14354 35.2958L0.936357 34.6945L3.24516 34.0886L2.10222 34.8322L4.04842 35.3922L2.80451 35.7227L4.49364 36.2L3.14876 36.7187L4.53496 36.9987L3.2681 37.4255L5.59985 38.0957L2.12976 37.5679Z" fill="#575756"/>
<path d="M41.6446 33.2578L40.0197 37.5219L36.5312 38.853H44.8117L45.9638 33.2578H41.6492H41.6446ZM44.4766 35.7227L43.118 36.2092L44.3022 36.6315L42.8196 37.0216L43.5357 37.5679L40.0656 38.0957L42.3973 37.4255L41.1305 36.9987L42.5167 36.7187L41.1718 36.2L42.8609 35.7227L41.617 35.3922L43.5632 34.8322L42.4203 34.0886L44.7291 34.6945L43.5219 35.2958L44.4766 35.7227Z" fill="#575756"/>
<path d="M7.12891 28.5611C7.61545 28.2811 8.11119 28.0103 8.61151 27.7578C8.11119 28.0149 7.61545 28.2811 7.12891 28.5611Z" fill="#575756"/>
<path d="M7.56361 25.2774C6.77871 26.1908 6.88888 27.4668 7.02658 28.1553C7.51313 27.8753 8.00424 27.6091 8.49997 27.3567C8.34849 26.6819 8.22458 25.4655 8.97735 24.5797C9.45012 24.0243 10.7537 23.8545 10.7537 23.8545C10.7537 23.8545 12.6172 23.4276 13.2828 23.5423C13.953 23.6525 14.6277 24.0105 14.6277 24.0105C14.6277 24.0105 16.0093 23.859 16.4637 23.9738C16.7161 24.038 17.2165 24.2171 17.6479 24.364C18.006 24.3043 18.3686 24.2492 18.7312 24.2033C19.0708 23.8452 19.5528 23.345 19.6446 23.2669C19.9521 23.0099 20.2275 22.7253 20.5029 22.4361C20.7967 22.124 21.756 21.004 21.9442 20.7745C22.1921 20.4716 22.7337 19.5122 22.7979 19.3929C22.853 19.2873 23.5369 17.5891 23.6517 17.3641C23.7114 17.2402 23.8078 17.2127 23.7297 17.0704C23.6747 16.9694 23.6196 16.8271 23.5415 16.7307C23.514 16.694 23.4818 16.6664 23.4451 16.6435C23.234 16.5241 23.0779 16.414 22.9494 16.313C22.6602 16.0835 22.5363 15.8999 22.4124 15.7576C22.3527 15.6888 22.293 15.6337 22.2104 15.5786C22.4215 15.9596 22.8714 16.7169 23.0871 17.0933C23.1973 17.2861 23.234 17.6074 23.234 17.6074C23.234 17.6074 23.2064 17.892 23.1284 17.9608C23.1376 17.9379 23.0642 17.9149 23.0871 17.9516C22.9402 17.8002 22.8209 17.5753 22.697 17.41C22.5547 17.2173 22.4261 17.0107 22.2747 16.8179C22.137 16.6435 21.9121 16.3543 21.6045 16.0284C20.9528 15.3353 19.9383 14.4724 18.6853 14.174C18.2584 14.0731 16.7207 13.5314 14.9123 14.5275C13.292 15.4179 12.9753 16.2855 12.7917 16.6252C12.4428 17.2724 12.3327 18.429 12.3235 18.8192C12.3051 19.4847 12.6448 20.4578 12.8651 20.9535C12.9018 21.0316 12.934 21.1004 12.9615 21.1509C13.3149 21.8119 14.1824 22.9915 14.2192 23.143C13.8382 23.1613 13.471 23.0512 13.0946 23.0007C12.7595 22.9548 12.429 22.9823 12.094 23.0007C11.5799 23.0282 11.0934 23.1292 10.616 23.2852L8.78914 23.4368L10.2947 22.2388L8.37605 22.2938L10.0698 21.1325L8.02261 20.9765L9.82649 19.9988L7.80689 19.627L9.70715 18.8467L7.73803 18.2684L9.70715 17.69L7.80689 16.9097L9.82649 16.5379L8.04096 15.574C8.04096 15.574 8.04096 15.5648 8.04096 15.5602L10.0652 15.4042L8.41275 14.2705C8.41275 14.2705 8.41735 14.2521 8.42194 14.2429L10.4232 14.298L8.90849 13.0082C8.90849 13.0082 8.91768 12.9852 8.92227 12.976L10.896 13.2377L9.52356 11.7964C9.52356 11.7964 9.53732 11.7734 9.54191 11.7643L11.4743 12.2325L10.2534 10.6489C10.2534 10.6489 10.2626 10.6351 10.2717 10.6259L12.1582 11.2961L11.0979 9.57027C11.0979 9.57027 11.1025 9.56108 11.1071 9.55649L12.934 10.4331L12.0481 8.5834L13.7969 9.65746L13.1084 7.72507L14.7332 8.97814L14.2513 6.98148L15.7385 8.3952L15.4677 6.36178L16.7988 7.927L16.7437 5.87527L17.9004 7.56897L18.0564 5.52183L19.0341 7.32574L19.4059 5.30611L20.0852 6.7703L20.2 7.02278L20.8426 8.3906L20.6498 8.76242L20.3193 9.40039L20.1541 9.71713L20.099 9.82728L21.7468 13.536C21.756 13.5773 21.7652 13.6233 21.779 13.6783L21.9167 14.3806C21.9167 14.3806 21.9167 14.3806 21.9167 14.3852L21.9626 14.6284V14.6147C21.9626 14.6147 21.9626 14.6239 21.9626 14.6284C21.9626 14.6468 21.9626 14.5872 21.9626 14.4862C21.9626 14.4632 21.9626 14.4403 21.9626 14.4127C21.9626 14.018 21.9672 13.2377 21.9763 13.201C21.9855 13.1642 21.8937 12.8521 21.8386 12.664C21.8386 12.6548 21.834 12.6456 21.8295 12.6364C21.8295 12.6226 21.8295 12.6135 21.8295 12.6043C21.8157 12.4253 21.7652 12.2554 21.7514 12.1039C21.7376 11.9433 21.7468 11.8102 21.7652 11.6954C21.8065 11.5623 21.8662 11.4521 21.958 11.3512C21.9671 11.3512 21.9717 11.3558 21.9809 11.3603C22.0406 11.2915 22.1186 11.2456 22.2104 11.2456C22.9448 11.2089 23.1468 12.0534 23.0779 12.7924C23.0228 12.8016 22.6006 13.0036 22.6006 13.0036L22.7429 13.1918L23.032 13.123C23.0183 13.1872 23.0045 13.2514 22.9861 13.3111C23.0825 13.4488 23.1606 13.6049 23.2661 13.7334C23.312 13.5085 23.3258 13.2973 23.3258 13.077V13.0403L23.2799 12.1499L22.596 10.3001V10.3093C22.596 10.3093 22.596 10.3047 22.5914 10.3001C22.573 10.1899 22.5363 10.0751 22.5317 9.97414C22.5317 9.74923 22.596 9.4968 22.6281 9.25353C22.6602 9.01944 22.6786 8.7486 22.7429 8.54205C22.8071 8.34009 22.8806 8.13815 22.954 7.93619C23.0275 7.72964 23.0917 7.52307 23.1835 7.33946C23.2202 7.22012 23.4635 6.96311 23.4635 6.96311C23.4635 6.96311 23.6884 6.7336 24.0602 6.78868C24.1382 6.80245 24.3218 6.96311 24.3402 7.02737C24.3585 7.1054 24.354 7.24308 24.3494 7.34406C24.3494 7.35783 24.3494 7.36704 24.3494 7.37622C24.3494 7.46802 24.3356 7.55061 24.3218 7.62864C24.2851 7.85355 24.2163 8.02797 24.1566 8.26207C24.0832 8.54665 24.0051 8.76699 23.9822 9.08829C23.9822 9.13879 23.9959 9.226 23.9363 9.26272C23.8858 8.87716 23.9776 8.58337 24.051 8.32174C24.0877 8.18404 24.1107 8.04637 24.1291 7.89949C23.9914 8.01883 23.9179 8.18406 23.8399 8.39979C23.8123 8.47782 23.7343 9.05159 23.7343 9.27191C23.7343 9.4601 23.7068 9.68498 23.7343 9.8181C23.7435 9.86859 23.8032 9.92826 23.8399 9.99252C24.0556 10.3781 24.2576 10.7361 24.4641 11.0941C24.4917 11.1492 24.5238 11.2181 24.5789 11.2456C24.5835 11.2089 24.5789 11.1722 24.5789 11.1354C24.5651 11.0528 24.5376 10.9702 24.5146 10.8921C24.4458 10.6443 24.3677 10.4194 24.3035 10.1715C24.2714 10.0476 24.2117 9.91452 24.2071 9.79518C24.2071 9.77223 24.2071 9.74927 24.2071 9.72632C24.2163 9.63452 24.2392 9.54273 24.253 9.45093C24.2989 9.07454 24.331 8.73483 24.3769 8.36763C24.4458 8.16567 24.4779 7.93622 24.5284 7.73426C24.5468 7.66082 24.5559 7.58274 24.5743 7.51389C24.5835 7.48635 24.6156 7.3716 24.6202 7.34865C24.6248 7.33029 24.7854 6.94934 24.8405 6.85295C24.8543 6.83 24.9231 6.67855 24.9461 6.64183C24.9828 6.59134 25.0103 6.51327 25.0333 6.49032C25.272 6.21033 25.7998 6.35262 25.9238 6.66474C25.8274 6.94932 25.8044 7.30274 25.5703 7.44962C25.5336 7.4588 25.5841 7.57359 25.6667 7.60113C25.6116 7.75719 25.6162 7.90862 25.5336 8.02338C25.4877 8.08764 25.3776 8.13359 25.3041 8.18867C25.2215 8.24375 25.1435 8.29423 25.0746 8.3539C25.1756 8.4457 25.428 8.44109 25.4693 8.56502C25.4877 8.61551 25.4739 8.7119 25.4785 8.78534C25.4877 9.0332 25.4877 9.2581 25.4877 9.46465C25.4647 9.38203 25.3546 9.39121 25.3546 9.28564C25.2169 9.40957 25.1802 9.46466 25.0379 9.584C24.9782 9.6299 24.891 9.70337 24.8176 9.72632C24.6799 9.77222 24.5146 9.72628 24.3172 9.74464C24.331 9.95578 24.4136 10.1394 24.4687 10.3184C24.5284 10.5066 24.5697 10.6948 24.6523 10.8738C24.7992 11.4568 24.914 12.0443 25.0471 12.6272C25.1802 13.2101 25.3408 13.7885 25.4602 14.3714C25.5795 14.4036 25.6943 14.4862 25.8228 14.477C25.8687 13.8344 25.8274 13.1092 25.8411 12.4345C25.9146 12.1453 25.8733 11.6358 25.887 11.264C25.8916 11.14 25.9146 11.0069 25.8962 10.9013C25.8779 10.8141 25.8136 10.7223 25.7815 10.6214C25.731 10.4745 25.6667 10.3414 25.6943 10.1623C25.8365 10.4928 25.9467 10.8555 26.1257 11.1492C26.1533 10.7499 26.0798 10.3506 26.1165 9.9696C26.1303 9.8319 26.1165 9.70792 26.1257 9.57481C26.1349 9.38203 26.1992 9.16171 26.2405 8.95057C26.2818 8.74402 26.3277 8.5283 26.3644 8.32633C26.4746 7.77094 26.5388 7.13751 26.805 6.7749C26.9427 6.69228 27.1218 6.64642 27.3329 6.64183C27.3559 6.66937 27.3926 6.6785 27.4109 6.71063C27.4063 6.84833 27.3972 6.98604 27.3926 7.12375C27.3145 7.22932 27.1814 7.27523 27.085 7.36244C27.0759 7.47719 27.0391 7.6149 27.0483 7.71588C27.3421 7.74342 27.6083 7.71128 27.6817 7.47719C27.7139 7.65161 27.5578 7.72044 27.4706 7.80306C27.4568 8.00961 27.4385 8.21158 27.3834 8.37682C27.3145 8.42272 27.1585 8.37686 27.0942 8.42276C27.1126 8.5421 27.3008 8.56046 27.3237 8.70275C27.3467 8.84504 27.2457 9.45548 27.1906 9.584C27.1539 9.66662 27.0758 9.70794 27.007 9.76761C26.9336 9.83187 26.8693 9.91906 26.7867 9.91906C26.7132 9.91906 26.6214 9.8778 26.548 9.85026C26.47 9.82272 26.392 9.79516 26.3093 9.77221C26.2818 10.1807 26.2818 10.6076 26.2818 11.0069C26.2818 11.1492 26.2543 11.3099 26.2818 11.4384C26.2956 11.5118 26.3644 11.5945 26.4057 11.6771C26.5296 11.9249 26.649 12.2049 26.7683 12.4253C26.7775 13.5085 26.7821 14.5963 26.7959 15.675C26.9244 15.7301 27.0437 15.8035 27.1677 15.8586C27.2962 15.9137 27.668 16.1432 27.6863 16.2212C27.7093 16.3222 27.6955 16.4645 27.6955 16.5838C27.6955 16.7123 27.6909 16.8455 27.6955 16.9556C27.7047 17.153 27.6726 17.2264 27.6175 17.3779C27.5899 17.4513 25.093 23.3725 24.8313 23.9875C28.4299 24.2124 31.9505 25.0479 35.2369 26.4387L35.7694 25.7364L36.3523 24.9698L38.3765 22.3122V22.303L39.3037 20.9397L40.286 17.6074C40.3365 17.5293 40.3778 17.4559 40.387 17.4192C40.4053 17.355 40.4053 17.2586 40.4145 17.1713C40.4466 16.8959 40.5614 15.8953 40.5384 15.7438C40.5109 15.5694 40.1024 14.9957 40.0106 14.8258C39.9555 14.7203 39.703 14.4265 39.3726 14.0731C38.2985 12.2921 36.4487 10.9978 34.7274 9.78599L33.5386 8.48697L33.6488 8.14272V7.89949L34.2042 5.96245L32.7813 4.56712L32.9649 2.22162L32.2993 1.89569L30.0227 0.784934L30.8397 1.97374L29.6509 1.41836L28.3657 0L28.3427 2.63468L25.07 3.6583L28.3657 0H25.171L24.9415 1.01444L22.7015 1.41836L22.2701 2.67603C22.2563 2.72193 22.238 2.76779 22.2196 2.81369L22.1278 2.94223L21.1501 3.66284C21.1501 3.66284 21.1088 3.66284 21.0859 3.66284C19.6721 3.66284 18.2767 3.86944 16.9319 4.28254C10.7307 6.18282 6.40234 12.1545 6.40234 18.7962C6.40234 20.9627 6.86593 23.0971 7.74722 25.0662C7.6646 25.135 7.59575 25.1993 7.54526 25.259L7.56361 25.2774ZM22.4629 19.2827C22.4032 19.3654 22.1186 19.2369 22.0544 19.1818C21.9534 19.0992 21.8937 18.9339 22.0819 18.9385C22.2839 18.9431 22.0819 18.7824 22.1691 18.7687C22.2288 18.7549 22.3114 18.8008 22.3389 18.7458C22.495 18.4428 22.0085 18.2867 22.0222 17.9792C22.0681 17.869 22.1645 17.9287 22.2288 17.9792C22.2976 18.0343 22.3343 18.1123 22.3665 18.1949C22.4353 18.3785 22.4767 18.5162 22.495 18.7136C22.5134 18.9064 22.573 19.1267 22.4629 19.2919V19.2827ZM21.5908 17.3137C21.6321 17.3045 22.0865 17.153 22.4491 17.6028C22.6419 17.8415 22.7934 18.2179 22.7245 18.5208C22.6694 18.5117 22.6006 18.1306 22.5914 18.071C22.417 17.6625 22.1416 17.4743 21.9763 17.5064C21.7836 17.5569 21.7927 17.8507 21.8432 17.9976C21.7652 18.0251 21.756 18.0113 21.7331 17.9425C21.7009 17.8415 21.6229 17.9792 21.6045 17.9241C21.5173 17.6258 21.5127 17.511 21.5954 17.3182L21.5908 17.3137ZM20.659 16.9831C20.7324 17.1392 20.8334 16.8454 21.04 17.1071C21.0904 17.1759 21.196 17.1622 21.219 17.2494C21.2511 17.355 21.2878 17.5294 21.2557 17.6395C21.1547 17.3917 21.0308 17.41 20.9573 17.3687C20.916 17.3458 20.916 17.4192 20.8701 17.4192C20.7921 17.3504 20.7554 17.2402 20.6957 17.3917C20.5305 17.2402 20.4524 16.5976 20.0164 16.2625C20.2229 16.2166 20.6039 16.8776 20.6544 16.9877L20.659 16.9831ZM17.4184 15.9412C17.4689 15.9136 17.602 15.831 17.4184 15.9412C17.6617 15.7943 18.2263 15.6934 18.4971 15.9321C18.1987 16.0009 17.9187 15.9366 17.6387 16.0927C17.3679 16.2396 17.1843 16.4782 17.042 16.7444C16.9916 16.4277 17.143 16.111 17.4138 15.9412C17.3955 15.9504 17.4001 15.9504 17.4138 15.9412H17.4184ZM17.9784 15.395C18.1023 15.3445 18.2722 15.3537 18.3823 15.4363C18.5063 15.5281 18.4328 15.6612 18.2997 15.6383C18.0014 15.5924 17.6709 15.6612 17.4046 15.7989C17.5515 15.6199 17.7673 15.4822 17.9784 15.395C18.1482 15.3262 17.7719 15.4776 17.9784 15.395ZM13.6684 18.3969C13.2782 18.3877 13.7877 17.9103 14.0264 17.8415C14.1641 17.8002 13.9162 17.9884 13.8657 18.1077C13.7923 18.2822 13.7647 18.3556 13.6638 18.3969H13.6684ZM15.0913 17.8965C14.9352 17.8965 14.7608 17.9379 14.6185 18.0067C14.0493 18.2729 14.1228 18.7778 13.9805 18.8146C13.9346 18.4565 14.1274 17.8369 14.5634 17.6762C14.7195 17.6166 14.8893 17.7222 15.0408 17.7635C15.2427 17.814 15.3483 17.8874 15.0867 17.8965H15.0913ZM14.0264 20.0034C13.8336 19.6867 13.7923 19.6729 13.8152 19.4251C13.8244 19.3195 13.8611 19.2185 13.9208 19.1313C14.0126 19.1313 14.0998 19.1175 14.187 19.09C14.568 18.9798 14.8159 18.7228 15.0729 18.4428C14.8434 18.5346 14.7195 18.7228 14.467 18.7687C14.3706 18.6034 14.7011 18.4933 14.7975 18.429C14.926 18.3372 15.0546 18.2408 15.1693 18.1352C15.2703 18.0388 15.3483 18.1123 15.4768 18.071C15.5916 18.0388 15.7752 17.8782 15.844 17.667C15.8348 17.5339 15.7614 16.9051 15.4172 16.873C15.1142 16.9051 14.8204 17.0382 14.5221 17.1209C14.3798 17.1622 14.2238 17.1805 14.0907 17.2448C13.9897 17.2953 13.907 17.4055 13.8198 17.4743C13.6454 17.6166 13.5169 17.8644 13.3057 17.9516C13.4067 17.4972 13.7923 17.208 14.0815 16.8684C14.2421 16.6802 14.3982 16.5104 14.6093 16.3773C14.7745 16.2717 14.9444 16.0743 15.1372 16.033C15.2703 16.0055 15.6375 16.2166 15.5778 15.9367C15.5136 15.6704 15.7155 15.6337 15.9083 15.5281C16.3076 15.3078 16.7896 15.1517 17.2486 15.0966C17.2623 15.0966 17.2715 15.0966 17.2807 15.0966C17.2715 15.0966 17.2578 15.0966 17.2486 15.0966C17.4414 15.0737 17.6525 15.0966 17.8407 15.0966C17.7581 15.2114 17.5607 15.2481 17.4368 15.294C17.2991 15.3445 17.1797 15.4271 17.0696 15.5189C16.7712 15.7714 16.5601 15.955 16.3398 16.3406C16.2893 16.4599 16.2939 16.6159 16.3719 16.6894C16.4821 16.8271 16.6886 17.0245 16.8722 17.0658C17.166 17.0933 17.446 16.7491 17.6433 16.6573C17.7581 16.6068 17.7856 16.5976 17.8958 16.5425C18.0335 16.4737 18.1299 16.3635 18.0794 16.2166C18.1666 16.2304 18.2125 16.3497 18.3181 16.3084C18.3777 16.2855 18.4787 16.2534 18.543 16.2763C18.6439 16.4002 18.3456 16.4369 18.2217 16.5792C18.6027 16.492 18.8597 16.4553 19.0571 16.0973C19.1443 15.9412 19.2177 15.854 19.3921 15.9779C19.4931 16.0468 19.5757 16.1523 19.6675 16.235C19.8924 16.4415 20.0669 16.7261 20.0898 17.0336C20.1082 17.2356 20.1128 17.4422 20.1311 17.6441C20.1495 17.8461 20.1725 17.869 20.3698 17.8965C20.7508 17.9424 20.8977 18.1857 21.1318 18.4657C21.2695 18.631 21.5357 19.4847 21.4944 19.6087C21.4485 19.7602 20.8196 20.0539 20.6269 19.9942C20.4157 19.9254 19.9108 19.728 19.7135 19.8979C19.4977 20.0815 19.3049 20.2834 19.0616 20.444C18.7541 20.6506 18.4282 20.825 18.1023 21.004C17.7994 21.1693 16.8355 21.3299 16.6703 21.2519C16.5326 21.183 15.8027 20.8663 15.7935 20.7424C15.7844 20.646 15.8486 20.5083 15.7706 20.4303C15.5824 20.2421 14.21 20.3201 14.0172 20.0034H14.0264ZM22.0268 9.49222L20.3331 9.70794L21.0767 9.21224L22.4307 8.20699L22.0268 9.49222ZM27.6129 14.3118C27.6129 13.9675 27.6359 13.5957 27.6313 13.2836C27.6313 13.0725 27.6863 12.8613 27.7001 12.641C27.723 12.2233 27.6542 11.7597 27.7598 11.4246C27.8378 11.1676 28.0168 10.9151 28.1408 10.6672C28.2739 10.3964 28.3886 10.144 28.4666 9.88236C28.462 9.45549 28.5079 8.98728 28.5906 8.59713C28.6181 8.46861 28.6273 8.30797 28.6686 8.21158C28.7145 8.11519 28.944 7.95915 29.1184 7.94079C29.224 7.93161 29.2974 7.96372 29.3846 7.97749C29.4122 8.02339 29.4948 8.0739 29.4994 8.11062C29.3892 8.11062 29.3204 8.09685 29.2286 8.1198C29.201 8.37685 29.2056 8.6614 29.201 8.94598C29.3984 9.02401 29.4994 8.85419 29.6692 8.84042C29.6233 9.00107 29.6509 9.23058 29.6233 9.42336C29.582 9.66663 29.4764 9.89157 29.4397 10.144C29.4076 10.3552 29.4489 10.5801 29.4122 10.805C29.3846 10.9473 29.2974 11.0987 29.2378 11.2456C29.1827 11.3925 29.1001 11.5256 29.045 11.6587C29.0083 11.7551 29.022 11.8561 28.9302 11.9158C28.866 11.5807 28.9899 11.3466 29.0817 11.0987C29.1689 10.8738 29.2837 10.7086 29.2653 10.3689C29.1597 10.4332 28.9945 10.58 28.8614 10.6856C28.8109 10.7269 28.7558 10.7774 28.7099 10.782C28.5906 10.7912 28.5263 10.6856 28.4115 10.6489C28.3748 10.7315 28.2876 11.1446 28.2693 11.2732C28.2509 11.3787 28.205 11.4797 28.1912 11.5807C28.1775 11.6954 28.1912 11.8193 28.182 11.9341C28.1637 12.1865 28.0811 12.4253 28.0581 12.6548C27.9755 12.9026 27.9112 13.2698 27.8378 13.536C27.7644 13.8022 27.6634 14.0409 27.6083 14.3026L27.6129 14.3118ZM29.5545 21.9634L29.4535 22.0139H29.4489C29.4489 22.0139 26.5388 23.4184 26.5159 23.4276L26.8096 22.046C27.0162 20.926 27.209 19.7647 27.4568 18.8237C27.5578 18.4474 27.7139 18.0756 27.8516 17.7313C27.8975 17.612 27.9617 17.4835 27.9847 17.3687C28.0122 17.2356 28.003 17.0979 28.0122 16.9648C28.0214 16.8317 28.0031 16.6802 28.0306 16.5425C28.0444 16.4691 28.104 16.3864 28.1362 16.313C28.1729 16.2304 28.182 16.1386 28.2417 16.0743C28.3014 15.9228 28.3978 15.753 28.4437 15.6153C28.5125 15.1517 28.9027 13.2928 28.8935 13.38C28.8293 14.0501 28.7696 14.734 28.7007 15.3812C28.687 15.5006 28.7007 15.6245 28.6732 15.7255C28.6548 15.7897 28.6089 15.8723 28.5768 15.9458C28.5447 16.0146 28.5034 16.0881 28.4712 16.157C28.4024 16.3084 28.3106 16.4507 28.2693 16.5976C28.2004 16.85 28.2417 17.0841 28.182 17.3458C28.1499 17.5064 28.0765 17.6763 28.0214 17.8323C27.6313 18.9477 27.5991 20.0401 27.2824 21.2106L27.3283 21.2243L32.2764 15.1609L31.7118 14.4403L32.2672 13.4213C32.3819 13.6462 32.4967 13.8665 32.6114 14.0869C32.8226 14.4954 34.2684 17.3366 34.2684 17.4146C34.2684 17.4651 34.094 17.5845 34.0114 17.6533C33.9655 17.69 33.8875 17.7589 33.7865 17.8415L33.7773 17.8507C33.5111 18.0802 33.0888 18.4428 32.6895 18.7916L29.5912 21.922L29.5453 21.945H29.5591L29.5545 21.9634ZM34.2317 9.74464L34.8973 10.4653L36.132 11.4292C36.4533 11.7321 36.7379 11.9984 36.7976 12.0443C36.9444 12.1682 37.1051 12.2784 37.2382 12.4069C37.4172 12.5859 37.5733 12.797 37.7477 12.9898C38.0965 13.3754 39.4919 15.092 39.6158 15.2527C39.6985 15.3583 39.9371 15.7851 39.9509 15.9045C39.9693 16.033 39.9968 16.1661 39.9876 16.2763C39.9785 16.3681 39.905 17.13 39.7306 17.355C39.2486 17.5707 38.8217 17.1759 38.8217 17.1759C38.8217 17.1759 38.2939 17.713 37.9175 18.0985C37.8349 18.1766 37.7615 18.2546 37.6972 18.3326C37.6146 18.4198 37.5595 18.4795 37.5549 18.4933V18.5162H37.5641C37.4126 18.7412 37.3529 18.9523 37.3943 19.0762C37.4402 19.2139 38.0552 18.5621 38.9824 18.328C38.9136 18.4244 38.8493 18.4611 38.7988 18.5484C38.6427 18.8283 38.5418 19.1405 38.4133 19.4297C38.3857 19.4939 38.2985 19.8152 38.1746 20.2099C37.9451 20.5312 37.7339 20.8388 37.5503 21.1142C36.6461 22.4728 34.9478 24.1023 34.6861 24.3502L34.0206 24.9744L32.8455 24.9882V24.5154C33.3688 23.7489 33.8875 22.9594 34.4016 22.2525C34.8055 21.7017 35.113 20.2742 34.5071 20.8939C34.0344 21.3758 32.7491 22.8125 31.9367 23.7626L30.4725 23.9416L30.8764 22.8722L31.9551 20.7837L33.7819 18.3051C34.2639 17.8598 34.6402 17.5248 34.6586 17.4926C34.7183 17.3916 34.7688 17.2402 34.8238 17.0979C34.8743 16.9694 34.9615 16.7996 34.9661 16.6848C34.9753 16.5104 34.8422 16.3956 34.7734 16.2533C34.7183 16.1386 34.6678 16.0101 34.6219 15.8999C33.9885 14.477 33.3734 13.0862 32.7445 11.6817C32.7078 11.6036 32.6711 11.5256 32.6344 11.4476L32.74 10.9335L33.3872 8.95517L33.4193 8.86339L34.2317 9.74464ZM31.1839 4.35594L33.9104 5.90738L32.7721 5.94873L30.9085 4.4294L31.1839 4.36054V4.35594ZM32.4095 9.86399L31.6888 11.6128L31.1059 11.3374L30.0961 9.48303L32.4049 9.86399H32.4095ZM30.7525 5.88446L30.7387 5.96705L23.3855 5.45756L23.7343 4.44318L30.7525 5.88446ZM22.6694 2.9698L23.6379 3.58485L21.2924 4.00709L22.6694 2.9698ZM21.2511 5.70085L22.5317 6.94473L20.4524 6.78409L21.2511 5.70085Z" fill="#575756"/>
</svg>
