<svg width="211" height="77" viewBox="0 0 211 77" fill="none" xmlns="http://www.w3.org/2000/svg">
<path d="M117.845 76.4942C110.693 76.4942 103.887 75.4549 97.5619 73.421C95.1926 72.6498 92.0635 71.9793 88.7555 71.2752C83.7377 70.2023 78.5522 69.0959 75.0766 67.4531C70.1705 65.1398 64.8398 62.5359 58.7715 59.5185L59.2744 58.5016C65.3427 61.519 70.6623 64.1117 75.5572 66.425C78.9099 68.012 84.0282 69.096 88.979 70.1576C92.3205 70.8729 95.4608 71.5435 97.8971 72.3258C104.1 74.3262 110.794 75.3431 117.823 75.3431H118.002C124.819 75.3208 132.105 74.3485 139.682 72.4263C142.789 71.644 146.321 70.75 149.495 69.353C151.372 68.526 153.16 67.4755 154.892 66.4697C156.144 65.7321 157.429 64.9834 158.759 64.3128C159.407 63.8658 170.415 56.1323 172.997 49.7287L173.042 49.6393C173.153 49.4382 175.925 44.6103 170.706 40.9447C170.639 40.8888 167.141 38.0614 159.709 34.6529L160.178 33.6248C167.755 37.1004 171.242 39.9278 171.388 40.0396C177.165 44.0963 174.338 49.617 174.036 50.1646C171.231 57.0487 159.866 64.9163 159.385 65.2516L159.318 65.2963C158.022 65.9557 156.725 66.7155 155.474 67.4531C153.708 68.4813 151.897 69.5541 149.964 70.4035C146.701 71.8451 143.136 72.7392 139.973 73.5439C132.295 75.4884 124.908 76.4719 118.013 76.4942H117.834H117.845Z" fill="#575756"/>
<path d="M123.524 74.4937C94.8589 74.4937 61.4887 59.3286 56.7502 57.1046L56.9961 56.5905C63.1985 59.4961 118.45 84.5964 147.719 68.7159C147.898 68.6265 164.617 60.5354 166.081 50.7121C166.595 47.2477 165.142 43.9398 161.778 40.8665C161.733 40.8218 158.481 37.5474 151.776 34.15L152.033 33.647C158.828 37.0891 162.136 40.4307 162.169 40.4642C165.678 43.6604 167.176 47.1472 166.639 50.8016C165.142 60.9267 148.68 68.8948 147.976 69.2189C140.958 73.0298 132.476 74.4937 123.535 74.4937H123.524Z" fill="#575756"/>
<path d="M118.315 72.3034C91.4041 72.3034 60.1573 58.1104 55.7095 56.0205L55.9553 55.5065C57.5758 56.2664 72.2493 63.0388 89.7055 67.5426C112.213 73.3427 129.502 73.0968 141.113 66.805C141.281 66.7156 156.569 59.295 157.921 50.2093C158.402 46.9796 157.038 43.8727 153.876 40.9783C153.808 40.9224 148.522 35.9046 139.258 32.1831L139.47 31.6579C148.858 35.4241 154.222 40.5201 154.267 40.5648C157.575 43.5822 158.994 46.8566 158.491 50.2986C157.105 59.6861 142.018 67.0061 141.381 67.3078C134.754 70.8952 126.752 72.2922 118.326 72.2922L118.315 72.3034Z" fill="#575756"/>
<path d="M108.09 67.9113C83.7162 67.9113 54.2127 54.1989 53.8328 54.0201L54.0786 53.506C54.5591 53.7406 103.016 76.2371 126.72 63.3853C126.854 63.3182 138.823 57.4398 139.896 50.0975C140.298 47.3818 139.125 44.7667 136.454 42.3192C136.375 42.241 129.871 35.8822 117.019 32.9095L117.142 32.3507C130.173 35.3681 136.778 41.8275 136.845 41.8945C139.661 44.4649 140.879 47.2477 140.454 50.1645C139.337 57.8086 127.48 63.631 126.977 63.8769C121.646 66.7714 115.075 67.9001 108.079 67.9001L108.09 67.9113Z" fill="#575756"/>
<path d="M98.7141 64.6704C79.4474 64.6704 56.7946 55.1265 53.5425 53.7072L53.7771 53.182C58.0462 55.0371 96.0319 71.0405 115.287 60.5914C115.388 60.5355 125.01 55.7523 125.882 49.6617C126.217 47.3148 125.2 45.0461 122.864 42.9004C122.797 42.8333 117.411 37.5585 106.738 34.9882L106.872 34.4294C117.701 37.0445 123.2 42.4422 123.256 42.4869C125.737 44.7444 126.809 47.1918 126.452 49.7287C125.535 56.1211 115.969 60.8707 115.556 61.0719C110.806 63.6422 104.939 64.6369 98.7252 64.6369L98.7141 64.6704Z" fill="#575756"/>
<path d="M88.1868 61.1612C73.1222 61.1612 55.5541 54.2435 53.0061 53.2042L53.2184 52.679C56.5935 54.0536 86.7116 65.8885 101.687 57.7751C101.765 57.7304 108.359 54.3665 108.984 49.8963C109.242 48.0188 108.403 46.186 106.492 44.4426C106.403 44.3532 97.9877 36.195 81.2914 37.279C81.0679 37.3125 56.8282 41.1905 47.7089 45.2808L47.6419 45.3031L45.1721 45.806L45.0603 45.2472L47.4966 44.7555C56.7164 40.6429 80.9785 36.7538 81.2356 36.7202C98.2336 35.6139 106.805 43.9621 106.883 44.0515C108.929 45.9178 109.834 47.9293 109.543 49.9968C108.884 54.7576 102.234 58.1662 101.955 58.3115C98.1107 60.4013 93.294 61.1947 88.1868 61.1947V61.1612Z" fill="#575756"/>
<path d="M175.423 51.405C174.171 51.405 173.031 51.1815 172.003 50.7568C170.975 50.321 170.092 49.7063 169.366 48.924C168.639 48.1418 168.069 47.1918 167.678 46.0854C167.276 44.9902 167.074 43.7721 167.074 42.4757C167.074 41.1794 167.287 39.9612 167.689 38.866C168.103 37.7708 168.695 36.8209 169.444 36.0274C170.204 35.2451 171.109 34.6194 172.159 34.1835C173.21 33.7477 174.372 33.5353 175.635 33.5353C176.898 33.5353 177.982 33.7365 178.932 34.1388C179.882 34.5411 180.731 35.0887 181.446 35.7704L181.625 35.9381L180.72 37.1897C180.664 37.2791 180.575 37.3797 180.463 37.4467C180.34 37.5361 180.183 37.5696 180.005 37.5696C179.792 37.5696 179.569 37.4802 179.312 37.2902C179.111 37.145 178.853 36.9774 178.529 36.7986C178.228 36.6198 177.825 36.4633 177.345 36.3068C176.875 36.1615 176.283 36.0833 175.601 36.0833C174.774 36.0833 173.992 36.2286 173.31 36.5192C172.629 36.7986 172.025 37.2233 171.533 37.7709C171.042 38.3185 170.639 38.989 170.371 39.7713C170.092 40.5536 169.947 41.4699 169.947 42.4757C169.947 43.4815 170.092 44.4203 170.382 45.2026C170.662 45.9849 171.064 46.6665 171.567 47.203C172.059 47.7394 172.651 48.153 173.322 48.4436C173.992 48.7341 174.741 48.8793 175.523 48.8793C176.015 48.8793 176.462 48.8458 176.842 48.7899C177.233 48.7341 177.591 48.6447 177.915 48.5329C178.239 48.4212 178.541 48.2647 178.82 48.0859C179.099 47.9071 179.39 47.6724 179.658 47.4266C179.848 47.2589 180.049 47.1695 180.262 47.1695C180.474 47.1695 180.653 47.2589 180.798 47.4154L181.882 48.5777L181.714 48.7676C180.999 49.5946 180.116 50.2539 179.088 50.7233C178.071 51.1815 176.82 51.4274 175.378 51.4274" fill="#575756"/>
<path d="M59.7105 59.8203C59.2188 59.8203 57.9001 59.1833 53.0276 56.8141C48.915 54.8249 44.9365 52.8356 42.4108 51.5169L42.3438 51.4722C40.3322 50.0305 37.907 47.896 37.8623 45.9179C37.84 45.1356 38.1865 44.4539 38.8682 43.9175C39.874 43.124 41.1815 42.8781 42.5337 43.2246C45.8417 44.0628 48.4792 46.9349 50.6919 49.55C52.2453 51.3828 54.3686 53.4055 56.4249 55.35C57.7213 56.5905 58.9506 57.7528 60.0123 58.8592L60.3476 59.2055L60.0682 59.5968C59.9788 59.7197 59.9117 59.8091 59.7217 59.8091L59.7105 59.8203ZM42.9696 50.5334C46.9481 52.6121 53.2846 55.7076 56.9278 57.4399C56.5032 57.0264 56.0673 56.6241 55.6315 56.1994C53.5528 54.2213 51.4071 52.1762 49.8202 50.2987C47.7192 47.8065 45.2382 45.1021 42.2543 44.3421C41.5391 44.1633 40.4886 44.0962 39.5834 44.8226C39.1811 45.1355 38.9911 45.4821 39.0023 45.9067C39.0358 47.0355 40.511 48.7677 42.9808 50.5334H42.9696Z" fill="#575756"/>
<path d="M15.8811 50.6227V37.9943L10.6621 47.5047C10.4274 47.9406 10.0586 48.1864 9.57806 48.1864H9.2428C8.77343 48.1864 8.39349 47.9406 8.15881 47.5047L2.83923 37.9609V50.6339H0.268799V33.1106H2.24689C2.49276 33.1106 2.67158 33.133 2.81686 33.1889C2.99567 33.256 3.15211 33.4011 3.28621 33.647L9.13107 44.0739C9.22048 44.275 9.32106 44.4651 9.41046 44.6662C9.49987 44.4539 9.58927 44.2527 9.68985 44.0627L15.434 33.647C15.557 33.4011 15.7135 33.2448 15.9035 33.1889C16.0487 33.133 16.2387 33.1106 16.4845 33.1106H18.4626V50.6116H15.8811V50.6227Z" fill="#575756"/>
<path d="M18.1826 33.39V50.321H16.1822V37.8714C16.1822 37.7038 16.1822 37.525 16.2046 37.335C16.2046 37.145 16.2269 36.955 16.2493 36.7539L10.438 47.3483C10.2592 47.7059 9.97981 47.8848 9.61102 47.8848H9.27577C8.90697 47.8848 8.62753 47.7059 8.44872 47.3483L2.5145 36.7203C2.5592 37.145 2.59274 37.525 2.59274 37.8714V50.321H0.581151V33.39H2.26867C2.46983 33.39 2.62627 33.4124 2.73802 33.4571C2.8386 33.5018 2.96157 33.6023 3.05097 33.7923L8.89577 44.2192C8.98517 44.4092 9.08574 44.6104 9.16397 44.8115C9.25337 45.0239 9.34276 45.2361 9.42098 45.4373C9.51039 45.225 9.57749 45.0127 9.67807 44.8115C9.76747 44.5992 9.85688 44.398 9.95746 44.208L15.7017 33.7923C15.7911 33.6135 15.9028 33.5018 16.0146 33.4571C16.1263 33.4124 16.2828 33.39 16.4951 33.39H18.1826ZM18.7414 32.8312H16.4839C16.2157 32.8312 16.0034 32.8649 15.8246 32.9207C15.5676 33.0101 15.3553 33.2112 15.1988 33.5241L9.45454 43.9286L9.40987 44.0068L9.38749 43.9622L3.5427 33.5129C3.36389 33.2112 3.16268 33.0101 2.92799 32.9207C2.74918 32.8537 2.5257 32.8312 2.25748 32.8312H0V50.9022H3.15151V39.0449L7.94587 47.6388C8.20291 48.1641 8.68345 48.4658 9.26458 48.4658H9.59983C10.181 48.4658 10.6503 48.1753 10.9297 47.6277L15.6123 39.1007V50.9022H18.7638V32.8312H18.7414Z" fill="#575756"/>
<path d="M65.3433 50.6227V37.4131L68.193 36.575V48.1194H75.513V50.6227H65.3433Z" fill="#575756"/>
<path d="M75.2339 47.8401H68.4727V36.3851C68.3498 36.6198 68.1375 36.821 67.9028 36.9327V48.41H75.2339V50.3434H65.6342V37.6144H65.0642V50.9134H75.8151V47.8513H75.2339V47.8401Z" fill="#575756"/>
<path d="M89.5835 50.6227V36.3962H92.4221V48.1194H99.7532V50.6227H89.5835Z" fill="#575756"/>
<path d="M99.4629 47.84H92.7017V36.3962C92.3441 36.4297 91.9642 36.0274 91.8748 36.3962L92.1318 36.6644V48.3876H99.4629V50.3209H89.8632V36.6644H90.1761C90.0755 36.2397 89.7067 36.7314 89.2932 36.5861V50.8797H100.044V47.8176H99.4629V47.84Z" fill="#575756"/>
<path d="M120.629 50.8238C119.556 50.8238 118.573 50.645 117.712 50.2762C116.841 49.9186 116.092 49.4158 115.489 48.7787C114.885 48.1529 114.404 47.3818 114.08 46.5101C113.756 45.6496 113.6 44.6998 113.6 43.694V33.7701L116.461 33.0212L116.438 43.6716C116.438 44.3421 116.528 44.9678 116.718 45.5266C116.908 46.0854 117.176 46.5548 117.534 46.9571C117.891 47.3483 118.327 47.6613 118.841 47.8848C119.355 48.1083 119.959 48.22 120.618 48.22C121.277 48.22 121.87 48.1083 122.384 47.8848C122.898 47.6613 123.334 47.3594 123.68 46.9571C124.027 46.5548 124.306 46.0854 124.496 45.5266C124.686 44.9678 124.775 44.3421 124.775 43.6716V33.0882H127.625V43.6716C127.625 44.6774 127.458 45.6273 127.145 46.4878C126.821 47.3595 126.351 48.1194 125.748 48.7564C125.144 49.3934 124.395 49.8964 123.535 50.254C122.674 50.6116 121.691 50.8016 120.618 50.8016" fill="#575756"/>
<path d="M116.159 33.0324V43.6828C116.159 44.398 116.26 45.0462 116.461 45.6385C116.662 46.2308 116.952 46.7449 117.332 47.1583C117.712 47.5718 118.182 47.9183 118.741 48.153C119.299 48.3877 119.925 48.5105 120.629 48.5105C121.333 48.5105 121.948 48.3989 122.507 48.153C123.065 47.9071 123.524 47.583 123.904 47.1583C124.284 46.7337 124.574 46.2196 124.775 45.6385C124.977 45.0574 125.077 44.398 125.077 43.6828V33.39H127.357V43.6828C127.357 44.655 127.2 45.5602 126.888 46.3984C126.575 47.2365 126.128 47.9518 125.558 48.5665C124.977 49.17 124.261 49.6616 123.434 50.008C122.596 50.3545 121.657 50.5334 120.618 50.5334C119.579 50.5334 118.64 50.3657 117.802 50.008C116.964 49.6616 116.26 49.1811 115.667 48.5665C115.075 47.963 114.639 47.2365 114.326 46.3984C114.013 45.5602 113.857 44.655 113.857 43.6828V33.96L116.137 33.0212M116.707 32.7419L115.924 33.066L113.644 33.4347L113.287 33.58V43.6828C113.287 44.7221 113.455 45.7055 113.79 46.5996C114.125 47.5048 114.617 48.2982 115.254 48.9576C115.88 49.617 116.673 50.1534 117.578 50.5222C118.484 50.9022 119.501 51.0922 120.607 51.0922C121.713 51.0922 122.741 50.9022 123.635 50.5222C124.529 50.1422 125.312 49.6169 125.96 48.9464C126.586 48.2871 127.078 47.4824 127.424 46.5884C127.759 45.6943 127.927 44.7109 127.927 43.6716V32.8088H124.507V43.6716C124.507 44.3086 124.418 44.912 124.239 45.4373C124.06 45.9513 123.803 46.3984 123.479 46.756C123.155 47.1248 122.753 47.3931 122.272 47.6054C121.803 47.8177 121.244 47.907 120.618 47.907C119.992 47.907 119.445 47.8065 118.964 47.5942C118.495 47.3819 118.081 47.1025 117.757 46.7337C117.433 46.3649 117.165 45.929 116.997 45.4149C116.818 44.8785 116.729 44.2974 116.729 43.6492V32.7195L116.707 32.7419Z" fill="#575756"/>
<path d="M147.495 50.8127C146.366 50.8127 145.316 50.6003 144.377 50.198C143.449 49.7845 142.645 49.2257 141.985 48.5217L141.84 48.3652L142.622 47.0912C142.712 46.9571 142.824 46.8565 142.935 46.7894C143.069 46.7 143.226 46.6553 143.382 46.6553C143.539 46.6553 143.706 46.7112 143.885 46.823C144.019 46.9124 144.176 47.0242 144.343 47.1471C144.5 47.27 144.69 47.4041 144.902 47.5606C145.103 47.6947 145.338 47.8288 145.584 47.9517C145.841 48.0635 146.132 48.1752 146.456 48.2423C146.78 48.3093 147.148 48.354 147.562 48.354C148.076 48.354 148.523 48.2758 148.925 48.1417C149.316 48.0076 149.641 47.8064 149.909 47.5606C150.166 47.3147 150.378 47.0241 150.512 46.6889C150.658 46.3424 150.725 45.9512 150.725 45.5377C150.725 45.0907 150.635 44.722 150.434 44.4426C150.222 44.152 149.953 43.8949 149.607 43.7049C149.249 43.4926 148.825 43.3138 148.367 43.1685C147.875 43.0121 147.383 42.8557 146.88 42.6992C146.388 42.5428 145.874 42.3528 145.372 42.1181C144.857 41.8946 144.399 41.604 143.997 41.2464C143.583 40.8888 143.259 40.4306 143.014 39.883C142.768 39.3354 142.634 38.6648 142.634 37.8825C142.634 37.2567 142.756 36.6308 143.002 36.0385C143.248 35.4462 143.606 34.9211 144.086 34.4517C144.567 33.9823 145.148 33.6247 145.819 33.3453C146.5 33.0771 147.283 32.9318 148.154 32.9318C149.127 32.9318 150.032 33.0882 150.836 33.4011C151.641 33.714 152.356 34.1722 152.982 34.7645L153.139 34.9098L152.49 36.1838C152.39 36.3514 152.289 36.4633 152.177 36.5527C152.043 36.6421 151.887 36.698 151.708 36.698C151.507 36.698 151.295 36.6085 151.071 36.4408C150.903 36.3179 150.68 36.1727 150.423 36.0051C150.166 35.8598 149.853 35.7145 149.484 35.5804C149.138 35.4575 148.702 35.3904 148.188 35.3904C147.674 35.3904 147.283 35.4575 146.925 35.5804C146.567 35.7034 146.277 35.8709 146.042 36.0833C145.807 36.2956 145.629 36.5303 145.517 36.8209C145.405 37.1115 145.338 37.4132 145.338 37.7484C145.338 38.1619 145.427 38.4972 145.629 38.7542C145.841 39.0336 146.12 39.2795 146.467 39.4807C146.836 39.693 147.249 39.883 147.718 40.0283C148.199 40.1847 148.702 40.3523 149.205 40.5311C149.708 40.6988 150.222 40.9 150.713 41.1346C151.216 41.3582 151.675 41.6487 152.077 41.9952C152.49 42.3528 152.826 42.7886 153.06 43.3026C153.317 43.8167 153.44 44.4538 153.44 45.2026C153.44 45.9513 153.306 46.7112 153.038 47.3929C152.77 48.0746 152.379 48.6893 151.876 49.1922C151.362 49.6951 150.736 50.1086 149.998 50.388C149.261 50.6674 148.422 50.8238 147.495 50.8238" fill="#575756"/>
<path d="M148.154 33.2113C149.104 33.2113 149.965 33.3565 150.736 33.6582C151.518 33.9488 152.2 34.3958 152.781 34.9546L152.222 36.0498C152.144 36.1616 152.077 36.2621 151.987 36.3068C151.898 36.3739 151.809 36.3963 151.686 36.3963C151.552 36.3963 151.395 36.3292 151.216 36.1951C151.037 36.061 150.803 35.9157 150.535 35.7592C150.266 35.6028 149.931 35.4463 149.562 35.3234C149.194 35.2004 148.713 35.1223 148.177 35.1223C147.64 35.1223 147.215 35.2004 146.824 35.3345C146.433 35.4687 146.109 35.6586 145.852 35.8933C145.595 36.128 145.394 36.4074 145.249 36.7203C145.103 37.0332 145.047 37.3797 145.047 37.7597C145.047 38.2291 145.159 38.6203 145.394 38.9332C145.629 39.2461 145.93 39.5143 146.321 39.7266C146.701 39.9501 147.137 40.1401 147.618 40.3078C148.098 40.4642 148.59 40.6318 149.104 40.8106C149.607 40.9782 150.11 41.1794 150.59 41.4029C151.071 41.6264 151.507 41.8946 151.887 42.2187C152.267 42.554 152.58 42.9563 152.814 43.4368C153.049 43.9174 153.161 44.5098 153.161 45.2138C153.161 45.9626 153.038 46.6555 152.781 47.3037C152.524 47.9518 152.166 48.5218 151.675 49.0024C151.194 49.4829 150.59 49.8628 149.886 50.131C149.182 50.3992 148.378 50.5445 147.484 50.5445C146.377 50.5445 145.383 50.3434 144.477 49.9411C143.572 49.5388 142.812 49.0022 142.164 48.3205L142.824 47.2254C142.891 47.136 142.958 47.069 143.058 47.0019C143.148 46.9348 143.248 46.9124 143.36 46.9124C143.46 46.9124 143.583 46.9572 143.706 47.0355C143.829 47.1249 143.975 47.2253 144.142 47.3483C144.31 47.4712 144.5 47.6053 144.712 47.7618C144.924 47.9182 145.159 48.0412 145.439 48.1864C145.707 48.3094 146.02 48.4212 146.366 48.4994C146.713 48.5888 147.104 48.6223 147.54 48.6223C148.087 48.6223 148.568 48.5441 148.992 48.3988C149.417 48.2536 149.775 48.0412 150.076 47.7729C150.378 47.5047 150.602 47.1695 150.758 46.8007C150.915 46.4319 151.004 46.0072 151.004 45.5266C151.004 45.0126 150.892 44.5879 150.658 44.2638C150.423 43.9397 150.121 43.6603 149.741 43.448C149.361 43.2357 148.936 43.0345 148.445 42.878C147.953 42.7216 147.461 42.5652 146.958 42.4088C146.456 42.2523 145.964 42.0623 145.472 41.85C144.98 41.6376 144.544 41.3583 144.176 41.023C143.807 40.6877 143.494 40.2519 143.259 39.749C143.025 39.2349 142.913 38.6202 142.913 37.8602C142.913 37.2568 143.025 36.6869 143.259 36.1281C143.494 35.5693 143.829 35.0663 144.276 34.6417C144.712 34.2058 145.271 33.8595 145.919 33.6024C146.567 33.3454 147.316 33.2113 148.154 33.2113ZM148.165 32.6636C147.249 32.6636 146.433 32.8089 145.718 33.0994C145.003 33.3788 144.388 33.77 143.896 34.2617C143.393 34.7423 143.013 35.3122 142.756 35.9381C142.499 36.5639 142.365 37.2233 142.365 37.8938C142.365 38.7208 142.499 39.436 142.768 40.0172C143.036 40.5983 143.382 41.09 143.818 41.4811C144.243 41.8611 144.734 42.1741 145.271 42.4088C145.785 42.6323 146.299 42.8335 146.813 42.9899C147.316 43.1464 147.808 43.3027 148.299 43.4592C148.735 43.5933 149.138 43.7722 149.484 43.9734C149.786 44.1522 150.043 44.3756 150.222 44.6327C150.378 44.8674 150.468 45.1691 150.468 45.5602C150.468 45.9514 150.401 46.2979 150.278 46.6108C150.155 46.9125 149.976 47.1695 149.741 47.393C149.495 47.6165 149.216 47.7841 148.858 47.907C148.501 48.03 148.076 48.0971 147.595 48.0971C147.204 48.0971 146.858 48.0636 146.556 47.9965C146.254 47.9183 145.964 47.8289 145.74 47.7283C145.494 47.6278 145.293 47.4936 145.103 47.3595C144.891 47.2142 144.712 47.0801 144.545 46.9572C144.366 46.823 144.209 46.7002 144.064 46.622C143.84 46.4879 143.628 46.4096 143.416 46.4096C143.192 46.4096 142.98 46.4767 142.812 46.5884C142.667 46.6778 142.544 46.8119 142.432 46.9572V46.9795L142.41 47.0019L141.751 48.0971L141.527 48.4658L141.818 48.7788C142.511 49.5164 143.338 50.0864 144.31 50.5222C145.282 50.9581 146.366 51.1704 147.54 51.1704C148.501 51.1704 149.384 51.0139 150.155 50.7233C150.937 50.4216 151.596 49.9969 152.133 49.4605C152.669 48.924 153.083 48.2983 153.373 47.5719C153.641 46.8566 153.798 46.0966 153.798 45.2808C153.798 44.465 153.664 43.8169 153.384 43.2693C153.127 42.7217 152.77 42.2523 152.323 41.8724C151.898 41.5036 151.406 41.2017 150.881 40.9559C150.378 40.7212 149.853 40.52 149.35 40.3524C148.847 40.1736 148.344 40.006 147.864 39.8495C147.417 39.7042 147.014 39.5255 146.668 39.3243C146.355 39.1455 146.098 38.9219 145.908 38.676C145.751 38.4637 145.673 38.1955 145.673 37.8379C145.673 37.5473 145.729 37.2679 145.83 37.0221C145.93 36.7762 146.087 36.5751 146.277 36.3963C146.489 36.2063 146.746 36.061 147.059 35.9493C147.383 35.8375 147.785 35.7704 148.221 35.7704C148.691 35.7704 149.104 35.8263 149.417 35.9381C149.763 36.0498 150.054 36.1951 150.3 36.3404C150.557 36.4857 150.769 36.6309 150.926 36.7539C151.205 36.9662 151.473 37.0668 151.73 37.0668C151.965 37.0668 152.177 36.9997 152.356 36.8768C152.501 36.7762 152.636 36.6197 152.747 36.4409V36.4187L152.77 36.3963L153.328 35.3011L153.518 34.9211L153.217 34.6305C152.58 34.0158 151.82 33.5354 150.982 33.2113C150.143 32.8872 149.205 32.7307 148.188 32.7307" fill="#575756"/>
<path d="M208.379 50.6227C208.111 50.6227 207.876 50.5446 207.709 50.3993C207.541 50.2652 207.429 50.0975 207.34 49.8963L205.831 45.9849H198.623L197.114 49.8851C197.047 50.0639 196.935 50.2316 196.756 50.3769C196.566 50.5334 196.343 50.6116 196.086 50.6116H193.896L200.891 33.1106H203.585L210.581 50.6116H208.379V50.6227ZM204.959 43.7609L202.456 37.2568C202.378 37.0668 202.311 36.8432 202.221 36.5974C202.132 36.8544 202.065 37.0667 201.975 37.2791L199.472 43.7609H204.959Z" fill="#575756"/>
<path d="M203.372 33.3899L210.144 50.3209H208.367C208.166 50.3209 207.998 50.265 207.875 50.1644C207.752 50.0639 207.652 49.9298 207.596 49.7733L206.009 45.683H198.41L196.823 49.7733C196.767 49.9074 196.689 50.0415 196.555 50.1533C196.42 50.265 196.253 50.3209 196.063 50.3209H194.286L201.058 33.3899H203.383M199.058 44.0403H205.372L202.712 37.1561C202.623 36.9549 202.556 36.7202 202.455 36.4408C202.366 36.1726 202.288 35.8822 202.198 35.5692C202.031 36.2062 201.863 36.7314 201.695 37.1673L199.036 44.0403M203.763 32.82H200.678L200.533 33.1777L193.761 50.1087L193.448 50.8909H196.063C196.387 50.8909 196.689 50.7903 196.923 50.6003C197.136 50.4215 197.292 50.2092 197.37 49.9746L198.812 46.2642H205.629L207.071 49.9856C207.171 50.2426 207.328 50.4439 207.518 50.6003C207.752 50.7903 208.032 50.8797 208.378 50.8797H210.993L210.68 50.0975L203.908 33.1665L203.763 32.8088V32.82ZM199.885 43.4591L202.221 37.4243L204.556 43.4591H199.896H199.885Z" fill="#575756"/>
<path d="M180.832 47.1917C180.687 47.0353 180.497 46.9459 180.296 46.9459C180.094 46.9459 179.893 47.0353 179.692 47.2029C179.413 47.4599 179.122 47.6836 178.854 47.8624C178.586 48.0412 178.273 48.1863 177.949 48.3093C177.625 48.421 177.267 48.5217 176.876 48.5664C176.485 48.6223 176.049 48.6558 175.557 48.6558C174.775 48.6558 174.037 48.5105 173.355 48.2199C172.685 47.9405 172.093 47.5271 171.601 46.9794C171.109 46.4318 170.707 45.7613 170.416 44.979C170.126 44.1967 169.981 43.2692 169.981 42.2522C169.981 41.2352 170.115 40.33 170.405 39.5477C170.673 38.7654 171.076 38.0838 171.567 37.5473C172.059 37.0109 172.663 36.5861 173.344 36.2956C174.026 36.0162 174.808 35.8598 175.635 35.8598C176.328 35.8598 176.921 35.938 177.379 36.0833C177.848 36.2286 178.25 36.3961 178.563 36.5749C178.887 36.7649 179.144 36.9215 179.346 37.0667C179.603 37.2567 179.826 37.3461 180.039 37.3461C180.229 37.3461 180.374 37.3014 180.497 37.2232C180.597 37.145 180.698 37.0556 180.754 36.9662L181.659 35.7145L181.48 35.5469C180.754 34.8652 179.904 34.3176 178.966 33.9153C178.016 33.513 176.909 33.3118 175.669 33.3118C174.428 33.3118 173.389 33.513 172.394 33.9041C171.847 34.4964 171.333 34.9321 170.55 34.8986C170.171 35.1668 169.802 35.4798 169.478 35.8263C168.718 36.6086 168.137 37.5697 167.723 38.6649C167.31 39.7601 167.108 40.9782 167.108 42.2746C167.108 43.5709 167.31 44.7891 167.712 45.8843C168.114 46.9795 168.673 47.9294 169.399 48.7229C170.126 49.5052 171.02 50.1309 172.037 50.5556C173.065 50.9914 174.205 51.2038 175.457 51.2038C176.898 51.2038 178.139 50.9692 179.167 50.4998C180.184 50.0416 181.067 49.3822 181.793 48.5441L181.961 48.354L180.877 47.1917H180.832Z" fill="#575756"/>
<path d="M181.96 47.9741L181.043 47.0019C180.842 46.7784 180.585 46.6665 180.295 46.6665C180.004 46.6665 179.758 46.7672 179.512 46.9795C179.244 47.2365 178.965 47.4488 178.697 47.6164C178.44 47.7841 178.16 47.9294 177.858 48.0411C177.557 48.1529 177.221 48.2424 176.853 48.2983C176.473 48.3541 176.048 48.3876 175.567 48.3876C174.819 48.3876 174.115 48.2535 173.478 47.9741C172.852 47.7171 172.282 47.3147 171.824 46.8118C171.354 46.2978 170.974 45.6608 170.706 44.9009C170.427 44.1409 170.281 43.2581 170.281 42.2746C170.281 41.2912 170.415 40.4306 170.695 39.6594C170.952 38.8995 171.332 38.2625 171.801 37.7485C172.26 37.2344 172.829 36.8432 173.466 36.575C174.115 36.3068 174.852 36.1615 175.646 36.1615C176.305 36.1615 176.864 36.2398 177.311 36.3739C177.758 36.508 178.138 36.6645 178.428 36.8321C178.73 37.0109 178.987 37.1673 179.177 37.3014C179.479 37.5361 179.769 37.6479 180.038 37.6479C180.284 37.6479 180.485 37.5808 180.652 37.4691C180.786 37.3797 180.909 37.2568 180.988 37.1227L181.736 36.0945L182.027 35.6922L181.669 35.3569C180.921 34.6528 180.038 34.0829 179.065 33.6806C178.082 33.2671 176.931 33.066 175.657 33.066C174.83 33.066 174.025 33.1666 173.288 33.3566C173.176 33.6583 172.237 33.7588 172.572 34.1612C173.522 33.8147 174.539 33.6248 175.657 33.6248C176.864 33.6248 177.926 33.8146 178.853 34.2058C179.781 34.5969 180.585 35.1222 181.289 35.7816L180.529 36.8321C180.485 36.9104 180.429 36.9773 180.351 37.0332C180.272 37.0891 180.172 37.1115 180.049 37.1115C179.915 37.1115 179.736 37.0332 179.524 36.8767C179.311 36.7203 179.054 36.5527 178.719 36.3627C178.384 36.1727 177.97 36.0051 177.478 35.8487C176.987 35.6922 176.372 35.6139 175.646 35.6139C174.774 35.6139 173.969 35.7704 173.243 36.061C172.517 36.3627 171.891 36.8098 171.377 37.3797C170.851 37.9609 170.438 38.6537 170.147 39.4807C169.857 40.3077 169.711 41.2465 169.711 42.2858C169.711 43.3251 169.857 44.275 170.158 45.1131C170.46 45.9401 170.874 46.633 171.399 47.2141C171.924 47.7953 172.539 48.22 173.254 48.5105C173.969 48.8123 174.729 48.9576 175.567 48.9576C176.07 48.9576 176.517 48.924 176.931 48.8681C177.344 48.801 177.713 48.7116 178.048 48.5999C178.395 48.477 178.708 48.3206 178.998 48.1194C179.289 47.9294 179.591 47.6948 179.881 47.4265C180.015 47.3148 180.138 47.2477 180.284 47.2477C180.406 47.2477 180.529 47.3036 180.619 47.4042L181.535 48.3764C180.842 49.1811 180.004 49.807 179.021 50.254C178.037 50.701 176.841 50.9245 175.433 50.9245C174.215 50.9245 173.109 50.7121 172.125 50.2986C171.131 49.8739 170.293 49.2928 169.588 48.5217C168.884 47.7618 168.337 46.8566 167.957 45.7838C167.566 44.7221 167.376 43.5486 167.376 42.2746C167.376 41.0006 167.577 39.8272 167.979 38.7655C168.382 37.7038 168.94 36.7873 169.678 36.0274C169.924 35.7704 170.181 35.5468 170.46 35.3345H169.6C169.499 35.4351 169.376 35.5357 169.287 35.6363C168.505 36.4521 167.901 37.4467 167.476 38.5643C167.052 39.6818 166.839 40.9336 166.839 42.2746C166.839 43.6157 167.052 44.8561 167.443 45.9849C167.856 47.1136 168.437 48.097 169.186 48.9128C169.946 49.7287 170.851 50.3768 171.924 50.8238C172.986 51.2708 174.17 51.5056 175.456 51.5056C176.931 51.5056 178.216 51.2598 179.278 50.7792C180.339 50.2987 181.256 49.6169 181.993 48.7564L182.329 48.3652L181.982 47.9965V47.9629L181.96 47.9741Z" fill="#575756"/>
<path d="M133.873 9.23968C135.761 9.28438 139.539 10.7372 139.583 10.7483L139.673 10.7819H139.762C143.483 11.0166 145.026 12.7488 145.037 12.76V12.7824C145.998 13.7882 145.841 15.5203 145.696 17.1967C145.607 18.2695 145.506 19.376 145.696 20.3259L145.73 20.4488C145.786 20.7058 145.83 20.9405 145.808 21.1305C145.808 21.1975 145.752 21.2869 145.707 21.3875C145.663 21.4881 145.607 21.6111 145.562 21.7452C144.087 26.4948 139.438 28.4504 139.382 28.4728L139.304 28.5063L139.237 28.5623C137.415 30.0374 134.733 30.5627 132.375 30.9315C130.833 31.1773 129.223 31.3337 127.458 31.4231C127.245 31.4231 125.994 31.345 124.429 31.345C121.334 31.345 119.11 31.5684 117.813 31.9931L116.483 32.429C115.746 32.6748 114.952 32.9542 114.103 33.2671C112.997 33.4571 95.5292 36.374 84.823 36.374C83.169 36.374 81.7385 36.2957 80.5763 36.1616H80.4869L79.8052 36.1839C79.5481 36.1616 77.8159 36.0387 75.5473 36.0052C82.9567 33.8148 89.7067 30.0262 90.1761 29.7468C90.6343 29.5345 97.5519 26.4724 101.419 25.9248C101.888 25.869 112.985 24.6731 115.992 24.1926C116.606 24.1367 124.899 23.4215 127.625 20.4152L127.648 20.3929L127.67 20.3705C128.262 19.5882 130.05 17.4425 131.291 17.0738L131.369 17.0514L131.436 17.0068C131.85 16.7609 133.872 15.5092 134.308 14.5369C135.091 13.1958 135.135 11.9107 134.454 10.2567C134.297 9.87672 134.118 9.51915 133.917 9.18388M133.794 8.64734C133.414 8.64734 133.113 8.70327 132.923 8.83737C133.314 9.3291 133.638 9.88785 133.873 10.4913C134.431 11.8548 134.509 12.9947 133.75 14.3022C133.392 15.1516 131.079 16.5373 131.079 16.5373C129.38 17.0291 127.156 20.0353 127.156 20.0353C124.507 22.9633 115.869 23.6226 115.869 23.6226C112.885 24.1032 101.307 25.3549 101.307 25.3549C97.1832 25.9472 89.8744 29.2439 89.8744 29.2439C89.8744 29.2439 80.6545 34.5412 71.7141 36.374L70.4065 36.6981C71.7923 36.6087 73.2004 36.575 74.4632 36.575C77.4359 36.575 79.7381 36.7651 79.7381 36.7651L80.4533 36.7427C81.6938 36.888 83.1578 36.9551 84.7671 36.9551C96.1327 37.0222 114.203 33.8371 114.203 33.8371C115.12 33.4906 115.913 33.2112 116.617 32.9877L117.936 32.5519C119.456 32.0378 122.216 31.9373 124.373 31.9373C126.083 31.9373 127.402 32.0155 127.402 32.0155C129.078 31.9261 130.754 31.7697 132.42 31.5126C134.789 31.1438 137.605 30.6074 139.561 29.0205C139.561 29.0205 144.478 27.0088 146.065 21.9351C146.143 21.6892 146.3 21.4881 146.333 21.231C146.389 20.8958 146.289 20.5606 146.233 20.2253C145.752 17.912 147.227 14.3023 145.439 12.4024C145.439 12.4024 143.808 10.469 139.762 10.2343C139.762 10.2343 135.75 8.6809 133.772 8.6809" fill="#575756"/>
<path d="M147.249 13.844C150.613 14.3804 152.636 16.5261 152.658 16.5485L152.681 16.5709L152.703 16.5932L153.586 17.4536L153.809 17.666L154.1 17.7442C159.263 19.0965 164.113 22.7285 168.17 26.1035C169.612 27.2993 171.567 28.931 172.26 30.9314C172.573 31.8366 172.707 33.0771 172.171 33.8259C171.735 34.4293 170.863 34.7423 169.544 34.7423C168.952 34.7423 168.293 34.6752 167.555 34.5523H167.499C167.388 34.5299 155.832 33.0995 149.283 32.1719L140.309 31.0767H140.209L137.694 30.9872C138.398 30.6743 139.125 30.272 139.963 29.7356C140.745 29.3891 145.405 27.1429 147.026 21.9798C147.026 21.9574 147.07 21.8904 147.093 21.8457C147.182 21.6669 147.294 21.4098 147.35 21.0969C147.428 20.6052 147.327 20.1581 147.26 19.8117L147.238 19.6999C147.093 19.0071 147.171 18.0572 147.272 17.0737C147.361 16.0344 147.462 14.9168 147.305 13.844M145.763 12.5811H145.674L145.696 12.6259C146.858 14.6151 145.662 17.8114 146.109 19.9347C146.176 20.27 146.266 20.6051 146.21 20.9404C146.176 21.1974 146.02 21.3986 145.942 21.6445C144.355 26.7294 139.438 28.7299 139.438 28.7299C137.426 30.0151 136.23 30.4955 133.85 30.8755C132.196 31.1325 130.989 31.3337 129.301 31.4231C129.301 31.4231 126.664 31.6355 124.809 31.6355L123.691 31.6802L127.882 31.8254L140.197 32.1943L149.171 33.2895C155.776 34.2394 167.388 35.6587 167.388 35.6587C168.215 35.8039 168.93 35.8711 169.567 35.8711C174.104 35.8711 174.026 32.5072 173.355 30.5515C172.584 28.3276 170.651 26.6624 168.919 25.2207C164.739 21.7563 159.755 18.046 154.413 16.649L153.53 15.7885C153.452 15.7103 150.568 12.5923 145.774 12.5923" fill="#575756"/>
<path d="M38.3533 34.0271L38.1074 33.5129C38.2639 33.4347 38.4203 33.3453 38.5656 33.2671C38.6997 33.1888 38.8226 33.1329 38.9008 33.0882C39.4596 32.8312 40.0185 32.5966 40.5661 32.3395C41.6501 31.8478 42.7341 31.345 43.8069 30.8421C47.1037 29.2998 50.0205 27.8581 52.7474 26.4388C55.396 25.053 58.5028 23.3767 61.442 21.4322L61.8443 21.1752C63.543 20.0576 65.4651 18.7947 66.415 17.0849L66.4598 17.0289C66.5715 16.906 69.3319 14.0116 71.2653 13.6875L71.6005 13.5757C73.0645 13.0505 74.3944 12.5253 75.6461 11.9553C76.596 11.5195 77.3001 11.1618 77.9594 10.7707C78.6076 10.3795 79.2334 9.97724 79.6469 9.27318C79.8034 9.01614 80.0828 8.8373 80.3286 8.68084C80.418 8.62496 80.4851 8.59143 80.5633 8.53555C80.8763 8.31204 81.1891 8.07736 81.502 7.84267C82.139 7.33977 82.7425 6.80331 83.2678 6.26688C84.3071 5.20521 85.6482 3.60722 85.2571 2.05381L85.2011 1.88615C85.1788 1.75205 85.1453 1.66263 85.1118 1.59558L85.6258 1.33856C85.6929 1.46149 85.7265 1.59561 85.7488 1.76324L85.8047 1.89734C86.2852 3.74131 84.8324 5.49588 83.6813 6.65814C83.1337 7.21691 82.5302 7.76446 81.8709 8.27854C81.5579 8.53557 81.2451 8.7591 80.921 8.99379C80.8316 9.04967 80.7533 9.10557 80.6639 9.16145C80.4627 9.27321 80.2616 9.40728 80.1721 9.55257C79.6916 10.3684 79.01 10.8266 78.2835 11.2513C77.6242 11.6536 76.8866 12.0223 75.9255 12.4582C74.6626 13.0393 73.3216 13.5757 71.8464 14.101L71.4664 14.2351C69.7677 14.5144 67.2309 17.0961 66.9515 17.3866C65.9234 19.1971 63.9453 20.5045 62.2019 21.6445L61.7996 21.9016C58.8381 23.8685 55.7201 25.5447 53.0603 26.9417C50.3335 28.3721 47.4055 29.8027 44.0975 31.3561C43.0135 31.859 41.9406 32.3618 40.8454 32.8536C40.2867 33.1106 39.7279 33.3565 39.1691 33.6136C39.0909 33.6471 39.0015 33.703 38.8785 33.77C38.7333 33.8594 38.5656 33.9488 38.3868 34.0271H38.3533Z" fill="#575756"/>
<path d="M37.4154 35.748C36.9572 35.748 36.6219 35.6586 36.4096 35.4798C36.2531 35.3457 36.1972 35.178 36.2084 35.0551V34.9658L36.2643 34.8876C36.7113 34.2729 37.0354 33.8706 37.2031 33.7253L37.3595 33.58L37.5383 33.6917H37.5607C37.6277 33.6917 37.7953 33.6917 38.0859 33.5017L38.3653 33.9935C37.9518 34.2393 37.6612 34.2617 37.4601 34.2505C37.3595 34.3734 37.1583 34.6081 36.8119 35.0775C36.9348 35.1222 37.3148 35.2451 38.3877 35.0551L41.1368 34.7199C44.9812 32.9318 47.7751 31.9148 49.4291 31.7024C51.9324 31.6019 58.5372 30.9202 59.1853 29.0986C59.2747 28.9198 60.9958 25.2542 62.3815 24.4831C62.6945 24.159 65.0525 21.7786 67.8911 20.8846C70.752 19.9794 73.5013 17.9342 73.5348 17.923C73.5907 17.8895 74.8758 17.1854 75.6805 14.5032C76.3287 12.3352 78.8096 12.1229 80.9106 12.1788H80.933C81.9723 12.1788 83.6933 9.57493 84.4421 8.46855C84.5538 8.30092 84.6544 8.15562 84.7215 8.03269C86.2078 5.86463 86.856 3.94244 86.6661 2.16552C86.6661 2.16552 86.6325 1.98669 86.4648 1.86376C86.2413 1.7073 85.8614 1.66264 85.3585 1.76322L85.2579 1.20444C85.9285 1.08151 86.4537 1.14851 86.8113 1.4279C87.1801 1.69611 87.2248 2.07608 87.236 2.12078C87.4371 4.0318 86.7666 6.07689 85.1909 8.36788C85.1015 8.47963 85.0121 8.62492 84.9115 8.79255C83.6151 10.7371 82.1511 12.7935 80.8994 12.7599C79.0108 12.7041 76.7757 12.8717 76.2393 14.6821C75.3564 17.6324 73.9035 18.3923 73.8477 18.4259C73.7694 18.4929 71.0314 20.5158 68.0699 21.4434C65.2313 22.3374 62.8062 24.9078 62.7727 24.9301L62.6945 24.9859C61.6887 25.5223 60.2023 28.3163 59.7218 29.3444C58.8389 31.8366 50.4461 32.2501 49.485 32.2948C47.9204 32.5071 45.0929 33.5465 41.338 35.2899L41.2486 35.3123L38.4659 35.6474C38.0524 35.7257 37.6948 35.7592 37.393 35.7592H37.4265L37.4154 35.748Z" fill="#575756"/>
<path d="M35.4495 41.224C35.3042 41.224 35.1477 41.2017 34.9913 41.157C34.2984 40.9559 33.8067 40.2182 33.6055 39.6482C33.2702 38.6983 33.7508 38.3408 34.0972 38.0614C34.209 37.972 34.3431 37.8714 34.4772 37.7373L34.5666 37.6479L35.0024 37.4691C35.7177 37.0779 45.3063 31.9484 49.4077 31.4008C53.0957 31.2444 58.4376 30.395 58.9293 28.9869C59.1417 28.5398 60.7845 25.0978 62.2038 24.2372C62.6173 23.8014 64.9864 21.4769 67.8139 20.5828C70.6301 19.6888 73.3458 17.6884 73.3793 17.666L73.4687 17.6101C73.4687 17.6101 74.6645 16.9284 75.4244 14.3915C76.2067 11.7206 79.6488 11.8323 80.934 11.8658C81.5375 11.8882 82.6103 10.6813 84.2084 8.27852C84.3202 8.11088 84.4208 7.96558 84.499 7.84265C85.896 5.8087 86.5217 4.00941 86.41 2.36661V2.22132L86.5888 1.81901L86.7452 1.72966C87.4381 1.34969 89.7292 1.0479 90.2879 0.980848C100.335 -1.56718 101.966 1.58441 102.19 2.18789C102.559 2.94783 102.011 3.65185 101.43 4.37826C101.218 4.6353 100.994 4.94814 100.759 5.28341L100.469 5.71927C99.5189 7.13857 98.7702 8.24503 97.4738 9.57492C96.211 10.8601 94.747 12.0782 93.1153 13.207C90.9361 14.7045 88.8686 15.7996 86.41 16.7495C84.1861 17.6101 81.9063 18.5042 80.297 20.2029C80.0176 20.4934 79.7605 20.8175 79.4923 21.1528C79.28 21.4098 79.0676 21.678 78.8553 21.935C76.8661 24.1925 74.4522 25.1424 71.9153 26.1594C71.4683 26.3382 71.0213 26.517 70.5631 26.707C69.6914 27.0646 68.7862 27.534 67.7915 28.1375L67.3333 28.4169C66.3722 28.998 65.4447 29.5344 64.7853 30.4284C64.5283 30.7637 64.3047 31.1214 64.0589 31.5014C63.6007 32.2166 63.1201 32.9653 62.4496 33.58C61.6673 34.284 60.7286 34.7199 59.7451 35.1446C53.5204 37.8044 47.9773 39.4472 42.3001 40.3301C40.2885 40.643 38.2769 40.9223 36.3211 41.1347C36.2429 41.1347 36.1647 41.1571 36.0865 41.1682C35.9077 41.2018 35.6953 41.2352 35.483 41.2352L35.4495 41.224ZM34.6225 39.1006C34.6225 39.1006 34.6448 39.1901 34.6784 39.2683C34.8125 39.6483 35.103 40.017 35.3042 40.0729C35.4383 40.1176 35.6618 40.073 35.8854 40.0395C35.9748 40.0395 36.0753 40.0059 36.1647 39.9947C38.1093 39.7712 40.0985 39.5142 42.099 39.2013C47.6867 38.3296 53.1404 36.6979 59.2758 34.094C60.2034 33.6917 61.0191 33.3229 61.6673 32.7418C62.2373 32.2277 62.6396 31.5795 63.0866 30.8978C63.3325 30.5179 63.5783 30.1267 63.8577 29.7579C64.6512 28.685 65.7129 28.0593 66.7299 27.4558L67.188 27.1876C68.2274 26.5618 69.1773 26.07 70.1049 25.69C70.5631 25.5 71.0213 25.3212 71.4683 25.1424C73.8822 24.1925 76.162 23.2873 77.9725 21.2421C78.1848 20.9963 78.3859 20.7617 78.5759 20.5046C78.8441 20.1694 79.1347 19.8229 79.4365 19.4876C81.2245 17.5878 83.6161 16.6601 85.9295 15.7661C88.321 14.8273 90.3214 13.7769 92.4224 12.3352C93.9982 11.2512 95.4063 10.0778 96.6133 8.84848C97.8314 7.60799 98.5131 6.57979 99.463 5.16049L99.7536 4.72463C100.011 4.35584 100.257 4.03175 100.48 3.75236C100.748 3.39475 101.173 2.8696 101.106 2.74667L101.061 2.64599C101.061 2.64599 99.8877 -0.226047 90.4779 2.16552H90.3997C89.4833 2.28845 88.1199 2.50076 87.5052 2.69074C87.5388 4.50118 86.8459 6.42336 85.3819 8.54672C85.3036 8.65847 85.2142 8.80376 85.1025 8.9714C83.7726 10.9718 82.2527 13.084 80.8446 13.0617C79.0565 13.0058 76.9443 13.1511 76.4526 14.7716C75.6144 17.5878 74.2845 18.4818 73.9604 18.6607C73.6251 18.9177 70.9542 20.8175 68.0932 21.7227C65.3329 22.5944 62.9414 25.0977 62.919 25.1312L62.8519 25.1983L62.7625 25.2431C61.9244 25.6789 60.5722 28.0816 59.9128 29.4673C58.9964 32.0377 51.017 32.5071 49.4412 32.5853C45.541 33.0994 35.5501 38.4748 35.4495 38.5419L35.3936 38.5754L35.1365 38.676C34.9801 38.8213 34.846 38.9331 34.7231 39.0113C34.6672 39.056 34.6001 39.1007 34.5666 39.1342V39.1118L34.6225 39.1006Z" fill="#575756"/>
<path d="M77.0901 22.9633L77.9171 21.8457C78.0847 21.6781 78.2076 21.5328 78.3529 21.3875C78.5653 21.1416 78.7664 20.8958 78.9676 20.6388C79.2358 20.3035 79.5152 19.9571 79.8169 19.6442C81.5491 17.8002 83.9183 16.8726 86.2205 15.9786C88.6344 15.0398 90.646 13.9782 92.7694 12.5142C94.3675 11.419 95.7868 10.2343 96.9937 8.99383C98.2342 7.731 98.9271 6.69171 99.8882 5.26124L100.168 4.83656C100.413 4.47894 100.659 4.16592 100.872 3.88653C101.386 3.22717 101.665 2.8361 101.52 2.56789L101.486 2.46735C101.486 2.46735 101.397 2.02029 100.659 1.59562L100.257 1.37203L100.637 1.11501C101.967 0.209793 111.466 1.64026 112.55 1.80789H112.595C115.903 1.80789 116.663 3.10435 116.696 3.16023L116.741 3.2384V3.32775C116.707 3.68537 116.652 4.06546 116.573 4.43426C116.07 6.59114 114.618 8.62501 112.148 10.6366C111.366 11.2736 110.505 11.8771 109.611 12.4359C109.097 12.7488 108.605 13.1288 108.136 13.4976C107.644 13.8776 107.13 14.2799 106.582 14.6152C105.856 15.051 104.995 15.4421 103.889 15.8221C101.855 16.5261 99.5306 16.9955 96.5691 17.3084C95.4739 17.4201 94.5687 17.4984 93.7193 17.532C92.0653 17.6102 90.6236 18.0237 89.0479 18.5154C85.5052 19.633 81.8061 21.0076 78.04 22.5833L77.0901 22.9856V22.9633ZM102.045 2.33325C102.324 2.93673 101.877 3.50661 101.319 4.22185C101.106 4.49006 100.872 4.80293 100.637 5.14937L100.358 5.57405C99.4077 6.98217 98.6701 8.0886 97.396 9.39614C96.1556 10.6701 94.7028 11.8771 93.0823 12.9834C90.9254 14.4698 88.8691 15.5539 86.4328 16.5038C84.1754 17.3755 81.862 18.2807 80.2192 20.0353C79.9398 20.337 79.6605 20.6723 79.4034 20.9964C79.247 21.1975 79.0905 21.3875 78.934 21.5887C82.3314 20.1918 85.6841 18.9736 88.8803 17.9566C90.5007 17.4426 91.9759 17.0067 93.6969 16.9396C94.5351 16.8949 95.4292 16.8391 96.5132 16.7162C99.43 16.4033 101.721 15.9338 103.699 15.2521C104.772 14.8833 105.599 14.5145 106.292 14.101C106.817 13.7881 107.309 13.397 107.789 13.0282C108.27 12.6482 108.773 12.2571 109.32 11.933C110.203 11.3966 111.03 10.8042 111.801 10.1784C114.171 8.245 115.556 6.31174 116.026 4.28897C116.104 3.98723 116.137 3.68541 116.171 3.3725C115.981 3.14899 115.12 2.36667 112.55 2.36667H112.528C108.929 1.81907 103.252 1.15976 101.442 1.43915C101.889 1.83029 102.023 2.19915 102.045 2.34443V2.33325Z" fill="#575756"/>
<path d="M36.8124 42.5541C36.3766 42.5541 35.2814 42.4758 34.7114 41.8164C34.4991 41.5594 34.2756 41.1458 34.4097 40.4977L34.4544 40.3747L34.6668 39.7602L35.3038 40.073C35.4379 40.1177 35.6614 40.0731 35.8849 40.0396C35.9743 40.0396 36.0749 40.006 36.1643 39.9948C38.0977 39.7713 40.0869 39.5143 42.0985 39.2014C47.6863 38.3297 53.14 36.698 59.2753 34.0941C60.2141 33.6918 61.0299 33.323 61.6669 32.7419C62.2368 32.2278 62.6392 31.5796 63.0862 30.8979C63.332 30.5179 63.5779 30.1268 63.8685 29.758C64.6619 28.6851 65.7236 28.0593 66.7406 27.4447L67.1876 27.1765C68.2157 26.5506 69.1769 26.0588 70.1045 25.6789C70.5627 25.4889 71.0208 25.3101 71.4678 25.1313C73.4571 24.349 75.3346 23.6115 76.9215 22.2592L77.0109 22.1921L77.7038 21.801L78.1732 21.5999C81.7941 20.0912 85.3591 18.7725 88.7899 17.6996C90.4328 17.1856 91.9191 16.7497 93.6848 16.6714C94.5118 16.6379 95.4059 16.5709 96.4787 16.448C99.3732 16.1462 101.642 15.6768 103.62 14.9951C104.693 14.6263 105.464 14.2687 106.146 13.8664C106.66 13.5534 107.118 13.1959 107.621 12.8047C108.113 12.4248 108.615 12.0336 109.174 11.6872C110.046 11.1508 110.873 10.5696 111.622 9.95491C113.946 8.06624 115.298 6.18875 115.757 4.22185C115.835 3.89776 115.88 3.57368 115.902 3.26077L115.947 2.5567L116.885 2.81372C117.779 2.69079 118.405 2.8137 118.796 3.21602C119.087 3.51776 119.165 3.90888 119.12 4.16592C119.12 4.25532 119.12 4.33365 119.098 4.41188C118.841 6.81463 117.366 9.17269 114.695 11.419C113.723 12.246 112.806 12.8941 111.912 13.4193C111.353 13.7434 110.839 14.1346 110.292 14.548C109.61 15.0621 108.917 15.5874 108.135 15.9897C107.04 16.5597 105.799 17.0067 104.223 17.4091C101.944 17.9902 99.5185 18.3702 97.004 18.5378C96.6352 18.5602 96.2776 18.5712 95.9088 18.5824C95.1824 18.6048 94.5007 18.616 93.8413 18.7501C93.0814 18.9065 92.3661 19.1635 91.595 19.4206C91.2933 19.5212 90.9804 19.6329 90.6674 19.7335C86.5548 21.0634 82.364 22.6615 78.2402 24.4831C77.905 24.6284 77.5361 24.9078 77.1785 25.1648C76.9327 25.3436 76.6868 25.5336 76.4298 25.6789C74.787 26.6735 73.2336 27.3217 71.9372 27.8246C71.1661 28.1152 70.4397 28.4505 69.7468 28.8193C68.3164 29.5792 67.1988 30.4062 66.2936 31.3449C66.1259 31.5237 65.9807 31.7137 65.8242 31.9037C65.5672 32.239 65.2878 32.5742 64.9302 32.8648C64.5055 33.2001 64.0473 33.4571 63.6003 33.703L63.265 33.893C62.6615 34.2283 62.0357 34.5634 61.3875 34.8987C58.3365 36.4744 55.0509 37.8603 51.6089 39.0449C46.8257 40.6877 41.8974 41.8723 36.9913 42.5317H36.846L36.8236 42.5541H36.8124ZM35.7396 41.2017C36.0302 41.3694 36.5442 41.4365 36.8683 41.4253C39.6398 41.0453 42.445 40.4978 45.2277 39.7825C44.2442 39.9837 43.2607 40.1625 42.2661 40.3189C40.2545 40.6319 38.2318 40.9112 36.2872 41.1236C36.209 41.1236 36.1307 41.1459 36.0525 41.1571C35.9631 41.1571 35.8402 41.1905 35.7396 41.2017ZM77.6144 23.1421C75.8822 24.6061 73.9376 25.366 71.8813 26.1707C71.4455 26.3495 70.9873 26.5282 70.5402 26.7071C69.6574 27.0758 68.7522 27.5341 67.7799 28.1376L67.3217 28.417C66.3606 28.9981 65.4331 29.5344 64.7737 30.4285C64.5167 30.7637 64.2931 31.1214 64.0473 31.5014C63.8126 31.8702 63.5779 32.239 63.3097 32.5966C63.6338 32.4178 63.9467 32.2278 64.2149 32.0154C64.472 31.8031 64.7067 31.5238 64.9414 31.2332C65.109 31.0097 65.2878 30.7973 65.4778 30.6073C66.4612 29.5792 67.6905 28.674 69.2215 27.8694C69.9591 27.4782 70.7414 27.1205 71.5573 26.8076C73.3677 26.1147 74.6082 25.5225 75.8598 24.7625C76.0833 24.6284 76.2957 24.4719 76.5304 24.3043C76.9327 24.0137 77.3462 23.7008 77.8044 23.5109C81.9728 21.6781 86.1861 20.0688 90.3434 18.7277C90.6451 18.6383 90.9468 18.5265 91.2486 18.4259C91.7627 18.2471 92.2879 18.0684 92.8243 17.9119C91.5615 18.0684 90.4104 18.4149 89.1476 18.806C85.7614 19.8789 82.2188 21.1752 78.6314 22.6727L78.1955 22.8515L77.6256 23.1755L77.6144 23.1421ZM116.964 3.95365C116.93 4.13245 116.896 4.30006 116.863 4.47886C116.349 6.69162 114.874 8.77034 112.337 10.8266C111.555 11.4636 110.683 12.0783 109.766 12.6371C109.264 12.9388 108.805 13.2964 108.302 13.6763C107.8 14.0675 107.285 14.4586 106.716 14.7939C105.956 15.2521 105.106 15.6322 103.966 16.0345C102.558 16.515 101.005 16.8949 99.2056 17.1855C100.837 16.9843 102.413 16.6938 103.933 16.3027C105.419 15.9227 106.593 15.498 107.61 14.9839C108.302 14.6263 108.928 14.157 109.599 13.6541C110.146 13.2406 110.716 12.8158 111.32 12.4582C112.158 11.9665 113.019 11.3407 113.957 10.5584C116.394 8.51331 117.735 6.40115 117.958 4.28897C117.958 4.21074 117.958 4.1436 117.98 4.06537V3.99839C117.98 3.99839 117.735 3.81952 116.952 3.93127H116.975L116.964 3.95365Z" fill="#575756"/>
<path d="M44.6024 21.9685L44.4683 21.7785C44.1554 21.3427 44.4459 20.7504 44.5465 20.5604C44.7253 20.1916 44.9823 19.9011 45.217 19.6105C45.3288 19.4764 45.4405 19.3535 45.5411 19.2082C45.6305 19.0965 54.3922 7.51857 66.3053 4.81409C66.5735 4.81409 67.0317 4.91459 67.1211 5.42866L67.1435 5.48459C67.4117 6.37864 66.7858 7.23911 66.2941 7.80906C66.0371 8.08845 65.7577 8.39023 65.4001 8.69197C65.2995 8.78138 65.1766 8.85958 65.0536 8.94899C64.8748 9.07192 64.6849 9.206 64.5955 9.34011C64.3384 9.6642 64.1261 9.94361 63.7237 10.2006C63.3214 10.4577 62.8967 10.6925 62.5726 10.8489C61.9692 11.1507 61.321 11.4411 60.6058 11.7205L60.4717 11.7764C59.7788 11.9217 58.7394 12.9611 58.393 13.3522C57.8342 14.3021 56.8172 15.0508 55.7444 15.7996C54.191 16.8836 52.5705 17.8 51.1959 18.5711C49.8549 19.3199 48.4467 20.0575 46.871 20.8622C46.1893 21.2086 45.5076 21.5439 44.8259 21.868L44.6136 21.9685H44.6024ZM66.3835 5.38405C54.6939 8.05501 46.0776 19.4428 45.9882 19.5546C45.8764 19.6999 45.7535 19.8452 45.6417 19.9904C45.407 20.2587 45.2058 20.5157 45.0494 20.8174C44.96 20.9851 44.9264 21.108 44.9041 21.2085C45.4852 20.9291 46.044 20.6499 46.614 20.3593C48.1786 19.577 49.5866 18.8282 50.9165 18.0795C52.28 17.3195 53.8781 16.4031 55.4091 15.3414C56.225 14.7714 57.3537 14.0004 57.9236 13.0281C58.0913 12.8269 59.3653 11.43 60.2928 11.24L60.3823 11.1953C61.0752 10.9271 61.701 10.6365 62.3044 10.3459C62.6173 10.1895 63.0197 9.97722 63.3997 9.73136C63.7238 9.50785 63.9026 9.29547 64.1372 8.99373C64.2825 8.79257 64.5061 8.63617 64.7296 8.49089C64.8302 8.41266 64.9419 8.34552 65.0201 8.2673C65.3442 7.98791 65.6236 7.70854 65.8471 7.4515C66.2606 6.9933 66.7747 6.30046 66.5847 5.67463L66.5512 5.59632C66.5177 5.42869 66.4394 5.38405 66.3612 5.38405H66.3835Z" fill="#575756"/>
<path d="M39.0812 29.7467L38.8465 29.6574C38.7571 29.6238 38.5783 29.5456 38.4106 29.0986C38.3101 28.7857 38.3101 28.4281 38.4106 28.037C38.69 26.8412 39.5506 25.9136 40.3105 25.0978C40.5117 24.8743 40.7129 24.6618 40.9028 24.4495C41.8416 23.3543 42.892 22.4157 43.7973 21.6222C43.9761 21.4769 44.1549 21.3204 44.3337 21.1751L44.4455 21.0968L45.1383 20.7617C50.3797 18.1913 56.7945 14.5927 57.655 12.9052C57.655 12.9052 57.7109 12.8382 57.7332 12.8047L57.8897 12.6258C57.8897 12.6258 57.979 12.5252 58.0349 12.4693L60.5383 9.75362L59.8454 11.1283C59.946 11.0725 60.0465 11.0388 60.1359 11.0277L60.2253 10.983C60.9182 10.7148 61.5329 10.4354 62.1252 10.1449C62.4269 9.9996 62.8293 9.78722 63.1869 9.54136C63.4439 9.36255 63.6115 9.19494 63.8574 8.87085C64.0362 8.63616 64.2933 8.45735 64.4944 8.31207C64.5838 8.23384 64.6956 8.1779 64.7626 8.11085C65.0755 7.84264 65.3438 7.57447 65.5673 7.31743L65.6343 7.23913C65.9696 6.85916 66.3496 6.43453 66.316 6.03221L66.2714 5.40645L67.5901 4.81412C68.6182 4.33357 72.1832 2.36671 72.2167 2.34436L72.3061 2.29962C74.3848 1.59556 76.4746 1.048 78.5197 0.66803H78.6203C79.0338 0.66803 79.8273 0.913799 79.9949 1.83019L80.0396 1.94192C80.2966 2.89185 80.0061 3.93119 79.235 5.03757C78.7097 5.78634 78.0504 6.50164 77.2122 7.2057C76.8658 7.49627 76.4858 7.80911 76.0611 8.11085C75.9605 8.18908 75.8488 8.25622 75.737 8.33444C75.5247 8.46855 75.3012 8.60266 75.2118 8.75912L75.1447 8.84848C75.0329 9.02728 74.8877 9.23964 74.6977 9.42963C74.2842 9.82077 73.8148 10.0777 73.3678 10.346L73.3008 10.3795C72.6861 10.7371 72.0044 11.0612 71.0991 11.4635C69.9592 11.9664 68.8194 12.4135 67.7353 12.7599L67.6459 12.7823C66.5395 12.9611 64.7515 14.6151 64.1033 15.308C61.2647 20.1358 40.1764 29.2662 39.2712 29.6574L39.0477 29.7467H39.0812ZM38.8689 28.5957L45.0042 22.0915C44.8478 22.2144 44.7025 22.3485 44.5461 22.4826C43.6632 23.2425 42.6462 24.1478 41.7633 25.1759C41.5621 25.4106 41.3498 25.623 41.1487 25.8576C40.4558 26.6064 39.7406 27.3664 39.5171 28.2828V28.3163C47.2282 24.9525 61.2423 18.1577 63.1869 14.6709L63.2762 14.5592C63.5333 14.3021 65.7684 11.9776 67.4671 11.6536C68.5064 11.2959 69.5904 10.8713 70.6856 10.3907C71.5462 10.0107 72.1943 9.69777 72.7867 9.36251L72.8537 9.32909C73.2672 9.0944 73.6583 8.88201 73.9713 8.58027C74.0718 8.47969 74.1501 8.35681 74.2507 8.21153L74.3177 8.12204C74.5524 7.7756 74.8877 7.55216 75.1894 7.36218C75.2788 7.29512 75.3794 7.25038 75.4464 7.18333C75.8488 6.89277 76.2064 6.61337 76.5305 6.33398C77.3016 5.68579 77.8939 5.03761 78.3521 4.37825C78.9333 3.55126 79.1455 2.83599 79.0003 2.24368L78.9332 2.03141C78.8997 1.83025 78.7768 1.7744 78.6986 1.7744C76.7428 2.14319 74.7424 2.66833 72.7532 3.33887C72.3173 3.58473 69.1099 5.3394 68.0929 5.81994L67.4783 6.08815C67.4559 6.87044 66.9083 7.49617 66.5172 7.94319L66.4501 8.0215C66.1931 8.32324 65.8802 8.62491 65.5225 8.92665C65.422 9.01605 65.2879 9.11662 65.1538 9.19485C64.9973 9.29543 64.8297 9.42958 64.7514 9.51898C64.4944 9.85425 64.2486 10.1561 63.8015 10.4466C63.3769 10.7149 62.9522 10.9495 62.6169 11.1171C62.0023 11.4189 61.3429 11.7205 60.6276 11.9999L60.393 12.0894C59.9348 12.19 59.0295 13.0282 58.5937 13.4864C57.2638 15.8779 49.0722 20.0799 45.5854 21.7897L44.9484 22.0915H44.9819L38.8689 28.5957Z" fill="#575756"/>
<path d="M37.5833 34.2394C37.4604 34.2394 37.3375 34.2059 37.2369 34.15C37.0246 34.0159 36.9464 33.7588 36.9799 33.39C37.0805 32.5184 37.494 31.6467 38.2315 30.7303C38.5668 30.3056 38.5891 30.0821 38.6227 29.7804C38.645 29.5569 38.6674 29.3222 38.8127 28.9981L38.8574 28.9086L40.3884 28.2158C45.2498 26.0589 61.2755 18.683 63.4324 14.7939L63.4771 14.7381C63.5666 14.6375 65.9134 12.1901 67.545 11.9107C68.562 11.5642 69.6684 11.1284 70.7859 10.6366C71.6576 10.2567 72.3058 9.93265 72.9092 9.59738L72.9652 9.56382C73.3787 9.32914 73.8033 9.09449 74.1386 8.7704C74.2727 8.64747 74.3621 8.51335 74.4627 8.33454L74.5185 8.24505C74.7197 7.95448 75.0326 7.75335 75.3008 7.57454C75.3902 7.50749 75.502 7.45156 75.5802 7.38451C76.0049 7.08277 76.3625 6.79232 76.6866 6.5241C77.4689 5.86475 78.0836 5.20533 78.5641 4.51245C79.1453 3.69663 79.3799 2.9591 79.2905 2.33327L79.1005 1.89741L79.4023 1.80792C81.0339 1.33854 82.6767 0.947492 84.2971 0.645752C84.733 0.645752 85.4706 0.891614 85.6047 1.76331L85.6606 1.89741C86.1411 3.74138 84.6883 5.49595 83.5372 6.65821C83.0008 7.21698 82.3861 7.75336 81.7268 8.27861C81.4139 8.53564 81.101 8.75917 80.7769 8.99386C80.6875 9.04974 80.6093 9.10564 80.5199 9.16152C80.3187 9.27328 80.1175 9.40735 80.0393 9.55264C79.5587 10.3685 78.877 10.8267 78.1506 11.2513C77.4912 11.6537 76.7648 12.0224 75.7926 12.4583C74.5409 13.0282 73.211 13.5646 71.7135 14.101L71.3335 14.2351C69.6348 14.5145 67.1092 17.0961 66.8298 17.3867C65.8017 19.1972 63.8236 20.5046 62.0802 21.6445L61.689 21.9017C58.7163 23.8686 55.5983 25.556 52.9497 26.9417C50.2117 28.3722 47.2838 29.8139 43.987 31.3562C42.9029 31.8591 41.8301 32.3619 40.7349 32.8536C40.1761 33.1107 39.6173 33.3566 39.0585 33.6136C38.9803 33.6472 38.8909 33.7031 38.7791 33.7701C38.388 33.9936 37.941 34.2394 37.561 34.2394H37.6057H37.5833ZM39.2932 29.3445C39.215 29.5233 39.2038 29.6798 39.1926 29.8475C39.1591 30.1716 39.1256 30.5404 38.6786 31.0991C38.0192 31.9038 37.6393 32.7084 37.5498 33.4572C37.5275 33.636 37.5498 33.6806 37.5498 33.6806C37.6951 33.7365 38.3098 33.3901 38.5109 33.2671C38.645 33.1889 38.768 33.133 38.8462 33.0883C39.405 32.8312 39.9637 32.5966 40.5113 32.3396C41.5954 31.8479 42.6794 31.3562 43.7523 30.8421C47.0379 29.3111 49.9547 27.8582 52.6927 26.4389C55.3413 25.0643 58.4369 23.388 61.3873 21.4323L61.7784 21.1752C63.4771 20.0577 65.4105 18.7948 66.3492 17.0738L66.3939 17.0178C66.5057 16.8949 69.2661 14.0004 71.1994 13.6764L71.5347 13.5646C73.0098 13.0394 74.3397 12.503 75.5802 11.9442C76.5301 11.5084 77.2454 11.1507 77.8936 10.7595C78.5417 10.3684 79.1676 9.96612 79.5811 9.26206C79.7375 9.00502 80.0169 8.82619 80.2628 8.68091C80.3522 8.62503 80.4193 8.5915 80.4975 8.53562C80.8104 8.31211 81.1233 8.07742 81.4362 7.83156C82.0732 7.32866 82.6767 6.79233 83.202 6.2559C84.2413 5.19422 85.5824 3.5961 85.1912 2.0427L85.1353 1.87504C85.0347 1.22685 84.4872 1.19334 84.4201 1.19334C82.9561 1.47273 81.4362 1.8303 79.9163 2.25497C80.0281 3.03726 79.7487 3.89784 79.0894 4.83659C78.5753 5.563 77.9383 6.25577 77.1113 6.95983C76.776 7.23922 76.4072 7.54101 75.9825 7.85393C75.8931 7.93216 75.7702 7.98811 75.6696 8.06634C75.4238 8.21162 75.1891 8.36802 75.0662 8.56918L75.0103 8.65854C74.8985 8.83735 74.7756 9.02731 74.5856 9.19494C74.1944 9.56374 73.7475 9.82081 73.3004 10.0667L73.2446 10.1002C72.6411 10.4467 71.9594 10.7819 71.0765 11.173C69.9478 11.6648 68.819 12.1118 67.7461 12.4694C66.3269 12.7153 64.2035 14.861 63.9688 15.118C61.6443 19.1748 45.5627 26.5841 40.6678 28.7522L39.3379 29.3557H39.3044L39.2932 29.3445Z" fill="#575756"/>
<path d="M38.8239 44.7892C38.3434 44.7892 36.8682 44.7109 36.0412 43.8169C35.6277 43.381 35.4378 42.7887 35.4936 42.1182L35.2478 41.1571L36.153 41.3582C36.5218 41.4476 36.8682 41.4365 36.8682 41.4365C41.6513 40.7883 46.4904 39.626 51.2176 38.0055C54.6038 36.8433 57.8447 35.4686 60.8398 33.9264C61.488 33.5911 62.1026 33.267 62.6838 32.943C62.7955 32.8759 62.9185 32.8201 63.0414 32.7419C63.4437 32.5184 63.8572 32.306 64.1924 32.0266C64.4495 31.8143 64.673 31.5349 64.9189 31.2444C65.0865 31.0209 65.2653 30.8085 65.4553 30.6185C66.4387 29.5903 67.6681 28.6852 69.1991 27.8805C69.9479 27.4782 70.719 27.1205 71.5348 26.8188C73.3452 26.1371 74.5858 25.5336 75.8374 24.7737C76.0609 24.6396 76.2732 24.4831 76.5079 24.3155C76.9103 24.0249 77.3238 23.712 77.782 23.522C81.9393 21.7004 86.1524 20.0799 90.3209 18.7389C90.6226 18.6495 90.9244 18.5377 91.2261 18.4371C91.9972 18.1801 92.7795 17.9007 93.6065 17.7219C94.3665 17.5654 95.1264 17.5431 95.8752 17.5208C96.2216 17.5208 96.5793 17.4984 96.9257 17.476C99.3731 17.3084 101.731 16.9396 103.933 16.3697C105.419 15.9897 106.604 15.5651 107.61 15.051C108.302 14.6934 108.928 14.224 109.599 13.7211C110.146 13.3076 110.716 12.8829 111.32 12.5253C112.158 12.0336 113.018 11.4077 113.957 10.6254C116.36 8.60263 117.701 6.53513 117.947 4.45647L117.824 3.8977L118.405 3.78597C119.344 3.60716 121.076 4.03187 121.411 4.1101C122.439 4.36714 123.445 4.69122 124.216 4.93708C125.122 5.22765 125.77 5.42876 126.586 5.45111C127.424 5.47347 128.709 5.51824 129.447 6.64698C129.882 7.30633 129.882 8.0104 129.871 8.61388C129.357 20.6835 113.544 21.6221 112.639 21.6557C98.1438 23.9914 90.1198 26.9305 90.0527 26.9641C87.717 27.8805 85.2919 28.8975 82.6321 30.0709C81.7157 30.4732 80.8217 30.8867 79.9053 31.3002C79.76 31.3672 79.6148 31.4343 79.4695 31.5014C79.2124 31.6132 78.9442 31.736 78.6872 31.859C78.296 32.0713 68.7409 37.3127 66.3941 37.6815C66.2041 37.715 65.053 38.0725 64.0472 38.4078L63.9689 38.4302C61.3874 38.9219 59.9234 39.2796 57.6436 40.2742C57.163 40.453 46.334 44.532 38.9581 44.8449H38.8239V44.7892ZM36.6336 42.554C36.6671 42.744 36.7341 42.9116 36.8682 43.0457C37.3711 43.5933 38.5334 43.6604 38.9022 43.6492C46.088 43.3587 57.096 39.2013 57.2077 39.1566C59.5546 38.1285 61.0633 37.7486 63.7119 37.2457C64.2595 37.0668 65.8688 36.5415 66.204 36.4857C67.9921 36.2063 75.4239 32.2613 78.1396 30.775C78.419 30.6297 78.7095 30.518 78.9778 30.3838C79.1119 30.3168 79.2571 30.2609 79.4024 30.1938C80.3188 29.7691 81.224 29.3668 82.1404 28.9533C84.8113 27.7687 87.2476 26.7517 89.6168 25.8241C89.7062 25.7906 97.8197 22.8068 112.471 20.4488H112.549C112.706 20.4488 128.24 19.8006 128.72 8.47978C128.742 7.92101 128.72 7.52982 128.485 7.18338C128.094 6.59108 127.435 6.53521 126.541 6.50169C125.569 6.46816 124.809 6.24464 123.848 5.93172C123.099 5.68586 122.115 5.37298 121.121 5.12712C120.439 4.95948 119.612 4.81415 119.042 4.7918C118.673 7.06043 117.22 9.2956 114.695 11.419C113.723 12.2348 112.806 12.894 111.912 13.4193C111.353 13.7434 110.839 14.1345 110.292 14.548C109.61 15.0621 108.917 15.5874 108.135 15.9897C107.04 16.5597 105.799 16.9955 104.223 17.409C101.943 18.0013 99.5184 18.3701 97.0039 18.5378C96.6351 18.5601 96.2775 18.5712 95.9087 18.5824C95.1823 18.6047 94.5006 18.6159 93.8412 18.7501C93.0813 18.9065 92.3661 19.1635 91.6061 19.4206C91.3044 19.5211 90.9914 19.6329 90.6785 19.7335C86.5547 21.0634 82.3751 22.6615 78.2513 24.4831C77.916 24.6284 77.5472 24.9078 77.1896 25.1536C76.9438 25.3324 76.6979 25.5225 76.4409 25.6678C74.7981 26.6624 73.2447 27.3105 71.9483 27.8134C71.1884 28.0928 70.4508 28.4281 69.7579 28.8081C68.3274 29.568 67.2099 30.395 66.3046 31.3337C66.137 31.5125 65.9917 31.7025 65.8353 31.8925C65.5783 32.2278 65.2989 32.563 64.9413 32.8536C64.5166 33.1889 64.0583 33.4459 63.6225 33.6806C63.5107 33.7476 63.3878 33.8036 63.276 33.8706C62.6726 34.2059 62.0579 34.53 61.3986 34.8764C58.3476 36.441 55.062 37.8379 51.6199 39.0225C46.8256 40.6653 41.9084 41.8499 37.0024 42.5093H36.6559L36.6336 42.554Z" fill="#575756"/>
<path d="M61.8007 38.7542L64.941 36.9438L78.2064 30.8084C78.4634 30.6855 78.7316 30.5513 79.011 30.4396L79.4357 30.2497C80.3521 29.825 81.2573 29.4227 82.1737 29.0092C84.8111 27.8469 87.2474 26.8187 89.6502 25.88C89.7396 25.8464 97.853 22.8626 112.493 20.5046C112.717 20.5046 128.295 19.8563 128.776 8.50193C128.798 7.93198 128.776 7.54091 128.53 7.18329L127.993 6.37868H128.966C131.156 6.12165 133.101 7.45147 134.118 9.94362C134.788 11.5976 134.744 12.8829 133.95 14.2128C133.581 15.118 131.514 16.3807 131.1 16.6378L130.977 16.6937C129.715 17.0625 127.926 19.197 127.323 20.0016C124.54 23.0861 116.013 23.779 115.667 23.8013C112.75 24.2707 101.597 25.4777 101.116 25.5336C97.1378 26.1036 89.9184 29.3444 89.8401 29.3779C89.4713 29.6238 79.1674 36.061 69.7018 37.3909H69.0648C67.7908 37.5473 66.5056 37.7484 65.2875 37.9719L61.7783 38.7766H61.8007V38.7542ZM129.748 7.39556C129.837 7.79788 129.837 8.17788 129.826 8.54668C129.301 20.8845 112.761 21.5439 112.594 21.555C98.1212 23.8796 90.1083 26.8299 90.0301 26.8634C87.6609 27.8022 85.2247 28.8192 82.6096 29.9703C81.6932 30.3726 80.788 30.7861 79.8827 31.1995L79.4469 31.4008C79.1898 31.5125 78.9216 31.6354 78.6646 31.7583L68.696 36.3738C68.7966 36.3738 68.9195 36.3403 69.0201 36.3291H69.6459C78.821 35.0327 89.259 28.4951 89.3708 28.4392C89.7396 28.2716 96.8695 25.0753 101.016 24.483C101.15 24.483 112.638 23.2201 115.566 22.7508C115.689 22.7508 124.071 22.0691 126.541 19.3311C126.742 19.0517 128.832 16.2914 130.631 15.6991C131.659 15.0844 132.855 14.168 133.022 13.7433C133.671 12.6258 133.704 11.687 133.145 10.3347C132.788 9.45187 131.771 7.54084 129.737 7.39556H129.759H129.748Z" fill="#575756"/>
<path d="M49.8883 42.4757C49.8883 41.1794 49.676 39.9724 49.2737 38.8884C48.8602 37.7932 48.2679 36.8432 47.5079 36.0498C46.748 35.2563 45.8316 34.6306 44.7699 34.1947C43.7082 33.7589 42.5236 33.5353 41.2496 33.5353C39.9756 33.5353 38.791 33.7589 37.7293 34.1947C36.6676 34.6306 35.7512 35.2563 35.0025 36.0498C34.2425 36.8432 33.6614 37.7932 33.2367 38.8884C32.8232 39.9836 32.6221 41.1905 32.6221 42.4757C32.6221 43.7609 32.8344 44.9791 33.2367 46.0632C33.6502 47.1584 34.2425 48.1082 35.0025 48.9017C35.7624 49.684 36.6788 50.3098 37.7293 50.7457C38.791 51.1815 39.9644 51.3938 41.2496 51.3938C41.6855 51.3938 42.1101 51.3603 42.5348 51.3044C41.6743 50.4439 40.8137 49.5835 39.942 48.7118C39.5733 48.6335 39.2157 48.5329 38.8916 48.3988C38.1875 48.1194 37.5952 47.6948 37.0923 47.1584C36.6006 46.6219 36.2095 45.9514 35.9412 45.1691C35.673 44.3868 35.5278 43.4703 35.5278 42.4757C35.5278 41.4811 35.6619 40.5648 35.9412 39.7713C36.2095 38.989 36.6006 38.3073 37.0923 37.782C37.584 37.2456 38.1875 36.8321 38.8916 36.5304C39.5957 36.2286 40.3891 36.0945 41.2496 36.0945C42.1102 36.0945 42.9148 36.2398 43.6188 36.5304C44.3117 36.821 44.9152 37.2456 45.4069 37.782C45.8986 38.3296 46.2898 39.0002 46.5468 39.7713C46.815 40.5648 46.9603 41.4699 46.9603 42.4757C46.9603 43.4815 46.8262 44.3868 46.5468 45.1691C46.4351 45.5043 46.2898 45.806 46.1333 46.1078C46.7368 46.9683 47.765 46.9571 48.3796 47.7617C48.7261 47.2365 49.0166 46.6666 49.2625 46.052C49.676 44.9568 49.8771 43.7497 49.8771 42.4645L49.8883 42.4757Z" fill="#575756"/>
<path d="M49.542 38.7767C49.1061 37.6591 48.5026 36.6645 47.7203 35.8487C46.9381 35.0329 45.9882 34.3846 44.8818 33.9264C43.7866 33.4794 42.5684 33.2447 41.2497 33.2447C39.931 33.2447 38.7241 33.4794 37.6289 33.9264C36.5337 34.3734 35.5837 35.0329 34.8014 35.8487C34.0191 36.6645 33.4045 37.6591 32.9798 38.7767C32.5551 39.8942 32.3428 41.1346 32.3428 42.4757C32.3428 43.8168 32.5551 45.0462 32.9798 46.1749C33.4156 47.2924 34.0191 48.2871 34.8014 49.1029C35.5837 49.9187 36.5336 50.5668 37.64 51.0139C38.7352 51.4609 39.9534 51.6844 41.2609 51.6844C41.8979 51.6844 42.5125 51.6285 43.0937 51.5279C42.9595 51.3603 42.8255 51.1703 42.6579 51.0139C42.2108 51.0809 41.7415 51.1144 41.2609 51.1144C40.0093 51.1144 38.8805 50.9021 37.8635 50.4886C36.8353 50.064 35.9637 49.4829 35.2261 48.7118C34.4885 47.9406 33.9297 47.0353 33.5274 45.9737C33.1251 44.912 32.9239 43.7497 32.9239 42.4757C32.9239 41.2017 33.1251 40.0394 33.5274 38.9778C33.9297 37.9161 34.4885 36.9997 35.2261 36.2398C35.9637 35.4687 36.8353 34.8764 37.8635 34.4406C38.8917 34.0159 40.0204 33.8035 41.2609 33.8035C42.5014 33.8035 43.6413 34.0159 44.6694 34.4406C45.6976 34.8652 46.5805 35.4575 47.318 36.2398C48.0556 37.0109 48.6144 37.9161 49.0168 38.9778C49.4191 40.0394 49.6202 41.2017 49.6202 42.4757C49.6202 43.7497 49.4191 44.912 49.0168 45.9737C48.7821 46.5883 48.4915 47.1471 48.145 47.6612C48.268 47.7618 48.4803 47.8512 48.6368 47.9406C48.9944 47.393 49.2961 46.8119 49.542 46.1749C49.9666 45.0573 50.179 43.8168 50.179 42.4757C50.179 41.1346 49.9666 39.9054 49.542 38.7767Z" fill="#575756"/>
<path d="M46.8368 39.6706C46.5575 38.8436 46.1551 38.1507 45.6299 37.5696C45.1046 36.9996 44.4788 36.5639 43.7412 36.251C42.9924 35.9492 42.1767 35.7927 41.2603 35.7927C40.3439 35.7927 39.528 35.9492 38.7904 36.251C38.0528 36.5527 37.4158 36.9996 36.8906 37.5696C36.3653 38.1396 35.963 38.8436 35.6836 39.6706C35.4042 40.4976 35.2478 41.4364 35.2478 42.4757C35.2478 43.515 35.393 44.4538 35.6836 45.2696C35.9742 46.0854 36.3653 46.7894 36.8906 47.3594C37.4158 47.9293 38.0417 48.3652 38.7904 48.667C39.2375 48.857 39.7292 48.9687 40.2432 49.0469C40.098 48.8122 39.7962 48.5775 39.6286 48.3429C39.4163 48.287 39.204 48.22 39.0251 48.1418C38.3658 47.8736 37.7958 47.4824 37.3376 46.9795C36.8683 46.4654 36.4994 45.8396 36.2424 45.0909C35.9853 44.3309 35.8401 43.448 35.8401 42.4757C35.8401 41.5034 35.9742 40.6206 36.2424 39.8606C36.4994 39.1119 36.8571 38.4749 37.3376 37.9609C37.7958 37.458 38.377 37.0556 39.0251 36.7874C39.6957 36.5192 40.4556 36.3627 41.2826 36.3627C42.1096 36.3627 42.8807 36.4968 43.5512 36.7874C44.2106 37.0556 44.7806 37.458 45.2388 37.9609C45.6969 38.4749 46.0657 39.1119 46.3339 39.8606C46.591 40.6318 46.7362 41.5034 46.7362 42.4757C46.7362 43.448 46.6021 44.3197 46.3339 45.0909C46.2669 45.2697 46.211 45.4261 46.1328 45.5937C46.3116 45.6384 46.4904 45.739 46.6357 45.8619C46.7251 45.6719 46.8033 45.4707 46.8703 45.2696C47.1497 44.4538 47.3062 43.515 47.3062 42.4757C47.3062 41.4364 47.1609 40.4976 46.8703 39.6706H46.848H46.8368Z" fill="#575756"/>
</svg>
