<svg width="188" height="47" viewBox="0 0 188 47" fill="none" xmlns="http://www.w3.org/2000/svg">
<path d="M62.3766 5.64578H62.5219C63.036 5.67931 64.947 6.14875 64.9358 7.24395L70.2219 7.2887C70.2442 4.71832 68.2438 0.527408 62.8013 0.225668H62.6672C59.3369 0.0356837 53.7714 -0.277286 51.011 3.5224C49.6364 5.3999 49.1112 7.92561 49.6029 10.2725C50.0499 12.4182 51.2793 14.1504 53.0674 15.1674C55.012 16.2738 57.1911 16.5308 59.2362 16.5308C60.1526 16.5308 61.0468 16.4861 61.8737 16.4302L62.6112 16.3855C67.5732 16.1284 70.1659 12.6529 70.1659 9.33377H64.8799C64.8799 10.7084 62.3654 10.943 62.343 10.9542L61.572 10.9989C59.3816 11.1219 57.1017 11.2559 55.6153 10.4066C55.0677 10.0937 54.8554 9.53487 54.766 9.13255C54.5983 8.33909 54.7772 7.41154 55.2354 6.78571C56.3083 5.32172 60.3985 5.54522 62.3766 5.65697V5.64578Z" fill="#575756"/>
<path d="M114.477 5.18762C114.444 5.09821 114.41 4.99763 114.377 4.90823C114.377 4.90823 114.377 4.88585 114.366 4.87467C113.505 2.62838 111.371 0.326197 107.414 0.102686H107.28C105.526 -0.00906957 103.145 -0.132044 100.888 0.337329C97.401 0.851404 95.2554 3.07539 94.5514 5.55636C94.0261 7.05389 93.9031 8.69666 94.2272 10.2724C94.3166 10.7083 94.4395 11.1217 94.596 11.5241C94.6295 11.6135 94.6631 11.7141 94.6967 11.8035C94.6967 11.8035 94.6967 11.8147 94.6967 11.8258C95.5572 14.0721 97.6917 16.3743 101.648 16.5978H101.782C102.575 16.6537 103.503 16.7095 104.486 16.7095C105.716 16.7095 107.034 16.6314 108.308 16.352C111.717 15.8044 113.818 13.6028 114.511 11.1553C115.036 9.6578 115.159 8.01503 114.835 6.43927C114.745 6.00343 114.611 5.58994 114.466 5.18762H114.477ZM109.683 7.60144C109.806 8.17139 109.739 8.79729 109.538 9.34489H109.493C109.493 9.34489 109.482 9.45666 109.482 9.50136C109.404 9.669 109.325 9.83654 109.214 9.97065C108.968 10.3171 108.554 10.563 108.051 10.7418C107.962 10.7754 107.861 10.7977 107.761 10.82C107.325 10.9318 106.967 10.9765 106.956 10.9765L106.185 11.0212C103.995 11.1442 101.715 11.2782 100.228 10.4289C99.8597 10.2166 99.6474 9.89244 99.5132 9.56835C99.5132 9.546 99.5132 9.52373 99.5132 9.51255H99.4909C99.4462 9.37844 99.4015 9.25543 99.3791 9.14367C99.2562 8.57372 99.3233 7.94796 99.5244 7.40036H99.5692C99.5692 7.40036 99.5804 7.28858 99.5804 7.24388C99.6586 7.07625 99.7368 6.90857 99.8486 6.77446C100.094 6.42802 100.508 6.18221 101.022 5.99222C101.111 5.9587 101.212 5.93627 101.312 5.91392C101.748 5.80216 102.106 5.76863 102.106 5.76863L102.877 5.72402C105.068 5.60109 107.347 5.46688 108.834 6.31622C109.202 6.52856 109.415 6.85267 109.549 7.17676C109.549 7.19911 109.549 7.22152 109.549 7.2327H109.571C109.616 7.3668 109.661 7.48968 109.683 7.60144Z" fill="#575756"/>
<path d="M24.3906 6.22717C24.3682 5.35548 24.1447 4.50616 23.6977 3.73504C22.3008 1.3323 19.0487 -0.0311827 14.802 0.0358706C8.84543 0.102924 3.25757 2.88571 0.888352 6.95361C-0.229204 8.87581 -0.296295 10.9657 0.709505 12.6979C2.0841 15.0559 5.2356 16.3969 9.37056 16.3969H9.60534C13.0809 16.3522 16.4224 15.3911 19.0822 13.7819V16.4193H24.4465V6.23836H24.3906V6.22717ZM18.7916 6.70778C17.5958 8.76408 14.0308 10.8651 9.52703 10.921C6.85608 10.9545 5.70498 10.2504 5.45912 9.98214C5.47029 9.92626 5.51499 9.82567 5.59322 9.69157C6.789 7.63526 10.354 5.53424 14.8578 5.47836C17.5176 5.44483 18.6799 6.14899 18.9257 6.41721C18.9145 6.47308 18.8698 6.57367 18.7916 6.70778Z" fill="#575756"/>
<path d="M44.1273 2.0361C42.1492 0.549753 39.5675 0.125038 37.0307 0.8738C35.1532 1.4214 33.6222 2.06967 32.3594 2.77373V0.382141H26.8274V16.4078H32.3594V10.6414C32.5158 8.22744 35.7679 6.77456 38.5171 5.96992C39.467 5.69053 40.3051 5.80233 40.9533 6.29405C41.7244 6.87518 42.1604 7.91444 42.1604 9.15492V16.419H47.4576V9.15492C47.4576 6.22693 46.2394 3.63422 44.1273 2.04729V2.0361Z" fill="#575756"/>
<path d="M86.7287 5.96984H77.9781V0.314941H72.5022V16.3966H77.9781V10.9095H86.7287V16.3966H91.9587V0.314941H86.7287V5.96984Z" fill="#575756"/>
<path d="M125.82 11.0325L120.456 0.303955H114.544L122.591 16.3966H124.222H124.937H129.039L137.085 0.303955H131.184L125.82 11.0325Z" fill="#575756"/>
<path d="M160.275 0.303955H154.386H154.364L149.178 10.6636L144.004 0.303955H138.092L146.272 16.6537L144.317 20.5987H150.217L160.275 0.303955Z" fill="#575756"/>
<path d="M162.152 0.303955L160.274 4.00299L165.192 6.49512L168.343 0.303955H162.152Z" fill="#575756"/>
<path d="M186.414 9.36737C185.877 8.35039 184.995 7.52332 183.765 6.90866C182.033 6.03697 180.144 5.95878 178.267 5.83585C176.389 5.71292 174.501 5.61235 172.623 5.56765C172.467 5.56765 172.322 5.56765 172.176 5.56765C172.377 4.67361 174.825 4.52826 177.418 4.52826C180.144 4.52826 182.458 4.6848 183.184 5.72413C183.251 5.81353 183.497 6.26053 183.497 6.26053L187.319 3.32135C187.118 3.03079 186.95 2.79608 186.772 2.59492C185.788 1.44383 184.179 0.717384 182.748 0.460346C179.798 -0.0537296 174.143 0.203385 173.528 0.259262C172.612 0.348667 171.819 0.549767 171.103 0.896209C169.416 1.71202 168.22 3.16482 167.907 4.78528C167.639 6.18222 168.041 7.55693 169.014 8.67449C169.617 9.36737 170.355 9.83671 171.159 10.172L167.214 13.2229C168.019 14.374 169.159 14.9663 169.941 15.3686C171.874 16.3744 174.188 16.4415 176.043 16.4974C176.333 16.4974 176.624 16.5084 176.903 16.5308C177.462 16.5532 177.988 16.5644 178.479 16.5644C184.112 16.5644 185.732 14.9886 186.459 13.7481C186.906 12.9882 187.487 11.4237 186.414 9.35618V9.36737ZM177.652 11.9041C174.68 11.9041 172.199 11.7142 171.729 10.4066L171.617 10.1049C172.936 10.3842 174.255 10.4401 175.596 10.5295C177.384 10.6413 179.183 10.7531 180.971 10.8201C181.485 10.8425 182.011 10.8537 182.525 10.8649C182.324 11.7589 180.223 11.9041 177.641 11.9041H177.652Z" fill="#575756"/>
<path d="M93.657 22.7892C71.4511 22.7892 47.8484 26.9241 47.8484 34.5905C47.8484 42.2569 71.4511 46.392 93.657 46.392C115.863 46.392 139.466 42.2569 139.466 34.5905C139.466 26.9241 115.863 22.7892 93.657 22.7892ZM93.657 44.235C67.9308 44.235 50.0053 39.1501 50.0053 34.5793C50.0053 30.0085 67.9308 24.9236 93.657 24.9236C119.383 24.9236 137.309 30.0085 137.309 34.5793C137.309 39.1501 119.383 44.235 93.657 44.235Z" fill="#575756"/>
<path d="M67.9865 32.9701C68.5565 32.6348 69.4057 32.4671 70.5568 32.4671C71.3391 32.4671 72.0991 32.5565 72.8479 32.7353C73.5966 32.9141 74.1442 33.1935 74.5018 33.5623C75.9546 33.1488 77.2175 32.8471 78.3015 32.646C77.0163 31.2155 74.4796 30.489 70.6799 30.489C67.9642 30.489 65.9638 30.8355 64.6786 31.5172C63.3934 32.1989 62.7451 33.1377 62.7451 34.3223C62.7451 35.5069 63.3934 36.401 64.6786 37.038C65.9638 37.675 67.9642 37.9879 70.6799 37.9879C72.3339 37.9879 73.8649 37.8314 75.273 37.5185C76.6811 37.1944 77.6757 36.6468 78.2792 35.8421C76.7481 35.4734 75.4853 35.1493 74.5018 34.8587C74.2224 35.261 73.7977 35.5404 73.2054 35.7304C72.6131 35.9092 71.831 36.0098 70.8252 36.0098C69.5735 36.0098 68.6458 35.8422 68.0423 35.507C67.4388 35.1717 67.1372 34.747 67.1372 34.2106C67.1372 33.7188 67.4166 33.3054 67.9865 32.9813V32.9701Z" fill="#575756"/>
<path d="M84.1346 30.6902H79.7427C79.8433 31.9754 79.888 33.1711 79.888 34.2887C79.888 35.4062 79.8433 36.602 79.7427 37.8872H92.4381C92.4381 37.4402 92.4492 37.0715 92.4939 36.7586C92.5274 36.4457 92.628 36.1216 92.7845 35.7863C90.5046 35.8422 87.6214 35.8757 84.1346 35.8868V30.6902Z" fill="#575756"/>
<path d="M103.983 34.4452C103.983 34.7581 103.938 35.0152 103.849 35.2052C103.759 35.4064 103.469 35.5852 102.988 35.7416C102.508 35.8981 101.748 35.9875 100.72 35.9875C99.7697 35.9875 99.0767 35.9093 98.652 35.7528C98.2274 35.5964 97.9704 35.4286 97.8922 35.2387C97.8139 35.0598 97.7693 34.8252 97.7693 34.5346V30.6791H93.299V34.6911C93.2767 35.6745 93.7908 36.468 94.8301 37.0715C95.8694 37.6749 97.8139 37.9767 100.641 37.9767C103.469 37.9767 105.424 37.6639 106.609 37.0269C107.794 36.3898 108.397 35.5852 108.419 34.6241V30.6791H103.949V34.4452H103.983Z" fill="#575756"/>
<path d="M120.433 34.3111C121.673 34.1211 122.545 33.8642 123.048 33.5512C123.562 33.2383 123.808 32.8806 123.808 32.4783C123.808 32.076 123.629 31.7519 123.271 31.4948C122.914 31.2378 122.31 31.0366 121.45 30.9025C120.589 30.7684 119.416 30.7014 117.929 30.7014H114.096H109.861C109.961 31.9866 110.006 33.1824 110.006 34.2999C110.006 35.4175 109.961 36.6132 109.861 37.8984H117.963C119.662 37.8984 121.003 37.809 121.964 37.6414C122.925 37.4626 123.584 37.2168 123.964 36.9039C124.333 36.591 124.523 36.211 124.523 35.7528C124.523 34.7917 123.159 34.3111 120.421 34.3111H120.433ZM114.119 32.5119H117.583C118.298 32.5119 118.812 32.5453 119.125 32.6012C119.438 32.6571 119.583 32.7689 119.583 32.9253C119.583 33.1153 119.438 33.2494 119.136 33.3276C118.835 33.4059 118.321 33.4394 117.572 33.4394H114.107V32.523L114.119 32.5119ZM119.718 35.8757C119.572 35.9539 119.338 35.9987 119.002 36.0322C118.667 36.0657 118.198 36.0768 117.572 36.0768H114.107V35.0711H117.572C118.455 35.0711 119.069 35.1046 119.416 35.1828C119.762 35.2611 119.93 35.3839 119.93 35.5516C119.93 35.6857 119.852 35.7863 119.718 35.8645V35.8757Z" fill="#575756"/>
</svg>
