<svg width="175" height="39" viewBox="0 0 175 39" fill="none" xmlns="http://www.w3.org/2000/svg">
<path d="M50.49 29.8544C50.2003 30.1815 49.864 30.4712 49.4996 30.7141C48.3036 31.5176 47.0796 32.2838 45.8743 33.0687C44.8559 33.7227 43.8468 34.3767 42.8283 35.0401C42.7629 35.0868 42.7162 35.1709 42.6602 35.2457C42.7349 35.3111 42.7909 35.3577 42.875 35.4325C44.9026 34.1524 46.9395 32.8724 48.9763 31.5923C48.9763 31.8259 48.8922 31.9848 48.7988 32.1343C48.4998 32.6295 48.1821 33.1154 47.8925 33.6199C47.4347 34.4234 47.2291 35.2831 47.2104 36.2174C47.1917 37.6937 48.6307 38.9831 50.163 38.7495C50.7983 38.656 51.4337 38.4785 52.0504 38.2636C53.3117 37.8244 54.4516 37.133 55.5635 36.4136C57.7499 35.0027 59.9176 33.5639 62.0946 32.1343C62.1974 32.0689 62.3095 32.0222 62.5711 31.8914C62.4123 32.1997 62.3376 32.3678 62.2441 32.5173C62.0012 32.9097 61.7396 33.2928 61.506 33.6946C61.0668 34.4327 60.6651 35.1989 60.4502 36.0398C60.1325 37.3106 60.7585 38.4411 61.8984 38.7308C62.3002 38.8335 62.6833 38.7495 63.0664 38.6374C64.4866 38.2076 65.7573 37.4881 66.9906 36.694C69.3171 35.199 71.625 33.6667 73.9235 32.1343C75.4932 31.0878 77.0442 30.0227 78.5859 28.9482C79.0904 28.5931 79.5576 28.1633 80.0528 27.7615C80.2584 27.883 80.4546 27.9951 80.6508 28.1072C80.6134 28.1913 80.5947 28.2474 80.5667 28.2661C79.2212 29.1537 78.0066 30.2002 76.8293 31.2934C75.7268 32.3118 74.7737 33.4424 74.1197 34.8065C73.8207 35.4419 73.5965 36.096 73.6151 36.8154C73.6338 37.6376 74.0263 38.2262 74.8018 38.5252C75.5119 38.7962 76.2313 38.871 76.9882 38.6467C78.1748 38.2823 79.2866 37.7497 80.3331 37.105C82.1364 35.9931 83.9023 34.8345 85.6776 33.6946C85.8551 33.5825 86.0513 33.4798 86.3317 33.3116C86.2382 33.6293 86.2008 33.8068 86.1448 33.975C85.9392 34.5823 85.8925 35.1989 85.9392 35.8343C86.0326 37.1237 86.8549 38.1422 88.0789 38.572C89.2094 38.9738 90.284 38.7495 91.3585 38.4131C93.7784 37.647 95.9274 36.3389 97.983 34.9C100.001 33.4891 101.926 31.9474 103.888 30.4524C105.056 29.5648 106.215 28.6678 107.504 27.967C107.887 27.7521 108.28 27.6775 108.691 27.827C108.849 28.2568 108.877 28.2754 108.709 28.5463C108.466 28.9388 108.205 29.3313 107.896 29.6676C107.158 30.4712 106.392 31.2467 105.626 32.0316C104.028 33.6854 102.421 35.3391 100.823 37.0022C100.487 37.348 100.16 37.703 99.9171 38.1421C100.403 38.7868 101.038 38.5159 101.636 38.5346C101.898 38.3197 102.188 38.1142 102.44 37.8712C103.477 36.8341 104.486 35.7782 105.523 34.7411C106.243 34.0216 106.953 33.2648 107.747 32.6294C109.504 31.2466 111.344 29.9853 113.26 28.836C113.774 28.5277 114.334 28.2848 114.885 28.0325C115.25 27.8737 115.642 27.8176 115.997 28.0138C116.221 28.3408 116.147 28.6398 115.997 28.9014C115.68 29.4153 115.381 29.948 114.979 30.3964C113.839 31.6858 112.643 32.9285 111.475 34.1898C110.419 35.3297 109.363 36.479 108.308 37.6283C108.177 37.7778 108.065 37.9459 107.934 38.1328C108.074 38.2636 108.158 38.4131 108.27 38.4412C108.868 38.6187 109.466 38.6747 109.999 38.2636C110.204 38.1048 110.382 37.9273 110.559 37.7404C111.905 36.3856 113.269 35.0495 114.586 33.6667C116.025 32.153 117.679 30.929 119.482 29.8732C120.65 29.1911 121.837 28.5557 123.117 28.1072C123.481 27.9764 123.846 27.7895 124.248 27.9577C124.5 28.2567 124.36 28.5184 124.182 28.7333C123.883 29.0883 123.565 29.4247 123.238 29.761C122.024 31.0131 120.772 32.2277 119.604 33.5171C118.968 34.2179 118.427 35.0214 117.941 35.825C117.259 36.9462 117.735 38.0113 118.987 38.4972C119.763 38.7962 120.566 38.8896 121.379 38.6187C121.912 38.4411 122.463 38.3103 122.949 38.0581C124.173 37.4414 125.397 36.8154 126.574 36.124C127.471 35.5914 128.303 34.9467 129.162 34.3487C129.321 34.2459 129.489 34.1711 129.686 34.059C129.461 34.7691 129.172 35.3951 129.069 36.0398C128.751 37.9646 130.321 39.1793 131.872 38.628C132.591 38.3757 133.301 38.0488 133.937 37.6377C134.871 37.0397 135.74 36.3388 136.656 35.6661C136.628 35.7595 136.581 35.8717 136.581 35.9745C136.581 36.3669 136.516 36.778 136.618 37.1424C136.936 38.273 138.123 38.9457 139.375 38.7308C139.851 38.6467 140.328 38.5066 140.776 38.3384C142.112 37.8432 143.336 37.1144 144.523 36.3389C147.018 34.7131 149.494 33.0686 151.97 31.4149C153.689 30.2749 155.455 29.1817 156.997 27.7428C157.137 27.8082 157.286 27.8737 157.426 27.9485C157.501 27.9952 157.566 28.0605 157.632 28.1166C157.595 28.182 157.585 28.2287 157.557 28.2567C156.212 29.1444 154.997 30.1908 153.82 31.284C152.717 32.3025 151.755 33.433 151.11 34.7972C150.811 35.4326 150.606 36.0866 150.606 36.8061C150.606 37.6376 151.017 38.1795 151.736 38.4785C152.409 38.7588 153.119 38.899 153.848 38.6467C154.399 38.4598 154.95 38.2823 155.483 38.0487C157.146 37.3012 158.66 36.3015 160.192 35.3391C161.098 34.7691 161.967 34.1525 162.855 33.5545C162.976 33.4798 163.117 33.4236 163.313 33.3302C163.191 33.76 163.088 34.0871 163.014 34.4234C162.855 35.2083 162.827 35.9931 163.135 36.7593C163.789 38.3664 165.452 38.927 166.854 38.7308C167.489 38.6373 168.125 38.4598 168.741 38.2542C170.451 37.6749 172.002 36.778 173.516 35.8343C173.946 35.5633 174.375 35.2737 174.787 34.9747C174.871 34.9186 174.889 34.7785 174.964 34.6477C174.618 34.6009 174.469 34.8065 174.291 34.928C172.918 35.8437 171.498 36.6939 169.984 37.3573C168.947 37.8058 167.882 38.0955 166.732 37.9647C165.948 37.8712 165.35 37.5348 165.116 36.75C164.929 36.1426 164.957 35.5166 165.2 34.9C165.677 34.8065 166.125 34.7131 166.583 34.6383C168.723 34.2739 170.694 33.4798 172.469 32.2371C173.376 31.6017 174.17 30.8542 174.646 29.8357C174.852 29.3966 175.029 28.9388 174.889 28.4249C174.674 27.6026 173.974 27.0421 173.049 26.9673C172.086 26.8926 171.208 27.1729 170.348 27.556C168.545 28.3689 166.985 29.5462 165.536 30.8543C164.303 31.9661 163.032 33.0033 161.64 33.9096C161.192 34.1993 160.743 34.4982 160.313 34.8065C158.716 35.9371 157.025 36.9088 155.221 37.6749C154.735 37.8805 154.212 38.0487 153.698 38.1421C152.801 38.3103 151.895 37.6376 152.334 36.451C152.605 35.7222 153.007 35.0775 153.502 34.4795C154.623 33.1061 155.903 31.8914 157.221 30.7047C157.884 30.1161 158.529 29.5181 159.174 28.9107C159.37 28.7239 159.585 28.5464 159.613 28.182C159.23 28.0699 158.847 27.967 158.482 27.8456C158.127 27.7241 157.725 27.6401 157.52 27.2477C158.277 26.6217 158.996 25.9956 159.136 24.9772C158.828 24.1269 158.333 23.9027 157.576 24.2858C157.025 24.5661 156.585 24.9772 156.24 25.4818C155.931 25.9209 155.894 26.3787 156.202 26.8459C156.314 27.014 156.427 27.1915 156.557 27.3784C156.015 28.0605 155.343 28.5557 154.67 29.0322C153.306 29.9946 151.923 30.9383 150.531 31.882C148.494 33.2649 146.466 34.6664 144.402 36.0025C143.159 36.8154 141.86 37.5535 140.431 38.0113C140.001 38.1515 139.571 38.1982 139.132 38.1234C138.721 38.0487 138.44 37.8338 138.366 37.4227C138.319 37.133 138.31 36.8247 138.338 36.5351C138.431 35.7222 138.954 35.1429 139.468 34.5823C140.393 33.5732 141.346 32.5827 142.29 31.583C143.374 30.4337 144.458 29.2752 145.532 28.1166C145.7 27.939 145.831 27.7242 146.018 27.4719C145.345 27.0141 144.691 27.3037 144.14 27.2103C143.617 27.556 143.318 28.0511 142.832 28.3315C142.645 28.0979 142.486 27.8924 142.318 27.7055C141.879 27.2103 141.318 26.9486 140.655 26.958C140.281 26.958 139.907 26.9766 139.543 27.0327C138.356 27.2102 137.272 27.6962 136.235 28.2848C134.273 29.3967 132.61 30.8823 131.012 32.452C130.713 32.7416 130.405 33.0219 130.059 33.2648C129.181 33.8815 128.265 34.4328 127.406 35.0682C125.939 36.152 124.341 37.0023 122.687 37.7498C121.968 38.0674 121.22 38.329 120.398 38.2823C119.66 38.2356 119.464 38.0767 119.239 37.3199C119.342 36.6472 119.735 36.124 120.192 35.6568C121.052 34.7785 121.94 33.9189 122.818 33.05C123.64 32.2277 124.472 31.4148 125.275 30.5739C125.752 30.0694 126.182 29.5088 126.397 28.8267C126.714 27.8082 126.051 26.9019 124.995 26.9673C124.584 26.9954 124.163 27.1074 123.78 27.2663C121.659 28.1633 119.623 29.2378 117.688 30.4992C117.492 30.63 117.277 30.7422 117.072 30.8636C117.109 30.6207 117.231 30.4805 117.305 30.3123C117.52 29.7984 117.791 29.3033 117.913 28.7707C118.174 27.6308 117.53 26.9113 116.352 26.9673C116.128 26.9767 115.885 27.0328 115.68 27.1075C115.287 27.257 114.895 27.4158 114.54 27.6307C112.97 28.5744 111.41 29.5462 109.84 30.4992C109.597 30.6487 109.345 30.7982 109.102 30.9477C109.167 30.6674 109.307 30.4525 109.419 30.2376C109.765 29.6022 110.036 28.9389 109.989 28.182C109.952 27.6027 109.672 27.2383 109.12 27.0514C108.635 26.8832 108.149 26.8926 107.71 27.1729C107.009 27.6214 106.299 28.0792 105.635 28.5837C103.832 29.9853 102.085 31.4429 100.272 32.8164C98.9921 33.7881 97.6747 34.7037 96.3199 35.554C95.264 36.2173 94.1335 36.7873 93.0029 37.3386C91.9845 37.8338 90.9006 38.0768 89.7514 37.9553C88.9105 37.8619 88.2938 37.4321 88.1069 36.6752C87.9574 36.0866 87.9574 35.4886 88.2097 34.8906C88.3779 34.8532 88.5367 34.8159 88.6862 34.7785C89.5458 34.5916 90.4241 34.4515 91.265 34.2179C93.0963 33.704 94.7782 32.8631 96.2264 31.6204C96.8524 31.0878 97.3663 30.4618 97.7027 29.6957C98.31 28.3128 97.5065 27.0327 95.9835 26.9486C95.9181 26.9486 95.8433 26.9486 95.7779 26.9486C94.9183 26.9299 94.1241 27.2009 93.358 27.5466C91.5547 28.3595 90.013 29.5555 88.5367 30.8449C87.4155 31.826 86.313 32.8257 85.0516 33.6293C84.2667 34.1245 83.5193 34.685 82.7438 35.1989C81.0339 36.3201 79.268 37.3572 77.3058 38.0019C76.9882 38.1047 76.6238 38.1608 76.2874 38.1421C75.5025 38.0861 75.1101 37.5161 75.269 36.7312C75.3998 36.1052 75.7081 35.554 76.0725 35.0495C77.2591 33.4237 78.7167 32.0596 80.2116 30.7141C80.8657 30.1254 81.5198 29.5274 82.1645 28.9201C82.3607 28.7332 82.5756 28.5464 82.6036 28.2193C81.9122 27.8736 81.0432 27.9204 80.492 27.2943C81.6506 26.3039 81.9589 25.8461 82.1271 24.9772C81.8281 24.1363 81.3329 23.9214 80.5761 24.3045C80.0061 24.5941 79.5483 25.0239 79.2026 25.5565C78.9223 25.9863 78.9036 26.4254 79.1932 26.8646C79.3053 27.0328 79.4175 27.2102 79.5483 27.3971C79.1745 27.9017 78.7167 28.2942 78.2215 28.6399C76.4369 29.8919 74.6336 31.1346 72.8396 32.3773C71.326 33.4144 69.8123 34.4608 68.28 35.4699C67.2335 36.1613 66.159 36.806 65.0752 37.432C64.5146 37.759 63.8979 37.9647 63.2252 37.9927C62.2067 38.0394 61.9638 37.2826 62.104 36.5818C62.132 36.423 62.2067 36.2641 62.2908 36.1332C62.8327 35.2643 63.3373 34.3674 63.9353 33.5545C66.1871 30.4992 68.6911 27.6587 71.2512 24.8557C71.6904 24.3792 72.1482 23.9213 72.5874 23.4542C73.3255 23.4542 74.0263 23.4542 74.7177 23.4542C75.0541 23.4542 75.3717 23.4261 75.652 23.0804C75.624 22.9309 75.5773 22.7441 75.5306 22.5105C74.8485 22.4824 74.2225 22.4638 73.503 22.4358C73.7366 22.1555 73.8955 21.9592 74.0636 21.7723C75.0821 20.6885 76.1099 19.614 77.1377 18.5301C77.7076 17.9228 78.2869 17.3062 78.8475 16.6895C78.997 16.5213 79.0998 16.3157 79.2773 16.0541C78.9783 15.8952 78.7447 15.7738 78.6139 15.699C77.6235 15.7364 76.9508 16.1756 76.3715 16.7829C75.2316 17.9789 74.101 19.1842 72.9704 20.3895C72.3164 21.0809 71.6717 21.7817 71.0644 22.4451C70.2235 22.5199 69.4293 22.3797 68.6724 22.5385C68.6257 23.1832 68.7752 23.3888 69.2984 23.4448C69.5227 23.4729 69.7563 23.4448 70.102 23.4448C69.8497 23.7532 69.6815 23.9774 69.4947 24.183C68.4108 25.4257 67.327 26.6777 66.2431 27.9204C64.9257 29.434 63.5242 30.8542 61.7582 31.8633C61.6368 31.9287 61.5247 32.0128 61.4125 32.0969C59.7307 33.2275 58.0582 34.3674 56.3764 35.4792C55.0777 36.3389 53.7602 37.1704 52.312 37.7777C51.6206 38.0674 50.9198 38.2823 50.1536 38.2917C49.7519 38.2917 49.4342 38.1609 49.1632 37.8806C48.6306 37.32 48.4344 36.479 48.8175 35.7502C49.2473 34.928 49.7051 34.1058 50.2751 33.3863C51.8355 31.3868 53.4519 29.4341 55.059 27.4813C55.2739 27.2197 55.5916 27.0421 55.8812 26.8646C56.3017 26.6216 56.7595 26.444 57.1893 26.2105C60.2726 24.5753 63.1878 22.66 66.0563 20.6605C67.9623 19.3244 69.803 17.8947 71.4755 16.2783C72.4939 15.2879 73.5217 14.3069 74.3066 13.111C74.5682 12.7092 74.8111 12.2701 74.9793 11.8216C75.3624 10.7564 74.8111 9.81263 73.7179 9.51363C73.176 9.36414 72.6528 9.45766 72.1389 9.59781C70.999 9.91549 69.9992 10.5134 69.0462 11.1675C67.1681 12.4662 65.4489 13.9706 63.8045 15.5403C60.7491 18.4461 57.9368 21.5762 55.0963 24.6782C53.5453 26.3787 52.0597 28.1446 50.5367 29.8638L50.49 29.8544ZM166.985 31.9754C168.246 30.5085 169.657 29.1911 171.348 28.2287C171.871 27.9297 172.413 27.7054 173.058 27.7241C173.703 27.7428 174.366 28.3128 174.17 29.1443C174.03 29.761 173.759 30.275 173.348 30.7328C172.666 31.5083 171.815 32.0782 170.9 32.5547C169.302 33.3863 167.592 33.8909 165.826 34.1898C165.742 34.2085 165.649 34.1898 165.471 34.1711C165.91 33.3209 166.415 32.6295 166.975 31.9754H166.985ZM130.685 36.694C130.825 36.3015 131.05 35.9371 131.274 35.5914C132.012 34.4795 132.918 33.5171 133.853 32.5734C135.329 31.0785 136.889 29.6862 138.646 28.5463C139.206 28.1819 139.832 27.9203 140.44 27.64C140.599 27.5653 140.795 27.5279 140.982 27.5279C141.869 27.5092 142.365 28.2193 142.028 29.0322C141.907 29.3219 141.72 29.6115 141.496 29.8451C139.421 31.9754 137.45 34.2179 135.179 36.1613C134.469 36.7686 133.731 37.3293 132.862 37.6937C132.46 37.8618 132.031 37.946 131.61 38.0674C130.751 37.9927 130.396 37.5162 130.685 36.7127V36.694ZM89.5271 32.5734C90.695 31.0504 92.0592 29.733 93.657 28.6678C94.0587 28.3968 94.5072 28.1913 94.9277 27.9577C95.3294 27.7334 95.7686 27.7148 96.2171 27.7709C96.8898 27.8456 97.2729 28.3688 97.1981 29.0416C97.1234 29.7423 96.7683 30.303 96.3011 30.8075C95.6845 31.4802 94.9464 32.0128 94.1522 32.4426C92.4797 33.3489 90.695 33.8909 88.8264 34.1992C88.7423 34.2179 88.6488 34.1898 88.5087 34.1805C88.7703 33.5638 89.1441 33.0686 89.5178 32.5828L89.5271 32.5734ZM58.3292 23.5289C60.5156 20.9688 62.7206 18.4274 65.0845 16.0168C66.6356 14.4377 68.2146 12.896 70.0459 11.6533C70.8121 11.1394 71.6343 10.691 72.4566 10.2612C72.7555 10.1117 73.1199 10.0463 73.4656 10.0369C74.3252 10.0182 74.7924 10.6443 74.5402 11.4759C74.4094 11.915 74.1851 12.3354 73.9422 12.7279C73.3348 13.6996 72.5593 14.5311 71.7651 15.3533C70.1581 17.0165 68.3361 18.4181 66.4674 19.7542C63.8792 21.6042 61.235 23.3794 58.488 24.9772C57.7873 25.3883 57.0678 25.7527 56.3484 26.1358C56.311 26.0984 56.2736 26.061 56.2363 26.0143C56.9277 25.1827 57.6191 24.3418 58.3292 23.5195V23.5289Z" fill="#575756"/>
<path d="M1.02776 37.8768C2.72828 38.5775 4.52225 38.6709 6.30686 38.4653C7.73641 38.2971 9.1099 37.8394 10.446 37.2694C12.0531 36.5873 13.5667 35.7277 15.0243 34.7653C15.6971 34.3262 16.3791 33.8871 17.1266 33.4105C17.2107 33.7563 17.2574 33.9805 17.3228 34.2047C17.9301 36.4565 19.3691 37.8673 21.6489 38.3532C23.4428 38.7363 25.2181 38.5494 26.956 38.0355C29.1423 37.3908 31.1325 36.3537 33.0106 35.0923C35.0288 33.7468 36.8881 32.2052 38.6727 30.5701C42.3727 27.1784 45.8579 23.6186 48.4086 19.2925C49.5205 18.6946 50.6231 18.1433 51.6789 17.5173C54.0988 16.097 56.3226 14.4245 58.0979 12.2194C59.7236 10.2013 60.7234 7.95878 60.5178 5.29588C60.3963 3.67012 59.7236 2.35277 58.3688 1.41842C57.5186 0.82044 56.5655 0.484092 55.5471 0.269192C53.8372 -0.0952048 52.1273 -0.0485878 50.4081 0.166313C47.9508 0.465305 45.5869 1.1287 43.2884 2.04436C39.4109 3.59539 35.9071 5.76308 32.6462 8.35123C29.7217 10.6684 27.0681 13.266 24.6949 16.1531C22.2562 19.1057 20.1539 22.2731 18.659 25.8143C17.9302 27.5241 17.3415 29.2807 17.164 31.1587C17.1173 31.6913 17.0519 32.2145 16.9958 32.7564C15.2953 33.9711 13.5854 35.1764 11.7167 36.1294C10.1377 36.933 8.50257 37.5871 6.73665 37.8768C5.49397 38.0823 4.32603 37.9515 3.2889 37.1667C2.93385 36.905 2.56011 36.6621 2.18637 36.4285C1.99016 36.307 1.79395 36.1669 1.57905 36.1015C1.39218 36.0454 1.14924 35.9987 0.981056 36.0641C0.523224 36.2509 0.121465 36.5312 0 37.0731C0.177526 37.531 0.607306 37.7086 0.999732 37.8768H1.02776ZM19.014 29.4956C19.8923 27.1036 21.163 24.9173 22.5645 22.7963C24.6575 19.6289 27.0587 16.7043 29.6749 13.948C32.4406 11.0421 35.4212 8.38867 38.7101 6.09017C41.5785 4.08132 44.6245 2.39011 47.9975 1.38101C49.6794 0.876464 51.3892 0.577513 53.1458 0.605544C54.3044 0.624231 55.463 0.782979 56.5562 1.21278C58.3875 1.94157 59.2845 3.28707 59.3873 5.22118C59.4807 7.09922 58.8266 8.78105 57.8829 10.3601C56.4814 12.7053 54.6314 14.6581 52.4637 16.3025C51.6135 16.9473 50.6884 17.4985 49.7915 18.0685C49.5672 18.218 49.2963 18.3021 49.0534 18.4142C49.67 17.0033 50.2119 15.6205 50.5203 14.1536C50.7258 13.1725 50.838 12.1914 50.6231 11.1823C50.2773 9.59394 48.9506 8.46336 47.3248 8.36058C45.5122 8.24846 43.8864 8.81849 42.3167 9.61269C40.1023 10.7339 38.1401 12.2288 36.2714 13.8359C33.3563 16.3399 30.684 19.0963 28.1052 21.9367C25.3489 24.964 22.5085 27.9072 19.4999 30.6916C19.1915 30.9719 18.8738 31.2429 18.5001 31.5699C18.5562 30.7757 18.7991 30.1309 19.042 29.4862L19.014 29.4956ZM18.7898 32.3173C20.4529 30.9719 22.1161 29.6358 23.7699 28.281C26.2179 26.2721 28.4883 24.0763 30.684 21.7965C32.8144 19.5821 34.9073 17.3397 37.047 15.144C38.7008 13.4434 40.4947 11.8831 42.4942 10.5937C43.6154 9.87424 44.7834 9.2295 46.1195 9.03328C46.6614 8.94919 47.2407 8.93985 47.7826 9.03328C49.1187 9.26687 49.9316 10.1732 50.1933 11.4906C50.4362 12.6959 50.1932 13.8545 49.8569 14.9944C49.4738 16.3119 48.8945 17.5546 48.2592 18.7973C47.1099 19.4327 45.8579 19.8624 44.6058 20.2735C43.3725 20.6753 42.1392 21.0771 40.8965 21.4789C39.6444 21.8807 38.3177 22.0301 37.075 22.4879C37.2151 22.8243 37.4487 22.7589 37.6356 22.7309C38 22.6655 38.3551 22.5627 38.7194 22.4786C40.8217 21.974 42.9053 21.4135 44.9235 20.6473C45.7644 20.3296 46.6054 20.0213 47.5958 19.6476C47.4089 19.9933 47.3061 20.2082 47.1753 20.4137C46.2316 21.9367 45.1011 23.3288 43.9425 24.693C42.2606 26.6551 40.4853 28.5239 38.5512 30.2431C36.4116 32.1492 34.1878 33.9338 31.7025 35.3727C29.8431 36.4472 27.8997 37.3162 25.7787 37.7553C24.6762 37.9795 23.5549 38.0542 22.4431 37.9234C20.6024 37.6992 19.285 36.7462 18.715 34.9242C18.5001 34.2421 18.3786 33.532 18.2105 32.8219C18.4254 32.635 18.5936 32.4762 18.7711 32.3267L18.7898 32.3173Z" fill="#575756"/>
</svg>
