<svg width="20" height="20" viewBox="0 0 20 20" fill="none" xmlns="http://www.w3.org/2000/svg">
<path d="M6.66112 2.32527C6.56631 2.2227 6.4513 2.14085 6.32333 2.08488C6.19535 2.0289 6.05718 2 5.9175 2C5.77782 2 5.63965 2.0289 5.51168 2.08488C5.3837 2.14085 5.2687 2.2227 5.17388 2.32527L2.23583 5.753C2.06677 5.95022 1.98297 6.20652 2.00288 6.46552C2.02279 6.72453 2.14477 6.96501 2.34199 7.13408C2.53922 7.30314 2.79552 7.38693 3.05452 7.36703C3.31352 7.34712 3.55401 7.22513 3.72307 7.02791L4.93815 5.61026V14.7149C4.93815 14.9747 5.04133 15.2238 5.225 15.4074C5.40866 15.5911 5.65776 15.6943 5.9175 15.6943C6.17724 15.6943 6.42634 15.5911 6.61001 15.4074C6.79367 15.2238 6.89685 14.9747 6.89685 14.7149V5.61026L8.11193 7.02791C8.281 7.22513 8.52148 7.34712 8.78048 7.36703C9.03949 7.38693 9.29579 7.30314 9.49301 7.13408C9.69023 6.96501 9.81221 6.72453 9.83212 6.46552C9.85203 6.20652 9.76824 5.95022 9.59917 5.753L6.66112 2.32527Z" fill="#303030"/>
<path d="M17.3277 12.5016C17.1304 12.3328 16.8742 12.2492 16.6153 12.2691C16.3564 12.289 16.116 12.4108 15.9468 12.6078L14.7316 14.0254V4.92076C14.7316 4.66102 14.6284 4.41192 14.4447 4.22825C14.2611 4.04459 14.012 3.94141 13.7522 3.94141C13.4925 3.94141 13.2434 4.04459 13.0597 4.22825C12.876 4.41192 12.7729 4.66102 12.7729 4.92076V14.0254L11.5578 12.6078C11.4741 12.5101 11.3719 12.4299 11.2572 12.3717C11.1425 12.3135 11.0175 12.2785 10.8892 12.2687C10.761 12.2588 10.6321 12.2743 10.5098 12.3143C10.3875 12.3542 10.2744 12.4179 10.1767 12.5016C10.0791 12.5853 9.99885 12.6874 9.94066 12.8022C9.88248 12.9169 9.84746 13.0419 9.8376 13.1702C9.82774 13.2984 9.84324 13.4273 9.88321 13.5496C9.92318 13.6718 9.98684 13.785 10.0705 13.8827L13.0086 17.3104C13.1006 17.4176 13.2146 17.5037 13.343 17.5627C13.4713 17.6217 13.6109 17.6523 13.7522 17.6523C13.8935 17.6523 14.0331 17.6217 14.1614 17.5627C14.2898 17.5037 14.4039 17.4176 14.4958 17.3104L17.4339 13.8827C17.6029 13.6854 17.6866 13.4291 17.6667 13.1702C17.6468 12.9112 17.5249 12.6707 17.3277 12.5016Z" fill="#303030"/>
</svg>
