<svg width="20" height="20" viewBox="0 0 20 20" fill="none" xmlns="http://www.w3.org/2000/svg">
<path d="M14.1666 4.16699C14.1666 3.67254 14.3132 3.18919 14.5879 2.77807C14.8626 2.36695 15.2531 2.04651 15.7099 1.85729C16.1667 1.66808 16.6694 1.61857 17.1543 1.71503C17.6393 1.81149 18.0847 2.0496 18.4344 2.39923C18.784 2.74886 19.0221 3.19432 19.1185 3.67927C19.215 4.16422 19.1655 4.66689 18.9763 5.1237C18.7871 5.58052 18.4666 5.97096 18.0555 6.24567C17.6444 6.52037 17.161 6.66699 16.6666 6.66699C16.0035 6.66699 15.3677 6.4036 14.8988 5.93476C14.43 5.46592 14.1666 4.83003 14.1666 4.16699ZM1.66659 5.00033H11.6666C11.8876 5.00033 12.0996 4.91253 12.2558 4.75625C12.4121 4.59997 12.4999 4.38801 12.4999 4.16699C12.4999 3.94598 12.4121 3.73402 12.2558 3.57774C12.0996 3.42146 11.8876 3.33366 11.6666 3.33366H1.66659C1.44557 3.33366 1.23361 3.42146 1.07733 3.57774C0.921049 3.73402 0.833252 3.94598 0.833252 4.16699C0.833252 4.38801 0.921049 4.59997 1.07733 4.75625C1.23361 4.91253 1.44557 5.00033 1.66659 5.00033ZM6.66659 7.50033C6.1508 7.50178 5.64809 7.66273 5.22736 7.96111C4.80664 8.25949 4.48851 8.6807 4.31659 9.16699H1.66659C1.44557 9.16699 1.23361 9.25479 1.07733 9.41107C0.921049 9.56735 0.833252 9.77931 0.833252 10.0003C0.833252 10.2213 0.921049 10.4333 1.07733 10.5896C1.23361 10.7459 1.44557 10.8337 1.66659 10.8337H4.31659C4.46946 11.2661 4.73834 11.6481 5.09379 11.9379C5.44924 12.2277 5.87756 12.4142 6.33189 12.4769C6.78621 12.5395 7.24902 12.476 7.66968 12.2933C8.09033 12.1106 8.45261 11.8157 8.71687 11.4408C8.98114 11.066 9.13719 10.6257 9.16797 10.1681C9.19875 9.71048 9.10305 9.25324 8.89136 8.84639C8.67967 8.43954 8.36015 8.09876 7.96775 7.86135C7.57535 7.62394 7.12521 7.49904 6.66659 7.50033ZM18.3333 9.16699H11.6666C11.4456 9.16699 11.2336 9.25479 11.0773 9.41107C10.9211 9.56735 10.8333 9.77931 10.8333 10.0003C10.8333 10.2213 10.9211 10.4333 11.0773 10.5896C11.2336 10.7459 11.4456 10.8337 11.6666 10.8337H18.3333C18.5543 10.8337 18.7662 10.7459 18.9225 10.5896C19.0788 10.4333 19.1666 10.2213 19.1666 10.0003C19.1666 9.77931 19.0788 9.56735 18.9225 9.41107C18.7662 9.25479 18.5543 9.16699 18.3333 9.16699ZM8.33325 15.0003H1.66659C1.44557 15.0003 1.23361 15.0881 1.07733 15.2444C0.921049 15.4007 0.833252 15.6126 0.833252 15.8337C0.833252 16.0547 0.921049 16.2666 1.07733 16.4229C1.23361 16.5792 1.44557 16.667 1.66659 16.667H8.33325C8.55427 16.667 8.76623 16.5792 8.92251 16.4229C9.07879 16.2666 9.16659 16.0547 9.16659 15.8337C9.16659 15.6126 9.07879 15.4007 8.92251 15.2444C8.76623 15.0881 8.55427 15.0003 8.33325 15.0003ZM18.3333 15.0003H15.6833C15.4867 14.4443 15.0999 13.9757 14.5912 13.6773C14.0825 13.3789 13.4847 13.2699 12.9035 13.3697C12.3222 13.4694 11.795 13.7714 11.4148 14.2223C11.0347 14.6732 10.8262 15.2439 10.8262 15.8337C10.8262 16.4234 11.0347 16.9942 11.4148 17.445C11.795 17.8959 12.3222 18.1979 12.9035 18.2977C13.4847 18.3974 14.0825 18.2884 14.5912 17.99C15.0999 17.6916 15.4867 17.223 15.6833 16.667H18.3333C18.5543 16.667 18.7662 16.5792 18.9225 16.4229C19.0788 16.2666 19.1666 16.0547 19.1666 15.8337C19.1666 15.6126 19.0788 15.4007 18.9225 15.2444C18.7662 15.0881 18.5543 15.0003 18.3333 15.0003Z" fill="#303030"/>
</svg>
