<svg width="248" height="55" viewBox="0 0 248 55" fill="none" xmlns="http://www.w3.org/2000/svg">
<path d="M71.5759 9.41626H60.5302V32.2018H65.5444V25.8233H71.0852C76.8534 25.8233 80.0487 22.7836 80.0487 17.5779C80.0487 12.3722 77.0928 9.41626 71.5759 9.41626ZM70.5108 21.204H65.5324V14.0595H70.5108C73.1316 14.0595 74.7592 14.7776 74.7592 17.554C74.7592 20.3304 73.1316 21.204 70.5108 21.204Z" fill="#303030"/>
<path d="M94.9599 9.05774C88.007 9.05774 83.986 13.5813 83.986 21.0609C83.986 27.8582 87.4086 32.6092 95.0317 32.6092C102.655 32.6092 105.024 28.1694 105.024 25.0938V25.022H99.9024V25.0938C99.9024 26.1948 98.7655 28.0976 94.8881 28.0976C91.3219 28.0976 89.4909 26.0033 89.084 22.3653H105.108V21.0728C105.108 13.4018 101.733 9.06971 94.9719 9.06971H94.9599V9.05774ZM89.2515 17.9374C89.826 15.0892 91.5253 13.5694 94.8283 13.5694C98.1312 13.5694 99.7229 15.3166 99.9143 17.9374H89.2396H89.2515Z" fill="#303030"/>
<path d="M120.558 9.05774C113.413 9.05774 109.584 13.3899 109.584 20.9771C109.584 28.5643 113.27 32.5973 120.438 32.5973C127.606 32.5973 130.538 28.9114 130.538 23.1791V23.1073H125.416V23.1791C125.416 26.3743 123.597 28.0378 120.522 28.0378C116.8 28.0378 114.897 25.1896 114.897 20.7856C114.897 16.3817 116.716 13.6053 120.438 13.6053C123.55 13.6053 125.416 15.5081 125.416 18.464V18.5358H130.538V18.464C130.538 12.6599 126.781 9.04578 120.546 9.04578L120.558 9.05774Z" fill="#303030"/>
<path d="M132.884 14.1433H140.782V32.2138H145.892V14.1433H153.779V9.41626H132.884V14.1433Z" fill="#303030"/>
<path d="M166.679 9.05774C159.691 9.05774 155.741 13.5813 155.741 20.9053C155.741 28.2292 159.726 32.5973 166.751 32.5973C173.776 32.5973 177.689 28.0736 177.689 20.7497C177.689 13.4258 173.704 9.05774 166.679 9.05774ZM166.739 28.0258C163.089 28.0258 161.079 25.1058 161.079 20.7736C161.079 16.4415 163.053 13.5933 166.739 13.5933C170.425 13.5933 172.4 16.5133 172.4 20.8454C172.4 25.1776 170.425 28.0258 166.739 28.0258Z" fill="#303030"/>
<path d="M179.676 14.1433H187.586V32.2138H192.672V14.1433H200.559V9.41626H179.676V14.1433Z" fill="#303030"/>
<path d="M219.168 12.6599H218.785C218.031 10.6853 215.781 9.05774 212.023 9.05774C205.98 9.05774 202.533 13.1266 202.533 20.8694C202.533 28.6122 206.183 32.5973 212.059 32.5973C216.044 32.5973 218.019 30.7423 218.785 28.9951H219.168V32.2263H224.182V9.44069H219.168V12.6718V12.6599ZM213.519 28.0258C209.869 28.0258 207.859 25.1417 207.859 20.8454C207.859 16.5492 209.833 13.5933 213.519 13.5933C217.205 13.5933 219.18 16.4774 219.18 20.7736C219.18 25.0699 217.205 28.0258 213.519 28.0258Z" fill="#303030"/>
<path d="M242.863 9.41626V19.8995H236.712C235.192 19.8995 234.51 19.2892 234.51 17.6976V9.41626H229.388V18.643C229.388 23.0828 230.908 24.6027 235.347 24.6027H242.863V32.2018H247.985V9.41626H242.863Z" fill="#303030"/>
<path d="M33.1372 55H40.9997L32.0602 37.7552C30.1454 39.0597 28.0033 40.053 25.7056 40.6633L33.1372 55Z" fill="#303030"/>
<path d="M40.9997 20.8216C40.9997 9.50064 31.8208 0.321777 20.4998 0.321777C9.17886 0.321777 0 9.50064 0 20.8216C0 26.0154 1.93869 30.7664 5.12197 34.3805V55H12.3023V39.6221C14.8154 40.7231 17.5918 41.3334 20.4998 41.3334C22.3069 41.3334 24.0541 41.0941 25.7176 40.6633L13.6666 17.411H21.529L32.0721 37.7552C37.4694 34.0574 41.0117 27.8584 41.0117 20.8216H40.9997Z" fill="#303030"/>
<path d="M25.7176 40.6511C28.0153 40.0527 30.1574 39.0595 32.0721 37.7431L21.529 17.3988H13.6666L25.7176 40.6511Z" fill="white"/>
</svg>
