<svg width="62" height="24" viewBox="0 0 62 24" fill="none" xmlns="http://www.w3.org/2000/svg">
<g clip-path="url(#clip0_12750_46387)">
<path d="M26.1899 6.94097L28.9055 10.464H27.082L24.4066 6.98076H22.7688V10.464H21.3047V1.70312H25.5647C27.641 1.70312 28.5733 2.9166 28.5733 4.34194C28.5733 5.62206 27.8277 6.71718 26.1909 6.94097H26.1899ZM25.5115 3.03596H22.7688V5.64792H25.5115C26.497 5.64792 27.1091 5.17248 27.1091 4.34194C27.1091 3.51141 26.497 3.03596 25.5115 3.03596Z" fill="#0C242C"/>
<path d="M34.7788 8.67142H36.3092C35.8566 9.8849 34.6725 10.6369 33.3147 10.6369C31.411 10.6369 30 9.26523 30 7.37837C30 5.49151 31.3447 4.13281 33.2484 4.13281C35.1521 4.13281 36.4036 5.5313 36.4036 7.32565C36.4036 7.51066 36.4036 7.69467 36.3775 7.87967H31.4652C31.6247 8.75 32.3834 9.3438 33.3157 9.3438C33.9409 9.3438 34.4738 9.13294 34.7798 8.67042L34.7788 8.67142ZM31.4913 6.7587H34.9123C34.7788 5.94109 34.1406 5.38707 33.2484 5.38707C32.3563 5.38707 31.6107 5.94109 31.4913 6.7587Z" fill="#0C242C"/>
<path d="M42.2605 6.08532C41.9945 5.57108 41.4085 5.34629 40.5695 5.34629C39.7306 5.34629 39.2519 5.6238 39.2519 6.07139C39.2519 6.49412 39.6643 6.6652 40.3969 6.73085L41.5821 6.82335C42.9399 6.92878 43.7256 7.50966 43.7256 8.65749C43.7256 9.80532 42.6739 10.6369 40.8906 10.6369C39.1074 10.6369 37.9352 9.80532 37.6562 8.59185H39.2007C39.4134 9.1588 40.0527 9.42338 41.0372 9.42338C41.7557 9.42338 42.3147 9.17272 42.3147 8.72413C42.3147 8.27555 41.9153 8.10447 41.1837 8.03782L39.9192 7.91946C38.5484 7.78717 37.8429 7.22022 37.8429 6.1251C37.8429 5.02999 38.8946 4.13281 40.5986 4.13281C42.4622 4.13281 43.4737 4.97727 43.7929 6.08532H42.2625H42.2605Z" fill="#0C242C"/>
<path d="M47.2748 2.75781V4.30151H49.2186V5.52892H47.2748V8.31295C47.2748 8.90676 47.5808 9.23699 48.2201 9.23699H49.2186V10.4644H48.207C46.6496 10.4644 45.8638 9.71243 45.8638 8.55167V5.52991H44.7188V4.30251H45.8638V2.75881H47.2748V2.75781Z" fill="#0C242C"/>
<path d="M57.0174 7.3913C57.0174 9.23837 55.5934 10.6369 53.7027 10.6369C51.8121 10.6369 50.375 9.23837 50.375 7.3913C50.375 5.54423 51.799 4.13281 53.7027 4.13281C55.6064 4.13281 57.0174 5.51837 57.0174 7.3913ZM55.6064 7.3913C55.6064 6.2564 54.8076 5.42586 53.7027 5.42586C52.5978 5.42586 51.786 6.25739 51.786 7.3913C51.786 8.5252 52.5978 9.3438 53.7027 9.3438C54.8076 9.3438 55.6064 8.49934 55.6064 7.3913Z" fill="#0C242C"/>
<path d="M27.9479 15.0703V16.4031H24.9795V23.8312H23.5153V16.4031H20.5469V15.0703H27.9479Z" fill="#0C242C"/>
<path d="M34.1346 20.7507C34.1346 22.5977 32.7106 23.9962 30.8199 23.9962C28.9293 23.9962 27.4922 22.5977 27.4922 20.7507C27.4922 18.9036 28.9162 17.4922 30.8199 17.4922C32.7236 17.4922 34.1346 18.8777 34.1346 20.7507ZM32.7236 20.7507C32.7236 19.6158 31.9248 18.7852 30.8199 18.7852C29.715 18.7852 28.9032 19.6168 28.9032 20.7507C28.9032 21.8846 29.715 22.7032 30.8199 22.7032C31.9248 22.7032 32.7236 21.8587 32.7236 20.7507Z" fill="#0C242C"/>
<path d="M35.5088 21.3323V17.6641H36.9198V21.1344C36.9198 22.0843 37.4256 22.705 38.4371 22.705C39.3293 22.705 40.1542 22.0057 40.1542 20.831V17.6651H41.5652V23.8269H40.1542V23.26C39.7819 23.6956 39.0894 23.999 38.2103 23.999C36.5726 23.999 35.5078 22.9437 35.5078 21.3343L35.5088 21.3323Z" fill="#0C242C"/>
<path d="M47.8606 19.577C47.5415 19.0627 46.9825 18.7852 46.3433 18.7852C45.2384 18.7852 44.4667 19.6168 44.4667 20.7377C44.4667 21.8587 45.2384 22.7032 46.3433 22.7032C46.9825 22.7032 47.5415 22.4257 47.8606 21.9114H49.3378C48.8852 23.1916 47.7271 23.9962 46.3423 23.9962C44.4787 23.9962 43.0547 22.6107 43.0547 20.7377C43.0547 18.8648 44.4787 17.4922 46.3423 17.4922C47.7271 17.4922 48.8852 18.2969 49.3378 19.577H47.8606Z" fill="#0C242C"/>
<path d="M56.9101 20.1593V23.8276H55.4991V20.3572C55.4991 19.4073 54.9803 18.7876 53.9416 18.7876C53.0234 18.7876 52.1844 19.4869 52.1844 20.6606V23.8266H50.7734V15H52.1844V18.2326C52.5567 17.797 53.2763 17.4936 54.1674 17.4936C55.8313 17.4936 56.9101 18.5489 56.9101 20.1583V20.1593Z" fill="#0C242C"/>
<path d="M7.42215 19.4395C11.5213 19.4395 14.8443 16.1459 14.8443 12.083C14.8443 8.02016 11.5213 4.72656 7.42215 4.72656C3.32301 4.72656 0 8.02016 0 12.083C0 16.1459 3.32301 19.4395 7.42215 19.4395Z" fill="#0C242C"/>
<path d="M14.8453 1.70312H0V3.83367H14.8453V1.70312Z" fill="#0C242C"/>
<path d="M2.14844 23.8215L2.14844 18.4922H-0.00113463L-0.00113463 23.8215H2.14844Z" fill="#0C242C"/>
<path d="M13.3256 23.8287L10.2578 20.795L11.7782 19.2891L14.846 22.3228L13.3256 23.8287Z" fill="#0C242C"/>
<path d="M59.8773 3.41166C60.8278 3.41166 61.5984 2.64794 61.5984 1.70583C61.5984 0.763727 60.8278 0 59.8773 0C58.9268 0 58.1562 0.763727 58.1562 1.70583C58.1562 2.64794 58.9268 3.41166 59.8773 3.41166Z" fill="#0C242C"/>
<path d="M60.1656 1.84649L60.6613 2.49003H60.3282L59.8394 1.85444H59.5404V2.49003H59.2734V0.890625H60.0512C60.4305 0.890625 60.6001 1.11243 60.6001 1.37204C60.6001 1.60578 60.4636 1.80571 60.1656 1.84649ZM60.0411 1.13332H59.5404V1.60976H60.0411C60.2208 1.60976 60.3332 1.52322 60.3332 1.37104C60.3332 1.21886 60.2218 1.13233 60.0411 1.13233V1.13332Z" fill="white"/>
</g>
<defs>
<clipPath id="clip0_12750_46387">
<rect width="61.6" height="24" fill="white"/>
</clipPath>
</defs>
</svg>
