<svg width="96" height="12" viewBox="0 0 96 12" fill="none" xmlns="http://www.w3.org/2000/svg">
<path d="M77.3945 0.00012207C79.2715 0.00012207 80.6072 0.773845 80.9941 1.83899H81.1885V0.194458H83.7041V11.8058H81.1885V10.1613H80.9941C80.5099 11.3024 79.1174 12.0001 77.4141 12.0001C74.4146 12.0001 72.5752 9.79276 72.5752 6.01965L72.5771 6.0177C72.5773 2.22588 74.3573 0.000283568 77.3945 0.00012207ZM17.7246 0.0020752C20.9563 0.00217498 22.8711 1.9362 22.8711 5.74915V6.77454H14.6465C14.8199 8.61335 15.672 9.77346 17.7031 9.77356C19.7344 9.77356 20.3544 8.84598 20.3545 8.18665V8.14856H22.8691V8.18665C22.8691 10.1208 21.0512 11.9982 17.665 11.9982C13.8922 11.9981 12.1124 9.75297 12.1123 6.07727C12.1123 2.40135 14.184 0.0020752 17.7246 0.0020752ZM30.666 0.00012207C33.7415 0.00012207 35.8133 1.76073 35.8135 4.79797V4.83704H33.1631V4.79797C33.1629 3.19183 32.1942 2.24524 30.666 2.24524C28.7322 2.24545 27.7052 3.67608 27.7051 6.0177C27.7051 8.35952 28.7492 9.75285 30.666 9.75305C32.1181 9.75305 33.1631 8.80384 33.1631 7.1593V7.12122H35.8135V7.1593C35.8135 10.1587 33.7627 11.9982 30.5498 11.9982C27.0094 11.998 25.0947 9.79067 25.0947 6.0177C25.0948 2.24495 27.1067 0.000298977 30.666 0.00012207ZM54.1953 0.00012207C57.7758 0.000146113 59.8075 2.20672 59.8076 5.97961C59.8076 9.7527 57.7759 11.9981 54.1953 11.9982C50.6147 11.9982 48.583 9.7908 48.583 6.0177C48.5831 2.26385 50.6148 0.00012207 54.1953 0.00012207ZM88.8291 4.297C88.8291 5.10878 89.1785 5.41907 89.9521 5.41907H93.2812V0.194458H95.7959V11.8048H93.2812V7.74231H89.4102C87.1466 7.74222 86.3135 6.90938 86.3135 4.64563V0.194458H88.8291V4.297ZM6.01758 0.194458C8.78448 0.194458 10.1777 1.70349 10.1777 4.37317C10.1777 7.04286 8.66868 8.51372 5.80469 8.51379H2.51562V11.7843L0 11.8029V0.192505H6.01758V0.194458ZM47.5215 2.51575H43.457V11.8029H40.9414V2.51575H36.8789V0.192505H47.5215V2.51575ZM71.5146 2.51575H67.4502V11.8029H64.9346V2.51575H60.8721V0.192505H71.5146V2.51575ZM54.1953 2.24524C52.2593 2.24524 51.1964 3.67591 51.1963 6.0177C51.1963 8.30062 52.2592 9.75305 54.1953 9.75305C56.1314 9.75302 57.1943 8.32158 57.1943 5.97961C57.1942 3.63783 56.1313 2.24527 54.1953 2.24524ZM78.1895 2.24524C76.2535 2.24526 75.1905 3.67592 75.1904 6.0177C75.1904 8.3006 76.2534 9.75303 78.1895 9.75305C80.1255 9.75305 81.1885 8.32161 81.1885 5.97961C81.1884 3.63781 80.1255 2.24524 78.1895 2.24524ZM2.51562 6.23157H5.41797C6.75348 6.23149 7.58383 5.74721 7.58398 4.31653C7.58398 2.88554 6.7517 2.47773 5.41797 2.47766H2.51562V6.23157ZM17.7432 2.22571C15.9635 2.22579 15.0547 3.09692 14.7441 4.58704H20.375C20.2969 3.11591 19.4258 2.22571 17.7432 2.22571Z" fill="#313131"/>
</svg>
