<svg width="32" height="9" viewBox="0 0 32 9" fill="none" xmlns="http://www.w3.org/2000/svg">
<g clip-path="url(#clip0_14314_549)">
<path fill-rule="evenodd" clip-rule="evenodd" d="M8.95545 0.000793628V0.00472376C8.95162 0.00472376 7.74457 0.000793607 7.42269 1.18376C7.12764 2.26848 6.29612 5.26324 6.27313 5.34577H6.04321C6.04321 5.34577 5.19253 2.2842 4.89365 1.17983C4.57177 -0.00313654 3.36089 0.000793628 3.36089 0.000793628H0.601929V9.00079H3.36089V3.65582H3.47585H3.5908L5.2002 9.00079H7.11614L8.72554 3.65975H8.95545V9.00079H11.7144V0.000793628H8.95545Z" fill="#303030"/>
<path fill-rule="evenodd" clip-rule="evenodd" d="M19.0333 0.000610352C19.0333 0.000610352 18.2248 0.0752828 17.8454 0.943842L15.8912 5.34559H15.6612V0.000610352H12.9023V9.00061H15.508C15.508 9.00061 16.3548 8.92201 16.7342 8.05738L18.6501 3.65563H18.88V9.00061H21.639V0.000610352H19.0333Z" fill="#303030"/>
<path fill-rule="evenodd" clip-rule="evenodd" d="M22.8652 4.0881V9.00077H25.6242V6.13177H28.6131C29.9159 6.13177 31.0195 5.27893 31.4295 4.0881H22.8652Z" fill="#303030"/>
<path fill-rule="evenodd" clip-rule="evenodd" d="M28.613 0.000610352H22.4781C22.7847 1.71415 24.0377 3.08969 25.6586 3.53773C26.0265 3.63991 26.4135 3.69493 26.812 3.69493H31.5406C31.5827 3.49057 31.6019 3.28227 31.6019 3.06611C31.6019 1.37223 30.2646 0.000610352 28.613 0.000610352Z" fill="#303030"/>
</g>
<defs>
<clipPath id="clip0_14314_549">
<rect width="31" height="9" fill="white" transform="translate(0.601929)"/>
</clipPath>
</defs>
</svg>
