<svg width="75" height="17" viewBox="0 0 75 17" fill="none" xmlns="http://www.w3.org/2000/svg">
<path d="M65.615 8.54888C65.615 6.46373 64.0888 4.77701 61.933 4.77701C59.8199 4.77701 58.3152 6.39891 58.3152 8.62751C58.3152 10.8673 59.8626 12.5003 62.0826 12.5003C63.4911 12.5003 64.6757 11.849 65.4121 10.5251L63.9182 9.80795C63.5662 10.4699 62.7974 10.9002 62.0826 10.9002C61.1756 10.9002 60.1298 10.1942 60.0656 9.21241H65.5616C65.5966 8.99308 65.6145 8.77119 65.615 8.54888ZM60.0974 7.91138C60.2259 6.91848 60.8873 6.2677 61.9438 6.2677C62.9896 6.2677 63.6299 6.9052 63.7152 7.91138H60.0974Z" fill="#303030"/>
<path d="M45.0425 4.77542C42.8759 4.77542 41.3394 6.3867 41.3394 8.65939C41.3394 10.9098 42.8759 12.4987 45.0641 12.4987C47.2625 12.4987 48.799 10.9098 48.799 8.69233C48.799 6.40848 47.2198 4.77542 45.0425 4.77542ZM45.0641 10.8104C43.9752 10.8104 43.303 9.97211 43.303 8.67001C43.303 7.34614 43.9859 6.44142 45.0641 6.44142C46.1525 6.44142 46.8355 7.33498 46.8355 8.67001C46.8355 9.98326 46.1633 10.8104 45.0641 10.8104Z" fill="#303030"/>
<path d="M37.328 4.77753C36.4405 4.77753 35.7719 5.09097 35.1034 5.86819H34.8839C34.4348 5.16641 33.702 4.77753 32.8798 4.77753C32.4693 4.77338 32.0636 4.8701 31.6964 5.05972C31.3291 5.24934 31.0106 5.52643 30.7672 5.86819H30.5477L30.537 5.85756V4.92894H28.7003V12.3367H30.685V8.52444C30.685 7.29353 31.1865 6.56997 32.0534 6.56997C32.8577 6.56997 33.3798 7.18569 33.3798 8.12494V12.3367H35.3747V8.52444C35.3747 7.30256 35.8763 6.56997 36.754 6.56997C37.5474 6.56997 38.0593 7.18569 38.0593 8.13609V12.3367H40.0547V7.88747C40.0547 5.95478 39.0516 4.77753 37.328 4.77753Z" fill="#303030"/>
<path d="M70.0283 9.76756H69.8865C69.8865 9.63581 69.0211 7.28981 68.4537 5.83631L68.0991 4.92734H66.0996L68.9363 12.3611L67.8186 15.1937H69.8042L73.8891 4.92999H71.8886L71.5622 5.70721L70.4558 8.53718C70.1439 9.32768 70.016 9.69424 70.0283 9.76756Z" fill="#303030"/>
<path d="M54.3033 4.77753C53.4153 4.77753 52.6527 5.17703 52.1409 5.88996H51.9317L51.9112 5.87934V4.92893H50.0735V12.3367H52.0581V8.54621C52.0581 7.33709 52.6234 6.58059 53.552 6.58059C54.4189 6.58059 55.0562 7.24996 55.0562 8.30821V12.3362H57.0408V7.86621C57.0408 6.052 55.8917 4.77753 54.3033 4.77753Z" fill="#303030"/>
<path d="M15.2215 0.53125C10.9337 0.53125 7.48804 4.11719 7.48804 8.5C7.48804 12.9189 10.9676 16.4688 15.2205 16.4688C19.4735 16.4688 22.9561 12.8828 22.9561 8.5C22.9561 4.11719 19.4745 0.53125 15.2215 0.53125ZM15.2215 11.4702C13.6398 11.4702 12.3397 10.1299 12.3397 8.5C12.3397 6.87013 13.6398 5.52978 15.2215 5.52978C16.8033 5.52978 18.104 6.87013 18.104 8.5C18.0685 10.1299 16.8033 11.4702 15.2215 11.4702Z" fill="#303030"/>
<path d="M7.48803 2.84644V14.4372H4.74797L1.23297 2.84644H7.48803Z" fill="#303030"/>
</svg>
