<svg width="47" height="27" viewBox="0 0 47 27" fill="none" xmlns="http://www.w3.org/2000/svg">
<path d="M46.6019 11.4005V18.0015H44.2396V13.371H41.9651V18.0015H39.6028V11.4001H46.6019V11.4005Z" fill="#303030"/>
<path fill-rule="evenodd" clip-rule="evenodd" d="M34.7511 18.2372C36.866 18.2372 38.4363 16.9434 38.4363 14.9823C38.4363 13.084 37.2777 11.8515 35.3414 11.8515C34.4478 11.8515 33.7104 12.1654 33.155 12.7069C33.2876 11.5876 34.2363 10.7704 35.2808 10.7704C35.5218 10.7704 37.3366 10.7665 37.3366 10.7665L38.3626 8.80679C38.3626 8.80679 36.0844 8.85854 35.0253 8.85854C32.6053 8.90084 30.9706 11.0957 30.9706 13.7613C30.9706 16.8672 32.5649 18.2374 34.7513 18.2374L34.7511 18.2372ZM34.7641 13.5871C35.5493 13.5871 36.0937 14.1019 36.0937 14.9821C36.0937 15.7741 35.61 16.4271 34.7641 16.4289C33.9551 16.4289 33.4107 15.8241 33.4107 14.9956C33.4107 14.1152 33.9551 13.5871 34.7641 13.5871Z" fill="#303030"/>
<path d="M29.0478 15.7916C29.0478 15.7916 28.49 16.1125 27.6565 16.1732C26.6988 16.2016 25.8453 15.5979 25.8453 14.5253C25.8453 13.4791 26.5985 12.8795 27.6326 12.8795C28.2667 12.8795 29.1056 13.318 29.1056 13.318C29.1056 13.318 29.7194 12.1941 30.0373 11.6321C29.4551 11.1917 28.6796 10.9503 27.7776 10.9503C25.5012 10.9503 23.7381 12.4313 23.7381 14.5121C23.7381 16.6194 25.3953 18.0659 27.7776 18.022C28.4435 17.9973 29.3622 17.7642 29.9221 17.4053L29.0478 15.7916Z" fill="#303030"/>
<path d="M0 5.87701L3.27689 11.7214V15.2862L0.00383341 21.1191L0 5.87701Z" fill="#303030"/>
<path d="M12.582 9.59457L15.6525 7.71673L21.9366 7.71088L12.582 13.429V9.59457Z" fill="#303030"/>
<path d="M12.5646 5.84255L12.5819 13.5803L9.29736 11.5665V0L12.5646 5.84255Z" fill="#303030"/>
<path d="M21.9366 7.71094L15.6523 7.71679L12.5646 5.84255L9.29736 0L21.9366 7.71094Z" fill="#303030"/>
<path d="M12.5819 21.1516V17.3975L9.29736 15.422L9.29917 27L12.5819 21.1516Z" fill="#303030"/>
<path d="M15.6448 19.2908L3.27667 11.7214L0 5.87701L21.9233 19.2831L15.6448 19.2908Z" fill="#303030"/>
<path d="M9.29944 26.9997L12.5817 21.1513L15.6446 19.2906L21.9231 19.2829L9.29944 26.9997Z" fill="#303030"/>
<path d="M0.00384521 21.119L9.32423 15.4221L6.19075 13.5037L3.2769 15.2862L0.00384521 21.119Z" fill="#303030"/>
</svg>
